<svg id="Layer_1" data-name="Layer 1" xmlns="http://www.w3.org/2000/svg" viewBox="0 0 362.26 454.77"><defs><style>.cls-1{fill:#fff;}.cls-2{fill:none;stroke:#707070;}.cls-3{isolation:isolate;}.cls-4{fill:#707070;}</style></defs><title>feature-onoff</title><g id="right-click-file"><g id="Rectangle_40" data-name="Rectangle 40"><rect class="cls-1" x="11.72" y="14.85" width="334" height="431" rx="10"/><rect class="cls-2" x="12.22" y="15.35" width="333" height="430" rx="9.5"/></g><g id="Share" class="cls-3"><g class="cls-3"><path class="cls-4" d="M35.46,61.71a5.64,5.64,0,0,0,4.2,1.9c2.38,0,3.14-1.28,3.14-2.3,0-1.6-1.62-2-3.38-2.52-2.14-.56-4.52-1.16-4.52-3.78,0-2.2,2-3.7,4.58-3.7a6.31,6.31,0,0,1,4.75,1.86l-1,1.22a5.1,5.1,0,0,0-3.86-1.6c-1.6,0-2.74.86-2.74,2.12s1.54,1.74,3.24,2.2c2.18.58,4.67,1.26,4.67,4.06,0,1.94-1.33,3.92-4.93,3.92A6.61,6.61,0,0,1,34.48,63Z"/><path class="cls-4" d="M53.48,58.49c0-1.7-.88-2.2-2.18-2.2a3.8,3.8,0,0,0-2.86,1.5v7.06h-1.5V51.51h1.5v5.08A4.8,4.8,0,0,1,51.9,55c2,0,3.08,1,3.08,3.08v6.82h-1.5Z"/><path class="cls-4" d="M64,63.75a4.18,4.18,0,0,1-3.2,1.34,3.22,3.22,0,0,1-3.38-3.2,3.16,3.16,0,0,1,3.38-3.18A4,4,0,0,1,64,60V58.29c0-1.3-1-2-2.44-2a3.84,3.84,0,0,0-3,1.34l-.7-1A5.06,5.06,0,0,1,61.78,55c2,0,3.74.92,3.74,3.26v6.64H64ZM64,61a3.23,3.23,0,0,0-2.66-1.2,2.13,2.13,0,1,0,0,4.22A3.23,3.23,0,0,0,64,62.81Z"/><path class="cls-4" d="M68.52,55.19H70v1.56A4.11,4.11,0,0,1,73.24,55v1.54a2.64,2.64,0,0,0-.6-.06A3.53,3.53,0,0,0,70,58v6.84h-1.5Z"/><path class="cls-4" d="M79.32,55C82.24,55,84,57.23,84,60.13v.38H76.14a3.4,3.4,0,0,0,3.48,3.34,4.22,4.22,0,0,0,3-1.22l.72,1a5.25,5.25,0,0,1-3.84,1.48A5.08,5.08,0,0,1,79.32,55Zm-3.18,4.46h6.34a3.13,3.13,0,0,0-3.18-3.22A3.22,3.22,0,0,0,76.14,59.41Z"/></g></g><g id="Move_To" data-name="Move To" class="cls-3"><g class="cls-3"><path class="cls-4" d="M46.69,125.75l-4.55,11.1h-.68l-4.52-11.1v11.1H35.28V123.51h2.38l4.14,10.16L46,123.51h2.38v13.34H46.69Z"/><path class="cls-4" d="M50.84,132a4.79,4.79,0,1,1,4.78,5.08A4.74,4.74,0,0,1,50.84,132Zm8,0c0-2-1.14-3.72-3.2-3.72S52.4,130.05,52.4,132s1.16,3.74,3.22,3.74S58.82,134,58.82,132Z"/><path class="cls-4" d="M61.4,127.19H63l3.22,7.92,3.2-7.92h1.64l-4,9.66H65.42Z"/><path class="cls-4" d="M76.84,127c2.92,0,4.64,2.28,4.64,5.18v.38H73.66a3.4,3.4,0,0,0,3.48,3.34,4.22,4.22,0,0,0,3-1.22l.72,1A5.25,5.25,0,0,1,77,137.09,5.08,5.08,0,0,1,76.84,127Zm-3.18,4.46H80a3.13,3.13,0,0,0-3.18-3.22A3.22,3.22,0,0,0,73.66,131.41Z"/><path class="cls-4" d="M92.42,125H88.2v-1.48H98.32V125H94.08v11.86H92.42Z"/><path class="cls-4" d="M97.6,132a4.79,4.79,0,1,1,4.78,5.08A4.74,4.74,0,0,1,97.6,132Zm8,0c0-2-1.14-3.72-3.2-3.72s-3.22,1.76-3.22,3.72,1.16,3.74,3.22,3.74S105.58,134,105.58,132Z"/></g></g><g id="Add_to_Starred" data-name="Add to Starred" class="cls-3"><g class="cls-3"><path class="cls-4" d="M43.68,169.89H36.92l-1.18,3H33.9l5.36-13.34h2.06l5.39,13.34H44.86Zm-6.28-1.48h5.78L40.3,161Z"/><path class="cls-4" d="M55.38,171.41a4.07,4.07,0,0,1-3.26,1.68c-2.52,0-4.3-1.92-4.3-5.06s1.76-5.08,4.3-5.08a4,4,0,0,1,3.26,1.7v-5.14h1.5v13.34h-1.5Zm0-5.56a3.63,3.63,0,0,0-2.9-1.56c-1.94,0-3.1,1.6-3.1,3.74s1.16,3.72,3.1,3.72a3.59,3.59,0,0,0,2.9-1.52Z"/><path class="cls-4" d="M66.88,171.41a4.07,4.07,0,0,1-3.26,1.68c-2.52,0-4.3-1.92-4.3-5.06s1.76-5.08,4.3-5.08a4,4,0,0,1,3.26,1.7v-5.14h1.5v13.34h-1.5Zm0-5.56a3.63,3.63,0,0,0-2.9-1.56c-1.94,0-3.1,1.6-3.1,3.74s1.16,3.72,3.1,3.72a3.59,3.59,0,0,0,2.9-1.52Z"/><path class="cls-4" d="M76.84,170.83v-6.32h-1.6v-1.32h1.6v-2.64h1.5v2.64h2v1.32h-2v6c0,.72.32,1.24,1,1.24a1.45,1.45,0,0,0,1-.4l.44,1.12a2.45,2.45,0,0,1-1.8.62A2,2,0,0,1,76.84,170.83Z"/><path class="cls-4" d="M81.86,168a4.79,4.79,0,1,1,4.78,5.08A4.74,4.74,0,0,1,81.86,168Zm8,0c0-2-1.14-3.72-3.2-3.72s-3.22,1.76-3.22,3.72,1.16,3.74,3.22,3.74S89.84,170,89.84,168Z"/><path class="cls-4" d="M99.26,169.71a5.64,5.64,0,0,0,4.2,1.9c2.38,0,3.14-1.28,3.14-2.3,0-1.6-1.62-2-3.38-2.52-2.14-.56-4.52-1.16-4.52-3.78,0-2.2,2-3.7,4.58-3.7a6.27,6.27,0,0,1,4.74,1.86l-1,1.22a5.1,5.1,0,0,0-3.86-1.6c-1.6,0-2.74.86-2.74,2.12s1.54,1.74,3.24,2.2c2.18.58,4.66,1.26,4.66,4.06,0,1.94-1.32,3.92-4.92,3.92A6.61,6.61,0,0,1,98.28,171Z"/><path class="cls-4" d="M110.7,170.83v-6.32h-1.6v-1.32h1.6v-2.64h1.5v2.64h2v1.32h-2v6c0,.72.32,1.24,1,1.24a1.45,1.45,0,0,0,1-.4l.44,1.12a2.45,2.45,0,0,1-1.8.62A2,2,0,0,1,110.7,170.83Z"/><path class="cls-4" d="M122.32,171.75a4.18,4.18,0,0,1-3.2,1.34,3.22,3.22,0,0,1-3.38-3.2,3.16,3.16,0,0,1,3.38-3.18,4,4,0,0,1,3.2,1.32v-1.74c0-1.3-1-2-2.44-2a3.84,3.84,0,0,0-3,1.34l-.7-1a5.06,5.06,0,0,1,3.86-1.6c2,0,3.74.92,3.74,3.26v6.64h-1.5Zm0-2.76a3.23,3.23,0,0,0-2.66-1.2,2.13,2.13,0,1,0,0,4.22,3.23,3.23,0,0,0,2.66-1.2Z"/><path class="cls-4" d="M126.82,163.19h1.5v1.56a4.11,4.11,0,0,1,3.22-1.76v1.54a2.64,2.64,0,0,0-.6-.06,3.53,3.53,0,0,0-2.62,1.54v6.84h-1.5Z"/><path class="cls-4" d="M133.42,163.19h1.5v1.56a4.11,4.11,0,0,1,3.22-1.76v1.54a2.64,2.64,0,0,0-.6-.06,3.53,3.53,0,0,0-2.62,1.54v6.84h-1.5Z"/><path class="cls-4" d="M144.22,163c2.92,0,4.64,2.28,4.64,5.18v.38H141a3.4,3.4,0,0,0,3.48,3.34,4.22,4.22,0,0,0,3-1.22l.72,1a5.25,5.25,0,0,1-3.84,1.48,5.08,5.08,0,0,1-.16-10.14ZM141,167.41h6.34a3.13,3.13,0,0,0-3.18-3.22A3.22,3.22,0,0,0,141,167.41Z"/><path class="cls-4" d="M158.28,171.41a4.07,4.07,0,0,1-3.26,1.68c-2.52,0-4.3-1.92-4.3-5.06S152.48,163,155,163a4,4,0,0,1,3.26,1.7v-5.14h1.5v13.34h-1.5Zm0-5.56a3.63,3.63,0,0,0-2.9-1.56c-1.94,0-3.1,1.6-3.1,3.74s1.16,3.72,3.1,3.72a3.59,3.59,0,0,0,2.9-1.52Z"/></g></g><g id="Rename" class="cls-3"><g class="cls-3"><path class="cls-4" d="M39.6,203.55H36.94v5.3H35.28V195.51h5.36a3.89,3.89,0,0,1,4.18,4,3.69,3.69,0,0,1-3.46,3.88l3.6,5.44H43Zm.84-6.56h-3.5v5.1h3.5a2.55,2.55,0,1,0,0-5.1Z"/><path class="cls-4" d="M51,199c2.92,0,4.64,2.28,4.64,5.18v.38H47.8a3.4,3.4,0,0,0,3.48,3.34,4.22,4.22,0,0,0,3-1.22l.72,1a5.25,5.25,0,0,1-3.84,1.48A5.08,5.08,0,0,1,51,199Zm-3.18,4.46h6.34A3.13,3.13,0,0,0,51,200.19,3.22,3.22,0,0,0,47.8,203.41Z"/><path class="cls-4" d="M64.56,202.53c0-1.7-.86-2.24-2.16-2.24a3.73,3.73,0,0,0-2.86,1.5v7.06H58v-9.66h1.5v1.4A4.79,4.79,0,0,1,63,199c2,0,3.08,1,3.08,3.12v6.78h-1.5Z"/><path class="cls-4" d="M75.1,207.75a4.18,4.18,0,0,1-3.2,1.34,3.22,3.22,0,0,1-3.38-3.2,3.16,3.16,0,0,1,3.38-3.18A4,4,0,0,1,75.1,204v-1.74c0-1.3-1-2-2.44-2a3.84,3.84,0,0,0-3,1.34l-.7-1a5.06,5.06,0,0,1,3.86-1.6c2,0,3.74.92,3.74,3.26v6.64H75.1Zm0-2.76a3.23,3.23,0,0,0-2.66-1.2,2.13,2.13,0,1,0,0,4.22,3.23,3.23,0,0,0,2.66-1.2Z"/><path class="cls-4" d="M91.26,202.29c0-1.22-.54-2-1.78-2a3.38,3.38,0,0,0-2.56,1.48v7.08h-1.5v-6.56c0-1.22-.52-2-1.78-2a3.37,3.37,0,0,0-2.54,1.5v7.06H79.6v-9.66h1.5v1.4A4.18,4.18,0,0,1,84.22,199a2.48,2.48,0,0,1,2.6,1.8,4.07,4.07,0,0,1,3.24-1.8c1.76,0,2.71,1,2.71,2.92v7H91.26Z"/><path class="cls-4" d="M100,199c2.92,0,4.64,2.28,4.64,5.18v.38H96.78a3.4,3.4,0,0,0,3.48,3.34,4.22,4.22,0,0,0,3-1.22l.72,1a5.25,5.25,0,0,1-3.84,1.48A5.08,5.08,0,0,1,100,199Zm-3.18,4.46h6.34a3.13,3.13,0,0,0-3.18-3.22A3.22,3.22,0,0,0,96.78,203.41Z"/></g></g><g id="Locate" class="cls-3"><g class="cls-3"><path class="cls-4" d="M35.28,231.51h1.66v11.86h6.2v1.48H35.28Z"/><path class="cls-4" d="M44.44,240a4.79,4.79,0,1,1,4.78,5.08A4.74,4.74,0,0,1,44.44,240Zm8,0c0-2-1.14-3.72-3.2-3.72S46,238.05,46,240s1.16,3.74,3.22,3.74S52.42,242,52.42,240Z"/><path class="cls-4" d="M60.7,235a4.13,4.13,0,0,1,3.54,1.68l-1,.92a2.86,2.86,0,0,0-2.46-1.26c-2.06,0-3.34,1.58-3.34,3.72s1.28,3.74,3.34,3.74a2.91,2.91,0,0,0,2.46-1.26l1,.92a4.13,4.13,0,0,1-3.54,1.68,5.08,5.08,0,0,1,0-10.14Z"/><path class="cls-4" d="M72.38,243.75a4.18,4.18,0,0,1-3.2,1.34,3.22,3.22,0,0,1-3.38-3.2,3.16,3.16,0,0,1,3.38-3.18,4,4,0,0,1,3.2,1.32v-1.74c0-1.3-1-2-2.44-2a3.84,3.84,0,0,0-3,1.34l-.7-1a5.06,5.06,0,0,1,3.86-1.6c2,0,3.74.92,3.74,3.26v6.64h-1.5Zm0-2.76a3.23,3.23,0,0,0-2.66-1.2,2.13,2.13,0,1,0,0,4.22,3.23,3.23,0,0,0,2.66-1.2Z"/><path class="cls-4" d="M77.18,242.83v-6.32h-1.6v-1.32h1.6v-2.64h1.5v2.64h2v1.32h-2v6c0,.72.32,1.24,1,1.24a1.45,1.45,0,0,0,1-.4l.44,1.12a2.45,2.45,0,0,1-1.8.62A2,2,0,0,1,77.18,242.83Z"/><path class="cls-4" d="M87,235c2.92,0,4.64,2.28,4.64,5.18v.38H83.78a3.4,3.4,0,0,0,3.48,3.34,4.22,4.22,0,0,0,3-1.22l.72,1a5.25,5.25,0,0,1-3.84,1.48A5.08,5.08,0,0,1,87,235Zm-3.18,4.46h6.34a3.13,3.13,0,0,0-3.18-3.22A3.22,3.22,0,0,0,83.78,239.41Z"/></g></g><g id="View_Activity" data-name="View Activity" class="cls-3"><g class="cls-3"><path class="cls-4" d="M33.9,267.51h1.9L40.3,279l4.51-11.52h1.9l-5.39,13.34H39.26Z"/><path class="cls-4" d="M48.12,268.55a1,1,0,0,1,2,0,1,1,0,1,1-2,0Zm.26,2.64h1.5v9.66h-1.5Z"/><path class="cls-4" d="M57.08,271c2.92,0,4.64,2.28,4.64,5.18v.38H53.9a3.4,3.4,0,0,0,3.48,3.34,4.22,4.22,0,0,0,3-1.22l.72,1a5.25,5.25,0,0,1-3.84,1.48A5.08,5.08,0,0,1,57.08,271Zm-3.18,4.46h6.34a3.13,3.13,0,0,0-3.18-3.22A3.22,3.22,0,0,0,53.9,275.41Z"/><path class="cls-4" d="M70,273.09l-2.52,7.76H66l-3.08-9.66h1.56l2.36,7.7,2.54-7.7h1.28l2.54,7.7,2.37-7.7h1.55L74,280.85H72.5Z"/><path class="cls-4" d="M92.44,277.89H85.68l-1.18,3H82.66L88,267.51h2.06l5.38,13.34H93.62Zm-6.28-1.48h5.78L89.06,269Z"/><path class="cls-4" d="M101.4,271a4.13,4.13,0,0,1,3.54,1.68l-1,.92a2.86,2.86,0,0,0-2.46-1.26c-2.06,0-3.34,1.58-3.34,3.72s1.28,3.74,3.34,3.74a2.91,2.91,0,0,0,2.46-1.26l1,.92a4.13,4.13,0,0,1-3.54,1.68,5.08,5.08,0,0,1,0-10.14Z"/><path class="cls-4" d="M107.34,278.83v-6.32h-1.6v-1.32h1.6v-2.64h1.5v2.64h2v1.32h-2v6c0,.72.32,1.24,1,1.24a1.45,1.45,0,0,0,1-.4l.44,1.12a2.45,2.45,0,0,1-1.8.62A2,2,0,0,1,107.34,278.83Z"/><path class="cls-4" d="M112.66,268.55a1,1,0,0,1,2,0,1,1,0,1,1-2,0Zm.26,2.64h1.5v9.66h-1.5Z"/><path class="cls-4" d="M116,271.19h1.62l3.22,7.92,3.2-7.92h1.64l-4,9.66H120Z"/><path class="cls-4" d="M127,268.55a1,1,0,0,1,2,0,1,1,0,1,1-2,0Zm.26,2.64h1.5v9.66h-1.5Z"/><path class="cls-4" d="M132,278.83v-6.32h-1.6v-1.32H132v-2.64h1.5v2.64h2v1.32h-2v6c0,.72.32,1.24,1,1.24a1.45,1.45,0,0,0,1-.4l.44,1.12a2.45,2.45,0,0,1-1.8.62A2,2,0,0,1,132,278.83Z"/><path class="cls-4" d="M138.12,283.43a1.39,1.39,0,0,0,1.44-1l.64-1.46-4-9.76h1.62l3.22,7.92,3.2-7.92h1.64L141,282.81a2.87,2.87,0,0,1-2.84,2,4.87,4.87,0,0,1-1.1-.14l.24-1.36A2.3,2.3,0,0,0,138.12,283.43Z"/></g></g><g id="Manage_Smart_Contract" data-name="Manage Smart Contract" class="cls-3"><g class="cls-3"><path class="cls-4" d="M46.69,88.75l-4.55,11.1h-.68l-4.52-11.1v11.1H35.28V86.51h2.38L41.8,96.67,46,86.51h2.38V99.85H46.69Z"/><path class="cls-4" d="M57.44,98.75a4.18,4.18,0,0,1-3.2,1.34,3.22,3.22,0,0,1-3.38-3.2,3.16,3.16,0,0,1,3.38-3.18A4,4,0,0,1,57.44,95V93.29c0-1.3-1-2-2.44-2a3.84,3.84,0,0,0-3,1.34l-.7-1A5.06,5.06,0,0,1,55.2,90c2,0,3.74.92,3.74,3.26v6.64h-1.5Zm0-2.76a3.23,3.23,0,0,0-2.66-1.2,2.13,2.13,0,1,0,0,4.22,3.23,3.23,0,0,0,2.66-1.2Z"/><path class="cls-4" d="M68.46,93.53c0-1.7-.86-2.24-2.16-2.24a3.73,3.73,0,0,0-2.86,1.5v7.06h-1.5V90.19h1.5v1.4A4.79,4.79,0,0,1,66.88,90c2,0,3.08,1,3.08,3.12v6.78h-1.5Z"/><path class="cls-4" d="M79,98.75a4.18,4.18,0,0,1-3.2,1.34,3.22,3.22,0,0,1-3.38-3.2,3.16,3.16,0,0,1,3.38-3.18A4,4,0,0,1,79,95V93.29c0-1.3-1-2-2.44-2a3.84,3.84,0,0,0-3,1.34l-.7-1A5.06,5.06,0,0,1,76.76,90c2,0,3.74.92,3.74,3.26v6.64H79ZM79,96a3.23,3.23,0,0,0-2.66-1.2,2.13,2.13,0,1,0,0,4.22A3.23,3.23,0,0,0,79,97.81Z"/><path class="cls-4" d="M84.24,101.21a3.69,3.69,0,0,0,3.14,1.32c1.6,0,3.1-.78,3.1-2.9V98.25A4,4,0,0,1,87.24,100c-2.52,0-4.3-1.88-4.3-5s1.76-5,4.3-5a4,4,0,0,1,3.24,1.7V90.19H92v9.38c0,3.2-2.24,4.2-4.6,4.2a4.94,4.94,0,0,1-3.9-1.44Zm6.24-8.36a3.56,3.56,0,0,0-2.88-1.56c-1.94,0-3.1,1.54-3.1,3.68s1.16,3.68,3.1,3.68a3.58,3.58,0,0,0,2.88-1.58Z"/><path class="cls-4" d="M99.18,90c2.92,0,4.64,2.28,4.64,5.18v.38H96a3.4,3.4,0,0,0,3.48,3.34,4.22,4.22,0,0,0,3-1.22l.72,1a5.25,5.25,0,0,1-3.84,1.48A5.08,5.08,0,0,1,99.18,90ZM96,94.41h6.34a3.13,3.13,0,0,0-3.18-3.22A3.22,3.22,0,0,0,96,94.41Z"/><path class="cls-4" d="M111.64,96.71a5.64,5.64,0,0,0,4.2,1.9c2.38,0,3.14-1.28,3.14-2.3,0-1.6-1.62-2-3.38-2.52-2.14-.56-4.52-1.16-4.52-3.78,0-2.2,2-3.7,4.58-3.7a6.27,6.27,0,0,1,4.74,1.86l-1,1.22a5.1,5.1,0,0,0-3.86-1.6c-1.6,0-2.74.86-2.74,2.12s1.54,1.74,3.24,2.2c2.18.58,4.66,1.26,4.66,4.06,0,1.94-1.32,3.92-4.92,3.92A6.61,6.61,0,0,1,110.66,98Z"/><path class="cls-4" d="M134.78,93.29c0-1.22-.54-2-1.78-2a3.38,3.38,0,0,0-2.56,1.48v7.08h-1.5V93.29c0-1.22-.52-2-1.78-2a3.37,3.37,0,0,0-2.54,1.5v7.06h-1.5V90.19h1.5v1.4A4.18,4.18,0,0,1,127.74,90a2.48,2.48,0,0,1,2.6,1.8,4.07,4.07,0,0,1,3.24-1.8c1.76,0,2.7,1,2.7,2.92v7h-1.5Z"/><path class="cls-4" d="M145.32,98.75a4.18,4.18,0,0,1-3.2,1.34,3.22,3.22,0,0,1-3.38-3.2,3.16,3.16,0,0,1,3.38-3.18,4,4,0,0,1,3.2,1.32V93.29c0-1.3-1-2-2.44-2a3.84,3.84,0,0,0-3,1.34l-.7-1a5.06,5.06,0,0,1,3.86-1.6c2,0,3.74.92,3.74,3.26v6.64h-1.5Zm0-2.76a3.23,3.23,0,0,0-2.66-1.2,2.13,2.13,0,1,0,0,4.22,3.23,3.23,0,0,0,2.66-1.2Z"/><path class="cls-4" d="M149.82,90.19h1.5v1.56A4.11,4.11,0,0,1,154.54,90v1.54a2.64,2.64,0,0,0-.6-.06A3.53,3.53,0,0,0,151.32,93v6.84h-1.5Z"/><path class="cls-4" d="M156.72,97.83V91.51h-1.6V90.19h1.6V87.55h1.5v2.64h2v1.32h-2v6c0,.72.32,1.24,1,1.24a1.45,1.45,0,0,0,1-.4l.44,1.12a2.45,2.45,0,0,1-1.8.62A2,2,0,0,1,156.72,97.83Z"/><path class="cls-4" d="M167,93.19a6.66,6.66,0,0,1,6.8-6.9,6,6,0,0,1,5.12,2.64l-1.4.78a4.53,4.53,0,0,0-3.72-1.94,5.43,5.43,0,0,0,0,10.84,4.48,4.48,0,0,0,3.72-1.94l1.42.78a6.07,6.07,0,0,1-5.14,2.64A6.66,6.66,0,0,1,167,93.19Z"/><path class="cls-4" d="M180.42,95a4.79,4.79,0,1,1,4.78,5.08A4.74,4.74,0,0,1,180.42,95Zm8,0c0-2-1.14-3.72-3.2-3.72S182,93.05,182,95s1.16,3.74,3.22,3.74S188.4,97,188.4,95Z"/><path class="cls-4" d="M198.94,93.53c0-1.7-.86-2.24-2.16-2.24a3.73,3.73,0,0,0-2.86,1.5v7.06h-1.5V90.19h1.5v1.4A4.79,4.79,0,0,1,197.36,90c2,0,3.08,1,3.08,3.12v6.78h-1.5Z"/><path class="cls-4" d="M203.74,97.83V91.51h-1.6V90.19h1.6V87.55h1.5v2.64h2v1.32h-2v6c0,.72.32,1.24,1,1.24a1.45,1.45,0,0,0,1-.4l.44,1.12a2.45,2.45,0,0,1-1.8.62A2,2,0,0,1,203.74,97.83Z"/><path class="cls-4" d="M209.32,90.19h1.5v1.56A4.11,4.11,0,0,1,214,90v1.54a2.64,2.64,0,0,0-.6-.06A3.53,3.53,0,0,0,210.82,93v6.84h-1.5Z"/><path class="cls-4" d="M222,98.75a4.18,4.18,0,0,1-3.2,1.34,3.22,3.22,0,0,1-3.38-3.2,3.16,3.16,0,0,1,3.38-3.18A4,4,0,0,1,222,95V93.29c0-1.3-1-2-2.44-2a3.84,3.84,0,0,0-3,1.34l-.7-1a5.06,5.06,0,0,1,3.86-1.6c2,0,3.74.92,3.74,3.26v6.64H222ZM222,96a3.23,3.23,0,0,0-2.66-1.2,2.13,2.13,0,1,0,0,4.22,3.23,3.23,0,0,0,2.66-1.2Z"/><path class="cls-4" d="M230.72,90a4.13,4.13,0,0,1,3.54,1.68l-1,.92a2.86,2.86,0,0,0-2.46-1.26c-2.06,0-3.34,1.58-3.34,3.72s1.28,3.74,3.34,3.74a2.91,2.91,0,0,0,2.46-1.26l1,.92a4.13,4.13,0,0,1-3.54,1.68,5.08,5.08,0,0,1,0-10.14Z"/><path class="cls-4" d="M236.66,97.83V91.51h-1.6V90.19h1.6V87.55h1.5v2.64h2v1.32h-2v6c0,.72.32,1.24,1,1.24a1.45,1.45,0,0,0,1-.4l.44,1.12a2.45,2.45,0,0,1-1.8.62A2,2,0,0,1,236.66,97.83Z"/></g></g><g id="Version_History" data-name="Version History" class="cls-3"><g class="cls-3"><path class="cls-4" d="M33.9,303.51h1.9L40.3,315l4.51-11.52h1.9l-5.39,13.34H39.26Z"/><path class="cls-4" d="M51.38,307c2.92,0,4.65,2.28,4.65,5.18v.38H48.2a3.4,3.4,0,0,0,3.48,3.34,4.22,4.22,0,0,0,3-1.22l.72,1a5.25,5.25,0,0,1-3.84,1.48A5.08,5.08,0,0,1,51.38,307Zm-3.18,4.46h6.34a3.13,3.13,0,0,0-3.18-3.22A3.22,3.22,0,0,0,48.2,311.41Z"/><path class="cls-4" d="M58.44,307.19h1.5v1.56A4.11,4.11,0,0,1,63.16,307v1.54a2.64,2.64,0,0,0-.6-.06A3.53,3.53,0,0,0,59.94,310v6.84h-1.5Z"/><path class="cls-4" d="M65,314.49a4.38,4.38,0,0,0,3.18,1.38c1.48,0,2.28-.66,2.28-1.6s-1.18-1.4-2.48-1.72c-1.64-.38-3.5-.82-3.5-2.82,0-1.5,1.3-2.78,3.6-2.78a4.89,4.89,0,0,1,3.58,1.4l-.7,1a3.76,3.76,0,0,0-2.88-1.22c-1.32,0-2.14.6-2.14,1.46s1.1,1.24,2.36,1.54c1.68.38,3.62.86,3.62,3,0,1.62-1.3,2.92-3.8,2.92a5.14,5.14,0,0,1-3.9-1.52Z"/><path class="cls-4" d="M74.08,304.55a1,1,0,0,1,2,0,1,1,0,1,1-2,0Zm.26,2.64h1.5v9.66h-1.5Z"/><path class="cls-4" d="M78.28,312a4.79,4.79,0,1,1,4.78,5.08A4.74,4.74,0,0,1,78.28,312Zm8,0c0-2-1.14-3.72-3.2-3.72s-3.22,1.76-3.22,3.72,1.16,3.74,3.22,3.74S86.26,314,86.26,312Z"/><path class="cls-4" d="M96.8,310.53c0-1.7-.86-2.24-2.16-2.24a3.73,3.73,0,0,0-2.86,1.5v7.06h-1.5v-9.66h1.5v1.4A4.79,4.79,0,0,1,95.22,307c2,0,3.08,1,3.08,3.12v6.78H96.8Z"/><path class="cls-4" d="M116,310.73h-7.8v6.12h-1.66V303.51h1.66v5.74H116v-5.74h1.66v13.34H116Z"/><path class="cls-4" d="M120.44,304.55a1,1,0,0,1,2,0,1,1,0,1,1-2,0Zm.26,2.64h1.5v9.66h-1.5Z"/><path class="cls-4" d="M125.14,314.49a4.38,4.38,0,0,0,3.18,1.38c1.48,0,2.28-.66,2.28-1.6s-1.18-1.4-2.48-1.72c-1.64-.38-3.5-.82-3.5-2.82,0-1.5,1.3-2.78,3.6-2.78a4.89,4.89,0,0,1,3.58,1.4l-.7,1a3.76,3.76,0,0,0-2.88-1.22c-1.32,0-2.14.6-2.14,1.46s1.1,1.24,2.36,1.54c1.68.38,3.62.86,3.62,3,0,1.62-1.3,2.92-3.8,2.92a5.14,5.14,0,0,1-3.9-1.52Z"/><path class="cls-4" d="M134.8,314.83v-6.32h-1.6v-1.32h1.6v-2.64h1.5v2.64h2v1.32h-2v6c0,.72.32,1.24,1,1.24a1.45,1.45,0,0,0,1-.4l.44,1.12a2.45,2.45,0,0,1-1.8.62A2,2,0,0,1,134.8,314.83Z"/><path class="cls-4" d="M139.82,312a4.79,4.79,0,1,1,4.78,5.08A4.74,4.74,0,0,1,139.82,312Zm8,0c0-2-1.14-3.72-3.2-3.72s-3.22,1.76-3.22,3.72,1.16,3.74,3.22,3.74S147.8,314,147.8,312Z"/><path class="cls-4" d="M151.82,307.19h1.5v1.56a4.11,4.11,0,0,1,3.22-1.76v1.54a2.64,2.64,0,0,0-.6-.06,3.53,3.53,0,0,0-2.62,1.54v6.84h-1.5Z"/><path class="cls-4" d="M158.94,319.43a1.39,1.39,0,0,0,1.44-1L161,317l-4-9.76h1.62l3.22,7.92,3.2-7.92h1.64l-4.84,11.62a2.87,2.87,0,0,1-2.84,2,4.87,4.87,0,0,1-1.1-.14l.24-1.36A2.3,2.3,0,0,0,158.94,319.43Z"/></g></g><g id="Download" class="cls-3"><g class="cls-3"><path class="cls-4" d="M35.28,353.51h4.56a6.67,6.67,0,1,1,0,13.34H35.28Zm4.56,11.86a5.19,5.19,0,0,0,0-10.38h-2.9v10.38Z"/><path class="cls-4" d="M48.66,362a4.79,4.79,0,1,1,4.78,5.08A4.74,4.74,0,0,1,48.66,362Zm8,0c0-2-1.14-3.72-3.2-3.72s-3.22,1.76-3.22,3.72,1.16,3.74,3.22,3.74S56.64,364,56.64,362Z"/><path class="cls-4" d="M66.5,359.09,64,366.85h-1.5l-3.08-9.66H61l2.36,7.7,2.54-7.7h1.28l2.55,7.7,2.36-7.7h1.56l-3.08,9.66H69Z"/><path class="cls-4" d="M81.86,360.53c0-1.7-.86-2.24-2.16-2.24a3.73,3.73,0,0,0-2.86,1.5v7.06h-1.5v-9.66h1.5v1.4A4.79,4.79,0,0,1,80.28,357c2,0,3.08,1,3.08,3.12v6.78h-1.5Z"/><path class="cls-4" d="M86.36,353.51h1.5v13.34h-1.5Z"/><path class="cls-4" d="M90.3,362a4.79,4.79,0,1,1,4.78,5.08A4.74,4.74,0,0,1,90.3,362Zm8,0c0-2-1.14-3.72-3.2-3.72s-3.22,1.76-3.22,3.72,1.16,3.74,3.22,3.74S98.28,364,98.28,362Z"/><path class="cls-4" d="M108.34,365.75a4.18,4.18,0,0,1-3.2,1.34,3.22,3.22,0,0,1-3.38-3.2,3.16,3.16,0,0,1,3.38-3.18,4,4,0,0,1,3.2,1.32v-1.74c0-1.3-1-2-2.44-2a3.84,3.84,0,0,0-3,1.34l-.7-1a5.06,5.06,0,0,1,3.86-1.6c2,0,3.74.92,3.74,3.26v6.64h-1.5Zm0-2.76a3.23,3.23,0,0,0-2.66-1.2,2.13,2.13,0,1,0,0,4.22,3.23,3.23,0,0,0,2.66-1.2Z"/><path class="cls-4" d="M119.84,365.41a4.07,4.07,0,0,1-3.26,1.68c-2.52,0-4.3-1.92-4.3-5.06S114,357,116.58,357a4,4,0,0,1,3.26,1.7v-5.14h1.5v13.34h-1.5Zm0-5.56a3.63,3.63,0,0,0-2.9-1.56c-1.94,0-3.1,1.6-3.1,3.74s1.16,3.72,3.1,3.72a3.59,3.59,0,0,0,2.9-1.52Z"/></g></g><g id="Trash" class="cls-3"><g class="cls-3"><path class="cls-4" d="M38.58,391H34.36v-1.48H44.48V391H40.24v11.86H38.58Z"/><path class="cls-4" d="M44.92,393.19h1.5v1.56A4.11,4.11,0,0,1,49.64,393v1.54a2.64,2.64,0,0,0-.6-.06A3.53,3.53,0,0,0,46.42,396v6.84h-1.5Z"/><path class="cls-4" d="M57.56,401.75a4.18,4.18,0,0,1-3.2,1.34,3.22,3.22,0,0,1-3.38-3.2,3.16,3.16,0,0,1,3.38-3.18,4,4,0,0,1,3.2,1.32v-1.74c0-1.3-1-2-2.44-2a3.84,3.84,0,0,0-3,1.34l-.7-1a5.06,5.06,0,0,1,3.86-1.6c2,0,3.74.92,3.74,3.26v6.64h-1.5Zm0-2.76a3.23,3.23,0,0,0-2.66-1.2,2.13,2.13,0,1,0,0,4.22,3.23,3.23,0,0,0,2.66-1.2Z"/><path class="cls-4" d="M62,400.49a4.38,4.38,0,0,0,3.18,1.38c1.48,0,2.28-.66,2.28-1.6s-1.18-1.4-2.48-1.72c-1.64-.38-3.5-.82-3.5-2.82,0-1.5,1.3-2.78,3.6-2.78a4.89,4.89,0,0,1,3.58,1.4l-.7,1a3.76,3.76,0,0,0-2.88-1.22c-1.32,0-2.14.6-2.14,1.46s1.1,1.24,2.36,1.54c1.68.38,3.62.86,3.62,3,0,1.62-1.3,2.92-3.8,2.92a5.14,5.14,0,0,1-3.9-1.52Z"/><path class="cls-4" d="M77.9,396.49c0-1.7-.88-2.2-2.18-2.2a3.8,3.8,0,0,0-2.86,1.5v7.06h-1.5V389.51h1.5v5.08A4.8,4.8,0,0,1,76.32,393c2,0,3.08,1,3.08,3.08v6.82H77.9Z"/></g></g><line id="Line_11" data-name="Line 11" class="cls-2" x1="12.22" y1="336.35" x2="346.22" y2="336.35"/></g></svg>