<svg id="Layer_1" data-name="Layer 1" xmlns="http://www.w3.org/2000/svg" viewBox="0 0 1524 1080"><defs><style>.cls-1{fill:#fff;}.cls-2{fill:#eaf2fd;}.cls-3{isolation:isolate;}.cls-4{fill:#707070;}.cls-5{fill:none;stroke:#707070;}.cls-6{fill:#ffb934;}.cls-7{fill:#96c3ff;}.cls-8{fill:#c6deff;}</style></defs><title>feature-end</title><g id="Group_471" data-name="Group 471"><rect id="Rectangle_211" data-name="Rectangle 211" class="cls-1" width="1524" height="1080"/><circle id="Ellipse_3" data-name="Ellipse 3" class="cls-2" cx="1455.5" cy="65.5" r="47.5"/><g id="Logo" class="cls-3"><g class="cls-3"><path class="cls-4" d="M1434.32,59.66h2.84V70.5h5.64V73h-8.48Z"/><path class="cls-4" d="M1443.88,68.16a5.11,5.11,0,1,1,5.1,5.08A4.89,4.89,0,0,1,1443.88,68.16Zm7.58,0A2.49,2.49,0,1,0,1449,71,2.55,2.55,0,0,0,1451.46,68.16Z"/><path class="cls-4" d="M1456.92,73.64a3.84,3.84,0,0,0,3,1.2,2.36,2.36,0,0,0,2.66-2.44v-1a3.76,3.76,0,0,1-3,1.52c-2.42,0-4.26-1.7-4.26-4.92s1.82-4.92,4.26-4.92a3.72,3.72,0,0,1,3,1.48V63.34h2.56v9c0,3.68-2.84,4.58-5.22,4.58a5.85,5.85,0,0,1-4.16-1.44Zm5.68-7.18a2.75,2.75,0,0,0-2.18-1.1,2.67,2.67,0,0,0,0,5.32,2.81,2.81,0,0,0,2.18-1.1Z"/><path class="cls-4" d="M1467.06,68.16a5.11,5.11,0,1,1,5.1,5.08A4.89,4.89,0,0,1,1467.06,68.16Zm7.58,0a2.49,2.49,0,1,0-2.48,2.82A2.55,2.55,0,0,0,1474.64,68.16Z"/></g></g><g id="Rectangle_22" data-name="Rectangle 22"><rect class="cls-1" x="51" y="38" width="893" height="48" rx="5"/><rect class="cls-5" x="51.5" y="38.5" width="892" height="47" rx="4.5"/></g><g id="Search" class="cls-3"><g class="cls-3"><path class="cls-4" d="M71,65a5.85,5.85,0,0,0,4.24,1.8c1.56,0,2.32-.74,2.32-1.5,0-1-1.16-1.34-2.7-1.7-2.18-.5-5-1.1-5-4.08,0-2.22,1.92-4,5.06-4a7.42,7.42,0,0,1,5.2,1.86L78.52,59.4a5.69,5.69,0,0,0-3.82-1.46c-1.28,0-2,.56-2,1.36s1.12,1.18,2.66,1.54c2.2.5,5,1.16,5,4.12,0,2.44-1.74,4.28-5.34,4.28a7.69,7.69,0,0,1-5.66-2.12Z"/><path class="cls-4" d="M86.64,59.1c2.88,0,4.84,2.16,4.84,5.32V65H84.3a2.6,2.6,0,0,0,2.78,2.24,4,4,0,0,0,2.58-1l1.12,1.64a6,6,0,0,1-4,1.34,5.07,5.07,0,1,1-.16-10.14Zm-2.38,4.16H89a2.24,2.24,0,0,0-2.38-2.14A2.32,2.32,0,0,0,84.26,63.26Z"/><path class="cls-4" d="M99.12,68a4,4,0,0,1-3.06,1.24A3.22,3.22,0,0,1,92.7,66,3.06,3.06,0,0,1,96.06,63a3.9,3.9,0,0,1,3.06,1.18V62.8c0-1-.84-1.62-2.12-1.62a4.06,4.06,0,0,0-2.82,1.14l-1-1.7a6.34,6.34,0,0,1,4.22-1.52c2.2,0,4.22.88,4.22,3.66V69H99.12Zm0-2.52a2.54,2.54,0,0,0-2-.84c-1,0-1.82.52-1.82,1.46s.82,1.42,1.82,1.42a2.54,2.54,0,0,0,2-.84Z"/><path class="cls-4" d="M104.18,59.34h2.54v1.32a4.13,4.13,0,0,1,3.08-1.54V61.6a3.12,3.12,0,0,0-3.08,1V69h-2.54Z"/><path class="cls-4" d="M115.88,59.1a4.5,4.5,0,0,1,3.82,1.74L118,62.4a2.34,2.34,0,0,0-2-1A2.82,2.82,0,0,0,116,67a2.44,2.44,0,0,0,2-1l1.66,1.54a4.45,4.45,0,0,1-3.82,1.76,5.07,5.07,0,1,1,0-10.14Z"/><path class="cls-4" d="M127.9,63.12c0-1.34-.7-1.76-1.8-1.76a2.81,2.81,0,0,0-2.2,1.14V69h-2.54V55.66h2.54V60.6a4.47,4.47,0,0,1,3.4-1.5c2.12,0,3.14,1.16,3.14,3V69H127.9Z"/></g></g><g id="Team_Name" data-name="Team Name" class="cls-3"><g class="cls-3"><path class="cls-1" d="M121.86,969.14h-4.22v-1.48h10.12v1.48h-4.24V981h-1.66Z"/><path class="cls-1" d="M131.8,971.1c2.92,0,4.64,2.28,4.64,5.18v.38h-7.82A3.4,3.4,0,0,0,132.1,980a4.22,4.22,0,0,0,3-1.22l.72,1a5.25,5.25,0,0,1-3.84,1.48,5.08,5.08,0,0,1-.16-10.14Zm-3.18,4.46H135a3.13,3.13,0,0,0-3.18-3.22A3.22,3.22,0,0,0,128.62,975.56Z"/><path class="cls-1" d="M144.9,979.9a4.18,4.18,0,0,1-3.2,1.34,3.22,3.22,0,0,1-3.38-3.2,3.16,3.16,0,0,1,3.38-3.18,4,4,0,0,1,3.2,1.32v-1.74c0-1.3-1-2-2.44-2a3.84,3.84,0,0,0-3,1.34l-.7-1a5.06,5.06,0,0,1,3.86-1.6c2,0,3.74.92,3.74,3.26V981h-1.5Zm0-2.76a3.23,3.23,0,0,0-2.66-1.2,2.13,2.13,0,1,0,0,4.22,3.23,3.23,0,0,0,2.66-1.2Z"/><path class="cls-1" d="M161.06,974.44c0-1.22-.54-2-1.78-2a3.38,3.38,0,0,0-2.56,1.48V981h-1.5v-6.56c0-1.22-.52-2-1.78-2a3.37,3.37,0,0,0-2.54,1.5V981h-1.5v-9.66h1.5v1.4A4.18,4.18,0,0,1,154,971.1a2.48,2.48,0,0,1,2.6,1.8,4.07,4.07,0,0,1,3.24-1.8c1.76,0,2.7,1,2.7,2.92v7h-1.5Z"/><path class="cls-1" d="M172.44,970.24V981h-1.66V967.66h1.7l7.68,10.54V967.66h1.66V981h-1.6Z"/><path class="cls-1" d="M190.92,979.9a4.18,4.18,0,0,1-3.2,1.34,3.22,3.22,0,0,1-3.38-3.2,3.16,3.16,0,0,1,3.38-3.18,4,4,0,0,1,3.2,1.32v-1.74c0-1.3-1-2-2.44-2a3.84,3.84,0,0,0-3,1.34l-.7-1a5.06,5.06,0,0,1,3.86-1.6c2,0,3.74.92,3.74,3.26V981h-1.5Zm0-2.76a3.23,3.23,0,0,0-2.66-1.2,2.13,2.13,0,1,0,0,4.22,3.23,3.23,0,0,0,2.66-1.2Z"/><path class="cls-1" d="M207.08,974.44c0-1.22-.54-2-1.78-2a3.38,3.38,0,0,0-2.56,1.48V981h-1.5v-6.56c0-1.22-.52-2-1.78-2a3.37,3.37,0,0,0-2.54,1.5V981h-1.5v-9.66h1.5v1.4A4.18,4.18,0,0,1,200,971.1a2.48,2.48,0,0,1,2.6,1.8,4.07,4.07,0,0,1,3.24-1.8c1.76,0,2.7,1,2.7,2.92v7h-1.5Z"/><path class="cls-1" d="M215.78,971.1c2.92,0,4.64,2.28,4.64,5.18v.38H212.6a3.4,3.4,0,0,0,3.48,3.34,4.22,4.22,0,0,0,3-1.22l.72,1a5.25,5.25,0,0,1-3.84,1.48,5.08,5.08,0,0,1-.16-10.14Zm-3.18,4.46h6.34a3.13,3.13,0,0,0-3.18-3.22A3.22,3.22,0,0,0,212.6,975.56Z"/></g></g><g id="Team_Name-2" data-name="Team Name-2" class="cls-3"><g class="cls-3"><path class="cls-1" d="M889.86,969.14h-4.22v-1.48h10.12v1.48h-4.24V981h-1.66Z"/><path class="cls-1" d="M899.8,971.1c2.92,0,4.64,2.28,4.64,5.18v.38h-7.82A3.4,3.4,0,0,0,900.1,980a4.22,4.22,0,0,0,3-1.22l.72,1a5.25,5.25,0,0,1-3.84,1.48,5.08,5.08,0,0,1-.16-10.14Zm-3.18,4.46H903a3.13,3.13,0,0,0-3.18-3.22A3.22,3.22,0,0,0,896.62,975.56Z"/><path class="cls-1" d="M912.9,979.9a4.18,4.18,0,0,1-3.2,1.34,3.22,3.22,0,0,1-3.38-3.2,3.16,3.16,0,0,1,3.38-3.18,4,4,0,0,1,3.2,1.32v-1.74c0-1.3-1-2-2.44-2a3.84,3.84,0,0,0-3,1.34l-.7-1a5.06,5.06,0,0,1,3.86-1.6c2,0,3.74.92,3.74,3.26V981h-1.5Zm0-2.76a3.23,3.23,0,0,0-2.66-1.2,2.13,2.13,0,1,0,0,4.22,3.23,3.23,0,0,0,2.66-1.2Z"/><path class="cls-1" d="M929.06,974.44c0-1.22-.54-2-1.78-2a3.38,3.38,0,0,0-2.56,1.48V981h-1.5v-6.56c0-1.22-.52-2-1.78-2a3.37,3.37,0,0,0-2.54,1.5V981h-1.5v-9.66h1.5v1.4A4.18,4.18,0,0,1,922,971.1a2.48,2.48,0,0,1,2.6,1.8,4.07,4.07,0,0,1,3.24-1.8c1.76,0,2.7,1,2.7,2.92v7h-1.5Z"/><path class="cls-1" d="M940.44,970.24V981h-1.66V967.66h1.7l7.68,10.54V967.66h1.66V981h-1.6Z"/><path class="cls-1" d="M958.92,979.9a4.18,4.18,0,0,1-3.2,1.34,3.22,3.22,0,0,1-3.38-3.2,3.16,3.16,0,0,1,3.38-3.18,4,4,0,0,1,3.2,1.32v-1.74c0-1.3-1-2-2.44-2a3.84,3.84,0,0,0-3,1.34l-.7-1a5.06,5.06,0,0,1,3.86-1.6c2,0,3.74.92,3.74,3.26V981h-1.5Zm0-2.76a3.23,3.23,0,0,0-2.66-1.2,2.13,2.13,0,1,0,0,4.22,3.23,3.23,0,0,0,2.66-1.2Z"/><path class="cls-1" d="M975.08,974.44c0-1.22-.54-2-1.78-2a3.38,3.38,0,0,0-2.56,1.48V981h-1.5v-6.56c0-1.22-.52-2-1.78-2a3.37,3.37,0,0,0-2.54,1.5V981h-1.5v-9.66h1.5v1.4A4.18,4.18,0,0,1,968,971.1a2.48,2.48,0,0,1,2.6,1.8,4.07,4.07,0,0,1,3.24-1.8c1.76,0,2.7,1,2.7,2.92v7h-1.5Z"/><path class="cls-1" d="M983.78,971.1c2.92,0,4.64,2.28,4.64,5.18v.38H980.6a3.4,3.4,0,0,0,3.48,3.34,4.22,4.22,0,0,0,3-1.22l.72,1a5.25,5.25,0,0,1-3.84,1.48,5.08,5.08,0,0,1-.16-10.14Zm-3.18,4.46h6.34a3.13,3.13,0,0,0-3.18-3.22A3.22,3.22,0,0,0,980.6,975.56Z"/></g></g><g id="Team_Name-3" data-name="Team Name-3" class="cls-3"><g class="cls-3"><path class="cls-1" d="M465.86,969.14h-4.22v-1.48h10.12v1.48h-4.24V981h-1.66Z"/><path class="cls-1" d="M475.8,971.1c2.92,0,4.64,2.28,4.64,5.18v.38h-7.82A3.4,3.4,0,0,0,476.1,980a4.22,4.22,0,0,0,3-1.22l.72,1a5.25,5.25,0,0,1-3.84,1.48,5.08,5.08,0,0,1-.16-10.14Zm-3.18,4.46H479a3.13,3.13,0,0,0-3.18-3.22A3.22,3.22,0,0,0,472.62,975.56Z"/><path class="cls-1" d="M488.9,979.9a4.18,4.18,0,0,1-3.2,1.34,3.22,3.22,0,0,1-3.38-3.2,3.16,3.16,0,0,1,3.38-3.18,4,4,0,0,1,3.2,1.32v-1.74c0-1.3-1-2-2.44-2a3.84,3.84,0,0,0-3,1.34l-.7-1a5.06,5.06,0,0,1,3.86-1.6c2,0,3.74.92,3.74,3.26V981h-1.5Zm0-2.76a3.23,3.23,0,0,0-2.66-1.2,2.13,2.13,0,1,0,0,4.22,3.23,3.23,0,0,0,2.66-1.2Z"/><path class="cls-1" d="M505.06,974.44c0-1.22-.54-2-1.78-2a3.38,3.38,0,0,0-2.56,1.48V981h-1.5v-6.56c0-1.22-.52-2-1.78-2a3.37,3.37,0,0,0-2.54,1.5V981h-1.5v-9.66h1.5v1.4A4.18,4.18,0,0,1,498,971.1a2.48,2.48,0,0,1,2.6,1.8,4.07,4.07,0,0,1,3.24-1.8c1.76,0,2.7,1,2.7,2.92v7h-1.5Z"/><path class="cls-1" d="M516.44,970.24V981h-1.66V967.66h1.7l7.68,10.54V967.66h1.66V981h-1.6Z"/><path class="cls-1" d="M534.92,979.9a4.18,4.18,0,0,1-3.2,1.34,3.22,3.22,0,0,1-3.38-3.2,3.16,3.16,0,0,1,3.38-3.18,4,4,0,0,1,3.2,1.32v-1.74c0-1.3-1-2-2.44-2a3.84,3.84,0,0,0-3,1.34l-.7-1a5.06,5.06,0,0,1,3.86-1.6c2,0,3.74.92,3.74,3.26V981h-1.5Zm0-2.76a3.23,3.23,0,0,0-2.66-1.2,2.13,2.13,0,1,0,0,4.22,3.23,3.23,0,0,0,2.66-1.2Z"/><path class="cls-1" d="M551.08,974.44c0-1.22-.54-2-1.78-2a3.38,3.38,0,0,0-2.56,1.48V981h-1.5v-6.56c0-1.22-.52-2-1.78-2a3.37,3.37,0,0,0-2.54,1.5V981h-1.5v-9.66h1.5v1.4A4.18,4.18,0,0,1,544,971.1a2.48,2.48,0,0,1,2.6,1.8,4.07,4.07,0,0,1,3.24-1.8c1.76,0,2.7,1,2.7,2.92v7h-1.5Z"/><path class="cls-1" d="M559.78,971.1c2.92,0,4.64,2.28,4.64,5.18v.38H556.6a3.4,3.4,0,0,0,3.48,3.34,4.22,4.22,0,0,0,3-1.22l.72,1a5.25,5.25,0,0,1-3.84,1.48,5.08,5.08,0,0,1-.16-10.14Zm-3.18,4.46h6.34a3.13,3.13,0,0,0-3.18-3.22A3.22,3.22,0,0,0,556.6,975.56Z"/></g></g><g id="Team_Name-4" data-name="Team Name-4" class="cls-3"><g class="cls-3"><path class="cls-1" d="M810.86,969.14h-4.22v-1.48h10.12v1.48h-4.24V981h-1.66Z"/><path class="cls-1" d="M820.8,971.1c2.92,0,4.64,2.28,4.64,5.18v.38h-7.82A3.4,3.4,0,0,0,821.1,980a4.22,4.22,0,0,0,3-1.22l.72,1a5.25,5.25,0,0,1-3.84,1.48,5.08,5.08,0,0,1-.16-10.14Zm-3.18,4.46H824a3.13,3.13,0,0,0-3.18-3.22A3.22,3.22,0,0,0,817.62,975.56Z"/><path class="cls-1" d="M833.9,979.9a4.18,4.18,0,0,1-3.2,1.34,3.22,3.22,0,0,1-3.38-3.2,3.16,3.16,0,0,1,3.38-3.18,4,4,0,0,1,3.2,1.32v-1.74c0-1.3-1-2-2.44-2a3.84,3.84,0,0,0-3,1.34l-.7-1a5.06,5.06,0,0,1,3.86-1.6c2,0,3.74.92,3.74,3.26V981h-1.5Zm0-2.76a3.23,3.23,0,0,0-2.66-1.2,2.13,2.13,0,1,0,0,4.22,3.23,3.23,0,0,0,2.66-1.2Z"/><path class="cls-1" d="M850.06,974.44c0-1.22-.54-2-1.78-2a3.38,3.38,0,0,0-2.56,1.48V981h-1.5v-6.56c0-1.22-.52-2-1.78-2a3.37,3.37,0,0,0-2.54,1.5V981h-1.5v-9.66h1.5v1.4A4.18,4.18,0,0,1,843,971.1a2.48,2.48,0,0,1,2.6,1.8,4.07,4.07,0,0,1,3.24-1.8c1.76,0,2.7,1,2.7,2.92v7h-1.5Z"/><path class="cls-1" d="M861.44,970.24V981h-1.66V967.66h1.7l7.68,10.54V967.66h1.66V981h-1.6Z"/><path class="cls-1" d="M879.92,979.9a4.18,4.18,0,0,1-3.2,1.34,3.22,3.22,0,0,1-3.38-3.2,3.16,3.16,0,0,1,3.38-3.18,4,4,0,0,1,3.2,1.32v-1.74c0-1.3-1-2-2.44-2a3.84,3.84,0,0,0-3,1.34l-.7-1a5.06,5.06,0,0,1,3.86-1.6c2,0,3.74.92,3.74,3.26V981h-1.5Zm0-2.76a3.23,3.23,0,0,0-2.66-1.2,2.13,2.13,0,1,0,0,4.22,3.23,3.23,0,0,0,2.66-1.2Z"/><path class="cls-1" d="M896.08,974.44c0-1.22-.54-2-1.78-2a3.38,3.38,0,0,0-2.56,1.48V981h-1.5v-6.56c0-1.22-.52-2-1.78-2a3.37,3.37,0,0,0-2.54,1.5V981h-1.5v-9.66h1.5v1.4A4.18,4.18,0,0,1,889,971.1a2.48,2.48,0,0,1,2.6,1.8,4.07,4.07,0,0,1,3.24-1.8c1.76,0,2.7,1,2.7,2.92v7h-1.5Z"/><path class="cls-1" d="M904.78,971.1c2.92,0,4.64,2.28,4.64,5.18v.38H901.6a3.4,3.4,0,0,0,3.48,3.34,4.22,4.22,0,0,0,3-1.22l.72,1a5.25,5.25,0,0,1-3.84,1.48,5.08,5.08,0,0,1-.16-10.14Zm-3.18,4.46h6.34a3.13,3.13,0,0,0-3.18-3.22A3.22,3.22,0,0,0,901.6,975.56Z"/></g></g><path id="_ionicons_svg_ios-checkmark-circle" data-name=" ionicons svg ios-checkmark-circle" class="cls-6" d="M105.73,148a54.73,54.73,0,1,0,54.73,54.73A54.73,54.73,0,0,0,105.73,148Zm28,39.6L98.57,223h0a4.74,4.74,0,0,1-3,1.44,4.56,4.56,0,0,1-3.08-1.5L77.68,208.19a1.05,1.05,0,0,1,0-1.48l0,0L82.36,202a1,1,0,0,1,1.44,0l0,0,11.68,11.68,32.1-32.34a1,1,0,0,1,.74-.31,1,1,0,0,1,.74.31l4.6,4.77a1,1,0,0,1,.11,1.46l-.06.06Z"/><g id="Transfer_Pending" data-name="Transfer Pending" class="cls-3"><g class="cls-3"><path class="cls-4" d="M207.24,190.23h-8.19V185H221.4v5.25h-8.15V213h-6Z"/><path class="cls-4" d="M222.23,192.71h5.34v2.77a8.7,8.7,0,0,1,6.47-3.23v5.21a6.39,6.39,0,0,0-1.47-.17,6.79,6.79,0,0,0-5,2.31V213h-5.34Z"/><path class="cls-4" d="M249.54,210.9a8.41,8.41,0,0,1-6.43,2.6c-3.24,0-7.06-2.18-7.06-6.72,0-4.74,3.82-6.47,7.06-6.47,2.69,0,5.08.84,6.43,2.48V200c0-2.06-1.77-3.4-4.46-3.4a8.51,8.51,0,0,0-5.92,2.39l-2-3.57a13.28,13.28,0,0,1,8.87-3.19c4.62,0,8.86,1.84,8.86,7.68V213h-5.33Zm0-5.29a5.35,5.35,0,0,0-4.29-1.77c-2.1,0-3.82,1.09-3.82,3.07s1.72,3,3.82,3a5.38,5.38,0,0,0,4.29-1.76Z"/><path class="cls-4" d="M273.85,200.73c0-2.81-1.47-3.78-3.73-3.78a5.81,5.81,0,0,0-4.63,2.4V213h-5.33V192.71h5.33v2.65a9.3,9.3,0,0,1,7.1-3.15c4.46,0,6.6,2.52,6.6,6.47V213h-5.34Z"/><path class="cls-4" d="M285,206.62a11.66,11.66,0,0,0,7,2.77c2.31,0,3.4-.8,3.4-2.06,0-1.43-1.76-1.93-4.07-2.4-3.49-.67-8-1.51-8-6.34,0-3.4,3-6.38,8.32-6.38a12.91,12.91,0,0,1,8.19,2.77l-2.14,3.65a8.58,8.58,0,0,0-6-2.35c-1.93,0-3.19.71-3.19,1.89s1.6,1.72,3.87,2.19c3.48.67,8.15,1.59,8.15,6.63,0,3.7-3.15,6.51-8.78,6.51a13.66,13.66,0,0,1-9.08-3.15Z"/><path class="cls-4" d="M305.69,197.37h-3.36v-4.66h3.36v-1.09c0-4.41,2.85-7.06,6.84-7.06a8.69,8.69,0,0,1,3.87.84l-1.09,3.78a3.36,3.36,0,0,0-1.73-.42c-1.51,0-2.52,1-2.52,2.94v1h4.12v4.66h-4.12V213h-5.37Z"/><path class="cls-4" d="M327.44,192.21c6.05,0,10.17,4.53,10.17,11.17v1.18H322.53c.34,2.56,2.39,4.7,5.84,4.7a8.3,8.3,0,0,0,5.42-2l2.35,3.45a12.64,12.64,0,0,1-8.36,2.81c-6.17,0-10.84-4.15-10.84-10.67A10.32,10.32,0,0,1,327.44,192.21Zm-5,8.73h10a4.69,4.69,0,0,0-5-4.49A4.87,4.87,0,0,0,322.45,200.94Z"/><path class="cls-4" d="M341.47,192.71h5.33v2.77a8.7,8.7,0,0,1,6.47-3.23v5.21a6.32,6.32,0,0,0-1.47-.17,6.83,6.83,0,0,0-5,2.31V213h-5.33Z"/><path class="cls-4" d="M367.47,185h13.1c6.1,0,9.41,4.12,9.41,9s-3.36,9-9.41,9h-7.14v10h-6Zm12.31,5.13h-6.35v7.72h6.35a3.87,3.87,0,1,0,0-7.72Z"/><path class="cls-4" d="M402,192.21c6,0,10.16,4.53,10.16,11.17v1.18H397.12c.34,2.56,2.39,4.7,5.84,4.7a8.3,8.3,0,0,0,5.42-2l2.35,3.45a12.64,12.64,0,0,1-8.36,2.81c-6.17,0-10.84-4.15-10.84-10.67A10.32,10.32,0,0,1,402,192.21Zm-5,8.73h10a4.69,4.69,0,0,0-5-4.49A4.88,4.88,0,0,0,397,200.94Z"/><path class="cls-4" d="M429.76,200.73c0-2.81-1.47-3.78-3.74-3.78a5.77,5.77,0,0,0-4.62,2.4V213h-5.34V192.71h5.34v2.65a9.27,9.27,0,0,1,7.1-3.15c4.45,0,6.59,2.52,6.59,6.47V213h-5.33Z"/><path class="cls-4" d="M454.33,210.4a7.9,7.9,0,0,1-6.26,3.1c-5.13,0-9-3.86-9-10.62s3.82-10.67,9-10.67a7.84,7.84,0,0,1,6.26,3.1V185h5.37v28h-5.37Zm0-11.14a5.84,5.84,0,0,0-4.62-2.31c-3,0-5.13,2.4-5.13,5.93s2.1,5.88,5.13,5.88a5.84,5.84,0,0,0,4.62-2.31Z"/><path class="cls-4" d="M464.45,186.53a3.19,3.19,0,1,1,3.19,3.2A3.22,3.22,0,0,1,464.45,186.53Zm.54,6.18h5.34V213H465Z"/><path class="cls-4" d="M489.31,200.73c0-2.81-1.47-3.78-3.74-3.78a5.77,5.77,0,0,0-4.62,2.4V213h-5.33V192.71H481v2.65a9.27,9.27,0,0,1,7.1-3.15c4.45,0,6.6,2.52,6.6,6.47V213h-5.34Z"/><path class="cls-4" d="M501.91,214.34a8.05,8.05,0,0,0,6.34,2.52c2.56,0,5.59-1.13,5.59-5.12v-2.06a7.89,7.89,0,0,1-6.26,3.19c-5.08,0-8.95-3.57-8.95-10.33s3.83-10.33,8.95-10.33a7.83,7.83,0,0,1,6.26,3.1v-2.6h5.37v18.9c0,7.73-6,9.62-11,9.62a12.3,12.3,0,0,1-8.74-3Zm11.93-15.08a5.8,5.8,0,0,0-4.58-2.31c-3,0-5.13,2.1-5.13,5.59s2.11,5.59,5.13,5.59a5.92,5.92,0,0,0,4.58-2.31Z"/></g></g><g id="Rectangle_33" data-name="Rectangle 33"><rect class="cls-1" x="51" y="309" width="514" height="131"/><rect class="cls-5" x="51.5" y="309.5" width="513" height="130"/></g><g id="Rectangle_34" data-name="Rectangle 34"><rect class="cls-1" x="894" y="309" width="514" height="131"/><rect class="cls-5" x="894.5" y="309.5" width="513" height="130"/></g><g id="Me" class="cls-3"><g class="cls-3"><path class="cls-4" d="M302.15,372l-4.7,12H295.9l-4.7-12v12h-3.55V367.33h5l4.05,10.4,4.05-10.4h5V384h-3.57Z"/><path class="cls-4" d="M314.42,371.63c3.6,0,6.05,2.7,6.05,6.65v.7h-9a3.25,3.25,0,0,0,3.47,2.8,5,5,0,0,0,3.23-1.2l1.4,2a7.53,7.53,0,0,1-5,1.68,6.34,6.34,0,1,1-.2-12.67Zm-3,5.2h5.95a2.81,2.81,0,0,0-3-2.68A2.9,2.9,0,0,0,311.45,376.83Z"/></g></g><g id="Abi_Sarvepalli" data-name="Abi Sarvepalli" class="cls-3"><g class="cls-3"><path class="cls-4" d="M1111.27,381.13h-7.45l-1,2.87h-3.89l6.44-16.67h4.45L1116.2,384h-3.88Zm-6.5-3.08h5.53l-2.75-7.65Z"/><path class="cls-4" d="M1117.67,367.33h3.18v6.15a4.63,4.63,0,0,1,3.72-1.85c3.08,0,5.35,2.4,5.35,6.35s-2.3,6.32-5.35,6.32a4.68,4.68,0,0,1-3.72-1.85V384h-3.18Zm5.9,14.15c1.85,0,3.08-1.4,3.08-3.5s-1.23-3.53-3.08-3.53a3.49,3.49,0,0,0-2.72,1.4v4.28A3.54,3.54,0,0,0,1123.57,381.48Z"/><path class="cls-4" d="M1132,368.25a1.9,1.9,0,1,1,1.9,1.9A1.91,1.91,0,0,1,1132,368.25Zm.32,3.68h3.18V384h-3.18Z"/><path class="cls-4" d="M1145.92,379a7.3,7.3,0,0,0,5.3,2.25c2,0,2.9-.92,2.9-1.87,0-1.25-1.45-1.68-3.37-2.13-2.73-.62-6.23-1.37-6.23-5.1,0-2.77,2.4-5,6.33-5a9.3,9.3,0,0,1,6.5,2.32l-2,2.6a7.1,7.1,0,0,0-4.77-1.82c-1.6,0-2.45.7-2.45,1.7s1.4,1.47,3.32,1.92c2.75.63,6.25,1.45,6.25,5.15,0,3.05-2.17,5.35-6.67,5.35a9.61,9.61,0,0,1-7.08-2.65Z"/><path class="cls-4" d="M1167.3,382.75a5,5,0,0,1-3.83,1.55,4,4,0,0,1-4.2-4c0-2.82,2.28-3.85,4.2-3.85a4.88,4.88,0,0,1,3.83,1.48v-1.68c0-1.22-1-2-2.65-2a5.1,5.1,0,0,0-3.53,1.42l-1.2-2.12a7.94,7.94,0,0,1,5.28-1.9c2.75,0,5.27,1.1,5.27,4.57V384h-3.17Zm0-3.15a3.19,3.19,0,0,0-2.55-1.05c-1.25,0-2.28.65-2.28,1.83s1,1.77,2.28,1.77a3.19,3.19,0,0,0,2.55-1Z"/><path class="cls-4" d="M1173.62,371.93h3.18v1.65a5.15,5.15,0,0,1,3.85-1.93v3.1a4.11,4.11,0,0,0-.88-.1,4,4,0,0,0-3,1.38v8h-3.18Z"/><path class="cls-4" d="M1180.9,371.93h3.4l3.15,8.4,3.15-8.4H1194L1189.17,384h-3.42Z"/><path class="cls-4" d="M1200.92,371.63c3.6,0,6,2.7,6,6.65v.7h-9a3.25,3.25,0,0,0,3.47,2.8,5,5,0,0,0,3.23-1.2l1.4,2a7.53,7.53,0,0,1-5,1.68,6.34,6.34,0,1,1-.2-12.67Zm-3,5.2h6a2.81,2.81,0,0,0-3-2.68A2.9,2.9,0,0,0,1198,376.83Z"/><path class="cls-4" d="M1209.27,388.6V371.93h3.18v1.52a4.66,4.66,0,0,1,3.72-1.82c3.1,0,5.35,2.3,5.35,6.32s-2.25,6.35-5.35,6.35a4.6,4.6,0,0,1-3.72-1.85v6.15Zm5.9-14.15a3.54,3.54,0,0,0-2.72,1.38v4.27a3.63,3.63,0,0,0,2.72,1.38c1.83,0,3-1.43,3-3.53S1217,374.45,1215.17,374.45Z"/><path class="cls-4" d="M1231.15,382.75a5,5,0,0,1-3.83,1.55,4,4,0,0,1-4.2-4c0-2.82,2.28-3.85,4.2-3.85a4.88,4.88,0,0,1,3.83,1.48v-1.68c0-1.22-1.05-2-2.65-2a5.1,5.1,0,0,0-3.53,1.42l-1.2-2.12a7.94,7.94,0,0,1,5.28-1.9c2.75,0,5.27,1.1,5.27,4.57V384h-3.17Zm0-3.15a3.19,3.19,0,0,0-2.55-1.05c-1.25,0-2.28.65-2.28,1.83s1,1.77,2.28,1.77a3.19,3.19,0,0,0,2.55-1Z"/><path class="cls-4" d="M1237.47,367.33h3.18V384h-3.18Z"/><path class="cls-4" d="M1243.8,367.33H1247V384h-3.17Z"/><path class="cls-4" d="M1249.8,368.25a1.9,1.9,0,1,1,1.9,1.9A1.91,1.91,0,0,1,1249.8,368.25Zm.32,3.68h3.18V384h-3.18Z"/></g></g><path id="_ionicons_svg_ios-arrow-round-forward" data-name=" ionicons svg ios-arrow-round-forward" class="cls-7" d="M768.46,314.43a8.57,8.57,0,0,0-.06,12.07l39.89,40H656.46a8.53,8.53,0,0,0,0,17.06H808.23l-39.9,40a8.65,8.65,0,0,0,.07,12.08,8.5,8.5,0,0,0,12-.07L834.47,381a9.44,9.44,0,0,0,1.77-2.69,8,8,0,0,0,.66-3.28,8.55,8.55,0,0,0-2.43-6l-54.06-54.46a8.36,8.36,0,0,0-11.82-.32l-.13.12Z"/><g id="Group_7" data-name="Group 7"><path id="Rectangle_23" data-name="Rectangle 23" class="cls-2" d="M628,474H857a26,26,0,0,1,26,26V606H602V500A26,26,0,0,1,628,474Z"/><g id="Rectangle_24" data-name="Rectangle 24"><path class="cls-1" d="M602,605H883v59a26,26,0,0,1-26,26H628a26,26,0,0,1-26-26V605Z"/><path class="cls-5" d="M603,605.5H882a.5.5,0,0,1,.5.5v58A25.5,25.5,0,0,1,857,689.5H628A25.5,25.5,0,0,1,602.5,664V606A.5.5,0,0,1,603,605.5Z"/></g><g id="Exalton_Style_Guide" data-name="Exalton Style Guide" class="cls-3"><g class="cls-3"><path class="cls-4" d="M621.32,625.66h9.44v2.44h-6.6V631h6.46v2.44h-6.46v3.1h6.6V639h-9.44Z"/><path class="cls-4" d="M636.7,635.74,634.48,639h-2.82l3.42-5-3.22-4.7h2.84l2,3,2-3h2.84l-3.24,4.7,3.46,5H638.9Z"/><path class="cls-4" d="M648.8,638a4,4,0,0,1-3.06,1.24,3.22,3.22,0,0,1-3.36-3.2,3.06,3.06,0,0,1,3.36-3.08,3.9,3.9,0,0,1,3.06,1.18V632.8c0-1-.84-1.62-2.12-1.62a4.06,4.06,0,0,0-2.82,1.14l-1-1.7a6.34,6.34,0,0,1,4.22-1.52c2.2,0,4.22.88,4.22,3.66V639H648.8Zm0-2.52a2.54,2.54,0,0,0-2-.84c-1,0-1.82.52-1.82,1.46s.82,1.42,1.82,1.42a2.54,2.54,0,0,0,2-.84Z"/><path class="cls-4" d="M653.86,625.66h2.54V639h-2.54Z"/><path class="cls-4" d="M659.42,636.6v-5h-1.6v-2.22h1.6V626.7H662v2.64h2v2.22h-2v4.36c0,.6.32,1.06.88,1.06a1.39,1.39,0,0,0,.88-.28l.54,1.92a3.14,3.14,0,0,1-2.12.62A2.41,2.41,0,0,1,659.42,636.6Z"/><path class="cls-4" d="M665.06,634.16a5.11,5.11,0,1,1,5.1,5.08A4.89,4.89,0,0,1,665.06,634.16Zm7.58,0a2.49,2.49,0,1,0-2.48,2.82A2.55,2.55,0,0,0,672.64,634.16Z"/><path class="cls-4" d="M683.68,633.16a1.57,1.57,0,0,0-1.78-1.8,2.75,2.75,0,0,0-2.2,1.14V639h-2.54v-9.66h2.54v1.26a4.42,4.42,0,0,1,3.38-1.5,2.81,2.81,0,0,1,3.14,3.08V639h-2.54Z"/><path class="cls-4" d="M694.56,635a5.85,5.85,0,0,0,4.24,1.8c1.56,0,2.32-.74,2.32-1.5,0-1-1.16-1.34-2.7-1.7-2.18-.5-5-1.1-5-4.08,0-2.22,1.92-4,5.06-4a7.42,7.42,0,0,1,5.2,1.86l-1.58,2.08a5.69,5.69,0,0,0-3.82-1.46c-1.28,0-2,.56-2,1.36s1.12,1.18,2.66,1.54c2.2.5,5,1.16,5,4.12,0,2.44-1.74,4.28-5.34,4.28a7.69,7.69,0,0,1-5.66-2.12Z"/><path class="cls-4" d="M706.14,636.6v-5h-1.6v-2.22h1.6V626.7h2.56v2.64h2v2.22h-2v4.36c0,.6.32,1.06.88,1.06a1.39,1.39,0,0,0,.88-.28l.54,1.92a3.14,3.14,0,0,1-2.12.62A2.41,2.41,0,0,1,706.14,636.6Z"/><path class="cls-4" d="M713.24,640.66a1.28,1.28,0,0,0,1.34-.7l.36-.82-3.92-9.8h2.72l2.52,6.72,2.52-6.72h2.74L717,640.58a3.51,3.51,0,0,1-3.66,2.34,6.94,6.94,0,0,1-1.26-.14l.38-2.28A2.19,2.19,0,0,0,713.24,640.66Z"/><path class="cls-4" d="M722.66,625.66h2.54V639h-2.54Z"/><path class="cls-4" d="M732.1,629.1c2.88,0,4.84,2.16,4.84,5.32V635h-7.18a2.6,2.6,0,0,0,2.78,2.24,4,4,0,0,0,2.58-1l1.12,1.64a6,6,0,0,1-4,1.34,5.07,5.07,0,1,1-.16-10.14Zm-2.38,4.16h4.76a2.24,2.24,0,0,0-2.38-2.14A2.32,2.32,0,0,0,729.72,633.26Z"/><path class="cls-4" d="M750.42,625.44a6.25,6.25,0,0,1,5.52,2.92l-2.36,1.28a3.79,3.79,0,0,0-3.16-1.68,4.38,4.38,0,0,0,0,8.76,4.51,4.51,0,0,0,2.88-1v-1.62h-3.56v-2.44h6.36v5.1a7.4,7.4,0,0,1-5.68,2.52,6.91,6.91,0,1,1,0-13.82Z"/><path class="cls-4" d="M764.82,637.78a4.52,4.52,0,0,1-3.4,1.46,2.77,2.77,0,0,1-3.12-3v-6.86h2.54v5.86a1.55,1.55,0,0,0,1.78,1.78,2.84,2.84,0,0,0,2.2-1.1v-6.54h2.54V639h-2.54Z"/><path class="cls-4" d="M769.62,626.4a1.52,1.52,0,1,1,1.52,1.52A1.53,1.53,0,0,1,769.62,626.4Zm.26,2.94h2.54V639h-2.54Z"/><path class="cls-4" d="M781.58,637.76a3.75,3.75,0,0,1-3,1.48c-2.44,0-4.28-1.84-4.28-5.06s1.82-5.08,4.28-5.08a3.72,3.72,0,0,1,3,1.48v-4.92h2.56V639h-2.56Zm0-5.3a2.76,2.76,0,0,0-2.2-1.1,2.84,2.84,0,0,0,0,5.62,2.76,2.76,0,0,0,2.2-1.1Z"/><path class="cls-4" d="M791,629.1c2.88,0,4.84,2.16,4.84,5.32V635H788.7a2.6,2.6,0,0,0,2.78,2.24,4,4,0,0,0,2.58-1l1.12,1.64a6,6,0,0,1-4,1.34A5.07,5.07,0,1,1,791,629.1Zm-2.38,4.16h4.76a2.24,2.24,0,0,0-2.38-2.14A2.32,2.32,0,0,0,788.66,633.26Z"/></g></g></g><g id="File_name" data-name="File name" class="cls-3"><g class="cls-3"><path class="cls-4" d="M52.65,739.33h11.8v3H56.2V746h8.07v3H56.2v7H52.65Z"/><path class="cls-4" d="M66.52,740.25a1.92,1.92,0,0,1,1.9-1.9,1.9,1.9,0,1,1,0,3.8A1.92,1.92,0,0,1,66.52,740.25Zm.33,3.68H70V756H66.85Z"/><path class="cls-4" d="M73.17,739.33h3.18V756H73.17Z"/><path class="cls-4" d="M85,743.63c3.6,0,6,2.7,6,6.65v.7h-9a3.25,3.25,0,0,0,3.47,2.8,5,5,0,0,0,3.23-1.2l1.4,2a7.53,7.53,0,0,1-5,1.68,6.34,6.34,0,1,1-.2-12.67Zm-3,5.2h6a2.81,2.81,0,0,0-3-2.68A2.9,2.9,0,0,0,82,748.83Z"/><path class="cls-4" d="M107.87,748.7a2,2,0,0,0-2.22-2.25,3.42,3.42,0,0,0-2.75,1.43V756H99.72V743.93h3.18v1.57a5.53,5.53,0,0,1,4.22-1.87c2.65,0,3.93,1.5,3.93,3.85V756h-3.18Z"/><path class="cls-4" d="M121.45,754.75a5,5,0,0,1-3.83,1.55,4,4,0,0,1-4.2-4c0-2.82,2.28-3.85,4.2-3.85a4.88,4.88,0,0,1,3.83,1.48v-1.68c0-1.22-1-2-2.65-2a5.1,5.1,0,0,0-3.53,1.42l-1.2-2.12a7.94,7.94,0,0,1,5.28-1.9c2.75,0,5.27,1.1,5.27,4.57V756h-3.17Zm0-3.15a3.19,3.19,0,0,0-2.55-1.05c-1.25,0-2.28.65-2.28,1.83s1,1.77,2.28,1.77a3.19,3.19,0,0,0,2.55-1Z"/><path class="cls-4" d="M142.75,748.38c0-1.13-.5-1.93-1.8-1.93a3.2,3.2,0,0,0-2.5,1.4V756h-3.2v-7.62c0-1.13-.5-1.93-1.8-1.93a3.22,3.22,0,0,0-2.5,1.43V756h-3.18V743.93H131v1.57a5.3,5.3,0,0,1,4-1.87,3.19,3.19,0,0,1,3.35,2.2,5.12,5.12,0,0,1,4.15-2.2c2.22,0,3.54,1.17,3.54,3.65V756h-3.19Z"/><path class="cls-4" d="M154.55,743.63c3.6,0,6,2.7,6,6.65v.7h-9a3.26,3.26,0,0,0,3.48,2.8,4.92,4.92,0,0,0,3.22-1.2l1.4,2a7.53,7.53,0,0,1-5,1.68,6.34,6.34,0,1,1-.2-12.67Zm-3,5.2h6a2.79,2.79,0,0,0-3-2.68A2.91,2.91,0,0,0,151.57,748.83Z"/></g></g><g id="Received_Time" data-name="Received Time" class="cls-3"><g class="cls-3"><path class="cls-4" d="M826.8,750h-2.6v6h-3.55V739.33h7.8c3.47,0,5.6,2.27,5.6,5.37a4.78,4.78,0,0,1-3.65,4.95l3.75,6.35h-4.08Zm1.12-7.65H824.2V747h3.72a2.31,2.31,0,1,0,0-4.6Z"/><path class="cls-4" d="M841.37,743.63c3.6,0,6,2.7,6,6.65v.7h-9a3.25,3.25,0,0,0,3.47,2.8,5,5,0,0,0,3.23-1.2l1.4,2a7.53,7.53,0,0,1-5,1.68,6.34,6.34,0,1,1-.2-12.67Zm-3,5.2h6a2.81,2.81,0,0,0-3-2.68A2.9,2.9,0,0,0,838.4,748.83Z"/><path class="cls-4" d="M855.35,743.63a5.61,5.61,0,0,1,4.77,2.17l-2.07,2a2.93,2.93,0,0,0-2.55-1.3,3.52,3.52,0,0,0,0,7,3.05,3.05,0,0,0,2.55-1.3l2.07,1.92a5.55,5.55,0,0,1-4.77,2.2,6.34,6.34,0,1,1,0-12.67Z"/><path class="cls-4" d="M867.67,743.63c3.6,0,6.05,2.7,6.05,6.65v.7h-9a3.25,3.25,0,0,0,3.47,2.8,5,5,0,0,0,3.23-1.2l1.4,2a7.53,7.53,0,0,1-5,1.68,6.34,6.34,0,1,1-.2-12.67Zm-3,5.2h5.95a2.81,2.81,0,0,0-3-2.68A2.9,2.9,0,0,0,864.7,748.83Z"/><path class="cls-4" d="M875.7,740.25a1.9,1.9,0,1,1,1.9,1.9A1.91,1.91,0,0,1,875.7,740.25Zm.32,3.68h3.18V756H876Z"/><path class="cls-4" d="M880.62,743.93H884l3.15,8.4,3.15-8.4h3.43L888.9,756h-3.43Z"/><path class="cls-4" d="M900.65,743.63c3.6,0,6.05,2.7,6.05,6.65v.7h-9a3.26,3.26,0,0,0,3.48,2.8,4.92,4.92,0,0,0,3.22-1.2l1.4,2a7.53,7.53,0,0,1-5,1.68,6.34,6.34,0,1,1-.2-12.67Zm-3,5.2h6a2.79,2.79,0,0,0-3-2.68A2.91,2.91,0,0,0,897.67,748.83Z"/><path class="cls-4" d="M917.3,754.45a4.7,4.7,0,0,1-3.73,1.85c-3.05,0-5.35-2.3-5.35-6.32s2.28-6.35,5.35-6.35a4.64,4.64,0,0,1,3.73,1.85v-6.15h3.2V756h-3.2Zm0-6.62a3.47,3.47,0,0,0-2.75-1.38c-1.8,0-3,1.43-3,3.53s1.25,3.5,3,3.5a3.47,3.47,0,0,0,2.75-1.38Z"/><path class="cls-4" d="M934,742.45H929.1v-3.12h13.29v3.12h-4.84V756H934Z"/><path class="cls-4" d="M944.27,740.25a1.92,1.92,0,0,1,1.9-1.9,1.9,1.9,0,1,1,0,3.8A1.92,1.92,0,0,1,944.27,740.25Zm.33,3.68h3.17V756H944.6Z"/><path class="cls-4" d="M965.89,748.38c0-1.13-.5-1.93-1.8-1.93a3.21,3.21,0,0,0-2.5,1.4V756H958.4v-7.62c0-1.13-.5-1.93-1.8-1.93a3.22,3.22,0,0,0-2.5,1.43V756h-3.18V743.93h3.18v1.57a5.29,5.29,0,0,1,3.94-1.87,3.18,3.18,0,0,1,3.35,2.2,5.12,5.12,0,0,1,4.15-2.2c2.23,0,3.55,1.17,3.55,3.65V756h-3.2Z"/><path class="cls-4" d="M977.7,743.63c3.59,0,6,2.7,6,6.65v.7h-9a3.26,3.26,0,0,0,3.48,2.8,4.92,4.92,0,0,0,3.22-1.2l1.4,2a7.53,7.53,0,0,1-5,1.68,6.34,6.34,0,1,1-.2-12.67Zm-3,5.2h5.95a2.8,2.8,0,0,0-3-2.68A2.91,2.91,0,0,0,974.72,748.83Z"/></g></g><g id="File_Size" data-name="File Size" class="cls-3"><g class="cls-3"><path class="cls-4" d="M52.65,806.33h11.8v3H56.2V813h8.07v3H56.2v7H52.65Z"/><path class="cls-4" d="M66.52,807.25a1.92,1.92,0,0,1,1.9-1.9,1.9,1.9,0,1,1,0,3.8A1.92,1.92,0,0,1,66.52,807.25Zm.33,3.68H70V823H66.85Z"/><path class="cls-4" d="M73.17,806.33h3.18V823H73.17Z"/><path class="cls-4" d="M85,810.63c3.6,0,6,2.7,6,6.65v.7h-9a3.25,3.25,0,0,0,3.47,2.8,5,5,0,0,0,3.23-1.2l1.4,2a7.53,7.53,0,0,1-5,1.68,6.34,6.34,0,1,1-.2-12.67Zm-3,5.2h6a2.81,2.81,0,0,0-3-2.68A2.9,2.9,0,0,0,82,815.83Z"/><path class="cls-4" d="M100.6,818a7.28,7.28,0,0,0,5.3,2.25c1.95,0,2.9-.92,2.9-1.87,0-1.25-1.45-1.68-3.38-2.13-2.72-.62-6.22-1.37-6.22-5.1,0-2.77,2.4-5,6.32-5a9.3,9.3,0,0,1,6.5,2.32l-2,2.6a7.11,7.11,0,0,0-4.78-1.82c-1.6,0-2.45.7-2.45,1.7s1.4,1.47,3.33,1.92c2.75.63,6.25,1.45,6.25,5.15,0,3-2.18,5.35-6.68,5.35a9.57,9.57,0,0,1-7.07-2.65Z"/><path class="cls-4" d="M114.4,807.25a1.9,1.9,0,1,1,1.9,1.9A1.91,1.91,0,0,1,114.4,807.25Zm.32,3.68h3.18V823h-3.18Z"/><path class="cls-4" d="M120.52,820.63,126,813.7h-5.45v-2.77h9.75v2.3l-5.52,7h5.62V823h-9.85Z"/><path class="cls-4" d="M138.5,810.63c3.6,0,6,2.7,6,6.65v.7h-9a3.26,3.26,0,0,0,3.48,2.8,4.92,4.92,0,0,0,3.22-1.2l1.4,2a7.53,7.53,0,0,1-5,1.68,6.34,6.34,0,1,1-.2-12.67Zm-3,5.2h5.95a2.79,2.79,0,0,0-3-2.68A2.91,2.91,0,0,0,135.52,815.83Z"/></g></g><g id="Included_In_Blocks" data-name="Included In Blocks" class="cls-3"><g class="cls-3"><path class="cls-4" d="M820.65,806.33h3.55V823h-3.55Z"/><path class="cls-4" d="M835.57,815.7a2,2,0,0,0-2.22-2.25,3.42,3.42,0,0,0-2.75,1.43V823h-3.18V810.93h3.18v1.57a5.53,5.53,0,0,1,4.22-1.87c2.65,0,3.93,1.5,3.93,3.85V823h-3.18Z"/><path class="cls-4" d="M847.52,810.63a5.62,5.62,0,0,1,4.78,2.17l-2.08,2a2.92,2.92,0,0,0-2.55-1.3,3.52,3.52,0,0,0,0,7,3,3,0,0,0,2.55-1.3l2.08,1.92a5.56,5.56,0,0,1-4.78,2.2,6.34,6.34,0,1,1,0-12.67Z"/><path class="cls-4" d="M854.37,806.33h3.18V823h-3.18Z"/><path class="cls-4" d="M868.85,821.48a5.68,5.68,0,0,1-4.25,1.82c-2.65,0-3.9-1.45-3.9-3.8v-8.57h3.17v7.32a2,2,0,0,0,2.23,2.23,3.57,3.57,0,0,0,2.75-1.38v-8.17H872V823h-3.17Z"/><path class="cls-4" d="M883.47,821.45a4.68,4.68,0,0,1-3.72,1.85c-3,0-5.35-2.3-5.35-6.32s2.27-6.35,5.35-6.35a4.63,4.63,0,0,1,3.72,1.85v-6.15h3.2V823h-3.2Zm0-6.62a3.44,3.44,0,0,0-2.75-1.38c-1.8,0-3.05,1.43-3.05,3.53s1.25,3.5,3.05,3.5a3.44,3.44,0,0,0,2.75-1.38Z"/><path class="cls-4" d="M895.3,810.63c3.6,0,6.05,2.7,6.05,6.65v.7h-9a3.26,3.26,0,0,0,3.48,2.8,4.92,4.92,0,0,0,3.22-1.2l1.4,2a7.53,7.53,0,0,1-5,1.68,6.34,6.34,0,1,1-.2-12.67Zm-3,5.2h5.95a2.79,2.79,0,0,0-3-2.68A2.91,2.91,0,0,0,892.32,815.83Z"/><path class="cls-4" d="M912,821.45a4.7,4.7,0,0,1-3.73,1.85c-3.05,0-5.35-2.3-5.35-6.32s2.28-6.35,5.35-6.35a4.64,4.64,0,0,1,3.73,1.85v-6.15h3.2V823H912Zm0-6.62a3.47,3.47,0,0,0-2.75-1.38c-1.8,0-3.05,1.43-3.05,3.53s1.25,3.5,3.05,3.5A3.47,3.47,0,0,0,912,819.1Z"/><path class="cls-4" d="M924.77,806.33h3.55V823h-3.55Z"/><path class="cls-4" d="M939.7,815.7a2,2,0,0,0-2.23-2.25,3.44,3.44,0,0,0-2.75,1.43V823h-3.17V810.93h3.17v1.57a5.56,5.56,0,0,1,4.23-1.87c2.65,0,3.92,1.5,3.92,3.85V823H939.7Z"/><path class="cls-4" d="M952.5,806.33h8.77c3.18,0,4.8,2,4.8,4.25a3.7,3.7,0,0,1-2.87,3.82,4,4,0,0,1,3.19,4.1c0,2.5-1.67,4.5-4.85,4.5h-9Zm8,6.7a1.84,1.84,0,1,0,0-3.68h-4.45V813Zm.12,7a1.92,1.92,0,0,0,2.15-2,2,2,0,0,0-2.15-2h-4.57V820Z"/><path class="cls-4" d="M969,806.33h3.17V823H969Z"/><path class="cls-4" d="M974.55,817a6.39,6.39,0,1,1,6.37,6.35A6.11,6.11,0,0,1,974.55,817Zm9.47,0c0-1.87-1.12-3.5-3.1-3.5s-3.07,1.63-3.07,3.5,1.1,3.53,3.07,3.53S984,818.85,984,817Z"/><path class="cls-4" d="M995.3,810.63a5.61,5.61,0,0,1,4.77,2.17l-2.07,2a3,3,0,0,0-2.55-1.3,3.52,3.52,0,0,0,0,7,3.07,3.07,0,0,0,2.55-1.3l2.07,1.92a5.55,5.55,0,0,1-4.77,2.2,6.34,6.34,0,1,1,0-12.67Z"/><path class="cls-4" d="M1006.77,818.35l-1.45,1.55V823h-3.17V806.33h3.17v10l4.57-5.37h3.9L1009,816.4l4.92,6.6h-4Z"/><path class="cls-4" d="M1015.67,819.2a6.91,6.91,0,0,0,4.18,1.65c1.37,0,2-.47,2-1.22s-1-1.15-2.42-1.43c-2.08-.4-4.75-.9-4.75-3.77,0-2,1.77-3.8,4.95-3.8a7.7,7.7,0,0,1,4.87,1.65l-1.27,2.17a5.13,5.13,0,0,0-3.58-1.4c-1.15,0-1.9.43-1.9,1.13s1,1,2.3,1.3c2.08.4,4.85.95,4.85,3.95,0,2.19-1.88,3.87-5.22,3.87a8.14,8.14,0,0,1-5.4-1.87Z"/></g></g><g id="File_Type" data-name="File Type" class="cls-3"><g class="cls-3"><path class="cls-4" d="M52.65,873.33h11.8v3H56.2V880h8.07v3H56.2v7H52.65Z"/><path class="cls-4" d="M66.52,874.25a1.92,1.92,0,0,1,1.9-1.9,1.9,1.9,0,1,1,0,3.8A1.92,1.92,0,0,1,66.52,874.25Zm.33,3.68H70V890H66.85Z"/><path class="cls-4" d="M73.17,873.33h3.18V890H73.17Z"/><path class="cls-4" d="M85,877.63c3.6,0,6,2.7,6,6.65v.7h-9a3.25,3.25,0,0,0,3.47,2.8,5,5,0,0,0,3.23-1.2l1.4,2a7.53,7.53,0,0,1-5,1.68,6.34,6.34,0,1,1-.2-12.67Zm-3,5.2h6a2.81,2.81,0,0,0-3-2.68A2.9,2.9,0,0,0,82,882.83Z"/><path class="cls-4" d="M103.65,876.45H98.77v-3.12h13.3v3.12h-4.85V890h-3.57Z"/><path class="cls-4" d="M114,892.07a1.6,1.6,0,0,0,1.68-.87l.45-1-4.9-12.24h3.4l3.15,8.4,3.15-8.4h3.42l-5.67,14c-.9,2.28-2.5,2.88-4.58,2.93a8.69,8.69,0,0,1-1.57-.18l.47-2.85A2.66,2.66,0,0,0,114,892.07Z"/><path class="cls-4" d="M125.75,894.6V877.93h3.17v1.52a4.68,4.68,0,0,1,3.73-1.82c3.1,0,5.35,2.3,5.35,6.32s-2.25,6.35-5.35,6.35a4.62,4.62,0,0,1-3.73-1.85v6.15Zm5.9-14.15a3.56,3.56,0,0,0-2.73,1.38v4.27a3.65,3.65,0,0,0,2.73,1.38c1.82,0,3-1.43,3-3.53S133.47,880.45,131.65,880.45Z"/><path class="cls-4" d="M145.85,877.63c3.6,0,6.05,2.7,6.05,6.65v.7h-9a3.26,3.26,0,0,0,3.48,2.8,4.92,4.92,0,0,0,3.22-1.2l1.4,2a7.53,7.53,0,0,1-5,1.68,6.34,6.34,0,1,1-.2-12.67Zm-3,5.2h5.95a2.79,2.79,0,0,0-3-2.68A2.91,2.91,0,0,0,142.87,882.83Z"/></g></g><g id="Confirmations" class="cls-3"><g class="cls-3"><path class="cls-4" d="M819.85,881.68a8.44,8.44,0,0,1,8.75-8.63,7.69,7.69,0,0,1,7.1,4.08l-3.05,1.5a4.57,4.57,0,0,0-4-2.43,5.49,5.49,0,0,0,0,10.95,4.53,4.53,0,0,0,4-2.42l3.05,1.47a7.73,7.73,0,0,1-7.1,4.1A8.44,8.44,0,0,1,819.85,881.68Z"/><path class="cls-4" d="M837,884a6.39,6.39,0,1,1,6.38,6.35A6.12,6.12,0,0,1,837,884Zm9.48,0c0-1.87-1.13-3.5-3.1-3.5s-3.08,1.63-3.08,3.5,1.1,3.53,3.08,3.53S846.45,885.85,846.45,884Z"/><path class="cls-4" d="M860.25,882.7a2,2,0,0,0-2.23-2.25,3.44,3.44,0,0,0-2.75,1.43V890H852.1V877.93h3.17v1.57a5.56,5.56,0,0,1,4.23-1.87c2.65,0,3.92,1.5,3.92,3.85V890h-3.17Z"/><path class="cls-4" d="M867.27,880.7h-2v-2.77h2v-.65a3.89,3.89,0,0,1,4.08-4.2,5.15,5.15,0,0,1,2.3.5l-.65,2.3a1.75,1.75,0,0,0-1-.3c-.9,0-1.5.6-1.5,1.7v.65h2.45v2.77h-2.45V890h-3.2Zm7.15-6.45a1.92,1.92,0,0,1,1.9-1.9,1.9,1.9,0,0,1,0,3.8A1.92,1.92,0,0,1,874.42,874.25Zm.33,3.68h3.17V890h-3.17Z"/><path class="cls-4" d="M881.07,877.93h3.18v1.65a5.15,5.15,0,0,1,3.85-1.93v3.1a4.11,4.11,0,0,0-.88-.1,4,4,0,0,0-3,1.38v8h-3.18Z"/><path class="cls-4" d="M905,882.38c0-1.13-.5-1.93-1.79-1.93a3.2,3.2,0,0,0-2.5,1.4V890h-3.2v-7.62c0-1.13-.5-1.93-1.8-1.93a3.22,3.22,0,0,0-2.5,1.43V890h-3.18V877.93h3.18v1.57a5.3,5.3,0,0,1,4-1.87,3.19,3.19,0,0,1,3.35,2.2,5.12,5.12,0,0,1,4.15-2.2c2.22,0,3.54,1.17,3.54,3.65V890H905Z"/><path class="cls-4" d="M918.62,888.75a5,5,0,0,1-3.82,1.55,4,4,0,0,1-4.2-4c0-2.82,2.27-3.85,4.2-3.85a4.85,4.85,0,0,1,3.82,1.48v-1.68c0-1.22-1-2-2.65-2a5.05,5.05,0,0,0-3.52,1.42l-1.2-2.12a7.9,7.9,0,0,1,5.27-1.9c2.75,0,5.27,1.1,5.27,4.57V890h-3.17Zm0-3.15a3.16,3.16,0,0,0-2.55-1.05c-1.25,0-2.27.65-2.27,1.83s1,1.77,2.27,1.77a3.16,3.16,0,0,0,2.55-1Z"/><path class="cls-4" d="M925.57,887v-6.3h-2v-2.77h2v-3.3h3.2v3.3h2.45v2.77h-2.45v5.45c0,.75.4,1.33,1.1,1.33a1.74,1.74,0,0,0,1.1-.35l.68,2.4a4,4,0,0,1-2.65.77C926.77,890.3,925.57,889.15,925.57,887Z"/><path class="cls-4" d="M933.07,874.25a1.92,1.92,0,0,1,1.9-1.9,1.9,1.9,0,0,1,0,3.8A1.92,1.92,0,0,1,933.07,874.25Zm.33,3.68h3.17V890H933.4Z"/><path class="cls-4" d="M939,884a6.39,6.39,0,1,1,6.37,6.35A6.11,6.11,0,0,1,939,884Zm9.47,0c0-1.87-1.12-3.5-3.1-3.5s-3.07,1.63-3.07,3.5,1.1,3.53,3.07,3.53S948.42,885.85,948.42,884Z"/><path class="cls-4" d="M962.22,882.7a2,2,0,0,0-2.22-2.25,3.42,3.42,0,0,0-2.75,1.43V890h-3.18V877.93h3.18v1.57a5.53,5.53,0,0,1,4.22-1.87c2.65,0,3.92,1.5,3.92,3.85V890h-3.17Z"/><path class="cls-4" d="M968.87,886.2a6.91,6.91,0,0,0,4.18,1.65c1.37,0,2-.47,2-1.22s-1.05-1.15-2.42-1.43c-2.08-.4-4.75-.9-4.75-3.77,0-2,1.77-3.8,5-3.8a7.7,7.7,0,0,1,4.87,1.65l-1.27,2.17a5.13,5.13,0,0,0-3.58-1.4c-1.15,0-1.9.43-1.9,1.13s.95,1,2.3,1.3c2.08.4,4.85.95,4.85,3.95,0,2.19-1.87,3.87-5.22,3.87a8.14,8.14,0,0,1-5.4-1.87Z"/></g></g><g id="File_Version" data-name="File Version" class="cls-3"><g class="cls-3"><path class="cls-4" d="M52.65,940.33h11.8v3H56.2V947h8.07v3H56.2v7H52.65Z"/><path class="cls-4" d="M66.52,941.25a1.92,1.92,0,0,1,1.9-1.9,1.9,1.9,0,1,1,0,3.8A1.92,1.92,0,0,1,66.52,941.25Zm.33,3.68H70V957H66.85Z"/><path class="cls-4" d="M73.17,940.33h3.18V957H73.17Z"/><path class="cls-4" d="M85,944.63c3.6,0,6,2.7,6,6.65v.7h-9a3.25,3.25,0,0,0,3.47,2.8,5,5,0,0,0,3.23-1.2l1.4,2a7.53,7.53,0,0,1-5,1.68,6.34,6.34,0,1,1-.2-12.67Zm-3,5.2h6a2.81,2.81,0,0,0-3-2.68A2.9,2.9,0,0,0,82,949.83Z"/><path class="cls-4" d="M98,940.33h4l4.63,12.82,4.6-12.82h4L108.92,957h-4.45Z"/><path class="cls-4" d="M120.8,944.63c3.6,0,6,2.7,6,6.65v.7h-9a3.26,3.26,0,0,0,3.48,2.8,4.92,4.92,0,0,0,3.22-1.2l1.4,2a7.53,7.53,0,0,1-5,1.68,6.34,6.34,0,1,1-.2-12.67Zm-3,5.2h6a2.79,2.79,0,0,0-3-2.68A2.91,2.91,0,0,0,117.82,949.83Z"/><path class="cls-4" d="M129.15,944.93h3.17v1.65a5.15,5.15,0,0,1,3.85-1.93v3.1a3.93,3.93,0,0,0-.87-.1,4.05,4.05,0,0,0-3,1.38v8h-3.17Z"/><path class="cls-4" d="M138.47,953.2a6.91,6.91,0,0,0,4.18,1.65c1.37,0,2-.47,2-1.22s-1-1.15-2.42-1.43c-2.08-.4-4.75-.9-4.75-3.77,0-2,1.77-3.8,4.95-3.8a7.7,7.7,0,0,1,4.87,1.65l-1.27,2.17a5.13,5.13,0,0,0-3.58-1.4c-1.15,0-1.9.43-1.9,1.13s1,1,2.3,1.3c2.08.4,4.85.95,4.85,3.95,0,2.19-1.87,3.87-5.22,3.87a8.14,8.14,0,0,1-5.4-1.87Z"/><path class="cls-4" d="M149.75,941.25a1.9,1.9,0,1,1,1.9,1.9A1.91,1.91,0,0,1,149.75,941.25Zm.32,3.68h3.18V957h-3.18Z"/><path class="cls-4" d="M155.62,951A6.39,6.39,0,1,1,162,957.3,6.12,6.12,0,0,1,155.62,951Zm9.48,0c0-1.87-1.13-3.5-3.1-3.5s-3.08,1.63-3.08,3.5,1.1,3.53,3.08,3.53S165.1,952.85,165.1,951Z"/><path class="cls-4" d="M178.9,949.7a2,2,0,0,0-2.23-2.25,3.44,3.44,0,0,0-2.75,1.43V957h-3.17V944.93h3.17v1.57a5.56,5.56,0,0,1,4.23-1.87c2.64,0,3.92,1.5,3.92,3.85V957H178.9Z"/></g></g><g id="Created" class="cls-3"><g class="cls-3"><path class="cls-4" d="M819.85,948.68a8.44,8.44,0,0,1,8.75-8.63,7.69,7.69,0,0,1,7.1,4.08l-3.05,1.5a4.57,4.57,0,0,0-4-2.43,5.49,5.49,0,0,0,0,10.95,4.53,4.53,0,0,0,4-2.42l3.05,1.47a7.73,7.73,0,0,1-7.1,4.1A8.44,8.44,0,0,1,819.85,948.68Z"/><path class="cls-4" d="M837.75,944.93h3.17v1.65a5.15,5.15,0,0,1,3.85-1.93v3.1a3.93,3.93,0,0,0-.87-.1,4.05,4.05,0,0,0-3,1.38v8h-3.17Z"/><path class="cls-4" d="M852.22,944.63c3.6,0,6,2.7,6,6.65v.7h-9a3.25,3.25,0,0,0,3.47,2.8,5,5,0,0,0,3.23-1.2l1.4,2a7.53,7.53,0,0,1-5,1.68,6.34,6.34,0,1,1-.2-12.67Zm-3,5.2h6a2.81,2.81,0,0,0-3-2.68A2.9,2.9,0,0,0,849.25,949.83Z"/><path class="cls-4" d="M867.82,955.75A5,5,0,0,1,864,957.3a4,4,0,0,1-4.2-4c0-2.82,2.27-3.85,4.2-3.85a4.85,4.85,0,0,1,3.82,1.48v-1.68c0-1.22-1.05-2-2.65-2a5.05,5.05,0,0,0-3.52,1.42l-1.2-2.12a7.9,7.9,0,0,1,5.27-1.9c2.75,0,5.28,1.1,5.28,4.57V957h-3.18Zm0-3.15a3.16,3.16,0,0,0-2.55-1.05c-1.25,0-2.27.65-2.27,1.83s1,1.77,2.27,1.77a3.16,3.16,0,0,0,2.55-1Z"/><path class="cls-4" d="M874.77,954v-6.3h-2v-2.77h2v-3.3H878v3.3h2.45v2.77H878v5.45c0,.75.4,1.33,1.1,1.33a1.74,1.74,0,0,0,1.1-.35l.68,2.4a4,4,0,0,1-2.65.77C876,957.3,874.77,956.15,874.77,954Z"/><path class="cls-4" d="M888.07,944.63c3.6,0,6,2.7,6,6.65v.7h-9a3.25,3.25,0,0,0,3.47,2.8,5,5,0,0,0,3.23-1.2l1.4,2a7.53,7.53,0,0,1-5,1.68,6.34,6.34,0,1,1-.2-12.67Zm-3,5.2h5.95a2.81,2.81,0,0,0-3-2.68A2.9,2.9,0,0,0,885.1,949.83Z"/><path class="cls-4" d="M904.72,955.45A4.68,4.68,0,0,1,901,957.3c-3,0-5.35-2.3-5.35-6.32s2.27-6.35,5.35-6.35a4.63,4.63,0,0,1,3.72,1.85v-6.15h3.2V957h-3.2Zm0-6.62a3.44,3.44,0,0,0-2.75-1.38c-1.8,0-3.05,1.43-3.05,3.53s1.25,3.5,3.05,3.5a3.44,3.44,0,0,0,2.75-1.38Z"/></g></g><g id="Owner" class="cls-3"><g class="cls-3"><path class="cls-4" d="M60.55,1007.05a8.63,8.63,0,1,1,0,17.25,8.63,8.63,0,1,1,0-17.25Zm0,3.15c-3.08,0-5,2.35-5,5.48s2,5.47,5,5.47,5.07-2.37,5.07-5.47S63.62,1010.2,60.55,1010.2Z"/><path class="cls-4" d="M79.75,1015.78,77.2,1024H73.8l-3.68-12.07h3.3l2.25,8.12,2.65-8.12h2.83l2.65,8.12,2.25-8.12h3.3L85.67,1024H82.3Z"/><path class="cls-4" d="M99.07,1016.7a2,2,0,0,0-2.22-2.25,3.42,3.42,0,0,0-2.75,1.43V1024H90.92v-12.07H94.1v1.57a5.53,5.53,0,0,1,4.22-1.87c2.65,0,3.93,1.5,3.93,3.85V1024H99.07Z"/><path class="cls-4" d="M110.87,1011.63c3.6,0,6,2.7,6,6.65v.7h-9a3.25,3.25,0,0,0,3.47,2.8,5,5,0,0,0,3.23-1.2l1.4,2a7.53,7.53,0,0,1-5,1.68,6.34,6.34,0,1,1-.2-12.67Zm-3,5.2h5.95a2.81,2.81,0,0,0-3-2.68A2.9,2.9,0,0,0,107.9,1016.83Z"/><path class="cls-4" d="M119.22,1011.93h3.18v1.65a5.15,5.15,0,0,1,3.85-1.93v3.1a4.11,4.11,0,0,0-.88-.1,4,4,0,0,0-3,1.38v8h-3.18Z"/></g></g><g id="Contributors" class="cls-3"><g class="cls-3"><path class="cls-4" d="M819.85,1015.68a8.44,8.44,0,0,1,8.75-8.63,7.69,7.69,0,0,1,7.1,4.08l-3.05,1.5a4.57,4.57,0,0,0-4-2.43,5.49,5.49,0,0,0,0,10.95,4.53,4.53,0,0,0,4-2.42l3.05,1.47a7.73,7.73,0,0,1-7.1,4.1A8.44,8.44,0,0,1,819.85,1015.68Z"/><path class="cls-4" d="M837,1018a6.39,6.39,0,1,1,6.38,6.35A6.12,6.12,0,0,1,837,1018Zm9.48,0c0-1.87-1.13-3.5-3.1-3.5s-3.08,1.63-3.08,3.5,1.1,3.53,3.08,3.53S846.45,1019.85,846.45,1018Z"/><path class="cls-4" d="M860.25,1016.7a2,2,0,0,0-2.23-2.25,3.44,3.44,0,0,0-2.75,1.43V1024H852.1v-12.07h3.17v1.57a5.56,5.56,0,0,1,4.23-1.87c2.65,0,3.92,1.5,3.92,3.85V1024h-3.17Z"/><path class="cls-4" d="M867.2,1021v-6.3h-2v-2.77h2v-3.3h3.2v3.3h2.45v2.77H870.4v5.45c0,.75.4,1.33,1.1,1.33a1.79,1.79,0,0,0,1.1-.35l.67,2.4a3.93,3.93,0,0,1-2.65.77C868.4,1024.3,867.2,1023.15,867.2,1021Z"/><path class="cls-4" d="M875,1011.93h3.18v1.65a5.15,5.15,0,0,1,3.85-1.93v3.1a4.11,4.11,0,0,0-.88-.1,4,4,0,0,0-3,1.38v8H875Z"/><path class="cls-4" d="M883.7,1008.25a1.9,1.9,0,1,1,1.9,1.9A1.91,1.91,0,0,1,883.7,1008.25Zm.32,3.68h3.18V1024H884Z"/><path class="cls-4" d="M890.35,1007.33h3.17v6.15a4.64,4.64,0,0,1,3.73-1.85c3.07,0,5.35,2.4,5.35,6.35s-2.3,6.32-5.35,6.32a4.7,4.7,0,0,1-3.73-1.85V1024h-3.17Zm5.9,14.15c1.85,0,3.07-1.4,3.07-3.5s-1.22-3.53-3.07-3.53a3.51,3.51,0,0,0-2.73,1.4v4.28A3.56,3.56,0,0,0,896.25,1021.48Z"/><path class="cls-4" d="M913.15,1022.48a5.68,5.68,0,0,1-4.25,1.82c-2.65,0-3.9-1.45-3.9-3.8v-8.57h3.17v7.32a2,2,0,0,0,2.23,2.23,3.57,3.57,0,0,0,2.75-1.38v-8.17h3.17V1024h-3.17Z"/><path class="cls-4" d="M920.1,1021v-6.3h-2v-2.77h2v-3.3h3.2v3.3h2.45v2.77H923.3v5.45c0,.75.4,1.33,1.1,1.33a1.79,1.79,0,0,0,1.1-.35l.67,2.4a3.93,3.93,0,0,1-2.65.77C921.3,1024.3,920.1,1023.15,920.1,1021Z"/><path class="cls-4" d="M927.15,1018a6.39,6.39,0,1,1,6.37,6.35A6.11,6.11,0,0,1,927.15,1018Zm9.47,0c0-1.87-1.12-3.5-3.1-3.5s-3.07,1.63-3.07,3.5,1.1,3.53,3.07,3.53S936.62,1019.85,936.62,1018Z"/><path class="cls-4" d="M942.27,1011.93h3.18v1.65a5.15,5.15,0,0,1,3.85-1.93v3.1a4.11,4.11,0,0,0-.88-.1,4,4,0,0,0-3,1.38v8h-3.18Z"/><path class="cls-4" d="M951.6,1020.2a6.85,6.85,0,0,0,4.17,1.65c1.38,0,2-.47,2-1.22s-1-1.15-2.43-1.43c-2.07-.4-4.75-.9-4.75-3.77,0-2,1.78-3.8,5-3.8a7.73,7.73,0,0,1,4.88,1.65l-1.28,2.17a5.1,5.1,0,0,0-3.57-1.4c-1.15,0-1.9.43-1.9,1.13s.95,1,2.3,1.3c2.07.4,4.85.95,4.85,3.95,0,2.19-1.88,3.87-5.23,3.87a8.16,8.16,0,0,1-5.4-1.87Z"/></g></g><line id="Line_3" data-name="Line 3" class="cls-5" x1="51.5" y1="773.5" x2="1478.5" y2="773.5"/><line id="Line_4" data-name="Line 4" class="cls-5" x1="51.5" y1="840.5" x2="1478.5" y2="840.5"/><line id="Line_5" data-name="Line 5" class="cls-5" x1="51.5" y1="907.5" x2="1478.5" y2="907.5"/><line id="Line_6" data-name="Line 6" class="cls-5" x1="51.5" y1="974.5" x2="1478.5" y2="974.5"/><line id="Line_7" data-name="Line 7" class="cls-5" x1="51.5" y1="1041.5" x2="1478.5" y2="1041.5"/><path id="_ionicons_svg_ios-cog" data-name=" ionicons svg ios-cog" class="cls-8" d="M1314.54,61.27l-2.34-.38a.71.71,0,0,1-.6-.61c0-.29-.09-.58-.15-.86a.73.73,0,0,1,.35-.77l2.08-1.15a.74.74,0,0,0,.35-.9l-.36-1a.73.73,0,0,0-.85-.45l-2.33.45a.73.73,0,0,1-.77-.36c-.14-.26-.28-.51-.43-.76a.74.74,0,0,1,.06-.86l1.56-1.79a.71.71,0,0,0,0-1l-.67-.81a.71.71,0,0,0-1-.13l-2,1.22a.71.71,0,0,1-.84-.08l-.67-.56a.72.72,0,0,1-.23-.82l.85-2.22a.72.72,0,0,0-.3-.91l-.92-.53a.7.7,0,0,0-.93.2l-1.49,1.87a.66.66,0,0,1-.77.23s-.5-.21-.88-.34a.7.7,0,0,1-.49-.69l0-2.38a.72.72,0,0,0-.59-.75l-1-.18a.73.73,0,0,0-.82.5l-.77,2.25a.71.71,0,0,1-.7.48H1296a.72.72,0,0,1-.7-.48l-.78-2.25a.72.72,0,0,0-.81-.5l-1,.18a.72.72,0,0,0-.59.75l0,2.38a.71.71,0,0,1-.49.69l-.87.34a.73.73,0,0,1-.8-.27l-1.48-1.82a.72.72,0,0,0-.94-.2l-.92.53a.71.71,0,0,0-.3.91l.85,2.22a.73.73,0,0,1-.22.82c-.23.18-.45.37-.67.56a.71.71,0,0,1-.84.08l-2-1.24a.71.71,0,0,0-.94.13l-.68.81a.73.73,0,0,0,0,1l1.56,1.79a.72.72,0,0,1,.06.85c-.15.24-.3.5-.43.76a.76.76,0,0,1-.78.37l-2.33-.45a.71.71,0,0,0-.84.45l-.36,1a.71.71,0,0,0,.35.89l2.08,1.15a.73.73,0,0,1,.35.77c-.06.29-.11.57-.16.86a.71.71,0,0,1-.59.61l-2.35.38a.73.73,0,0,0-.64.71V63a.71.71,0,0,0,.64.71l2.35.38a.71.71,0,0,1,.59.61c.05.29.09.58.16.86a.73.73,0,0,1-.35.77l-2.09,1.15a.73.73,0,0,0-.35.89l.36,1a.71.71,0,0,0,.85.45l2.33-.45a.72.72,0,0,1,.77.37c.14.25.28.51.44.76a.72.72,0,0,1-.07.85l-1.55,1.79a.71.71,0,0,0,0,1l.67.81a.71.71,0,0,0,1,.13l2-1.22a.72.72,0,0,1,.85.08c.21.19.44.38.66.56a.71.71,0,0,1,.23.82l-.85,2.22a.74.74,0,0,0,.3.91l.92.53a.73.73,0,0,0,.94-.2l1.51-1.86a.66.66,0,0,1,.73-.23c.31.13.52.2.9.33a.7.7,0,0,1,.49.69l0,2.37a.74.74,0,0,0,.6.76l1,.18a.73.73,0,0,0,.82-.5l.78-2.25a.72.72,0,0,1,.7-.49h.88a.74.74,0,0,1,.7.49l.77,2.25a.73.73,0,0,0,.82.5l1-.18a.74.74,0,0,0,.6-.76l0-2.37a.71.71,0,0,1,.5-.69c.38-.13.63-.23.86-.32a.64.64,0,0,1,.75.19l1.53,1.88a.71.71,0,0,0,.93.2l.92-.53a.71.71,0,0,0,.3-.91l-.85-2.22a.71.71,0,0,1,.23-.82l.67-.56a.71.71,0,0,1,.84-.08l2,1.22a.73.73,0,0,0,1-.13l.67-.81a.72.72,0,0,0,0-1l-1.56-1.79a.71.71,0,0,1-.06-.85c.15-.24.29-.5.43-.76a.73.73,0,0,1,.77-.37l2.33.45a.72.72,0,0,0,.85-.45l.36-1a.73.73,0,0,0-.35-.89l-2.08-1.15a.71.71,0,0,1-.35-.77c0-.29.11-.57.15-.86a.73.73,0,0,1,.6-.61l2.34-.38a.72.72,0,0,0,.64-.71V62A.74.74,0,0,0,1314.54,61.27Zm-24.75,10.32a1.45,1.45,0,0,1-2,.52,1.35,1.35,0,0,1-.27-.2,13,13,0,0,1-.46-18.33c.14-.15.29-.3.44-.44a1.45,1.45,0,0,1,2,0,1.86,1.86,0,0,1,.21.28l5,8.69a.71.71,0,0,1,0,.72Zm19.27-6a13,13,0,0,1-15.65,9.56l-.59-.16a1.43,1.43,0,0,1-1-1.78,1.3,1.3,0,0,1,.14-.32l5-8.72a.72.72,0,0,1,.62-.36h10.05a1.44,1.44,0,0,1,1.44,1.44,1.37,1.37,0,0,1,0,.34Zm-1.39-4.29h-10.06a.72.72,0,0,1-.62-.36l-5-8.7a1.44,1.44,0,0,1,.53-2,1.38,1.38,0,0,1,.3-.14,13,13,0,0,1,16.13,8.78c.06.21.11.41.16.62a1.43,1.43,0,0,1-1,1.73A1.32,1.32,0,0,1,1307.67,61.25Z"/><g id="_ionicons_svg_ios-help-circle-outline" data-name=" ionicons svg ios-help-circle-outline"><path id="Path_4" data-name="Path 4" class="cls-8" d="M1367.17,47.75a15.42,15.42,0,1,1-10.91,4.52,15.42,15.42,0,0,1,10.91-4.52m0-2.4A17.83,17.83,0,1,0,1385,63.18h0a17.82,17.82,0,0,0-17.82-17.82Z"/><path id="Path_5" data-name="Path 5" class="cls-8" d="M1367.23,55c3.22,0,5.43,1.78,5.43,4.34a4.22,4.22,0,0,1-2.41,3.81c-1.49.86-2,1.5-2,2.6v.67h-3l0-.73a3.56,3.56,0,0,1,2-3.77c1.45-.87,2.06-1.42,2.06-2.48a2.09,2.09,0,0,0-2.29-1.85h0a2.16,2.16,0,0,0-2.3,2v.07h-3C1361.75,56.89,1363.79,55,1367.23,55ZM1365,69.64a1.84,1.84,0,1,1,1.91,1.76h-.08a1.79,1.79,0,0,1-1.83-1.75Z"/></g><g id="Rectangle_41" data-name="Rectangle 41"><rect class="cls-1" x="602" y="171" width="658" height="64"/><rect class="cls-5" x="602.5" y="171.5" width="657" height="63"/></g><g id="Transaction_Information" data-name="Transaction Information" class="cls-3"><g class="cls-3"><path class="cls-4" d="M814.5,198.45h-4.88v-3.12h13.3v3.12h-4.85V212H814.5Z"/><path class="cls-4" d="M823.42,199.93h3.18v1.65a5.15,5.15,0,0,1,3.85-1.93v3.1a4.11,4.11,0,0,0-.88-.1,4,4,0,0,0-3,1.38v8h-3.18Z"/><path class="cls-4" d="M839.67,210.75a5,5,0,0,1-3.82,1.55,4,4,0,0,1-4.2-4c0-2.82,2.27-3.85,4.2-3.85a4.85,4.85,0,0,1,3.82,1.48v-1.68c0-1.22-1-2-2.65-2a5.05,5.05,0,0,0-3.52,1.42l-1.2-2.12a7.9,7.9,0,0,1,5.27-1.9c2.75,0,5.28,1.1,5.28,4.57V212h-3.18Zm0-3.15a3.16,3.16,0,0,0-2.55-1c-1.25,0-2.27.65-2.27,1.83s1,1.77,2.27,1.77a3.16,3.16,0,0,0,2.55-1.05Z"/><path class="cls-4" d="M854.15,204.7a2,2,0,0,0-2.23-2.25,3.44,3.44,0,0,0-2.75,1.43V212H846V199.93h3.17v1.57a5.56,5.56,0,0,1,4.23-1.87c2.65,0,3.92,1.5,3.92,3.85V212h-3.17Z"/><path class="cls-4" d="M860.8,208.2a6.85,6.85,0,0,0,4.17,1.65c1.38,0,2-.47,2-1.22s-1-1.15-2.43-1.43c-2.07-.4-4.75-.9-4.75-3.77,0-2,1.78-3.8,4.95-3.8a7.73,7.73,0,0,1,4.88,1.65l-1.28,2.17a5.1,5.1,0,0,0-3.57-1.4c-1.15,0-1.9.43-1.9,1.13s1,1,2.3,1.3c2.07.4,4.85,1,4.85,4,0,2.19-1.88,3.87-5.23,3.87a8.16,8.16,0,0,1-5.4-1.87Z"/><path class="cls-4" d="M879.65,210.75a5,5,0,0,1-3.83,1.55,4,4,0,0,1-4.2-4c0-2.82,2.28-3.85,4.2-3.85a4.88,4.88,0,0,1,3.83,1.48v-1.68c0-1.22-1-2-2.65-2a5.1,5.1,0,0,0-3.53,1.42l-1.2-2.12a7.94,7.94,0,0,1,5.28-1.9c2.75,0,5.27,1.1,5.27,4.57V212h-3.17Zm0-3.15a3.19,3.19,0,0,0-2.55-1c-1.25,0-2.28.65-2.28,1.83s1,1.77,2.28,1.77a3.19,3.19,0,0,0,2.55-1.05Z"/><path class="cls-4" d="M891.6,199.63a5.61,5.61,0,0,1,4.77,2.17l-2.07,1.95a2.93,2.93,0,0,0-2.55-1.3,3.52,3.52,0,0,0,0,7,3.05,3.05,0,0,0,2.55-1.3l2.07,1.92a5.55,5.55,0,0,1-4.77,2.2,6.34,6.34,0,1,1,0-12.67Z"/><path class="cls-4" d="M899.07,209v-6.3h-2v-2.77h2v-3.3h3.2v3.3h2.45v2.77h-2.45v5.45c0,.75.4,1.33,1.1,1.33a1.74,1.74,0,0,0,1.1-.35l.68,2.4a4,4,0,0,1-2.65.77C900.27,212.3,899.07,211.15,899.07,209Z"/><path class="cls-4" d="M906.57,196.25a1.92,1.92,0,0,1,1.9-1.9,1.9,1.9,0,0,1,0,3.8A1.92,1.92,0,0,1,906.57,196.25Zm.33,3.68h3.17V212H906.9Z"/><path class="cls-4" d="M912.45,206a6.39,6.39,0,1,1,6.37,6.35A6.11,6.11,0,0,1,912.45,206Zm9.47,0c0-1.87-1.12-3.5-3.1-3.5s-3.07,1.63-3.07,3.5,1.1,3.53,3.07,3.53S921.92,207.85,921.92,206Z"/><path class="cls-4" d="M935.72,204.7a2,2,0,0,0-2.22-2.25,3.42,3.42,0,0,0-2.75,1.43V212h-3.18V199.93h3.18v1.57a5.53,5.53,0,0,1,4.22-1.87c2.65,0,3.92,1.5,3.92,3.85V212h-3.17Z"/><path class="cls-4" d="M948.52,195.33h3.55V212h-3.55Z"/><path class="cls-4" d="M963.45,204.7a2,2,0,0,0-2.23-2.25,3.44,3.44,0,0,0-2.75,1.43V212H955.3V199.93h3.17v1.57a5.56,5.56,0,0,1,4.23-1.87c2.64,0,3.92,1.5,3.92,3.85V212h-3.17Z"/><path class="cls-4" d="M970.47,202.7h-2v-2.77h2v-.65a3.89,3.89,0,0,1,4.08-4.2,5.15,5.15,0,0,1,2.3.5l-.65,2.25a1.92,1.92,0,0,0-1-.25c-.9,0-1.5.6-1.5,1.75v.6h2.45v2.77h-2.45V212h-3.2Z"/><path class="cls-4" d="M977.17,206a6.39,6.39,0,1,1,6.38,6.35A6.12,6.12,0,0,1,977.17,206Zm9.47,0c0-1.87-1.12-3.5-3.09-3.5s-3.08,1.63-3.08,3.5,1.1,3.53,3.08,3.53S986.64,207.85,986.64,206Z"/><path class="cls-4" d="M992.3,199.93h3.17v1.65a5.15,5.15,0,0,1,3.85-1.93v3.1a4,4,0,0,0-.87-.1,4.05,4.05,0,0,0-3,1.38v8H992.3Z"/><path class="cls-4" d="M1016.27,204.38c0-1.13-.5-1.93-1.8-1.93a3.2,3.2,0,0,0-2.5,1.4V212h-3.2v-7.62c0-1.13-.5-1.93-1.8-1.93a3.24,3.24,0,0,0-2.5,1.43V212h-3.17V199.93h3.17v1.57a5.3,5.3,0,0,1,3.95-1.87,3.19,3.19,0,0,1,3.35,2.2,5.12,5.12,0,0,1,4.15-2.2c2.22,0,3.55,1.17,3.55,3.65V212h-3.2Z"/><path class="cls-4" d="M1029.84,210.75a5,5,0,0,1-3.82,1.55,4,4,0,0,1-4.2-4c0-2.82,2.28-3.85,4.2-3.85a4.85,4.85,0,0,1,3.82,1.48v-1.68c0-1.22-1-2-2.64-2a5.1,5.1,0,0,0-3.53,1.42l-1.2-2.12a7.94,7.94,0,0,1,5.27-1.9c2.75,0,5.28,1.1,5.28,4.57V212h-3.18Zm0-3.15a3.16,3.16,0,0,0-2.55-1c-1.25,0-2.27.65-2.27,1.83s1,1.77,2.27,1.77a3.16,3.16,0,0,0,2.55-1.05Z"/><path class="cls-4" d="M1036.8,209v-6.3h-2v-2.77h2v-3.3h3.2v3.3h2.45v2.77H1040v5.45c0,.75.4,1.33,1.1,1.33a1.79,1.79,0,0,0,1.1-.35l.67,2.4a4,4,0,0,1-2.65.77C1038,212.3,1036.8,211.15,1036.8,209Z"/><path class="cls-4" d="M1044.3,196.25a1.9,1.9,0,1,1,1.9,1.9A1.91,1.91,0,0,1,1044.3,196.25Zm.32,3.68h3.17V212h-3.17Z"/><path class="cls-4" d="M1050.17,206a6.39,6.39,0,1,1,6.37,6.35A6.11,6.11,0,0,1,1050.17,206Zm9.47,0c0-1.87-1.12-3.5-3.1-3.5s-3.07,1.63-3.07,3.5,1.1,3.53,3.07,3.53S1059.64,207.85,1059.64,206Z"/><path class="cls-4" d="M1073.44,204.7a2,2,0,0,0-2.22-2.25,3.44,3.44,0,0,0-2.75,1.43V212h-3.17V199.93h3.17v1.57a5.53,5.53,0,0,1,4.22-1.87c2.65,0,3.93,1.5,3.93,3.85V212h-3.18Z"/></g></g><g id="Rectangle_191" data-name="Rectangle 191"><rect class="cls-1" x="1215" y="540" width="193" height="68"/><rect class="cls-5" x="1215.5" y="540.5" width="192" height="67"/></g><g id="Rectangle_192" data-name="Rectangle 192"><rect class="cls-1" x="1215" y="622" width="193" height="68"/><rect class="cls-5" x="1215.5" y="622.5" width="192" height="67"/></g><g id="Approve" class="cls-3"><g class="cls-3"><path class="cls-4" d="M1267.34,581.41H1258l-1.31,3.59h-4.88l8.07-20.84h5.56l8,20.84h-4.84Zm-8.12-3.85h6.9l-3.43-9.56Z"/><path class="cls-4" d="M1275.34,590.75V569.91h4v1.9a5.83,5.83,0,0,1,4.66-2.28c3.87,0,6.69,2.88,6.69,7.91s-2.82,7.93-6.69,7.93a5.78,5.78,0,0,1-4.66-2.31v7.69Zm7.38-17.69a4.46,4.46,0,0,0-3.41,1.72v5.34a4.55,4.55,0,0,0,3.41,1.72c2.28,0,3.81-1.78,3.81-4.4S1285,573.06,1282.72,573.06Z"/><path class="cls-4" d="M1293.62,590.75V569.91h4v1.9a5.84,5.84,0,0,1,4.66-2.28c3.87,0,6.69,2.88,6.69,7.91s-2.82,7.93-6.69,7.93a5.78,5.78,0,0,1-4.66-2.31v7.69Zm7.38-17.69a4.46,4.46,0,0,0-3.41,1.72v5.34a4.55,4.55,0,0,0,3.41,1.72c2.28,0,3.81-1.78,3.81-4.4S1303.28,573.06,1301,573.06Z"/><path class="cls-4" d="M1311.91,569.91h4V572a6.46,6.46,0,0,1,4.82-2.41v3.88a4.6,4.6,0,0,0-1.1-.13,5.07,5.07,0,0,0-3.72,1.72v10h-4Z"/><path class="cls-4" d="M1322.19,577.44a8,8,0,1,1,8,7.93A7.65,7.65,0,0,1,1322.19,577.44Zm11.84,0c0-2.35-1.41-4.38-3.88-4.38s-3.84,2-3.84,4.38,1.38,4.4,3.84,4.4S1334,579.81,1334,577.44Z"/><path class="cls-4" d="M1338.94,569.91h4.25l3.93,10.5,3.94-10.5h4.28L1349.28,585H1345Z"/><path class="cls-4" d="M1364,569.53c4.5,0,7.56,3.38,7.56,8.31v.88h-11.22a4.07,4.07,0,0,0,4.34,3.5,6.18,6.18,0,0,0,4-1.5l1.75,2.56a9.39,9.39,0,0,1-6.22,2.09c-4.6,0-8.07-3.09-8.07-7.93A7.68,7.68,0,0,1,1364,569.53Zm-3.72,6.5h7.44a3.5,3.5,0,0,0-3.72-3.34A3.63,3.63,0,0,0,1360.25,576Z"/></g></g><g id="Deny" class="cls-3"><g class="cls-3"><path class="cls-4" d="M1277.06,646.16h8.22c6.53,0,11.06,4.15,11.06,10.43S1291.81,667,1285.28,667h-8.22Zm8.22,16.93a6.24,6.24,0,0,0,6.53-6.5c0-3.68-2.25-6.53-6.53-6.53h-3.78v13Z"/><path class="cls-4" d="M1306.25,651.53c4.5,0,7.56,3.38,7.56,8.31v.88h-11.22a4.08,4.08,0,0,0,4.35,3.5,6.17,6.17,0,0,0,4-1.5l1.75,2.56a9.39,9.39,0,0,1-6.22,2.09c-4.59,0-8.06-3.09-8.06-7.93A7.68,7.68,0,0,1,1306.25,651.53Zm-3.72,6.5H1310a3.49,3.49,0,0,0-3.72-3.34A3.63,3.63,0,0,0,1302.53,658Z"/><path class="cls-4" d="M1326.88,657.87c0-2.09-1.1-2.81-2.79-2.81a4.29,4.29,0,0,0-3.43,1.78V667h-4V651.91h4v2a6.91,6.91,0,0,1,5.28-2.34c3.31,0,4.9,1.88,4.9,4.81V667h-4Z"/><path class="cls-4" d="M1336.09,669.59a2,2,0,0,0,2.1-1.09l.56-1.28-6.13-15.31h4.25l3.94,10.5,3.94-10.5H1349l-7.09,17.56c-1.13,2.84-3.13,3.59-5.72,3.65a11.28,11.28,0,0,1-2-.21l.59-3.57A3.4,3.4,0,0,0,1336.09,669.59Z"/></g></g></g></svg>