<svg id="Layer_1" data-name="Layer 1" xmlns="http://www.w3.org/2000/svg" viewBox="0 0 509.42 897.84"><defs><style>.cls-1{fill:#edf4fe;}.cls-2,.cls-5{fill:none;stroke:#707070;}.cls-3{isolation:isolate;}.cls-4{fill:#707070;}.cls-5{stroke-width:3px;}.cls-6{fill:#fff;}.cls-7{fill:#c6deff;}</style></defs><title>feature-audit</title><g id="Group_472" data-name="Group 472"><g id="Rectangle_31" data-name="Rectangle 31"><path class="cls-1" d="M28.38-1.16H509.92v900H28.38a20,20,0,0,1-20-20v-860A20,20,0,0,1,28.38-1.16Z"/><path class="cls-2" d="M28.38-.66H508.92a.5.5,0,0,1,.5.5v898a.5.5,0,0,1-.5.5H28.38a19.5,19.5,0,0,1-19.5-19.5v-860A19.5,19.5,0,0,1,28.38-.66Z"/></g><g id="Front-end_skeleton" data-name="Front-end skeleton" class="cls-3"><g class="cls-3"><path class="cls-4" d="M83.73,11.16h18.79v3.18H87.3v9.24h14.92v3.19H87.3V39.84H83.73Z"/><path class="cls-4" d="M107.25,19.07h3.23v3.35a8.83,8.83,0,0,1,6.92-3.78V22a5.46,5.46,0,0,0-1.29-.13,7.6,7.6,0,0,0-5.63,3.31V39.84h-3.23Z"/><path class="cls-4" d="M120.24,29.43c0-6,4-10.88,10.28-10.88s10.27,4.86,10.27,10.88-3.95,10.92-10.27,10.92S120.24,35.45,120.24,29.43Zm17.16,0c0-4.21-2.46-8-6.88-8s-6.93,3.78-6.93,8,2.5,8,6.93,8S137.4,33.69,137.4,29.43Z"/><path class="cls-4" d="M160.06,26.25c0-3.65-1.85-4.81-4.65-4.81a8,8,0,0,0-6.15,3.22V39.84H146V19.07h3.22v3a10.32,10.32,0,0,1,7.4-3.53c4.34,0,6.62,2.2,6.62,6.71V39.84h-3.22Z"/><path class="cls-4" d="M170.38,35.5V21.91h-3.44V19.07h3.44V13.39h3.22v5.68h4.22v2.84H173.6v12.9c0,1.54.69,2.66,2.11,2.66a3.08,3.08,0,0,0,2.19-.86l.95,2.41A5.25,5.25,0,0,1,175,40.35C171.92,40.35,170.38,38.59,170.38,35.5Z"/><path class="cls-4" d="M180.44,28h10.32v2.84H180.44Z"/><path class="cls-4" d="M204.3,18.55c6.28,0,10,4.91,10,11.14v.82H197.47A7.31,7.31,0,0,0,205,37.69a9.09,9.09,0,0,0,6.4-2.62l1.55,2.1a11.25,11.25,0,0,1-8.25,3.18c-6.15,0-10.58-4.42-10.58-10.92C194.07,23.41,198.37,18.55,204.3,18.55Zm-6.83,9.59H211.1c0-3.09-2.11-6.92-6.84-6.92C199.83,21.22,197.64,25,197.47,28.14Z"/><path class="cls-4" d="M233.5,26.25c0-3.65-1.85-4.81-4.65-4.81a8,8,0,0,0-6.14,3.22V39.84h-3.23V19.07h3.23v3a10.3,10.3,0,0,1,7.39-3.53c4.34,0,6.62,2.2,6.62,6.71V39.84H233.5Z"/><path class="cls-4" d="M258.22,36.74a8.72,8.72,0,0,1-7,3.61c-5.41,0-9.24-4.12-9.24-10.87s3.78-10.93,9.24-10.93a8.67,8.67,0,0,1,7,3.66v-11h3.23V39.84h-3.23Zm0-12A7.77,7.77,0,0,0,252,21.44c-4.17,0-6.67,3.43-6.67,8s2.5,8,6.67,8a7.72,7.72,0,0,0,6.23-3.26Z"/><path class="cls-4" d="M278.86,34.76a9.43,9.43,0,0,0,6.84,3c3.18,0,4.9-1.42,4.9-3.44,0-2.28-2.53-3-5.33-3.7-3.53-.81-7.52-1.76-7.52-6.06,0-3.22,2.79-6,7.74-6a10.52,10.52,0,0,1,7.69,3l-1.5,2.24a8.08,8.08,0,0,0-6.19-2.62c-2.84,0-4.61,1.29-4.61,3.14,0,2,2.37,2.66,5.08,3.31,3.61.81,7.78,1.85,7.78,6.45,0,3.48-2.79,6.27-8.17,6.27a11,11,0,0,1-8.38-3.26Z"/><path class="cls-4" d="M305.65,30.51l-3.44,3.39v5.94H299V11.16h3.22v19l10.92-11h4.09L308,28.49l9.24,11.35h-4.13Z"/><path class="cls-4" d="M329.13,18.55c6.28,0,10,4.91,10,11.14v.82H322.29a7.32,7.32,0,0,0,7.49,7.18,9.09,9.09,0,0,0,6.4-2.62l1.55,2.1a11.26,11.26,0,0,1-8.26,3.18c-6.14,0-10.57-4.42-10.57-10.92C318.9,23.41,323.2,18.55,329.13,18.55Zm-6.84,9.59h13.63c0-3.09-2.1-6.92-6.83-6.92C324.66,21.22,322.47,25,322.29,28.14Z"/><path class="cls-4" d="M344.31,11.16h3.22V39.84h-3.22Z"/><path class="cls-4" d="M363,18.55c6.28,0,10,4.91,10,11.14v.82H356.18a7.31,7.31,0,0,0,7.48,7.18,9.13,9.13,0,0,0,6.41-2.62l1.54,2.1a11.25,11.25,0,0,1-8.25,3.18c-6.15,0-10.58-4.42-10.58-10.92C352.78,23.41,357.08,18.55,363,18.55Zm-6.83,9.59h13.63c-.05-3.09-2.11-6.92-6.84-6.92C358.54,21.22,356.35,25,356.18,28.14Z"/><path class="cls-4" d="M378.84,35.5V21.91H375.4V19.07h3.44V13.39h3.22v5.68h4.22v2.84h-4.22v12.9c0,1.54.69,2.66,2.11,2.66a3.08,3.08,0,0,0,2.19-.86l.95,2.41a5.25,5.25,0,0,1-3.87,1.33C380.39,40.35,378.84,38.59,378.84,35.5Z"/><path class="cls-4" d="M389.63,29.43c0-6,4-10.88,10.28-10.88s10.27,4.86,10.27,10.88-3.95,10.92-10.27,10.92S389.63,35.45,389.63,29.43Zm17.16,0c0-4.21-2.45-8-6.88-8s-6.93,3.78-6.93,8,2.5,8,6.93,8S406.79,33.69,406.79,29.43Z"/><path class="cls-4" d="M429.45,26.25c0-3.65-1.85-4.81-4.65-4.81a8,8,0,0,0-6.15,3.22V39.84h-3.22V19.07h3.22v3a10.32,10.32,0,0,1,7.4-3.53c4.34,0,6.62,2.2,6.62,6.71V39.84h-3.22Z"/></g></g><path id="_ionicons_svg_ios-close" data-name=" ionicons svg ios-close" class="cls-4" d="M38.69,25l6.53-6.53a1.53,1.53,0,1,0-2-2.28l-.11.12-6.53,6.53L30,16.32a1.53,1.53,0,1,0-2.19,2.14l0,0L34.36,25l-6.53,6.53A1.53,1.53,0,1,0,30,33.74l0,0,6.54-6.53,6.53,6.53a1.53,1.53,0,1,0,2.19-2.13l0,0Z"/><g id="Information" class="cls-3"><g class="cls-3"><path class="cls-4" d="M65.88,77.17h4.3V93.84h-4.3Z"/><path class="cls-4" d="M81.25,86.86a1.74,1.74,0,0,0-2-2A3,3,0,0,0,76.93,86v7.8H73.08V81.77h3.85v1.47a5.44,5.44,0,0,1,4.17-1.77c2.75,0,4,1.6,4,3.82v8.55H81.25Z"/><path class="cls-4" d="M88.73,85.12h-2V81.77h2v-.6a4.08,4.08,0,0,1,4.32-4.25,5.45,5.45,0,0,1,2.55.55l-.7,2.62a2,2,0,0,0-1-.25,1.26,1.26,0,0,0-1.32,1.43v.5H95v3.35H92.58v8.72H88.73Z"/><path class="cls-4" d="M95.83,87.79a6.59,6.59,0,1,1,6.57,6.35A6.22,6.22,0,0,1,95.83,87.79Zm9.22,0a2.64,2.64,0,1,0-2.65,2.95A2.66,2.66,0,0,0,105.05,87.79Z"/><path class="cls-4" d="M111,81.77h3.85v1.52a5.27,5.27,0,0,1,3.77-1.82v3.72a3.28,3.28,0,0,0-1-.12,3.82,3.82,0,0,0-2.82,1.12v7.65H111Z"/><path class="cls-4" d="M135.62,86.49a1.45,1.45,0,0,0-1.6-1.62A2.77,2.77,0,0,0,131.85,86v7.8H128V86.49a1.44,1.44,0,0,0-1.6-1.62A2.83,2.83,0,0,0,124.25,86v7.8H120.4V81.77h3.85v1.47a5.38,5.38,0,0,1,4-1.77,3.27,3.27,0,0,1,3.42,2.15,5.19,5.19,0,0,1,4.17-2.15c2.23,0,3.63,1.15,3.63,3.62v8.75h-3.83Z"/><path class="cls-4" d="M149.4,92.64a5,5,0,0,1-3.75,1.5,4,4,0,0,1-4.15-4c0-2.92,2.3-3.8,4.15-3.8a4.79,4.79,0,0,1,3.75,1.41V86.24c0-1-.9-1.75-2.45-1.75a5.34,5.34,0,0,0-3.42,1.28l-1.38-2.43a8.55,8.55,0,0,1,5.48-1.87c2.9,0,5.62,1.07,5.62,4.82v7.55H149.4Zm0-3a2.75,2.75,0,0,0-2.15-.85c-1,0-1.92.45-1.92,1.4s.9,1.4,1.92,1.4a2.69,2.69,0,0,0,2.15-.87Z"/><path class="cls-4" d="M156.85,90.59V85.12h-2V81.77h2v-3.3h3.83v3.3h2.45v3.35h-2.45v4.39a1.1,1.1,0,0,0,1.07,1.23,1.51,1.51,0,0,0,1-.3l.75,2.9a4.22,4.22,0,0,1-2.85.8C158.18,94.14,156.85,92.91,156.85,90.59Z"/><path class="cls-4" d="M164.78,78a2.2,2.2,0,1,1,2.2,2.2A2.19,2.19,0,0,1,164.78,78Zm.27,3.73h3.85V93.84h-3.85Z"/><path class="cls-4" d="M170.9,87.79a6.59,6.59,0,1,1,6.58,6.35A6.23,6.23,0,0,1,170.9,87.79Zm9.23,0a2.64,2.64,0,1,0-2.65,2.95A2.66,2.66,0,0,0,180.13,87.79Z"/><path class="cls-4" d="M194.28,86.86a1.74,1.74,0,0,0-2-2A3,3,0,0,0,190,86v7.8H186.1V81.77H190v1.47a5.47,5.47,0,0,1,4.18-1.77c2.74,0,4,1.6,4,3.82v8.55h-3.84Z"/></g></g><g id="Activity" class="cls-3"><g class="cls-3"><path class="cls-4" d="M376.09,91.31h-6.92l-.85,2.53h-4.67l6.27-16.67h5.4l6.3,16.67h-4.68Zm-5.8-3.62H375l-2.35-6.77Z"/><path class="cls-4" d="M388.54,81.47a5.79,5.79,0,0,1,4.95,2.22L391,86a2.63,2.63,0,0,0-2.27-1.15,2.94,2.94,0,0,0,0,5.87A2.7,2.7,0,0,0,391,89.56l2.5,2.35a5.85,5.85,0,0,1-4.95,2.23c-3.77,0-6.6-2.55-6.6-6.35S384.77,81.47,388.54,81.47Z"/><path class="cls-4" d="M396,90.59V85.12h-2V81.77h2v-3.3h3.83v3.3h2.45v3.35h-2.45v4.39a1.1,1.1,0,0,0,1.07,1.23,1.51,1.51,0,0,0,1-.3l.75,2.9a4.22,4.22,0,0,1-2.85.8C397.37,94.14,396,92.91,396,90.59Z"/><path class="cls-4" d="M404,78a2.2,2.2,0,1,1,2.2,2.2A2.19,2.19,0,0,1,404,78Zm.27,3.73h3.85V93.84h-3.85Z"/><path class="cls-4" d="M409.24,81.77h4.05L416,89.41l2.75-7.64h4.07l-4.75,12.07H414Z"/><path class="cls-4" d="M423.72,78a2.2,2.2,0,1,1,2.2,2.2A2.19,2.19,0,0,1,423.72,78Zm.27,3.73h3.85V93.84H424Z"/><path class="cls-4" d="M431.44,90.59V85.12h-2V81.77h2v-3.3h3.83v3.3h2.45v3.35h-2.45v4.39a1.1,1.1,0,0,0,1.07,1.23,1.51,1.51,0,0,0,1-.3l.75,2.9a4.22,4.22,0,0,1-2.85.8C432.77,94.14,431.44,92.91,431.44,90.59Z"/><path class="cls-4" d="M440.89,95.34c.88,0,1.43-.18,1.63-.68l.27-.65L438,81.77H442l2.73,7.64,2.75-7.64h4.07l-5.45,13.79c-1,2.55-2.8,3.13-5.1,3.18a8.16,8.16,0,0,1-1.65-.2l.55-3.43A2.14,2.14,0,0,0,440.89,95.34Z"/></g></g><line id="Line_8" data-name="Line 8" class="cls-5" x1="466.42" y1="101.34" x2="349.88" y2="101.34"/><g id="Rectangle_154" data-name="Rectangle 154"><rect class="cls-6" x="61.92" y="118.84" width="100" height="43" rx="5"/><rect class="cls-2" x="62.42" y="119.34" width="99" height="42" rx="4.5"/></g><g id="Rectangle_155" data-name="Rectangle 155"><rect class="cls-6" x="351.92" y="118.84" width="100" height="43" rx="5"/><rect class="cls-2" x="352.42" y="119.34" width="99" height="42" rx="4.5"/></g><g id="Rectangle_156" data-name="Rectangle 156"><rect class="cls-7" x="206.92" y="118.84" width="100" height="43" rx="5"/><rect class="cls-2" x="207.42" y="119.34" width="99" height="42" rx="4.5"/></g><g id="Edits" class="cls-3"><g class="cls-3"><path class="cls-4" d="M92.48,134.5h8.74V136H94.14v4.3h6.94v1.48H94.14v4.6h7.08v1.48H92.48Z"/><path class="cls-4" d="M110.8,146.4a4.07,4.07,0,0,1-3.26,1.68c-2.52,0-4.3-1.92-4.3-5.06s1.76-5.08,4.3-5.08a4,4,0,0,1,3.26,1.7V134.5h1.5v13.34h-1.5Zm0-5.56a3.63,3.63,0,0,0-2.9-1.56c-1.94,0-3.1,1.6-3.1,3.74s1.16,3.72,3.1,3.72a3.59,3.59,0,0,0,2.9-1.52Z"/><path class="cls-4" d="M115,135.54a1,1,0,0,1,2,0,1,1,0,1,1-2,0Zm.26,2.64h1.5v9.66h-1.5Z"/><path class="cls-4" d="M120.1,145.82V139.5h-1.6v-1.32h1.6v-2.64h1.5v2.64h2v1.32h-2v6c0,.72.32,1.24,1,1.24a1.45,1.45,0,0,0,1-.4l.44,1.12a2.45,2.45,0,0,1-1.8.62A2,2,0,0,1,120.1,145.82Z"/><path class="cls-4" d="M125.62,145.48a4.38,4.38,0,0,0,3.18,1.38c1.48,0,2.28-.66,2.28-1.6s-1.18-1.4-2.48-1.72c-1.64-.38-3.5-.82-3.5-2.82,0-1.5,1.3-2.78,3.6-2.78a4.89,4.89,0,0,1,3.58,1.4l-.7,1a3.76,3.76,0,0,0-2.88-1.22c-1.32,0-2.14.6-2.14,1.46s1.1,1.24,2.36,1.54c1.68.38,3.62.86,3.62,3,0,1.62-1.3,2.92-3.8,2.92a5.14,5.14,0,0,1-3.9-1.52Z"/></g></g><g id="Shares" class="cls-3"><g class="cls-3"><path class="cls-4" d="M228.66,144.7a5.64,5.64,0,0,0,4.2,1.9c2.38,0,3.14-1.28,3.14-2.3,0-1.6-1.62-2-3.38-2.52-2.14-.56-4.52-1.16-4.52-3.78,0-2.2,2-3.7,4.58-3.7a6.27,6.27,0,0,1,4.74,1.86l-1,1.22a5.1,5.1,0,0,0-3.86-1.6c-1.6,0-2.74.86-2.74,2.12s1.54,1.74,3.24,2.2c2.18.58,4.66,1.26,4.66,4.06,0,1.94-1.32,3.92-4.92,3.92a6.61,6.61,0,0,1-5.12-2.12Z"/><path class="cls-4" d="M246.68,141.48c0-1.7-.88-2.2-2.18-2.2a3.8,3.8,0,0,0-2.86,1.5v7.06h-1.5V134.5h1.5v5.08a4.8,4.8,0,0,1,3.46-1.64c2,0,3.08,1,3.08,3.08v6.82h-1.5Z"/><path class="cls-4" d="M257.22,146.74a4.18,4.18,0,0,1-3.2,1.34,3.22,3.22,0,0,1-3.38-3.2A3.16,3.16,0,0,1,254,141.7a4,4,0,0,1,3.2,1.32v-1.74c0-1.3-1-2-2.44-2a3.84,3.84,0,0,0-3,1.34l-.7-1a5.06,5.06,0,0,1,3.86-1.6c2,0,3.74.92,3.74,3.26v6.64h-1.5Zm0-2.76a3.23,3.23,0,0,0-2.66-1.2,2.13,2.13,0,1,0,0,4.22,3.23,3.23,0,0,0,2.66-1.2Z"/><path class="cls-4" d="M261.72,138.18h1.5v1.56a4.11,4.11,0,0,1,3.22-1.76v1.54a2.64,2.64,0,0,0-.6-.06,3.53,3.53,0,0,0-2.62,1.54v6.84h-1.5Z"/><path class="cls-4" d="M272.52,137.94c2.92,0,4.64,2.28,4.64,5.18v.38h-7.82a3.4,3.4,0,0,0,3.48,3.34,4.22,4.22,0,0,0,3-1.22l.72,1a5.25,5.25,0,0,1-3.84,1.48,5.08,5.08,0,0,1-.16-10.14Zm-3.18,4.46h6.34a3.13,3.13,0,0,0-3.18-3.22A3.22,3.22,0,0,0,269.34,142.4Z"/><path class="cls-4" d="M279.52,145.48a4.38,4.38,0,0,0,3.18,1.38c1.48,0,2.28-.66,2.28-1.6s-1.18-1.4-2.48-1.72c-1.64-.38-3.5-.82-3.5-2.82,0-1.5,1.3-2.78,3.6-2.78a4.89,4.89,0,0,1,3.58,1.4l-.7,1a3.76,3.76,0,0,0-2.88-1.22c-1.32,0-2.14.6-2.14,1.46s1.1,1.24,2.36,1.54c1.68.38,3.62.86,3.62,3,0,1.62-1.3,2.92-3.8,2.92a5.14,5.14,0,0,1-3.9-1.52Z"/></g></g><g id="All" class="cls-3"><g class="cls-3"><path class="cls-4" d="M400.88,144.88h-6.76l-1.18,3H391.1l5.36-13.34h2.06l5.38,13.34h-1.84Zm-6.28-1.48h5.78L397.5,136Z"/><path class="cls-4" d="M405.58,134.5h1.5v13.34h-1.5Z"/><path class="cls-4" d="M410.08,134.5h1.5v13.34h-1.5Z"/></g></g><line id="Line_30" data-name="Line 30" class="cls-2" x1="34.42" y1="184.34" x2="483.42" y2="184.34"/><g id="Ellipse_56" data-name="Ellipse 56"><circle class="cls-6" cx="69.92" cy="265.84" r="35"/><circle class="cls-2" cx="69.92" cy="265.84" r="34.5"/></g><g id="Ellipse_57" data-name="Ellipse 57"><circle class="cls-6" cx="69.92" cy="396.84" r="35"/><circle class="cls-2" cx="69.92" cy="396.84" r="34.5"/></g><g id="Ellipse_64" data-name="Ellipse 64"><circle class="cls-6" cx="69.92" cy="527.84" r="35"/><circle class="cls-2" cx="69.92" cy="527.84" r="34.5"/></g><g id="Ellipse_65" data-name="Ellipse 65"><circle class="cls-6" cx="69.92" cy="658.84" r="35"/><circle class="cls-2" cx="69.92" cy="658.84" r="34.5"/></g><g id="Ellipse_66" data-name="Ellipse 66"><circle class="cls-6" cx="69.92" cy="789.84" r="35"/><circle class="cls-2" cx="69.92" cy="789.84" r="34.5"/></g><g id="So_and_so_shared_with_" data-name="So and so shared with " class="cls-3"><g class="cls-3"><path class="cls-4" d="M133.66,256.7a5.64,5.64,0,0,0,4.2,1.9c2.38,0,3.14-1.28,3.14-2.3,0-1.6-1.62-2-3.38-2.52-2.14-.56-4.52-1.16-4.52-3.78,0-2.2,2-3.7,4.58-3.7a6.27,6.27,0,0,1,4.74,1.86l-1,1.22a5.1,5.1,0,0,0-3.86-1.6c-1.6,0-2.74.86-2.74,2.12s1.54,1.74,3.24,2.2c2.18.58,4.66,1.26,4.66,4.06,0,1.94-1.32,3.92-4.92,3.92a6.61,6.61,0,0,1-5.12-2.12Z"/><path class="cls-4" d="M144.58,255a4.79,4.79,0,1,1,4.78,5.08A4.74,4.74,0,0,1,144.58,255Zm8,0c0-2-1.14-3.72-3.2-3.72s-3.22,1.76-3.22,3.72,1.16,3.74,3.22,3.74S152.56,257,152.56,255Z"/><path class="cls-4" d="M167.78,258.74a4.18,4.18,0,0,1-3.2,1.34,3.22,3.22,0,0,1-3.38-3.2,3.16,3.16,0,0,1,3.38-3.18,4,4,0,0,1,3.2,1.32v-1.74c0-1.3-1-2-2.44-2a3.84,3.84,0,0,0-3,1.34l-.7-1a5.06,5.06,0,0,1,3.86-1.6c2,0,3.74.92,3.74,3.26v6.64h-1.5Zm0-2.76a3.23,3.23,0,0,0-2.66-1.2,2.13,2.13,0,1,0,0,4.22,3.23,3.23,0,0,0,2.66-1.2Z"/><path class="cls-4" d="M178.8,253.52c0-1.7-.86-2.24-2.16-2.24a3.73,3.73,0,0,0-2.86,1.5v7.06h-1.5v-9.66h1.5v1.4a4.79,4.79,0,0,1,3.44-1.64c2,0,3.08,1,3.08,3.12v6.78h-1.5Z"/><path class="cls-4" d="M190.3,258.4a4.07,4.07,0,0,1-3.26,1.68c-2.52,0-4.3-1.92-4.3-5.06s1.76-5.08,4.3-5.08a4,4,0,0,1,3.26,1.7V246.5h1.5v13.34h-1.5Zm0-5.56a3.63,3.63,0,0,0-2.9-1.56c-1.94,0-3.1,1.6-3.1,3.74s1.16,3.72,3.1,3.72a3.59,3.59,0,0,0,2.9-1.52Z"/><path class="cls-4" d="M199.9,257.48a4.38,4.38,0,0,0,3.18,1.38c1.48,0,2.28-.66,2.28-1.6s-1.18-1.4-2.48-1.72c-1.64-.38-3.5-.82-3.5-2.82,0-1.5,1.3-2.78,3.6-2.78a4.89,4.89,0,0,1,3.58,1.4l-.7,1a3.76,3.76,0,0,0-2.88-1.22c-1.32,0-2.14.6-2.14,1.46s1.1,1.24,2.36,1.54c1.68.38,3.62.86,3.62,3,0,1.62-1.3,2.92-3.8,2.92a5.14,5.14,0,0,1-3.9-1.52Z"/><path class="cls-4" d="M208.7,255a4.79,4.79,0,1,1,4.78,5.08A4.74,4.74,0,0,1,208.7,255Zm8,0c0-2-1.14-3.72-3.2-3.72s-3.22,1.76-3.22,3.72,1.16,3.74,3.22,3.74S216.68,257,216.68,255Z"/><path class="cls-4" d="M225.8,257.48a4.38,4.38,0,0,0,3.18,1.38c1.48,0,2.28-.66,2.28-1.6s-1.18-1.4-2.48-1.72c-1.64-.38-3.5-.82-3.5-2.82,0-1.5,1.3-2.78,3.6-2.78a4.89,4.89,0,0,1,3.58,1.4l-.7,1a3.76,3.76,0,0,0-2.88-1.22c-1.32,0-2.14.6-2.14,1.46s1.1,1.24,2.36,1.54c1.68.38,3.62.86,3.62,3,0,1.62-1.3,2.92-3.8,2.92a5.14,5.14,0,0,1-3.9-1.52Z"/><path class="cls-4" d="M241.7,253.48c0-1.7-.88-2.2-2.18-2.2a3.8,3.8,0,0,0-2.86,1.5v7.06h-1.5V246.5h1.5v5.08a4.8,4.8,0,0,1,3.46-1.64c2,0,3.08,1,3.08,3.08v6.82h-1.5Z"/><path class="cls-4" d="M252.24,258.74a4.18,4.18,0,0,1-3.2,1.34,3.22,3.22,0,0,1-3.38-3.2A3.16,3.16,0,0,1,249,253.7a4,4,0,0,1,3.2,1.32v-1.74c0-1.3-1-2-2.44-2a3.84,3.84,0,0,0-3,1.34l-.7-1a5.06,5.06,0,0,1,3.86-1.6c2,0,3.74.92,3.74,3.26v6.64h-1.5Zm0-2.76a3.23,3.23,0,0,0-2.66-1.2,2.13,2.13,0,1,0,0,4.22,3.23,3.23,0,0,0,2.66-1.2Z"/><path class="cls-4" d="M256.74,250.18h1.5v1.56a4.11,4.11,0,0,1,3.22-1.76v1.54a2.64,2.64,0,0,0-.6-.06,3.53,3.53,0,0,0-2.62,1.54v6.84h-1.5Z"/><path class="cls-4" d="M267.54,249.94c2.92,0,4.64,2.28,4.64,5.18v.38h-7.82a3.4,3.4,0,0,0,3.48,3.34,4.22,4.22,0,0,0,3-1.22l.72,1a5.25,5.25,0,0,1-3.84,1.48,5.08,5.08,0,0,1-.16-10.14Zm-3.18,4.46h6.34a3.13,3.13,0,0,0-3.18-3.22A3.22,3.22,0,0,0,264.36,254.4Z"/><path class="cls-4" d="M281.6,258.4a4.07,4.07,0,0,1-3.26,1.68c-2.52,0-4.3-1.92-4.3-5.06s1.76-5.08,4.3-5.08a4,4,0,0,1,3.26,1.7V246.5h1.5v13.34h-1.5Zm0-5.56a3.63,3.63,0,0,0-2.9-1.56c-1.94,0-3.1,1.6-3.1,3.74s1.16,3.72,3.1,3.72a3.59,3.59,0,0,0,2.9-1.52Z"/><path class="cls-4" d="M297.1,252.08l-2.52,7.76h-1.5L290,250.18h1.56l2.36,7.7,2.54-7.7h1.28l2.54,7.7,2.36-7.7h1.56l-3.08,9.66h-1.5Z"/><path class="cls-4" d="M305.68,247.54a1,1,0,0,1,2,0,1,1,0,1,1-2,0Zm.26,2.64h1.5v9.66h-1.5Z"/><path class="cls-4" d="M310.74,257.82V251.5h-1.6v-1.32h1.6v-2.64h1.5v2.64h2v1.32h-2v6c0,.72.32,1.24,1,1.24a1.45,1.45,0,0,0,1-.4l.44,1.12a2.45,2.45,0,0,1-1.8.62A2,2,0,0,1,310.74,257.82Z"/><path class="cls-4" d="M322.86,253.48c0-1.7-.88-2.2-2.18-2.2a3.8,3.8,0,0,0-2.86,1.5v7.06h-1.5V246.5h1.5v5.08a4.8,4.8,0,0,1,3.46-1.64c2,0,3.08,1,3.08,3.08v6.82h-1.5Z"/><path class="cls-4" d="M327.06,258.94a1.09,1.09,0,0,1,1.08-1.1,1.11,1.11,0,0,1,1.1,1.1,1.12,1.12,0,0,1-1.1,1.1A1.11,1.11,0,0,1,327.06,258.94Zm4.6,0a1.09,1.09,0,0,1,1.08-1.1,1.13,1.13,0,0,1,1.12,1.1,1.14,1.14,0,0,1-1.12,1.1A1.11,1.11,0,0,1,331.66,258.94Zm4.6,0a1.1,1.1,0,1,1,2.2,0,1.1,1.1,0,0,1-2.2,0Z"/></g></g><g id="So_and_so_shared_with_2" data-name="So and so shared with 2" class="cls-3"><g class="cls-3"><path class="cls-4" d="M133.66,387.7a5.64,5.64,0,0,0,4.2,1.9c2.38,0,3.14-1.28,3.14-2.3,0-1.6-1.62-2-3.38-2.52-2.14-.56-4.52-1.16-4.52-3.78,0-2.2,2-3.7,4.58-3.7a6.27,6.27,0,0,1,4.74,1.86l-1,1.22a5.1,5.1,0,0,0-3.86-1.6c-1.6,0-2.74.86-2.74,2.12s1.54,1.74,3.24,2.2c2.18.58,4.66,1.26,4.66,4.06,0,1.94-1.32,3.92-4.92,3.92a6.61,6.61,0,0,1-5.12-2.12Z"/><path class="cls-4" d="M144.58,386a4.79,4.79,0,1,1,4.78,5.08A4.74,4.74,0,0,1,144.58,386Zm8,0c0-2-1.14-3.72-3.2-3.72s-3.22,1.76-3.22,3.72,1.16,3.74,3.22,3.74S152.56,388,152.56,386Z"/><path class="cls-4" d="M167.78,389.74a4.18,4.18,0,0,1-3.2,1.34,3.22,3.22,0,0,1-3.38-3.2,3.16,3.16,0,0,1,3.38-3.18,4,4,0,0,1,3.2,1.32v-1.74c0-1.3-1-2-2.44-2a3.84,3.84,0,0,0-3,1.34l-.7-1a5.06,5.06,0,0,1,3.86-1.6c2,0,3.74.92,3.74,3.26v6.64h-1.5Zm0-2.76a3.23,3.23,0,0,0-2.66-1.2,2.13,2.13,0,1,0,0,4.22,3.23,3.23,0,0,0,2.66-1.2Z"/><path class="cls-4" d="M178.8,384.52c0-1.7-.86-2.24-2.16-2.24a3.73,3.73,0,0,0-2.86,1.5v7.06h-1.5v-9.66h1.5v1.4a4.79,4.79,0,0,1,3.44-1.64c2,0,3.08,1,3.08,3.12v6.78h-1.5Z"/><path class="cls-4" d="M190.3,389.4a4.07,4.07,0,0,1-3.26,1.68c-2.52,0-4.3-1.92-4.3-5.06s1.76-5.08,4.3-5.08a4,4,0,0,1,3.26,1.7V377.5h1.5v13.34h-1.5Zm0-5.56a3.63,3.63,0,0,0-2.9-1.56c-1.94,0-3.1,1.6-3.1,3.74s1.16,3.72,3.1,3.72a3.59,3.59,0,0,0,2.9-1.52Z"/><path class="cls-4" d="M199.9,388.48a4.38,4.38,0,0,0,3.18,1.38c1.48,0,2.28-.66,2.28-1.6s-1.18-1.4-2.48-1.72c-1.64-.38-3.5-.82-3.5-2.82,0-1.5,1.3-2.78,3.6-2.78a4.89,4.89,0,0,1,3.58,1.4l-.7,1a3.76,3.76,0,0,0-2.88-1.22c-1.32,0-2.14.6-2.14,1.46s1.1,1.24,2.36,1.54c1.68.38,3.62.86,3.62,3,0,1.62-1.3,2.92-3.8,2.92a5.14,5.14,0,0,1-3.9-1.52Z"/><path class="cls-4" d="M208.7,386a4.79,4.79,0,1,1,4.78,5.08A4.74,4.74,0,0,1,208.7,386Zm8,0c0-2-1.14-3.72-3.2-3.72s-3.22,1.76-3.22,3.72,1.16,3.74,3.22,3.74S216.68,388,216.68,386Z"/><path class="cls-4" d="M225.8,388.48a4.38,4.38,0,0,0,3.18,1.38c1.48,0,2.28-.66,2.28-1.6s-1.18-1.4-2.48-1.72c-1.64-.38-3.5-.82-3.5-2.82,0-1.5,1.3-2.78,3.6-2.78a4.89,4.89,0,0,1,3.58,1.4l-.7,1a3.76,3.76,0,0,0-2.88-1.22c-1.32,0-2.14.6-2.14,1.46s1.1,1.24,2.36,1.54c1.68.38,3.62.86,3.62,3,0,1.62-1.3,2.92-3.8,2.92a5.14,5.14,0,0,1-3.9-1.52Z"/><path class="cls-4" d="M241.7,384.48c0-1.7-.88-2.2-2.18-2.2a3.8,3.8,0,0,0-2.86,1.5v7.06h-1.5V377.5h1.5v5.08a4.8,4.8,0,0,1,3.46-1.64c2,0,3.08,1,3.08,3.08v6.82h-1.5Z"/><path class="cls-4" d="M252.24,389.74a4.18,4.18,0,0,1-3.2,1.34,3.22,3.22,0,0,1-3.38-3.2A3.16,3.16,0,0,1,249,384.7a4,4,0,0,1,3.2,1.32v-1.74c0-1.3-1-2-2.44-2a3.84,3.84,0,0,0-3,1.34l-.7-1a5.06,5.06,0,0,1,3.86-1.6c2,0,3.74.92,3.74,3.26v6.64h-1.5Zm0-2.76a3.23,3.23,0,0,0-2.66-1.2,2.13,2.13,0,1,0,0,4.22,3.23,3.23,0,0,0,2.66-1.2Z"/><path class="cls-4" d="M256.74,381.18h1.5v1.56a4.11,4.11,0,0,1,3.22-1.76v1.54a2.64,2.64,0,0,0-.6-.06,3.53,3.53,0,0,0-2.62,1.54v6.84h-1.5Z"/><path class="cls-4" d="M267.54,380.94c2.92,0,4.64,2.28,4.64,5.18v.38h-7.82a3.4,3.4,0,0,0,3.48,3.34,4.22,4.22,0,0,0,3-1.22l.72,1a5.25,5.25,0,0,1-3.84,1.48,5.08,5.08,0,0,1-.16-10.14Zm-3.18,4.46h6.34a3.13,3.13,0,0,0-3.18-3.22A3.22,3.22,0,0,0,264.36,385.4Z"/><path class="cls-4" d="M281.6,389.4a4.07,4.07,0,0,1-3.26,1.68c-2.52,0-4.3-1.92-4.3-5.06s1.76-5.08,4.3-5.08a4,4,0,0,1,3.26,1.7V377.5h1.5v13.34h-1.5Zm0-5.56a3.63,3.63,0,0,0-2.9-1.56c-1.94,0-3.1,1.6-3.1,3.74s1.16,3.72,3.1,3.72a3.59,3.59,0,0,0,2.9-1.52Z"/><path class="cls-4" d="M297.1,383.08l-2.52,7.76h-1.5L290,381.18h1.56l2.36,7.7,2.54-7.7h1.28l2.54,7.7,2.36-7.7h1.56l-3.08,9.66h-1.5Z"/><path class="cls-4" d="M305.68,378.54a1,1,0,0,1,2,0,1,1,0,1,1-2,0Zm.26,2.64h1.5v9.66h-1.5Z"/><path class="cls-4" d="M310.74,388.82V382.5h-1.6v-1.32h1.6v-2.64h1.5v2.64h2v1.32h-2v6c0,.72.32,1.24,1,1.24a1.45,1.45,0,0,0,1-.4l.44,1.12a2.45,2.45,0,0,1-1.8.62A2,2,0,0,1,310.74,388.82Z"/><path class="cls-4" d="M322.86,384.48c0-1.7-.88-2.2-2.18-2.2a3.8,3.8,0,0,0-2.86,1.5v7.06h-1.5V377.5h1.5v5.08a4.8,4.8,0,0,1,3.46-1.64c2,0,3.08,1,3.08,3.08v6.82h-1.5Z"/><path class="cls-4" d="M327.06,389.94a1.09,1.09,0,0,1,1.08-1.1,1.11,1.11,0,0,1,1.1,1.1,1.12,1.12,0,0,1-1.1,1.1A1.11,1.11,0,0,1,327.06,389.94Zm4.6,0a1.09,1.09,0,0,1,1.08-1.1,1.13,1.13,0,0,1,1.12,1.1,1.14,1.14,0,0,1-1.12,1.1A1.11,1.11,0,0,1,331.66,389.94Zm4.6,0a1.1,1.1,0,1,1,2.2,0,1.1,1.1,0,1,1-2.2,0Z"/></g></g><g id="So_and_so_shared_with_3" data-name="So and so shared with 3" class="cls-3"><g class="cls-3"><path class="cls-4" d="M133.66,518.7a5.64,5.64,0,0,0,4.2,1.9c2.38,0,3.14-1.28,3.14-2.3,0-1.6-1.62-2-3.38-2.52-2.14-.56-4.52-1.16-4.52-3.78,0-2.2,2-3.7,4.58-3.7a6.27,6.27,0,0,1,4.74,1.86l-1,1.22a5.1,5.1,0,0,0-3.86-1.6c-1.6,0-2.74.86-2.74,2.12s1.54,1.74,3.24,2.2c2.18.58,4.66,1.26,4.66,4.06,0,1.94-1.32,3.92-4.92,3.92a6.61,6.61,0,0,1-5.12-2.12Z"/><path class="cls-4" d="M144.58,517a4.79,4.79,0,1,1,4.78,5.08A4.74,4.74,0,0,1,144.58,517Zm8,0c0-2-1.14-3.72-3.2-3.72s-3.22,1.76-3.22,3.72,1.16,3.74,3.22,3.74S152.56,519,152.56,517Z"/><path class="cls-4" d="M167.78,520.74a4.18,4.18,0,0,1-3.2,1.34,3.22,3.22,0,0,1-3.38-3.2,3.16,3.16,0,0,1,3.38-3.18,4,4,0,0,1,3.2,1.32v-1.74c0-1.3-1-2-2.44-2a3.84,3.84,0,0,0-3,1.34l-.7-1a5.06,5.06,0,0,1,3.86-1.6c2,0,3.74.92,3.74,3.26v6.64h-1.5Zm0-2.76a3.23,3.23,0,0,0-2.66-1.2,2.13,2.13,0,1,0,0,4.22,3.23,3.23,0,0,0,2.66-1.2Z"/><path class="cls-4" d="M178.8,515.52c0-1.7-.86-2.24-2.16-2.24a3.73,3.73,0,0,0-2.86,1.5v7.06h-1.5v-9.66h1.5v1.4a4.79,4.79,0,0,1,3.44-1.64c2,0,3.08,1,3.08,3.12v6.78h-1.5Z"/><path class="cls-4" d="M190.3,520.4a4.07,4.07,0,0,1-3.26,1.68c-2.52,0-4.3-1.92-4.3-5.06s1.76-5.08,4.3-5.08a4,4,0,0,1,3.26,1.7V508.5h1.5v13.34h-1.5Zm0-5.56a3.63,3.63,0,0,0-2.9-1.56c-1.94,0-3.1,1.6-3.1,3.74s1.16,3.72,3.1,3.72a3.59,3.59,0,0,0,2.9-1.52Z"/><path class="cls-4" d="M199.9,519.48a4.38,4.38,0,0,0,3.18,1.38c1.48,0,2.28-.66,2.28-1.6s-1.18-1.4-2.48-1.72c-1.64-.38-3.5-.82-3.5-2.82,0-1.5,1.3-2.78,3.6-2.78a4.89,4.89,0,0,1,3.58,1.4l-.7,1a3.76,3.76,0,0,0-2.88-1.22c-1.32,0-2.14.6-2.14,1.46s1.1,1.24,2.36,1.54c1.68.38,3.62.86,3.62,3,0,1.62-1.3,2.92-3.8,2.92a5.14,5.14,0,0,1-3.9-1.52Z"/><path class="cls-4" d="M208.7,517a4.79,4.79,0,1,1,4.78,5.08A4.74,4.74,0,0,1,208.7,517Zm8,0c0-2-1.14-3.72-3.2-3.72s-3.22,1.76-3.22,3.72,1.16,3.74,3.22,3.74S216.68,519,216.68,517Z"/><path class="cls-4" d="M225.8,519.48a4.38,4.38,0,0,0,3.18,1.38c1.48,0,2.28-.66,2.28-1.6s-1.18-1.4-2.48-1.72c-1.64-.38-3.5-.82-3.5-2.82,0-1.5,1.3-2.78,3.6-2.78a4.89,4.89,0,0,1,3.58,1.4l-.7,1a3.76,3.76,0,0,0-2.88-1.22c-1.32,0-2.14.6-2.14,1.46s1.1,1.24,2.36,1.54c1.68.38,3.62.86,3.62,3,0,1.62-1.3,2.92-3.8,2.92a5.14,5.14,0,0,1-3.9-1.52Z"/><path class="cls-4" d="M241.7,515.48c0-1.7-.88-2.2-2.18-2.2a3.8,3.8,0,0,0-2.86,1.5v7.06h-1.5V508.5h1.5v5.08a4.8,4.8,0,0,1,3.46-1.64c2,0,3.08,1,3.08,3.08v6.82h-1.5Z"/><path class="cls-4" d="M252.24,520.74a4.18,4.18,0,0,1-3.2,1.34,3.22,3.22,0,0,1-3.38-3.2A3.16,3.16,0,0,1,249,515.7a4,4,0,0,1,3.2,1.32v-1.74c0-1.3-1-2-2.44-2a3.84,3.84,0,0,0-3,1.34l-.7-1a5.06,5.06,0,0,1,3.86-1.6c2,0,3.74.92,3.74,3.26v6.64h-1.5Zm0-2.76a3.23,3.23,0,0,0-2.66-1.2,2.13,2.13,0,1,0,0,4.22,3.23,3.23,0,0,0,2.66-1.2Z"/><path class="cls-4" d="M256.74,512.18h1.5v1.56a4.11,4.11,0,0,1,3.22-1.76v1.54a2.64,2.64,0,0,0-.6-.06,3.53,3.53,0,0,0-2.62,1.54v6.84h-1.5Z"/><path class="cls-4" d="M267.54,511.94c2.92,0,4.64,2.28,4.64,5.18v.38h-7.82a3.4,3.4,0,0,0,3.48,3.34,4.22,4.22,0,0,0,3-1.22l.72,1a5.25,5.25,0,0,1-3.84,1.48,5.08,5.08,0,0,1-.16-10.14Zm-3.18,4.46h6.34a3.13,3.13,0,0,0-3.18-3.22A3.22,3.22,0,0,0,264.36,516.4Z"/><path class="cls-4" d="M281.6,520.4a4.07,4.07,0,0,1-3.26,1.68c-2.52,0-4.3-1.92-4.3-5.06s1.76-5.08,4.3-5.08a4,4,0,0,1,3.26,1.7V508.5h1.5v13.34h-1.5Zm0-5.56a3.63,3.63,0,0,0-2.9-1.56c-1.94,0-3.1,1.6-3.1,3.74s1.16,3.72,3.1,3.72a3.59,3.59,0,0,0,2.9-1.52Z"/><path class="cls-4" d="M297.1,514.08l-2.52,7.76h-1.5L290,512.18h1.56l2.36,7.7,2.54-7.7h1.28l2.54,7.7,2.36-7.7h1.56l-3.08,9.66h-1.5Z"/><path class="cls-4" d="M305.68,509.54a1,1,0,0,1,2,0,1,1,0,1,1-2,0Zm.26,2.64h1.5v9.66h-1.5Z"/><path class="cls-4" d="M310.74,519.82V513.5h-1.6v-1.32h1.6v-2.64h1.5v2.64h2v1.32h-2v6c0,.72.32,1.24,1,1.24a1.45,1.45,0,0,0,1-.4l.44,1.12a2.45,2.45,0,0,1-1.8.62A2,2,0,0,1,310.74,519.82Z"/><path class="cls-4" d="M322.86,515.48c0-1.7-.88-2.2-2.18-2.2a3.8,3.8,0,0,0-2.86,1.5v7.06h-1.5V508.5h1.5v5.08a4.8,4.8,0,0,1,3.46-1.64c2,0,3.08,1,3.08,3.08v6.82h-1.5Z"/><path class="cls-4" d="M327.06,520.94a1.09,1.09,0,0,1,1.08-1.1,1.11,1.11,0,0,1,1.1,1.1,1.12,1.12,0,0,1-1.1,1.1A1.11,1.11,0,0,1,327.06,520.94Zm4.6,0a1.09,1.09,0,0,1,1.08-1.1,1.13,1.13,0,0,1,1.12,1.1,1.14,1.14,0,0,1-1.12,1.1A1.11,1.11,0,0,1,331.66,520.94Zm4.6,0a1.1,1.1,0,1,1,2.2,0,1.1,1.1,0,0,1-2.2,0Z"/></g></g><g id="So_and_so_shared_with_4" data-name="So and so shared with 4" class="cls-3"><g class="cls-3"><path class="cls-4" d="M133.66,649.7a5.64,5.64,0,0,0,4.2,1.9c2.38,0,3.14-1.28,3.14-2.3,0-1.6-1.62-2-3.38-2.52-2.14-.56-4.52-1.16-4.52-3.78,0-2.2,2-3.7,4.58-3.7a6.27,6.27,0,0,1,4.74,1.86l-1,1.22a5.1,5.1,0,0,0-3.86-1.6c-1.6,0-2.74.86-2.74,2.12s1.54,1.74,3.24,2.2c2.18.58,4.66,1.26,4.66,4.06,0,1.94-1.32,3.92-4.92,3.92a6.61,6.61,0,0,1-5.12-2.12Z"/><path class="cls-4" d="M144.58,648a4.79,4.79,0,1,1,4.78,5.08A4.74,4.74,0,0,1,144.58,648Zm8,0c0-2-1.14-3.72-3.2-3.72s-3.22,1.76-3.22,3.72,1.16,3.74,3.22,3.74S152.56,650,152.56,648Z"/><path class="cls-4" d="M167.78,651.74a4.18,4.18,0,0,1-3.2,1.34,3.22,3.22,0,0,1-3.38-3.2,3.16,3.16,0,0,1,3.38-3.18,4,4,0,0,1,3.2,1.32v-1.74c0-1.3-1-2-2.44-2a3.84,3.84,0,0,0-3,1.34l-.7-1a5.06,5.06,0,0,1,3.86-1.6c2,0,3.74.92,3.74,3.26v6.64h-1.5Zm0-2.76a3.23,3.23,0,0,0-2.66-1.2,2.13,2.13,0,1,0,0,4.22,3.23,3.23,0,0,0,2.66-1.2Z"/><path class="cls-4" d="M178.8,646.52c0-1.7-.86-2.24-2.16-2.24a3.73,3.73,0,0,0-2.86,1.5v7.06h-1.5v-9.66h1.5v1.4a4.79,4.79,0,0,1,3.44-1.64c2,0,3.08,1,3.08,3.12v6.78h-1.5Z"/><path class="cls-4" d="M190.3,651.4a4.07,4.07,0,0,1-3.26,1.68c-2.52,0-4.3-1.92-4.3-5.06s1.76-5.08,4.3-5.08a4,4,0,0,1,3.26,1.7V639.5h1.5v13.34h-1.5Zm0-5.56a3.63,3.63,0,0,0-2.9-1.56c-1.94,0-3.1,1.6-3.1,3.74s1.16,3.72,3.1,3.72a3.59,3.59,0,0,0,2.9-1.52Z"/><path class="cls-4" d="M199.9,650.48a4.38,4.38,0,0,0,3.18,1.38c1.48,0,2.28-.66,2.28-1.6s-1.18-1.4-2.48-1.72c-1.64-.38-3.5-.82-3.5-2.82,0-1.5,1.3-2.78,3.6-2.78a4.89,4.89,0,0,1,3.58,1.4l-.7,1a3.76,3.76,0,0,0-2.88-1.22c-1.32,0-2.14.6-2.14,1.46s1.1,1.24,2.36,1.54c1.68.38,3.62.86,3.62,3,0,1.62-1.3,2.92-3.8,2.92a5.14,5.14,0,0,1-3.9-1.52Z"/><path class="cls-4" d="M208.7,648a4.79,4.79,0,1,1,4.78,5.08A4.74,4.74,0,0,1,208.7,648Zm8,0c0-2-1.14-3.72-3.2-3.72s-3.22,1.76-3.22,3.72,1.16,3.74,3.22,3.74S216.68,650,216.68,648Z"/><path class="cls-4" d="M225.8,650.48a4.38,4.38,0,0,0,3.18,1.38c1.48,0,2.28-.66,2.28-1.6s-1.18-1.4-2.48-1.72c-1.64-.38-3.5-.82-3.5-2.82,0-1.5,1.3-2.78,3.6-2.78a4.89,4.89,0,0,1,3.58,1.4l-.7,1a3.76,3.76,0,0,0-2.88-1.22c-1.32,0-2.14.6-2.14,1.46s1.1,1.24,2.36,1.54c1.68.38,3.62.86,3.62,3,0,1.62-1.3,2.92-3.8,2.92a5.14,5.14,0,0,1-3.9-1.52Z"/><path class="cls-4" d="M241.7,646.48c0-1.7-.88-2.2-2.18-2.2a3.8,3.8,0,0,0-2.86,1.5v7.06h-1.5V639.5h1.5v5.08a4.8,4.8,0,0,1,3.46-1.64c2,0,3.08,1,3.08,3.08v6.82h-1.5Z"/><path class="cls-4" d="M252.24,651.74a4.18,4.18,0,0,1-3.2,1.34,3.22,3.22,0,0,1-3.38-3.2A3.16,3.16,0,0,1,249,646.7a4,4,0,0,1,3.2,1.32v-1.74c0-1.3-1-2-2.44-2a3.84,3.84,0,0,0-3,1.34l-.7-1a5.06,5.06,0,0,1,3.86-1.6c2,0,3.74.92,3.74,3.26v6.64h-1.5Zm0-2.76a3.23,3.23,0,0,0-2.66-1.2,2.13,2.13,0,1,0,0,4.22,3.23,3.23,0,0,0,2.66-1.2Z"/><path class="cls-4" d="M256.74,643.18h1.5v1.56a4.11,4.11,0,0,1,3.22-1.76v1.54a2.64,2.64,0,0,0-.6-.06,3.53,3.53,0,0,0-2.62,1.54v6.84h-1.5Z"/><path class="cls-4" d="M267.54,642.94c2.92,0,4.64,2.28,4.64,5.18v.38h-7.82a3.4,3.4,0,0,0,3.48,3.34,4.22,4.22,0,0,0,3-1.22l.72,1a5.25,5.25,0,0,1-3.84,1.48,5.08,5.08,0,0,1-.16-10.14Zm-3.18,4.46h6.34a3.13,3.13,0,0,0-3.18-3.22A3.22,3.22,0,0,0,264.36,647.4Z"/><path class="cls-4" d="M281.6,651.4a4.07,4.07,0,0,1-3.26,1.68c-2.52,0-4.3-1.92-4.3-5.06s1.76-5.08,4.3-5.08a4,4,0,0,1,3.26,1.7V639.5h1.5v13.34h-1.5Zm0-5.56a3.63,3.63,0,0,0-2.9-1.56c-1.94,0-3.1,1.6-3.1,3.74s1.16,3.72,3.1,3.72a3.59,3.59,0,0,0,2.9-1.52Z"/><path class="cls-4" d="M297.1,645.08l-2.52,7.76h-1.5L290,643.18h1.56l2.36,7.7,2.54-7.7h1.28l2.54,7.7,2.36-7.7h1.56l-3.08,9.66h-1.5Z"/><path class="cls-4" d="M305.68,640.54a1,1,0,0,1,2,0,1,1,0,1,1-2,0Zm.26,2.64h1.5v9.66h-1.5Z"/><path class="cls-4" d="M310.74,650.82V644.5h-1.6v-1.32h1.6v-2.64h1.5v2.64h2v1.32h-2v6c0,.72.32,1.24,1,1.24a1.45,1.45,0,0,0,1-.4l.44,1.12a2.45,2.45,0,0,1-1.8.62A2,2,0,0,1,310.74,650.82Z"/><path class="cls-4" d="M322.86,646.48c0-1.7-.88-2.2-2.18-2.2a3.8,3.8,0,0,0-2.86,1.5v7.06h-1.5V639.5h1.5v5.08a4.8,4.8,0,0,1,3.46-1.64c2,0,3.08,1,3.08,3.08v6.82h-1.5Z"/><path class="cls-4" d="M327.06,651.94a1.09,1.09,0,0,1,1.08-1.1,1.11,1.11,0,0,1,1.1,1.1,1.12,1.12,0,0,1-1.1,1.1A1.11,1.11,0,0,1,327.06,651.94Zm4.6,0a1.09,1.09,0,0,1,1.08-1.1,1.13,1.13,0,0,1,1.12,1.1,1.14,1.14,0,0,1-1.12,1.1A1.11,1.11,0,0,1,331.66,651.94Zm4.6,0a1.1,1.1,0,1,1,2.2,0,1.1,1.1,0,0,1-2.2,0Z"/></g></g><g id="So_and_so_shared_with_5" data-name="So and so shared with 5" class="cls-3"><g class="cls-3"><path class="cls-4" d="M133.66,780.7a5.64,5.64,0,0,0,4.2,1.9c2.38,0,3.14-1.28,3.14-2.3,0-1.6-1.62-2-3.38-2.52-2.14-.56-4.52-1.16-4.52-3.78,0-2.2,2-3.7,4.58-3.7a6.27,6.27,0,0,1,4.74,1.86l-1,1.22a5.1,5.1,0,0,0-3.86-1.6c-1.6,0-2.74.86-2.74,2.12s1.54,1.74,3.24,2.2c2.18.58,4.66,1.26,4.66,4.06,0,1.94-1.32,3.92-4.92,3.92a6.61,6.61,0,0,1-5.12-2.12Z"/><path class="cls-4" d="M144.58,779a4.79,4.79,0,1,1,4.78,5.08A4.74,4.74,0,0,1,144.58,779Zm8,0c0-2-1.14-3.72-3.2-3.72s-3.22,1.76-3.22,3.72,1.16,3.74,3.22,3.74S152.56,781,152.56,779Z"/><path class="cls-4" d="M167.78,782.74a4.18,4.18,0,0,1-3.2,1.34,3.22,3.22,0,0,1-3.38-3.2,3.16,3.16,0,0,1,3.38-3.18,4,4,0,0,1,3.2,1.32v-1.74c0-1.3-1-2-2.44-2a3.84,3.84,0,0,0-3,1.34l-.7-1a5.06,5.06,0,0,1,3.86-1.6c2,0,3.74.92,3.74,3.26v6.64h-1.5Zm0-2.76a3.23,3.23,0,0,0-2.66-1.2,2.13,2.13,0,1,0,0,4.22,3.23,3.23,0,0,0,2.66-1.2Z"/><path class="cls-4" d="M178.8,777.52c0-1.7-.86-2.24-2.16-2.24a3.73,3.73,0,0,0-2.86,1.5v7.06h-1.5v-9.66h1.5v1.4a4.79,4.79,0,0,1,3.44-1.64c2,0,3.08,1,3.08,3.12v6.78h-1.5Z"/><path class="cls-4" d="M190.3,782.4a4.07,4.07,0,0,1-3.26,1.68c-2.52,0-4.3-1.92-4.3-5.06s1.76-5.08,4.3-5.08a4,4,0,0,1,3.26,1.7V770.5h1.5v13.34h-1.5Zm0-5.56a3.63,3.63,0,0,0-2.9-1.56c-1.94,0-3.1,1.6-3.1,3.74s1.16,3.72,3.1,3.72a3.59,3.59,0,0,0,2.9-1.52Z"/><path class="cls-4" d="M199.9,781.48a4.38,4.38,0,0,0,3.18,1.38c1.48,0,2.28-.66,2.28-1.6s-1.18-1.4-2.48-1.72c-1.64-.38-3.5-.82-3.5-2.82,0-1.5,1.3-2.78,3.6-2.78a4.89,4.89,0,0,1,3.58,1.4l-.7,1a3.76,3.76,0,0,0-2.88-1.22c-1.32,0-2.14.6-2.14,1.46s1.1,1.24,2.36,1.54c1.68.38,3.62.86,3.62,3,0,1.62-1.3,2.92-3.8,2.92a5.14,5.14,0,0,1-3.9-1.52Z"/><path class="cls-4" d="M208.7,779a4.79,4.79,0,1,1,4.78,5.08A4.74,4.74,0,0,1,208.7,779Zm8,0c0-2-1.14-3.72-3.2-3.72s-3.22,1.76-3.22,3.72,1.16,3.74,3.22,3.74S216.68,781,216.68,779Z"/><path class="cls-4" d="M225.8,781.48a4.38,4.38,0,0,0,3.18,1.38c1.48,0,2.28-.66,2.28-1.6s-1.18-1.4-2.48-1.72c-1.64-.38-3.5-.82-3.5-2.82,0-1.5,1.3-2.78,3.6-2.78a4.89,4.89,0,0,1,3.58,1.4l-.7,1a3.76,3.76,0,0,0-2.88-1.22c-1.32,0-2.14.6-2.14,1.46s1.1,1.24,2.36,1.54c1.68.38,3.62.86,3.62,3,0,1.62-1.3,2.92-3.8,2.92a5.14,5.14,0,0,1-3.9-1.52Z"/><path class="cls-4" d="M241.7,777.48c0-1.7-.88-2.2-2.18-2.2a3.8,3.8,0,0,0-2.86,1.5v7.06h-1.5V770.5h1.5v5.08a4.8,4.8,0,0,1,3.46-1.64c2,0,3.08,1,3.08,3.08v6.82h-1.5Z"/><path class="cls-4" d="M252.24,782.74a4.18,4.18,0,0,1-3.2,1.34,3.22,3.22,0,0,1-3.38-3.2A3.16,3.16,0,0,1,249,777.7a4,4,0,0,1,3.2,1.32v-1.74c0-1.3-1-2-2.44-2a3.84,3.84,0,0,0-3,1.34l-.7-1a5.06,5.06,0,0,1,3.86-1.6c2,0,3.74.92,3.74,3.26v6.64h-1.5Zm0-2.76a3.23,3.23,0,0,0-2.66-1.2,2.13,2.13,0,1,0,0,4.22,3.23,3.23,0,0,0,2.66-1.2Z"/><path class="cls-4" d="M256.74,774.18h1.5v1.56a4.11,4.11,0,0,1,3.22-1.76v1.54a2.64,2.64,0,0,0-.6-.06,3.53,3.53,0,0,0-2.62,1.54v6.84h-1.5Z"/><path class="cls-4" d="M267.54,773.94c2.92,0,4.64,2.28,4.64,5.18v.38h-7.82a3.4,3.4,0,0,0,3.48,3.34,4.22,4.22,0,0,0,3-1.22l.72,1a5.25,5.25,0,0,1-3.84,1.48,5.08,5.08,0,0,1-.16-10.14Zm-3.18,4.46h6.34a3.13,3.13,0,0,0-3.18-3.22A3.22,3.22,0,0,0,264.36,778.4Z"/><path class="cls-4" d="M281.6,782.4a4.07,4.07,0,0,1-3.26,1.68c-2.52,0-4.3-1.92-4.3-5.06s1.76-5.08,4.3-5.08a4,4,0,0,1,3.26,1.7V770.5h1.5v13.34h-1.5Zm0-5.56a3.63,3.63,0,0,0-2.9-1.56c-1.94,0-3.1,1.6-3.1,3.74s1.16,3.72,3.1,3.72a3.59,3.59,0,0,0,2.9-1.52Z"/><path class="cls-4" d="M297.1,776.08l-2.52,7.76h-1.5L290,774.18h1.56l2.36,7.7,2.54-7.7h1.28l2.54,7.7,2.36-7.7h1.56l-3.08,9.66h-1.5Z"/><path class="cls-4" d="M305.68,771.54a1,1,0,0,1,2,0,1,1,0,1,1-2,0Zm.26,2.64h1.5v9.66h-1.5Z"/><path class="cls-4" d="M310.74,781.82V775.5h-1.6v-1.32h1.6v-2.64h1.5v2.64h2v1.32h-2v6c0,.72.32,1.24,1,1.24a1.45,1.45,0,0,0,1-.4l.44,1.12a2.45,2.45,0,0,1-1.8.62A2,2,0,0,1,310.74,781.82Z"/><path class="cls-4" d="M322.86,777.48c0-1.7-.88-2.2-2.18-2.2a3.8,3.8,0,0,0-2.86,1.5v7.06h-1.5V770.5h1.5v5.08a4.8,4.8,0,0,1,3.46-1.64c2,0,3.08,1,3.08,3.08v6.82h-1.5Z"/><path class="cls-4" d="M327.06,782.94a1.09,1.09,0,0,1,1.08-1.1,1.11,1.11,0,0,1,1.1,1.1,1.12,1.12,0,0,1-1.1,1.1A1.11,1.11,0,0,1,327.06,782.94Zm4.6,0a1.09,1.09,0,0,1,1.08-1.1,1.13,1.13,0,0,1,1.12,1.1,1.14,1.14,0,0,1-1.12,1.1A1.11,1.11,0,0,1,331.66,782.94Zm4.6,0a1.1,1.1,0,1,1,2.2,0,1.1,1.1,0,1,1-2.2,0Z"/></g></g><g id="Apr_15_2019" data-name="Apr 15 2019" class="cls-3"><g class="cls-3"><path class="cls-4" d="M44.88,213.88H38.12l-1.18,3H35.1l5.36-13.34h2.06l5.38,13.34H46.06ZM38.6,212.4h5.78L41.5,205Z"/><path class="cls-4" d="M49.58,220.52V207.18h1.5v1.44a4,4,0,0,1,3.26-1.68c2.54,0,4.3,1.92,4.3,5.06s-1.76,5.08-4.3,5.08a4,4,0,0,1-3.26-1.7v5.14ZM54,208.28a3.57,3.57,0,0,0-2.88,1.54v4.36A3.59,3.59,0,0,0,54,215.74c1.94,0,3.1-1.6,3.1-3.74S55.9,208.28,54,208.28Z"/><path class="cls-4" d="M61.06,207.18h1.5v1.56A4.11,4.11,0,0,1,65.78,207v1.54a2.64,2.64,0,0,0-.6-.06A3.53,3.53,0,0,0,62.56,210v6.84h-1.5Z"/><path class="cls-4" d="M74.88,205.7,72.74,208l-1-1,3.34-3.44h1.46v13.34H74.88Z"/><path class="cls-4" d="M80.44,213.84a4.39,4.39,0,0,0,3.68,1.76,2.88,2.88,0,0,0,3.08-2.86,2.81,2.81,0,0,0-3.06-2.88,4.18,4.18,0,0,0-3.08,1.26l-1.22-.42v-7.2H88V205H81.5v4.64a4.51,4.51,0,0,1,3.12-1.2,4.09,4.09,0,0,1,4.24,4.26c0,2.72-2.06,4.4-4.74,4.4a5.45,5.45,0,0,1-4.7-2.14Z"/><path class="cls-4" d="M91,218.76a3,3,0,0,0,1.3-1.86.93.93,0,0,1-.28,0,1,1,0,0,1-1-1,1.07,1.07,0,0,1,1.06-1.08,1.36,1.36,0,0,1,1.26,1.52,3.86,3.86,0,0,1-1.64,3Z"/><path class="cls-4" d="M100.74,215.52c4.8-3.78,7.4-6,7.4-8.3a2.49,2.49,0,0,0-2.78-2.44,4.46,4.46,0,0,0-3.62,1.68l-1-1.06a5.78,5.78,0,0,1,4.64-2.1c2.22,0,4.48,1.26,4.48,3.92s-2.76,5.2-6.48,8.14h6.54v1.48h-9.16Z"/><path class="cls-4" d="M117.54,203.3c3.64,0,5.1,3.62,5.1,6.88s-1.46,6.9-5.1,6.9-5.1-3.66-5.1-6.9S113.88,203.3,117.54,203.3Zm0,1.48c-2.54,0-3.4,2.74-3.4,5.4s.86,5.42,3.4,5.42,3.4-2.76,3.4-5.42S120.08,204.78,117.54,204.78Z"/><path class="cls-4" d="M127.22,205.7,125.08,208l-1-1,3.34-3.44h1.46v13.34h-1.66Z"/><path class="cls-4" d="M133,214.22a3.45,3.45,0,0,0,2.86,1.36c2.7,0,3.76-2.7,3.76-5.22a4.87,4.87,0,0,0,0-.54,4.79,4.79,0,0,1-3.76,2.08,4,4,0,0,1-4.38-4.26,4.38,4.38,0,0,1,4.66-4.36c3.74,0,5.16,3.26,5.16,6.9s-1.68,6.88-5.42,6.88a4.64,4.64,0,0,1-3.7-1.6Zm3.2-9.46a2.91,2.91,0,0,0-3.06,2.82,2.76,2.76,0,0,0,3.08,2.88,4,4,0,0,0,3.32-2C139.36,206.82,138.48,204.76,136.16,204.76Z"/></g></g><g id="Apr_12_2019" data-name="Apr 12 2019" class="cls-3"><g class="cls-3"><path class="cls-4" d="M44.88,344.88H38.12l-1.18,3H35.1l5.36-13.34h2.06l5.38,13.34H46.06ZM38.6,343.4h5.78L41.5,336Z"/><path class="cls-4" d="M49.58,351.52V338.18h1.5v1.44a4,4,0,0,1,3.26-1.68c2.54,0,4.3,1.92,4.3,5.06s-1.76,5.08-4.3,5.08a4,4,0,0,1-3.26-1.7v5.14ZM54,339.28a3.57,3.57,0,0,0-2.88,1.54v4.36A3.59,3.59,0,0,0,54,346.74c1.94,0,3.1-1.6,3.1-3.74S55.9,339.28,54,339.28Z"/><path class="cls-4" d="M61.06,338.18h1.5v1.56A4.11,4.11,0,0,1,65.78,338v1.54a2.64,2.64,0,0,0-.6-.06A3.53,3.53,0,0,0,62.56,341v6.84h-1.5Z"/><path class="cls-4" d="M74.88,336.7,72.74,339l-1-1,3.34-3.44h1.46v13.34H74.88Z"/><path class="cls-4" d="M79.18,346.52c4.8-3.78,7.4-6,7.4-8.3a2.49,2.49,0,0,0-2.78-2.44,4.46,4.46,0,0,0-3.62,1.68l-1-1.06a5.78,5.78,0,0,1,4.64-2.1c2.22,0,4.48,1.26,4.48,3.92s-2.76,5.2-6.48,8.14h6.54v1.48H79.18Z"/><path class="cls-4" d="M91,349.76a3,3,0,0,0,1.3-1.86.93.93,0,0,1-.28,0,1,1,0,0,1-1-1,1.07,1.07,0,0,1,1.06-1.08,1.36,1.36,0,0,1,1.26,1.52,3.86,3.86,0,0,1-1.64,3Z"/><path class="cls-4" d="M100.7,346.52c4.8-3.78,7.4-6,7.4-8.3a2.49,2.49,0,0,0-2.78-2.44,4.46,4.46,0,0,0-3.62,1.68l-1-1.06a5.78,5.78,0,0,1,4.64-2.1c2.22,0,4.48,1.26,4.48,3.92s-2.76,5.2-6.48,8.14h6.54v1.48H100.7Z"/><path class="cls-4" d="M117.5,334.3c3.64,0,5.1,3.62,5.1,6.88s-1.46,6.9-5.1,6.9-5.1-3.66-5.1-6.9S113.84,334.3,117.5,334.3Zm0,1.48c-2.54,0-3.4,2.74-3.4,5.4s.86,5.42,3.4,5.42,3.4-2.76,3.4-5.42S120,335.78,117.5,335.78Z"/><path class="cls-4" d="M127.18,336.7,125,339l-1-1,3.34-3.44h1.46v13.34h-1.66Z"/><path class="cls-4" d="M132.92,345.22a3.45,3.45,0,0,0,2.86,1.36c2.7,0,3.76-2.7,3.76-5.22a4.87,4.87,0,0,0,0-.54,4.79,4.79,0,0,1-3.76,2.08,4,4,0,0,1-4.38-4.26,4.38,4.38,0,0,1,4.66-4.36c3.74,0,5.16,3.26,5.16,6.9s-1.68,6.88-5.42,6.88a4.64,4.64,0,0,1-3.7-1.6Zm3.2-9.46a2.91,2.91,0,0,0-3.06,2.82,2.76,2.76,0,0,0,3.08,2.88,4,4,0,0,0,3.32-2C139.32,337.82,138.44,335.76,136.12,335.76Z"/></g></g><g id="Apr_10_2019" data-name="Apr 10 2019" class="cls-3"><g class="cls-3"><path class="cls-4" d="M44.88,475.88H38.12l-1.18,3H35.1l5.36-13.34h2.06l5.38,13.34H46.06ZM38.6,474.4h5.78L41.5,467Z"/><path class="cls-4" d="M49.58,482.52V469.18h1.5v1.44a4,4,0,0,1,3.26-1.68c2.54,0,4.3,1.92,4.3,5.06s-1.76,5.08-4.3,5.08a4,4,0,0,1-3.26-1.7v5.14ZM54,470.28a3.57,3.57,0,0,0-2.88,1.54v4.36A3.59,3.59,0,0,0,54,477.74c1.94,0,3.1-1.6,3.1-3.74S55.9,470.28,54,470.28Z"/><path class="cls-4" d="M61.06,469.18h1.5v1.56A4.11,4.11,0,0,1,65.78,469v1.54a2.64,2.64,0,0,0-.6-.06A3.53,3.53,0,0,0,62.56,472v6.84h-1.5Z"/><path class="cls-4" d="M74.88,467.7,72.74,470l-1-1,3.34-3.44h1.46v13.34H74.88Z"/><path class="cls-4" d="M84.22,465.3c3.64,0,5.1,3.62,5.1,6.88s-1.46,6.9-5.1,6.9-5.1-3.66-5.1-6.9S80.56,465.3,84.22,465.3Zm0,1.48c-2.54,0-3.4,2.74-3.4,5.4s.86,5.42,3.4,5.42,3.4-2.76,3.4-5.42S86.76,466.78,84.22,466.78Z"/><path class="cls-4" d="M90.86,480.76a3,3,0,0,0,1.3-1.86.93.93,0,0,1-.28,0,1,1,0,0,1-1-1A1.07,1.07,0,0,1,92,476.84a1.36,1.36,0,0,1,1.26,1.52,3.86,3.86,0,0,1-1.64,3Z"/><path class="cls-4" d="M100.56,477.52c4.8-3.78,7.4-6,7.4-8.3a2.49,2.49,0,0,0-2.78-2.44,4.46,4.46,0,0,0-3.62,1.68l-1-1.06a5.78,5.78,0,0,1,4.64-2.1c2.22,0,4.48,1.26,4.48,3.92s-2.76,5.2-6.48,8.14h6.54v1.48h-9.16Z"/><path class="cls-4" d="M117.36,465.3c3.64,0,5.1,3.62,5.1,6.88s-1.46,6.9-5.1,6.9-5.1-3.66-5.1-6.9S113.7,465.3,117.36,465.3Zm0,1.48c-2.54,0-3.4,2.74-3.4,5.4s.86,5.42,3.4,5.42,3.4-2.76,3.4-5.42S119.9,466.78,117.36,466.78Z"/><path class="cls-4" d="M127,467.7,124.9,470l-1-1,3.34-3.44h1.46v13.34H127Z"/><path class="cls-4" d="M132.78,476.22a3.45,3.45,0,0,0,2.86,1.36c2.7,0,3.76-2.7,3.76-5.22a4.87,4.87,0,0,0,0-.54,4.79,4.79,0,0,1-3.76,2.08,4,4,0,0,1-4.38-4.26,4.38,4.38,0,0,1,4.66-4.36c3.74,0,5.16,3.26,5.16,6.9s-1.68,6.88-5.42,6.88a4.64,4.64,0,0,1-3.7-1.6Zm3.2-9.46a2.91,2.91,0,0,0-3.06,2.82,2.76,2.76,0,0,0,3.08,2.88,4,4,0,0,0,3.32-2C139.18,468.82,138.3,466.76,136,466.76Z"/></g></g><g id="Apr_8_2019" data-name="Apr 8 2019" class="cls-3"><g class="cls-3"><path class="cls-4" d="M44.88,606.88H38.12l-1.18,3H35.1l5.36-13.34h2.06l5.38,13.34H46.06ZM38.6,605.4h5.78L41.5,598Z"/><path class="cls-4" d="M49.58,613.52V600.18h1.5v1.44a4,4,0,0,1,3.26-1.68c2.54,0,4.3,1.92,4.3,5.06s-1.76,5.08-4.3,5.08a4,4,0,0,1-3.26-1.7v5.14ZM54,601.28a3.57,3.57,0,0,0-2.88,1.54v4.36A3.59,3.59,0,0,0,54,608.74c1.94,0,3.1-1.6,3.1-3.74S55.9,601.28,54,601.28Z"/><path class="cls-4" d="M61.06,600.18h1.5v1.56A4.11,4.11,0,0,1,65.78,600v1.54a2.64,2.64,0,0,0-.6-.06A3.53,3.53,0,0,0,62.56,603v6.84h-1.5Z"/><path class="cls-4" d="M75.54,603c-1.54-.44-3-1.44-3-3.2,0-2.4,2.34-3.46,4.56-3.46s4.58,1.06,4.58,3.46c0,1.76-1.44,2.76-3,3.2,1.66.5,3.18,1.72,3.18,3.5,0,2.26-2.16,3.62-4.78,3.62s-4.78-1.34-4.78-3.62C72.36,604.68,73.88,603.46,75.54,603Zm1.6.74c-.82.1-3.12.84-3.12,2.58,0,1.44,1.46,2.32,3.12,2.32s3.1-.88,3.1-2.32C80.24,604.54,78,603.8,77.14,603.7Zm0-5.92c-1.62,0-2.9.82-2.9,2.2,0,1.62,2.1,2.16,2.9,2.3.82-.14,2.9-.68,2.9-2.3C80,598.6,78.74,597.78,77.14,597.78Z"/><path class="cls-4" d="M84.08,611.76a3,3,0,0,0,1.3-1.86.93.93,0,0,1-.28,0,1,1,0,0,1-1-1,1.07,1.07,0,0,1,1.06-1.08,1.36,1.36,0,0,1,1.26,1.52,3.86,3.86,0,0,1-1.64,3Z"/><path class="cls-4" d="M93.78,608.52c4.8-3.78,7.4-6,7.4-8.3a2.49,2.49,0,0,0-2.78-2.44,4.46,4.46,0,0,0-3.62,1.68l-1-1.06a5.78,5.78,0,0,1,4.64-2.1c2.22,0,4.48,1.26,4.48,3.92s-2.76,5.2-6.48,8.14h6.54v1.48H93.78Z"/><path class="cls-4" d="M110.58,596.3c3.64,0,5.1,3.62,5.1,6.88s-1.46,6.9-5.1,6.9-5.1-3.66-5.1-6.9S106.92,596.3,110.58,596.3Zm0,1.48c-2.54,0-3.4,2.74-3.4,5.4s.86,5.42,3.4,5.42,3.4-2.76,3.4-5.42S113.12,597.78,110.58,597.78Z"/><path class="cls-4" d="M120.26,598.7,118.12,601l-1-1,3.34-3.44h1.46v13.34h-1.66Z"/><path class="cls-4" d="M126,607.22a3.45,3.45,0,0,0,2.86,1.36c2.7,0,3.76-2.7,3.76-5.22a4.87,4.87,0,0,0,0-.54,4.79,4.79,0,0,1-3.76,2.08,4,4,0,0,1-4.38-4.26,4.38,4.38,0,0,1,4.66-4.36c3.74,0,5.16,3.26,5.16,6.9s-1.68,6.88-5.42,6.88a4.64,4.64,0,0,1-3.7-1.6Zm3.2-9.46a2.91,2.91,0,0,0-3.06,2.82,2.76,2.76,0,0,0,3.08,2.88,4,4,0,0,0,3.32-2C132.4,599.82,131.52,597.76,129.2,597.76Z"/></g></g><g id="Apr_3_2019" data-name="Apr 3 2019" class="cls-3"><g class="cls-3"><path class="cls-4" d="M44.88,737.88H38.12l-1.18,3H35.1l5.36-13.34h2.06l5.38,13.34H46.06ZM38.6,736.4h5.78L41.5,729Z"/><path class="cls-4" d="M49.58,744.52V731.18h1.5v1.44a4,4,0,0,1,3.26-1.68c2.54,0,4.3,1.92,4.3,5.06s-1.76,5.08-4.3,5.08a4,4,0,0,1-3.26-1.7v5.14ZM54,732.28a3.57,3.57,0,0,0-2.88,1.54v4.36A3.59,3.59,0,0,0,54,739.74c1.94,0,3.1-1.6,3.1-3.74S55.9,732.28,54,732.28Z"/><path class="cls-4" d="M61.06,731.18h1.5v1.56A4.11,4.11,0,0,1,65.78,731v1.54a2.64,2.64,0,0,0-.6-.06A3.53,3.53,0,0,0,62.56,734v6.84h-1.5Z"/><path class="cls-4" d="M72.88,737.84a4.63,4.63,0,0,0,3.72,1.76c1.94,0,3.12-1,3.12-2.5s-1.36-2.36-3.32-2.36c-.56,0-1.18,0-1.38,0v-1.52c.22,0,.84,0,1.38,0,1.68,0,3.1-.66,3.1-2.2s-1.36-2.28-3-2.28A4.52,4.52,0,0,0,73,730.4l-.92-1a5.78,5.78,0,0,1,4.56-2.06c2.56,0,4.52,1.3,4.52,3.56a3.25,3.25,0,0,1-2.88,3.1,3.35,3.35,0,0,1,3.08,3.28c0,2.22-1.78,3.84-4.72,3.84a5.63,5.63,0,0,1-4.74-2.2Z"/><path class="cls-4" d="M83.6,742.76a3,3,0,0,0,1.3-1.86.93.93,0,0,1-.28,0,1,1,0,0,1-1-1,1.07,1.07,0,0,1,1.06-1.08A1.36,1.36,0,0,1,86,740.36a3.86,3.86,0,0,1-1.64,3Z"/><path class="cls-4" d="M93.3,739.52c4.8-3.78,7.4-6,7.4-8.3a2.49,2.49,0,0,0-2.78-2.44,4.46,4.46,0,0,0-3.62,1.68l-1-1.06a5.78,5.78,0,0,1,4.64-2.1c2.22,0,4.48,1.26,4.48,3.92s-2.76,5.2-6.48,8.14h6.54v1.48H93.3Z"/><path class="cls-4" d="M110.1,727.3c3.64,0,5.1,3.62,5.1,6.88s-1.46,6.9-5.1,6.9-5.1-3.66-5.1-6.9S106.44,727.3,110.1,727.3Zm0,1.48c-2.54,0-3.4,2.74-3.4,5.4s.86,5.42,3.4,5.42,3.4-2.76,3.4-5.42S112.64,728.78,110.1,728.78Z"/><path class="cls-4" d="M119.78,729.7,117.64,732l-1-1L120,727.5h1.46v13.34h-1.66Z"/><path class="cls-4" d="M125.52,738.22a3.45,3.45,0,0,0,2.86,1.36c2.7,0,3.76-2.7,3.76-5.22a4.87,4.87,0,0,0,0-.54,4.79,4.79,0,0,1-3.76,2.08,4,4,0,0,1-4.38-4.26,4.38,4.38,0,0,1,4.66-4.36c3.74,0,5.16,3.26,5.16,6.9s-1.68,6.88-5.42,6.88a4.64,4.64,0,0,1-3.7-1.6Zm3.2-9.46a2.91,2.91,0,0,0-3.06,2.82,2.76,2.76,0,0,0,3.08,2.88,4,4,0,0,0,3.32-2C131.92,730.82,131,728.76,128.72,728.76Z"/></g></g></g></svg>