<svg id="Layer_1" data-name="Layer 1" xmlns="http://www.w3.org/2000/svg" viewBox="0 0 1511 1504.08"><defs><style>.cls-1{fill:#edf4fe;}.cls-2{fill:none;stroke:#707070;}.cls-3{isolation:isolate;}.cls-4{fill:#707070;}.cls-5{fill:#fff;}.cls-6{fill:#c6deff;}.cls-7{fill:#111;}</style></defs><title>feature-acc</title><g id="Group_473" data-name="Group 473"><g id="Group_469" data-name="Group 469"><g id="Rectangle_77" data-name="Rectangle 77"><rect class="cls-1" x="37.5" y="37.08" width="879" height="1292" rx="10"/><rect class="cls-2" x="38" y="37.58" width="878" height="1291" rx="9.5"/></g><g id="UX_UI_Design" data-name="UX UI Design" class="cls-3"><g class="cls-3"><path class="cls-4" d="M359.08,76h5.62V91.5c0,3.63,2,6.13,6.06,6.13s6-2.5,6-6.13V76h5.62V91.65c0,6.49-3.71,10.9-11.6,10.9s-11.68-4.45-11.68-10.86Z"/><path class="cls-4" d="M398,92.55l-6.56,9.53h-6.6l9.45-13.36L385.41,76H392l6,8.9,5.9-8.9h6.68l-8.87,12.65,9.46,13.4h-6.64Z"/><path class="cls-4" d="M420.29,75.25h3.59l-9.26,27.61H411Z"/><path class="cls-4" d="M426.46,76h5.62V91.5c0,3.63,2,6.13,6.06,6.13s6-2.5,6-6.13V76h5.63V91.65c0,6.49-3.71,10.9-11.6,10.9s-11.68-4.45-11.68-10.86Z"/><path class="cls-4" d="M454.89,76h5.55v26.05h-5.55Z"/><path class="cls-4" d="M475.59,76h10.28c8.16,0,13.83,5.19,13.83,13s-5.67,13-13.83,13H475.59ZM485.87,97.2A7.8,7.8,0,0,0,494,89.07c0-4.61-2.81-8.16-8.16-8.16h-4.73V97.2Z"/><path class="cls-4" d="M512.08,82.75c5.62,0,9.45,4.21,9.45,10.39v1.09h-14c.31,2.38,2.22,4.37,5.43,4.37a7.71,7.71,0,0,0,5-1.87l2.19,3.2a11.74,11.74,0,0,1-7.77,2.62c-5.74,0-10.08-3.87-10.08-9.92A9.6,9.6,0,0,1,512.08,82.75Zm-4.65,8.12h9.29a4.36,4.36,0,0,0-4.64-4.18A4.53,4.53,0,0,0,507.43,90.87Z"/><path class="cls-4" d="M525.63,96.14a10.8,10.8,0,0,0,6.52,2.58c2.15,0,3.17-.74,3.17-1.91,0-1.33-1.64-1.8-3.79-2.23-3.24-.62-7.42-1.4-7.42-5.9,0-3.16,2.77-5.93,7.73-5.93a12.1,12.1,0,0,1,7.62,2.57l-2,3.4a8,8,0,0,0-5.58-2.19c-1.8,0-3,.67-3,1.76s1.48,1.6,3.59,2c3.25.63,7.58,1.49,7.58,6.18,0,3.43-2.93,6-8.16,6a12.68,12.68,0,0,1-8.44-2.93Z"/><path class="cls-4" d="M543.25,77.47a3,3,0,1,1,3,3A3,3,0,0,1,543.25,77.47Zm.5,5.74h5v18.87h-5Z"/><path class="cls-4" d="M555.47,103.33a7.5,7.5,0,0,0,5.9,2.35c2.38,0,5.19-1.06,5.19-4.77V99a7.34,7.34,0,0,1-5.82,3c-4.72,0-8.32-3.32-8.32-9.61s3.56-9.6,8.32-9.6a7.24,7.24,0,0,1,5.82,2.89V83.21h5v17.58c0,7.19-5.54,8.95-10.19,8.95a11.46,11.46,0,0,1-8.13-2.81Zm11.09-14a5.37,5.37,0,0,0-4.25-2.15c-2.82,0-4.77,2-4.77,5.19s2,5.2,4.77,5.2a5.48,5.48,0,0,0,4.25-2.15Z"/><path class="cls-4" d="M589.22,90.68c0-2.62-1.37-3.52-3.48-3.52a5.37,5.37,0,0,0-4.3,2.23v12.69h-5V83.21h5v2.47a8.65,8.65,0,0,1,6.61-2.93c4.14,0,6.13,2.34,6.13,6v13.32h-5Z"/></g></g><g id="Team_Leads" data-name="Team Leads" class="cls-3"><g class="cls-3"><path class="cls-4" d="M85,153.53H80.13v-3.12H93.42v3.12H88.57v13.55H85Z"/><path class="cls-4" d="M98.65,154.71c3.6,0,6,2.7,6,6.65v.7h-9a3.26,3.26,0,0,0,3.48,2.8,4.92,4.92,0,0,0,3.22-1.2l1.4,2.05a7.52,7.52,0,0,1-5,1.67,6.34,6.34,0,1,1-.2-12.67Zm-3,5.2h6a2.79,2.79,0,0,0-3-2.68A2.91,2.91,0,0,0,95.67,159.91Z"/><path class="cls-4" d="M114.25,165.83a5,5,0,0,1-3.83,1.55,4,4,0,0,1-4.19-4c0-2.82,2.27-3.85,4.19-3.85a4.88,4.88,0,0,1,3.83,1.48v-1.68c0-1.22-1-2-2.65-2a5.05,5.05,0,0,0-3.52,1.42l-1.2-2.12a7.9,7.9,0,0,1,5.27-1.9c2.75,0,5.27,1.1,5.27,4.57v7.8h-3.17Zm0-3.15a3.19,3.19,0,0,0-2.55-1.05c-1.25,0-2.28.65-2.28,1.83s1,1.77,2.28,1.77a3.19,3.19,0,0,0,2.55-1Z"/><path class="cls-4" d="M135.55,159.46c0-1.13-.5-1.93-1.8-1.93a3.2,3.2,0,0,0-2.5,1.4v8.15h-3.2v-7.62c0-1.13-.5-1.93-1.8-1.93a3.22,3.22,0,0,0-2.5,1.43v8.12h-3.17V155h3.17v1.57a5.3,5.3,0,0,1,4-1.87,3.19,3.19,0,0,1,3.35,2.2,5.12,5.12,0,0,1,4.15-2.2c2.22,0,3.55,1.17,3.55,3.65v8.72h-3.2Z"/><path class="cls-4" d="M148.35,150.41h3.55V164h7v3.12h-10.6Z"/><path class="cls-4" d="M166.55,154.71c3.6,0,6,2.7,6,6.65v.7h-9a3.26,3.26,0,0,0,3.48,2.8,4.92,4.92,0,0,0,3.22-1.2l1.4,2.05a7.52,7.52,0,0,1-5,1.67,6.34,6.34,0,1,1-.2-12.67Zm-3,5.2h5.94a2.79,2.79,0,0,0-3-2.68A2.89,2.89,0,0,0,163.58,159.91Z"/><path class="cls-4" d="M182.15,165.83a5,5,0,0,1-3.83,1.55,4,4,0,0,1-4.19-4c0-2.82,2.27-3.85,4.19-3.85a4.88,4.88,0,0,1,3.83,1.48v-1.68c0-1.22-1.05-2-2.65-2a5.1,5.1,0,0,0-3.53,1.42l-1.2-2.12a7.94,7.94,0,0,1,5.28-1.9c2.75,0,5.27,1.1,5.27,4.57v7.8h-3.17Zm0-3.15a3.19,3.19,0,0,0-2.55-1.05c-1.25,0-2.28.65-2.28,1.83s1,1.77,2.28,1.77a3.19,3.19,0,0,0,2.55-1Z"/><path class="cls-4" d="M196.77,165.53a4.68,4.68,0,0,1-3.72,1.85c-3.05,0-5.35-2.3-5.35-6.32s2.27-6.35,5.35-6.35a4.63,4.63,0,0,1,3.72,1.85v-6.15H200v16.67h-3.2Zm0-6.62a3.44,3.44,0,0,0-2.75-1.38c-1.8,0-3.05,1.43-3.05,3.53s1.25,3.5,3.05,3.5a3.44,3.44,0,0,0,2.75-1.38Z"/><path class="cls-4" d="M203.45,163.28a6.88,6.88,0,0,0,4.17,1.65c1.38,0,2-.47,2-1.22s-1.05-1.15-2.43-1.43c-2.07-.4-4.74-.9-4.74-3.77,0-2,1.77-3.8,4.94-3.8a7.73,7.73,0,0,1,4.88,1.65L211,158.53a5.1,5.1,0,0,0-3.57-1.4c-1.15,0-1.9.43-1.9,1.13s.95,1,2.3,1.3c2.07.4,4.85.95,4.85,3.95,0,2.2-1.88,3.87-5.23,3.87a8.11,8.11,0,0,1-5.39-1.87Z"/></g></g><g id="Companies" class="cls-3"><g class="cls-3"><path class="cls-4" d="M80.35,404.76a8.44,8.44,0,0,1,8.75-8.62,7.71,7.71,0,0,1,7.1,4.07l-3,1.5a4.57,4.57,0,0,0-4.05-2.43,5.49,5.49,0,0,0,0,11,4.53,4.53,0,0,0,4.05-2.42l3,1.47a7.73,7.73,0,0,1-7.1,4.1A8.44,8.44,0,0,1,80.35,404.76Z"/><path class="cls-4" d="M97.48,407a6.39,6.39,0,1,1,6.37,6.35A6.11,6.11,0,0,1,97.48,407Zm9.47,0c0-1.87-1.13-3.5-3.1-3.5s-3.08,1.63-3.08,3.5,1.1,3.53,3.08,3.53S107,408.93,107,407Z"/><path class="cls-4" d="M127.57,405.46c0-1.13-.5-1.93-1.8-1.93a3.21,3.21,0,0,0-2.5,1.4v8.15h-3.2v-7.62c0-1.13-.5-1.93-1.8-1.93a3.24,3.24,0,0,0-2.5,1.43v8.12H112.6V401h3.17v1.57a5.3,5.3,0,0,1,4-1.87,3.19,3.19,0,0,1,3.35,2.2,5.12,5.12,0,0,1,4.15-2.2c2.23,0,3.55,1.17,3.55,3.65v8.72h-3.2Z"/><path class="cls-4" d="M133.9,417.68V401h3.17v1.52a4.68,4.68,0,0,1,3.73-1.82c3.1,0,5.35,2.3,5.35,6.32s-2.25,6.35-5.35,6.35a4.62,4.62,0,0,1-3.73-1.85v6.15Zm5.9-14.15a3.56,3.56,0,0,0-2.73,1.38v4.27a3.65,3.65,0,0,0,2.73,1.38c1.82,0,3-1.43,3-3.53S141.62,403.53,139.8,403.53Z"/><path class="cls-4" d="M155.77,411.83a5,5,0,0,1-3.82,1.55,4,4,0,0,1-4.2-4c0-2.82,2.27-3.85,4.2-3.85a4.85,4.85,0,0,1,3.82,1.48v-1.68c0-1.22-1.05-2-2.65-2a5.05,5.05,0,0,0-3.52,1.42l-1.2-2.12a7.9,7.9,0,0,1,5.27-1.9c2.75,0,5.28,1.1,5.28,4.57v7.8h-3.18Zm0-3.15a3.16,3.16,0,0,0-2.55-1.05c-1.25,0-2.27.65-2.27,1.83s1,1.77,2.27,1.77a3.16,3.16,0,0,0,2.55-1.05Z"/><path class="cls-4" d="M170.25,405.78a2,2,0,0,0-2.23-2.25,3.44,3.44,0,0,0-2.75,1.43v8.12H162.1V401h3.17v1.57a5.56,5.56,0,0,1,4.23-1.87c2.65,0,3.92,1.5,3.92,3.85v8.52h-3.17Z"/><path class="cls-4" d="M176.25,397.34a1.9,1.9,0,0,1,3.8,0,1.9,1.9,0,0,1-3.8,0Zm.33,3.67h3.17v12.07h-3.17Z"/><path class="cls-4" d="M188.37,400.71c3.6,0,6,2.7,6,6.65v.7h-9a3.25,3.25,0,0,0,3.47,2.8,5,5,0,0,0,3.23-1.2l1.4,2a7.53,7.53,0,0,1-5,1.67,6.34,6.34,0,1,1-.2-12.67Zm-3,5.2h5.95a2.81,2.81,0,0,0-3-2.68A2.9,2.9,0,0,0,185.4,405.91Z"/><path class="cls-4" d="M197.05,409.28a6.85,6.85,0,0,0,4.17,1.65c1.38,0,2-.47,2-1.22s-1.05-1.15-2.43-1.43c-2.07-.4-4.75-.9-4.75-3.77,0-2,1.78-3.8,5-3.8a7.73,7.73,0,0,1,4.88,1.65l-1.28,2.17a5.1,5.1,0,0,0-3.57-1.4c-1.15,0-1.9.43-1.9,1.13s.95,1,2.3,1.3c2.07.4,4.85.95,4.85,3.95,0,2.2-1.88,3.87-5.23,3.87a8.16,8.16,0,0,1-5.4-1.87Z"/></g></g><g id="Members" class="cls-3"><g class="cls-3"><path class="cls-4" d="M95.65,647.08l-4.7,12H89.4l-4.7-12v12H81.15V642.41h5l4,10.4,4-10.4h5v16.67H95.65Z"/><path class="cls-4" d="M107.92,646.71c3.6,0,6,2.7,6,6.65v.7h-9a3.25,3.25,0,0,0,3.47,2.8,5,5,0,0,0,3.23-1.2l1.4,2.05a7.53,7.53,0,0,1-5,1.67,6.34,6.34,0,1,1-.2-12.67Zm-3,5.2h6a2.81,2.81,0,0,0-3-2.68A2.9,2.9,0,0,0,105,651.91Z"/><path class="cls-4" d="M131.25,651.46c0-1.13-.5-1.93-1.8-1.93a3.2,3.2,0,0,0-2.5,1.4v8.15h-3.2v-7.62c0-1.13-.5-1.93-1.8-1.93a3.22,3.22,0,0,0-2.5,1.43v8.12h-3.17V647h3.17v1.57a5.3,5.3,0,0,1,4-1.87,3.19,3.19,0,0,1,3.35,2.2,5.12,5.12,0,0,1,4.15-2.2c2.22,0,3.55,1.17,3.55,3.65v8.72h-3.2Z"/><path class="cls-4" d="M137.58,642.41h3.17v6.15a4.63,4.63,0,0,1,3.72-1.85c3.08,0,5.35,2.4,5.35,6.35s-2.3,6.32-5.35,6.32a4.68,4.68,0,0,1-3.72-1.85v1.55h-3.17Zm5.89,14.15c1.85,0,3.08-1.4,3.08-3.5s-1.23-3.53-3.08-3.53a3.49,3.49,0,0,0-2.72,1.4v4.28A3.54,3.54,0,0,0,143.47,656.56Z"/><path class="cls-4" d="M157.7,646.71c3.6,0,6.05,2.7,6.05,6.65v.7h-9a3.26,3.26,0,0,0,3.48,2.8,4.92,4.92,0,0,0,3.22-1.2l1.4,2.05a7.52,7.52,0,0,1-5,1.67,6.34,6.34,0,1,1-.2-12.67Zm-3,5.2h5.95a2.79,2.79,0,0,0-3-2.68A2.91,2.91,0,0,0,154.72,651.91Z"/><path class="cls-4" d="M166.05,647h3.17v1.65a5.15,5.15,0,0,1,3.85-1.93v3.1a3.93,3.93,0,0,0-.87-.1,4.05,4.05,0,0,0-3,1.38v8h-3.17Z"/><path class="cls-4" d="M175.37,655.28a6.91,6.91,0,0,0,4.18,1.65c1.37,0,2-.47,2-1.22s-1-1.15-2.42-1.43c-2.08-.4-4.75-.9-4.75-3.77,0-2,1.77-3.8,4.95-3.8a7.7,7.7,0,0,1,4.87,1.65L183,650.53a5.13,5.13,0,0,0-3.58-1.4c-1.15,0-1.9.43-1.9,1.13s.95,1,2.3,1.3c2.08.4,4.85,1,4.85,4,0,2.2-1.87,3.87-5.22,3.87a8.14,8.14,0,0,1-5.4-1.87Z"/></g></g><g id="Accessibility" class="cls-3"><g class="cls-3"><path class="cls-4" d="M91.77,981.21H84.33l-1.06,2.87H79.38l6.44-16.67h4.45l6.43,16.67H92.82Zm-6.5-3.08H90.8l-2.75-7.65Z"/><path class="cls-4" d="M103.8,971.71a5.61,5.61,0,0,1,4.77,2.17l-2.07,2a2.93,2.93,0,0,0-2.55-1.3,3.52,3.52,0,0,0,0,7,3.05,3.05,0,0,0,2.55-1.3l2.07,1.92a5.55,5.55,0,0,1-4.77,2.2,6.34,6.34,0,1,1,0-12.67Z"/><path class="cls-4" d="M116.27,971.71a5.62,5.62,0,0,1,4.78,2.17l-2.08,2a2.92,2.92,0,0,0-2.55-1.3,3.52,3.52,0,0,0,0,7,3,3,0,0,0,2.55-1.3l2.08,1.92a5.56,5.56,0,0,1-4.78,2.2,6.34,6.34,0,1,1,0-12.67Z"/><path class="cls-4" d="M128.6,971.71c3.6,0,6.05,2.7,6.05,6.65v.7h-9a3.26,3.26,0,0,0,3.48,2.8,4.92,4.92,0,0,0,3.22-1.2l1.4,2.05a7.52,7.52,0,0,1-5,1.67,6.34,6.34,0,1,1-.2-12.67Zm-3,5.2h5.95a2.79,2.79,0,0,0-3-2.68A2.91,2.91,0,0,0,125.62,976.91Z"/><path class="cls-4" d="M137.27,980.28a6.91,6.91,0,0,0,4.18,1.65c1.37,0,2-.47,2-1.22s-1.05-1.15-2.42-1.43c-2.08-.4-4.75-.9-4.75-3.77,0-2,1.77-3.8,4.95-3.8a7.7,7.7,0,0,1,4.87,1.65l-1.27,2.17a5.13,5.13,0,0,0-3.58-1.4c-1.15,0-1.9.43-1.9,1.13s.95,1,2.3,1.3c2.08.4,4.85,1,4.85,4,0,2.2-1.87,3.87-5.22,3.87a8.14,8.14,0,0,1-5.4-1.87Z"/><path class="cls-4" d="M149.2,980.28a6.85,6.85,0,0,0,4.17,1.65c1.38,0,2-.47,2-1.22s-1.05-1.15-2.43-1.43c-2.07-.4-4.75-.9-4.75-3.77,0-2,1.78-3.8,4.95-3.8a7.73,7.73,0,0,1,4.88,1.65l-1.28,2.17a5.1,5.1,0,0,0-3.57-1.4c-1.15,0-1.9.43-1.9,1.13s.95,1,2.3,1.3c2.07.4,4.85,1,4.85,4,0,2.2-1.88,3.87-5.23,3.87a8.11,8.11,0,0,1-5.39-1.87Z"/><path class="cls-4" d="M160.47,968.34a1.92,1.92,0,0,1,1.9-1.9,1.9,1.9,0,1,1-1.9,1.9Zm.33,3.67H164v12.07H160.8Z"/><path class="cls-4" d="M167.12,967.41h3.18v6.15a4.63,4.63,0,0,1,3.72-1.85c3.08,0,5.35,2.4,5.35,6.35s-2.3,6.32-5.35,6.32a4.68,4.68,0,0,1-3.72-1.85v1.55h-3.18Zm5.9,14.15c1.85,0,3.08-1.4,3.08-3.5s-1.23-3.53-3.08-3.53a3.49,3.49,0,0,0-2.72,1.4v4.28A3.54,3.54,0,0,0,173,981.56Z"/><path class="cls-4" d="M181.45,968.34a1.9,1.9,0,0,1,3.8,0,1.9,1.9,0,0,1-3.8,0Zm.32,3.67H185v12.07h-3.18Z"/><path class="cls-4" d="M188.1,967.41h3.17v16.67H188.1Z"/><path class="cls-4" d="M194.1,968.34a1.9,1.9,0,0,1,3.8,0,1.9,1.9,0,0,1-3.8,0Zm.32,3.67h3.18v12.07h-3.18Z"/><path class="cls-4" d="M201.37,981.08v-6.3h-2V972h2v-3.3h3.2V972H207v2.77h-2.45v5.45c0,.75.4,1.33,1.1,1.33a1.74,1.74,0,0,0,1.1-.35l.68,2.4a4,4,0,0,1-2.65.77C202.57,984.38,201.37,983.23,201.37,981.08Z"/><path class="cls-4" d="M210.25,986.16a1.6,1.6,0,0,0,1.67-.88l.45-1L207.47,972h3.4l3.15,8.4,3.15-8.4h3.42l-5.67,14c-.9,2.27-2.5,2.87-4.57,2.92a7.89,7.89,0,0,1-1.58-.18l.48-2.84A2.83,2.83,0,0,0,210.25,986.16Z"/></g></g><g id="Rectangle_180" data-name="Rectangle 180"><rect class="cls-5" x="79.5" y="187.08" width="793" height="168"/><rect class="cls-2" x="80" y="187.58" width="792" height="167"/></g><g id="Rectangle_181" data-name="Rectangle 181"><rect class="cls-5" x="79.5" y="433.08" width="793" height="168"/><rect class="cls-2" x="80" y="433.58" width="792" height="167"/></g><g id="Rectangle_182" data-name="Rectangle 182"><rect class="cls-5" x="79.5" y="679.08" width="793" height="223"/><rect class="cls-2" x="80" y="679.58" width="792" height="222"/></g><g id="Group_59" data-name="Group 59"><circle id="Ellipse_76" data-name="Ellipse 76" class="cls-6" cx="152.5" cy="257.08" r="36"/><g id="Name" class="cls-3"><g class="cls-3"><path class="cls-4" d="M129.72,309.32v10.76h-1.66V306.74h1.7l7.68,10.54V306.74h1.66v13.34h-1.6Z"/><path class="cls-4" d="M148.2,319a4.18,4.18,0,0,1-3.2,1.34,3.22,3.22,0,0,1-3.38-3.2,3.16,3.16,0,0,1,3.38-3.18,4,4,0,0,1,3.2,1.32v-1.74c0-1.3-1-2-2.44-2a3.84,3.84,0,0,0-3,1.34l-.7-1a5.06,5.06,0,0,1,3.86-1.6c2,0,3.74.92,3.74,3.26v6.64h-1.5Zm0-2.76a3.23,3.23,0,0,0-2.66-1.2,2.13,2.13,0,1,0,0,4.22,3.23,3.23,0,0,0,2.66-1.2Z"/><path class="cls-4" d="M164.36,313.52c0-1.22-.54-2-1.78-2A3.38,3.38,0,0,0,160,313v7.08h-1.5v-6.56c0-1.22-.52-2-1.78-2a3.37,3.37,0,0,0-2.54,1.5v7.06h-1.5v-9.66h1.5v1.4a4.18,4.18,0,0,1,3.12-1.64,2.48,2.48,0,0,1,2.6,1.8,4.07,4.07,0,0,1,3.24-1.8c1.76,0,2.7,1,2.7,2.92v7h-1.5Z"/><path class="cls-4" d="M173.06,310.18c2.92,0,4.64,2.28,4.64,5.18v.38h-7.82a3.4,3.4,0,0,0,3.48,3.34,4.22,4.22,0,0,0,3-1.22l.72,1a5.25,5.25,0,0,1-3.84,1.48,5.08,5.08,0,0,1-.16-10.14Zm-3.18,4.46h6.34a3.13,3.13,0,0,0-3.18-3.22A3.22,3.22,0,0,0,169.88,314.64Z"/></g></g></g><g id="Group_67" data-name="Group 67"><circle id="Ellipse_76-2" data-name="Ellipse 76-2" class="cls-6" cx="152.5" cy="502.08" r="36"/><g id="Name-2" class="cls-3"><g class="cls-3"><path class="cls-4" d="M129.72,554.32v10.76h-1.66V551.74h1.7l7.68,10.54V551.74h1.66v13.34h-1.6Z"/><path class="cls-4" d="M148.2,564a4.18,4.18,0,0,1-3.2,1.34,3.22,3.22,0,0,1-3.38-3.2,3.16,3.16,0,0,1,3.38-3.18,4,4,0,0,1,3.2,1.32v-1.74c0-1.3-1-2-2.44-2a3.84,3.84,0,0,0-3,1.34l-.7-1a5.06,5.06,0,0,1,3.86-1.6c2,0,3.74.92,3.74,3.26v6.64h-1.5Zm0-2.76a3.23,3.23,0,0,0-2.66-1.2,2.13,2.13,0,1,0,0,4.22,3.23,3.23,0,0,0,2.66-1.2Z"/><path class="cls-4" d="M164.36,558.52c0-1.22-.54-2-1.78-2A3.38,3.38,0,0,0,160,558v7.08h-1.5v-6.56c0-1.22-.52-2-1.78-2a3.37,3.37,0,0,0-2.54,1.5v7.06h-1.5v-9.66h1.5v1.4a4.18,4.18,0,0,1,3.12-1.64,2.48,2.48,0,0,1,2.6,1.8,4.07,4.07,0,0,1,3.24-1.8c1.76,0,2.7,1,2.7,2.92v7h-1.5Z"/><path class="cls-4" d="M173.06,555.18c2.92,0,4.64,2.28,4.64,5.18v.38h-7.82a3.4,3.4,0,0,0,3.48,3.34,4.22,4.22,0,0,0,3-1.22l.72,1a5.25,5.25,0,0,1-3.84,1.48,5.08,5.08,0,0,1-.16-10.14Zm-3.18,4.46h6.34a3.13,3.13,0,0,0-3.18-3.22A3.22,3.22,0,0,0,169.88,559.64Z"/></g></g></g><g id="Group_71" data-name="Group 71"><circle id="Ellipse_76-3" data-name="Ellipse 76-3" class="cls-6" cx="152.5" cy="748.08" r="36"/><g id="Name-3" class="cls-3"><g class="cls-3"><path class="cls-4" d="M129.72,800.32v10.76h-1.66V797.74h1.7l7.68,10.54V797.74h1.66v13.34h-1.6Z"/><path class="cls-4" d="M148.2,810a4.18,4.18,0,0,1-3.2,1.34,3.22,3.22,0,0,1-3.38-3.2,3.16,3.16,0,0,1,3.38-3.18,4,4,0,0,1,3.2,1.32v-1.74c0-1.3-1-2-2.44-2a3.84,3.84,0,0,0-3,1.34l-.7-1a5.06,5.06,0,0,1,3.86-1.6c2,0,3.74.92,3.74,3.26v6.64h-1.5Zm0-2.76a3.23,3.23,0,0,0-2.66-1.2,2.13,2.13,0,1,0,0,4.22,3.23,3.23,0,0,0,2.66-1.2Z"/><path class="cls-4" d="M164.36,804.52c0-1.22-.54-2-1.78-2A3.38,3.38,0,0,0,160,804v7.08h-1.5v-6.56c0-1.22-.52-2-1.78-2a3.37,3.37,0,0,0-2.54,1.5v7.06h-1.5v-9.66h1.5v1.4a4.18,4.18,0,0,1,3.12-1.64,2.48,2.48,0,0,1,2.6,1.8,4.07,4.07,0,0,1,3.24-1.8c1.76,0,2.7,1,2.7,2.92v7h-1.5Z"/><path class="cls-4" d="M173.06,801.18c2.92,0,4.64,2.28,4.64,5.18v.38h-7.82a3.4,3.4,0,0,0,3.48,3.34,4.22,4.22,0,0,0,3-1.22l.72,1a5.25,5.25,0,0,1-3.84,1.48,5.08,5.08,0,0,1-.16-10.14Zm-3.18,4.46h6.34a3.13,3.13,0,0,0-3.18-3.22A3.22,3.22,0,0,0,169.88,805.64Z"/></g></g></g><g id="Group_81" data-name="Group 81"><circle id="Ellipse_76-4" data-name="Ellipse 76-4" class="cls-6" cx="152.5" cy="858.08" r="36"/></g><g id="Group_61" data-name="Group 61"><circle id="Ellipse_76-5" data-name="Ellipse 76-5" class="cls-6" cx="259.5" cy="256.08" r="36"/><g id="Name-4" class="cls-3"><g class="cls-3"><path class="cls-4" d="M236.72,308.32v10.76h-1.66V305.74h1.7l7.68,10.54V305.74h1.66v13.34h-1.6Z"/><path class="cls-4" d="M255.2,318a4.18,4.18,0,0,1-3.2,1.34,3.22,3.22,0,0,1-3.38-3.2,3.16,3.16,0,0,1,3.38-3.18,4,4,0,0,1,3.2,1.32v-1.74c0-1.3-1-2-2.44-2a3.84,3.84,0,0,0-3,1.34l-.7-1a5.06,5.06,0,0,1,3.86-1.6c2,0,3.74.92,3.74,3.26v6.64h-1.5Zm0-2.76a3.23,3.23,0,0,0-2.66-1.2,2.13,2.13,0,1,0,0,4.22,3.23,3.23,0,0,0,2.66-1.2Z"/><path class="cls-4" d="M271.36,312.52c0-1.22-.54-2-1.78-2A3.38,3.38,0,0,0,267,312v7.08h-1.5v-6.56c0-1.22-.52-2-1.78-2a3.37,3.37,0,0,0-2.54,1.5v7.06h-1.5v-9.66h1.5v1.4a4.18,4.18,0,0,1,3.12-1.64,2.48,2.48,0,0,1,2.6,1.8,4.07,4.07,0,0,1,3.24-1.8c1.76,0,2.7,1,2.7,2.92v7h-1.5Z"/><path class="cls-4" d="M280.06,309.18c2.92,0,4.64,2.28,4.64,5.18v.38h-7.82a3.4,3.4,0,0,0,3.48,3.34,4.22,4.22,0,0,0,3-1.22l.72,1a5.25,5.25,0,0,1-3.84,1.48,5.08,5.08,0,0,1-.16-10.14Zm-3.18,4.46h6.34a3.13,3.13,0,0,0-3.18-3.22A3.22,3.22,0,0,0,276.88,313.64Z"/></g></g></g><g id="Group_66" data-name="Group 66"><circle id="Ellipse_76-6" data-name="Ellipse 76-6" class="cls-6" cx="259.5" cy="501.08" r="36"/><g id="Name-5" class="cls-3"><g class="cls-3"><path class="cls-4" d="M236.72,553.32v10.76h-1.66V550.74h1.7l7.68,10.54V550.74h1.66v13.34h-1.6Z"/><path class="cls-4" d="M255.2,563a4.18,4.18,0,0,1-3.2,1.34,3.22,3.22,0,0,1-3.38-3.2,3.16,3.16,0,0,1,3.38-3.18,4,4,0,0,1,3.2,1.32v-1.74c0-1.3-1-2-2.44-2a3.84,3.84,0,0,0-3,1.34l-.7-1a5.06,5.06,0,0,1,3.86-1.6c2,0,3.74.92,3.74,3.26v6.64h-1.5Zm0-2.76a3.23,3.23,0,0,0-2.66-1.2,2.13,2.13,0,1,0,0,4.22,3.23,3.23,0,0,0,2.66-1.2Z"/><path class="cls-4" d="M271.36,557.52c0-1.22-.54-2-1.78-2A3.38,3.38,0,0,0,267,557v7.08h-1.5v-6.56c0-1.22-.52-2-1.78-2a3.37,3.37,0,0,0-2.54,1.5v7.06h-1.5v-9.66h1.5v1.4a4.18,4.18,0,0,1,3.12-1.64,2.48,2.48,0,0,1,2.6,1.8,4.07,4.07,0,0,1,3.24-1.8c1.76,0,2.7,1,2.7,2.92v7h-1.5Z"/><path class="cls-4" d="M280.06,554.18c2.92,0,4.64,2.28,4.64,5.18v.38h-7.82a3.4,3.4,0,0,0,3.48,3.34,4.22,4.22,0,0,0,3-1.22l.72,1a5.25,5.25,0,0,1-3.84,1.48,5.08,5.08,0,0,1-.16-10.14Zm-3.18,4.46h6.34a3.13,3.13,0,0,0-3.18-3.22A3.22,3.22,0,0,0,276.88,558.64Z"/></g></g></g><g id="Group_70" data-name="Group 70"><circle id="Ellipse_76-7" data-name="Ellipse 76-7" class="cls-6" cx="259.5" cy="747.08" r="36"/><g id="Name-6" class="cls-3"><g class="cls-3"><path class="cls-4" d="M236.72,799.32v10.76h-1.66V796.74h1.7l7.68,10.54V796.74h1.66v13.34h-1.6Z"/><path class="cls-4" d="M255.2,809a4.18,4.18,0,0,1-3.2,1.34,3.22,3.22,0,0,1-3.38-3.2,3.16,3.16,0,0,1,3.38-3.18,4,4,0,0,1,3.2,1.32v-1.74c0-1.3-1-2-2.44-2a3.84,3.84,0,0,0-3,1.34l-.7-1a5.06,5.06,0,0,1,3.86-1.6c2,0,3.74.92,3.74,3.26v6.64h-1.5Zm0-2.76a3.23,3.23,0,0,0-2.66-1.2,2.13,2.13,0,1,0,0,4.22,3.23,3.23,0,0,0,2.66-1.2Z"/><path class="cls-4" d="M271.36,803.52c0-1.22-.54-2-1.78-2A3.38,3.38,0,0,0,267,803v7.08h-1.5v-6.56c0-1.22-.52-2-1.78-2a3.37,3.37,0,0,0-2.54,1.5v7.06h-1.5v-9.66h1.5v1.4a4.18,4.18,0,0,1,3.12-1.64,2.48,2.48,0,0,1,2.6,1.8,4.07,4.07,0,0,1,3.24-1.8c1.76,0,2.7,1,2.7,2.92v7h-1.5Z"/><path class="cls-4" d="M280.06,800.18c2.92,0,4.64,2.28,4.64,5.18v.38h-7.82a3.4,3.4,0,0,0,3.48,3.34,4.22,4.22,0,0,0,3-1.22l.72,1a5.25,5.25,0,0,1-3.84,1.48,5.08,5.08,0,0,1-.16-10.14Zm-3.18,4.46h6.34a3.13,3.13,0,0,0-3.18-3.22A3.22,3.22,0,0,0,276.88,804.64Z"/></g></g></g><g id="Group_80" data-name="Group 80"><circle id="Ellipse_76-8" data-name="Ellipse 76-8" class="cls-6" cx="259.5" cy="857.08" r="36"/></g><g id="Group_74" data-name="Group 74"><circle id="Ellipse_76-9" data-name="Ellipse 76-9" class="cls-6" cx="580.5" cy="747.08" r="36"/><g id="Name-7" class="cls-3"><g class="cls-3"><path class="cls-4" d="M557.72,799.32v10.76h-1.66V796.74h1.7l7.68,10.54V796.74h1.66v13.34h-1.6Z"/><path class="cls-4" d="M576.2,809a4.18,4.18,0,0,1-3.2,1.34,3.22,3.22,0,0,1-3.38-3.2,3.16,3.16,0,0,1,3.38-3.18,4,4,0,0,1,3.2,1.32v-1.74c0-1.3-1-2-2.44-2a3.84,3.84,0,0,0-3,1.34l-.7-1a5.06,5.06,0,0,1,3.86-1.6c2,0,3.74.92,3.74,3.26v6.64h-1.5Zm0-2.76a3.23,3.23,0,0,0-2.66-1.2,2.13,2.13,0,1,0,0,4.22,3.23,3.23,0,0,0,2.66-1.2Z"/><path class="cls-4" d="M592.36,803.52c0-1.22-.54-2-1.78-2A3.38,3.38,0,0,0,588,803v7.08h-1.5v-6.56c0-1.22-.52-2-1.78-2a3.37,3.37,0,0,0-2.54,1.5v7.06h-1.5v-9.66h1.5v1.4a4.18,4.18,0,0,1,3.12-1.64,2.48,2.48,0,0,1,2.6,1.8,4.07,4.07,0,0,1,3.24-1.8c1.76,0,2.7,1,2.7,2.92v7h-1.5Z"/><path class="cls-4" d="M601.06,800.18c2.92,0,4.64,2.28,4.64,5.18v.38h-7.82a3.4,3.4,0,0,0,3.48,3.34,4.22,4.22,0,0,0,3-1.22l.72,1a5.25,5.25,0,0,1-3.84,1.48,5.08,5.08,0,0,1-.16-10.14Zm-3.18,4.46h6.34a3.13,3.13,0,0,0-3.18-3.22A3.22,3.22,0,0,0,597.88,804.64Z"/></g></g></g><g id="Group_77" data-name="Group 77"><circle id="Ellipse_76-10" data-name="Ellipse 76-10" class="cls-6" cx="580.5" cy="857.08" r="36"/></g><g id="Group_62" data-name="Group 62"><circle id="Ellipse_76-11" data-name="Ellipse 76-11" class="cls-6" cx="366.5" cy="256.08" r="36"/><g id="Name-8" class="cls-3"><g class="cls-3"><path class="cls-4" d="M343.72,308.32v10.76h-1.66V305.74h1.7l7.68,10.54V305.74h1.66v13.34h-1.6Z"/><path class="cls-4" d="M362.2,318a4.18,4.18,0,0,1-3.2,1.34,3.22,3.22,0,0,1-3.38-3.2,3.16,3.16,0,0,1,3.38-3.18,4,4,0,0,1,3.2,1.32v-1.74c0-1.3-1-2-2.44-2a3.84,3.84,0,0,0-3,1.34l-.7-1a5.06,5.06,0,0,1,3.86-1.6c2,0,3.74.92,3.74,3.26v6.64h-1.5Zm0-2.76a3.23,3.23,0,0,0-2.66-1.2,2.13,2.13,0,1,0,0,4.22,3.23,3.23,0,0,0,2.66-1.2Z"/><path class="cls-4" d="M378.36,312.52c0-1.22-.54-2-1.78-2A3.38,3.38,0,0,0,374,312v7.08h-1.5v-6.56c0-1.22-.52-2-1.78-2a3.37,3.37,0,0,0-2.54,1.5v7.06h-1.5v-9.66h1.5v1.4a4.18,4.18,0,0,1,3.12-1.64,2.48,2.48,0,0,1,2.6,1.8,4.07,4.07,0,0,1,3.24-1.8c1.76,0,2.7,1,2.7,2.92v7h-1.5Z"/><path class="cls-4" d="M387.06,309.18c2.92,0,4.64,2.28,4.64,5.18v.38h-7.82a3.4,3.4,0,0,0,3.48,3.34,4.22,4.22,0,0,0,3-1.22l.72,1a5.25,5.25,0,0,1-3.84,1.48,5.08,5.08,0,0,1-.16-10.14Zm-3.18,4.46h6.34a3.13,3.13,0,0,0-3.18-3.22A3.22,3.22,0,0,0,383.88,313.64Z"/></g></g></g><g id="Group_65" data-name="Group 65"><circle id="Ellipse_76-12" data-name="Ellipse 76-12" class="cls-6" cx="366.5" cy="501.08" r="36"/><g id="Name-9" class="cls-3"><g class="cls-3"><path class="cls-4" d="M343.72,553.32v10.76h-1.66V550.74h1.7l7.68,10.54V550.74h1.66v13.34h-1.6Z"/><path class="cls-4" d="M362.2,563a4.18,4.18,0,0,1-3.2,1.34,3.22,3.22,0,0,1-3.38-3.2,3.16,3.16,0,0,1,3.38-3.18,4,4,0,0,1,3.2,1.32v-1.74c0-1.3-1-2-2.44-2a3.84,3.84,0,0,0-3,1.34l-.7-1a5.06,5.06,0,0,1,3.86-1.6c2,0,3.74.92,3.74,3.26v6.64h-1.5Zm0-2.76a3.23,3.23,0,0,0-2.66-1.2,2.13,2.13,0,1,0,0,4.22,3.23,3.23,0,0,0,2.66-1.2Z"/><path class="cls-4" d="M378.36,557.52c0-1.22-.54-2-1.78-2A3.38,3.38,0,0,0,374,557v7.08h-1.5v-6.56c0-1.22-.52-2-1.78-2a3.37,3.37,0,0,0-2.54,1.5v7.06h-1.5v-9.66h1.5v1.4a4.18,4.18,0,0,1,3.12-1.64,2.48,2.48,0,0,1,2.6,1.8,4.07,4.07,0,0,1,3.24-1.8c1.76,0,2.7,1,2.7,2.92v7h-1.5Z"/><path class="cls-4" d="M387.06,554.18c2.92,0,4.64,2.28,4.64,5.18v.38h-7.82a3.4,3.4,0,0,0,3.48,3.34,4.22,4.22,0,0,0,3-1.22l.72,1a5.25,5.25,0,0,1-3.84,1.48,5.08,5.08,0,0,1-.16-10.14Zm-3.18,4.46h6.34a3.13,3.13,0,0,0-3.18-3.22A3.22,3.22,0,0,0,383.88,558.64Z"/></g></g></g><g id="Group_69" data-name="Group 69"><circle id="Ellipse_76-13" data-name="Ellipse 76-13" class="cls-6" cx="366.5" cy="747.08" r="36"/><g id="Name-10" class="cls-3"><g class="cls-3"><path class="cls-4" d="M343.72,799.32v10.76h-1.66V796.74h1.7l7.68,10.54V796.74h1.66v13.34h-1.6Z"/><path class="cls-4" d="M362.2,809a4.18,4.18,0,0,1-3.2,1.34,3.22,3.22,0,0,1-3.38-3.2,3.16,3.16,0,0,1,3.38-3.18,4,4,0,0,1,3.2,1.32v-1.74c0-1.3-1-2-2.44-2a3.84,3.84,0,0,0-3,1.34l-.7-1a5.06,5.06,0,0,1,3.86-1.6c2,0,3.74.92,3.74,3.26v6.64h-1.5Zm0-2.76a3.23,3.23,0,0,0-2.66-1.2,2.13,2.13,0,1,0,0,4.22,3.23,3.23,0,0,0,2.66-1.2Z"/><path class="cls-4" d="M378.36,803.52c0-1.22-.54-2-1.78-2A3.38,3.38,0,0,0,374,803v7.08h-1.5v-6.56c0-1.22-.52-2-1.78-2a3.37,3.37,0,0,0-2.54,1.5v7.06h-1.5v-9.66h1.5v1.4a4.18,4.18,0,0,1,3.12-1.64,2.48,2.48,0,0,1,2.6,1.8,4.07,4.07,0,0,1,3.24-1.8c1.76,0,2.7,1,2.7,2.92v7h-1.5Z"/><path class="cls-4" d="M387.06,800.18c2.92,0,4.64,2.28,4.64,5.18v.38h-7.82a3.4,3.4,0,0,0,3.48,3.34,4.22,4.22,0,0,0,3-1.22l.72,1a5.25,5.25,0,0,1-3.84,1.48,5.08,5.08,0,0,1-.16-10.14Zm-3.18,4.46h6.34a3.13,3.13,0,0,0-3.18-3.22A3.22,3.22,0,0,0,383.88,804.64Z"/></g></g></g><g id="Group_79" data-name="Group 79"><circle id="Ellipse_76-14" data-name="Ellipse 76-14" class="cls-6" cx="366.5" cy="857.08" r="36"/></g><g id="Group_73" data-name="Group 73"><circle id="Ellipse_76-15" data-name="Ellipse 76-15" class="cls-6" cx="687.5" cy="747.08" r="36"/><g id="Name-11" class="cls-3"><g class="cls-3"><path class="cls-4" d="M664.72,799.32v10.76h-1.66V796.74h1.7l7.68,10.54V796.74h1.66v13.34h-1.6Z"/><path class="cls-4" d="M683.2,809a4.18,4.18,0,0,1-3.2,1.34,3.22,3.22,0,0,1-3.38-3.2,3.16,3.16,0,0,1,3.38-3.18,4,4,0,0,1,3.2,1.32v-1.74c0-1.3-1-2-2.44-2a3.84,3.84,0,0,0-3,1.34l-.7-1a5.06,5.06,0,0,1,3.86-1.6c2,0,3.74.92,3.74,3.26v6.64h-1.5Zm0-2.76a3.23,3.23,0,0,0-2.66-1.2,2.13,2.13,0,1,0,0,4.22,3.23,3.23,0,0,0,2.66-1.2Z"/><path class="cls-4" d="M699.36,803.52c0-1.22-.54-2-1.78-2A3.38,3.38,0,0,0,695,803v7.08h-1.5v-6.56c0-1.22-.52-2-1.78-2a3.37,3.37,0,0,0-2.54,1.5v7.06h-1.5v-9.66h1.5v1.4a4.18,4.18,0,0,1,3.12-1.64,2.48,2.48,0,0,1,2.6,1.8,4.07,4.07,0,0,1,3.24-1.8c1.76,0,2.7,1,2.7,2.92v7h-1.5Z"/><path class="cls-4" d="M708.06,800.18c2.92,0,4.64,2.28,4.64,5.18v.38h-7.82a3.4,3.4,0,0,0,3.48,3.34,4.22,4.22,0,0,0,3-1.22l.72,1a5.25,5.25,0,0,1-3.84,1.48,5.08,5.08,0,0,1-.16-10.14Zm-3.18,4.46h6.34a3.13,3.13,0,0,0-3.18-3.22A3.22,3.22,0,0,0,704.88,804.64Z"/></g></g></g><g id="Group_76" data-name="Group 76"><circle id="Ellipse_76-16" data-name="Ellipse 76-16" class="cls-6" cx="687.5" cy="857.08" r="36"/></g><g id="Group_63" data-name="Group 63"><circle id="Ellipse_76-17" data-name="Ellipse 76-17" class="cls-6" cx="473.5" cy="256.08" r="36"/><g id="Name-12" class="cls-3"><g class="cls-3"><path class="cls-4" d="M450.72,308.32v10.76h-1.66V305.74h1.7l7.68,10.54V305.74h1.66v13.34h-1.6Z"/><path class="cls-4" d="M469.2,318a4.18,4.18,0,0,1-3.2,1.34,3.22,3.22,0,0,1-3.38-3.2,3.16,3.16,0,0,1,3.38-3.18,4,4,0,0,1,3.2,1.32v-1.74c0-1.3-1-2-2.44-2a3.84,3.84,0,0,0-3,1.34l-.7-1a5.06,5.06,0,0,1,3.86-1.6c2,0,3.74.92,3.74,3.26v6.64h-1.5Zm0-2.76a3.23,3.23,0,0,0-2.66-1.2,2.13,2.13,0,1,0,0,4.22,3.23,3.23,0,0,0,2.66-1.2Z"/><path class="cls-4" d="M485.36,312.52c0-1.22-.54-2-1.78-2A3.38,3.38,0,0,0,481,312v7.08h-1.5v-6.56c0-1.22-.52-2-1.78-2a3.37,3.37,0,0,0-2.54,1.5v7.06h-1.5v-9.66h1.5v1.4a4.18,4.18,0,0,1,3.12-1.64,2.48,2.48,0,0,1,2.6,1.8,4.07,4.07,0,0,1,3.24-1.8c1.76,0,2.7,1,2.7,2.92v7h-1.5Z"/><path class="cls-4" d="M494.06,309.18c2.92,0,4.64,2.28,4.64,5.18v.38h-7.82a3.4,3.4,0,0,0,3.48,3.34,4.22,4.22,0,0,0,3-1.22l.72,1a5.25,5.25,0,0,1-3.84,1.48,5.08,5.08,0,0,1-.16-10.14Zm-3.18,4.46h6.34a3.13,3.13,0,0,0-3.18-3.22A3.22,3.22,0,0,0,490.88,313.64Z"/></g></g></g><g id="Group_64" data-name="Group 64"><circle id="Ellipse_76-18" data-name="Ellipse 76-18" class="cls-6" cx="473.5" cy="501.08" r="36"/><g id="Name-13" class="cls-3"><g class="cls-3"><path class="cls-4" d="M450.72,553.32v10.76h-1.66V550.74h1.7l7.68,10.54V550.74h1.66v13.34h-1.6Z"/><path class="cls-4" d="M469.2,563a4.18,4.18,0,0,1-3.2,1.34,3.22,3.22,0,0,1-3.38-3.2,3.16,3.16,0,0,1,3.38-3.18,4,4,0,0,1,3.2,1.32v-1.74c0-1.3-1-2-2.44-2a3.84,3.84,0,0,0-3,1.34l-.7-1a5.06,5.06,0,0,1,3.86-1.6c2,0,3.74.92,3.74,3.26v6.64h-1.5Zm0-2.76a3.23,3.23,0,0,0-2.66-1.2,2.13,2.13,0,1,0,0,4.22,3.23,3.23,0,0,0,2.66-1.2Z"/><path class="cls-4" d="M485.36,557.52c0-1.22-.54-2-1.78-2A3.38,3.38,0,0,0,481,557v7.08h-1.5v-6.56c0-1.22-.52-2-1.78-2a3.37,3.37,0,0,0-2.54,1.5v7.06h-1.5v-9.66h1.5v1.4a4.18,4.18,0,0,1,3.12-1.64,2.48,2.48,0,0,1,2.6,1.8,4.07,4.07,0,0,1,3.24-1.8c1.76,0,2.7,1,2.7,2.92v7h-1.5Z"/><path class="cls-4" d="M494.06,554.18c2.92,0,4.64,2.28,4.64,5.18v.38h-7.82a3.4,3.4,0,0,0,3.48,3.34,4.22,4.22,0,0,0,3-1.22l.72,1a5.25,5.25,0,0,1-3.84,1.48,5.08,5.08,0,0,1-.16-10.14Zm-3.18,4.46h6.34a3.13,3.13,0,0,0-3.18-3.22A3.22,3.22,0,0,0,490.88,558.64Z"/></g></g></g><g id="Group_68" data-name="Group 68"><circle id="Ellipse_76-19" data-name="Ellipse 76-19" class="cls-6" cx="473.5" cy="747.08" r="36"/><g id="Name-14" class="cls-3"><g class="cls-3"><path class="cls-4" d="M450.72,799.32v10.76h-1.66V796.74h1.7l7.68,10.54V796.74h1.66v13.34h-1.6Z"/><path class="cls-4" d="M469.2,809a4.18,4.18,0,0,1-3.2,1.34,3.22,3.22,0,0,1-3.38-3.2,3.16,3.16,0,0,1,3.38-3.18,4,4,0,0,1,3.2,1.32v-1.74c0-1.3-1-2-2.44-2a3.84,3.84,0,0,0-3,1.34l-.7-1a5.06,5.06,0,0,1,3.86-1.6c2,0,3.74.92,3.74,3.26v6.64h-1.5Zm0-2.76a3.23,3.23,0,0,0-2.66-1.2,2.13,2.13,0,1,0,0,4.22,3.23,3.23,0,0,0,2.66-1.2Z"/><path class="cls-4" d="M485.36,803.52c0-1.22-.54-2-1.78-2A3.38,3.38,0,0,0,481,803v7.08h-1.5v-6.56c0-1.22-.52-2-1.78-2a3.37,3.37,0,0,0-2.54,1.5v7.06h-1.5v-9.66h1.5v1.4a4.18,4.18,0,0,1,3.12-1.64,2.48,2.48,0,0,1,2.6,1.8,4.07,4.07,0,0,1,3.24-1.8c1.76,0,2.7,1,2.7,2.92v7h-1.5Z"/><path class="cls-4" d="M494.06,800.18c2.92,0,4.64,2.28,4.64,5.18v.38h-7.82a3.4,3.4,0,0,0,3.48,3.34,4.22,4.22,0,0,0,3-1.22l.72,1a5.25,5.25,0,0,1-3.84,1.48,5.08,5.08,0,0,1-.16-10.14Zm-3.18,4.46h6.34a3.13,3.13,0,0,0-3.18-3.22A3.22,3.22,0,0,0,490.88,804.64Z"/></g></g></g><g id="Group_78" data-name="Group 78"><circle id="Ellipse_76-20" data-name="Ellipse 76-20" class="cls-6" cx="473.5" cy="857.08" r="36"/></g><g id="Group_72" data-name="Group 72"><circle id="Ellipse_76-21" data-name="Ellipse 76-21" class="cls-6" cx="794.5" cy="747.08" r="36"/><g id="Name-15" class="cls-3"><g class="cls-3"><path class="cls-4" d="M771.72,799.32v10.76h-1.66V796.74h1.7l7.68,10.54V796.74h1.66v13.34h-1.6Z"/><path class="cls-4" d="M790.2,809a4.18,4.18,0,0,1-3.2,1.34,3.22,3.22,0,0,1-3.38-3.2,3.16,3.16,0,0,1,3.38-3.18,4,4,0,0,1,3.2,1.32v-1.74c0-1.3-1-2-2.44-2a3.84,3.84,0,0,0-3,1.34l-.7-1a5.06,5.06,0,0,1,3.86-1.6c2,0,3.74.92,3.74,3.26v6.64h-1.5Zm0-2.76a3.23,3.23,0,0,0-2.66-1.2,2.13,2.13,0,1,0,0,4.22,3.23,3.23,0,0,0,2.66-1.2Z"/><path class="cls-4" d="M806.36,803.52c0-1.22-.54-2-1.78-2A3.38,3.38,0,0,0,802,803v7.08h-1.5v-6.56c0-1.22-.52-2-1.78-2a3.37,3.37,0,0,0-2.54,1.5v7.06h-1.5v-9.66h1.5v1.4a4.18,4.18,0,0,1,3.12-1.64,2.48,2.48,0,0,1,2.6,1.8,4.07,4.07,0,0,1,3.24-1.8c1.76,0,2.7,1,2.7,2.92v7h-1.5Z"/><path class="cls-4" d="M815.06,800.18c2.92,0,4.64,2.28,4.64,5.18v.38h-7.82a3.4,3.4,0,0,0,3.48,3.34,4.22,4.22,0,0,0,3-1.22l.72,1a5.25,5.25,0,0,1-3.84,1.48,5.08,5.08,0,0,1-.16-10.14Zm-3.18,4.46h6.34a3.13,3.13,0,0,0-3.18-3.22A3.22,3.22,0,0,0,811.88,804.64Z"/></g></g></g><g id="Group_75" data-name="Group 75"><circle id="Ellipse_76-22" data-name="Ellipse 76-22" class="cls-6" cx="794.5" cy="857.08" r="36"/></g><path id="_ionicons_svg_ios-close" data-name=" ionicons svg ios-close" class="cls-4" d="M882.39,67.6l6.06-6.07a1.42,1.42,0,1,0-2-2l-6.06,6.06-6.06-6.06a1.42,1.42,0,0,0-2,2l6.06,6.07-6.06,6.06a1.42,1.42,0,0,0,2,2h0l6.06-6.06,6.06,6.06a1.43,1.43,0,0,0,2,0,1.41,1.41,0,0,0,0-2Z"/><g id="Group_82" data-name="Group 82"><g id="Rectangle_183" data-name="Rectangle 183"><rect class="cls-5" x="82.5" y="1004.08" width="789.39" height="117" rx="5"/><rect class="cls-2" x="83" y="1004.58" width="788.39" height="116" rx="4.5"/></g><path id="_ionicons_svg_md-lock" data-name=" ionicons svg md-lock" d="M129.69,1052.27h-2.16V1048a10.78,10.78,0,0,0-21.56,0v4.31h-2.16a4.33,4.33,0,0,0-4.31,4.31v21.56a4.33,4.33,0,0,0,4.31,4.32h25.88a4.33,4.33,0,0,0,4.31-4.31v-21.57A4.32,4.32,0,0,0,129.69,1052.27Zm-12.94,19.62a4.31,4.31,0,1,1,4.31-4.31h0A4.32,4.32,0,0,1,116.75,1071.89Zm6.69-19.62H110.07V1048a6.68,6.68,0,0,1,13.36,0Z"/><g id="Closed" class="cls-3"><g class="cls-3"><path d="M153.35,1037.76a8.44,8.44,0,0,1,8.75-8.62,7.71,7.71,0,0,1,7.1,4.07l-3,1.5a4.57,4.57,0,0,0-4.05-2.43,5.49,5.49,0,0,0,0,11,4.53,4.53,0,0,0,4.05-2.42l3,1.47a7.73,7.73,0,0,1-7.1,4.1A8.44,8.44,0,0,1,153.35,1037.76Z"/><path d="M171.25,1029.41h3.17v16.67h-3.17Z"/><path d="M176.8,1040a6.39,6.39,0,1,1,6.37,6.35A6.11,6.11,0,0,1,176.8,1040Zm9.47,0c0-1.87-1.12-3.5-3.1-3.5s-3.07,1.63-3.07,3.5,1.1,3.53,3.07,3.53S186.27,1041.93,186.27,1040Z"/><path d="M192.25,1042.28a6.88,6.88,0,0,0,4.17,1.65c1.38,0,2-.47,2-1.22s-1-1.15-2.43-1.43c-2.07-.4-4.74-.9-4.74-3.77,0-2,1.77-3.8,4.94-3.8a7.73,7.73,0,0,1,4.88,1.65l-1.28,2.17a5.1,5.1,0,0,0-3.57-1.4c-1.15,0-1.9.43-1.9,1.13s1,1,2.3,1.3c2.07.4,4.85,1,4.85,4,0,2.2-1.88,3.87-5.23,3.87a8.11,8.11,0,0,1-5.39-1.87Z"/><path d="M209.32,1033.71c3.6,0,6.05,2.7,6.05,6.65v.7h-9a3.25,3.25,0,0,0,3.47,2.8,5,5,0,0,0,3.23-1.2l1.4,2a7.53,7.53,0,0,1-5,1.67,6.34,6.34,0,1,1-.2-12.67Zm-3,5.2h6a2.81,2.81,0,0,0-3-2.68A2.9,2.9,0,0,0,206.35,1038.91Z"/><path d="M226,1044.53a4.68,4.68,0,0,1-3.72,1.85c-3.05,0-5.35-2.3-5.35-6.32s2.27-6.35,5.35-6.35a4.63,4.63,0,0,1,3.72,1.85v-6.15h3.2v16.67H226Zm0-6.62a3.44,3.44,0,0,0-2.75-1.38c-1.8,0-3.05,1.43-3.05,3.53s1.25,3.5,3.05,3.5a3.44,3.44,0,0,0,2.75-1.38Z"/></g></g><g id="This_is_a_closed_team._New_members_must_be_approved_by_team_lead._Only_members_can_view_team_details." data-name="This is a closed team. New members must be approved by team lead. Only members can view team details." class="cls-3"><g class="cls-3"><path d="M156.39,1065.59H153v-1.19h8.1v1.19h-3.39v9.49h-1.33Z"/><path d="M168.06,1070c0-1.36-.71-1.76-1.75-1.76a3.06,3.06,0,0,0-2.29,1.2v5.65h-1.2V1064.4H164v4.07a3.85,3.85,0,0,1,2.77-1.31,2.17,2.17,0,0,1,2.47,2.46v5.46h-1.2Z"/><path d="M171.44,1065.24a.81.81,0,0,1,1.62,0,.81.81,0,1,1-1.62,0Zm.21,2.11h1.2v7.73h-1.2Z"/><path d="M175.21,1073.19a3.49,3.49,0,0,0,2.54,1.11c1.18,0,1.83-.53,1.83-1.28s-1-1.12-2-1.38c-1.31-.3-2.8-.66-2.8-2.26,0-1.2,1-2.22,2.88-2.22a3.92,3.92,0,0,1,2.87,1.12l-.56.83a3,3,0,0,0-2.31-1c-1.06,0-1.71.48-1.71,1.17s.88,1,1.89,1.24c1.34.3,2.89.68,2.89,2.4,0,1.29-1,2.33-3,2.33a4.13,4.13,0,0,1-3.12-1.21Z"/><path d="M186.61,1065.24a.81.81,0,0,1,1.62,0,.81.81,0,1,1-1.62,0Zm.21,2.11H188v7.73h-1.2Z"/><path d="M190.37,1073.19a3.52,3.52,0,0,0,2.55,1.11c1.18,0,1.82-.53,1.82-1.28s-.94-1.12-2-1.38c-1.31-.3-2.8-.66-2.8-2.26,0-1.2,1-2.22,2.88-2.22a3.87,3.87,0,0,1,2.86,1.12l-.56.83a3,3,0,0,0-2.3-1c-1.06,0-1.71.48-1.71,1.17s.87,1,1.88,1.24c1.35.3,2.9.68,2.9,2.4,0,1.29-1,2.33-3,2.33a4.1,4.1,0,0,1-3.12-1.21Z"/><path d="M206.82,1074.2a3.32,3.32,0,0,1-2.56,1.07,2.57,2.57,0,0,1-2.7-2.56,2.52,2.52,0,0,1,2.7-2.54,3.22,3.22,0,0,1,2.56,1v-1.39c0-1-.83-1.63-1.95-1.63a3.06,3.06,0,0,0-2.37,1.07l-.56-.83a4,4,0,0,1,3.09-1.28c1.63,0,3,.73,3,2.61v5.31h-1.2Zm0-2.21a2.58,2.58,0,0,0-2.13-1,1.7,1.7,0,1,0,0,3.38,2.58,2.58,0,0,0,2.13-1Z"/><path d="M218,1067.16a3.29,3.29,0,0,1,2.83,1.34l-.8.74a2.28,2.28,0,0,0-2-1,3,3,0,0,0,0,6,2.33,2.33,0,0,0,2-1l.8.74a3.29,3.29,0,0,1-2.83,1.34,4.06,4.06,0,0,1,0-8.11Z"/><path d="M222.47,1064.4h1.2v10.68h-1.2Z"/><path d="M225.62,1071.21a3.83,3.83,0,1,1,3.83,4.06A3.79,3.79,0,0,1,225.62,1071.21Zm6.39,0a2.6,2.6,0,1,0-2.56,3C231.09,1074.2,232,1072.79,232,1071.21Z"/><path d="M235.17,1073.19a3.52,3.52,0,0,0,2.55,1.11c1.18,0,1.82-.53,1.82-1.28s-.94-1.12-2-1.38c-1.31-.3-2.8-.66-2.8-2.26,0-1.2,1-2.22,2.88-2.22a3.87,3.87,0,0,1,2.86,1.12l-.56.83a3,3,0,0,0-2.3-1c-1.06,0-1.72.48-1.72,1.17s.88,1,1.89,1.24c1.35.3,2.9.68,2.9,2.4,0,1.29-1,2.33-3,2.33a4.1,4.1,0,0,1-3.12-1.21Z"/><path d="M246,1067.16c2.34,0,3.72,1.82,3.72,4.14v.31h-6.26a2.72,2.72,0,0,0,2.78,2.67,3.37,3.37,0,0,0,2.39-1l.57.79a4.19,4.19,0,0,1-3.07,1.18,4.06,4.06,0,0,1-.13-8.11Zm-2.54,3.57h5.07a2.51,2.51,0,0,0-2.55-2.58A2.57,2.57,0,0,0,243.48,1070.73Z"/><path d="M257.27,1073.93a3.27,3.27,0,0,1-2.61,1.34c-2,0-3.44-1.53-3.44-4s1.41-4.06,3.44-4.06a3.22,3.22,0,0,1,2.61,1.36v-4.12h1.2v10.68h-1.2Zm0-4.45a2.91,2.91,0,0,0-2.32-1.25c-1.55,0-2.48,1.28-2.48,3s.93,3,2.48,3a2.85,2.85,0,0,0,2.32-1.22Z"/><path d="M265.24,1073.47v-5.06H264v-1.06h1.28v-2.11h1.2v2.11H268v1.06h-1.56v4.8c0,.57.25,1,.78,1a1.14,1.14,0,0,0,.82-.32l.35.9a2,2,0,0,1-1.44.49A1.57,1.57,0,0,1,265.24,1073.47Z"/><path d="M273.06,1067.16c2.34,0,3.71,1.82,3.71,4.14v.31h-6.25a2.72,2.72,0,0,0,2.78,2.67,3.37,3.37,0,0,0,2.39-1l.57.79a4.19,4.19,0,0,1-3.07,1.18,4.06,4.06,0,0,1-.13-8.11Zm-2.54,3.57h5.07a2.51,2.51,0,0,0-2.55-2.58A2.57,2.57,0,0,0,270.52,1070.73Z"/><path d="M283.54,1074.2a3.32,3.32,0,0,1-2.56,1.07,2.57,2.57,0,0,1-2.7-2.56,2.52,2.52,0,0,1,2.7-2.54,3.22,3.22,0,0,1,2.56,1v-1.39c0-1-.83-1.63-2-1.63a3.06,3.06,0,0,0-2.37,1.07l-.56-.83a4,4,0,0,1,3.09-1.28c1.63,0,3,.73,3,2.61v5.31h-1.2Zm0-2.21a2.58,2.58,0,0,0-2.13-1,1.7,1.7,0,1,0,0,3.38,2.58,2.58,0,0,0,2.13-1Z"/><path d="M296.47,1069.83c0-1-.43-1.6-1.42-1.6a2.71,2.71,0,0,0-2.05,1.19v5.66h-1.2v-5.25c0-1-.42-1.6-1.43-1.6a2.72,2.72,0,0,0-2,1.2v5.65h-1.2v-7.73h1.2v1.12a3.33,3.33,0,0,1,2.5-1.31,2,2,0,0,1,2.08,1.44,3.23,3.23,0,0,1,2.59-1.44c1.41,0,2.16.78,2.16,2.34v5.58h-1.2Z"/><path d="M300.71,1073.48a.88.88,0,1,1-.88.88A.89.89,0,0,1,300.71,1073.48Z"/><path d="M309.25,1066.47v8.61h-1.33V1064.4h1.36l6.15,8.44v-8.44h1.33v10.68h-1.28Z"/><path d="M322.56,1067.16c2.34,0,3.72,1.82,3.72,4.14v.31H320a2.73,2.73,0,0,0,2.78,2.67,3.37,3.37,0,0,0,2.39-1l.58.79a4.2,4.2,0,0,1-3.08,1.18,3.83,3.83,0,0,1-3.94-4.06A3.87,3.87,0,0,1,322.56,1067.16Zm-2.54,3.57h5.07a2.5,2.5,0,0,0-2.54-2.58A2.58,2.58,0,0,0,320,1070.73Z"/><path d="M332.88,1068.87l-2,6.21h-1.2l-2.47-7.73h1.25l1.89,6.16,2-6.16h1l2,6.16,1.89-6.16h1.25l-2.47,7.73h-1.2Z"/><path d="M353.41,1069.83c0-1-.43-1.6-1.42-1.6a2.71,2.71,0,0,0-2.05,1.19v5.66h-1.2v-5.25c0-1-.42-1.6-1.42-1.6a2.72,2.72,0,0,0-2,1.2v5.65h-1.2v-7.73h1.2v1.12a3.33,3.33,0,0,1,2.5-1.31,2,2,0,0,1,2.08,1.44,3.23,3.23,0,0,1,2.59-1.44c1.41,0,2.16.78,2.16,2.34v5.58h-1.2Z"/><path d="M360.37,1067.16c2.34,0,3.71,1.82,3.71,4.14v.31h-6.25a2.72,2.72,0,0,0,2.78,2.67,3.37,3.37,0,0,0,2.39-1l.57.79a4.19,4.19,0,0,1-3.07,1.18,4.06,4.06,0,0,1-.13-8.11Zm-2.54,3.57h5.07a2.51,2.51,0,0,0-2.54-2.58A2.58,2.58,0,0,0,357.83,1070.73Z"/><path d="M375.35,1069.83c0-1-.43-1.6-1.42-1.6a2.71,2.71,0,0,0-2.05,1.19v5.66h-1.2v-5.25c0-1-.42-1.6-1.43-1.6a2.7,2.7,0,0,0-2,1.2v5.65H366v-7.73h1.2v1.12a3.33,3.33,0,0,1,2.5-1.31,2,2,0,0,1,2.08,1.44,3.23,3.23,0,0,1,2.59-1.44c1.41,0,2.16.78,2.16,2.34v5.58h-1.2Z"/><path d="M379,1064.4h1.2v4.12a3.2,3.2,0,0,1,2.61-1.36c2,0,3.44,1.6,3.44,4.06s-1.43,4-3.44,4a3.25,3.25,0,0,1-2.61-1.34v1.15H379Zm3.5,9.8c1.57,0,2.5-1.26,2.5-3s-.93-3-2.5-3a2.87,2.87,0,0,0-2.3,1.25v3.5A2.82,2.82,0,0,0,382.45,1074.2Z"/><path d="M391.51,1067.16c2.33,0,3.71,1.82,3.71,4.14v.31H389a2.73,2.73,0,0,0,2.79,2.67,3.35,3.35,0,0,0,2.38-1l.58.79a4.19,4.19,0,0,1-3.07,1.18,4.06,4.06,0,0,1-.13-8.11Zm-2.55,3.57H394a2.52,2.52,0,0,0-2.55-2.58A2.58,2.58,0,0,0,389,1070.73Z"/><path d="M397.15,1067.35h1.2v1.25a3.3,3.3,0,0,1,2.58-1.41v1.23a2.21,2.21,0,0,0-.48-.05,2.85,2.85,0,0,0-2.1,1.24v5.47h-1.2Z"/><path d="M402.39,1073.19a3.49,3.49,0,0,0,2.54,1.11c1.19,0,1.83-.53,1.83-1.28s-.95-1.12-2-1.38c-1.31-.3-2.8-.66-2.8-2.26,0-1.2,1-2.22,2.88-2.22a3.92,3.92,0,0,1,2.87,1.12l-.56.83a3,3,0,0,0-2.31-1c-1.06,0-1.71.48-1.71,1.17s.88,1,1.89,1.24c1.34.3,2.89.68,2.89,2.4,0,1.29-1,2.33-3,2.33a4.13,4.13,0,0,1-3.12-1.21Z"/><path d="M423.33,1069.83c0-1-.43-1.6-1.42-1.6a2.71,2.71,0,0,0-2.05,1.19v5.66h-1.2v-5.25c0-1-.42-1.6-1.42-1.6a2.72,2.72,0,0,0-2,1.2v5.65H414v-7.73h1.2v1.12a3.33,3.33,0,0,1,2.5-1.31,2,2,0,0,1,2.08,1.44,3.23,3.23,0,0,1,2.59-1.44c1.41,0,2.16.78,2.16,2.34v5.58h-1.2Z"/><path d="M432.15,1074a3.75,3.75,0,0,1-2.75,1.28,2.17,2.17,0,0,1-2.47-2.46v-5.46h1.2v5.09c0,1.36.69,1.76,1.73,1.76a3,3,0,0,0,2.29-1.17v-5.68h1.2v7.73h-1.2Z"/><path d="M435.7,1073.19a3.51,3.51,0,0,0,2.54,1.11c1.19,0,1.83-.53,1.83-1.28s-.95-1.12-2-1.38c-1.31-.3-2.8-.66-2.8-2.26,0-1.2,1-2.22,2.88-2.22a3.9,3.9,0,0,1,2.87,1.12l-.56.83a3,3,0,0,0-2.31-1c-1.05,0-1.71.48-1.71,1.17s.88,1,1.89,1.24c1.34.3,2.9.68,2.9,2.4,0,1.29-1,2.33-3.05,2.33a4.13,4.13,0,0,1-3.12-1.21Z"/><path d="M443.43,1073.47v-5.06h-1.28v-1.06h1.28v-2.11h1.2v2.11h1.56v1.06h-1.56v4.8c0,.57.25,1,.78,1a1.14,1.14,0,0,0,.82-.32l.35.9a2,2,0,0,1-1.44.49A1.57,1.57,0,0,1,443.43,1073.47Z"/><path d="M452,1064.4h1.2v4.12a3.2,3.2,0,0,1,2.61-1.36c2,0,3.44,1.6,3.44,4.06s-1.43,4-3.44,4a3.25,3.25,0,0,1-2.61-1.34v1.15H452Zm3.5,9.8c1.57,0,2.5-1.26,2.5-3s-.93-3-2.5-3a2.87,2.87,0,0,0-2.3,1.25v3.5A2.82,2.82,0,0,0,455.52,1074.2Z"/><path d="M464.58,1067.16c2.34,0,3.71,1.82,3.71,4.14v.31H462a2.73,2.73,0,0,0,2.79,2.67,3.35,3.35,0,0,0,2.38-1l.58.79a4.19,4.19,0,0,1-3.07,1.18,4.06,4.06,0,0,1-.13-8.11Zm-2.55,3.57h5.08a2.52,2.52,0,0,0-2.55-2.58A2.58,2.58,0,0,0,462,1070.73Z"/><path d="M479.19,1074.2a3.32,3.32,0,0,1-2.56,1.07,2.57,2.57,0,0,1-2.71-2.56,2.53,2.53,0,0,1,2.71-2.54,3.24,3.24,0,0,1,2.56,1v-1.39c0-1-.84-1.63-2-1.63a3,3,0,0,0-2.36,1.07l-.57-.83a4,4,0,0,1,3.09-1.28c1.64,0,3,.73,3,2.61v5.31h-1.2Zm0-2.21a2.6,2.6,0,0,0-2.13-1,1.7,1.7,0,1,0,0,3.38,2.6,2.6,0,0,0,2.13-1Z"/><path d="M482.79,1078v-10.68H484v1.15a3.23,3.23,0,0,1,2.6-1.34c2,0,3.45,1.53,3.45,4s-1.41,4.06-3.45,4.06a3.14,3.14,0,0,1-2.6-1.36V1078Zm3.5-9.8a2.85,2.85,0,0,0-2.3,1.23V1073a2.87,2.87,0,0,0,2.3,1.25c1.55,0,2.48-1.28,2.48-3S487.84,1068.23,486.29,1068.23Z"/><path d="M492,1078v-10.68h1.2v1.15a3.24,3.24,0,0,1,2.61-1.34c2,0,3.44,1.53,3.44,4s-1.41,4.06-3.44,4.06a3.14,3.14,0,0,1-2.61-1.36V1078Zm3.5-9.8a2.87,2.87,0,0,0-2.3,1.23V1073a2.88,2.88,0,0,0,2.3,1.25c1.56,0,2.49-1.28,2.49-3S497,1068.23,495.47,1068.23Z"/><path d="M501.15,1067.35h1.2v1.25a3.29,3.29,0,0,1,2.58-1.41v1.23a2.21,2.21,0,0,0-.48-.05,2.83,2.83,0,0,0-2.1,1.24v5.47h-1.2Z"/><path d="M506,1071.21a3.84,3.84,0,1,1,3.83,4.06A3.8,3.8,0,0,1,506,1071.21Zm6.39,0c0-1.57-.91-3-2.56-3a3,3,0,0,0,0,6C511.46,1074.2,512.37,1072.79,512.37,1071.21Z"/><path d="M514.43,1067.35h1.3l2.58,6.34,2.56-6.34h1.31l-3.22,7.73h-1.31Z"/><path d="M526.79,1067.16c2.33,0,3.71,1.82,3.71,4.14v.31h-6.26a2.73,2.73,0,0,0,2.79,2.67,3.35,3.35,0,0,0,2.38-1l.58.79a4.2,4.2,0,0,1-3.08,1.18,3.83,3.83,0,0,1-3.93-4.06A3.87,3.87,0,0,1,526.79,1067.16Zm-2.55,3.57h5.07a2.5,2.5,0,0,0-2.54-2.58A2.58,2.58,0,0,0,524.24,1070.73Z"/><path d="M538,1073.93a3.25,3.25,0,0,1-2.61,1.34c-2,0-3.44-1.53-3.44-4s1.41-4.06,3.44-4.06a3.21,3.21,0,0,1,2.61,1.36v-4.12h1.21v10.68H538Zm0-4.45a2.91,2.91,0,0,0-2.32-1.25c-1.55,0-2.48,1.28-2.48,3s.93,3,2.48,3A2.85,2.85,0,0,0,538,1073Z"/><path d="M545.76,1064.4H547v4.12a3.2,3.2,0,0,1,2.61-1.36c2,0,3.44,1.6,3.44,4.06s-1.42,4-3.44,4a3.27,3.27,0,0,1-2.61-1.34v1.15h-1.2Zm3.51,9.8c1.56,0,2.49-1.26,2.49-3s-.93-3-2.49-3a2.89,2.89,0,0,0-2.31,1.25v3.5A2.83,2.83,0,0,0,549.27,1074.2Z"/><path d="M555.38,1077.15a1.12,1.12,0,0,0,1.15-.82l.51-1.17-3.23-7.81h1.29l2.58,6.34,2.56-6.34h1.31l-3.87,9.3a2.3,2.3,0,0,1-2.27,1.57,4.07,4.07,0,0,1-.88-.11l.19-1.09A1.85,1.85,0,0,0,555.38,1077.15Z"/><path d="M567.17,1073.47v-5.06h-1.28v-1.06h1.28v-2.11h1.2v2.11h1.57v1.06h-1.57v4.8c0,.57.25,1,.78,1a1.14,1.14,0,0,0,.82-.32l.35.9a2,2,0,0,1-1.44.49A1.57,1.57,0,0,1,567.17,1073.47Z"/><path d="M575,1067.16c2.34,0,3.72,1.82,3.72,4.14v.31h-6.26a2.72,2.72,0,0,0,2.78,2.67,3.37,3.37,0,0,0,2.39-1l.57.79a4.18,4.18,0,0,1-3.07,1.18,4.06,4.06,0,0,1-.13-8.11Zm-2.54,3.57h5.07a2.51,2.51,0,0,0-2.54-2.58A2.58,2.58,0,0,0,572.45,1070.73Z"/><path d="M585.47,1074.2a3.32,3.32,0,0,1-2.56,1.07,2.57,2.57,0,0,1-2.7-2.56,2.52,2.52,0,0,1,2.7-2.54,3.22,3.22,0,0,1,2.56,1v-1.39c0-1-.83-1.63-2-1.63a3.06,3.06,0,0,0-2.37,1.07l-.56-.83a4,4,0,0,1,3.09-1.28c1.63,0,3,.73,3,2.61v5.31h-1.2Zm0-2.21a2.58,2.58,0,0,0-2.13-1,1.7,1.7,0,1,0,0,3.38,2.58,2.58,0,0,0,2.13-1Z"/><path d="M598.4,1069.83c0-1-.43-1.6-1.42-1.6a2.71,2.71,0,0,0-2.05,1.19v5.66h-1.2v-5.25c0-1-.42-1.6-1.43-1.6a2.72,2.72,0,0,0-2,1.2v5.65h-1.2v-7.73h1.2v1.12a3.33,3.33,0,0,1,2.5-1.31,2,2,0,0,1,2.08,1.44,3.23,3.23,0,0,1,2.59-1.44c1.41,0,2.16.78,2.16,2.34v5.58h-1.2Z"/><path d="M606.13,1064.4h1.2v10.68h-1.2Z"/><path d="M613.09,1067.16c2.33,0,3.71,1.82,3.71,4.14v.31h-6.26a2.73,2.73,0,0,0,2.79,2.67,3.35,3.35,0,0,0,2.38-1l.58.79a4.19,4.19,0,0,1-3.07,1.18,4.06,4.06,0,0,1-.13-8.11Zm-2.55,3.57h5.08a2.52,2.52,0,0,0-2.55-2.58A2.58,2.58,0,0,0,610.54,1070.73Z"/><path d="M623.57,1074.2a3.32,3.32,0,0,1-2.56,1.07,2.57,2.57,0,0,1-2.71-2.56,2.53,2.53,0,0,1,2.71-2.54,3.24,3.24,0,0,1,2.56,1v-1.39c0-1-.83-1.63-2-1.63a3,3,0,0,0-2.37,1.07l-.56-.83a4,4,0,0,1,3.09-1.28c1.63,0,3,.73,3,2.61v5.31h-1.2Zm0-2.21a2.6,2.6,0,0,0-2.13-1,1.7,1.7,0,1,0,0,3.38,2.6,2.6,0,0,0,2.13-1Z"/><path d="M632.77,1073.93a3.27,3.27,0,0,1-2.61,1.34c-2,0-3.44-1.53-3.44-4s1.41-4.06,3.44-4.06a3.24,3.24,0,0,1,2.61,1.36v-4.12H634v10.68h-1.2Zm0-4.45a2.91,2.91,0,0,0-2.32-1.25c-1.55,0-2.48,1.28-2.48,3s.93,3,2.48,3a2.85,2.85,0,0,0,2.32-1.22Z"/><path d="M637,1073.48a.88.88,0,1,1-.88.88A.89.89,0,0,1,637,1073.48Z"/><path d="M649.09,1064.23a5.52,5.52,0,1,1-5.3,5.52A5.22,5.22,0,0,1,649.09,1064.23Zm0,1.18c-2.4,0-3.92,1.84-3.92,4.34s1.52,4.34,3.92,4.34,3.92-1.86,3.92-4.34S651.47,1065.41,649.09,1065.41Z"/><path d="M661.63,1070c0-1.36-.69-1.79-1.73-1.79a3,3,0,0,0-2.29,1.2v5.65h-1.19v-7.73h1.19v1.12a3.87,3.87,0,0,1,2.76-1.31,2.19,2.19,0,0,1,2.46,2.5v5.42h-1.2Z"/><path d="M665.23,1064.4h1.2v10.68h-1.2Z"/><path d="M669.25,1077.15a1.12,1.12,0,0,0,1.15-.82l.51-1.17-3.23-7.81H669l2.58,6.34,2.56-6.34h1.31l-3.87,9.3a2.3,2.3,0,0,1-2.27,1.57,4.07,4.07,0,0,1-.88-.11l.19-1.09A1.85,1.85,0,0,0,669.25,1077.15Z"/><path d="M690.13,1069.83c0-1-.43-1.6-1.42-1.6a2.71,2.71,0,0,0-2.05,1.19v5.66h-1.2v-5.25c0-1-.42-1.6-1.43-1.6a2.72,2.72,0,0,0-2,1.2v5.65h-1.2v-7.73H682v1.12a3.33,3.33,0,0,1,2.5-1.31,2,2,0,0,1,2.08,1.44,3.23,3.23,0,0,1,2.59-1.44c1.41,0,2.16.78,2.16,2.34v5.58h-1.2Z"/><path d="M697.09,1067.16c2.33,0,3.71,1.82,3.71,4.14v.31h-6.26a2.73,2.73,0,0,0,2.79,2.67,3.35,3.35,0,0,0,2.38-1l.58.79a4.19,4.19,0,0,1-3.07,1.18,4.06,4.06,0,0,1-.13-8.11Zm-2.55,3.57h5.08a2.52,2.52,0,0,0-2.55-2.58A2.58,2.58,0,0,0,694.54,1070.73Z"/><path d="M712.07,1069.83c0-1-.44-1.6-1.43-1.6a2.71,2.71,0,0,0-2,1.19v5.66h-1.2v-5.25c0-1-.41-1.6-1.42-1.6a2.72,2.72,0,0,0-2,1.2v5.65h-1.2v-7.73h1.2v1.12a3.33,3.33,0,0,1,2.5-1.31,2,2,0,0,1,2.08,1.44,3.23,3.23,0,0,1,2.59-1.44c1.41,0,2.17.78,2.17,2.34v5.58h-1.2Z"/><path d="M715.66,1064.4h1.2v4.12a3.22,3.22,0,0,1,2.61-1.36c2,0,3.44,1.6,3.44,4.06s-1.42,4-3.44,4a3.27,3.27,0,0,1-2.61-1.34v1.15h-1.2Zm3.51,9.8c1.57,0,2.49-1.26,2.49-3s-.92-3-2.49-3a2.89,2.89,0,0,0-2.31,1.25v3.5A2.83,2.83,0,0,0,719.17,1074.2Z"/><path d="M728.22,1067.16c2.34,0,3.72,1.82,3.72,4.14v.31h-6.26a2.72,2.72,0,0,0,2.78,2.67,3.37,3.37,0,0,0,2.39-1l.57.79a4.16,4.16,0,0,1-3.07,1.18,4.06,4.06,0,0,1-.13-8.11Zm-2.54,3.57h5.07a2.5,2.5,0,0,0-2.54-2.58A2.58,2.58,0,0,0,725.68,1070.73Z"/><path d="M733.87,1067.35h1.2v1.25a3.27,3.27,0,0,1,2.58-1.41v1.23a2.28,2.28,0,0,0-.48-.05,2.82,2.82,0,0,0-2.1,1.24v5.47h-1.2Z"/><path d="M739.1,1073.19a3.52,3.52,0,0,0,2.55,1.11c1.18,0,1.82-.53,1.82-1.28s-.94-1.12-2-1.38c-1.32-.3-2.81-.66-2.81-2.26,0-1.2,1-2.22,2.89-2.22a3.87,3.87,0,0,1,2.86,1.12l-.56.83a3,3,0,0,0-2.3-1c-1.06,0-1.72.48-1.72,1.17s.88,1,1.89,1.24c1.35.3,2.9.68,2.9,2.4,0,1.29-1,2.33-3,2.33a4.1,4.1,0,0,1-3.12-1.21Z"/><path d="M754.13,1067.16a3.29,3.29,0,0,1,2.83,1.34l-.8.74a2.28,2.28,0,0,0-2-1,3,3,0,0,0,0,6,2.33,2.33,0,0,0,2-1l.8.74a3.29,3.29,0,0,1-2.83,1.34,4.06,4.06,0,0,1,0-8.11Z"/><path d="M763.47,1074.2a3.32,3.32,0,0,1-2.56,1.07,2.57,2.57,0,0,1-2.7-2.56,2.52,2.52,0,0,1,2.7-2.54,3.22,3.22,0,0,1,2.56,1v-1.39c0-1-.83-1.63-2-1.63a3.06,3.06,0,0,0-2.37,1.07l-.56-.83a4,4,0,0,1,3.09-1.28c1.63,0,3,.73,3,2.61v5.31h-1.2Zm0-2.21a2.58,2.58,0,0,0-2.13-1,1.7,1.7,0,1,0,0,3.38,2.58,2.58,0,0,0,2.13-1Z"/><path d="M772.29,1070c0-1.36-.69-1.79-1.73-1.79a3,3,0,0,0-2.29,1.2v5.65h-1.2v-7.73h1.2v1.12a3.82,3.82,0,0,1,2.75-1.31,2.2,2.2,0,0,1,2.47,2.5v5.42h-1.2Z"/><path d="M778.86,1067.35h1.3l2.57,6.34,2.56-6.34h1.32l-3.22,7.73h-1.31Z"/><path d="M787.64,1065.24a.81.81,0,0,1,1.62,0,.81.81,0,0,1-1.62,0Zm.21,2.11h1.2v7.73h-1.2Z"/><path d="M794.81,1067.16c2.34,0,3.72,1.82,3.72,4.14v.31h-6.26a2.73,2.73,0,0,0,2.78,2.67,3.37,3.37,0,0,0,2.39-1l.57.79a4.16,4.16,0,0,1-3.07,1.18,4.06,4.06,0,0,1-.13-8.11Zm-2.54,3.57h5.07a2.5,2.5,0,0,0-2.54-2.58A2.58,2.58,0,0,0,792.27,1070.73Z"/><path d="M805.13,1068.87l-2,6.21h-1.2l-2.47-7.73h1.25l1.89,6.16,2-6.16h1l2,6.16,1.89-6.16h1.25l-2.47,7.73h-1.2Z"/></g><g class="cls-3"><path d="M153.94,1098.47v-5.06h-1.28v-1.06h1.28v-2.11h1.2v2.11h1.57v1.06h-1.57v4.8c0,.57.26,1,.79,1a1.14,1.14,0,0,0,.81-.32l.35.9a1.94,1.94,0,0,1-1.44.49A1.58,1.58,0,0,1,153.94,1098.47Z"/><path d="M161.77,1092.16c2.33,0,3.71,1.82,3.71,4.14v.31h-6.26a2.73,2.73,0,0,0,2.79,2.67,3.35,3.35,0,0,0,2.38-1l.58.79a4.19,4.19,0,0,1-3.07,1.18,4.06,4.06,0,0,1-.13-8.11Zm-2.55,3.57h5.08a2.52,2.52,0,0,0-2.55-2.58A2.58,2.58,0,0,0,159.22,1095.73Z"/><path d="M172.25,1099.2a3.32,3.32,0,0,1-2.56,1.07,2.57,2.57,0,0,1-2.71-2.56,2.53,2.53,0,0,1,2.71-2.54,3.24,3.24,0,0,1,2.56,1v-1.39c0-1-.83-1.63-2-1.63a3,3,0,0,0-2.36,1.07l-.56-.83a4,4,0,0,1,3.08-1.28c1.64,0,3,.73,3,2.61v5.31h-1.2Zm0-2.21a2.6,2.6,0,0,0-2.13-1,1.7,1.7,0,1,0,0,3.38,2.6,2.6,0,0,0,2.13-1Z"/><path d="M185.18,1094.83c0-1-.43-1.6-1.43-1.6a2.71,2.71,0,0,0-2.05,1.19v5.66h-1.2v-5.25c0-1-.41-1.6-1.42-1.6a2.69,2.69,0,0,0-2,1.2v5.65h-1.21v-7.73h1.21v1.12a3.32,3.32,0,0,1,2.49-1.31,2,2,0,0,1,2.08,1.44,3.26,3.26,0,0,1,2.6-1.44c1.41,0,2.16.78,2.16,2.34v5.58h-1.2Z"/><path d="M198.5,1098.93a3.25,3.25,0,0,1-2.61,1.34c-2,0-3.44-1.53-3.44-4s1.41-4.06,3.44-4.06a3.22,3.22,0,0,1,2.61,1.36v-4.12h1.2v10.68h-1.2Zm0-4.45a2.91,2.91,0,0,0-2.32-1.25c-1.55,0-2.48,1.28-2.48,3s.93,3,2.48,3a2.85,2.85,0,0,0,2.32-1.22Z"/><path d="M205.46,1092.16c2.34,0,3.72,1.82,3.72,4.14v.31h-6.26a2.72,2.72,0,0,0,2.78,2.67,3.37,3.37,0,0,0,2.39-1l.57.79a4.18,4.18,0,0,1-3.07,1.18,4.06,4.06,0,0,1-.13-8.11Zm-2.54,3.57H208a2.5,2.5,0,0,0-2.54-2.58A2.58,2.58,0,0,0,202.92,1095.73Z"/><path d="M211.35,1098.47v-5.06h-1.28v-1.06h1.28v-2.11h1.2v2.11h1.57v1.06h-1.57v4.8c0,.57.26,1,.78,1a1.14,1.14,0,0,0,.82-.32l.35.9a1.94,1.94,0,0,1-1.44.49A1.57,1.57,0,0,1,211.35,1098.47Z"/><path d="M220.65,1099.2a3.32,3.32,0,0,1-2.56,1.07,2.57,2.57,0,0,1-2.71-2.56,2.53,2.53,0,0,1,2.71-2.54,3.24,3.24,0,0,1,2.56,1v-1.39c0-1-.84-1.63-2-1.63a3,3,0,0,0-2.36,1.07l-.57-.83a4,4,0,0,1,3.09-1.28c1.64,0,3,.73,3,2.61v5.31h-1.2Zm0-2.21a2.6,2.6,0,0,0-2.13-1,1.7,1.7,0,1,0,0,3.38,2.6,2.6,0,0,0,2.13-1Z"/><path d="M224,1090.24a.8.8,0,0,1,.8-.8.8.8,0,0,1,.81.8.81.81,0,0,1-.81.81A.8.8,0,0,1,224,1090.24Zm.21,2.11h1.19v7.73h-1.19Z"/><path d="M227.84,1089.4H229v10.68h-1.2Z"/><path d="M231.4,1098.19a3.49,3.49,0,0,0,2.54,1.11c1.19,0,1.83-.53,1.83-1.28s-1-1.12-2-1.38c-1.31-.3-2.8-.66-2.8-2.26,0-1.2,1-2.22,2.88-2.22a3.92,3.92,0,0,1,2.87,1.12l-.56.83a3,3,0,0,0-2.31-1c-1.06,0-1.71.48-1.71,1.17s.88,1,1.89,1.24c1.34.3,2.89.68,2.89,2.4,0,1.29-1,2.33-3,2.33a4.13,4.13,0,0,1-3.12-1.21Z"/><path d="M239.52,1098.48a.88.88,0,1,1-.88.88A.9.9,0,0,1,239.52,1098.48Z"/></g></g><path id="_ionicons_svg_ios-arrow-down" data-name=" ionicons svg ios-arrow-down" class="cls-4" d="M284.36,1040.4l6-6a1.12,1.12,0,0,1,1.59,0h0a1.13,1.13,0,0,1,0,1.6l-6.78,6.78a1.11,1.11,0,0,1-1.55,0l-6.83-6.81a1.13,1.13,0,0,1,1.6-1.6h0Z"/></g><g id="Rectangle_184" data-name="Rectangle 184"><rect class="cls-5" x="82.5" y="1204.08" width="226" height="76"/><rect class="cls-2" x="83" y="1204.58" width="225" height="75"/></g><g id="Rectangle_185" data-name="Rectangle 185"><rect class="cls-5" x="646.5" y="1204.08" width="226" height="76"/><rect class="cls-2" x="647" y="1204.58" width="225" height="75"/></g><g id="Rectangle_186" data-name="Rectangle 186"><rect class="cls-5" x="364.5" y="1204.08" width="226" height="76"/><rect class="cls-2" x="365" y="1204.58" width="225" height="75"/></g><g id="Delete_Team" data-name="Delete Team" class="cls-3"><g class="cls-3"><path d="M125.15,1234.41h6.57c5.23,0,8.85,3.32,8.85,8.35s-3.62,8.32-8.85,8.32h-6.57Zm6.57,13.55a5,5,0,0,0,5.23-5.2,4.88,4.88,0,0,0-5.23-5.23h-3V1248Z"/><path d="M148.5,1238.71c3.6,0,6.05,2.7,6.05,6.65v.7h-9a3.25,3.25,0,0,0,3.47,2.8,4.92,4.92,0,0,0,3.22-1.2l1.4,2a7.52,7.52,0,0,1-5,1.67,6.34,6.34,0,1,1-.2-12.67Zm-3,5.2h5.95a2.79,2.79,0,0,0-3-2.68A2.91,2.91,0,0,0,145.52,1243.91Z"/><path d="M156.85,1234.41H160v16.67h-3.17Z"/><path d="M168.65,1238.71c3.6,0,6,2.7,6,6.65v.7h-9a3.26,3.26,0,0,0,3.48,2.8,4.92,4.92,0,0,0,3.22-1.2l1.4,2a7.52,7.52,0,0,1-5,1.67,6.34,6.34,0,1,1-.2-12.67Zm-3,5.2h6a2.79,2.79,0,0,0-3-2.68A2.91,2.91,0,0,0,165.67,1243.91Z"/><path d="M177.63,1248.08v-6.3h-2V1239h2v-3.3h3.19v3.3h2.45v2.77h-2.45v5.45c0,.75.4,1.33,1.1,1.33a1.74,1.74,0,0,0,1.1-.35l.68,2.4a4,4,0,0,1-2.65.77C178.82,1251.38,177.63,1250.23,177.63,1248.08Z"/><path d="M190.92,1238.71c3.6,0,6.05,2.7,6.05,6.65v.7h-9a3.25,3.25,0,0,0,3.47,2.8,5,5,0,0,0,3.23-1.2l1.4,2a7.53,7.53,0,0,1-5,1.67,6.34,6.34,0,1,1-.2-12.67Zm-3,5.2h6a2.81,2.81,0,0,0-3-2.68A2.9,2.9,0,0,0,188,1243.91Z"/><path d="M209.6,1237.53h-4.88v-3.12H218v3.12h-4.85v13.55H209.6Z"/><path d="M223.25,1238.71c3.6,0,6.05,2.7,6.05,6.65v.7h-9a3.26,3.26,0,0,0,3.48,2.8,4.92,4.92,0,0,0,3.22-1.2l1.4,2a7.52,7.52,0,0,1-5,1.67,6.34,6.34,0,1,1-.2-12.67Zm-3,5.2h5.95a2.79,2.79,0,0,0-3-2.68A2.91,2.91,0,0,0,220.27,1243.91Z"/><path d="M238.85,1249.83a5,5,0,0,1-3.83,1.55,4,4,0,0,1-4.2-4c0-2.82,2.28-3.85,4.2-3.85a4.88,4.88,0,0,1,3.83,1.48v-1.68c0-1.22-1-2-2.65-2a5.1,5.1,0,0,0-3.53,1.42l-1.2-2.12a7.94,7.94,0,0,1,5.28-1.9c2.75,0,5.27,1.1,5.27,4.57v7.8h-3.17Zm0-3.15a3.19,3.19,0,0,0-2.55-1c-1.25,0-2.28.65-2.28,1.83s1,1.77,2.28,1.77a3.19,3.19,0,0,0,2.55-1Z"/><path d="M260.15,1243.46c0-1.13-.5-1.93-1.8-1.93a3.2,3.2,0,0,0-2.5,1.4v8.15h-3.2v-7.62c0-1.13-.5-1.93-1.8-1.93a3.22,3.22,0,0,0-2.5,1.43v8.12h-3.18V1239h3.18v1.57a5.3,5.3,0,0,1,4-1.87,3.19,3.19,0,0,1,3.35,2.2,5.12,5.12,0,0,1,4.15-2.2c2.22,0,3.54,1.17,3.54,3.65v8.72h-3.19Z"/></g></g><g id="Split_Team" data-name="Split Team" class="cls-3"><g class="cls-3"><path d="M420,1246a7.3,7.3,0,0,0,5.3,2.25c1.95,0,2.9-.92,2.9-1.87,0-1.25-1.45-1.68-3.38-2.13-2.72-.62-6.22-1.37-6.22-5.1,0-2.77,2.4-5,6.32-5a9.3,9.3,0,0,1,6.5,2.32l-2,2.6a7.11,7.11,0,0,0-4.78-1.82c-1.6,0-2.45.7-2.45,1.7s1.41,1.47,3.33,1.92c2.75.63,6.25,1.45,6.25,5.15,0,3-2.18,5.35-6.68,5.35a9.6,9.6,0,0,1-7.07-2.65Z"/><path d="M434.08,1255.68V1239h3.17v1.52a4.66,4.66,0,0,1,3.72-1.82c3.1,0,5.35,2.3,5.35,6.32s-2.25,6.35-5.35,6.35a4.6,4.6,0,0,1-3.72-1.85v6.15Zm5.89-14.15a3.54,3.54,0,0,0-2.72,1.38v4.27a3.63,3.63,0,0,0,2.72,1.38c1.83,0,3-1.43,3-3.53S441.8,1241.53,440,1241.53Z"/><path d="M448.7,1234.41h3.17v16.67H448.7Z"/><path d="M454.7,1235.34a1.92,1.92,0,0,1,1.9-1.9,1.9,1.9,0,1,1-1.9,1.9ZM455,1239h3.18v12.07H455Z"/><path d="M462,1248.08v-6.3h-2V1239h2v-3.3h3.2v3.3h2.45v2.77h-2.45v5.45c0,.75.4,1.33,1.1,1.33a1.74,1.74,0,0,0,1.1-.35l.68,2.4a4,4,0,0,1-2.65.77C463.17,1251.38,462,1250.23,462,1248.08Z"/><path d="M480.12,1237.53h-4.87v-3.12h13.3v3.12H483.7v13.55h-3.58Z"/><path d="M493.77,1238.71c3.6,0,6.05,2.7,6.05,6.65v.7h-9a3.25,3.25,0,0,0,3.47,2.8,5,5,0,0,0,3.23-1.2l1.4,2a7.53,7.53,0,0,1-5,1.67,6.34,6.34,0,1,1-.2-12.67Zm-3,5.2h5.95a2.81,2.81,0,0,0-3-2.68A2.9,2.9,0,0,0,490.8,1243.91Z"/><path d="M509.37,1249.83a5,5,0,0,1-3.82,1.55,4,4,0,0,1-4.2-4c0-2.82,2.27-3.85,4.2-3.85a4.85,4.85,0,0,1,3.82,1.48v-1.68c0-1.22-1.05-2-2.65-2a5.05,5.05,0,0,0-3.52,1.42l-1.2-2.12a7.9,7.9,0,0,1,5.27-1.9c2.75,0,5.28,1.1,5.28,4.57v7.8h-3.18Zm0-3.15a3.16,3.16,0,0,0-2.55-1c-1.25,0-2.27.65-2.27,1.83s1,1.77,2.27,1.77a3.16,3.16,0,0,0,2.55-1Z"/><path d="M530.67,1243.46c0-1.13-.5-1.93-1.8-1.93a3.21,3.21,0,0,0-2.5,1.4v8.15h-3.2v-7.62c0-1.13-.5-1.93-1.8-1.93a3.24,3.24,0,0,0-2.5,1.43v8.12H515.7V1239h3.17v1.57a5.3,5.3,0,0,1,4-1.87,3.19,3.19,0,0,1,3.35,2.2,5.12,5.12,0,0,1,4.15-2.2c2.22,0,3.55,1.17,3.55,3.65v8.72h-3.2Z"/></g></g><g id="Done" class="cls-3"><g class="cls-3"><path d="M731.15,1234.41h6.57c5.23,0,8.85,3.32,8.85,8.35s-3.62,8.32-8.85,8.32h-6.57Zm6.57,13.55a5,5,0,0,0,5.23-5.2,4.88,4.88,0,0,0-5.23-5.23h-3V1248Z"/><path d="M748.25,1245a6.39,6.39,0,1,1,6.37,6.35A6.11,6.11,0,0,1,748.25,1245Zm9.47,0c0-1.87-1.12-3.5-3.1-3.5s-3.07,1.63-3.07,3.5,1.1,3.53,3.07,3.53S757.72,1246.93,757.72,1245Z"/><path d="M771.52,1243.78a2,2,0,0,0-2.22-2.25,3.42,3.42,0,0,0-2.75,1.43v8.12h-3.17V1239h3.17v1.57a5.53,5.53,0,0,1,4.22-1.87c2.65,0,3.93,1.5,3.93,3.85v8.52h-3.18Z"/><path d="M783.32,1238.71c3.6,0,6,2.7,6,6.65v.7h-9a3.25,3.25,0,0,0,3.47,2.8,5,5,0,0,0,3.23-1.2l1.4,2a7.53,7.53,0,0,1-5,1.67,6.34,6.34,0,1,1-.2-12.67Zm-3,5.2h5.95a2.81,2.81,0,0,0-3-2.68A2.9,2.9,0,0,0,780.35,1243.91Z"/></g></g></g><g id="Group_470" data-name="Group 470"><g id="Group_109" data-name="Group 109"><g id="Group_102" data-name="Group 102"><g id="Admins" class="cls-3"><g class="cls-3"><path class="cls-4" d="M56.16,1394.71H44.83l-1.59,4.37H37.31l9.8-25.34h6.77l9.76,25.34H57.75ZM46.28,1390h8.39l-4.17-11.63Z"/><path class="cls-4" d="M78.5,1396.73a7.13,7.13,0,0,1-5.66,2.81c-4.64,0-8.13-3.5-8.13-9.61s3.46-9.66,8.13-9.66a7.05,7.05,0,0,1,5.66,2.82v-9.35h4.86v25.34H78.5Zm0-10.07a5.23,5.23,0,0,0-4.18-2.09c-2.74,0-4.63,2.16-4.63,5.36s1.89,5.31,4.63,5.31a5.23,5.23,0,0,0,4.18-2.09Z"/><path class="cls-4" d="M110.91,1387.49c0-1.71-.76-2.92-2.73-2.92a4.86,4.86,0,0,0-3.8,2.13v12.38H99.51v-11.59c0-1.71-.76-2.92-2.73-2.92a4.94,4.94,0,0,0-3.8,2.16v12.35H88.15v-18.35H93v2.39a8,8,0,0,1,6-2.85c2.7,0,4.41,1.26,5.09,3.35a7.81,7.81,0,0,1,6.31-3.35c3.38,0,5.4,1.79,5.4,5.55v13.26h-4.87Z"/><path class="cls-4" d="M120,1375.14a2.89,2.89,0,1,1,2.88,2.89A2.91,2.91,0,0,1,120,1375.14Zm.49,5.59h4.82v18.35h-4.82Z"/><path class="cls-4" d="M142.53,1388c0-2.55-1.33-3.42-3.38-3.42a5.23,5.23,0,0,0-4.18,2.16v12.35h-4.83v-18.35H135v2.39a8.43,8.43,0,0,1,6.42-2.85c4,0,6,2.28,6,5.86v12.95h-4.82Z"/><path class="cls-4" d="M152.64,1393.31a10.51,10.51,0,0,0,6.34,2.5c2.09,0,3.08-.72,3.08-1.86,0-1.29-1.59-1.75-3.68-2.16-3.16-.61-7.22-1.37-7.22-5.74,0-3.08,2.69-5.78,7.52-5.78a11.75,11.75,0,0,1,7.41,2.51l-1.94,3.31a7.72,7.72,0,0,0-5.43-2.13c-1.75,0-2.89.65-2.89,1.71s1.44,1.56,3.5,2c3.15.61,7.37,1.45,7.37,6,0,3.34-2.85,5.89-7.94,5.89a12.38,12.38,0,0,1-8.21-2.85Z"/></g></g><g id="ios-arrow-down"><path id="Path_18" data-name="Path 18" class="cls-4" d="M270.31,1386.3l11.2,11.2a2.1,2.1,0,0,0,3,0h0a2.14,2.14,0,0,0,0-3l-12.69-12.7a2.1,2.1,0,0,0-2.91-.06l-12.78,12.76a2.12,2.12,0,1,0,3,3Z"/></g></g></g><g id="Rectangle_205" data-name="Rectangle 205"><rect class="cls-5" x="37.5" y="1434.08" width="245.5" height="70"/><rect class="cls-2" x="38" y="1434.58" width="244.5" height="69"/></g><g id="Rectangle_206" data-name="Rectangle 206"><rect class="cls-5" x="283.5" y="1434.08" width="245.5" height="70"/><rect class="cls-2" x="284" y="1434.58" width="244.5" height="69"/></g><g id="Rectangle_207" data-name="Rectangle 207"><rect class="cls-5" x="528.5" y="1434.08" width="245.5" height="70"/><rect class="cls-2" x="529" y="1434.58" width="244.5" height="69"/></g><g id="Rectangle_208" data-name="Rectangle 208"><rect class="cls-5" x="774.5" y="1434.08" width="245.5" height="70"/><rect class="cls-2" x="775" y="1434.58" width="244.5" height="69"/></g><g id="Rectangle_209" data-name="Rectangle 209"><rect class="cls-5" x="1019.5" y="1434.08" width="245.5" height="70"/><rect class="cls-2" x="1020" y="1434.58" width="244.5" height="69"/></g><g id="Rectangle_210" data-name="Rectangle 210"><rect class="cls-5" x="1265.5" y="1434.08" width="245.5" height="70"/><rect class="cls-2" x="1266" y="1434.58" width="244.5" height="69"/></g><g id="Banghart_Lab" data-name="Banghart Lab" class="cls-3"><g class="cls-3"><path class="cls-4" d="M57.15,1449.41h8.77c3.18,0,4.8,2,4.8,4.25a3.7,3.7,0,0,1-2.87,3.82,4,4,0,0,1,3.2,4.1c0,2.5-1.68,4.5-4.85,4.5H57.15Zm8,6.7a1.84,1.84,0,1,0,0-3.68H60.7v3.68Zm.12,7a1.92,1.92,0,0,0,2.15-2,2,2,0,0,0-2.15-1.95H60.7v3.93Z"/><path class="cls-4" d="M80.9,1464.83a5,5,0,0,1-3.83,1.55,4,4,0,0,1-4.19-4c0-2.82,2.27-3.85,4.19-3.85A4.88,4.88,0,0,1,80.9,1460v-1.68c0-1.22-1.05-2-2.65-2a5.05,5.05,0,0,0-3.52,1.42l-1.2-2.12a7.9,7.9,0,0,1,5.27-1.9c2.75,0,5.27,1.1,5.27,4.57v7.8H80.9Zm0-3.15a3.19,3.19,0,0,0-2.55-1c-1.25,0-2.27.65-2.27,1.83s1,1.77,2.27,1.77a3.19,3.19,0,0,0,2.55-1Z"/><path class="cls-4" d="M95.37,1458.78a2,2,0,0,0-2.22-2.25A3.42,3.42,0,0,0,90.4,1458v8.12H87.23V1454H90.4v1.57a5.53,5.53,0,0,1,4.22-1.87c2.65,0,3.93,1.5,3.93,3.85v8.52H95.37Z"/><path class="cls-4" d="M102.88,1466.88a4.76,4.76,0,0,0,3.77,1.5c1.52,0,3.32-.67,3.32-3.05v-1.22a4.7,4.7,0,0,1-3.72,1.9c-3,0-5.33-2.13-5.33-6.15s2.28-6.15,5.33-6.15a4.62,4.62,0,0,1,3.72,1.85V1454h3.2v11.25c0,4.6-3.55,5.72-6.52,5.72a7.28,7.28,0,0,1-5.2-1.8Zm7.09-9a3.43,3.43,0,0,0-2.72-1.38,3.34,3.34,0,0,0,0,6.65,3.51,3.51,0,0,0,2.72-1.37Z"/><path class="cls-4" d="M124.5,1458.73c0-1.67-.88-2.2-2.25-2.2a3.5,3.5,0,0,0-2.75,1.43v8.12h-3.17v-16.67h3.17v6.17a5.59,5.59,0,0,1,4.25-1.87c2.65,0,3.92,1.45,3.92,3.8v8.57H124.5Z"/><path class="cls-4" d="M138.07,1464.83a5,5,0,0,1-3.82,1.55,4,4,0,0,1-4.2-4c0-2.82,2.27-3.85,4.2-3.85a4.85,4.85,0,0,1,3.82,1.48v-1.68c0-1.22-1-2-2.65-2a5.05,5.05,0,0,0-3.52,1.42l-1.2-2.12a7.9,7.9,0,0,1,5.27-1.9c2.75,0,5.28,1.1,5.28,4.57v7.8h-3.18Zm0-3.15a3.16,3.16,0,0,0-2.55-1c-1.25,0-2.27.65-2.27,1.83s1,1.77,2.27,1.77a3.16,3.16,0,0,0,2.55-1Z"/><path class="cls-4" d="M144.4,1454h3.17v1.65a5.15,5.15,0,0,1,3.85-1.93v3.1a3.93,3.93,0,0,0-.87-.1,4.05,4.05,0,0,0-3,1.38v8H144.4Z"/><path class="cls-4" d="M154,1463.08v-6.3h-2V1454h2v-3.3h3.2v3.3h2.45v2.77h-2.45v5.45c0,.75.4,1.33,1.1,1.33a1.74,1.74,0,0,0,1.1-.35l.68,2.4a4,4,0,0,1-2.65.77C155.22,1466.38,154,1465.23,154,1463.08Z"/></g><g class="cls-3"><path class="cls-4" d="M57.15,1474.41H60.7V1488h7v3.12H57.15Z"/><path class="cls-4" d="M77.22,1489.83a5,5,0,0,1-3.82,1.55,4,4,0,0,1-4.2-4c0-2.82,2.28-3.85,4.2-3.85a4.85,4.85,0,0,1,3.82,1.48v-1.68c0-1.22-1-2-2.64-2a5.1,5.1,0,0,0-3.53,1.42l-1.2-2.12a7.94,7.94,0,0,1,5.27-1.9c2.75,0,5.28,1.1,5.28,4.57v7.8H77.22Zm0-3.15a3.16,3.16,0,0,0-2.55-1c-1.25,0-2.27.65-2.27,1.83s1,1.77,2.27,1.77a3.16,3.16,0,0,0,2.55-1Z"/><path class="cls-4" d="M83.55,1474.41h3.18v6.15a4.61,4.61,0,0,1,3.72-1.85c3.07,0,5.35,2.4,5.35,6.35s-2.3,6.32-5.35,6.32a4.66,4.66,0,0,1-3.72-1.85v1.55H83.55Zm5.9,14.15c1.85,0,3.07-1.4,3.07-3.5s-1.22-3.53-3.07-3.53a3.48,3.48,0,0,0-2.72,1.4v4.28A3.52,3.52,0,0,0,89.45,1488.56Z"/></g></g><g id="XMC_Lab" data-name="XMC Lab" class="cls-3"><g class="cls-3"><path class="cls-4" d="M309.85,1460l-4.2,6.1h-4.22l6-8.55-5.67-8.12H306l3.83,5.7,3.77-5.7h4.28l-5.68,8.1,6,8.57H314Z"/><path class="cls-4" d="M334.35,1454.08l-4.7,12H328.1l-4.7-12v12h-3.55v-16.67h5l4,10.4,4.05-10.4h5v16.67h-3.57Z"/><path class="cls-4" d="M340.42,1457.76a8.44,8.44,0,0,1,8.75-8.62,7.69,7.69,0,0,1,7.1,4.07l-3,1.5a4.57,4.57,0,0,0-4.05-2.43,5.49,5.49,0,0,0,0,11,4.53,4.53,0,0,0,4.05-2.42l3,1.47a7.73,7.73,0,0,1-7.1,4.1A8.44,8.44,0,0,1,340.42,1457.76Z"/></g><g class="cls-3"><path class="cls-4" d="M303.15,1474.41h3.55V1488h7.05v3.12h-10.6Z"/><path class="cls-4" d="M323.22,1489.83a5,5,0,0,1-3.82,1.55,4,4,0,0,1-4.2-4c0-2.82,2.28-3.85,4.2-3.85a4.85,4.85,0,0,1,3.82,1.48v-1.68c0-1.22-1.05-2-2.64-2a5.1,5.1,0,0,0-3.53,1.42l-1.2-2.12a7.94,7.94,0,0,1,5.27-1.9c2.75,0,5.28,1.1,5.28,4.57v7.8h-3.18Zm0-3.15a3.16,3.16,0,0,0-2.55-1c-1.25,0-2.27.65-2.27,1.83s1,1.77,2.27,1.77a3.16,3.16,0,0,0,2.55-1Z"/><path class="cls-4" d="M329.55,1474.41h3.18v6.15a4.61,4.61,0,0,1,3.72-1.85c3.07,0,5.35,2.4,5.35,6.35s-2.3,6.32-5.35,6.32a4.66,4.66,0,0,1-3.72-1.85v1.55h-3.18Zm5.9,14.15c1.85,0,3.07-1.4,3.07-3.5s-1.22-3.53-3.07-3.53a3.48,3.48,0,0,0-2.72,1.4v4.28A3.52,3.52,0,0,0,335.45,1488.56Z"/></g></g><g id="AllScripts" class="cls-3"><g class="cls-3"><path class="cls-4" d="M558.77,1475.21h-7.44l-1.06,2.87h-3.89l6.44-16.67h4.45l6.43,16.67h-3.88Zm-6.5-3.08h5.53l-2.75-7.65Z"/><path class="cls-4" d="M565.17,1461.41h3.18v16.67h-3.18Z"/><path class="cls-4" d="M571.5,1461.41h3.17v16.67H571.5Z"/><path class="cls-4" d="M578.7,1473a7.28,7.28,0,0,0,5.3,2.25c2,0,2.9-.92,2.9-1.87,0-1.25-1.45-1.68-3.38-2.13-2.72-.62-6.22-1.37-6.22-5.1,0-2.77,2.4-5,6.32-5a9.3,9.3,0,0,1,6.5,2.32l-2,2.6a7.11,7.11,0,0,0-4.78-1.82c-1.6,0-2.45.7-2.45,1.7s1.4,1.47,3.33,1.92c2.75.63,6.25,1.45,6.25,5.15,0,3-2.18,5.35-6.68,5.35a9.58,9.58,0,0,1-7.07-2.65Z"/><path class="cls-4" d="M598.45,1465.71a5.61,5.61,0,0,1,4.77,2.17l-2.07,1.95a2.93,2.93,0,0,0-2.55-1.3,3.52,3.52,0,0,0,0,7,3.05,3.05,0,0,0,2.55-1.3l2.07,1.92a5.55,5.55,0,0,1-4.77,2.2,6.34,6.34,0,1,1,0-12.67Z"/><path class="cls-4" d="M605.3,1466h3.17v1.65a5.15,5.15,0,0,1,3.85-1.93v3.1a3.93,3.93,0,0,0-.87-.1,4.05,4.05,0,0,0-3,1.38v8H605.3Z"/><path class="cls-4" d="M614,1462.34a1.92,1.92,0,0,1,1.9-1.9,1.9,1.9,0,1,1-1.9,1.9Zm.33,3.67h3.17v12.07H614.3Z"/><path class="cls-4" d="M620.62,1482.68V1466h3.18v1.52a4.66,4.66,0,0,1,3.72-1.82c3.1,0,5.35,2.3,5.35,6.32s-2.25,6.35-5.35,6.35a4.6,4.6,0,0,1-3.72-1.85v6.15Zm5.9-14.15a3.54,3.54,0,0,0-2.72,1.38v4.27a3.63,3.63,0,0,0,2.72,1.38c1.83,0,3.05-1.43,3.05-3.53S628.35,1468.53,626.52,1468.53Z"/><path class="cls-4" d="M635.87,1475.08v-6.3h-2V1466h2v-3.3h3.2v3.3h2.45v2.77h-2.45v5.45c0,.75.4,1.33,1.1,1.33a1.74,1.74,0,0,0,1.1-.35l.68,2.4a4,4,0,0,1-2.65.77C637.07,1478.38,635.87,1477.23,635.87,1475.08Z"/><path class="cls-4" d="M644,1474.28a6.91,6.91,0,0,0,4.18,1.65c1.37,0,2-.47,2-1.22s-1.05-1.15-2.42-1.43c-2.08-.4-4.75-.9-4.75-3.77,0-2,1.77-3.8,5-3.8a7.7,7.7,0,0,1,4.87,1.65l-1.27,2.17a5.13,5.13,0,0,0-3.58-1.4c-1.15,0-1.9.43-1.9,1.13s1,1,2.3,1.3c2.08.4,4.85,1,4.85,4,0,2.2-1.87,3.87-5.22,3.87a8.14,8.14,0,0,1-5.4-1.87Z"/></g></g><g id="KP_Org" data-name="KP Org" class="cls-3"><g class="cls-3"><path class="cls-4" d="M799,1471.41l-1.3,1.55v5.12h-3.55v-16.67h3.55v7.45l5.9-7.45H808l-6.62,7.82,7.07,8.85h-4.37Z"/><path class="cls-4" d="M810.05,1461.41h7.8a5.36,5.36,0,1,1,0,10.7H813.6v6h-3.55Zm7.32,3H813.6v4.6h3.77a2.3,2.3,0,1,0,0-4.6Z"/><path class="cls-4" d="M840,1461.14a8.62,8.62,0,1,1-8.7,8.62A8.37,8.37,0,0,1,840,1461.14Zm0,3.14c-3.08,0-5.05,2.35-5.05,5.48s2,5.47,5.05,5.47,5.07-2.37,5.07-5.47S843,1464.28,840,1464.28Z"/><path class="cls-4" d="M851.1,1466h3.17v1.65a5.15,5.15,0,0,1,3.85-1.93v3.1a3.93,3.93,0,0,0-.87-.1,4.05,4.05,0,0,0-3,1.38v8H851.1Z"/><path class="cls-4" d="M861.27,1478.88a4.79,4.79,0,0,0,3.78,1.5c1.52,0,3.32-.67,3.32-3.05v-1.22a4.7,4.7,0,0,1-3.72,1.9c-3,0-5.32-2.13-5.32-6.15s2.27-6.15,5.32-6.15a4.62,4.62,0,0,1,3.72,1.85V1466h3.2v11.25c0,4.6-3.55,5.72-6.52,5.72a7.28,7.28,0,0,1-5.2-1.8Zm7.1-9a3.43,3.43,0,0,0-2.72-1.38,3.34,3.34,0,0,0,0,6.65,3.51,3.51,0,0,0,2.72-1.37Z"/></g></g><g id="Tiled_Lab" data-name="Tiled Lab" class="cls-3"><g class="cls-3"><path class="cls-4" d="M1043,1452.53h-4.87v-3.12h13.29v3.12h-4.85v13.55H1043Z"/><path class="cls-4" d="M1053.3,1450.34a1.9,1.9,0,1,1,3.8,0,1.9,1.9,0,0,1-3.8,0Zm.33,3.67h3.17v12.07h-3.17Z"/><path class="cls-4" d="M1060,1449.41h3.17v16.67H1060Z"/><path class="cls-4" d="M1071.75,1453.71c3.6,0,6,2.7,6,6.65v.7h-9a3.26,3.26,0,0,0,3.48,2.8,4.92,4.92,0,0,0,3.22-1.2l1.4,2a7.52,7.52,0,0,1-5,1.67,6.34,6.34,0,1,1-.2-12.67Zm-3,5.2h6a2.79,2.79,0,0,0-3-2.68A2.91,2.91,0,0,0,1068.77,1458.91Z"/><path class="cls-4" d="M1088.4,1464.53a4.7,4.7,0,0,1-3.73,1.85c-3.05,0-5.34-2.3-5.34-6.32s2.27-6.35,5.34-6.35a4.64,4.64,0,0,1,3.73,1.85v-6.15h3.2v16.67h-3.2Zm0-6.62a3.47,3.47,0,0,0-2.75-1.38c-1.8,0-3.05,1.43-3.05,3.53s1.25,3.5,3.05,3.5a3.47,3.47,0,0,0,2.75-1.38Z"/></g><g class="cls-3"><path class="cls-4" d="M1039.15,1474.41h3.55V1488h7v3.12h-10.6Z"/><path class="cls-4" d="M1059.22,1489.83a5,5,0,0,1-3.82,1.55,4,4,0,0,1-4.2-4c0-2.82,2.28-3.85,4.2-3.85a4.85,4.85,0,0,1,3.82,1.48v-1.68c0-1.22-1-2-2.64-2a5.1,5.1,0,0,0-3.53,1.42l-1.2-2.12a7.94,7.94,0,0,1,5.27-1.9c2.75,0,5.28,1.1,5.28,4.57v7.8h-3.18Zm0-3.15a3.16,3.16,0,0,0-2.55-1c-1.25,0-2.27.65-2.27,1.83s1,1.77,2.27,1.77a3.16,3.16,0,0,0,2.55-1Z"/><path class="cls-4" d="M1065.55,1474.41h3.18v6.15a4.61,4.61,0,0,1,3.72-1.85c3.07,0,5.35,2.4,5.35,6.35s-2.3,6.32-5.35,6.32a4.66,4.66,0,0,1-3.72-1.85v1.55h-3.18Zm5.9,14.15c1.85,0,3.07-1.4,3.07-3.5s-1.22-3.53-3.07-3.53a3.48,3.48,0,0,0-2.72,1.4v4.28A3.52,3.52,0,0,0,1071.45,1488.56Z"/></g></g><g id="SDO_Lab" data-name="SDO Lab" class="cls-3"><g class="cls-3"><path class="cls-4" d="M1286,1461a7.3,7.3,0,0,0,5.3,2.25c2,0,2.9-.92,2.9-1.87,0-1.25-1.45-1.68-3.38-2.13-2.72-.62-6.22-1.37-6.22-5.1,0-2.77,2.4-5,6.32-5a9.3,9.3,0,0,1,6.5,2.32l-2,2.6a7.11,7.11,0,0,0-4.78-1.82c-1.6,0-2.45.7-2.45,1.7s1.41,1.47,3.33,1.92c2.75.63,6.25,1.45,6.25,5.15,0,3-2.18,5.35-6.68,5.35a9.6,9.6,0,0,1-7.07-2.65Z"/><path class="cls-4" d="M1300.15,1449.41h6.57c5.23,0,8.85,3.32,8.85,8.35s-3.62,8.32-8.85,8.32h-6.57Zm6.57,13.55a5,5,0,0,0,5.23-5.2,4.88,4.88,0,0,0-5.23-5.23h-3V1463Z"/><path class="cls-4" d="M1326,1449.14a8.62,8.62,0,1,1-8.7,8.62A8.37,8.37,0,0,1,1326,1449.14Zm0,3.14c-3.08,0-5,2.35-5,5.48s2,5.47,5,5.47,5.07-2.37,5.07-5.47S1329.07,1452.28,1326,1452.28Z"/></g><g class="cls-3"><path class="cls-4" d="M1285.15,1474.41h3.55V1488h7v3.12h-10.6Z"/><path class="cls-4" d="M1305.22,1489.83a5,5,0,0,1-3.82,1.55,4,4,0,0,1-4.2-4c0-2.82,2.28-3.85,4.2-3.85a4.85,4.85,0,0,1,3.82,1.48v-1.68c0-1.22-1-2-2.64-2a5.1,5.1,0,0,0-3.53,1.42l-1.2-2.12a7.94,7.94,0,0,1,5.27-1.9c2.75,0,5.28,1.1,5.28,4.57v7.8h-3.18Zm0-3.15a3.16,3.16,0,0,0-2.55-1c-1.25,0-2.27.65-2.27,1.83s1,1.77,2.27,1.77a3.16,3.16,0,0,0,2.55-1Z"/><path class="cls-4" d="M1311.55,1474.41h3.18v6.15a4.61,4.61,0,0,1,3.72-1.85c3.07,0,5.35,2.4,5.35,6.35s-2.3,6.32-5.35,6.32a4.66,4.66,0,0,1-3.72-1.85v1.55h-3.18Zm5.9,14.15c1.85,0,3.07-1.4,3.07-3.5s-1.22-3.53-3.07-3.53a3.48,3.48,0,0,0-2.72,1.4v4.28A3.52,3.52,0,0,0,1317.45,1488.56Z"/></g></g><g id="ios-arrow-down-2"><path id="Path_19" data-name="Path 19" class="cls-7" d="M245.61,1472.61l9.91-9.92a1.86,1.86,0,0,1,2.63,0h0a1.88,1.88,0,0,1,0,2.65l-11.23,11.24a1.87,1.87,0,0,1-2.58.05l-11.3-11.28a1.87,1.87,0,1,1,2.64-2.65Z"/></g><g id="ios-arrow-down-3"><path id="Path_19-2" data-name="Path 19-2" class="cls-7" d="M489.61,1472.61l9.91-9.92a1.86,1.86,0,0,1,2.63,0h0a1.88,1.88,0,0,1,0,2.65l-11.23,11.24a1.87,1.87,0,0,1-2.58.05l-11.3-11.28a1.87,1.87,0,1,1,2.64-2.65Z"/></g><g id="ios-arrow-down-4"><path id="Path_19-3" data-name="Path 19-3" class="cls-7" d="M738.61,1472.61l9.91-9.92a1.86,1.86,0,0,1,2.63,0h0a1.88,1.88,0,0,1,0,2.65l-11.23,11.24a1.87,1.87,0,0,1-2.58.05l-11.3-11.28a1.87,1.87,0,1,1,2.64-2.65Z"/></g><g id="ios-arrow-down-5"><path id="Path_19-4" data-name="Path 19-4" class="cls-7" d="M979.61,1472.61l9.91-9.92a1.86,1.86,0,0,1,2.63,0h0a1.88,1.88,0,0,1,0,2.65l-11.23,11.24a1.87,1.87,0,0,1-2.58.05l-11.3-11.28a1.87,1.87,0,1,1,2.64-2.65Z"/></g><g id="ios-arrow-down-6"><path id="Path_19-5" data-name="Path 19-5" class="cls-7" d="M1226.61,1472.61l9.91-9.92a1.86,1.86,0,0,1,2.63,0h0a1.88,1.88,0,0,1,0,2.65l-11.23,11.24a1.87,1.87,0,0,1-2.58.05l-11.3-11.28a1.87,1.87,0,1,1,2.64-2.65Z"/></g><g id="ios-arrow-down-7"><path id="Path_19-6" data-name="Path 19-6" class="cls-7" d="M1462.61,1472.61l9.91-9.92a1.86,1.86,0,0,1,2.63,0h0a1.88,1.88,0,0,1,0,2.65l-11.23,11.24a1.87,1.87,0,0,1-2.58.05l-11.3-11.28a1.87,1.87,0,1,1,2.64-2.65Z"/></g></g></g></svg>