<svg id="Layer_1" data-name="Layer 1" xmlns="http://www.w3.org/2000/svg" viewBox="0 0 1342 1080"><defs><style>.cls-1,.cls-8{isolation:isolate;}.cls-2{fill:#707070;}.cls-3{fill:#eaf2fd;}.cls-4{fill:#c6deff;}.cls-5{fill:#fff;}.cls-6{fill:#969696;}.cls-7{fill:none;stroke:#707070;}.cls-8{opacity:0.47;}.cls-9{fill:#96c3ff;}.cls-10{opacity:1;}</style></defs><title>feature-work</title><g id="Group_108" data-name="Group 108"><g id="Search" class="cls-1"><g class="cls-1"><path class="cls-2" d="M467,65a5.85,5.85,0,0,0,4.24,1.8c1.56,0,2.32-.74,2.32-1.5,0-1-1.16-1.34-2.7-1.7-2.18-.5-5-1.1-5-4.08,0-2.22,1.92-4,5.06-4a7.42,7.42,0,0,1,5.2,1.86l-1.58,2.08a5.69,5.69,0,0,0-3.82-1.46c-1.28,0-2,.56-2,1.36s1.12,1.18,2.66,1.54c2.2.5,5,1.16,5,4.12,0,2.44-1.74,4.28-5.34,4.28a7.69,7.69,0,0,1-5.66-2.12Z"/><path class="cls-2" d="M482.64,59.1c2.88,0,4.84,2.16,4.84,5.32V65H480.3a2.6,2.6,0,0,0,2.78,2.24,4,4,0,0,0,2.58-1l1.12,1.64a6,6,0,0,1-4,1.34,5.07,5.07,0,1,1-.16-10.14Zm-2.38,4.16H485a2.24,2.24,0,0,0-2.38-2.14A2.32,2.32,0,0,0,480.26,63.26Z"/><path class="cls-2" d="M495.12,68a4,4,0,0,1-3.06,1.24A3.22,3.22,0,0,1,488.7,66,3.06,3.06,0,0,1,492.06,63a3.9,3.9,0,0,1,3.06,1.18V62.8c0-1-.84-1.62-2.12-1.62a4.06,4.06,0,0,0-2.82,1.14l-1-1.7a6.34,6.34,0,0,1,4.22-1.52c2.2,0,4.22.88,4.22,3.66V69h-2.54Zm0-2.52a2.54,2.54,0,0,0-2-.84c-1,0-1.82.52-1.82,1.46s.82,1.42,1.82,1.42a2.54,2.54,0,0,0,2-.84Z"/><path class="cls-2" d="M500.18,59.34h2.54v1.32a4.13,4.13,0,0,1,3.08-1.54V61.6a3.12,3.12,0,0,0-3.08,1V69h-2.54Z"/><path class="cls-2" d="M511.88,59.1a4.5,4.5,0,0,1,3.82,1.74L514,62.4a2.34,2.34,0,0,0-2-1A2.82,2.82,0,0,0,512,67a2.44,2.44,0,0,0,2-1l1.66,1.54a4.45,4.45,0,0,1-3.82,1.76,5.07,5.07,0,1,1,0-10.14Z"/><path class="cls-2" d="M523.9,63.12c0-1.34-.7-1.76-1.8-1.76a2.81,2.81,0,0,0-2.2,1.14V69h-2.54V55.66h2.54V60.6a4.47,4.47,0,0,1,3.4-1.5c2.12,0,3.14,1.16,3.14,3V69H523.9Z"/></g></g><g id="Project-nav"><rect id="Rectangle_72" data-name="Rectangle 72" class="cls-3" x="396" width="309" height="1080"/><circle id="Ellipse_23" data-name="Ellipse 23" class="cls-4" cx="453" cy="237" r="40"/><circle id="Ellipse_24" data-name="Ellipse 24" class="cls-4" cx="453" cy="359" r="40"/><circle id="Ellipse_25" data-name="Ellipse 25" class="cls-4" cx="453" cy="481" r="40"/><circle id="Ellipse_26" data-name="Ellipse 26" class="cls-4" cx="453" cy="603" r="40"/><g id="New_Project" data-name="New Project" class="cls-1"><g class="cls-1"><path class="cls-2" d="M516,73.55V87H514V70.33h2.12l9.6,13.17V70.33h2.08V87h-2Z"/><path class="cls-2" d="M536.82,74.63c3.65,0,5.8,2.85,5.8,6.47v.48h-9.77a4.25,4.25,0,0,0,4.35,4.17,5.29,5.29,0,0,0,3.72-1.52l.9,1.22A6.55,6.55,0,0,1,537,87.3a6.34,6.34,0,0,1-.2-12.67Zm-4,5.57h7.92a3.9,3.9,0,0,0-4-4A4,4,0,0,0,532.85,80.2Z"/><path class="cls-2" d="M553,77.3,549.8,87h-1.88l-3.85-12.07H546l3,9.62,3.18-9.62h1.6l3.17,9.62,3-9.62h2L558,87H556.1Z"/><path class="cls-2" d="M570.52,70.33h6.7a5,5,0,1,1,0,10H572.6V87h-2.08ZM577,72.18H572.6v6.35H577a3.18,3.18,0,1,0,0-6.35Z"/><path class="cls-2" d="M585.12,74.93H587v1.95a5.1,5.1,0,0,1,4-2.2V76.6a3.3,3.3,0,0,0-.75-.07A4.42,4.42,0,0,0,587,78.45V87h-1.88Z"/><path class="cls-2" d="M592.67,81c0-3.5,2.3-6.32,6-6.32s6,2.82,6,6.32-2.3,6.35-6,6.35S592.67,84.45,592.67,81Zm10,0c0-2.45-1.43-4.65-4-4.65s-4,2.2-4,4.65,1.45,4.67,4,4.67S602.65,83.43,602.65,81Z"/><path class="cls-2" d="M609.55,88.17c0,2.38-1.28,3.73-3.55,3.73a4.25,4.25,0,0,1-1.35-.18l.25-1.57a2.62,2.62,0,0,0,.9.12c1.1,0,1.87-.57,1.87-2.1V74.93h1.88Zm-2.2-16.54a1.26,1.26,0,0,1,2.52,0,1.26,1.26,0,1,1-2.52,0Z"/><path class="cls-2" d="M618.55,74.63c3.65,0,5.8,2.85,5.8,6.47v.48h-9.78a4.25,4.25,0,0,0,4.35,4.17,5.3,5.3,0,0,0,3.73-1.52l.9,1.22a6.57,6.57,0,0,1-4.8,1.85,6.34,6.34,0,0,1-.2-12.67Zm-4,5.57h7.93a3.92,3.92,0,0,0-4-4A4,4,0,0,0,614.57,80.2Z"/><path class="cls-2" d="M632.7,74.63a5.17,5.17,0,0,1,4.42,2.1l-1.25,1.15a3.58,3.58,0,0,0-3.07-1.58c-2.58,0-4.18,2-4.18,4.65s1.6,4.67,4.18,4.67a3.64,3.64,0,0,0,3.07-1.57l1.25,1.15a5.17,5.17,0,0,1-4.42,2.1c-3.6,0-6-2.75-6-6.35A6,6,0,0,1,632.7,74.63Z"/><path class="cls-2" d="M640.12,84.48v-7.9h-2V74.93h2v-3.3H642v3.3h2.45v1.65H642v7.5c0,.9.4,1.54,1.22,1.54a1.79,1.79,0,0,0,1.28-.5l.55,1.41a3.12,3.12,0,0,1-2.25.77C641,87.3,640.12,86.28,640.12,84.48Z"/></g></g><g id="Exalton_App" data-name="Exalton App" class="cls-1"><g class="cls-1"><path class="cls-2" d="M514,232.33h10.92v1.85H516v5.37h8.68v1.85H516v5.75h8.85V249H514Z"/><path class="cls-2" d="M532.3,244.05,528.67,249h-2.15l4.63-6.2-4.38-5.87H529l3.35,4.6,3.35-4.6h2.17l-4.37,5.87,4.65,6.2h-2.18Z"/><path class="cls-2" d="M547.8,247.63a5.26,5.26,0,0,1-4,1.67,4,4,0,0,1-4.23-4,4,4,0,0,1,4.23-4,5,5,0,0,1,4,1.65V240.8c0-1.62-1.3-2.55-3-2.55a4.79,4.79,0,0,0-3.7,1.68l-.88-1.3a6.32,6.32,0,0,1,4.83-2c2.55,0,4.67,1.15,4.67,4.07V249H547.8Zm0-3.45a4.05,4.05,0,0,0-3.33-1.5,2.65,2.65,0,1,0,0,5.27,4.05,4.05,0,0,0,3.33-1.5Z"/><path class="cls-2" d="M553.42,232.33h1.88V249h-1.88Z"/><path class="cls-2" d="M559.42,246.48v-7.9h-2v-1.65h2v-3.3h1.88v3.3h2.45v1.65H561.3v7.5c0,.9.4,1.55,1.22,1.55a1.83,1.83,0,0,0,1.28-.5l.55,1.4a3.12,3.12,0,0,1-2.25.77C560.32,249.3,559.42,248.28,559.42,246.48Z"/><path class="cls-2" d="M565.7,243c0-3.5,2.3-6.32,6-6.32s6,2.82,6,6.32-2.3,6.35-6,6.35S565.7,246.45,565.7,243Zm10,0c0-2.45-1.42-4.65-4-4.65s-4,2.2-4,4.65,1.45,4.68,4,4.68S575.67,245.43,575.67,243Z"/><path class="cls-2" d="M588.85,241.1c0-2.12-1.08-2.8-2.7-2.8a4.65,4.65,0,0,0-3.58,1.88V249H580.7V236.93h1.87v1.75a6,6,0,0,1,4.3-2.05c2.53,0,3.85,1.27,3.85,3.9V249h-1.87Z"/><path class="cls-2" d="M611.49,245.3h-8.44l-1.48,3.7h-2.3l6.7-16.67h2.58L615.27,249H613Zm-7.84-1.85h7.22l-3.6-9.27Z"/><path class="cls-2" d="M617.37,253.6V236.93h1.88v1.8a5,5,0,0,1,4.07-2.1c3.17,0,5.37,2.4,5.37,6.32s-2.2,6.35-5.37,6.35a4.93,4.93,0,0,1-4.07-2.12v6.42Zm5.48-15.3a4.46,4.46,0,0,0-3.6,1.93v5.45a4.48,4.48,0,0,0,3.6,1.95c2.42,0,3.87-2,3.87-4.68S625.27,238.3,622.85,238.3Z"/><path class="cls-2" d="M631.72,253.6V236.93h1.88v1.8a5,5,0,0,1,4.07-2.1c3.17,0,5.37,2.4,5.37,6.32s-2.2,6.35-5.37,6.35a4.93,4.93,0,0,1-4.07-2.12v6.42Zm5.48-15.3a4.46,4.46,0,0,0-3.6,1.93v5.45a4.48,4.48,0,0,0,3.6,1.95c2.42,0,3.87-2,3.87-4.68S639.62,238.3,637.2,238.3Z"/></g></g><g id="SoleMate" class="cls-1"><g class="cls-1"><path class="cls-2" d="M514.17,367.08a7.06,7.06,0,0,0,5.25,2.37c3,0,3.93-1.6,3.93-2.87,0-2-2-2.55-4.23-3.15-2.67-.7-5.65-1.45-5.65-4.73,0-2.75,2.45-4.62,5.73-4.62a7.84,7.84,0,0,1,5.92,2.32l-1.25,1.53a6.36,6.36,0,0,0-4.82-2c-2,0-3.43,1.07-3.43,2.65s1.93,2.17,4,2.75c2.73.72,5.83,1.57,5.83,5.07,0,2.43-1.65,4.9-6.15,4.9a8.25,8.25,0,0,1-6.4-2.65Z"/><path class="cls-2" d="M527.82,365c0-3.5,2.3-6.32,6-6.32s6,2.82,6,6.32-2.3,6.35-6,6.35S527.82,368.45,527.82,365Zm10,0c0-2.45-1.43-4.65-4-4.65s-4,2.2-4,4.65,1.45,4.68,4,4.68S537.8,367.43,537.8,365Z"/><path class="cls-2" d="M542.82,354.33h1.88V371h-1.88Z"/><path class="cls-2" d="M553.7,358.63c3.65,0,5.8,2.85,5.8,6.47v.48h-9.78a4.25,4.25,0,0,0,4.35,4.17,5.3,5.3,0,0,0,3.73-1.52l.9,1.22a6.57,6.57,0,0,1-4.8,1.85,6.34,6.34,0,0,1-.2-12.67Zm-4,5.57h7.93a3.92,3.92,0,0,0-4-4A4,4,0,0,0,549.72,364.2Z"/><path class="cls-2" d="M576.85,357.13,571.17,371h-.85l-5.65-13.87V371H562.6V354.33h3l5.18,12.7,5.2-12.7h3V371h-2.07Z"/><path class="cls-2" d="M590.3,369.63a5.26,5.26,0,0,1-4,1.67,4,4,0,0,1-4.23-4,4,4,0,0,1,4.23-4,5,5,0,0,1,4,1.65V362.8c0-1.62-1.3-2.55-3-2.55a4.79,4.79,0,0,0-3.7,1.68l-.88-1.3a6.32,6.32,0,0,1,4.83-2c2.55,0,4.67,1.15,4.67,4.07V371H590.3Zm0-3.45a4.05,4.05,0,0,0-3.33-1.5,2.65,2.65,0,1,0,0,5.27,4.05,4.05,0,0,0,3.33-1.5Z"/><path class="cls-2" d="M596.3,368.48v-7.9h-2v-1.65h2v-3.3h1.87v3.3h2.45v1.65h-2.45v7.5c0,.9.4,1.55,1.23,1.55a1.83,1.83,0,0,0,1.27-.5l.55,1.4a3.1,3.1,0,0,1-2.25.77C597.2,371.3,596.3,370.28,596.3,368.48Z"/><path class="cls-2" d="M608.52,358.63c3.65,0,5.8,2.85,5.8,6.47v.48h-9.77a4.25,4.25,0,0,0,4.35,4.17,5.29,5.29,0,0,0,3.72-1.52l.9,1.22a6.55,6.55,0,0,1-4.8,1.85,6.34,6.34,0,0,1-.2-12.67Zm-4,5.57h7.92a3.9,3.9,0,0,0-4-4A4,4,0,0,0,604.55,364.2Z"/></g></g><g id="TSE_Brand" data-name="TSE Brand" class="cls-1"><g class="cls-1"><path class="cls-2" d="M518.07,478.18H512.8v-1.85h12.65v1.85h-5.3V493h-2.08Z"/><path class="cls-2" d="M528.35,489.08a7.06,7.06,0,0,0,5.25,2.37c3,0,3.92-1.6,3.92-2.87,0-2-2-2.55-4.22-3.15-2.68-.7-5.65-1.45-5.65-4.73,0-2.75,2.45-4.62,5.72-4.62a7.87,7.87,0,0,1,5.93,2.32l-1.25,1.53a6.37,6.37,0,0,0-4.83-2c-2,0-3.42,1.07-3.42,2.65s1.92,2.17,4.05,2.75c2.72.72,5.82,1.57,5.82,5.07,0,2.43-1.65,4.9-6.15,4.9a8.26,8.26,0,0,1-6.4-2.65Z"/><path class="cls-2" d="M542.78,476.33H553.7v1.85h-8.85v5.37h8.67v1.85h-8.67v5.75h8.85V493H542.78Z"/><path class="cls-2" d="M563.45,476.33h7.42c2.9,0,4.68,1.75,4.68,4.25a3.78,3.78,0,0,1-2.93,3.82,4.16,4.16,0,0,1,3.25,4.1c0,2.68-1.77,4.5-4.82,4.5h-7.6Zm7.07,7.22a2.59,2.59,0,0,0,2.88-2.67,2.62,2.62,0,0,0-2.88-2.7h-5v5.37Zm.1,7.6c2,0,3.1-1.1,3.1-2.87a2.83,2.83,0,0,0-3.1-2.88h-5.1v5.75Z"/><path class="cls-2" d="M579.1,480.93H581v1.95a5.14,5.14,0,0,1,4-2.2v1.92a3.36,3.36,0,0,0-.75-.07,4.44,4.44,0,0,0-3.28,1.92V493H579.1Z"/><path class="cls-2" d="M594.9,491.63a5.26,5.26,0,0,1-4,1.67,4,4,0,0,1-4.23-4,4,4,0,0,1,4.23-4,5,5,0,0,1,4,1.65V484.8c0-1.62-1.3-2.55-3-2.55a4.79,4.79,0,0,0-3.7,1.68l-.88-1.3a6.32,6.32,0,0,1,4.83-2c2.55,0,4.67,1.15,4.67,4.07V493H594.9Zm0-3.45a4.05,4.05,0,0,0-3.33-1.5,2.65,2.65,0,1,0,0,5.27,4.05,4.05,0,0,0,3.33-1.5Z"/><path class="cls-2" d="M608.67,485.1c0-2.12-1.07-2.8-2.7-2.8a4.65,4.65,0,0,0-3.57,1.88V493h-1.88V480.93h1.88v1.75a6,6,0,0,1,4.3-2.05c2.52,0,3.85,1.27,3.85,3.9V493h-1.88Z"/><path class="cls-2" d="M623.05,491.2a5.08,5.08,0,0,1-4.08,2.1c-3.15,0-5.37-2.4-5.37-6.32s2.2-6.35,5.37-6.35a5.07,5.07,0,0,1,4.08,2.12v-6.42h1.87V493h-1.87Zm0-6.95a4.55,4.55,0,0,0-3.63-1.95c-2.42,0-3.87,2-3.87,4.68s1.45,4.65,3.87,4.65a4.51,4.51,0,0,0,3.63-1.9Z"/></g></g><g id="FitFam" class="cls-1"><g class="cls-1"><path class="cls-2" d="M514,598.33h10.92v1.85H516v5.37h8.68v1.85H516V615H514Z"/><path class="cls-2" d="M527.3,599.63a1.26,1.26,0,0,1,2.52,0,1.26,1.26,0,1,1-2.52,0Zm.32,3.3h1.88V615h-1.88Z"/><path class="cls-2" d="M533.62,612.48v-7.9h-2v-1.65h2v-3.3h1.88v3.3H538v1.65H535.5v7.5c0,.9.4,1.55,1.22,1.55a1.83,1.83,0,0,0,1.28-.5l.55,1.4a3.12,3.12,0,0,1-2.25.77C534.52,615.3,533.62,614.28,533.62,612.48Z"/><path class="cls-2" d="M540.67,598.33H551.6v1.85h-8.85v5.37h8.67v1.85h-8.67V615h-2.08Z"/><path class="cls-2" d="M561.9,613.63a5.26,5.26,0,0,1-4,1.67,4,4,0,0,1-4.23-4,4,4,0,0,1,4.23-4,5,5,0,0,1,4,1.65V606.8c0-1.62-1.3-2.55-3-2.55a4.79,4.79,0,0,0-3.7,1.68l-.88-1.3a6.32,6.32,0,0,1,4.83-2c2.55,0,4.67,1.15,4.67,4.07V615H561.9Zm0-3.45a4.05,4.05,0,0,0-3.33-1.5,2.65,2.65,0,1,0,0,5.27,4.05,4.05,0,0,0,3.33-1.5Z"/><path class="cls-2" d="M582.09,606.8c0-1.52-.67-2.5-2.22-2.5a4.23,4.23,0,0,0-3.2,1.85V615H574.8v-8.2c0-1.52-.65-2.5-2.23-2.5a4.21,4.21,0,0,0-3.17,1.88V615h-1.88V602.93h1.88v1.75a5.19,5.19,0,0,1,3.9-2,3.1,3.1,0,0,1,3.25,2.25,5.07,5.07,0,0,1,4.05-2.25c2.19,0,3.37,1.22,3.37,3.65V615h-1.88Z"/></g></g><g id="Group_17" data-name="Group 17"><circle id="Ellipse_22" data-name="Ellipse 22" class="cls-4" cx="453" cy="75" r="40"/><g id="_" data-name=" " class="cls-1"><g class="cls-1"><path class="cls-2" d="M457.46,94.83H450V77.37H434.49V70.58H450V53.81h7.49V70.58h15.39v6.79H457.46Z"/></g></g></g><g id="Group_18" data-name="Group 18"><rect id="Rectangle_73" data-name="Rectangle 73" class="cls-5" x="413" y="141" width="272" height="30" rx="5"/><g id="Search_for_a_project_" data-name="Search for a project " class="cls-1"><g class="cls-1"><path class="cls-2" d="M425.31,158.65a4.2,4.2,0,0,0,3.14,1.42c1.79,0,2.36-1,2.36-1.72,0-1.2-1.22-1.53-2.53-1.89-1.61-.42-3.4-.87-3.4-2.84,0-1.65,1.48-2.77,3.44-2.77a4.71,4.71,0,0,1,3.55,1.39l-.75.92a3.81,3.81,0,0,0-2.89-1.2c-1.2,0-2.06.64-2.06,1.59s1.16,1.3,2.44,1.65c1.63.43,3.49.94,3.49,3,0,1.46-1,2.94-3.69,2.94a5,5,0,0,1-3.84-1.59Z"/><path class="cls-2" d="M437.07,153.58c2.18,0,3.47,1.71,3.47,3.88v.29h-5.86a2.55,2.55,0,0,0,2.61,2.5,3.22,3.22,0,0,0,2.24-.91l.54.73a4,4,0,0,1-2.88,1.11,3.8,3.8,0,0,1-.12-7.6Zm-2.39,3.34h4.75a2.34,2.34,0,0,0-2.38-2.41A2.41,2.41,0,0,0,434.68,156.92Z"/><path class="cls-2" d="M446.89,160.18a3.14,3.14,0,0,1-2.4,1,2.41,2.41,0,0,1-2.54-2.4,2.37,2.37,0,0,1,2.54-2.38,3,3,0,0,1,2.4,1v-1.31c0-1-.78-1.53-1.83-1.53a2.88,2.88,0,0,0-2.22,1l-.52-.78a3.77,3.77,0,0,1,2.89-1.2c1.53,0,2.8.69,2.8,2.44v5h-1.12Zm0-2.07a2.44,2.44,0,0,0-2-.9,1.59,1.59,0,1,0,0,3.16,2.44,2.44,0,0,0,2-.9Z"/><path class="cls-2" d="M450.26,153.76h1.13v1.17a3,3,0,0,1,2.41-1.32v1.15a2,2,0,0,0-.45,0,2.65,2.65,0,0,0-2,1.15V161h-1.13Z"/><path class="cls-2" d="M458.41,153.58a3.08,3.08,0,0,1,2.65,1.26l-.75.69a2.14,2.14,0,0,0-1.84-.95,2.82,2.82,0,0,0,0,5.6,2.17,2.17,0,0,0,1.84-1l.75.69a3.08,3.08,0,0,1-2.65,1.26,3.8,3.8,0,0,1,0-7.6Z"/><path class="cls-2" d="M467.54,156.23c0-1.27-.66-1.65-1.63-1.65a2.86,2.86,0,0,0-2.15,1.13V161h-1.12V151h1.12v3.81a3.6,3.6,0,0,1,2.6-1.23,2,2,0,0,1,2.31,2.31V161h-1.13Z"/><path class="cls-2" d="M475.1,154.75h-1.2v-1h1.2v-.56a2.07,2.07,0,0,1,2.1-2.35,2.11,2.11,0,0,1,1.1.25l-.29.84a1.29,1.29,0,0,0-.64-.16c-.74,0-1.14.51-1.14,1.42v.56h1.47v1h-1.47V161H475.1Z"/><path class="cls-2" d="M478.61,157.37a3.59,3.59,0,1,1,3.59,3.81A3.55,3.55,0,0,1,478.61,157.37Zm6,0a2.44,2.44,0,1,0-2.4,2.81A2.52,2.52,0,0,0,484.6,157.37Z"/><path class="cls-2" d="M487.61,153.76h1.13v1.17a3,3,0,0,1,2.41-1.32v1.15a2,2,0,0,0-.45,0,2.65,2.65,0,0,0-2,1.15V161h-1.13Z"/><path class="cls-2" d="M501,160.18a3.12,3.12,0,0,1-2.4,1,2.41,2.41,0,0,1-2.53-2.4,2.36,2.36,0,0,1,2.53-2.38,3,3,0,0,1,2.4,1v-1.31c0-1-.78-1.53-1.83-1.53a2.89,2.89,0,0,0-2.22,1l-.52-.78a3.79,3.79,0,0,1,2.89-1.2c1.53,0,2.81.69,2.81,2.44v5H501Zm0-2.07a2.42,2.42,0,0,0-2-.9,1.59,1.59,0,1,0,0,3.16,2.42,2.42,0,0,0,2-.9Z"/><path class="cls-2" d="M508.21,163.76v-10h1.12v1.08a3,3,0,0,1,2.45-1.26c1.9,0,3.22,1.44,3.22,3.79s-1.32,3.81-3.22,3.81a3,3,0,0,1-2.45-1.27v3.85Zm3.28-9.18a2.69,2.69,0,0,0-2.16,1.16V159a2.7,2.7,0,0,0,2.16,1.17c1.46,0,2.33-1.21,2.33-2.81S513,154.58,511.49,154.58Z"/><path class="cls-2" d="M516.82,153.76h1.12v1.17a3.08,3.08,0,0,1,2.42-1.32v1.15a2,2,0,0,0-.45,0,2.67,2.67,0,0,0-2,1.15V161h-1.12Z"/><path class="cls-2" d="M521.35,157.37a3.59,3.59,0,1,1,3.58,3.81A3.55,3.55,0,0,1,521.35,157.37Zm6,0a2.43,2.43,0,1,0-2.4,2.81A2.52,2.52,0,0,0,527.33,157.37Z"/><path class="cls-2" d="M531.47,161.71a2,2,0,0,1-2.13,2.23,2.85,2.85,0,0,1-.81-.1l.15-1a1.57,1.57,0,0,0,.54.08c.66,0,1.13-.35,1.13-1.26v-8h1.12Zm-1.32-9.93a.76.76,0,0,1,1.52,0,.76.76,0,1,1-1.52,0Z"/><path class="cls-2" d="M536.87,153.58c2.19,0,3.48,1.71,3.48,3.88v.29h-5.86a2.55,2.55,0,0,0,2.61,2.5,3.18,3.18,0,0,0,2.23-.91l.54.73a3.93,3.93,0,0,1-2.88,1.11,3.8,3.8,0,0,1-.12-7.6Zm-2.38,3.34h4.75a2.34,2.34,0,0,0-2.38-2.41A2.41,2.41,0,0,0,534.49,156.92Z"/><path class="cls-2" d="M545.36,153.58a3.12,3.12,0,0,1,2.66,1.26l-.75.69a2.16,2.16,0,0,0-1.85-.95,2.82,2.82,0,0,0,0,5.6,2.19,2.19,0,0,0,1.85-1l.75.69a3.12,3.12,0,0,1-2.66,1.26,3.8,3.8,0,0,1,0-7.6Z"/><path class="cls-2" d="M549.82,159.49v-4.74h-1.2v-1h1.2v-2h1.12v2h1.47v1h-1.47v4.5c0,.54.24.93.74.93a1.1,1.1,0,0,0,.76-.3l.33.84a1.83,1.83,0,0,1-1.35.46A1.48,1.48,0,0,1,549.82,159.49Z"/><path class="cls-2" d="M553.78,160.33a.82.82,0,0,1,.81-.83.83.83,0,1,1-.81.83Zm3.45,0a.82.82,0,0,1,.81-.83.83.83,0,1,1,0,1.65A.83.83,0,0,1,557.23,160.33Zm3.45,0a.83.83,0,0,1,.82-.83.83.83,0,1,1-.82.83Z"/></g></g></g><path id="_ionicons_svg_ios-close" data-name=" ionicons svg ios-close" class="cls-2" d="M678.4,16.51l6.07-6.06a1.42,1.42,0,0,0-2-2l-6.07,6.07-6.06-6.07a1.42,1.42,0,0,0-2,2l6.07,6.06-6.07,6.07a1.42,1.42,0,1,0,2,2h0l6.06-6.07,6.07,6.07a1.42,1.42,0,1,0,2-2Z"/><path id="_ionicons_svg_md-information-circle" data-name=" ionicons svg md-information-circle" class="cls-6" d="M675.19,231.61a9.2,9.2,0,1,0,9.2,9.2h0A9.2,9.2,0,0,0,675.19,231.61Zm.93,13.79h-1.85v-5.52h1.85Zm0-7.34h-1.85v-1.85h1.85Z"/><path id="_ionicons_svg_md-information-circle-2" data-name=" ionicons svg md-information-circle-2" class="cls-6" d="M675.19,353.61a9.2,9.2,0,1,0,9.2,9.19h0A9.2,9.2,0,0,0,675.19,353.61Zm.93,13.79h-1.85v-5.52h1.85Zm0-7.34h-1.85v-1.85h1.85Z"/><path id="_ionicons_svg_md-information-circle-3" data-name=" ionicons svg md-information-circle-3" class="cls-6" d="M675.19,475.61a9.2,9.2,0,1,0,9.2,9.19h0A9.2,9.2,0,0,0,675.19,475.61Zm.93,13.79h-1.85v-5.52h1.85Zm0-7.34h-1.85v-1.85h1.85Z"/><path id="_ionicons_svg_md-information-circle-4" data-name=" ionicons svg md-information-circle-4" class="cls-6" d="M675.19,597.61a9.2,9.2,0,1,0,9.2,9.19h0A9.2,9.2,0,0,0,675.19,597.61Zm.93,13.79h-1.85v-5.52h1.85Zm0-7.34h-1.85v-1.85h1.85Z"/></g><g id="Main-nav"><rect id="Rectangle_16" data-name="Rectangle 16" class="cls-4" width="396" height="1080"/><g id="Group_24" data-name="Group 24"><circle id="Ellipse_2" data-name="Ellipse 2" class="cls-3" cx="56" cy="58" r="40"/><circle id="Ellipse_15" data-name="Ellipse 15" class="cls-3" cx="56" cy="167" r="40"/><g id="Roy_Zhang" data-name="Roy Zhang" class="cls-1"><g class="cls-1"><path class="cls-2" d="M122.35,43.38H119V50H117V33.33h6.7c3,0,5.22,2,5.22,5a4.61,4.61,0,0,1-4.32,4.85l4.5,6.8H126.6Zm1.05-8.2H119v6.37h4.38a3.19,3.19,0,1,0,0-6.37Z"/><path class="cls-2" d="M130.62,44c0-3.5,2.3-6.32,6-6.32s6,2.82,6,6.32-2.3,6.35-6,6.35S130.62,47.45,130.62,44Zm10,0c0-2.45-1.43-4.65-4-4.65s-4,2.2-4,4.65,1.45,4.67,4,4.67S140.6,46.43,140.6,44Z"/><path class="cls-2" d="M146.27,53.22a1.73,1.73,0,0,0,1.8-1.27l.8-1.83-5.05-12.19h2l4,9.9,4-9.9h2l-6,14.52a3.59,3.59,0,0,1-3.55,2.45,6,6,0,0,1-1.37-.18l.3-1.7A2.73,2.73,0,0,0,146.27,53.22Z"/><path class="cls-2" d="M163.65,48.28,173,35.18h-9.37V33.33h12v1.72l-9.37,13.1h9.55V50h-12.2Z"/><path class="cls-2" d="M187.12,42.05c0-2.12-1.1-2.75-2.72-2.75a4.75,4.75,0,0,0-3.58,1.88V50H179V33.33h1.87v6.35a6,6,0,0,1,4.33-2c2.52,0,3.85,1.22,3.85,3.85V50h-1.88Z"/><path class="cls-2" d="M200.3,48.62a5.23,5.23,0,0,1-4,1.68,4,4,0,0,1-4.23-4,4,4,0,0,1,4.23-4,5,5,0,0,1,4,1.65V41.8c0-1.62-1.3-2.55-3.05-2.55a4.79,4.79,0,0,0-3.7,1.68l-.88-1.3a6.32,6.32,0,0,1,4.83-2c2.55,0,4.67,1.15,4.67,4.07V50H200.3Zm0-3.44a4.05,4.05,0,0,0-3.33-1.5A2.65,2.65,0,1,0,197,49a4.05,4.05,0,0,0,3.33-1.5Z"/><path class="cls-2" d="M214.07,42.1c0-2.12-1.07-2.8-2.7-2.8a4.65,4.65,0,0,0-3.57,1.88V50h-1.88V37.93h1.88v1.75a6,6,0,0,1,4.3-2c2.52,0,3.84,1.27,3.84,3.9V50h-1.87Z"/><path class="cls-2" d="M220.62,51.7a4.61,4.61,0,0,0,3.93,1.65c2,0,3.87-1,3.87-3.63V48a5,5,0,0,1-4,2.15c-3.15,0-5.37-2.35-5.37-6.25s2.2-6.27,5.37-6.27a5,5,0,0,1,4,2.12V37.93h1.88V49.65c0,4-2.8,5.25-5.75,5.25a6.19,6.19,0,0,1-4.88-1.8Zm7.8-10.45a4.45,4.45,0,0,0-3.6-2c-2.42,0-3.87,1.93-3.87,4.6s1.45,4.6,3.87,4.6a4.47,4.47,0,0,0,3.6-2Z"/></g></g><g id="Company_Department" data-name="Company Department" class="cls-1"><g class="cls-1"><path class="cls-2" d="M116.28,74.68a8.32,8.32,0,0,1,8.49-8.63,7.5,7.5,0,0,1,6.4,3.3l-1.75,1a5.66,5.66,0,0,0-4.65-2.43c-3.57,0-6.35,2.8-6.35,6.78s2.78,6.77,6.35,6.77A5.6,5.6,0,0,0,129.42,79l1.78,1a7.59,7.59,0,0,1-6.43,3.3A8.32,8.32,0,0,1,116.28,74.68Z"/><path class="cls-2" d="M133.07,77c0-3.5,2.3-6.32,6-6.32s6,2.82,6,6.32-2.3,6.35-6,6.35S133.07,80.45,133.07,77Zm10,0c0-2.45-1.43-4.65-4-4.65s-4,2.2-4,4.65,1.45,4.67,4,4.67S143.05,79.43,143.05,77Z"/><path class="cls-2" d="M162.65,74.8c0-1.52-.68-2.5-2.23-2.5a4.23,4.23,0,0,0-3.2,1.85V83h-1.87V74.8c0-1.52-.65-2.5-2.23-2.5A4.21,4.21,0,0,0,150,74.18V83h-1.88V70.93H150v1.75a5.19,5.19,0,0,1,3.9-2.05,3.1,3.1,0,0,1,3.25,2.25,5.07,5.07,0,0,1,4.05-2.25c2.2,0,3.37,1.22,3.37,3.65V83h-1.87Z"/><path class="cls-2" d="M168.27,87.6V70.93h1.88v1.8a5,5,0,0,1,4.07-2.1c3.18,0,5.38,2.4,5.38,6.32s-2.2,6.35-5.38,6.35a4.93,4.93,0,0,1-4.07-2.12V87.6Zm5.48-15.3a4.46,4.46,0,0,0-3.6,1.93v5.45a4.47,4.47,0,0,0,3.6,1.94c2.42,0,3.87-2,3.87-4.67S176.17,72.3,173.75,72.3Z"/><path class="cls-2" d="M190.17,81.62a5.22,5.22,0,0,1-4,1.68,4,4,0,0,1-4.22-4,4,4,0,0,1,4.22-4,5,5,0,0,1,4,1.65V74.8c0-1.62-1.3-2.55-3-2.55a4.81,4.81,0,0,0-3.7,1.68l-.87-1.3a6.32,6.32,0,0,1,4.82-2c2.55,0,4.68,1.15,4.68,4.07V83h-1.88Zm0-3.44a4,4,0,0,0-3.32-1.5,2.65,2.65,0,1,0,0,5.27,4,4,0,0,0,3.32-1.5Z"/><path class="cls-2" d="M204,75.1c0-2.12-1.08-2.8-2.7-2.8a4.65,4.65,0,0,0-3.58,1.88V83H195.8V70.93h1.87v1.75a6,6,0,0,1,4.3-2.05c2.53,0,3.85,1.27,3.85,3.9V83H204Z"/><path class="cls-2" d="M210.22,86.22A1.73,1.73,0,0,0,212,85l.8-1.83-5-12.19h2l4,9.9,4-9.9h2.05l-6.05,14.52a3.59,3.59,0,0,1-3.55,2.45,6,6,0,0,1-1.37-.18l.3-1.7A2.73,2.73,0,0,0,210.22,86.22Z"/><path class="cls-2" d="M228.35,65.83h1.37V83.5h-1.37Z"/><path class="cls-2" d="M240.07,66.33h5.7a8.11,8.11,0,0,1,8.55,8.35c0,4.75-3.38,8.32-8.55,8.32h-5.7Zm5.7,14.82a6.13,6.13,0,0,0,6.4-6.47c0-3.6-2.27-6.5-6.4-6.5h-3.62v13Z"/><path class="cls-2" d="M262.75,70.63c3.65,0,5.8,2.85,5.8,6.47v.48h-9.78a4.25,4.25,0,0,0,4.35,4.17,5.3,5.3,0,0,0,3.73-1.52l.9,1.22A6.57,6.57,0,0,1,263,83.3a6.34,6.34,0,0,1-.2-12.67Zm-4,5.57h7.93a3.92,3.92,0,0,0-4-4A4,4,0,0,0,258.77,76.2Z"/><path class="cls-2" d="M271.57,87.6V70.93h1.88v1.8a5,5,0,0,1,4.07-2.1c3.17,0,5.38,2.4,5.38,6.32s-2.21,6.35-5.38,6.35a4.93,4.93,0,0,1-4.07-2.12V87.6Zm5.48-15.3a4.46,4.46,0,0,0-3.6,1.93v5.45a4.47,4.47,0,0,0,3.6,1.94c2.42,0,3.87-2,3.87-4.67S279.47,72.3,277.05,72.3Z"/><path class="cls-2" d="M293.47,81.62a5.22,5.22,0,0,1-4,1.68,4,4,0,0,1-4.22-4,4,4,0,0,1,4.22-4,5,5,0,0,1,4,1.65V74.8c0-1.62-1.3-2.55-3.05-2.55a4.81,4.81,0,0,0-3.7,1.68l-.87-1.3a6.32,6.32,0,0,1,4.82-2c2.55,0,4.68,1.15,4.68,4.07V83h-1.88Zm0-3.44a4,4,0,0,0-3.32-1.5,2.65,2.65,0,1,0,0,5.27,4,4,0,0,0,3.32-1.5Z"/><path class="cls-2" d="M299.1,70.93H301v1.95a5.14,5.14,0,0,1,4-2.2V72.6a3.36,3.36,0,0,0-.75-.07A4.44,4.44,0,0,0,301,74.45V83H299.1Z"/><path class="cls-2" d="M307.72,80.48v-7.9h-2V70.93h2v-3.3h1.88v3.3h2.45v1.65H309.6v7.5c0,.9.4,1.54,1.22,1.54a1.79,1.79,0,0,0,1.28-.5l.55,1.41a3.12,3.12,0,0,1-2.25.77C308.62,83.3,307.72,82.28,307.72,80.48Z"/><path class="cls-2" d="M329.27,74.8c0-1.52-.68-2.5-2.23-2.5a4.23,4.23,0,0,0-3.2,1.85V83H322V74.8c0-1.52-.65-2.5-2.22-2.5a4.21,4.21,0,0,0-3.18,1.88V83H314.7V70.93h1.87v1.75a5.21,5.21,0,0,1,3.9-2.05,3.1,3.1,0,0,1,3.25,2.25,5.07,5.07,0,0,1,4-2.25c2.2,0,3.37,1.22,3.37,3.65V83h-1.87Z"/><path class="cls-2" d="M340.15,70.63c3.64,0,5.79,2.85,5.79,6.47v.48h-9.77a4.25,4.25,0,0,0,4.35,4.17,5.27,5.27,0,0,0,3.72-1.52l.9,1.22a6.54,6.54,0,0,1-4.79,1.85,6.34,6.34,0,0,1-.2-12.67Zm-4,5.57h7.92a3.9,3.9,0,0,0-4-4A4,4,0,0,0,336.17,76.2Z"/><path class="cls-2" d="M357.12,75.1c0-2.12-1.08-2.8-2.7-2.8a4.63,4.63,0,0,0-3.57,1.88V83H349V70.93h1.88v1.75a6,6,0,0,1,4.29-2.05c2.53,0,3.85,1.27,3.85,3.9V83h-1.87Z"/><path class="cls-2" d="M363.12,80.48v-7.9h-2V70.93h2v-3.3H365v3.3h2.44v1.65H365v7.5c0,.9.4,1.54,1.22,1.54a1.78,1.78,0,0,0,1.27-.5l.55,1.41a3.07,3.07,0,0,1-2.24.77C364,83.3,363.12,82.28,363.12,80.48Z"/></g></g><line id="Line_20" data-name="Line 20" class="cls-7" x1="0.5" y1="112.5" x2="396.5" y2="112.5"/><line id="Line_21" data-name="Line 21" class="cls-7" x1="0.5" y1="221.5" x2="396.5" y2="221.5"/><g id="Exalton_App-2" data-name="Exalton App-2" class="cls-1"><g class="cls-1"><path class="cls-2" d="M117,162.33h10.92v1.85H119v5.37h8.68v1.85H119v5.75h8.85V179H117Z"/><path class="cls-2" d="M135.3,174.05,131.67,179h-2.15l4.63-6.2-4.38-5.87H132l3.35,4.6,3.35-4.6h2.17l-4.37,5.87,4.65,6.2h-2.18Z"/><path class="cls-2" d="M150.8,177.63a5.26,5.26,0,0,1-4,1.67,4,4,0,0,1-4.23-4,4,4,0,0,1,4.23-4,5,5,0,0,1,4,1.65V170.8c0-1.62-1.3-2.55-3.05-2.55a4.79,4.79,0,0,0-3.7,1.68l-.88-1.3a6.32,6.32,0,0,1,4.83-2c2.55,0,4.67,1.15,4.67,4.07V179H150.8Zm0-3.45a4.05,4.05,0,0,0-3.33-1.5,2.65,2.65,0,1,0,0,5.27,4.05,4.05,0,0,0,3.33-1.5Z"/><path class="cls-2" d="M156.42,162.33h1.88V179h-1.88Z"/><path class="cls-2" d="M162.42,176.48v-7.9h-2v-1.65h2v-3.3h1.88v3.3h2.45v1.65H164.3v7.5c0,.9.4,1.55,1.22,1.55a1.83,1.83,0,0,0,1.28-.5l.55,1.4a3.12,3.12,0,0,1-2.25.77C163.32,179.3,162.42,178.28,162.42,176.48Z"/><path class="cls-2" d="M168.7,173c0-3.5,2.3-6.32,6-6.32s6,2.82,6,6.32-2.3,6.35-6,6.35S168.7,176.45,168.7,173Zm10,0c0-2.45-1.42-4.65-4-4.65s-4,2.2-4,4.65,1.45,4.68,4,4.68S178.67,175.43,178.67,173Z"/><path class="cls-2" d="M191.85,171.1c0-2.12-1.08-2.8-2.7-2.8a4.65,4.65,0,0,0-3.58,1.88V179H183.7V166.93h1.87v1.75a6,6,0,0,1,4.3-2.05c2.53,0,3.85,1.27,3.85,3.9V179h-1.87Z"/><path class="cls-2" d="M214.49,175.3h-8.44l-1.48,3.7h-2.3l6.7-16.67h2.58L218.27,179H216Zm-7.84-1.85h7.22l-3.6-9.27Z"/><path class="cls-2" d="M220.37,183.6V166.93h1.88v1.8a5,5,0,0,1,4.07-2.1c3.17,0,5.37,2.4,5.37,6.32s-2.2,6.35-5.37,6.35a4.93,4.93,0,0,1-4.07-2.12v6.42Zm5.48-15.3a4.46,4.46,0,0,0-3.6,1.93v5.45a4.48,4.48,0,0,0,3.6,1.95c2.42,0,3.87-2,3.87-4.68S228.27,168.3,225.85,168.3Z"/><path class="cls-2" d="M234.72,183.6V166.93h1.88v1.8a5,5,0,0,1,4.07-2.1c3.17,0,5.37,2.4,5.37,6.32s-2.2,6.35-5.37,6.35a4.93,4.93,0,0,1-4.07-2.12v6.42Zm5.48-15.3a4.46,4.46,0,0,0-3.6,1.93v5.45a4.48,4.48,0,0,0,3.6,1.95c2.42,0,3.87-2,3.87-4.68S242.62,168.3,240.2,168.3Z"/></g></g><path id="_ionicons_svg_md-arrow-dropright" data-name=" ionicons svg md-arrow-dropright" class="cls-8" d="M287,165l7.5,7.5L287,180Z"/><path id="_ionicons_svg_md-arrow-dropright-2" data-name=" ionicons svg md-arrow-dropright-2" class="cls-8" d="M211.25,470.75l-7.5,7.5-7.5-7.5Z"/><rect id="Rectangle_17" data-name="Rectangle 17" class="cls-5" x="16" y="241" width="217" height="81" rx="10"/><g id="New_File" data-name="New File" class="cls-1"><g class="cls-1"><path class="cls-2" d="M93.64,274.17V293H90.73V269.65h3l13.44,18.45V269.65h2.9V293h-2.8Z"/><path class="cls-2" d="M122.76,275.67c5.11,0,8.12,4,8.12,9.07v.66H117.19a6,6,0,0,0,6.09,5.85,7.38,7.38,0,0,0,5.22-2.14l1.26,1.72a9.19,9.19,0,0,1-6.72,2.59c-5,0-8.62-3.61-8.62-8.89C114.42,279.63,117.93,275.67,122.76,275.67Zm-5.57,7.81h11.1a5.49,5.49,0,0,0-5.57-5.64C119.11,277.84,117.33,280.89,117.19,283.48Z"/><path class="cls-2" d="M145.33,279.42,140.92,293h-2.63l-5.39-16.91h2.73l4.14,13.48,4.44-13.48h2.24l4.45,13.48L155,276.09h2.73L152.37,293h-2.63Z"/><path class="cls-2" d="M169.93,269.65h15.3v2.59H172.84v7.53H185v2.59H172.84V293h-2.91Z"/><path class="cls-2" d="M188.62,271.47a1.77,1.77,0,0,1,3.54,0,1.77,1.77,0,1,1-3.54,0Zm.46,4.62h2.62V293h-2.62Z"/><path class="cls-2" d="M197,269.65h2.63V293H197Z"/><path class="cls-2" d="M212.18,275.67c5.11,0,8.12,4,8.12,9.07v.66H206.61a6,6,0,0,0,6.09,5.85,7.38,7.38,0,0,0,5.22-2.14l1.26,1.72a9.19,9.19,0,0,1-6.72,2.59c-5,0-8.61-3.61-8.61-8.89C203.85,279.63,207.35,275.67,212.18,275.67Zm-5.57,7.81h11.1a5.49,5.49,0,0,0-5.57-5.64C208.54,277.84,206.75,280.89,206.61,283.48Z"/></g></g><g id="Dashboard" class="cls-1"><g class="cls-1"><path class="cls-2" d="M89.56,364.66h4.56a6.67,6.67,0,1,1,0,13.34H89.56Zm4.56,11.86a5.19,5.19,0,0,0,0-10.38h-2.9v10.38Z"/><path class="cls-2" d="M109.54,376.9a4.18,4.18,0,0,1-3.2,1.34A3.22,3.22,0,0,1,103,375a3.16,3.16,0,0,1,3.38-3.18,4,4,0,0,1,3.2,1.32v-1.74c0-1.3-1-2-2.44-2a3.84,3.84,0,0,0-3,1.34l-.7-1a5.06,5.06,0,0,1,3.86-1.6c2,0,3.74.92,3.74,3.26V378h-1.5Zm0-2.76a3.23,3.23,0,0,0-2.66-1.2,2.13,2.13,0,1,0,0,4.22,3.23,3.23,0,0,0,2.66-1.2Z"/><path class="cls-2" d="M114,375.64a4.38,4.38,0,0,0,3.18,1.38c1.48,0,2.28-.66,2.28-1.6s-1.18-1.4-2.48-1.72c-1.64-.38-3.5-.82-3.5-2.82,0-1.5,1.3-2.78,3.6-2.78a4.89,4.89,0,0,1,3.58,1.4l-.7,1a3.76,3.76,0,0,0-2.88-1.22c-1.32,0-2.14.6-2.14,1.46s1.1,1.24,2.36,1.54c1.68.38,3.62.86,3.62,3,0,1.62-1.3,2.92-3.8,2.92a5.14,5.14,0,0,1-3.9-1.52Z"/><path class="cls-2" d="M129.88,371.64c0-1.7-.88-2.2-2.18-2.2a3.8,3.8,0,0,0-2.86,1.5V378h-1.5V364.66h1.5v5.08a4.8,4.8,0,0,1,3.46-1.64c2,0,3.08,1,3.08,3.08V378h-1.5Z"/><path class="cls-2" d="M134.38,364.66h1.5v5.14a4,4,0,0,1,3.26-1.7c2.52,0,4.3,2,4.3,5.08s-1.78,5.06-4.3,5.06a4.07,4.07,0,0,1-3.26-1.68V378h-1.5Zm4.38,12.24c2,0,3.12-1.58,3.12-3.72s-1.16-3.74-3.12-3.74a3.59,3.59,0,0,0-2.88,1.56v4.38A3.55,3.55,0,0,0,138.76,376.9Z"/><path class="cls-2" d="M145.32,373.16a4.79,4.79,0,1,1,4.78,5.08A4.74,4.74,0,0,1,145.32,373.16Zm8,0c0-2-1.14-3.72-3.2-3.72s-3.22,1.76-3.22,3.72,1.16,3.74,3.22,3.74S153.3,375.14,153.3,373.16Z"/><path class="cls-2" d="M163.36,376.9a4.18,4.18,0,0,1-3.2,1.34,3.22,3.22,0,0,1-3.38-3.2,3.16,3.16,0,0,1,3.38-3.18,4,4,0,0,1,3.2,1.32v-1.74c0-1.3-1-2-2.44-2a3.84,3.84,0,0,0-3,1.34l-.7-1a5.06,5.06,0,0,1,3.86-1.6c2,0,3.74.92,3.74,3.26V378h-1.5Zm0-2.76a3.23,3.23,0,0,0-2.66-1.2,2.13,2.13,0,1,0,0,4.22,3.23,3.23,0,0,0,2.66-1.2Z"/><path class="cls-2" d="M167.86,368.34h1.5v1.56a4.11,4.11,0,0,1,3.22-1.76v1.54a2.64,2.64,0,0,0-.6-.06,3.53,3.53,0,0,0-2.62,1.54V378h-1.5Z"/><path class="cls-2" d="M181.46,376.56a4.07,4.07,0,0,1-3.26,1.68c-2.52,0-4.3-1.92-4.3-5.06s1.76-5.08,4.3-5.08a4,4,0,0,1,3.26,1.7v-5.14H183V378h-1.5Zm0-5.56a3.63,3.63,0,0,0-2.9-1.56c-1.94,0-3.1,1.6-3.1,3.74s1.16,3.72,3.1,3.72a3.59,3.59,0,0,0,2.9-1.52Z"/></g></g><g id="Teams" class="cls-1"><g class="cls-1"><path class="cls-2" d="M92.86,470.14H88.64v-1.48H98.76v1.48H94.52V482H92.86Z"/><path class="cls-2" d="M102.8,472.1c2.92,0,4.64,2.28,4.64,5.18v.38H99.62A3.4,3.4,0,0,0,103.1,481a4.22,4.22,0,0,0,3-1.22l.72,1a5.25,5.25,0,0,1-3.84,1.48,5.08,5.08,0,0,1-.16-10.14Zm-3.18,4.46H106a3.13,3.13,0,0,0-3.18-3.22A3.22,3.22,0,0,0,99.62,476.56Z"/><path class="cls-2" d="M115.9,480.9a4.18,4.18,0,0,1-3.2,1.34,3.22,3.22,0,0,1-3.38-3.2,3.16,3.16,0,0,1,3.38-3.18,4,4,0,0,1,3.2,1.32v-1.74c0-1.3-1-2-2.44-2a3.84,3.84,0,0,0-3,1.34l-.7-1a5.06,5.06,0,0,1,3.86-1.6c2,0,3.74.92,3.74,3.26V482h-1.5Zm0-2.76a3.23,3.23,0,0,0-2.66-1.2,2.13,2.13,0,1,0,0,4.22,3.23,3.23,0,0,0,2.66-1.2Z"/><path class="cls-2" d="M132.06,475.44c0-1.22-.54-2-1.78-2a3.38,3.38,0,0,0-2.56,1.48V482h-1.5v-6.56c0-1.22-.52-2-1.78-2a3.37,3.37,0,0,0-2.54,1.5V482h-1.5v-9.66h1.5v1.4A4.18,4.18,0,0,1,125,472.1a2.48,2.48,0,0,1,2.6,1.8,4.07,4.07,0,0,1,3.24-1.8c1.76,0,2.7,1,2.7,2.92v7h-1.5Z"/><path class="cls-2" d="M136.5,479.64a4.38,4.38,0,0,0,3.18,1.38c1.48,0,2.28-.66,2.28-1.6s-1.18-1.4-2.48-1.72c-1.64-.38-3.5-.82-3.5-2.82,0-1.5,1.3-2.78,3.6-2.78a4.89,4.89,0,0,1,3.58,1.4l-.7,1a3.76,3.76,0,0,0-2.88-1.22c-1.32,0-2.14.6-2.14,1.46s1.1,1.24,2.36,1.54c1.68.38,3.62.86,3.62,3,0,1.62-1.3,2.92-3.8,2.92a5.14,5.14,0,0,1-3.9-1.52Z"/></g></g><g id="All_Files" data-name="All Files" class="cls-1"><g class="cls-1"><path class="cls-2" d="M98,531H91.2L90,534H88.18l5.36-13.34H95.6L101,534H99.14Zm-6.28-1.48h5.78l-2.88-7.42Z"/><path class="cls-2" d="M102.66,520.66h1.5V534h-1.5Z"/><path class="cls-2" d="M107.16,520.66h1.5V534h-1.5Z"/><path class="cls-2" d="M116.88,520.66h8.74v1.48h-7.08v4.3h6.94v1.48h-6.94V534h-1.66Z"/><path class="cls-2" d="M127.56,521.7a1,1,0,0,1,2,0,1,1,0,1,1-2,0Zm.26,2.64h1.5V534h-1.5Z"/><path class="cls-2" d="M132.32,520.66h1.5V534h-1.5Z"/><path class="cls-2" d="M141,524.1c2.92,0,4.64,2.28,4.64,5.18v.38h-7.82a3.4,3.4,0,0,0,3.48,3.34,4.22,4.22,0,0,0,3-1.22l.72,1a5.25,5.25,0,0,1-3.84,1.48A5.08,5.08,0,0,1,141,524.1Zm-3.18,4.46h6.34a3.13,3.13,0,0,0-3.18-3.22A3.22,3.22,0,0,0,137.84,528.56Z"/><path class="cls-2" d="M148,531.64A4.38,4.38,0,0,0,151.2,533c1.48,0,2.28-.66,2.28-1.6S152.3,530,151,529.7c-1.64-.38-3.5-.82-3.5-2.82,0-1.5,1.3-2.78,3.6-2.78a4.89,4.89,0,0,1,3.58,1.4l-.7,1a3.76,3.76,0,0,0-2.88-1.22c-1.32,0-2.14.6-2.14,1.46s1.1,1.24,2.36,1.54c1.68.38,3.62.86,3.62,3,0,1.62-1.3,2.92-3.8,2.92a5.14,5.14,0,0,1-3.9-1.52Z"/></g></g><g id="Starred" class="cls-1"><g class="cls-1"><path class="cls-2" d="M89.74,582.86a5.64,5.64,0,0,0,4.2,1.9c2.38,0,3.14-1.28,3.14-2.3,0-1.6-1.62-2-3.38-2.52-2.14-.56-4.52-1.16-4.52-3.78,0-2.2,2-3.7,4.58-3.7a6.27,6.27,0,0,1,4.74,1.86l-1,1.22a5.1,5.1,0,0,0-3.86-1.6c-1.6,0-2.74.86-2.74,2.12s1.54,1.74,3.24,2.2c2.18.58,4.66,1.26,4.66,4.06,0,1.94-1.32,3.92-4.92,3.92a6.61,6.61,0,0,1-5.12-2.12Z"/><path class="cls-2" d="M101.18,584v-6.32h-1.6v-1.32h1.6V573.7h1.5v2.64h2v1.32h-2v6c0,.72.32,1.24,1,1.24a1.45,1.45,0,0,0,1-.4l.44,1.12a2.45,2.45,0,0,1-1.8.62A2,2,0,0,1,101.18,584Z"/><path class="cls-2" d="M112.8,584.9a4.18,4.18,0,0,1-3.2,1.34,3.22,3.22,0,0,1-3.38-3.2,3.16,3.16,0,0,1,3.38-3.18,4,4,0,0,1,3.2,1.32v-1.74c0-1.3-1-2-2.44-2a3.84,3.84,0,0,0-3,1.34l-.7-1a5.06,5.06,0,0,1,3.86-1.6c2,0,3.74.92,3.74,3.26V586h-1.5Zm0-2.76a3.23,3.23,0,0,0-2.66-1.2,2.13,2.13,0,1,0,0,4.22,3.23,3.23,0,0,0,2.66-1.2Z"/><path class="cls-2" d="M117.3,576.34h1.5v1.56a4.11,4.11,0,0,1,3.22-1.76v1.54a2.64,2.64,0,0,0-.6-.06,3.53,3.53,0,0,0-2.62,1.54V586h-1.5Z"/><path class="cls-2" d="M123.9,576.34h1.5v1.56a4.11,4.11,0,0,1,3.22-1.76v1.54a2.64,2.64,0,0,0-.6-.06,3.53,3.53,0,0,0-2.62,1.54V586h-1.5Z"/><path class="cls-2" d="M134.7,576.1c2.92,0,4.64,2.28,4.64,5.18v.38h-7.82A3.4,3.4,0,0,0,135,585a4.22,4.22,0,0,0,3-1.22l.72,1a5.25,5.25,0,0,1-3.84,1.48,5.08,5.08,0,0,1-.16-10.14Zm-3.18,4.46h6.34a3.13,3.13,0,0,0-3.18-3.22A3.22,3.22,0,0,0,131.52,580.56Z"/><path class="cls-2" d="M148.76,584.56a4.07,4.07,0,0,1-3.26,1.68c-2.52,0-4.3-1.92-4.3-5.06s1.76-5.08,4.3-5.08a4,4,0,0,1,3.26,1.7v-5.14h1.5V586h-1.5Zm0-5.56a3.63,3.63,0,0,0-2.9-1.56c-1.94,0-3.1,1.6-3.1,3.74s1.16,3.72,3.1,3.72a3.59,3.59,0,0,0,2.9-1.52Z"/></g></g><g id="Recent" class="cls-1"><g class="cls-1"><path class="cls-2" d="M93.88,632.7H91.22V638H89.56V624.66h5.36a3.89,3.89,0,0,1,4.18,4,3.69,3.69,0,0,1-3.46,3.88l3.6,5.44h-2Zm.84-6.56h-3.5v5.1h3.5a2.55,2.55,0,1,0,0-5.1Z"/><path class="cls-2" d="M105.26,628.1c2.92,0,4.64,2.28,4.64,5.18v.38h-7.82a3.4,3.4,0,0,0,3.48,3.34,4.22,4.22,0,0,0,3-1.22l.72,1a5.25,5.25,0,0,1-3.84,1.48,5.08,5.08,0,0,1-.16-10.14Zm-3.18,4.46h6.34a3.13,3.13,0,0,0-3.18-3.22A3.22,3.22,0,0,0,102.08,632.56Z"/><path class="cls-2" d="M116.58,628.1a4.13,4.13,0,0,1,3.54,1.68l-1,.92a2.86,2.86,0,0,0-2.46-1.26c-2.06,0-3.34,1.58-3.34,3.72s1.28,3.74,3.34,3.74a2.91,2.91,0,0,0,2.46-1.26l1,.92a4.13,4.13,0,0,1-3.54,1.68,5.08,5.08,0,0,1,0-10.14Z"/><path class="cls-2" d="M126.42,628.1c2.92,0,4.64,2.28,4.64,5.18v.38h-7.82a3.4,3.4,0,0,0,3.48,3.34,4.22,4.22,0,0,0,3-1.22l.72,1a5.25,5.25,0,0,1-3.84,1.48,5.08,5.08,0,0,1-.16-10.14Zm-3.18,4.46h6.34a3.13,3.13,0,0,0-3.18-3.22A3.22,3.22,0,0,0,123.24,632.56Z"/><path class="cls-2" d="M140,631.68c0-1.7-.86-2.24-2.16-2.24a3.73,3.73,0,0,0-2.86,1.5V638h-1.5v-9.66H135v1.4a4.79,4.79,0,0,1,3.44-1.64c2,0,3.08,1,3.08,3.12V638H140Z"/><path class="cls-2" d="M144.8,636v-6.32h-1.6v-1.32h1.6V625.7h1.5v2.64h2v1.32h-2v6c0,.72.32,1.24,1,1.24a1.45,1.45,0,0,0,1-.4l.44,1.12a2.45,2.45,0,0,1-1.8.62A2,2,0,0,1,144.8,636Z"/></g></g><g id="Trash" class="cls-1"><g class="cls-1"><path class="cls-2" d="M92.86,678.14H88.64v-1.48H98.76v1.48H94.52V690H92.86Z"/><path class="cls-2" d="M99.2,680.34h1.5v1.56a4.11,4.11,0,0,1,3.22-1.76v1.54a2.64,2.64,0,0,0-.6-.06,3.53,3.53,0,0,0-2.62,1.54V690H99.2Z"/><path class="cls-2" d="M111.84,688.9a4.18,4.18,0,0,1-3.2,1.34,3.22,3.22,0,0,1-3.38-3.2,3.16,3.16,0,0,1,3.38-3.18,4,4,0,0,1,3.2,1.32v-1.74c0-1.3-1-2-2.44-2a3.84,3.84,0,0,0-3,1.34l-.7-1a5.06,5.06,0,0,1,3.86-1.6c2,0,3.74.92,3.74,3.26V690h-1.5Zm0-2.76a3.23,3.23,0,0,0-2.66-1.2,2.13,2.13,0,1,0,0,4.22,3.23,3.23,0,0,0,2.66-1.2Z"/><path class="cls-2" d="M116.28,687.64a4.38,4.38,0,0,0,3.18,1.38c1.48,0,2.28-.66,2.28-1.6s-1.18-1.4-2.48-1.72c-1.64-.38-3.5-.82-3.5-2.82,0-1.5,1.3-2.78,3.6-2.78a4.89,4.89,0,0,1,3.58,1.4l-.7,1a3.76,3.76,0,0,0-2.88-1.22c-1.32,0-2.14.6-2.14,1.46s1.1,1.24,2.36,1.54c1.68.38,3.62.86,3.62,3,0,1.62-1.3,2.92-3.8,2.92a5.14,5.14,0,0,1-3.9-1.52Z"/><path class="cls-2" d="M132.18,683.64c0-1.7-.88-2.2-2.18-2.2a3.8,3.8,0,0,0-2.86,1.5V690h-1.5V676.66h1.5v5.08a4.8,4.8,0,0,1,3.46-1.64c2,0,3.08,1,3.08,3.08V690h-1.5Z"/></g></g><line id="Line_22" data-name="Line 22" class="cls-7" x1="0.5" y1="709.5" x2="396.5" y2="709.5"/><g id="Storage" class="cls-1"><g class="cls-1"><path class="cls-2" d="M90,743a5.85,5.85,0,0,0,4.24,1.8c1.56,0,2.32-.74,2.32-1.5,0-1-1.16-1.34-2.7-1.7-2.18-.5-5-1.1-5-4.08,0-2.22,1.92-4,5.06-4a7.42,7.42,0,0,1,5.2,1.86l-1.58,2.08a5.69,5.69,0,0,0-3.82-1.46c-1.28,0-2,.56-2,1.36s1.12,1.18,2.66,1.54c2.2.5,5,1.16,5,4.12,0,2.44-1.74,4.28-5.34,4.28a7.69,7.69,0,0,1-5.66-2.12Z"/><path class="cls-2" d="M101.54,744.6v-5h-1.6v-2.22h1.6V734.7h2.56v2.64h2v2.22h-2v4.36c0,.6.32,1.06.88,1.06a1.39,1.39,0,0,0,.88-.28l.54,1.92a3.14,3.14,0,0,1-2.12.62A2.41,2.41,0,0,1,101.54,744.6Z"/><path class="cls-2" d="M107.18,742.16a5.11,5.11,0,1,1,5.1,5.08A4.89,4.89,0,0,1,107.18,742.16Zm7.58,0a2.49,2.49,0,1,0-2.48,2.82A2.55,2.55,0,0,0,114.76,742.16Z"/><path class="cls-2" d="M119.28,737.34h2.54v1.32a4.13,4.13,0,0,1,3.08-1.54v2.48a3.12,3.12,0,0,0-3.08,1V747h-2.54Z"/><path class="cls-2" d="M132.28,746a4,4,0,0,1-3.06,1.24,3.22,3.22,0,0,1-3.36-3.2,3.06,3.06,0,0,1,3.36-3.08,3.9,3.9,0,0,1,3.06,1.18V740.8c0-1-.84-1.62-2.12-1.62a4.06,4.06,0,0,0-2.82,1.14l-1-1.7a6.34,6.34,0,0,1,4.22-1.52c2.2,0,4.22.88,4.22,3.66V747h-2.54Zm0-2.52a2.54,2.54,0,0,0-2-.84c-1,0-1.82.52-1.82,1.46s.82,1.42,1.82,1.42a2.54,2.54,0,0,0,2-.84Z"/><path class="cls-2" d="M138.28,747.64a3.84,3.84,0,0,0,3,1.2A2.36,2.36,0,0,0,144,746.4v-1a3.76,3.76,0,0,1-3,1.52c-2.42,0-4.26-1.7-4.26-4.92s1.82-4.92,4.26-4.92a3.72,3.72,0,0,1,3,1.48v-1.24h2.56v9c0,3.68-2.84,4.58-5.22,4.58a5.85,5.85,0,0,1-4.16-1.44Zm5.68-7.18a2.75,2.75,0,0,0-2.18-1.1,2.67,2.67,0,0,0,0,5.32,2.81,2.81,0,0,0,2.18-1.1Z"/><path class="cls-2" d="M153.42,737.1c2.88,0,4.84,2.16,4.84,5.32V743h-7.18a2.6,2.6,0,0,0,2.78,2.24,4,4,0,0,0,2.58-1l1.12,1.64a6,6,0,0,1-4,1.34,5.07,5.07,0,1,1-.16-10.14ZM151,741.26h4.76a2.24,2.24,0,0,0-2.38-2.14A2.32,2.32,0,0,0,151,741.26Z"/></g></g><rect id="Rectangle_19" data-name="Rectangle 19" class="cls-5" x="16" y="767" width="369" height="14"/><rect id="Rectangle_20" data-name="Rectangle 20" class="cls-9" x="16" y="767" width="176" height="14"/><g id="_10_GB_of_20_GB_used" data-name=" 10 GB of 20 GB used" class="cls-1"><g class="cls-1"><path class="cls-2" d="M105.56,792.86l-2.14,2.26-1-1,3.34-3.44h1.46V804h-1.66Z"/><path class="cls-2" d="M114.9,790.46c3.64,0,5.1,3.62,5.1,6.88s-1.46,6.9-5.1,6.9-5.1-3.66-5.1-6.9S111.24,790.46,114.9,790.46Zm0,1.48c-2.54,0-3.4,2.74-3.4,5.4s.86,5.42,3.4,5.42,3.4-2.76,3.4-5.42S117.44,791.94,114.9,791.94Z"/><path class="cls-2" d="M134.06,790.44a6.36,6.36,0,0,1,5.18,2.5l-1.32.82a4.92,4.92,0,0,0-3.86-1.84,5.44,5.44,0,0,0,0,10.86,5.26,5.26,0,0,0,3.58-1.44v-2.72h-4.58v-1.48h6.24V802a7,7,0,0,1-5.24,2.3,6.91,6.91,0,0,1,0-13.82Z"/><path class="cls-2" d="M142,790.66h5.94c2.32,0,3.74,1.4,3.74,3.4a3,3,0,0,1-2.34,3.06,3.33,3.33,0,0,1,2.6,3.28c0,2.14-1.42,3.6-3.86,3.6H142Zm5.66,5.78a2.07,2.07,0,0,0,2.3-2.14,2.1,2.1,0,0,0-2.3-2.16h-4v4.3Zm.08,6.08a2.21,2.21,0,0,0,2.48-2.3,2.27,2.27,0,0,0-2.48-2.3h-4.08v4.6Z"/><path class="cls-2" d="M159.12,799.16a4.79,4.79,0,1,1,4.78,5.08A4.74,4.74,0,0,1,159.12,799.16Zm8,0c0-2-1.14-3.72-3.2-3.72s-3.22,1.76-3.22,3.72,1.16,3.74,3.22,3.74S167.1,801.14,167.1,799.16Z"/><path class="cls-2" d="M171.54,795.66h-1.6v-1.32h1.6v-.74c0-2,1.12-3.14,2.8-3.14a2.77,2.77,0,0,1,1.46.34l-.38,1.12a1.66,1.66,0,0,0-.86-.22c-1,0-1.52.68-1.52,1.9v.74h2v1.32h-2V804h-1.5Z"/><path class="cls-2" d="M181.52,802.68c4.8-3.78,7.4-6,7.4-8.3a2.49,2.49,0,0,0-2.78-2.44,4.46,4.46,0,0,0-3.62,1.68l-1-1.06a5.78,5.78,0,0,1,4.64-2.1c2.22,0,4.48,1.26,4.48,3.92s-2.76,5.2-6.48,8.14h6.54V804h-9.16Z"/><path class="cls-2" d="M198.32,790.46c3.64,0,5.1,3.62,5.1,6.88s-1.46,6.9-5.1,6.9-5.1-3.66-5.1-6.9S194.66,790.46,198.32,790.46Zm0,1.48c-2.54,0-3.4,2.74-3.4,5.4s.86,5.42,3.4,5.42,3.4-2.76,3.4-5.42S200.86,791.94,198.32,791.94Z"/><path class="cls-2" d="M217.48,790.44a6.36,6.36,0,0,1,5.18,2.5l-1.32.82a4.92,4.92,0,0,0-3.86-1.84,5.44,5.44,0,0,0,0,10.86,5.26,5.26,0,0,0,3.58-1.44v-2.72h-4.58v-1.48h6.24V802a7,7,0,0,1-5.24,2.3,6.91,6.91,0,0,1,0-13.82Z"/><path class="cls-2" d="M225.42,790.66h5.94c2.32,0,3.74,1.4,3.74,3.4a3,3,0,0,1-2.34,3.06,3.33,3.33,0,0,1,2.6,3.28c0,2.14-1.42,3.6-3.86,3.6h-6.08Zm5.66,5.78a2.07,2.07,0,0,0,2.3-2.14,2.1,2.1,0,0,0-2.3-2.16h-4v4.3Zm.08,6.08a2.21,2.21,0,0,0,2.48-2.3,2.27,2.27,0,0,0-2.48-2.3h-4.08v4.6Z"/><path class="cls-2" d="M249.62,802.64a4.73,4.73,0,0,1-3.44,1.6c-2,0-3.08-1-3.08-3.08v-6.82h1.5v6.36c0,1.7.86,2.2,2.16,2.2a3.7,3.7,0,0,0,2.86-1.46v-7.1h1.5V804h-1.5Z"/><path class="cls-2" d="M254.06,801.64a4.38,4.38,0,0,0,3.18,1.38c1.48,0,2.28-.66,2.28-1.6s-1.18-1.4-2.48-1.72c-1.64-.38-3.5-.82-3.5-2.82,0-1.5,1.3-2.78,3.6-2.78a4.89,4.89,0,0,1,3.58,1.4l-.7,1a3.76,3.76,0,0,0-2.88-1.22c-1.32,0-2.14.6-2.14,1.46s1.1,1.24,2.36,1.54c1.68.38,3.62.86,3.62,3,0,1.62-1.3,2.92-3.8,2.92a5.14,5.14,0,0,1-3.9-1.52Z"/><path class="cls-2" d="M267.62,794.1c2.92,0,4.64,2.28,4.64,5.18v.38h-7.82a3.4,3.4,0,0,0,3.48,3.34,4.22,4.22,0,0,0,3-1.22l.72,1a5.25,5.25,0,0,1-3.84,1.48,5.08,5.08,0,0,1-.16-10.14Zm-3.18,4.46h6.34a3.13,3.13,0,0,0-3.18-3.22A3.22,3.22,0,0,0,264.44,798.56Z"/><path class="cls-2" d="M281.68,802.56a4.07,4.07,0,0,1-3.26,1.68c-2.52,0-4.3-1.92-4.3-5.06s1.76-5.08,4.3-5.08a4,4,0,0,1,3.26,1.7v-5.14h1.5V804h-1.5Zm0-5.56a3.63,3.63,0,0,0-2.9-1.56c-1.94,0-3.1,1.6-3.1,3.74s1.16,3.72,3.1,3.72a3.59,3.59,0,0,0,2.9-1.52Z"/></g></g><g id="Upgrade" class="cls-1"><g class="cls-1"><path class="cls-2" d="M156.32,816.66h2.88v7.92a3.08,3.08,0,1,0,6.16,0v-7.92h2.88v8c0,3.32-1.9,5.58-5.94,5.58s-6-2.28-6-5.56Z"/><path class="cls-2" d="M170.82,833.68V820.34h2.54v1.22a3.73,3.73,0,0,1,3-1.46c2.48,0,4.28,1.84,4.28,5.06s-1.8,5.08-4.28,5.08a3.69,3.69,0,0,1-3-1.48v4.92Zm4.72-11.32a2.84,2.84,0,0,0-2.18,1.1v3.42a2.91,2.91,0,0,0,2.18,1.1c1.46,0,2.44-1.14,2.44-2.82A2.5,2.5,0,0,0,175.54,822.36Z"/><path class="cls-2" d="M183.46,830.64a3.84,3.84,0,0,0,3,1.2,2.36,2.36,0,0,0,2.66-2.44v-1a3.76,3.76,0,0,1-3,1.52c-2.42,0-4.26-1.7-4.26-4.92s1.82-4.92,4.26-4.92a3.72,3.72,0,0,1,3,1.48v-1.24h2.56v9c0,3.68-2.84,4.58-5.22,4.58a5.85,5.85,0,0,1-4.16-1.44Zm5.68-7.18a2.75,2.75,0,0,0-2.18-1.1,2.67,2.67,0,0,0,0,5.32,2.81,2.81,0,0,0,2.18-1.1Z"/><path class="cls-2" d="M194.22,820.34h2.54v1.32a4.13,4.13,0,0,1,3.08-1.54v2.48a3.12,3.12,0,0,0-3.08,1V830h-2.54Z"/><path class="cls-2" d="M207.22,829a4,4,0,0,1-3.06,1.24,3.22,3.22,0,0,1-3.36-3.2,3.06,3.06,0,0,1,3.36-3.08,3.9,3.9,0,0,1,3.06,1.18V823.8c0-1-.84-1.62-2.12-1.62a4.06,4.06,0,0,0-2.82,1.14l-1-1.7a6.34,6.34,0,0,1,4.22-1.52c2.2,0,4.22.88,4.22,3.66V830h-2.54Zm0-2.52a2.54,2.54,0,0,0-2-.84c-1,0-1.82.52-1.82,1.46s.82,1.42,1.82,1.42a2.54,2.54,0,0,0,2-.84Z"/><path class="cls-2" d="M218.92,828.76a3.75,3.75,0,0,1-3,1.48c-2.44,0-4.28-1.84-4.28-5.06s1.82-5.08,4.28-5.08a3.72,3.72,0,0,1,3,1.48v-4.92h2.56V830h-2.56Zm0-5.3a2.76,2.76,0,0,0-2.2-1.1,2.84,2.84,0,0,0,0,5.62,2.76,2.76,0,0,0,2.2-1.1Z"/><path class="cls-2" d="M228.38,820.1c2.88,0,4.84,2.16,4.84,5.32V826H226a2.6,2.6,0,0,0,2.78,2.24,4,4,0,0,0,2.58-1l1.12,1.64a6,6,0,0,1-4,1.34,5.07,5.07,0,1,1-.16-10.14ZM226,824.26h4.76a2.24,2.24,0,0,0-2.38-2.14A2.32,2.32,0,0,0,226,824.26Z"/></g></g><g id="_ionicons_svg_md-analytics" data-name=" ionicons svg md-analytics"><path id="Path_12" data-name="Path 12" class="cls-6" d="M51.31,365.39l-5.1,7.8a2.72,2.72,0,0,1,.63,1.77,2.81,2.81,0,0,1-5.61.11V375a3.05,3.05,0,0,1,.05-.52l-3.37-2a2.78,2.78,0,0,1-3.33.42L31,376.26v3.34a2.5,2.5,0,0,0,2.5,2.5H54.7a2.5,2.5,0,0,0,2.5-2.5V367.17l-3.42-2.27a2.84,2.84,0,0,1-2.47.49Z"/><path id="Path_13" data-name="Path 13" class="cls-6" d="M36,367.65a2.81,2.81,0,0,1,2.81,2.81c0,.12,0,.24,0,.36l3.52,2a2.75,2.75,0,0,1,1.78-.63,3.05,3.05,0,0,1,.6.06l5.11-7.92a2.77,2.77,0,0,1-.52-1.62,2.81,2.81,0,0,1,5.62-.11v.11a3,3,0,0,1-.08.66L57.2,365v-4.68a2.5,2.5,0,0,0-2.5-2.5H33.5a2.5,2.5,0,0,0-2.5,2.5v13.4l2.34-2.24A2.81,2.81,0,0,1,35,367.82a3,3,0,0,1,1-.17Z"/></g><g id="_ionicons_svg_md-contacts" data-name=" ionicons svg md-contacts"><path id="Path_14" data-name="Path 14" class="cls-6" d="M43.86,477.53a7.7,7.7,0,0,1-7.58,0c-3,.9-4.79,3.9-5.46,6.54H49.31C48.64,481.43,46.82,478.43,43.86,477.53Zm-3.79-14.09a6.66,6.66,0,1,0,6.65,6.66A6.66,6.66,0,0,0,40.07,463.44Zm0,11.73A5.15,5.15,0,0,1,35.41,472h9.31a5.13,5.13,0,0,1-4.65,3.18Z"/><g id="Group_27" data-name="Group 27"><path id="Path_15" data-name="Path 15" class="cls-6" d="M49.1,480H59a8.23,8.23,0,0,0-5.45-6,7.72,7.72,0,0,1-6.45.53,8.44,8.44,0,0,1-1.76,2.19A8.59,8.59,0,0,1,49.1,480Zm-1-11.57h6.32a5.11,5.11,0,0,1-4.65,3.16,4.57,4.57,0,0,1-1.6-.28,8.53,8.53,0,0,1-.41,1.58A6.66,6.66,0,1,0,44.14,463a8.22,8.22,0,0,1,4,5.46Z"/></g></g><path id="_ionicons_svg_md-document" data-name=" ionicons svg md-document" class="cls-6" d="M45.92,515.14H37.85a2.12,2.12,0,0,0-2.13,2.12h0v17.86a2.12,2.12,0,0,0,2.13,2.12H50.6a2.12,2.12,0,0,0,2.12-2.12V521.94Zm-.85,7.65v-5.95l6,5.95Z"/><path id="_ionicons_svg_md-star" data-name=" ionicons svg md-star" class="cls-6" d="M46,583.9l6.8,4.1L51,580.26l6-5.2-7.91-.68L46,567.09l-3.09,7.29-7.91.68,6,5.2L39.2,588Z"/><g id="_ionicons_svg_md-time" data-name=" ionicons svg md-time"><path id="Path_16" data-name="Path 16" class="cls-6" d="M46.49,617.71A11.5,11.5,0,1,0,58,629.21a11.5,11.5,0,0,0-11.51-11.5Zm0,20.7a9.2,9.2,0,1,1,9.2-9.2h0A9.2,9.2,0,0,1,46.5,638.41Z"/><path id="Path_17" data-name="Path 17" class="cls-6" d="M47.07,623.46H45.35v6.9l6,3.62.86-1.42-5.18-3.07Z"/></g><path id="_ionicons_svg_ios-trash" data-name=" ionicons svg ios-trash" class="cls-6" d="M39.75,674.53,41,690.4a1.6,1.6,0,0,0,1.6,1.6h7.7a1.6,1.6,0,0,0,1.6-1.6h0l1.28-15.87ZM43.12,689l-.37-12.72h1L44.14,689ZM47,689H46V676.28h1Zm2.85,0h-1l.37-12.72h1Zm2.55-16.44h-2L49,671.31a1.09,1.09,0,0,0-.72-.28H44.7a1.09,1.09,0,0,0-.73.28l-1.44,1.25h-2c-1,0-1.63.46-1.63,1.42H54c0-1-.68-1.42-1.64-1.42Z"/><path id="_ionicons_svg_md-filing" data-name=" ionicons svg md-filing" class="cls-6" d="M57.18,734.8H55.74V733l-.8-2.65H53.53v-1.75L52.71,726H40.37l-.82,2.65v1.75H38.14L37.35,733v1.76H35.9l-.81,2.65v9.1c0,1.29,1.94,2.35,3.23,2.35H55.65A2.43,2.43,0,0,0,58,746.64v-9.2l-.82-2.64Zm-15-6.16H51v1.75H42.14ZM39.88,733H53.2v1.76H39.88Zm15.53,6.16H50.86a4.4,4.4,0,0,1-8.63,0H37.68v-1.75H55.41Z"/><path id="_ionicons_svg_md-add-circle" data-name=" ionicons svg md-add-circle" class="cls-6" d="M46.1,263a19.1,19.1,0,1,0,19.1,19.1h0A19.1,19.1,0,0,0,46.1,263Zm9.83,21H48v7.9H44.18V284h-7.9v-3.85h7.9v-7.9H48v7.9h7.9Z"/><path id="_ionicons_svg_md-cloud-done" data-name=" ionicons svg md-cloud-done" class="cls-6" d="M55.7,419.61a11.29,11.29,0,0,0-21.1-3,9,9,0,0,0,1,18H55.17a7.56,7.56,0,0,0,7.54-7.54A7.45,7.45,0,0,0,55.7,419.61Zm-14.3,11L35.78,425,38,422.72l3.37,3.37,8.37-8.36L52,420Z"/><g id="Approvals" class="cls-1"><g class="cls-1"><path class="cls-2" d="M98,427H91.2L90,430H88.18l5.36-13.34H95.6L101,430H99.14Zm-6.28-1.48h5.78l-2.88-7.42Z"/><path class="cls-2" d="M102.66,433.68V420.34h1.5v1.44a4,4,0,0,1,3.26-1.68c2.54,0,4.3,1.92,4.3,5.06s-1.76,5.08-4.3,5.08a4,4,0,0,1-3.26-1.7v5.14ZM107,421.44a3.57,3.57,0,0,0-2.88,1.54v4.36A3.59,3.59,0,0,0,107,428.9c1.94,0,3.1-1.6,3.1-3.74S109,421.44,107,421.44Z"/><path class="cls-2" d="M114.14,433.68V420.34h1.5v1.44a4,4,0,0,1,3.26-1.68c2.54,0,4.3,1.92,4.3,5.06s-1.76,5.08-4.3,5.08a4,4,0,0,1-3.26-1.7v5.14Zm4.38-12.24a3.57,3.57,0,0,0-2.88,1.54v4.36a3.59,3.59,0,0,0,2.88,1.56c1.94,0,3.1-1.6,3.1-3.74S120.46,421.44,118.52,421.44Z"/><path class="cls-2" d="M125.62,420.34h1.5v1.56a4.11,4.11,0,0,1,3.22-1.76v1.54a2.64,2.64,0,0,0-.6-.06,3.53,3.53,0,0,0-2.62,1.54V430h-1.5Z"/><path class="cls-2" d="M131.66,425.16a4.79,4.79,0,1,1,4.78,5.08A4.74,4.74,0,0,1,131.66,425.16Zm8,0c0-2-1.14-3.72-3.2-3.72s-3.22,1.76-3.22,3.72,1.16,3.74,3.22,3.74S139.64,427.14,139.64,425.16Z"/><path class="cls-2" d="M142.22,420.34h1.62l3.22,7.92,3.2-7.92h1.64l-4,9.66h-1.64Z"/><path class="cls-2" d="M159.5,428.9a4.18,4.18,0,0,1-3.2,1.34,3.22,3.22,0,0,1-3.38-3.2,3.16,3.16,0,0,1,3.38-3.18,4,4,0,0,1,3.2,1.32v-1.74c0-1.3-1-2-2.44-2a3.84,3.84,0,0,0-3,1.34l-.7-1a5.06,5.06,0,0,1,3.86-1.6c2,0,3.74.92,3.74,3.26V430h-1.5Zm0-2.76a3.23,3.23,0,0,0-2.66-1.2,2.13,2.13,0,1,0,0,4.22,3.23,3.23,0,0,0,2.66-1.2Z"/><path class="cls-2" d="M164,416.66h1.5V430H164Z"/><path class="cls-2" d="M168.44,427.64a4.38,4.38,0,0,0,3.18,1.38c1.48,0,2.28-.66,2.28-1.6s-1.18-1.4-2.48-1.72c-1.64-.38-3.5-.82-3.5-2.82,0-1.5,1.3-2.78,3.6-2.78a4.89,4.89,0,0,1,3.58,1.4l-.7,1a3.76,3.76,0,0,0-2.88-1.22c-1.32,0-2.14.6-2.14,1.46s1.1,1.24,2.36,1.54c1.68.38,3.62.86,3.62,3,0,1.62-1.3,2.92-3.8,2.92a5.14,5.14,0,0,1-3.9-1.52Z"/></g></g></g></g><g id="Group_107" data-name="Group 107"><rect id="Rectangle_16-2" data-name="Rectangle 16-2" class="cls-4" x="736" y="305" width="606" height="470"/><g id="teams-2"><path id="_ionicons_svg_md-arrow-dropright-3" data-name=" ionicons svg md-arrow-dropright-3" class="cls-8" d="M1245.7,554.37l-11.47,11.47-11.47-11.47Z"/><g id="join-team"><rect id="Rectangle_25" data-name="Rectangle 25" class="cls-5" x="782" y="396" width="183" height="50" rx="5"/><g id="Join_a_Team" data-name="Join a Team" class="cls-1"><g class="cls-1"><path class="cls-2" d="M807.29,424.93a3.85,3.85,0,0,0,3,1.58,3.1,3.1,0,0,0,3.22-3.36V412h2v11.19c0,3.48-2.23,5.11-5.09,5.11a5.13,5.13,0,0,1-4.18-1.85Z"/><path class="cls-2" d="M818.53,422.19c0-3.36,2.2-6.07,5.73-6.07s5.74,2.71,5.74,6.07-2.21,6.1-5.74,6.1S818.53,425.55,818.53,422.19Zm9.57,0c0-2.35-1.36-4.46-3.84-4.46s-3.86,2.11-3.86,4.46,1.39,4.49,3.86,4.49S828.1,424.57,828.1,422.19Z"/><path class="cls-2" d="M832.61,413.24a1.22,1.22,0,0,1,2.43,0,1.22,1.22,0,1,1-2.43,0Zm.32,3.17h1.8V428h-1.8Z"/><path class="cls-2" d="M846.15,420.41c0-2-1-2.68-2.59-2.68a4.45,4.45,0,0,0-3.43,1.8V428h-1.8V416.41h1.8v1.68a5.74,5.74,0,0,1,4.12-2c2.43,0,3.7,1.22,3.7,3.74V428h-1.8Z"/><path class="cls-2" d="M865,426.68a5,5,0,0,1-3.84,1.61,3.86,3.86,0,0,1-4.06-3.84,3.8,3.8,0,0,1,4.06-3.82,4.85,4.85,0,0,1,3.84,1.59v-2.09c0-1.56-1.25-2.45-2.93-2.45a4.58,4.58,0,0,0-3.55,1.61l-.84-1.25a6.06,6.06,0,0,1,4.63-1.92c2.45,0,4.49,1.1,4.49,3.91v8H865Zm0-3.31a3.89,3.89,0,0,0-3.19-1.44,2.55,2.55,0,1,0,0,5.06,3.89,3.89,0,0,0,3.19-1.44Z"/><path class="cls-2" d="M880.61,413.77h-5.06V412h12.14v1.78h-5.08V428h-2Z"/><path class="cls-2" d="M892.54,416.12c3.51,0,5.57,2.73,5.57,6.22v.45h-9.38a4.08,4.08,0,0,0,4.17,4,5.09,5.09,0,0,0,3.58-1.46l.86,1.17a6.3,6.3,0,0,1-4.61,1.78,6.09,6.09,0,0,1-.19-12.17Zm-3.81,5.35h7.6a3.75,3.75,0,0,0-3.81-3.86A3.86,3.86,0,0,0,888.73,421.47Z"/><path class="cls-2" d="M908.26,426.68a5,5,0,0,1-3.84,1.61,3.85,3.85,0,0,1-4-3.84,3.79,3.79,0,0,1,4-3.82,4.83,4.83,0,0,1,3.84,1.59v-2.09c0-1.56-1.25-2.45-2.93-2.45a4.58,4.58,0,0,0-3.55,1.61l-.84-1.25a6.06,6.06,0,0,1,4.63-1.92c2.45,0,4.49,1.1,4.49,3.91v8h-1.8Zm0-3.31a3.87,3.87,0,0,0-3.19-1.44,2.55,2.55,0,1,0,0,5.06,3.87,3.87,0,0,0,3.19-1.44Z"/><path class="cls-2" d="M927.65,420.13c0-1.47-.64-2.4-2.13-2.4a4.05,4.05,0,0,0-3.07,1.77V428h-1.8v-7.87c0-1.47-.63-2.4-2.14-2.4a4,4,0,0,0-3,1.8V428h-1.8V416.41h1.8v1.68a5,5,0,0,1,3.75-2,3,3,0,0,1,3.12,2.16,4.84,4.84,0,0,1,3.88-2.16c2.12,0,3.24,1.17,3.24,3.5V428h-1.8Z"/></g></g></g><g id="create-team"><rect id="Rectangle_62" data-name="Rectangle 62" class="cls-5" x="990" y="396" width="183" height="50" rx="5"/><g id="Create_a_Team" data-name="Create a Team" class="cls-1"><g class="cls-1"><path class="cls-2" d="M1005.22,420a8,8,0,0,1,8.16-8.28,7.19,7.19,0,0,1,6.15,3.16l-1.68.94a5.45,5.45,0,0,0-4.47-2.33c-3.43,0-6.09,2.69-6.09,6.51s2.66,6.5,6.09,6.5a5.37,5.37,0,0,0,4.47-2.33l1.7.94a7.28,7.28,0,0,1-6.17,3.17A8,8,0,0,1,1005.22,420Z"/><path class="cls-2" d="M1022,416.41h1.8v1.87a4.92,4.92,0,0,1,3.87-2.11V418a3.74,3.74,0,0,0-.72-.07,4.24,4.24,0,0,0-3.15,1.85V428H1022Z"/><path class="cls-2" d="M1035,416.12c3.51,0,5.57,2.73,5.57,6.22v.45h-9.38a4.08,4.08,0,0,0,4.17,4,5.09,5.09,0,0,0,3.58-1.46l.86,1.17a6.3,6.3,0,0,1-4.6,1.78,6.09,6.09,0,0,1-.2-12.17Zm-3.81,5.35h7.61a3.76,3.76,0,0,0-3.82-3.86A3.86,3.86,0,0,0,1031.17,421.47Z"/><path class="cls-2" d="M1050.7,426.68a5,5,0,0,1-3.84,1.61,3.86,3.86,0,0,1-4-3.84,3.79,3.79,0,0,1,4-3.82,4.83,4.83,0,0,1,3.84,1.59v-2.09c0-1.56-1.24-2.45-2.92-2.45a4.6,4.6,0,0,0-3.56,1.61l-.84-1.25a6.07,6.07,0,0,1,4.64-1.92c2.44,0,4.48,1.1,4.48,3.91v8h-1.8Zm0-3.31a3.87,3.87,0,0,0-3.19-1.44,2.55,2.55,0,1,0,0,5.06,3.87,3.87,0,0,0,3.19-1.44Z"/><path class="cls-2" d="M1056.46,425.58V418h-1.92v-1.58h1.92v-3.17h1.8v3.17h2.36V418h-2.36v7.2c0,.86.39,1.49,1.18,1.49a1.75,1.75,0,0,0,1.22-.48l.53,1.34a2.93,2.93,0,0,1-2.16.75C1057.33,428.29,1056.46,427.3,1056.46,425.58Z"/><path class="cls-2" d="M1068.2,416.12c3.5,0,5.57,2.73,5.57,6.22v.45h-9.39a4.09,4.09,0,0,0,4.18,4,5.11,5.11,0,0,0,3.58-1.46l.86,1.17a6.3,6.3,0,0,1-4.61,1.78,6.09,6.09,0,0,1-.19-12.17Zm-3.82,5.35H1072a3.75,3.75,0,0,0-3.81-3.86A3.87,3.87,0,0,0,1064.38,421.47Z"/><path class="cls-2" d="M1090.11,426.68a5,5,0,0,1-3.84,1.61,3.86,3.86,0,0,1-4.06-3.84,3.8,3.8,0,0,1,4.06-3.82,4.83,4.83,0,0,1,3.84,1.59v-2.09c0-1.56-1.25-2.45-2.93-2.45a4.58,4.58,0,0,0-3.55,1.61l-.84-1.25a6.06,6.06,0,0,1,4.63-1.92c2.45,0,4.49,1.1,4.49,3.91v8h-1.8Zm0-3.31a3.89,3.89,0,0,0-3.19-1.44,2.55,2.55,0,1,0,0,5.06,3.89,3.89,0,0,0,3.19-1.44Z"/><path class="cls-2" d="M1105.73,413.77h-5.06V412h12.15v1.78h-5.09V428h-2Z"/><path class="cls-2" d="M1117.66,416.12c3.51,0,5.57,2.73,5.57,6.22v.45h-9.38a4.08,4.08,0,0,0,4.17,4,5.09,5.09,0,0,0,3.58-1.46l.86,1.17a6.3,6.3,0,0,1-4.6,1.78,6.09,6.09,0,0,1-.2-12.17Zm-3.81,5.35h7.6a3.75,3.75,0,0,0-3.81-3.86A3.86,3.86,0,0,0,1113.85,421.47Z"/><path class="cls-2" d="M1133.38,426.68a5,5,0,0,1-3.84,1.61,3.85,3.85,0,0,1-4-3.84,3.79,3.79,0,0,1,4-3.82,4.83,4.83,0,0,1,3.84,1.59v-2.09c0-1.56-1.25-2.45-2.93-2.45a4.58,4.58,0,0,0-3.55,1.61l-.84-1.25a6.06,6.06,0,0,1,4.63-1.92c2.45,0,4.49,1.1,4.49,3.91v8h-1.8Zm0-3.31a3.87,3.87,0,0,0-3.19-1.44,2.55,2.55,0,1,0,0,5.06,3.87,3.87,0,0,0,3.19-1.44Z"/><path class="cls-2" d="M1152.78,420.13c0-1.47-.65-2.4-2.14-2.4a4.05,4.05,0,0,0-3.07,1.77V428h-1.8v-7.87c0-1.47-.63-2.4-2.14-2.4a4,4,0,0,0-3.05,1.8V428h-1.8V416.41h1.8v1.68a5,5,0,0,1,3.75-2,3,3,0,0,1,3.12,2.16,4.84,4.84,0,0,1,3.88-2.16c2.12,0,3.25,1.17,3.25,3.5V428h-1.8Z"/></g></g></g><g id="search-team"><rect id="Rectangle_26" data-name="Rectangle 26" class="cls-5" x="780" y="468" width="393" height="50" rx="5"/><g id="Search_for_a_team" data-name="Search for a team" class="cls-1"><g class="cls-1"><path class="cls-2" d="M795.17,496.08a7.06,7.06,0,0,0,5.25,2.37c3,0,3.93-1.6,3.93-2.87,0-2-2-2.55-4.23-3.15-2.67-.7-5.65-1.45-5.65-4.73,0-2.75,2.45-4.62,5.73-4.62a7.84,7.84,0,0,1,5.92,2.32l-1.25,1.53a6.36,6.36,0,0,0-4.82-2c-2,0-3.43,1.07-3.43,2.65s1.93,2.17,4,2.75c2.73.72,5.83,1.57,5.83,5.07,0,2.43-1.65,4.9-6.15,4.9a8.25,8.25,0,0,1-6.4-2.65Z"/><path class="cls-2" d="M814.77,487.63c3.65,0,5.8,2.85,5.8,6.47v.48H810.8a4.25,4.25,0,0,0,4.35,4.17,5.29,5.29,0,0,0,3.72-1.52l.9,1.22a6.55,6.55,0,0,1-4.8,1.85,6.34,6.34,0,0,1-.2-12.67Zm-4,5.57h7.92a3.9,3.9,0,0,0-4-4A4,4,0,0,0,810.8,493.2Z"/><path class="cls-2" d="M831.15,498.63a5.26,5.26,0,0,1-4,1.67,4,4,0,0,1-4.23-4,4,4,0,0,1,4.23-4,5,5,0,0,1,4,1.65V491.8c0-1.62-1.3-2.55-3-2.55a4.79,4.79,0,0,0-3.7,1.68l-.88-1.3a6.32,6.32,0,0,1,4.83-2c2.55,0,4.67,1.15,4.67,4.07V500h-1.87Zm0-3.45a4.05,4.05,0,0,0-3.33-1.5,2.65,2.65,0,1,0,0,5.27,4.05,4.05,0,0,0,3.33-1.5Z"/><path class="cls-2" d="M836.77,487.93h1.88v1.95a5.1,5.1,0,0,1,4-2.2v1.92a3.3,3.3,0,0,0-.75-.07,4.42,4.42,0,0,0-3.27,1.92V500h-1.88Z"/><path class="cls-2" d="M850.35,487.63a5.15,5.15,0,0,1,4.42,2.1l-1.25,1.15a3.58,3.58,0,0,0-3.07-1.58c-2.58,0-4.18,2-4.18,4.65s1.6,4.68,4.18,4.68a3.62,3.62,0,0,0,3.07-1.58l1.25,1.15a5.15,5.15,0,0,1-4.42,2.1c-3.6,0-6-2.75-6-6.35A6,6,0,0,1,850.35,487.63Z"/><path class="cls-2" d="M865.57,492.05c0-2.12-1.1-2.75-2.72-2.75a4.75,4.75,0,0,0-3.58,1.88V500H857.4V483.33h1.87v6.35a6,6,0,0,1,4.33-2.05c2.52,0,3.85,1.22,3.85,3.85V500h-1.88Z"/><path class="cls-2" d="M878.17,489.58h-2v-1.65h2V487c0-2.5,1.4-3.92,3.5-3.92a3.49,3.49,0,0,1,1.83.42l-.48,1.4a2.12,2.12,0,0,0-1.07-.27c-1.23,0-1.9.85-1.9,2.37v.93h2.45v1.65h-2.45V500h-1.88Z"/><path class="cls-2" d="M884,494c0-3.5,2.3-6.32,6-6.32s6,2.82,6,6.32-2.3,6.35-6,6.35S884,497.45,884,494Zm10,0c0-2.45-1.43-4.65-4-4.65s-4,2.2-4,4.65,1.45,4.68,4,4.68S894,496.43,894,494Z"/><path class="cls-2" d="M899,487.93h1.88v1.95a5.1,5.1,0,0,1,4-2.2v1.92a3.3,3.3,0,0,0-.75-.07,4.42,4.42,0,0,0-3.27,1.92V500H899Z"/><path class="cls-2" d="M921.27,498.63a5.25,5.25,0,0,1-4,1.67,4,4,0,0,1-4.22-4,4,4,0,0,1,4.22-4,5,5,0,0,1,4,1.65V491.8c0-1.62-1.3-2.55-3-2.55a4.81,4.81,0,0,0-3.7,1.68l-.87-1.3a6.32,6.32,0,0,1,4.82-2c2.55,0,4.68,1.15,4.68,4.07V500h-1.88Zm0-3.45a4,4,0,0,0-3.32-1.5,2.65,2.65,0,1,0,0,5.27,4,4,0,0,0,3.32-1.5Z"/><path class="cls-2" d="M933.72,497.48v-7.9h-2v-1.65h2v-3.3h1.88v3.3h2.45v1.65H935.6v7.5c0,.9.4,1.55,1.22,1.55a1.83,1.83,0,0,0,1.28-.5l.55,1.4a3.12,3.12,0,0,1-2.25.77C934.62,500.3,933.72,499.28,933.72,497.48Z"/><path class="cls-2" d="M945.94,487.63c3.65,0,5.8,2.85,5.8,6.47v.48H942a4.25,4.25,0,0,0,4.35,4.17,5.29,5.29,0,0,0,3.72-1.52l.9,1.22a6.54,6.54,0,0,1-4.79,1.85,6.34,6.34,0,0,1-.21-12.67Zm-4,5.57h7.92a3.9,3.9,0,0,0-4-4A4,4,0,0,0,942,493.2Z"/><path class="cls-2" d="M962.32,498.63a5.26,5.26,0,0,1-4,1.67,4,4,0,0,1-4.22-4,4,4,0,0,1,4.22-4,5,5,0,0,1,4,1.65V491.8c0-1.62-1.3-2.55-3.05-2.55a4.81,4.81,0,0,0-3.7,1.68l-.87-1.3a6.32,6.32,0,0,1,4.82-2c2.55,0,4.67,1.15,4.67,4.07V500h-1.87Zm0-3.45a4,4,0,0,0-3.32-1.5,2.65,2.65,0,1,0,0,5.27,4,4,0,0,0,3.32-1.5Z"/><path class="cls-2" d="M982.52,491.8c0-1.52-.68-2.5-2.23-2.5a4.23,4.23,0,0,0-3.2,1.85V500h-1.87v-8.2c0-1.52-.65-2.5-2.23-2.5a4.21,4.21,0,0,0-3.17,1.88V500H968V487.93h1.87v1.75a5.19,5.19,0,0,1,3.9-2.05,3.1,3.1,0,0,1,3.25,2.25,5.07,5.07,0,0,1,4-2.25c2.2,0,3.37,1.22,3.37,3.65V500h-1.87Z"/></g></g></g><g id="Product_Development" data-name="Product Development" class="cls-1"><g class="cls-1"><path class="cls-2" d="M886.34,551h8a6,6,0,1,1,0,12.06h-5.55v8h-2.49Zm7.74,2.22h-5.25v7.62h5.25a3.81,3.81,0,1,0,0-7.62Z"/><path class="cls-2" d="M903.86,556.51h2.25v2.34a6.16,6.16,0,0,1,4.83-2.64v2.31a4,4,0,0,0-.9-.09,5.3,5.3,0,0,0-3.93,2.31V571h-2.25Z"/><path class="cls-2" d="M912.92,563.74c0-4.2,2.76-7.59,7.17-7.59s7.17,3.39,7.17,7.59-2.76,7.62-7.17,7.62S912.92,567.94,912.92,563.74Zm12,0c0-2.94-1.71-5.58-4.8-5.58s-4.83,2.64-4.83,5.58,1.74,5.61,4.83,5.61S924.89,566.71,924.89,563.74Z"/><path class="cls-2" d="M941.42,568.84a6.1,6.1,0,0,1-4.89,2.52c-3.78,0-6.45-2.88-6.45-7.59s2.64-7.62,6.45-7.62a6.06,6.06,0,0,1,4.89,2.55V551h2.25v20h-2.25Zm0-8.34a5.44,5.44,0,0,0-4.35-2.34c-2.91,0-4.65,2.4-4.65,5.61s1.74,5.58,4.65,5.58a5.39,5.39,0,0,0,4.35-2.28Z"/><path class="cls-2" d="M958,569a7.09,7.09,0,0,1-5.16,2.4c-3,0-4.62-1.47-4.62-4.62V556.51h2.25v9.54c0,2.55,1.29,3.3,3.24,3.3a5.54,5.54,0,0,0,4.29-2.19V556.51h2.25V571H958Z"/><path class="cls-2" d="M971.09,556.15a6.2,6.2,0,0,1,5.31,2.52l-1.5,1.38a4.3,4.3,0,0,0-3.69-1.89c-3.09,0-5,2.37-5,5.58s1.92,5.61,5,5.61a4.37,4.37,0,0,0,3.69-1.89l1.5,1.38a6.2,6.2,0,0,1-5.31,2.52c-4.32,0-7.23-3.3-7.23-7.62S966.77,556.15,971.09,556.15Z"/><path class="cls-2" d="M980,568v-9.48h-2.4v-2H980v-4h2.25v4h2.94v2h-2.94v9c0,1.08.48,1.86,1.47,1.86a2.17,2.17,0,0,0,1.53-.6l.66,1.68a3.68,3.68,0,0,1-2.7.93C981.08,571.36,980,570.13,980,568Z"/><path class="cls-2" d="M996.2,551H1003c6.21,0,10.26,4.35,10.26,10s-4,10-10.26,10H996.2Zm6.84,17.79c4.86,0,7.68-3.48,7.68-7.77s-2.73-7.8-7.68-7.8h-4.35v15.57Z"/><path class="cls-2" d="M1023.41,556.15c4.38,0,7,3.42,7,7.77v.57h-11.73a5.11,5.11,0,0,0,5.22,5,6.33,6.33,0,0,0,4.47-1.83l1.08,1.47a7.87,7.87,0,0,1-5.76,2.22c-4.29,0-7.38-3.09-7.38-7.62C1016.27,559.54,1019.27,556.15,1023.41,556.15Zm-4.77,6.69h9.51a4.7,4.7,0,0,0-4.77-4.83A4.83,4.83,0,0,0,1018.64,562.84Z"/><path class="cls-2" d="M1031.84,556.51h2.43l4.83,11.88,4.8-11.88h2.46l-6,14.49h-2.46Z"/><path class="cls-2" d="M1055,556.15c4.38,0,7,3.42,7,7.77v.57h-11.73a5.11,5.11,0,0,0,5.22,5,6.33,6.33,0,0,0,4.47-1.83l1.08,1.47a7.87,7.87,0,0,1-5.76,2.22c-4.29,0-7.38-3.09-7.38-7.62C1047.86,559.54,1050.86,556.15,1055,556.15Zm-4.77,6.69h9.51A4.7,4.7,0,0,0,1055,558,4.83,4.83,0,0,0,1050.23,562.84Z"/><path class="cls-2" d="M1065.59,551h2.25v20h-2.25Z"/><path class="cls-2" d="M1071.5,563.74c0-4.2,2.76-7.59,7.17-7.59s7.17,3.39,7.17,7.59-2.76,7.62-7.17,7.62S1071.5,567.94,1071.5,563.74Zm12,0c0-2.94-1.71-5.58-4.8-5.58s-4.83,2.64-4.83,5.58,1.74,5.61,4.83,5.61S1083.47,566.71,1083.47,563.74Z"/><path class="cls-2" d="M1089.5,576.52v-20h2.25v2.16a6.06,6.06,0,0,1,4.89-2.52c3.81,0,6.45,2.88,6.45,7.59s-2.64,7.62-6.45,7.62a5.94,5.94,0,0,1-4.89-2.55v7.71Zm6.57-18.36a5.36,5.36,0,0,0-4.32,2.31V567a5.38,5.38,0,0,0,4.32,2.34c2.91,0,4.65-2.4,4.65-5.61S1099,558.16,1096.07,558.16Z"/><path class="cls-2" d="M1124.21,561.16c0-1.83-.81-3-2.67-3a5.07,5.07,0,0,0-3.84,2.22V571h-2.25v-9.84c0-1.83-.78-3-2.67-3a5.06,5.06,0,0,0-3.81,2.25V571h-2.25V556.51H1109v2.1a6.26,6.26,0,0,1,4.68-2.46,3.72,3.72,0,0,1,3.9,2.7,6.1,6.1,0,0,1,4.86-2.7c2.64,0,4,1.47,4,4.38V571h-2.25Z"/><path class="cls-2" d="M1137.26,556.15c4.38,0,7,3.42,7,7.77v.57h-11.73a5.11,5.11,0,0,0,5.22,5,6.33,6.33,0,0,0,4.47-1.83l1.08,1.47a7.87,7.87,0,0,1-5.76,2.22c-4.29,0-7.38-3.09-7.38-7.62C1130.12,559.54,1133.12,556.15,1137.26,556.15Zm-4.77,6.69H1142a4.7,4.7,0,0,0-4.77-4.83A4.83,4.83,0,0,0,1132.49,562.84Z"/><path class="cls-2" d="M1157.62,561.52c0-2.55-1.28-3.36-3.23-3.36a5.58,5.58,0,0,0-4.29,2.25V571h-2.25V556.51h2.25v2.1a7.17,7.17,0,0,1,5.16-2.46c3,0,4.61,1.53,4.61,4.68V571h-2.25Z"/><path class="cls-2" d="M1164.83,568v-9.48h-2.4v-2h2.4v-4h2.25v4H1170v2h-2.94v9c0,1.08.48,1.86,1.47,1.86a2.17,2.17,0,0,0,1.53-.6l.66,1.68a3.68,3.68,0,0,1-2.7.93C1165.91,571.36,1164.83,570.13,1164.83,568Z"/></g></g><g id="Business_Development" data-name="Business Development" class="cls-1"><g class="cls-1"><path class="cls-2" d="M886.34,740h8.91c3.48,0,5.61,2.1,5.61,5.1a4.55,4.55,0,0,1-3.51,4.59,5,5,0,0,1,3.9,4.92c0,3.21-2.13,5.4-5.79,5.4h-9.12Zm8.49,8.67a3.11,3.11,0,0,0,3.45-3.21,3.15,3.15,0,0,0-3.45-3.24h-6v6.45Zm.12,9.12c2.34,0,3.72-1.32,3.72-3.45a3.4,3.4,0,0,0-3.72-3.45h-6.12v6.9Z"/><path class="cls-2" d="M914.9,758a7.09,7.09,0,0,1-5.16,2.4c-3,0-4.62-1.47-4.62-4.62V745.51h2.25v9.54c0,2.55,1.29,3.3,3.24,3.3a5.54,5.54,0,0,0,4.29-2.19V745.51h2.25V760H914.9Z"/><path class="cls-2" d="M921.56,756.46a6.57,6.57,0,0,0,4.77,2.07c2.22,0,3.42-1,3.42-2.4,0-1.59-1.77-2.1-3.72-2.58-2.46-.57-5.25-1.23-5.25-4.23,0-2.25,2-4.17,5.4-4.17a7.33,7.33,0,0,1,5.37,2.1l-1,1.56a5.64,5.64,0,0,0-4.32-1.83c-2,0-3.21.9-3.21,2.19s1.65,1.86,3.54,2.31c2.52.57,5.43,1.29,5.43,4.5,0,2.43-2,4.38-5.7,4.38a7.71,7.71,0,0,1-5.85-2.28Z"/><path class="cls-2" d="M935.21,741.55a1.52,1.52,0,0,1,3,0,1.52,1.52,0,1,1-3,0Zm.39,4h2.25V760H935.6Z"/><path class="cls-2" d="M952.13,750.52c0-2.55-1.29-3.36-3.24-3.36a5.59,5.59,0,0,0-4.29,2.25V760h-2.25V745.51h2.25v2.1a7.19,7.19,0,0,1,5.16-2.46c3,0,4.62,1.53,4.62,4.68V760h-2.25Z"/><path class="cls-2" d="M965.18,745.15c4.38,0,7,3.42,7,7.77v.57H960.41a5.11,5.11,0,0,0,5.22,5,6.33,6.33,0,0,0,4.47-1.83l1.08,1.47a7.87,7.87,0,0,1-5.76,2.22c-4.29,0-7.38-3.09-7.38-7.62C958,748.54,961,745.15,965.18,745.15Zm-4.77,6.69h9.51a4.7,4.7,0,0,0-4.77-4.83A4.83,4.83,0,0,0,960.41,751.84Z"/><path class="cls-2" d="M975.68,756.46a6.57,6.57,0,0,0,4.77,2.07c2.22,0,3.42-1,3.42-2.4,0-1.59-1.77-2.1-3.72-2.58-2.46-.57-5.25-1.23-5.25-4.23,0-2.25,2-4.17,5.4-4.17a7.33,7.33,0,0,1,5.37,2.1l-1,1.56A5.64,5.64,0,0,0,980.3,747c-2,0-3.21.9-3.21,2.19s1.65,1.86,3.54,2.31c2.52.57,5.43,1.29,5.43,4.5,0,2.43-1.95,4.38-5.7,4.38a7.71,7.71,0,0,1-5.85-2.28Z"/><path class="cls-2" d="M989.63,756.46a6.57,6.57,0,0,0,4.77,2.07c2.22,0,3.42-1,3.42-2.4,0-1.59-1.77-2.1-3.72-2.58-2.46-.57-5.25-1.23-5.25-4.23,0-2.25,1.95-4.17,5.4-4.17a7.33,7.33,0,0,1,5.37,2.1l-1,1.56a5.64,5.64,0,0,0-4.32-1.83c-2,0-3.21.9-3.21,2.19s1.65,1.86,3.54,2.31c2.52.57,5.43,1.29,5.43,4.5,0,2.43-2,4.38-5.7,4.38a7.71,7.71,0,0,1-5.85-2.28Z"/><path class="cls-2" d="M1011.5,740h6.84c6.21,0,10.26,4.35,10.26,10s-4,10-10.26,10h-6.84Zm6.84,17.79c4.86,0,7.68-3.48,7.68-7.77s-2.73-7.8-7.68-7.8H1014v15.57Z"/><path class="cls-2" d="M1038.71,745.15c4.38,0,7,3.42,7,7.77v.57h-11.73a5.11,5.11,0,0,0,5.22,5,6.33,6.33,0,0,0,4.47-1.83l1.08,1.47a7.87,7.87,0,0,1-5.76,2.22c-4.29,0-7.38-3.09-7.38-7.62C1031.57,748.54,1034.57,745.15,1038.71,745.15Zm-4.77,6.69h9.51a4.7,4.7,0,0,0-4.77-4.83A4.83,4.83,0,0,0,1033.94,751.84Z"/><path class="cls-2" d="M1047.14,745.51h2.43l4.83,11.88,4.8-11.88h2.46l-6,14.49h-2.46Z"/><path class="cls-2" d="M1070.3,745.15c4.38,0,7,3.42,7,7.77v.57h-11.73a5.11,5.11,0,0,0,5.22,5,6.33,6.33,0,0,0,4.47-1.83l1.08,1.47a7.87,7.87,0,0,1-5.76,2.22c-4.29,0-7.38-3.09-7.38-7.62C1063.16,748.54,1066.16,745.15,1070.3,745.15Zm-4.77,6.69H1075a4.7,4.7,0,0,0-4.77-4.83A4.83,4.83,0,0,0,1065.53,751.84Z"/><path class="cls-2" d="M1080.89,740h2.25v20h-2.25Z"/><path class="cls-2" d="M1086.8,752.74c0-4.2,2.76-7.59,7.17-7.59s7.17,3.39,7.17,7.59-2.76,7.62-7.17,7.62S1086.8,756.94,1086.8,752.74Zm12,0c0-2.94-1.71-5.58-4.8-5.58s-4.83,2.64-4.83,5.58,1.74,5.61,4.83,5.61S1098.77,755.71,1098.77,752.74Z"/><path class="cls-2" d="M1104.8,765.52v-20h2.25v2.16a6.06,6.06,0,0,1,4.89-2.52c3.81,0,6.45,2.88,6.45,7.59s-2.64,7.62-6.45,7.62a5.94,5.94,0,0,1-4.89-2.55v7.71Zm6.57-18.36a5.36,5.36,0,0,0-4.32,2.31V756a5.38,5.38,0,0,0,4.32,2.34c2.91,0,4.65-2.4,4.65-5.61S1114.28,747.16,1111.37,747.16Z"/><path class="cls-2" d="M1139.51,750.16c0-1.83-.81-3-2.67-3a5.07,5.07,0,0,0-3.84,2.22V760h-2.25v-9.84c0-1.83-.78-3-2.67-3a5.06,5.06,0,0,0-3.81,2.25V760H1122V745.51h2.25v2.1a6.26,6.26,0,0,1,4.68-2.46,3.72,3.72,0,0,1,3.9,2.7,6.1,6.1,0,0,1,4.86-2.7c2.64,0,4,1.47,4,4.38V760h-2.25Z"/><path class="cls-2" d="M1152.56,745.15c4.38,0,7,3.42,7,7.77v.57h-11.73a5.11,5.11,0,0,0,5.22,5,6.33,6.33,0,0,0,4.47-1.83l1.08,1.47a7.87,7.87,0,0,1-5.76,2.22c-4.29,0-7.38-3.09-7.38-7.62C1145.42,748.54,1148.42,745.15,1152.56,745.15Zm-4.77,6.69h9.51a4.7,4.7,0,0,0-4.77-4.83A4.83,4.83,0,0,0,1147.79,751.84Z"/><path class="cls-2" d="M1172.93,750.52c0-2.55-1.29-3.36-3.24-3.36a5.59,5.59,0,0,0-4.29,2.25V760h-2.25V745.51h2.25v2.1a7.19,7.19,0,0,1,5.16-2.46c3,0,4.62,1.53,4.62,4.68V760h-2.25Z"/><path class="cls-2" d="M1180.13,757v-9.48h-2.4v-2h2.4v-4h2.25v4h2.94v2h-2.94v9c0,1.08.48,1.86,1.47,1.86a2.17,2.17,0,0,0,1.53-.6l.66,1.68a3.68,3.68,0,0,1-2.7.93C1181.21,760.36,1180.13,759.13,1180.13,757Z"/></g></g><g id="Group_25" data-name="Group 25" class="cls-10"><g id="UX_UI_Design" data-name="UX UI Design" class="cls-1"><g class="cls-1"><path class="cls-2" d="M923.57,596h2.74v13.41c0,4,2.18,6.56,6.24,6.56s6.24-2.54,6.24-6.56V596h2.74v13.44c0,5.48-3,9-9,9s-9-3.54-9-8.95Z"/><path class="cls-2" d="M954.86,608.63l-7,9.37H944.5l8.58-11.29L945,596h3.33l6.54,8.82,6.5-8.82h3.33l-8.05,10.7L965.19,618h-3.3Z"/><path class="cls-2" d="M973.44,595.33h1.95l-7.83,23.33h-1.94Z"/><path class="cls-2" d="M978,596h2.74v13.41c0,4,2.18,6.56,6.24,6.56s6.23-2.54,6.23-6.56V596h2.74v13.44c0,5.48-3,9-9,9s-9-3.54-9-8.95Z"/><path class="cls-2" d="M1001.06,596h2.74v22h-2.74Z"/><path class="cls-2" d="M1017.46,596H1025c6.84,0,11.29,4.79,11.29,11s-4.45,11-11.29,11h-7.52Zm7.52,19.58c5.35,0,8.45-3.83,8.45-8.55s-3-8.58-8.45-8.58h-4.78v17.13Z"/><path class="cls-2" d="M1047.39,601.66c4.82,0,7.66,3.76,7.66,8.55v.63h-12.91a5.62,5.62,0,0,0,5.75,5.51,7,7,0,0,0,4.91-2L1054,616a8.64,8.64,0,0,1-6.34,2.45c-4.72,0-8.12-3.4-8.12-8.39C1039.53,605.39,1042.84,601.66,1047.39,601.66Zm-5.25,7.36h10.47a5.17,5.17,0,0,0-5.25-5.31A5.32,5.32,0,0,0,1042.14,609Z"/><path class="cls-2" d="M1058.94,614.1a7.18,7.18,0,0,0,5.25,2.28c2.44,0,3.76-1.09,3.76-2.64,0-1.75-2-2.31-4.09-2.84-2.71-.62-5.78-1.35-5.78-4.65,0-2.48,2.15-4.59,5.94-4.59a8.06,8.06,0,0,1,5.91,2.31l-1.16,1.72a6.17,6.17,0,0,0-4.75-2c-2.18,0-3.53,1-3.53,2.4s1.82,2,3.89,2.55c2.78.62,6,1.42,6,5,0,2.67-2.15,4.82-6.27,4.82a8.51,8.51,0,0,1-6.44-2.51Z"/><path class="cls-2" d="M1074,597.7a1.67,1.67,0,0,1,3.34,0,1.67,1.67,0,1,1-3.34,0Zm.43,4.36h2.48V618h-2.48Z"/><path class="cls-2" d="M1083,620.24a6.07,6.07,0,0,0,5.18,2.18c2.64,0,5.12-1.28,5.12-4.78v-2.28a6.67,6.67,0,0,1-5.35,2.84c-4.16,0-7.1-3.1-7.1-8.25s2.91-8.29,7.1-8.29a6.62,6.62,0,0,1,5.35,2.81v-2.41h2.47v15.48c0,5.28-3.69,6.93-7.59,6.93a8.16,8.16,0,0,1-6.44-2.38Zm10.3-13.79a5.88,5.88,0,0,0-4.76-2.58c-3.2,0-5.11,2.54-5.11,6.08s1.91,6.07,5.11,6.07a5.91,5.91,0,0,0,4.76-2.61Z"/><path class="cls-2" d="M1111.51,607.57c0-2.81-1.42-3.7-3.57-3.7a6.17,6.17,0,0,0-4.72,2.48V618h-2.47V602.06h2.47v2.31a8,8,0,0,1,5.68-2.71c3.33,0,5.08,1.69,5.08,5.15V618h-2.47Z"/></g></g><g id="Frontend_Dev" data-name="Frontend Dev" class="cls-1"><g class="cls-1"><path class="cls-2" d="M923.57,647H938v2.45H926.31v7.09h11.46V659H926.31v10h-2.74Z"/><path class="cls-2" d="M941.62,653.06h2.48v2.57a6.78,6.78,0,0,1,5.31-2.9v2.54a4.08,4.08,0,0,0-1-.1,5.84,5.84,0,0,0-4.32,2.54V669h-2.48Z"/><path class="cls-2" d="M951.59,661c0-4.62,3-8.35,7.89-8.35s7.89,3.73,7.89,8.35-3,8.39-7.89,8.39S951.59,665.63,951.59,661Zm13.17,0c0-3.23-1.88-6.14-5.28-6.14s-5.32,2.91-5.32,6.14,1.92,6.17,5.32,6.17S964.76,664.28,964.76,661Z"/><path class="cls-2" d="M982.15,658.57c0-2.81-1.42-3.7-3.56-3.7a6.14,6.14,0,0,0-4.72,2.48V669h-2.48V653.06h2.48v2.31a7.9,7.9,0,0,1,5.67-2.71c3.34,0,5.09,1.69,5.09,5.15V669h-2.48Z"/><path class="cls-2" d="M990.07,665.67V655.24h-2.64v-2.18h2.64V648.7h2.47v4.36h3.24v2.18h-3.24v9.9c0,1.19.53,2,1.62,2a2.36,2.36,0,0,0,1.68-.66l.73,1.85a4,4,0,0,1-3,1C991.26,669.4,990.07,668,990.07,665.67Z"/><path class="cls-2" d="M1006.21,652.66c4.81,0,7.65,3.76,7.65,8.55v.63H1001a5.62,5.62,0,0,0,5.74,5.51,7,7,0,0,0,4.92-2l1.19,1.61a8.65,8.65,0,0,1-6.34,2.45c-4.72,0-8.12-3.4-8.12-8.39C998.35,656.39,1001.65,652.66,1006.21,652.66ZM1001,660h10.46a5.17,5.17,0,0,0-5.25-5.31C1002.77,654.71,1001.09,657.58,1001,660Z"/><path class="cls-2" d="M1028.61,658.57c0-2.81-1.42-3.7-3.56-3.7a6.14,6.14,0,0,0-4.72,2.48V669h-2.48V653.06h2.48v2.31a7.91,7.91,0,0,1,5.68-2.71c3.33,0,5.08,1.69,5.08,5.15V669h-2.48Z"/><path class="cls-2" d="M1047.59,666.62a6.72,6.72,0,0,1-5.38,2.78c-4.16,0-7.1-3.17-7.1-8.35s2.91-8.39,7.1-8.39a6.68,6.68,0,0,1,5.38,2.81V647h2.47v22h-2.47Zm0-9.17a6,6,0,0,0-4.79-2.58c-3.2,0-5.11,2.64-5.11,6.18s1.91,6.13,5.11,6.13a6,6,0,0,0,4.79-2.5Z"/><path class="cls-2" d="M1063.62,647h7.53c6.83,0,11.29,4.79,11.29,11s-4.46,11-11.29,11h-7.53Zm7.53,19.58c5.35,0,8.45-3.83,8.45-8.55s-3-8.58-8.45-8.58h-4.79v17.13Z"/><path class="cls-2" d="M1093.56,652.66c4.81,0,7.65,3.76,7.65,8.55v.63h-12.9a5.62,5.62,0,0,0,5.74,5.51,7,7,0,0,0,4.92-2l1.19,1.61a8.65,8.65,0,0,1-6.34,2.45c-4.72,0-8.12-3.4-8.12-8.39C1085.7,656.39,1089,652.66,1093.56,652.66Zm-5.25,7.36h10.46a5.17,5.17,0,0,0-5.25-5.31C1090.12,654.71,1088.44,657.58,1088.31,660Z"/><path class="cls-2" d="M1102.83,653.06h2.67l5.31,13.07,5.28-13.07h2.71L1112.17,669h-2.71Z"/></g></g><g id="Business_Design" data-name="Business Design" class="cls-1"><g class="cls-1"><path class="cls-2" d="M923.57,697h9.81c3.83,0,6.17,2.32,6.17,5.62a5,5,0,0,1-3.86,5,5.49,5.49,0,0,1,4.29,5.41c0,3.53-2.35,5.94-6.37,5.94h-10Zm9.34,9.54c2.48,0,3.8-1.51,3.8-3.53a3.46,3.46,0,0,0-3.8-3.56h-6.6v7.09Zm.14,10c2.57,0,4.09-1.46,4.09-3.8a3.74,3.74,0,0,0-4.09-3.79h-6.74v7.59Z"/><path class="cls-2" d="M955,716.76a7.81,7.81,0,0,1-5.67,2.64c-3.34,0-5.09-1.62-5.09-5.09V703.06h2.48v10.49c0,2.81,1.42,3.63,3.56,3.63a6.08,6.08,0,0,0,4.72-2.41V703.06h2.48V719H955Z"/><path class="cls-2" d="M962.32,715.1a7.18,7.18,0,0,0,5.24,2.28c2.45,0,3.77-1.09,3.77-2.64,0-1.75-2-2.31-4.1-2.84-2.7-.62-5.77-1.35-5.77-4.65,0-2.48,2.14-4.59,5.94-4.59a8.06,8.06,0,0,1,5.91,2.31l-1.16,1.72a6.2,6.2,0,0,0-4.75-2c-2.18,0-3.53,1-3.53,2.4s1.81,2,3.89,2.55c2.77.62,6,1.42,6,5,0,2.67-2.15,4.82-6.28,4.82a8.51,8.51,0,0,1-6.43-2.51Z"/><path class="cls-2" d="M977.33,698.7a1.67,1.67,0,0,1,3.33,0,1.67,1.67,0,1,1-3.33,0Zm.43,4.36h2.47V719h-2.47Z"/><path class="cls-2" d="M995.94,708.57c0-2.81-1.41-3.7-3.56-3.7a6.14,6.14,0,0,0-4.72,2.48V719h-2.47V703.06h2.47v2.31a7.91,7.91,0,0,1,5.68-2.71c3.33,0,5.08,1.69,5.08,5.15V719h-2.48Z"/><path class="cls-2" d="M1010.3,702.66c4.82,0,7.66,3.76,7.66,8.55v.63h-12.91a5.62,5.62,0,0,0,5.74,5.51,7,7,0,0,0,4.92-2l1.19,1.61a8.64,8.64,0,0,1-6.34,2.45c-4.72,0-8.12-3.4-8.12-8.39C1002.44,706.39,1005.74,702.66,1010.3,702.66Zm-5.25,7.36h10.46a5.16,5.16,0,0,0-5.24-5.31A5.32,5.32,0,0,0,1005.05,710Z"/><path class="cls-2" d="M1021.85,715.1a7.18,7.18,0,0,0,5.24,2.28c2.45,0,3.77-1.09,3.77-2.64,0-1.75-1.95-2.31-4.1-2.84-2.7-.62-5.77-1.35-5.77-4.65,0-2.48,2.14-4.59,5.94-4.59a8.06,8.06,0,0,1,5.91,2.31l-1.16,1.72a6.17,6.17,0,0,0-4.75-2c-2.18,0-3.53,1-3.53,2.4s1.81,2,3.89,2.55c2.78.62,6,1.42,6,5,0,2.67-2.15,4.82-6.27,4.82a8.51,8.51,0,0,1-6.44-2.51Z"/><path class="cls-2" d="M1037.19,715.1a7.2,7.2,0,0,0,5.25,2.28c2.44,0,3.76-1.09,3.76-2.64,0-1.75-2-2.31-4.09-2.84-2.71-.62-5.78-1.35-5.78-4.65,0-2.48,2.15-4.59,5.94-4.59a8,8,0,0,1,5.91,2.31l-1.15,1.72a6.21,6.21,0,0,0-4.76-2c-2.17,0-3.53,1-3.53,2.4s1.82,2,3.9,2.55c2.77.62,6,1.42,6,5,0,2.67-2.14,4.82-6.27,4.82a8.51,8.51,0,0,1-6.44-2.51Z"/><path class="cls-2" d="M1061.25,697h7.52c6.84,0,11.29,4.79,11.29,11s-4.45,11-11.29,11h-7.52Zm7.52,19.58c5.35,0,8.45-3.83,8.45-8.55s-3-8.58-8.45-8.58H1064v17.13Z"/><path class="cls-2" d="M1091.18,702.66c4.82,0,7.66,3.76,7.66,8.55v.63h-12.91a5.62,5.62,0,0,0,5.75,5.51,7,7,0,0,0,4.91-2l1.19,1.61a8.64,8.64,0,0,1-6.34,2.45c-4.71,0-8.11-3.4-8.11-8.39C1083.33,706.39,1086.63,702.66,1091.18,702.66Zm-5.25,7.36h10.47a5.17,5.17,0,0,0-5.25-5.31C1087.75,704.71,1086.07,707.58,1085.93,710Z"/><path class="cls-2" d="M1102.73,715.1a7.2,7.2,0,0,0,5.25,2.28c2.44,0,3.76-1.09,3.76-2.64,0-1.75-2-2.31-4.09-2.84-2.71-.62-5.78-1.35-5.78-4.65,0-2.48,2.15-4.59,5.94-4.59a8.06,8.06,0,0,1,5.91,2.31l-1.15,1.72a6.21,6.21,0,0,0-4.76-2c-2.18,0-3.53,1-3.53,2.4s1.82,2,3.9,2.55c2.77.62,6,1.42,6,5,0,2.67-2.15,4.82-6.27,4.82a8.51,8.51,0,0,1-6.44-2.51Z"/><path class="cls-2" d="M1117.74,698.7a1.67,1.67,0,0,1,3.34,0,1.67,1.67,0,1,1-3.34,0Zm.43,4.36h2.48V719h-2.48Z"/><path class="cls-2" d="M1126.82,721.24a6.07,6.07,0,0,0,5.18,2.18c2.64,0,5.12-1.28,5.12-4.78v-2.28a6.67,6.67,0,0,1-5.35,2.84c-4.16,0-7.1-3.1-7.1-8.25s2.91-8.29,7.1-8.29a6.62,6.62,0,0,1,5.35,2.81v-2.41h2.47v15.48c0,5.28-3.69,6.93-7.59,6.93a8.12,8.12,0,0,1-6.43-2.38Zm10.3-13.79a5.88,5.88,0,0,0-4.76-2.58c-3.2,0-5.11,2.54-5.11,6.08s1.91,6.07,5.11,6.07a5.91,5.91,0,0,0,4.76-2.61Z"/><path class="cls-2" d="M1155.3,708.57c0-2.81-1.42-3.7-3.57-3.7a6.17,6.17,0,0,0-4.72,2.48V719h-2.47V703.06H1147v2.31a8,8,0,0,1,5.68-2.71c3.34,0,5.08,1.69,5.08,5.15V719h-2.47Z"/></g></g></g></g><path id="_ionicons_svg_md-arrow-dropright-4" data-name=" ionicons svg md-arrow-dropright-4" class="cls-8" d="M1059.1,341.77l-11.47,11.48-11.47-11.48Z"/><g id="Teams-3" class="cls-1"><g class="cls-1"><path class="cls-2" d="M878.29,341.21H872V339h15.18v2.22h-6.36V359h-2.49Z"/><path class="cls-2" d="M893.2,344.15c4.38,0,7,3.42,7,7.77v.57H888.43a5.11,5.11,0,0,0,5.22,5,6.33,6.33,0,0,0,4.47-1.83l1.08,1.47a7.87,7.87,0,0,1-5.76,2.22c-4.29,0-7.38-3.09-7.38-7.62C886.06,347.54,889.06,344.15,893.2,344.15Zm-4.77,6.69h9.51a4.7,4.7,0,0,0-4.77-4.83A4.83,4.83,0,0,0,888.43,350.84Z"/><path class="cls-2" d="M912.85,357.35a6.27,6.27,0,0,1-4.8,2,4.83,4.83,0,0,1-5.07-4.8c0-3.24,2.61-4.77,5.07-4.77a6.06,6.06,0,0,1,4.8,2v-2.61c0-2-1.56-3.06-3.66-3.06a5.76,5.76,0,0,0-4.44,2l-1-1.56a7.59,7.59,0,0,1,5.79-2.4c3.06,0,5.61,1.38,5.61,4.89v10h-2.25Zm0-4.14a4.85,4.85,0,0,0-4-1.8c-2.1,0-3.57,1.32-3.57,3.18s1.47,3.15,3.57,3.15a4.85,4.85,0,0,0,4-1.8Z"/><path class="cls-2" d="M937.09,349.16c0-1.83-.81-3-2.67-3a5.07,5.07,0,0,0-3.84,2.22V359h-2.25v-9.84c0-1.83-.78-3-2.67-3a5.06,5.06,0,0,0-3.81,2.25V359H919.6V344.51h2.25v2.1a6.26,6.26,0,0,1,4.68-2.46,3.72,3.72,0,0,1,3.9,2.7,6.1,6.1,0,0,1,4.86-2.7c2.64,0,4.05,1.47,4.05,4.38V359h-2.25Z"/><path class="cls-2" d="M943.75,355.46a6.57,6.57,0,0,0,4.77,2.07c2.22,0,3.42-1,3.42-2.4,0-1.59-1.77-2.1-3.72-2.58-2.46-.57-5.25-1.23-5.25-4.23,0-2.25,1.95-4.17,5.4-4.17a7.33,7.33,0,0,1,5.37,2.1l-1,1.56a5.64,5.64,0,0,0-4.32-1.83c-2,0-3.21.9-3.21,2.19s1.65,1.86,3.54,2.31c2.52.57,5.43,1.29,5.43,4.5,0,2.43-2,4.38-5.7,4.38a7.71,7.71,0,0,1-5.85-2.28Z"/></g></g><g id="_ionicons_svg_md-contacts-2" data-name=" ionicons svg md-contacts-2"><path id="Path_14-2" data-name="Path 14-2" class="cls-6" d="M803.07,352.13a11.74,11.74,0,0,1-11.59,0c-4.53,1.39-7.31,6-8.34,10h28.28C810.39,358.11,807.61,353.52,803.07,352.13Zm-5.8-21.53a10.18,10.18,0,1,0,10.19,10.18,10.18,10.18,0,0,0-10.19-10.18Zm0,17.94a7.88,7.88,0,0,1-7.11-4.86H804.4a7.89,7.89,0,0,1-7.12,4.86Z"/><g id="Group_27-2" data-name="Group 27-2"><path id="Path_15-2" data-name="Path 15-2" class="cls-6" d="M811.1,356h15.14a12.59,12.59,0,0,0-8.34-9.24,11.79,11.79,0,0,1-9.86.8,13.45,13.45,0,0,1-2.69,3.36A13.11,13.11,0,0,1,811.1,356Zm-1.55-17.7h9.67a7.88,7.88,0,0,1-7.12,4.84,7.26,7.26,0,0,1-2.44-.44,12.48,12.48,0,0,1-.63,2.42,10.19,10.19,0,1,0-5.51-15.18A12.58,12.58,0,0,1,809.55,338.29Z"/></g></g></g></g></svg>