<svg id="Layer_1" data-name="Layer 1" xmlns="http://www.w3.org/2000/svg" viewBox="0 0 921.02 700"><defs><style>.cls-1{fill:#f0f6ff;}.cls-2{fill:none;stroke:#707070;}.cls-3{isolation:isolate;}.cls-4{fill:#707070;}.cls-5{fill:#fff;}</style></defs><title>feature-auto</title><g id="adv-share"><g id="Rectangle_42" data-name="Rectangle 42"><rect class="cls-1" x="12.61" y="8" width="895" height="680" rx="26"/><rect class="cls-2" x="13.11" y="8.5" width="894" height="679" rx="25.5"/></g><g id="Style_Guide_Exalton" data-name="Style Guide Exalton" class="cls-3"><g class="cls-3"><path class="cls-4" d="M314.61,55.12A9.85,9.85,0,0,0,322,58.45c4.17,0,5.5-2.24,5.5-4,0-2.8-2.84-3.57-5.92-4.41-3.74-1-7.91-2-7.91-6.61,0-3.85,3.43-6.48,8-6.48a11,11,0,0,1,8.29,3.26l-1.75,2.13a9,9,0,0,0-6.75-2.8c-2.8,0-4.8,1.51-4.8,3.71,0,2.35,2.7,3.05,5.67,3.85,3.82,1,8.16,2.21,8.16,7.11,0,3.4-2.31,6.86-8.61,6.86a11.55,11.55,0,0,1-9-3.71Z"/><path class="cls-4" d="M334.63,57.08V46h-2.8V43.71h2.8V39.09h2.63v4.62h3.43V46h-3.43v10.5c0,1.26.56,2.18,1.71,2.18a2.52,2.52,0,0,0,1.79-.71l.77,2A4.3,4.3,0,0,1,338.38,61C335.89,61,334.63,59.61,334.63,57.08Z"/><path class="cls-4" d="M345.31,65.14a2.44,2.44,0,0,0,2.52-1.79L349,60.79l-7.07-17.08h2.83l5.64,13.87L356,43.71h2.87l-8.47,20.34a5,5,0,0,1-5,3.43,8.57,8.57,0,0,1-1.93-.24l.42-2.38A4.19,4.19,0,0,0,345.31,65.14Z"/><path class="cls-4" d="M361.55,37.27h2.62V60.62h-2.62Z"/><path class="cls-4" d="M376.77,43.29c5.11,0,8.12,4,8.12,9.07V53H371.21a6,6,0,0,0,6.09,5.85,7.37,7.37,0,0,0,5.21-2.14l1.26,1.72A9.18,9.18,0,0,1,377.05,61c-5,0-8.61-3.61-8.61-8.89C368.44,47.25,371.94,43.29,376.77,43.29Zm-5.56,7.81H382.3a5.48,5.48,0,0,0-5.56-5.64C373.13,45.46,371.35,48.51,371.21,51.1Z"/><path class="cls-4" d="M409.32,36.89a11.16,11.16,0,0,1,9.07,4.37l-2.31,1.44a8.62,8.62,0,0,0-6.76-3.22c-5.11,0-9,3.92-9,9.48s3.88,9.53,9,9.53A9.21,9.21,0,0,0,415.59,56V51.2h-8V48.61h10.92v8.44a12.17,12.17,0,0,1-9.17,4,11.71,11.71,0,0,1-12-12.12A11.67,11.67,0,0,1,409.32,36.89Z"/><path class="cls-4" d="M434.52,58.24a8.26,8.26,0,0,1-6,2.8c-3.53,0-5.39-1.71-5.39-5.39V43.71h2.63V54.84c0,3,1.5,3.86,3.78,3.86a6.48,6.48,0,0,0,5-2.56V43.71h2.63V60.62h-2.63Z"/><path class="cls-4" d="M441.94,39.09a1.77,1.77,0,0,1,3.54,0,1.77,1.77,0,1,1-3.54,0Zm.46,4.62H445V60.62H442.4Z"/><path class="cls-4" d="M462.52,58.1a7.09,7.09,0,0,1-5.7,2.94c-4.41,0-7.53-3.36-7.53-8.86s3.08-8.89,7.53-8.89a7,7,0,0,1,5.7,3v-9h2.63V60.62h-2.63Zm0-9.73a6.33,6.33,0,0,0-5.07-2.73c-3.4,0-5.43,2.8-5.43,6.54s2,6.52,5.43,6.52A6.28,6.28,0,0,0,462.52,56Z"/><path class="cls-4" d="M477.75,43.29c5.11,0,8.12,4,8.12,9.07V53H472.18a6,6,0,0,0,6.09,5.85,7.38,7.38,0,0,0,5.22-2.14l1.26,1.72A9.19,9.19,0,0,1,478,61c-5,0-8.62-3.61-8.62-8.89C469.41,47.25,472.92,43.29,477.75,43.29Zm-5.57,7.81h11.1a5.49,5.49,0,0,0-5.57-5.64C474.11,45.46,472.32,48.51,472.18,51.1Z"/><path class="cls-4" d="M499.23,37.27h15.3v2.59H502.14v7.53h12.15V50H502.14V58h12.39v2.59h-15.3Z"/><path class="cls-4" d="M524.92,53.69l-5.07,6.93h-3l6.47-8.68-6.12-8.23h3l4.69,6.44,4.69-6.44h3l-6.13,8.23,6.52,8.68h-3Z"/><path class="cls-4" d="M546.62,58.7A7.3,7.3,0,0,1,541,61c-2.87,0-5.91-1.92-5.91-5.6s3-5.57,5.91-5.57a7.08,7.08,0,0,1,5.6,2.31v-3c0-2.28-1.82-3.57-4.27-3.57a6.72,6.72,0,0,0-5.18,2.34L536,46.09a8.85,8.85,0,0,1,6.75-2.8c3.57,0,6.55,1.61,6.55,5.71V60.62h-2.63Zm0-4.84a5.65,5.65,0,0,0-4.65-2.1c-2.45,0-4.17,1.54-4.17,3.71s1.72,3.68,4.17,3.68a5.65,5.65,0,0,0,4.65-2.1Z"/><path class="cls-4" d="M554.5,37.27h2.62V60.62H554.5Z"/><path class="cls-4" d="M562.9,57.08V46h-2.8V43.71h2.8V39.09h2.62v4.62H569V46h-3.43v10.5c0,1.26.56,2.18,1.72,2.18A2.51,2.51,0,0,0,569,58l.77,2A4.28,4.28,0,0,1,566.64,61C564.16,61,562.9,59.61,562.9,57.08Z"/><path class="cls-4" d="M571.68,52.15c0-4.9,3.22-8.86,8.37-8.86s8.36,4,8.36,8.86S585.19,61,580.05,61,571.68,57.05,571.68,52.15Zm14,0c0-3.43-2-6.51-5.6-6.51s-5.64,3.08-5.64,6.51,2,6.55,5.64,6.55S585.65,55.61,585.65,52.15Z"/><path class="cls-4" d="M604.09,49.56c0-3-1.5-3.92-3.78-3.92a6.54,6.54,0,0,0-5,2.62V60.62h-2.63V43.71h2.63v2.45a8.39,8.39,0,0,1,6-2.87c3.53,0,5.39,1.79,5.39,5.46V60.62h-2.63Z"/></g></g><path id="_ionicons_svg_ios-close" data-name=" ionicons svg ios-close" class="cls-4" d="M57.88,50l9.4-9.13a2.1,2.1,0,0,0,.06-3l-.06-.05a2.25,2.25,0,0,0-3.11,0L54.77,47l-9.4-9.12a2.27,2.27,0,0,0-3.12,0,2.09,2.09,0,0,0-.07,3l.07.07L51.65,50l-9.4,9.12a2.11,2.11,0,0,0-.07,3,.23.23,0,0,1,.07.07,2.27,2.27,0,0,0,3.12,0L54.77,53l9.4,9.13a2.25,2.25,0,0,0,3.11,0,2.1,2.1,0,0,0,.06-3l-.06-.06Z"/><g id="Group_13" data-name="Group 13"><g id="Invite:" class="cls-3"><g class="cls-3"><path class="cls-4" d="M102.93,406.66h2.84V420h-2.84Z"/><path class="cls-4" d="M114.87,414.16a1.57,1.57,0,0,0-1.78-1.8,2.75,2.75,0,0,0-2.2,1.14V420h-2.54v-9.66h2.54v1.26a4.42,4.42,0,0,1,3.38-1.5,2.81,2.81,0,0,1,3.14,3.08V420h-2.54Z"/><path class="cls-4" d="M118.55,410.34h2.72l2.52,6.72,2.52-6.72h2.74L125.17,420h-2.74Z"/><path class="cls-4" d="M129.93,407.4a1.52,1.52,0,1,1,1.52,1.52A1.53,1.53,0,0,1,129.93,407.4Zm.26,2.94h2.54V420h-2.54Z"/><path class="cls-4" d="M135.75,417.6v-5h-1.6v-2.22h1.6V407.7h2.56v2.64h2v2.22h-2v4.36c0,.6.32,1.06.88,1.06a1.39,1.39,0,0,0,.88-.28l.54,1.92a3.14,3.14,0,0,1-2.12.62A2.41,2.41,0,0,1,135.75,417.6Z"/><path class="cls-4" d="M146.39,410.1c2.88,0,4.84,2.16,4.84,5.32V416h-7.18a2.6,2.6,0,0,0,2.78,2.24,4,4,0,0,0,2.58-1l1.12,1.64a6,6,0,0,1-4,1.34,5.07,5.07,0,1,1-.16-10.14ZM144,414.26h4.76a2.24,2.24,0,0,0-2.38-2.14A2.32,2.32,0,0,0,144,414.26Z"/><path class="cls-4" d="M154.37,410.2a1.62,1.62,0,1,1-1.62,1.62A1.64,1.64,0,0,1,154.37,410.2Zm0,6.78a1.62,1.62,0,1,1-1.62,1.62A1.64,1.64,0,0,1,154.37,417Z"/></g></g><g id="Enter_email_or_name" data-name="Enter email or name" class="cls-3"><g class="cls-3"><path class="cls-4" d="M189.17,406.66h8.74v1.48h-7.08v4.3h6.94v1.48h-6.94v4.6h7.08V420h-8.74Z"/><path class="cls-4" d="M207,413.68c0-1.7-.86-2.24-2.16-2.24a3.73,3.73,0,0,0-2.86,1.5V420h-1.5v-9.66H202v1.4a4.79,4.79,0,0,1,3.44-1.64c2,0,3.08,1,3.08,3.12V420H207Z"/><path class="cls-4" d="M211.81,418v-6.32h-1.6v-1.32h1.6V407.7h1.5v2.64h2v1.32h-2v6c0,.72.32,1.24,1,1.24a1.45,1.45,0,0,0,1-.4l.44,1.12a2.45,2.45,0,0,1-1.8.62A2,2,0,0,1,211.81,418Z"/><path class="cls-4" d="M221.59,410.1c2.92,0,4.64,2.28,4.64,5.18v.38h-7.82a3.4,3.4,0,0,0,3.48,3.34,4.22,4.22,0,0,0,3-1.22l.72,1a5.25,5.25,0,0,1-3.84,1.48,5.08,5.08,0,0,1-.16-10.14Zm-3.18,4.46h6.34a3.13,3.13,0,0,0-3.18-3.22A3.22,3.22,0,0,0,218.41,414.56Z"/><path class="cls-4" d="M228.65,410.34h1.5v1.56a4.11,4.11,0,0,1,3.22-1.76v1.54a2.64,2.64,0,0,0-.6-.06,3.53,3.53,0,0,0-2.62,1.54V420h-1.5Z"/><path class="cls-4" d="M244.61,410.1c2.92,0,4.64,2.28,4.64,5.18v.38h-7.82a3.4,3.4,0,0,0,3.48,3.34,4.22,4.22,0,0,0,3-1.22l.72,1a5.25,5.25,0,0,1-3.84,1.48,5.08,5.08,0,0,1-.16-10.14Zm-3.18,4.46h6.34a3.13,3.13,0,0,0-3.18-3.22A3.22,3.22,0,0,0,241.43,414.56Z"/><path class="cls-4" d="M263.33,413.44c0-1.22-.54-2-1.78-2a3.38,3.38,0,0,0-2.56,1.48V420h-1.5v-6.56c0-1.22-.52-2-1.78-2a3.37,3.37,0,0,0-2.54,1.5V420h-1.5v-9.66h1.5v1.4a4.18,4.18,0,0,1,3.12-1.64,2.48,2.48,0,0,1,2.6,1.8,4.07,4.07,0,0,1,3.24-1.8c1.76,0,2.7,1,2.7,2.92v7h-1.5Z"/><path class="cls-4" d="M273.87,418.9a4.18,4.18,0,0,1-3.2,1.34,3.22,3.22,0,0,1-3.38-3.2,3.16,3.16,0,0,1,3.38-3.18,4,4,0,0,1,3.2,1.32v-1.74c0-1.3-1-2-2.44-2a3.84,3.84,0,0,0-3,1.34l-.7-1a5.06,5.06,0,0,1,3.86-1.6c2,0,3.74.92,3.74,3.26V420h-1.5Zm0-2.76a3.23,3.23,0,0,0-2.66-1.2,2.13,2.13,0,1,0,0,4.22,3.23,3.23,0,0,0,2.66-1.2Z"/><path class="cls-4" d="M278.11,407.7a1,1,0,0,1,2,0,1,1,0,1,1-2,0Zm.26,2.64h1.5V420h-1.5Z"/><path class="cls-4" d="M282.87,406.66h1.5V420h-1.5Z"/><path class="cls-4" d="M292,415.16a4.79,4.79,0,1,1,4.78,5.08A4.74,4.74,0,0,1,292,415.16Zm8,0c0-2-1.14-3.72-3.2-3.72s-3.22,1.76-3.22,3.72,1.16,3.74,3.22,3.74S300,417.14,300,415.16Z"/><path class="cls-4" d="M304,410.34h1.5v1.56a4.11,4.11,0,0,1,3.22-1.76v1.54a2.64,2.64,0,0,0-.6-.06,3.53,3.53,0,0,0-2.62,1.54V420H304Z"/><path class="cls-4" d="M322.25,413.68c0-1.7-.86-2.24-2.16-2.24a3.75,3.75,0,0,0-2.87,1.5V420h-1.5v-9.66h1.5v1.4a4.82,4.82,0,0,1,3.45-1.64c2,0,3.08,1,3.08,3.12V420h-1.5Z"/><path class="cls-4" d="M332.79,418.9a4.18,4.18,0,0,1-3.2,1.34,3.22,3.22,0,0,1-3.39-3.2,3.17,3.17,0,0,1,3.39-3.18,4,4,0,0,1,3.2,1.32v-1.74c0-1.3-1-2-2.44-2a3.86,3.86,0,0,0-3,1.34l-.7-1a5.06,5.06,0,0,1,3.87-1.6c2,0,3.74.92,3.74,3.26V420h-1.5Zm0-2.76a3.23,3.23,0,0,0-2.66-1.2,2.13,2.13,0,1,0,0,4.22,3.23,3.23,0,0,0,2.66-1.2Z"/><path class="cls-4" d="M349,413.44c0-1.22-.54-2-1.78-2a3.38,3.38,0,0,0-2.56,1.48V420h-1.5v-6.56c0-1.22-.52-2-1.78-2a3.41,3.41,0,0,0-2.55,1.5V420h-1.5v-9.66h1.5v1.4a4.22,4.22,0,0,1,3.13-1.64,2.48,2.48,0,0,1,2.6,1.8,4.07,4.07,0,0,1,3.24-1.8c1.76,0,2.7,1,2.7,2.92v7H349Z"/><path class="cls-4" d="M357.65,410.1c2.92,0,4.64,2.28,4.64,5.18v.38h-7.83A3.41,3.41,0,0,0,358,419a4.22,4.22,0,0,0,3-1.22l.72,1a5.25,5.25,0,0,1-3.84,1.48,5.08,5.08,0,0,1-.16-10.14Zm-3.19,4.46h6.35a3.13,3.13,0,0,0-3.18-3.22A3.22,3.22,0,0,0,354.46,414.56Z"/></g></g></g><line id="Line_12" data-name="Line 12" class="cls-2" x1="842.11" y1="451.5" x2="87.11" y2="451.5"/><g id="Create_Shareable_Link" data-name="Create Shareable Link" class="cls-3"><g class="cls-3"><path class="cls-4" d="M102.29,483.34a6.75,6.75,0,0,1,7-6.9A6.16,6.16,0,0,1,115,479.7l-2.44,1.2a3.65,3.65,0,0,0-3.24-1.94,4.39,4.39,0,0,0,0,8.76,3.62,3.62,0,0,0,3.24-1.94L115,487a6.19,6.19,0,0,1-5.68,3.28A6.75,6.75,0,0,1,102.29,483.34Z"/><path class="cls-4" d="M116.61,480.34h2.54v1.32a4.13,4.13,0,0,1,3.08-1.54v2.48a3.12,3.12,0,0,0-3.08,1V490h-2.54Z"/><path class="cls-4" d="M128.19,480.1c2.88,0,4.84,2.16,4.84,5.32V486h-7.18a2.6,2.6,0,0,0,2.78,2.24,4,4,0,0,0,2.58-1l1.12,1.64a6,6,0,0,1-4,1.34,5.07,5.07,0,1,1-.16-10.14Zm-2.38,4.16h4.76a2.24,2.24,0,0,0-2.38-2.14A2.32,2.32,0,0,0,125.81,484.26Z"/><path class="cls-4" d="M140.67,489a4,4,0,0,1-3.06,1.24,3.22,3.22,0,0,1-3.36-3.2,3.06,3.06,0,0,1,3.36-3.08,3.9,3.9,0,0,1,3.06,1.18V483.8c0-1-.84-1.62-2.12-1.62a4.06,4.06,0,0,0-2.82,1.14l-1-1.7A6.34,6.34,0,0,1,139,480.1c2.2,0,4.22.88,4.22,3.66V490h-2.54Zm0-2.52a2.54,2.54,0,0,0-2-.84c-1,0-1.82.52-1.82,1.46s.82,1.42,1.82,1.42a2.54,2.54,0,0,0,2-.84Z"/><path class="cls-4" d="M146.23,487.6v-5h-1.6v-2.22h1.6V477.7h2.56v2.64h2v2.22h-2v4.36c0,.6.32,1.06.88,1.06a1.39,1.39,0,0,0,.88-.28l.54,1.92a3.14,3.14,0,0,1-2.12.62A2.41,2.41,0,0,1,146.23,487.6Z"/><path class="cls-4" d="M156.87,480.1c2.88,0,4.84,2.16,4.84,5.32V486h-7.18a2.6,2.6,0,0,0,2.78,2.24,4,4,0,0,0,2.58-1L161,488.9a6,6,0,0,1-4,1.34,5.07,5.07,0,1,1-.16-10.14Zm-2.38,4.16h4.76a2.24,2.24,0,0,0-2.38-2.14A2.32,2.32,0,0,0,154.49,484.26Z"/><path class="cls-4" d="M169.37,486a5.85,5.85,0,0,0,4.24,1.8c1.56,0,2.32-.74,2.32-1.5,0-1-1.16-1.34-2.7-1.7-2.18-.5-5-1.1-5-4.08,0-2.22,1.92-4,5.06-4a7.42,7.42,0,0,1,5.2,1.86l-1.58,2.08a5.69,5.69,0,0,0-3.82-1.46c-1.28,0-2,.56-2,1.36s1.12,1.18,2.66,1.54c2.2.5,5,1.16,5,4.12,0,2.44-1.74,4.28-5.34,4.28a7.69,7.69,0,0,1-5.66-2.12Z"/><path class="cls-4" d="M187.21,484.12c0-1.34-.7-1.76-1.8-1.76a2.81,2.81,0,0,0-2.2,1.14V490h-2.54V476.66h2.54v4.94a4.47,4.47,0,0,1,3.4-1.5c2.12,0,3.14,1.16,3.14,3V490h-2.54Z"/><path class="cls-4" d="M198.07,489a4,4,0,0,1-3.06,1.24,3.22,3.22,0,0,1-3.36-3.2A3.06,3.06,0,0,1,195,484a3.9,3.9,0,0,1,3.06,1.18V483.8c0-1-.84-1.62-2.12-1.62a4.06,4.06,0,0,0-2.82,1.14l-1-1.7a6.34,6.34,0,0,1,4.22-1.52c2.2,0,4.22.88,4.22,3.66V490h-2.54Zm0-2.52a2.54,2.54,0,0,0-2-.84c-1,0-1.82.52-1.82,1.46s.82,1.42,1.82,1.42a2.54,2.54,0,0,0,2-.84Z"/><path class="cls-4" d="M203.13,480.34h2.54v1.32a4.13,4.13,0,0,1,3.08-1.54v2.48a3.12,3.12,0,0,0-3.08,1V490h-2.54Z"/><path class="cls-4" d="M214.71,480.1c2.88,0,4.84,2.16,4.84,5.32V486h-7.18a2.6,2.6,0,0,0,2.78,2.24,4,4,0,0,0,2.58-1l1.12,1.64a6,6,0,0,1-4,1.34,5.07,5.07,0,1,1-.16-10.14Zm-2.38,4.16h4.76a2.24,2.24,0,0,0-2.38-2.14A2.32,2.32,0,0,0,212.33,484.26Z"/><path class="cls-4" d="M227.19,489a4,4,0,0,1-3.06,1.24,3.22,3.22,0,0,1-3.36-3.2,3.06,3.06,0,0,1,3.36-3.08,3.9,3.9,0,0,1,3.06,1.18V483.8c0-1-.84-1.62-2.12-1.62a4.06,4.06,0,0,0-2.82,1.14l-1-1.7a6.34,6.34,0,0,1,4.22-1.52c2.2,0,4.22.88,4.22,3.66V490h-2.54Zm0-2.52a2.54,2.54,0,0,0-2-.84c-1,0-1.82.52-1.82,1.46s.82,1.42,1.82,1.42a2.54,2.54,0,0,0,2-.84Z"/><path class="cls-4" d="M232.25,476.66h2.54v4.92a3.72,3.72,0,0,1,3-1.48c2.46,0,4.28,1.92,4.28,5.08s-1.84,5.06-4.28,5.06a3.75,3.75,0,0,1-3-1.48V490h-2.54ZM237,488a2.83,2.83,0,0,0,0-5.62,2.8,2.8,0,0,0-2.18,1.12v3.42A2.83,2.83,0,0,0,237,488Z"/><path class="cls-4" d="M244,476.66h2.54V490H244Z"/><path class="cls-4" d="M253.41,480.1c2.88,0,4.84,2.16,4.84,5.32V486h-7.18a2.6,2.6,0,0,0,2.78,2.24,4,4,0,0,0,2.58-1l1.12,1.64a6,6,0,0,1-4,1.34,5.07,5.07,0,1,1-.16-10.14ZM251,484.26h4.76a2.24,2.24,0,0,0-2.38-2.14A2.32,2.32,0,0,0,251,484.26Z"/><path class="cls-4" d="M265.27,476.66h2.84V487.5h5.64V490h-8.48Z"/><path class="cls-4" d="M275.4,477.4a1.54,1.54,0,0,1,1.53-1.52,1.52,1.52,0,0,1,0,3A1.54,1.54,0,0,1,275.4,477.4Zm.27,2.94h2.54V490h-2.54Z"/><path class="cls-4" d="M287.25,484.16a1.57,1.57,0,0,0-1.78-1.8,2.75,2.75,0,0,0-2.2,1.14V490h-2.55v-9.66h2.55v1.26a4.42,4.42,0,0,1,3.38-1.5,2.81,2.81,0,0,1,3.14,3.08V490h-2.54Z"/><path class="cls-4" d="M296,486.28l-1.16,1.24V490H292.3V476.66h2.55v8l3.66-4.3h3.12l-3.82,4.38,3.94,5.28h-3.18Z"/></g></g><g id="Rectangle_44" data-name="Rectangle 44"><rect class="cls-5" x="101.61" y="507" width="731" height="31"/><rect class="cls-2" x="102.11" y="507.5" width="730" height="30"/></g><g id="adv-share-btn"><g id="Rectangle_45" data-name="Rectangle 45"><rect class="cls-5" x="697.61" y="593" width="135" height="46" rx="8"/><rect class="cls-2" x="698.11" y="593.5" width="134" height="45" rx="7.5"/></g><g id="Share" class="cls-3"><g class="cls-3"><path class="cls-4" d="M740.57,619a5.85,5.85,0,0,0,4.24,1.8c1.56,0,2.32-.74,2.32-1.5,0-1-1.16-1.34-2.7-1.7-2.18-.5-5-1.1-5-4.08,0-2.22,1.92-4,5.06-4a7.42,7.42,0,0,1,5.2,1.86l-1.58,2.08a5.69,5.69,0,0,0-3.82-1.46c-1.28,0-2,.56-2,1.36s1.12,1.18,2.66,1.54c2.2.5,5,1.16,5,4.12,0,2.44-1.74,4.28-5.34,4.28a7.69,7.69,0,0,1-5.66-2.12Z"/><path class="cls-4" d="M758.41,617.12c0-1.34-.7-1.76-1.8-1.76a2.81,2.81,0,0,0-2.2,1.14V623h-2.54V609.66h2.54v4.94a4.47,4.47,0,0,1,3.4-1.5c2.12,0,3.14,1.16,3.14,3V623h-2.54Z"/><path class="cls-4" d="M769.27,622a4,4,0,0,1-3.06,1.24,3.22,3.22,0,0,1-3.36-3.2,3.06,3.06,0,0,1,3.36-3.08,3.9,3.9,0,0,1,3.06,1.18V616.8c0-1-.84-1.62-2.12-1.62a4.06,4.06,0,0,0-2.82,1.14l-1-1.7a6.34,6.34,0,0,1,4.22-1.52c2.2,0,4.22.88,4.22,3.66V623h-2.54Zm0-2.52a2.54,2.54,0,0,0-2-.84c-1,0-1.82.52-1.82,1.46s.82,1.42,1.82,1.42a2.54,2.54,0,0,0,2-.84Z"/><path class="cls-4" d="M774.33,613.34h2.54v1.32a4.13,4.13,0,0,1,3.08-1.54v2.48a3.12,3.12,0,0,0-3.08,1V623h-2.54Z"/><path class="cls-4" d="M785.91,613.1c2.88,0,4.84,2.16,4.84,5.32V619h-7.18a2.6,2.6,0,0,0,2.78,2.24,4,4,0,0,0,2.58-1l1.12,1.64a6,6,0,0,1-4,1.34,5.07,5.07,0,1,1-.16-10.14Zm-2.38,4.16h4.76a2.24,2.24,0,0,0-2.38-2.14A2.32,2.32,0,0,0,783.53,617.26Z"/></g></g></g><g id="Can_Edit" data-name="Can Edit" class="cls-3"><g class="cls-3"><path class="cls-4" d="M104.88,142.68a8.33,8.33,0,0,1,8.5-8.63,7.52,7.52,0,0,1,6.4,3.3l-1.75,1a5.67,5.67,0,0,0-4.65-2.43c-3.57,0-6.35,2.8-6.35,6.78s2.78,6.77,6.35,6.77A5.61,5.61,0,0,0,118,147l1.77,1a7.58,7.58,0,0,1-6.42,3.3A8.33,8.33,0,0,1,104.88,142.68Z"/><path class="cls-4" d="M129.93,149.62a5.22,5.22,0,0,1-4,1.68,4,4,0,0,1-4.22-4,4,4,0,0,1,4.22-4,5,5,0,0,1,4,1.65V142.8c0-1.62-1.3-2.55-3.05-2.55a4.81,4.81,0,0,0-3.7,1.68l-.87-1.3a6.32,6.32,0,0,1,4.82-2c2.55,0,4.67,1.15,4.67,4.07V151h-1.87Zm0-3.44a4,4,0,0,0-3.32-1.5,2.65,2.65,0,1,0,0,5.27,4,4,0,0,0,3.32-1.5Z"/><path class="cls-4" d="M143.7,143.1c0-2.12-1.07-2.8-2.7-2.8a4.65,4.65,0,0,0-3.57,1.88V151h-1.87V138.93h1.87v1.75a6,6,0,0,1,4.3-2.05c2.52,0,3.85,1.27,3.85,3.9V151H143.7Z"/><path class="cls-4" d="M155.86,134.33h10.92v1.85h-8.85v5.37h8.67v1.85h-8.67v5.75h8.85V151H155.86Z"/><path class="cls-4" d="M178.75,149.2a5.09,5.09,0,0,1-4.07,2.1c-3.15,0-5.37-2.4-5.37-6.32s2.19-6.35,5.37-6.35a5,5,0,0,1,4.07,2.12v-6.42h1.88V151h-1.88Zm0-6.95a4.52,4.52,0,0,0-3.62-1.95c-2.43,0-3.88,2-3.88,4.68s1.45,4.64,3.88,4.64a4.47,4.47,0,0,0,3.62-1.89Z"/><path class="cls-4" d="M184.06,135.63a1.26,1.26,0,0,1,2.52,0,1.26,1.26,0,1,1-2.52,0Zm.32,3.3h1.87V151h-1.87Z"/><path class="cls-4" d="M190.38,148.48v-7.9h-2v-1.65h2v-3.3h1.87v3.3h2.45v1.65h-2.45v7.5c0,.9.4,1.54,1.23,1.54a1.78,1.78,0,0,0,1.27-.5l.55,1.41a3.1,3.1,0,0,1-2.25.77C191.28,151.3,190.38,150.28,190.38,148.48Z"/></g></g><g id="Can_Read" data-name="Can Read" class="cls-3"><g class="cls-3"><path class="cls-4" d="M104.88,200.68a8.33,8.33,0,0,1,8.5-8.63,7.52,7.52,0,0,1,6.4,3.3l-1.75,1a5.67,5.67,0,0,0-4.65-2.43c-3.57,0-6.35,2.8-6.35,6.78s2.78,6.77,6.35,6.77A5.61,5.61,0,0,0,118,205l1.77,1a7.58,7.58,0,0,1-6.42,3.3A8.33,8.33,0,0,1,104.88,200.68Z"/><path class="cls-4" d="M129.93,207.62a5.22,5.22,0,0,1-4,1.68,4,4,0,0,1-4.22-4,4,4,0,0,1,4.22-4,5,5,0,0,1,4,1.65V200.8c0-1.62-1.3-2.55-3.05-2.55a4.81,4.81,0,0,0-3.7,1.68l-.87-1.3a6.32,6.32,0,0,1,4.82-2c2.55,0,4.67,1.15,4.67,4.07V209h-1.87Zm0-3.44a4,4,0,0,0-3.32-1.5,2.65,2.65,0,1,0,0,5.27,4,4,0,0,0,3.32-1.5Z"/><path class="cls-4" d="M143.7,201.1c0-2.12-1.07-2.8-2.7-2.8a4.65,4.65,0,0,0-3.57,1.88V209h-1.87V196.93h1.87v1.75a6,6,0,0,1,4.3-2.05c2.52,0,3.85,1.27,3.85,3.9V209H143.7Z"/><path class="cls-4" d="M161.25,202.38h-3.32V209h-2.07V192.33h6.69c3,0,5.23,1.95,5.23,5a4.61,4.61,0,0,1-4.33,4.85L168,209H165.5Zm1.05-8.2h-4.37v6.37h4.37a3.19,3.19,0,1,0,0-6.37Z"/><path class="cls-4" d="M175.48,196.63c3.65,0,5.8,2.85,5.8,6.47v.48h-9.77a4.25,4.25,0,0,0,4.34,4.17,5.3,5.3,0,0,0,3.73-1.52l.9,1.22a6.57,6.57,0,0,1-4.8,1.85,6.34,6.34,0,0,1-.2-12.67Zm-4,5.57h7.92a3.92,3.92,0,0,0-4-4A4,4,0,0,0,171.51,202.2Z"/><path class="cls-4" d="M191.85,207.62a5.22,5.22,0,0,1-4,1.68,4,4,0,0,1-4.22-4,4,4,0,0,1,4.22-4,5,5,0,0,1,4,1.65V200.8c0-1.62-1.3-2.55-3-2.55a4.77,4.77,0,0,0-3.69,1.68l-.88-1.3a6.32,6.32,0,0,1,4.82-2c2.55,0,4.68,1.15,4.68,4.07V209h-1.88Zm0-3.44a4,4,0,0,0-3.32-1.5,2.65,2.65,0,1,0,0,5.27,4,4,0,0,0,3.32-1.5Z"/><path class="cls-4" d="M206.23,207.2a5.11,5.11,0,0,1-4.08,2.1c-3.15,0-5.37-2.4-5.37-6.32s2.2-6.35,5.37-6.35a5.07,5.07,0,0,1,4.08,2.12v-6.42h1.87V209h-1.87Zm0-6.95a4.55,4.55,0,0,0-3.63-1.95c-2.42,0-3.87,2-3.87,4.68s1.45,4.64,3.87,4.64a4.5,4.5,0,0,0,3.63-1.89Z"/></g></g><g id="Can_Download_Print_and_Copy" data-name="Can Download Print and Copy" class="cls-3"><g class="cls-3"><path class="cls-4" d="M104.88,262.68a8.33,8.33,0,0,1,8.5-8.63,7.52,7.52,0,0,1,6.4,3.3l-1.75,1a5.67,5.67,0,0,0-4.65-2.43c-3.57,0-6.35,2.8-6.35,6.78s2.78,6.77,6.35,6.77A5.61,5.61,0,0,0,118,267l1.77,1a7.58,7.58,0,0,1-6.42,3.3A8.33,8.33,0,0,1,104.88,262.68Z"/><path class="cls-4" d="M129.93,269.62a5.22,5.22,0,0,1-4,1.68,4,4,0,0,1-4.22-4,4,4,0,0,1,4.22-4,5,5,0,0,1,4,1.65V262.8c0-1.62-1.3-2.55-3.05-2.55a4.81,4.81,0,0,0-3.7,1.68l-.87-1.3a6.32,6.32,0,0,1,4.82-2c2.55,0,4.67,1.15,4.67,4.07V271h-1.87Zm0-3.44a4,4,0,0,0-3.32-1.5,2.65,2.65,0,1,0,0,5.27,4,4,0,0,0,3.32-1.5Z"/><path class="cls-4" d="M143.7,263.1c0-2.12-1.07-2.8-2.7-2.8a4.65,4.65,0,0,0-3.57,1.88V271h-1.87V258.93h1.87v1.75a6,6,0,0,1,4.3-2.05c2.52,0,3.85,1.27,3.85,3.9V271H143.7Z"/><path class="cls-4" d="M155.86,254.33h5.69c5.18,0,8.55,3.62,8.55,8.35s-3.37,8.32-8.55,8.32h-5.69Zm5.69,14.82a6.13,6.13,0,0,0,6.4-6.47c0-3.6-2.27-6.5-6.4-6.5h-3.62v13Z"/><path class="cls-4" d="M172.58,265c0-3.5,2.3-6.32,6-6.32s6,2.82,6,6.32-2.3,6.35-6,6.35S172.58,268.45,172.58,265Zm10,0c0-2.45-1.42-4.65-4-4.65s-4,2.2-4,4.65,1.45,4.67,4,4.67S182.55,267.43,182.55,265Z"/><path class="cls-4" d="M194.88,261.3l-3.15,9.7h-1.87L186,258.93h2l2.94,9.62,3.18-9.62h1.6l3.17,9.62,3-9.62h1.95L199.9,271H198Z"/><path class="cls-4" d="M214.08,263.1c0-2.12-1.08-2.8-2.7-2.8a4.62,4.62,0,0,0-3.57,1.88V271h-1.88V258.93h1.88v1.75a6,6,0,0,1,4.29-2.05c2.53,0,3.85,1.27,3.85,3.9V271h-1.87Z"/><path class="cls-4" d="M219.71,254.33h1.87V271h-1.87Z"/><path class="cls-4" d="M224.63,265c0-3.5,2.3-6.32,6-6.32s6,2.82,6,6.32-2.3,6.35-6,6.35S224.63,268.45,224.63,265Zm10,0c0-2.45-1.42-4.65-4-4.65s-4,2.2-4,4.65,1.45,4.67,4,4.67S234.6,267.43,234.6,265Z"/><path class="cls-4" d="M247.18,269.62a5.23,5.23,0,0,1-4,1.68,4,4,0,0,1-4.22-4,4,4,0,0,1,4.22-4,5,5,0,0,1,4,1.65V262.8c0-1.62-1.3-2.55-3.05-2.55a4.79,4.79,0,0,0-3.7,1.68l-.87-1.3a6.29,6.29,0,0,1,4.82-2c2.55,0,4.67,1.15,4.67,4.07V271h-1.87Zm0-3.44a4.05,4.05,0,0,0-3.33-1.5,2.65,2.65,0,1,0,0,5.27,4.05,4.05,0,0,0,3.33-1.5Z"/><path class="cls-4" d="M261.55,269.2a5.09,5.09,0,0,1-4.07,2.1c-3.15,0-5.37-2.4-5.37-6.32s2.19-6.35,5.37-6.35a5,5,0,0,1,4.07,2.12v-6.42h1.88V271h-1.88Zm0-6.95a4.52,4.52,0,0,0-3.62-1.95c-2.43,0-3.88,2-3.88,4.68s1.45,4.64,3.88,4.64a4.47,4.47,0,0,0,3.62-1.89Z"/><path class="cls-4" d="M266.73,273.4a3.74,3.74,0,0,0,1.62-2.32,1.4,1.4,0,0,1-.35,0,1.19,1.19,0,0,1-1.2-1.27,1.34,1.34,0,0,1,1.33-1.35,1.7,1.7,0,0,1,1.57,1.9,4.82,4.82,0,0,1-2.05,3.77Z"/><path class="cls-4" d="M279.45,254.33h6.7a5,5,0,1,1,0,10h-4.62V271h-2.08Zm6.45,1.85h-4.37v6.35h4.37a3.18,3.18,0,1,0,0-6.35Z"/><path class="cls-4" d="M294.05,258.93h1.88v1.95a5.1,5.1,0,0,1,4-2.2v1.92a3.3,3.3,0,0,0-.75-.07,4.42,4.42,0,0,0-3.27,1.92V271h-1.88Z"/><path class="cls-4" d="M302,255.63a1.26,1.26,0,0,1,2.52,0,1.26,1.26,0,1,1-2.52,0Zm.32,3.3h1.88V271H302.3Z"/><path class="cls-4" d="M316.08,263.1c0-2.12-1.08-2.8-2.7-2.8a4.65,4.65,0,0,0-3.58,1.88V271h-1.87V258.93h1.87v1.75a6,6,0,0,1,4.3-2.05c2.53,0,3.85,1.27,3.85,3.9V271h-1.87Z"/><path class="cls-4" d="M322.08,268.48v-7.9h-2v-1.65h2v-3.3H324v3.3h2.45v1.65H324v7.5c0,.9.4,1.54,1.23,1.54a1.78,1.78,0,0,0,1.27-.5l.55,1.41a3.1,3.1,0,0,1-2.25.77C323,271.3,322.08,270.28,322.08,268.48Z"/><path class="cls-4" d="M328.6,273.4a3.76,3.76,0,0,0,1.63-2.32,1.46,1.46,0,0,1-.35,0,1.19,1.19,0,0,1-1.2-1.27A1.33,1.33,0,0,1,330,268.5a1.7,1.7,0,0,1,1.58,1.9,4.82,4.82,0,0,1-2.05,3.77Z"/><path class="cls-4" d="M348.8,269.62a5.22,5.22,0,0,1-4,1.68,4,4,0,0,1-4.22-4,4,4,0,0,1,4.22-4,5,5,0,0,1,4,1.65V262.8c0-1.62-1.3-2.55-3.05-2.55a4.81,4.81,0,0,0-3.7,1.68l-.87-1.3a6.32,6.32,0,0,1,4.82-2c2.55,0,4.68,1.15,4.68,4.07V271H348.8Zm0-3.44a4,4,0,0,0-3.32-1.5,2.65,2.65,0,1,0,0,5.27,4,4,0,0,0,3.32-1.5Z"/><path class="cls-4" d="M362.58,263.1c0-2.12-1.08-2.8-2.7-2.8a4.65,4.65,0,0,0-3.58,1.88V271h-1.87V258.93h1.87v1.75a6,6,0,0,1,4.3-2.05c2.53,0,3.85,1.27,3.85,3.9V271h-1.87Z"/><path class="cls-4" d="M377,269.2a5.09,5.09,0,0,1-4.07,2.1c-3.15,0-5.38-2.4-5.38-6.32s2.2-6.35,5.38-6.35a5,5,0,0,1,4.07,2.12v-6.42h1.88V271H377Zm0-6.95a4.52,4.52,0,0,0-3.62-1.95c-2.43,0-3.88,2-3.88,4.68s1.45,4.64,3.88,4.64a4.47,4.47,0,0,0,3.62-1.89Z"/><path class="cls-4" d="M388.43,262.68a8.32,8.32,0,0,1,8.5-8.63,7.49,7.49,0,0,1,6.39,3.3l-1.75,1a5.65,5.65,0,0,0-4.64-2.43c-3.58,0-6.35,2.8-6.35,6.78s2.77,6.77,6.35,6.77a5.59,5.59,0,0,0,4.64-2.42l1.78,1a7.58,7.58,0,0,1-6.42,3.3A8.32,8.32,0,0,1,388.43,262.68Z"/><path class="cls-4" d="M405.23,265c0-3.5,2.3-6.32,6-6.32s6,2.82,6,6.32-2.29,6.35-6,6.35S405.23,268.45,405.23,265Zm10,0c0-2.45-1.42-4.65-4-4.65s-4,2.2-4,4.65,1.45,4.67,4,4.67S415.2,267.43,415.2,265Z"/><path class="cls-4" d="M420.23,275.6V258.93h1.87v1.8a5.05,5.05,0,0,1,4.08-2.1c3.17,0,5.37,2.4,5.37,6.32s-2.2,6.35-5.37,6.35a5,5,0,0,1-4.08-2.12v6.42Zm5.47-15.3a4.48,4.48,0,0,0-3.6,1.93v5.45a4.48,4.48,0,0,0,3.6,1.94c2.43,0,3.87-2,3.87-4.67S428.13,260.3,425.7,260.3Z"/><path class="cls-4" d="M435.23,274.22A1.74,1.74,0,0,0,437,273l.8-1.83-5.05-12.19h2l4,9.9,4-9.9h2l-6,14.52a3.6,3.6,0,0,1-3.55,2.45,6.13,6.13,0,0,1-1.38-.18l.3-1.7A2.82,2.82,0,0,0,435.23,274.22Z"/></g></g><g id="Must_Be_On_Company_Server" data-name="Must Be On Company Server" class="cls-3"><g class="cls-3"><path class="cls-4" d="M119.8,315.13,114.13,329h-.85l-5.65-13.87V329h-2.07V312.33h3L113.7,325l5.2-12.7h3V329H119.8Z"/><path class="cls-4" d="M133.85,327.3a5.89,5.89,0,0,1-4.29,2c-2.53,0-3.85-1.22-3.85-3.85v-8.52h1.87v7.95c0,2.12,1.08,2.74,2.7,2.74a4.6,4.6,0,0,0,3.57-1.82v-8.87h1.88V329h-1.88Z"/><path class="cls-4" d="M139.41,326.05a5.44,5.44,0,0,0,4,1.73c1.85,0,2.85-.83,2.85-2,0-1.33-1.48-1.75-3.1-2.15-2-.48-4.37-1-4.37-3.53,0-1.87,1.62-3.47,4.49-3.47a6.11,6.11,0,0,1,4.48,1.75l-.88,1.3a4.68,4.68,0,0,0-3.6-1.53c-1.64,0-2.67.75-2.67,1.83s1.38,1.55,2.95,1.92c2.1.48,4.52,1.08,4.52,3.75,0,2-1.62,3.65-4.74,3.65a6.43,6.43,0,0,1-4.88-1.9Z"/><path class="cls-4" d="M151.48,326.48v-7.9h-2v-1.65h2v-3.3h1.88v3.3h2.44v1.65h-2.44v7.5c0,.9.4,1.54,1.22,1.54a1.79,1.79,0,0,0,1.28-.5l.54,1.41a3.09,3.09,0,0,1-2.24.77C152.38,329.3,151.48,328.28,151.48,326.48Z"/><path class="cls-4" d="M165,312.33h7.42c2.9,0,4.68,1.75,4.68,4.25a3.78,3.78,0,0,1-2.93,3.82,4.16,4.16,0,0,1,3.25,4.1c0,2.68-1.77,4.5-4.82,4.5H165Zm7.07,7.22a2.59,2.59,0,0,0,2.88-2.67,2.62,2.62,0,0,0-2.88-2.7h-5v5.37Zm.1,7.6c1.95,0,3.1-1.1,3.1-2.87a2.83,2.83,0,0,0-3.1-2.88h-5.09v5.75Z"/><path class="cls-4" d="M185.88,316.63c3.65,0,5.8,2.85,5.8,6.47v.48h-9.77a4.25,4.25,0,0,0,4.34,4.17,5.3,5.3,0,0,0,3.73-1.52l.9,1.22a6.57,6.57,0,0,1-4.8,1.85,6.34,6.34,0,0,1-.2-12.67Zm-4,5.57h7.92a3.92,3.92,0,0,0-4-4A4,4,0,0,0,181.91,322.2Z"/><path class="cls-4" d="M208.83,312.05c4.92,0,8.27,3.7,8.27,8.63s-3.35,8.62-8.27,8.62-8.27-3.7-8.27-8.62S203.88,312.05,208.83,312.05Zm0,1.85c-3.75,0-6.12,2.88-6.12,6.78s2.37,6.77,6.12,6.77,6.12-2.9,6.12-6.77S212.55,313.9,208.83,313.9Z"/><path class="cls-4" d="M228.43,321.1c0-2.12-1.08-2.8-2.7-2.8a4.65,4.65,0,0,0-3.58,1.88V329h-1.87V316.93h1.87v1.75a6,6,0,0,1,4.3-2.05c2.53,0,3.85,1.27,3.85,3.9V329h-1.87Z"/><path class="cls-4" d="M239.91,320.68a8.32,8.32,0,0,1,8.49-8.63,7.5,7.5,0,0,1,6.4,3.3l-1.75,1a5.66,5.66,0,0,0-4.65-2.43c-3.57,0-6.35,2.8-6.35,6.78s2.78,6.77,6.35,6.77a5.6,5.6,0,0,0,4.65-2.42l1.78,1a7.59,7.59,0,0,1-6.43,3.3A8.32,8.32,0,0,1,239.91,320.68Z"/><path class="cls-4" d="M256.71,323c0-3.5,2.29-6.32,6-6.32s6,2.82,6,6.32-2.3,6.35-6,6.35S256.71,326.45,256.71,323Zm10,0c0-2.45-1.43-4.65-4-4.65s-4,2.2-4,4.65,1.45,4.67,4,4.67S266.68,325.43,266.68,323Z"/><path class="cls-4" d="M286.28,320.8c0-1.52-.68-2.5-2.23-2.5a4.23,4.23,0,0,0-3.2,1.85V329H279v-8.2c0-1.52-.65-2.5-2.23-2.5a4.21,4.21,0,0,0-3.17,1.88V329H271.7V316.93h1.88v1.75a5.19,5.19,0,0,1,3.9-2.05,3.1,3.1,0,0,1,3.25,2.25,5.07,5.07,0,0,1,4-2.25c2.2,0,3.37,1.22,3.37,3.65V329h-1.87Z"/><path class="cls-4" d="M291.9,333.6V316.93h1.88v1.8a5,5,0,0,1,4.07-2.1c3.18,0,5.38,2.4,5.38,6.32s-2.2,6.35-5.38,6.35a4.93,4.93,0,0,1-4.07-2.12v6.42Zm5.48-15.3a4.46,4.46,0,0,0-3.6,1.93v5.45a4.47,4.47,0,0,0,3.6,1.94c2.42,0,3.87-2,3.87-4.67S299.8,318.3,297.38,318.3Z"/><path class="cls-4" d="M313.8,327.62a5.22,5.22,0,0,1-4,1.68,4,4,0,0,1-4.22-4,4,4,0,0,1,4.22-4,5,5,0,0,1,4,1.65V320.8c0-1.62-1.3-2.55-3.05-2.55a4.81,4.81,0,0,0-3.7,1.68l-.87-1.3a6.32,6.32,0,0,1,4.82-2c2.55,0,4.68,1.15,4.68,4.07V329H313.8Zm0-3.44a4,4,0,0,0-3.32-1.5,2.65,2.65,0,1,0,0,5.27,4,4,0,0,0,3.32-1.5Z"/><path class="cls-4" d="M327.58,321.1c0-2.12-1.08-2.8-2.7-2.8a4.65,4.65,0,0,0-3.58,1.88V329h-1.87V316.93h1.87v1.75a6,6,0,0,1,4.3-2.05c2.53,0,3.85,1.27,3.85,3.9V329h-1.87Z"/><path class="cls-4" d="M333.85,332.22a1.73,1.73,0,0,0,1.8-1.27l.8-1.83-5.05-12.19h2l4,9.9,4-9.9h2.05l-6.05,14.52a3.59,3.59,0,0,1-3.55,2.45,6,6,0,0,1-1.37-.18l.3-1.7A2.73,2.73,0,0,0,333.85,332.22Z"/><path class="cls-4" d="M352.2,325.08a7.06,7.06,0,0,0,5.25,2.37c3,0,3.93-1.6,3.93-2.87,0-2-2-2.55-4.23-3.15-2.67-.7-5.65-1.45-5.65-4.73,0-2.75,2.45-4.62,5.73-4.62a7.84,7.84,0,0,1,5.92,2.32l-1.25,1.53a6.36,6.36,0,0,0-4.82-2c-2,0-3.43,1.07-3.43,2.65s1.93,2.17,4.05,2.75c2.73.72,5.83,1.57,5.83,5.07,0,2.43-1.65,4.9-6.15,4.9a8.25,8.25,0,0,1-6.4-2.65Z"/><path class="cls-4" d="M371.8,316.63c3.65,0,5.8,2.85,5.8,6.47v.48h-9.77a4.25,4.25,0,0,0,4.35,4.17,5.29,5.29,0,0,0,3.72-1.52l.9,1.22a6.55,6.55,0,0,1-4.8,1.85,6.34,6.34,0,0,1-.2-12.67Zm-4,5.57h7.92a3.9,3.9,0,0,0-4-4A4,4,0,0,0,367.83,322.2Z"/><path class="cls-4" d="M380.63,316.93h1.87v1.95a5.14,5.14,0,0,1,4-2.2v1.92a3.36,3.36,0,0,0-.75-.07,4.44,4.44,0,0,0-3.28,1.92V329h-1.87Z"/><path class="cls-4" d="M387.08,316.93h2l4,9.9,4-9.9h2.05l-5,12.07h-2Z"/><path class="cls-4" d="M406.38,316.63c3.65,0,5.8,2.85,5.8,6.47v.48H402.4a4.25,4.25,0,0,0,4.35,4.17,5.3,5.3,0,0,0,3.73-1.52l.9,1.22a6.57,6.57,0,0,1-4.8,1.85,6.34,6.34,0,0,1-.2-12.67Zm-4,5.57h7.93a3.92,3.92,0,0,0-4-4A4,4,0,0,0,402.4,322.2Z"/><path class="cls-4" d="M415.2,316.93h1.88v1.95a5.1,5.1,0,0,1,4-2.2v1.92a3.3,3.3,0,0,0-.75-.07,4.42,4.42,0,0,0-3.27,1.92V329H415.2Z"/></g></g><g id="Set_Geographical_Limit" data-name="Set Geographical Limit" class="cls-3"><g class="cls-3"><path class="cls-4" d="M577.78,147.08a7.06,7.06,0,0,0,5.25,2.37c3,0,3.92-1.6,3.92-2.87,0-2-2-2.55-4.22-3.15-2.67-.7-5.65-1.45-5.65-4.73,0-2.75,2.45-4.62,5.73-4.62a7.86,7.86,0,0,1,5.92,2.32l-1.25,1.53a6.36,6.36,0,0,0-4.82-2c-2,0-3.43,1.07-3.43,2.65s1.93,2.17,4,2.75c2.72.72,5.82,1.57,5.82,5.07,0,2.43-1.65,4.9-6.14,4.9a8.25,8.25,0,0,1-6.4-2.65Z"/><path class="cls-4" d="M597.38,138.63c3.65,0,5.8,2.85,5.8,6.47v.48h-9.77a4.25,4.25,0,0,0,4.34,4.17,5.3,5.3,0,0,0,3.73-1.52l.9,1.22a6.57,6.57,0,0,1-4.8,1.85,6.34,6.34,0,0,1-.2-12.67Zm-4,5.57h7.92a3.92,3.92,0,0,0-4-4A4,4,0,0,0,593.41,144.2Z"/><path class="cls-4" d="M606.58,148.48v-7.9h-2v-1.65h2v-3.3h1.88v3.3h2.44v1.65h-2.44v7.5c0,.9.4,1.54,1.22,1.54a1.79,1.79,0,0,0,1.28-.5l.54,1.41a3.07,3.07,0,0,1-2.24.77C607.48,151.3,606.58,150.28,606.58,148.48Z"/><path class="cls-4" d="M628,134.05a7.92,7.92,0,0,1,6.47,3.13l-1.65,1a6.14,6.14,0,0,0-4.82-2.3c-3.65,0-6.42,2.8-6.42,6.78s2.77,6.8,6.42,6.8a6.58,6.58,0,0,0,4.47-1.8v-3.4h-5.72v-1.85h7.8v6a8.71,8.71,0,0,1-6.55,2.88,8.64,8.64,0,0,1,0-17.28Z"/><path class="cls-4" d="M643.08,138.63c3.65,0,5.8,2.85,5.8,6.47v.48h-9.77a4.25,4.25,0,0,0,4.34,4.17,5.3,5.3,0,0,0,3.73-1.52l.9,1.22a6.57,6.57,0,0,1-4.8,1.85,6.34,6.34,0,0,1-.2-12.67Zm-4,5.57H647a3.92,3.92,0,0,0-4-4A4,4,0,0,0,639.11,144.2Z"/><path class="cls-4" d="M651.21,145c0-3.5,2.29-6.32,6-6.32s6,2.82,6,6.32-2.3,6.35-6,6.35S651.21,148.45,651.21,145Zm10,0c0-2.45-1.43-4.65-4-4.65s-4,2.2-4,4.65,1.45,4.67,4,4.67S661.18,147.43,661.18,145Z"/><path class="cls-4" d="M667.13,152.7a4.61,4.61,0,0,0,3.92,1.65c2,0,3.88-1,3.88-3.63V149a5,5,0,0,1-4,2.15c-3.15,0-5.37-2.35-5.37-6.25s2.19-6.27,5.37-6.27a5,5,0,0,1,4,2.12v-1.82h1.87v11.72c0,4-2.8,5.25-5.75,5.25a6.17,6.17,0,0,1-4.87-1.8Zm7.8-10.45a4.45,4.45,0,0,0-3.6-1.95c-2.43,0-3.88,1.93-3.88,4.6s1.45,4.6,3.88,4.6a4.47,4.47,0,0,0,3.6-2Z"/><path class="cls-4" d="M680.56,138.93h1.87v1.95a5.1,5.1,0,0,1,4-2.2v1.92a3.3,3.3,0,0,0-.75-.07,4.42,4.42,0,0,0-3.27,1.92V151h-1.87Z"/><path class="cls-4" d="M696.35,149.62a5.22,5.22,0,0,1-4,1.68,4,4,0,0,1-4.22-4,4,4,0,0,1,4.22-4,5,5,0,0,1,4,1.65V142.8c0-1.62-1.3-2.55-3.05-2.55a4.81,4.81,0,0,0-3.7,1.68l-.87-1.3a6.32,6.32,0,0,1,4.82-2c2.55,0,4.68,1.15,4.68,4.07V151h-1.88Zm0-3.44a4,4,0,0,0-3.32-1.5,2.65,2.65,0,1,0,0,5.27,4,4,0,0,0,3.32-1.5Z"/><path class="cls-4" d="M702,155.6V138.93h1.87v1.8a5.05,5.05,0,0,1,4.08-2.1c3.17,0,5.37,2.4,5.37,6.32s-2.2,6.35-5.37,6.35a5,5,0,0,1-4.08-2.12v6.42Zm5.47-15.3a4.48,4.48,0,0,0-3.6,1.93v5.45a4.48,4.48,0,0,0,3.6,1.94c2.43,0,3.88-2,3.88-4.67S709.88,140.3,707.45,140.3Z"/><path class="cls-4" d="M724.5,143.05c0-2.12-1.1-2.75-2.72-2.75a4.75,4.75,0,0,0-3.58,1.88V151h-1.87V134.33h1.87v6.35a6,6,0,0,1,4.33-2.05c2.52,0,3.85,1.22,3.85,3.85V151H724.5Z"/><path class="cls-4" d="M729.8,135.63a1.27,1.27,0,0,1,2.53,0,1.27,1.27,0,1,1-2.53,0Zm.33,3.3H732V151h-1.87Z"/><path class="cls-4" d="M741.08,138.63a5.15,5.15,0,0,1,4.42,2.1l-1.25,1.15a3.58,3.58,0,0,0-3.07-1.58c-2.58,0-4.18,2-4.18,4.65s1.6,4.67,4.18,4.67a3.64,3.64,0,0,0,3.07-1.57l1.25,1.15a5.15,5.15,0,0,1-4.42,2.1c-3.6,0-6-2.75-6-6.35A6,6,0,0,1,741.08,138.63Z"/><path class="cls-4" d="M755.68,149.62a5.23,5.23,0,0,1-4,1.68,4,4,0,0,1-4.23-4,4,4,0,0,1,4.23-4,5,5,0,0,1,4,1.65V142.8c0-1.62-1.3-2.55-3-2.55a4.79,4.79,0,0,0-3.7,1.68l-.88-1.3a6.32,6.32,0,0,1,4.83-2c2.55,0,4.67,1.15,4.67,4.07V151h-1.87Zm0-3.44a4.05,4.05,0,0,0-3.33-1.5,2.65,2.65,0,1,0,0,5.27,4.05,4.05,0,0,0,3.33-1.5Z"/><path class="cls-4" d="M761.3,134.33h1.88V151H761.3Z"/><path class="cls-4" d="M773.45,134.33h2.08v14.82h7.75V151h-9.83Z"/><path class="cls-4" d="M785.8,135.63a1.27,1.27,0,0,1,2.53,0,1.27,1.27,0,1,1-2.53,0Zm.33,3.3H788V151h-1.87Z"/><path class="cls-4" d="M806.32,142.8c0-1.52-.67-2.5-2.22-2.5a4.22,4.22,0,0,0-3.2,1.85V151H799v-8.2c0-1.52-.65-2.5-2.23-2.5a4.21,4.21,0,0,0-3.17,1.88V151h-1.88V138.93h1.88v1.75a5.19,5.19,0,0,1,3.9-2.05,3.1,3.1,0,0,1,3.25,2.25,5.06,5.06,0,0,1,4-2.25c2.2,0,3.38,1.22,3.38,3.65V151h-1.88Z"/><path class="cls-4" d="M811.63,135.63a1.26,1.26,0,0,1,2.52,0,1.26,1.26,0,1,1-2.52,0Zm.32,3.3h1.88V151H812Z"/><path class="cls-4" d="M818,148.48v-7.9h-2v-1.65h2v-3.3h1.88v3.3h2.45v1.65h-2.45v7.5c0,.9.4,1.54,1.22,1.54a1.79,1.79,0,0,0,1.28-.5l.55,1.41a3.12,3.12,0,0,1-2.25.77C818.85,151.3,818,150.28,818,148.48Z"/></g></g><g id="Password_Protection" data-name="Password Protection" class="cls-3"><g class="cls-3"><path class="cls-4" d="M577.56,192.33h6.69a5,5,0,1,1,0,10h-4.62V209h-2.07Zm6.44,1.85h-4.37v6.35H584a3.18,3.18,0,1,0,0-6.35Z"/><path class="cls-4" d="M599.2,207.62a5.21,5.21,0,0,1-4,1.68,4,4,0,0,1-4.23-4,4,4,0,0,1,4.23-4,5,5,0,0,1,4,1.65V200.8c0-1.62-1.3-2.55-3-2.55a4.79,4.79,0,0,0-3.7,1.68l-.88-1.3a6.32,6.32,0,0,1,4.83-2c2.54,0,4.67,1.15,4.67,4.07V209H599.2Zm0-3.44a4,4,0,0,0-3.32-1.5,2.65,2.65,0,1,0,0,5.27,4,4,0,0,0,3.32-1.5Z"/><path class="cls-4" d="M604.76,206.05a5.44,5.44,0,0,0,4,1.73c1.85,0,2.85-.83,2.85-2,0-1.33-1.47-1.75-3.1-2.15-2.05-.48-4.37-1-4.37-3.53,0-1.87,1.62-3.47,4.5-3.47a6.1,6.1,0,0,1,4.47,1.75l-.88,1.3a4.68,4.68,0,0,0-3.59-1.53c-1.65,0-2.68.75-2.68,1.83s1.38,1.55,3,1.92c2.1.48,4.52,1.08,4.52,3.75,0,2-1.62,3.65-4.74,3.65a6.43,6.43,0,0,1-4.88-1.9Z"/><path class="cls-4" d="M616.38,206.05a5.47,5.47,0,0,0,4,1.73c1.84,0,2.84-.83,2.84-2,0-1.33-1.47-1.75-3.09-2.15-2.05-.48-4.38-1-4.38-3.53,0-1.87,1.63-3.47,4.5-3.47a6.07,6.07,0,0,1,4.47,1.75l-.87,1.3a4.7,4.7,0,0,0-3.6-1.53c-1.65,0-2.67.75-2.67,1.83s1.37,1.55,2.94,1.92c2.1.48,4.53,1.08,4.53,3.75,0,2-1.63,3.65-4.75,3.65a6.41,6.41,0,0,1-4.87-1.9Z"/><path class="cls-4" d="M635.38,199.3l-3.15,9.7h-1.87l-3.85-12.07h2l2.95,9.62,3.17-9.62h1.6l3.17,9.62,2.95-9.62h2L640.4,209h-1.87Z"/><path class="cls-4" d="M645.73,203c0-3.5,2.3-6.32,6-6.32s6,2.82,6,6.32-2.3,6.35-6,6.35S645.73,206.45,645.73,203Zm10,0c0-2.45-1.42-4.65-4-4.65s-4,2.2-4,4.65,1.45,4.67,4,4.67S655.7,205.43,655.7,203Z"/><path class="cls-4" d="M660.73,196.93h1.88v1.95a5.1,5.1,0,0,1,4-2.2v1.92a3.36,3.36,0,0,0-.75-.07,4.42,4.42,0,0,0-3.27,1.92V209h-1.88Z"/><path class="cls-4" d="M677.73,207.2a5.11,5.11,0,0,1-4.08,2.1c-3.14,0-5.37-2.4-5.37-6.32s2.2-6.35,5.37-6.35a5.07,5.07,0,0,1,4.08,2.12v-6.42h1.87V209h-1.87Zm0-6.95a4.55,4.55,0,0,0-3.63-1.95c-2.42,0-3.87,2-3.87,4.68s1.45,4.64,3.87,4.64a4.5,4.5,0,0,0,3.63-1.89Z"/><path class="cls-4" d="M689.88,192.33h6.7a5,5,0,1,1,0,10H692V209h-2.07Zm6.45,1.85H692v6.35h4.38a3.18,3.18,0,1,0,0-6.35Z"/><path class="cls-4" d="M704.48,196.93h1.87v1.95a5.14,5.14,0,0,1,4-2.2v1.92a3.36,3.36,0,0,0-.75-.07,4.44,4.44,0,0,0-3.28,1.92V209h-1.87Z"/><path class="cls-4" d="M712,203c0-3.5,2.3-6.32,6-6.32s6,2.82,6,6.32-2.3,6.35-6,6.35S712,206.45,712,203Zm10,0c0-2.45-1.42-4.65-4-4.65s-4,2.2-4,4.65,1.45,4.67,4,4.67S722,205.43,722,203Z"/><path class="cls-4" d="M727.4,206.48v-7.9h-2v-1.65h2v-3.3h1.88v3.3h2.45v1.65h-2.45v7.5c0,.9.4,1.54,1.22,1.54a1.79,1.79,0,0,0,1.28-.5l.55,1.41a3.12,3.12,0,0,1-2.25.77C728.3,209.3,727.4,208.28,727.4,206.48Z"/><path class="cls-4" d="M739.63,196.63c3.65,0,5.8,2.85,5.8,6.47v.48h-9.78a4.25,4.25,0,0,0,4.35,4.17,5.3,5.3,0,0,0,3.73-1.52l.9,1.22a6.57,6.57,0,0,1-4.8,1.85,6.34,6.34,0,0,1-.2-12.67Zm-4,5.57h7.93a3.92,3.92,0,0,0-4-4A4,4,0,0,0,735.65,202.2Z"/><path class="cls-4" d="M753.78,196.63a5.15,5.15,0,0,1,4.42,2.1L757,199.88a3.58,3.58,0,0,0-3.07-1.58c-2.58,0-4.18,2-4.18,4.65s1.6,4.67,4.18,4.67a3.64,3.64,0,0,0,3.07-1.57l1.25,1.15a5.15,5.15,0,0,1-4.42,2.1c-3.6,0-6-2.75-6-6.35A6,6,0,0,1,753.78,196.63Z"/><path class="cls-4" d="M761.2,206.48v-7.9h-2v-1.65h2v-3.3h1.88v3.3h2.45v1.65h-2.45v7.5c0,.9.4,1.54,1.22,1.54a1.79,1.79,0,0,0,1.28-.5l.55,1.41a3.12,3.12,0,0,1-2.25.77C762.1,209.3,761.2,208.28,761.2,206.48Z"/><path class="cls-4" d="M767.85,193.63a1.27,1.27,0,0,1,2.53,0,1.27,1.27,0,1,1-2.53,0Zm.33,3.3h1.87V209h-1.87Z"/><path class="cls-4" d="M773.1,203c0-3.5,2.3-6.32,6-6.32s6,2.82,6,6.32-2.3,6.35-6,6.35S773.1,206.45,773.1,203Zm10,0c0-2.45-1.43-4.65-4-4.65s-4,2.2-4,4.65,1.45,4.67,4,4.67S783.08,205.43,783.08,203Z"/><path class="cls-4" d="M796.25,201.1c0-2.12-1.07-2.8-2.7-2.8a4.65,4.65,0,0,0-3.57,1.88V209H788.1V196.93H790v1.75a6,6,0,0,1,4.3-2.05c2.52,0,3.85,1.27,3.85,3.9V209h-1.88Z"/></g></g><g id="Expiration_Date" data-name="Expiration Date" class="cls-3"><g class="cls-3"><path class="cls-4" d="M577.56,254.33h10.92v1.85h-8.85v5.37h8.67v1.85h-8.67v5.75h8.85V271H577.56Z"/><path class="cls-4" d="M595.91,266.05,592.28,271h-2.15l4.63-6.2-4.38-5.87h2.18l3.35,4.6,3.34-4.6h2.18l-4.38,5.87,4.65,6.2h-2.17Z"/><path class="cls-4" d="M603.86,275.6V258.93h1.87v1.8a5,5,0,0,1,4.07-2.1c3.18,0,5.38,2.4,5.38,6.32s-2.2,6.35-5.38,6.35a4.94,4.94,0,0,1-4.07-2.12v6.42Zm5.47-15.3a4.48,4.48,0,0,0-3.6,1.93v5.45a4.48,4.48,0,0,0,3.6,1.94c2.42,0,3.87-2,3.87-4.67S611.75,260.3,609.33,260.3Z"/><path class="cls-4" d="M617.88,255.63a1.27,1.27,0,0,1,2.53,0,1.27,1.27,0,1,1-2.53,0Zm.33,3.3h1.87V271h-1.87Z"/><path class="cls-4" d="M623.83,258.93h1.88v1.95a5.1,5.1,0,0,1,4-2.2v1.92a3.36,3.36,0,0,0-.75-.07,4.4,4.4,0,0,0-3.27,1.92V271h-1.88Z"/><path class="cls-4" d="M639.63,269.62a5.23,5.23,0,0,1-4,1.68,4,4,0,0,1-4.22-4,4,4,0,0,1,4.22-4,5,5,0,0,1,4,1.65V262.8c0-1.62-1.3-2.55-3-2.55a4.79,4.79,0,0,0-3.7,1.68l-.87-1.3a6.29,6.29,0,0,1,4.82-2c2.55,0,4.67,1.15,4.67,4.07V271h-1.87Zm0-3.44a4.05,4.05,0,0,0-3.33-1.5,2.65,2.65,0,1,0,0,5.27,4.05,4.05,0,0,0,3.33-1.5Z"/><path class="cls-4" d="M645.63,268.48v-7.9h-2v-1.65h2v-3.3h1.87v3.3H650v1.65H647.5v7.5c0,.9.4,1.54,1.23,1.54a1.78,1.78,0,0,0,1.27-.5l.55,1.41a3.1,3.1,0,0,1-2.25.77C646.53,271.3,645.63,270.28,645.63,268.48Z"/><path class="cls-4" d="M652.28,255.63a1.26,1.26,0,0,1,2.52,0,1.26,1.26,0,1,1-2.52,0Zm.32,3.3h1.88V271H652.6Z"/><path class="cls-4" d="M657.53,265c0-3.5,2.3-6.32,6-6.32s6,2.82,6,6.32-2.3,6.35-6,6.35S657.53,268.45,657.53,265Zm10,0c0-2.45-1.42-4.65-4-4.65s-4,2.2-4,4.65,1.45,4.67,4,4.67S667.5,267.43,667.5,265Z"/><path class="cls-4" d="M680.68,263.1c0-2.12-1.08-2.8-2.7-2.8a4.65,4.65,0,0,0-3.58,1.88V271h-1.87V258.93h1.87v1.75a6,6,0,0,1,4.3-2.05c2.53,0,3.85,1.27,3.85,3.9V271h-1.87Z"/><path class="cls-4" d="M692.83,254.33h5.7a8.11,8.11,0,0,1,8.55,8.35c0,4.75-3.38,8.32-8.55,8.32h-5.7Zm5.7,14.82a6.13,6.13,0,0,0,6.4-6.47c0-3.6-2.28-6.5-6.4-6.5H694.9v13Z"/><path class="cls-4" d="M717.8,269.62a5.22,5.22,0,0,1-4,1.68,4,4,0,0,1-4.22-4,4,4,0,0,1,4.22-4,5,5,0,0,1,4,1.65V262.8c0-1.62-1.3-2.55-3-2.55a4.81,4.81,0,0,0-3.7,1.68l-.87-1.3a6.32,6.32,0,0,1,4.82-2c2.55,0,4.68,1.15,4.68,4.07V271H717.8Zm0-3.44a4,4,0,0,0-3.32-1.5,2.65,2.65,0,1,0,0,5.27,4,4,0,0,0,3.32-1.5Z"/><path class="cls-4" d="M723.8,268.48v-7.9h-2v-1.65h2v-3.3h1.88v3.3h2.45v1.65h-2.45v7.5c0,.9.4,1.54,1.22,1.54a1.79,1.79,0,0,0,1.28-.5l.55,1.41a3.12,3.12,0,0,1-2.25.77C724.7,271.3,723.8,270.28,723.8,268.48Z"/><path class="cls-4" d="M736,258.63c3.65,0,5.8,2.85,5.8,6.47v.48h-9.78a4.25,4.25,0,0,0,4.35,4.17,5.3,5.3,0,0,0,3.73-1.52l.9,1.22a6.57,6.57,0,0,1-4.8,1.85,6.34,6.34,0,0,1-.2-12.67Zm-4,5.57H740a3.92,3.92,0,0,0-4-4A4,4,0,0,0,732.05,264.2Z"/></g></g><g id="Can_Share_File" data-name="Can Share File" class="cls-3"><g class="cls-3"><path class="cls-4" d="M576.88,320.68a8.33,8.33,0,0,1,8.5-8.63,7.52,7.52,0,0,1,6.4,3.3l-1.75,1a5.67,5.67,0,0,0-4.65-2.43c-3.57,0-6.35,2.8-6.35,6.78s2.78,6.77,6.35,6.77A5.61,5.61,0,0,0,590,325l1.77,1a7.58,7.58,0,0,1-6.42,3.3A8.33,8.33,0,0,1,576.88,320.68Z"/><path class="cls-4" d="M601.93,327.62a5.22,5.22,0,0,1-4,1.68,4,4,0,0,1-4.22-4,4,4,0,0,1,4.22-4,5,5,0,0,1,4,1.65V320.8c0-1.62-1.3-2.55-3-2.55a4.81,4.81,0,0,0-3.7,1.68l-.87-1.3a6.32,6.32,0,0,1,4.82-2c2.55,0,4.67,1.15,4.67,4.07V329h-1.87Zm0-3.44a4,4,0,0,0-3.32-1.5,2.65,2.65,0,1,0,0,5.27,4,4,0,0,0,3.32-1.5Z"/><path class="cls-4" d="M615.7,321.1c0-2.12-1.07-2.8-2.7-2.8a4.65,4.65,0,0,0-3.57,1.88V329h-1.87V316.93h1.87v1.75a6,6,0,0,1,4.3-2.05c2.52,0,3.85,1.27,3.85,3.9V329H615.7Z"/><path class="cls-4" d="M628.08,325.08a7.06,7.06,0,0,0,5.25,2.37c3,0,3.92-1.6,3.92-2.87,0-2-2-2.55-4.22-3.15-2.67-.7-5.65-1.45-5.65-4.73,0-2.75,2.45-4.62,5.72-4.62A7.87,7.87,0,0,1,639,314.4l-1.25,1.53a6.37,6.37,0,0,0-4.83-2c-2,0-3.42,1.07-3.42,2.65s1.93,2.17,4.05,2.75c2.72.72,5.82,1.57,5.82,5.07,0,2.43-1.65,4.9-6.15,4.9a8.24,8.24,0,0,1-6.39-2.65Z"/><path class="cls-4" d="M650.6,321.05c0-2.12-1.1-2.75-2.72-2.75a4.72,4.72,0,0,0-3.57,1.88V329h-1.88V312.33h1.88v6.35a6,6,0,0,1,4.32-2.05c2.52,0,3.85,1.22,3.85,3.85V329H650.6Z"/><path class="cls-4" d="M663.78,327.62a5.23,5.23,0,0,1-4,1.68,4,4,0,0,1-4.22-4,4,4,0,0,1,4.22-4,5,5,0,0,1,4,1.65V320.8c0-1.62-1.3-2.55-3-2.55a4.81,4.81,0,0,0-3.7,1.68l-.87-1.3a6.3,6.3,0,0,1,4.82-2c2.55,0,4.67,1.15,4.67,4.07V329h-1.87Zm0-3.44a4.05,4.05,0,0,0-3.33-1.5,2.65,2.65,0,1,0,0,5.27,4.05,4.05,0,0,0,3.33-1.5Z"/><path class="cls-4" d="M669.41,316.93h1.87v1.95a5.1,5.1,0,0,1,4-2.2v1.92a3.3,3.3,0,0,0-.75-.07,4.42,4.42,0,0,0-3.27,1.92V329h-1.87Z"/><path class="cls-4" d="M682.9,316.63c3.65,0,5.8,2.85,5.8,6.47v.48h-9.77a4.25,4.25,0,0,0,4.35,4.17,5.29,5.29,0,0,0,3.72-1.52l.9,1.22a6.55,6.55,0,0,1-4.8,1.85,6.34,6.34,0,0,1-.2-12.67Zm-4,5.57h7.92a3.9,3.9,0,0,0-4-4A4,4,0,0,0,678.93,322.2Z"/><path class="cls-4" d="M698.25,312.33h10.93v1.85h-8.85v5.37H709v1.85h-8.67V329h-2.08Z"/><path class="cls-4" d="M711.6,313.63a1.27,1.27,0,0,1,2.53,0,1.27,1.27,0,1,1-2.53,0Zm.33,3.3h1.87V329h-1.87Z"/><path class="cls-4" d="M717.55,312.33h1.88V329h-1.88Z"/><path class="cls-4" d="M728.43,316.63c3.65,0,5.8,2.85,5.8,6.47v.48h-9.78a4.25,4.25,0,0,0,4.35,4.17,5.3,5.3,0,0,0,3.73-1.52l.9,1.22a6.57,6.57,0,0,1-4.8,1.85,6.34,6.34,0,0,1-.2-12.67Zm-4,5.57h7.93a3.92,3.92,0,0,0-4-4A4,4,0,0,0,724.45,322.2Z"/></g></g><g id="Rectangle_54" data-name="Rectangle 54"><rect class="cls-5" x="62.61" y="132" width="21" height="21"/><rect class="cls-2" x="63.11" y="132.5" width="20" height="20"/></g><g id="Rectangle_61" data-name="Rectangle 61"><rect class="cls-5" x="532.61" y="132" width="21" height="21"/><rect class="cls-2" x="533.11" y="132.5" width="20" height="20"/></g><g id="Rectangle_55" data-name="Rectangle 55"><rect class="cls-5" x="62.61" y="190" width="21" height="21"/><rect class="cls-2" x="63.11" y="190.5" width="20" height="20"/></g><g id="Rectangle_60" data-name="Rectangle 60"><rect class="cls-5" x="532.61" y="190" width="21" height="21"/><rect class="cls-2" x="533.11" y="190.5" width="20" height="20"/></g><g id="Rectangle_56" data-name="Rectangle 56"><rect class="cls-5" x="62.61" y="252" width="21" height="21"/><rect class="cls-2" x="63.11" y="252.5" width="20" height="20"/></g><g id="Rectangle_59" data-name="Rectangle 59"><rect class="cls-5" x="532.61" y="252" width="21" height="21"/><rect class="cls-2" x="533.11" y="252.5" width="20" height="20"/></g><g id="Rectangle_57" data-name="Rectangle 57"><rect class="cls-5" x="62.61" y="310" width="21" height="21"/><rect class="cls-2" x="63.11" y="310.5" width="20" height="20"/></g><g id="Rectangle_58" data-name="Rectangle 58"><rect class="cls-5" x="532.61" y="310" width="21" height="21"/><rect class="cls-2" x="533.11" y="310.5" width="20" height="20"/></g></g></svg>