<svg xmlns="http://www.w3.org/2000/svg" width="1474.5" height="1467" viewBox="0 0 1474.5 1467">
  <g id="Group_473" data-name="Group 473" transform="translate(22940 6923)">
    <g id="Group_469" data-name="Group 469" transform="translate(-24973 12039)">
      <g id="Rectangle_77" data-name="Rectangle 77" transform="translate(2034 -18962)" fill="#edf4fe" stroke="#707070" stroke-width="1">
        <rect width="879" height="1292" rx="10" stroke="none"/>
        <rect x="0.5" y="0.5" width="878" height="1291" rx="9.5" fill="none"/>
      </g>
      <text id="UX_UI_Design" data-name="UX/UI Design" transform="translate(2353 -18897)" fill="#707070" font-size="39.06" font-family="ProximaNova-Bold, Proxima Nova" font-weight="700"><tspan x="0" y="0">UX/UI Design</tspan></text>
      <text id="Team_Leads" data-name="Team Leads" transform="translate(2076 -18832)" fill="#707070" font-size="25" font-family="ProximaNova-Bold, Proxima Nova" font-weight="700"><tspan x="0" y="0">Team Leads</tspan></text>
      <text id="Companies" transform="translate(2076 -18586)" fill="#707070" font-size="25" font-family="ProximaNova-Bold, Proxima Nova" font-weight="700"><tspan x="0" y="0">Companies</tspan></text>
      <text id="Members" transform="translate(2076 -18340)" fill="#707070" font-size="25" font-family="ProximaNova-Bold, Proxima Nova" font-weight="700"><tspan x="0" y="0">Members</tspan></text>
      <text id="Accessibility" transform="translate(2076 -18015)" fill="#707070" font-size="25" font-family="ProximaNova-Bold, Proxima Nova" font-weight="700"><tspan x="0" y="0">Accessibility</tspan></text>
      <g id="Rectangle_180" data-name="Rectangle 180" transform="translate(2076 -18812)" fill="#fff" stroke="#707070" stroke-width="1">
        <rect width="793" height="168" stroke="none"/>
        <rect x="0.5" y="0.5" width="792" height="167" fill="none"/>
      </g>
      <g id="Rectangle_181" data-name="Rectangle 181" transform="translate(2076 -18566)" fill="#fff" stroke="#707070" stroke-width="1">
        <rect width="793" height="168" stroke="none"/>
        <rect x="0.5" y="0.5" width="792" height="167" fill="none"/>
      </g>
      <g id="Rectangle_182" data-name="Rectangle 182" transform="translate(2076 -18320)" fill="#fff" stroke="#707070" stroke-width="1">
        <rect width="793" height="223" stroke="none"/>
        <rect x="0.5" y="0.5" width="792" height="222" fill="none"/>
      </g>
      <g id="Group_59" data-name="Group 59" transform="translate(1332 -19129)">
        <circle id="Ellipse_76" data-name="Ellipse 76" cx="36" cy="36" r="36" transform="translate(781 351)" fill="#c6deff"/>
        <text id="Name" transform="translate(791 450)" fill="#707070" font-size="20" font-family="ProximaNova-Regular, Proxima Nova"><tspan x="0" y="0">Name</tspan></text>
      </g>
      <g id="Group_67" data-name="Group 67" transform="translate(1332 -18884)">
        <circle id="Ellipse_76-2" data-name="Ellipse 76" cx="36" cy="36" r="36" transform="translate(781 351)" fill="#c6deff"/>
        <text id="Name-2" data-name="Name" transform="translate(791 450)" fill="#707070" font-size="20" font-family="ProximaNova-Regular, Proxima Nova"><tspan x="0" y="0">Name</tspan></text>
      </g>
      <g id="Group_71" data-name="Group 71" transform="translate(1332 -18638)">
        <circle id="Ellipse_76-3" data-name="Ellipse 76" cx="36" cy="36" r="36" transform="translate(781 351)" fill="#c6deff"/>
        <text id="Name-3" data-name="Name" transform="translate(791 450)" fill="#707070" font-size="20" font-family="ProximaNova-Regular, Proxima Nova"><tspan x="0" y="0">Name</tspan></text>
      </g>
      <g id="Group_81" data-name="Group 81" transform="translate(1332 -18528)">
        <circle id="Ellipse_76-4" data-name="Ellipse 76" cx="36" cy="36" r="36" transform="translate(781 351)" fill="#c6deff"/>
      </g>
      <g id="Group_61" data-name="Group 61" transform="translate(1439 -19130)">
        <circle id="Ellipse_76-5" data-name="Ellipse 76" cx="36" cy="36" r="36" transform="translate(781 351)" fill="#c6deff"/>
        <text id="Name-4" data-name="Name" transform="translate(791 450)" fill="#707070" font-size="20" font-family="ProximaNova-Regular, Proxima Nova"><tspan x="0" y="0">Name</tspan></text>
      </g>
      <g id="Group_66" data-name="Group 66" transform="translate(1439 -18885)">
        <circle id="Ellipse_76-6" data-name="Ellipse 76" cx="36" cy="36" r="36" transform="translate(781 351)" fill="#c6deff"/>
        <text id="Name-5" data-name="Name" transform="translate(791 450)" fill="#707070" font-size="20" font-family="ProximaNova-Regular, Proxima Nova"><tspan x="0" y="0">Name</tspan></text>
      </g>
      <g id="Group_70" data-name="Group 70" transform="translate(1439 -18639)">
        <circle id="Ellipse_76-7" data-name="Ellipse 76" cx="36" cy="36" r="36" transform="translate(781 351)" fill="#c6deff"/>
        <text id="Name-6" data-name="Name" transform="translate(791 450)" fill="#707070" font-size="20" font-family="ProximaNova-Regular, Proxima Nova"><tspan x="0" y="0">Name</tspan></text>
      </g>
      <g id="Group_80" data-name="Group 80" transform="translate(1439 -18529)">
        <circle id="Ellipse_76-8" data-name="Ellipse 76" cx="36" cy="36" r="36" transform="translate(781 351)" fill="#c6deff"/>
      </g>
      <g id="Group_74" data-name="Group 74" transform="translate(1760 -18639)">
        <circle id="Ellipse_76-9" data-name="Ellipse 76" cx="36" cy="36" r="36" transform="translate(781 351)" fill="#c6deff"/>
        <text id="Name-7" data-name="Name" transform="translate(791 450)" fill="#707070" font-size="20" font-family="ProximaNova-Regular, Proxima Nova"><tspan x="0" y="0">Name</tspan></text>
      </g>
      <g id="Group_77" data-name="Group 77" transform="translate(1760 -18529)">
        <circle id="Ellipse_76-10" data-name="Ellipse 76" cx="36" cy="36" r="36" transform="translate(781 351)" fill="#c6deff"/>
      </g>
      <g id="Group_62" data-name="Group 62" transform="translate(1546 -19130)">
        <circle id="Ellipse_76-11" data-name="Ellipse 76" cx="36" cy="36" r="36" transform="translate(781 351)" fill="#c6deff"/>
        <text id="Name-8" data-name="Name" transform="translate(791 450)" fill="#707070" font-size="20" font-family="ProximaNova-Regular, Proxima Nova"><tspan x="0" y="0">Name</tspan></text>
      </g>
      <g id="Group_65" data-name="Group 65" transform="translate(1546 -18885)">
        <circle id="Ellipse_76-12" data-name="Ellipse 76" cx="36" cy="36" r="36" transform="translate(781 351)" fill="#c6deff"/>
        <text id="Name-9" data-name="Name" transform="translate(791 450)" fill="#707070" font-size="20" font-family="ProximaNova-Regular, Proxima Nova"><tspan x="0" y="0">Name</tspan></text>
      </g>
      <g id="Group_69" data-name="Group 69" transform="translate(1546 -18639)">
        <circle id="Ellipse_76-13" data-name="Ellipse 76" cx="36" cy="36" r="36" transform="translate(781 351)" fill="#c6deff"/>
        <text id="Name-10" data-name="Name" transform="translate(791 450)" fill="#707070" font-size="20" font-family="ProximaNova-Regular, Proxima Nova"><tspan x="0" y="0">Name</tspan></text>
      </g>
      <g id="Group_79" data-name="Group 79" transform="translate(1546 -18529)">
        <circle id="Ellipse_76-14" data-name="Ellipse 76" cx="36" cy="36" r="36" transform="translate(781 351)" fill="#c6deff"/>
      </g>
      <g id="Group_73" data-name="Group 73" transform="translate(1867 -18639)">
        <circle id="Ellipse_76-15" data-name="Ellipse 76" cx="36" cy="36" r="36" transform="translate(781 351)" fill="#c6deff"/>
        <text id="Name-11" data-name="Name" transform="translate(791 450)" fill="#707070" font-size="20" font-family="ProximaNova-Regular, Proxima Nova"><tspan x="0" y="0">Name</tspan></text>
      </g>
      <g id="Group_76" data-name="Group 76" transform="translate(1867 -18529)">
        <circle id="Ellipse_76-16" data-name="Ellipse 76" cx="36" cy="36" r="36" transform="translate(781 351)" fill="#c6deff"/>
      </g>
      <g id="Group_63" data-name="Group 63" transform="translate(1653 -19130)">
        <circle id="Ellipse_76-17" data-name="Ellipse 76" cx="36" cy="36" r="36" transform="translate(781 351)" fill="#c6deff"/>
        <text id="Name-12" data-name="Name" transform="translate(791 450)" fill="#707070" font-size="20" font-family="ProximaNova-Regular, Proxima Nova"><tspan x="0" y="0">Name</tspan></text>
      </g>
      <g id="Group_64" data-name="Group 64" transform="translate(1653 -18885)">
        <circle id="Ellipse_76-18" data-name="Ellipse 76" cx="36" cy="36" r="36" transform="translate(781 351)" fill="#c6deff"/>
        <text id="Name-13" data-name="Name" transform="translate(791 450)" fill="#707070" font-size="20" font-family="ProximaNova-Regular, Proxima Nova"><tspan x="0" y="0">Name</tspan></text>
      </g>
      <g id="Group_68" data-name="Group 68" transform="translate(1653 -18639)">
        <circle id="Ellipse_76-19" data-name="Ellipse 76" cx="36" cy="36" r="36" transform="translate(781 351)" fill="#c6deff"/>
        <text id="Name-14" data-name="Name" transform="translate(791 450)" fill="#707070" font-size="20" font-family="ProximaNova-Regular, Proxima Nova"><tspan x="0" y="0">Name</tspan></text>
      </g>
      <g id="Group_78" data-name="Group 78" transform="translate(1653 -18529)">
        <circle id="Ellipse_76-20" data-name="Ellipse 76" cx="36" cy="36" r="36" transform="translate(781 351)" fill="#c6deff"/>
      </g>
      <g id="Group_72" data-name="Group 72" transform="translate(1974 -18639)">
        <circle id="Ellipse_76-21" data-name="Ellipse 76" cx="36" cy="36" r="36" transform="translate(781 351)" fill="#c6deff"/>
        <text id="Name-15" data-name="Name" transform="translate(791 450)" fill="#707070" font-size="20" font-family="ProximaNova-Regular, Proxima Nova"><tspan x="0" y="0">Name</tspan></text>
      </g>
      <g id="Group_75" data-name="Group 75" transform="translate(1974 -18529)">
        <circle id="Ellipse_76-22" data-name="Ellipse 76" cx="36" cy="36" r="36" transform="translate(781 351)" fill="#c6deff"/>
      </g>
      <path id="_ionicons_svg_ios-close" d="M171,169.034l6.062-6.062a1.42,1.42,0,0,0-2.009-2.009l-6.062,6.062-6.062-6.062a1.42,1.42,0,1,0-2.009,2.009l6.062,6.062-6.062,6.062a1.42,1.42,0,1,0,2.009,2.009l6.062-6.062,6.062,6.062a1.42,1.42,0,0,0,2.009-2.009Z" transform="translate(2707.889 -19100.52)" fill="#707070"/>
      <g id="Group_82" data-name="Group 82" transform="translate(0 -18)">
        <g id="Rectangle_183" data-name="Rectangle 183" transform="translate(2079 -17977)" fill="#fff" stroke="#707070" stroke-width="1">
          <rect width="789.389" height="117" rx="5" stroke="none"/>
          <rect x="0.5" y="0.5" width="788.389" height="116" rx="4.5" fill="none"/>
        </g>
        <path id="_ionicons_svg_md-lock" d="M126.188,61.094h-2.156V56.781a10.781,10.781,0,0,0-21.562,0v4.313h-2.156A4.325,4.325,0,0,0,96,65.406V86.969a4.325,4.325,0,0,0,4.313,4.313h25.875a4.325,4.325,0,0,0,4.313-4.312V65.406A4.325,4.325,0,0,0,126.188,61.094ZM113.25,80.716a4.313,4.313,0,1,1,4.313-4.312A4.325,4.325,0,0,1,113.25,80.716Zm6.685-19.622H106.565V56.781a6.685,6.685,0,0,1,13.369,0Z" transform="translate(2000 -17989.906)"/>
        <text id="Closed" transform="translate(2149 -17935)" font-size="25" font-family="ProximaNova-Bold, Proxima Nova" font-weight="700"><tspan x="0" y="0">Closed</tspan></text>
        <text id="This_is_a_closed_team._New_members_must_be_approved_by_team_lead._Only_members_can_view_team_details." data-name="This is a closed team. New members must be approved by team lead. Only members can view 
team details." transform="translate(2149 -17906)" font-size="16" font-family="ProximaNova-Regular, Proxima Nova"><tspan x="0" y="0">This is a closed team. New members must be approved by team lead. Only members can view </tspan><tspan x="0" y="25">team details.</tspan></text>
        <path id="_ionicons_svg_ios-arrow-down" d="M95.91,166.267l5.98-5.985a1.125,1.125,0,0,1,1.6,0,1.14,1.14,0,0,1,0,1.6l-6.776,6.78a1.128,1.128,0,0,1-1.559.033l-6.823-6.809a1.13,1.13,0,0,1,1.6-1.6Z" transform="translate(2184.95 -18106.949)" fill="#707070"/>
      </g>
      <g id="Rectangle_184" data-name="Rectangle 184" transform="translate(2079 -17795)" fill="#fff" stroke="#707070" stroke-width="1">
        <rect width="226" height="76" stroke="none"/>
        <rect x="0.5" y="0.5" width="225" height="75" fill="none"/>
      </g>
      <g id="Rectangle_185" data-name="Rectangle 185" transform="translate(2643 -17795)" fill="#fff" stroke="#707070" stroke-width="1">
        <rect width="226" height="76" stroke="none"/>
        <rect x="0.5" y="0.5" width="225" height="75" fill="none"/>
      </g>
      <g id="Rectangle_186" data-name="Rectangle 186" transform="translate(2361 -17795)" fill="#fff" stroke="#707070" stroke-width="1">
        <rect width="226" height="76" stroke="none"/>
        <rect x="0.5" y="0.5" width="225" height="75" fill="none"/>
      </g>
      <text id="Delete_Team" data-name="Delete Team" transform="translate(2120 -17748)" font-size="25" font-family="ProximaNova-Bold, Proxima Nova" font-weight="700"><tspan x="0" y="0">Delete Team</tspan></text>
      <text id="Split_Team" data-name="Split Team" transform="translate(2414 -17748)" font-size="25" font-family="ProximaNova-Bold, Proxima Nova" font-weight="700"><tspan x="0" y="0">Split Team</tspan></text>
      <text id="Done" transform="translate(2726 -17748)" font-size="25" font-family="ProximaNova-Bold, Proxima Nova" font-weight="700"><tspan x="0" y="0">Done</tspan></text>
    </g>
    <g id="Group_470" data-name="Group 470" transform="translate(-31030 -3640)">
      <g id="Group_109" data-name="Group 109" transform="translate(7644 -3583)">
        <g id="Group_102" data-name="Group 102" transform="translate(0 1490)">
          <text id="Admins" transform="translate(447 172)" fill="#707070" font-size="38" font-family="ProximaNova-Bold, Proxima Nova" font-weight="700"><tspan x="0" y="0">Admins</tspan></text>
          <g id="ios-arrow-down" transform="translate(665 154.111)">
            <path id="Path_18" data-name="Path 18" d="M102.811,165.054l11.2,11.205a2.107,2.107,0,0,0,2.989,0,2.134,2.134,0,0,0,0-3l-12.686-12.7a2.112,2.112,0,0,0-2.918-.062L88.617,173.253a2.116,2.116,0,0,0,2.989,3Z" transform="translate(-88 -159.95)" fill="#707070"/>
          </g>
        </g>
      </g>
      <g id="Rectangle_205" data-name="Rectangle 205" transform="translate(8091 -1886)" fill="#fff" stroke="#707070" stroke-width="1">
        <rect width="245.5" height="70" stroke="none"/>
        <rect x="0.5" y="0.5" width="244.5" height="69" fill="none"/>
      </g>
      <g id="Rectangle_206" data-name="Rectangle 206" transform="translate(8337 -1886)" fill="#fff" stroke="#707070" stroke-width="1">
        <rect width="245.5" height="70" stroke="none"/>
        <rect x="0.5" y="0.5" width="244.5" height="69" fill="none"/>
      </g>
      <g id="Rectangle_207" data-name="Rectangle 207" transform="translate(8582 -1886)" fill="#fff" stroke="#707070" stroke-width="1">
        <rect width="245.5" height="70" stroke="none"/>
        <rect x="0.5" y="0.5" width="244.5" height="69" fill="none"/>
      </g>
      <g id="Rectangle_208" data-name="Rectangle 208" transform="translate(8828 -1886)" fill="#fff" stroke="#707070" stroke-width="1">
        <rect width="245.5" height="70" stroke="none"/>
        <rect x="0.5" y="0.5" width="244.5" height="69" fill="none"/>
      </g>
      <g id="Rectangle_209" data-name="Rectangle 209" transform="translate(9073 -1886)" fill="#fff" stroke="#707070" stroke-width="1">
        <rect width="245.5" height="70" stroke="none"/>
        <rect x="0.5" y="0.5" width="244.5" height="69" fill="none"/>
      </g>
      <g id="Rectangle_210" data-name="Rectangle 210" transform="translate(9319 -1886)" fill="#fff" stroke="#707070" stroke-width="1">
        <rect width="245.5" height="70" stroke="none"/>
        <rect x="0.5" y="0.5" width="244.5" height="69" fill="none"/>
      </g>
      <text id="Banghart_Lab" data-name="Banghart
Lab" transform="translate(8109 -1854)" fill="#707070" font-size="25" font-family="ProximaNova-Bold, Proxima Nova" font-weight="700"><tspan x="0" y="0">Banghart</tspan><tspan x="0" y="25">Lab</tspan></text>
      <text id="XMC_Lab" data-name="XMC
Lab" transform="translate(8355 -1854)" fill="#707070" font-size="25" font-family="ProximaNova-Bold, Proxima Nova" font-weight="700"><tspan x="0" y="0">XMC</tspan><tspan x="0" y="25">Lab</tspan></text>
      <text id="AllScripts" transform="translate(8600 -1842)" fill="#707070" font-size="25" font-family="ProximaNova-Bold, Proxima Nova" font-weight="700"><tspan x="0" y="0">AllScripts</tspan></text>
      <text id="KP_Org" data-name="KP Org" transform="translate(8846 -1842)" fill="#707070" font-size="25" font-family="ProximaNova-Bold, Proxima Nova" font-weight="700"><tspan x="0" y="0">KP Org</tspan></text>
      <text id="Tiled_Lab" data-name="Tiled
Lab" transform="translate(9091 -1854)" fill="#707070" font-size="25" font-family="ProximaNova-Bold, Proxima Nova" font-weight="700"><tspan x="0" y="0">Tiled</tspan><tspan x="0" y="25">Lab</tspan></text>
      <text id="SDO_Lab" data-name="SDO
Lab" transform="translate(9337 -1854)" fill="#707070" font-size="25" font-family="ProximaNova-Bold, Proxima Nova" font-weight="700"><tspan x="0" y="0">SDO</tspan><tspan x="0" y="25">Lab</tspan></text>
      <g id="ios-arrow-down-2" data-name="ios-arrow-down" transform="translate(8198 -2017.891)">
        <path id="Path_19" data-name="Path 19" d="M101.107,170.416l9.908-9.916a1.865,1.865,0,0,1,2.645,0,1.888,1.888,0,0,1,0,2.653l-11.227,11.235a1.869,1.869,0,0,1-2.582.055L88.546,163.161a1.873,1.873,0,0,1,2.645-2.653Z" fill="#111"/>
      </g>
      <g id="ios-arrow-down-3" data-name="ios-arrow-down" transform="translate(8442 -2017.891)">
        <path id="Path_19-2" data-name="Path 19" d="M101.107,170.416l9.908-9.916a1.865,1.865,0,0,1,2.645,0,1.888,1.888,0,0,1,0,2.653l-11.227,11.235a1.869,1.869,0,0,1-2.582.055L88.546,163.161a1.873,1.873,0,0,1,2.645-2.653Z" fill="#111"/>
      </g>
      <g id="ios-arrow-down-4" data-name="ios-arrow-down" transform="translate(8691 -2017.891)">
        <path id="Path_19-3" data-name="Path 19" d="M101.107,170.416l9.908-9.916a1.865,1.865,0,0,1,2.645,0,1.888,1.888,0,0,1,0,2.653l-11.227,11.235a1.869,1.869,0,0,1-2.582.055L88.546,163.161a1.873,1.873,0,0,1,2.645-2.653Z" fill="#111"/>
      </g>
      <g id="ios-arrow-down-5" data-name="ios-arrow-down" transform="translate(8932 -2017.891)">
        <path id="Path_19-4" data-name="Path 19" d="M101.107,170.416l9.908-9.916a1.865,1.865,0,0,1,2.645,0,1.888,1.888,0,0,1,0,2.653l-11.227,11.235a1.869,1.869,0,0,1-2.582.055L88.546,163.161a1.873,1.873,0,0,1,2.645-2.653Z" fill="#111"/>
      </g>
      <g id="ios-arrow-down-6" data-name="ios-arrow-down" transform="translate(9179 -2017.891)">
        <path id="Path_19-5" data-name="Path 19" d="M101.107,170.416l9.908-9.916a1.865,1.865,0,0,1,2.645,0,1.888,1.888,0,0,1,0,2.653l-11.227,11.235a1.869,1.869,0,0,1-2.582.055L88.546,163.161a1.873,1.873,0,0,1,2.645-2.653Z" fill="#111"/>
      </g>
      <g id="ios-arrow-down-7" data-name="ios-arrow-down" transform="translate(9415 -2017.891)">
        <path id="Path_19-6" data-name="Path 19" d="M101.107,170.416l9.908-9.916a1.865,1.865,0,0,1,2.645,0,1.888,1.888,0,0,1,0,2.653l-11.227,11.235a1.869,1.869,0,0,1-2.582.055L88.546,163.161a1.873,1.873,0,0,1,2.645-2.653Z" fill="#111"/>
      </g>
    </g>
  </g>
</svg>
