<svg id="Layer_1" data-name="Layer 1" xmlns="http://www.w3.org/2000/svg" xmlns:xlink="http://www.w3.org/1999/xlink" viewBox="0 0 763 173"><defs><style>.cls-1{fill:url(#linear-gradient);}.cls-2{isolation:isolate;}.cls-3{fill:#f7f5f5;}</style><linearGradient id="linear-gradient" x1="-722.3" y1="4696.18" x2="-721.31" y2="4695.26" gradientTransform="matrix(763, 0, 0, -173, 551129.54, 812448.43)" gradientUnits="userSpaceOnUse"><stop offset="0" stop-color="#7ba9de"/><stop offset="1" stop-color="#519aed"/></linearGradient></defs><title>pp1</title><g id="Group_346" data-name="Group 346"><rect id="Rectangle_102-2" data-name="Rectangle 102-2" class="cls-1" width="763" height="173"/><g id="Users_need_a_way_to_secure_files_after_having_shared_them_both_online_and_offline_so_that_they_can_have_peace_of_mind." data-name="Users need a way to secure files after having shared them both online and offline so that they can have peace of mind." class="cls-2"><g class="cls-2"><path class="cls-3" d="M54.57,108.4a6.68,6.68,0,0,1-2.44-.42,5.11,5.11,0,0,1-1.85-1.22,5.4,5.4,0,0,1-1.18-1.91,7.22,7.22,0,0,1-.41-2.49V93.8h2.44v8.46a4.58,4.58,0,0,0,.43,2.07,3.24,3.24,0,0,0,1.21,1.35,3.77,3.77,0,0,0,3.68,0,3.24,3.24,0,0,0,1.21-1.35,4.58,4.58,0,0,0,.43-2.07V93.8h2.44v8.56a7,7,0,0,1-.42,2.49,5.29,5.29,0,0,1-1.21,1.9A5.45,5.45,0,0,1,57,108,6.56,6.56,0,0,1,54.57,108.4Z"/><path class="cls-3" d="M66.87,108.3A5.08,5.08,0,0,1,65,108a4.19,4.19,0,0,1-1.48-1,3.56,3.56,0,0,1-.87-1.49l2.08-.54a2.11,2.11,0,0,0,.84,1.06,2.42,2.42,0,0,0,1.34.38,2.07,2.07,0,0,0,1.28-.37,1.14,1.14,0,0,0,.5-1,1.06,1.06,0,0,0-.4-.84,2.79,2.79,0,0,0-1.3-.5l-.66-.12a5,5,0,0,1-2.53-1.08,2.59,2.59,0,0,1-.85-2,3,3,0,0,1,.5-1.72,3.36,3.36,0,0,1,1.38-1.16,5,5,0,0,1,3.82-.08,3.81,3.81,0,0,1,1.38,1,3.65,3.65,0,0,1,.8,1.46l-2.06.5a2.14,2.14,0,0,0-.75-1,2,2,0,0,0-1.19-.37,1.88,1.88,0,0,0-1.16.35,1.06,1.06,0,0,0-.46.89.91.91,0,0,0,.41.76,3.55,3.55,0,0,0,1.39.48l.66.12a4.61,4.61,0,0,1,2.46,1.1,2.73,2.73,0,0,1,.86,2,3.16,3.16,0,0,1-.3,1.37,3.23,3.23,0,0,1-.85,1.1,4,4,0,0,1-1.3.72A5.1,5.1,0,0,1,66.87,108.3Z"/><path class="cls-3" d="M78,108.3a5.5,5.5,0,0,1-2.13-.41,5.07,5.07,0,0,1-1.69-1.15A5.13,5.13,0,0,1,73.08,105a6.14,6.14,0,0,1-.39-2.23,6,6,0,0,1,.39-2.18,5.48,5.48,0,0,1,1.08-1.75,4.88,4.88,0,0,1,1.63-1.17,5,5,0,0,1,2-.42,5.07,5.07,0,0,1,2,.39,4.62,4.62,0,0,1,1.58,1.11,4.92,4.92,0,0,1,1,1.71,6.37,6.37,0,0,1,.36,2.19v.68H75.07a4.07,4.07,0,0,0,.49,1.59A2.69,2.69,0,0,0,78,106.3a2.88,2.88,0,0,0,2.56-1.46l2,.78a4.08,4.08,0,0,1-1,1.43,4.64,4.64,0,0,1-1.6.93A5.88,5.88,0,0,1,78,108.3Zm-.18-9.2a2.47,2.47,0,0,0-1.25.32,2.66,2.66,0,0,0-.93.9,3.64,3.64,0,0,0-.52,1.36h5.28a3.77,3.77,0,0,0-.46-1.36,2.4,2.4,0,0,0-.89-.9A2.45,2.45,0,0,0,77.83,99.1Z"/><path class="cls-3" d="M85.05,108V97.54h2.1l.1,1.72a3.3,3.3,0,0,1,1.11-1.37A2.84,2.84,0,0,1,90,97.4a3.69,3.69,0,0,1,.58,0,1.83,1.83,0,0,1,.5.14l-.26,2.24a2.37,2.37,0,0,0-.46-.11,3.87,3.87,0,0,0-.48,0,2.34,2.34,0,0,0-1.88.8,3.33,3.33,0,0,0-.68,2.22V108Z"/><path class="cls-3" d="M96.67,108.3a5.08,5.08,0,0,1-1.89-.34,4.1,4.1,0,0,1-1.48-1,3.56,3.56,0,0,1-.87-1.49l2.08-.54a2.11,2.11,0,0,0,.84,1.06,2.42,2.42,0,0,0,1.34.38A2.07,2.07,0,0,0,98,106a1.14,1.14,0,0,0,.5-1,1.09,1.09,0,0,0-.4-.84,2.79,2.79,0,0,0-1.3-.5l-.66-.12a5,5,0,0,1-2.53-1.08,2.59,2.59,0,0,1-.85-2,3,3,0,0,1,.5-1.72,3.36,3.36,0,0,1,1.38-1.16,5,5,0,0,1,3.82-.08,3.81,3.81,0,0,1,1.38,1,3.65,3.65,0,0,1,.8,1.46l-2.06.5a2.14,2.14,0,0,0-.75-1,2,2,0,0,0-1.19-.37,1.88,1.88,0,0,0-1.16.35,1.06,1.06,0,0,0-.46.89.89.89,0,0,0,.41.76,3.55,3.55,0,0,0,1.39.48l.66.12a4.65,4.65,0,0,1,2.46,1.1,2.73,2.73,0,0,1,.86,2,3.16,3.16,0,0,1-.3,1.37,3.23,3.23,0,0,1-.85,1.1,4,4,0,0,1-1.3.72A5.1,5.1,0,0,1,96.67,108.3Z"/><path class="cls-3" d="M107.49,108V97.54h2.1l.08,1.44A3.42,3.42,0,0,1,111,97.71a3.83,3.83,0,0,1,1.91-.47,3.72,3.72,0,0,1,2,.56,3.68,3.68,0,0,1,1.35,1.58,5.59,5.59,0,0,1,.48,2.4V108h-2.3v-6a3.15,3.15,0,0,0-.57-2,1.91,1.91,0,0,0-1.59-.72,2.44,2.44,0,0,0-1.29.34,2.38,2.38,0,0,0-.89.92,2.77,2.77,0,0,0-.32,1.34V108Z"/><path class="cls-3" d="M124.37,108.3a5.5,5.5,0,0,1-2.13-.41,5.07,5.07,0,0,1-1.69-1.15,5.13,5.13,0,0,1-1.11-1.75,6.14,6.14,0,0,1-.39-2.23,6,6,0,0,1,.39-2.18,5.48,5.48,0,0,1,1.08-1.75,4.88,4.88,0,0,1,1.63-1.17,4.93,4.93,0,0,1,2-.42,5.07,5.07,0,0,1,2,.39,4.62,4.62,0,0,1,1.58,1.11,4.92,4.92,0,0,1,1,1.71,6.37,6.37,0,0,1,.36,2.19v.68h-7.74a3.91,3.91,0,0,0,.49,1.59,2.69,2.69,0,0,0,2.45,1.39,2.88,2.88,0,0,0,2.56-1.46l2,.78a4.08,4.08,0,0,1-1,1.43,4.64,4.64,0,0,1-1.6.93A5.88,5.88,0,0,1,124.37,108.3Zm-.18-9.2a2.47,2.47,0,0,0-1.25.32,2.66,2.66,0,0,0-.93.9,3.48,3.48,0,0,0-.52,1.36h5.28a3.77,3.77,0,0,0-.46-1.36,2.4,2.4,0,0,0-.89-.9A2.45,2.45,0,0,0,124.19,99.1Z"/><path class="cls-3" d="M136.37,108.3a5.43,5.43,0,0,1-2.13-.41,5.07,5.07,0,0,1-1.69-1.15,5.13,5.13,0,0,1-1.11-1.75,6.14,6.14,0,0,1-.39-2.23,6,6,0,0,1,.39-2.18,5.48,5.48,0,0,1,1.08-1.75,4.91,4.91,0,0,1,3.67-1.59,5.07,5.07,0,0,1,2,.39,4.72,4.72,0,0,1,1.58,1.11,5.08,5.08,0,0,1,1,1.71,6.37,6.37,0,0,1,.36,2.19v.68h-7.74a3.91,3.91,0,0,0,.49,1.59,2.7,2.7,0,0,0,1,1,2.8,2.8,0,0,0,1.44.36,2.89,2.89,0,0,0,2.56-1.46l2,.78a4.08,4.08,0,0,1-1,1.43,4.64,4.64,0,0,1-1.6.93A5.88,5.88,0,0,1,136.37,108.3Zm-.18-9.2a2.45,2.45,0,0,0-1.25.32,2.66,2.66,0,0,0-.93.9,3.48,3.48,0,0,0-.52,1.36h5.28a3.77,3.77,0,0,0-.46-1.36,2.4,2.4,0,0,0-.89-.9A2.45,2.45,0,0,0,136.19,99.1Z"/><path class="cls-3" d="M147.93,108.3a4.43,4.43,0,0,1-1.93-.42,4.78,4.78,0,0,1-1.55-1.16,5.21,5.21,0,0,1-1-1.74,6.52,6.52,0,0,1,0-4.36,5.4,5.4,0,0,1,1.06-1.78,4.72,4.72,0,0,1,1.59-1.18,4.61,4.61,0,0,1,2-.42,4.18,4.18,0,0,1,1.9.44,3.93,3.93,0,0,1,1.42,1.24v-5.8h2.3V108h-2.1l-.1-1.68a4.19,4.19,0,0,1-1.48,1.45A4.1,4.1,0,0,1,147.93,108.3Zm.48-2.08a2.75,2.75,0,0,0,1.54-.45,3.13,3.13,0,0,0,1.07-1.23,4.21,4.21,0,0,0,0-3.54A3.13,3.13,0,0,0,150,99.77a2.75,2.75,0,0,0-1.54-.45,2.7,2.7,0,0,0-1.54.45A3.05,3.05,0,0,0,145.8,101a4.21,4.21,0,0,0,0,3.54,3.05,3.05,0,0,0,1.07,1.23A2.7,2.7,0,0,0,148.41,106.22Z"/><path class="cls-3" d="M164.17,108.3a4.28,4.28,0,0,1-1.47-.24,3.57,3.57,0,0,1-1.17-.68,2.94,2.94,0,0,1-.78-1,3,3,0,0,1-.28-1.32,2.9,2.9,0,0,1,.53-1.75,3.46,3.46,0,0,1,1.49-1.17,5.53,5.53,0,0,1,2.24-.42,6.55,6.55,0,0,1,1.34.13,7.17,7.17,0,0,1,1.22.37v-.66a2.79,2.79,0,0,0-.26-1.23,2.06,2.06,0,0,0-.74-.83,2.15,2.15,0,0,0-1.16-.3,2.33,2.33,0,0,0-1.3.38,2.2,2.2,0,0,0-.86,1.06l-2.12-.48a3.41,3.41,0,0,1,.87-1.52,4.33,4.33,0,0,1,1.52-1,5.06,5.06,0,0,1,1.93-.36,4.91,4.91,0,0,1,1.79.32,4,4,0,0,1,1.39.9,4.34,4.34,0,0,1,.9,1.38,4.82,4.82,0,0,1,.32,1.78V108h-2.1l-.08-1.38a3.09,3.09,0,0,1-1.26,1.22A4,4,0,0,1,164.17,108.3Zm-1.38-3.38a1.36,1.36,0,0,0,.24.79,1.6,1.6,0,0,0,.67.55,2.39,2.39,0,0,0,1,.2,2.74,2.74,0,0,0,1.32-.32,2.48,2.48,0,0,0,.92-.87,2.39,2.39,0,0,0,.34-1.25v-.24a7,7,0,0,0-1.07-.35,4.78,4.78,0,0,0-1.13-.13,2.87,2.87,0,0,0-1.67.44A1.37,1.37,0,0,0,162.79,104.92Z"/><path class="cls-3" d="M179.39,108l-3.48-10.46h2.4l2.22,7.64,2.34-7.64h2.06l2.32,7.64,2.26-7.64h2.32L188.33,108h-2.16l-2.3-7.6-2.32,7.6Z"/><path class="cls-3" d="M196.51,108.3a4.28,4.28,0,0,1-1.47-.24,3.57,3.57,0,0,1-1.17-.68,2.94,2.94,0,0,1-.78-1,3,3,0,0,1-.28-1.32,2.9,2.9,0,0,1,.53-1.75,3.46,3.46,0,0,1,1.49-1.17,5.53,5.53,0,0,1,2.24-.42,6.55,6.55,0,0,1,1.34.13,7.17,7.17,0,0,1,1.22.37v-.66a2.79,2.79,0,0,0-.26-1.23,2.06,2.06,0,0,0-.74-.83,2.15,2.15,0,0,0-1.16-.3,2.33,2.33,0,0,0-1.3.38,2.2,2.2,0,0,0-.86,1.06l-2.12-.48a3.41,3.41,0,0,1,.87-1.52,4.33,4.33,0,0,1,1.52-1,5.06,5.06,0,0,1,1.93-.36,4.91,4.91,0,0,1,1.79.32,4,4,0,0,1,1.39.9,4.34,4.34,0,0,1,.9,1.38,4.82,4.82,0,0,1,.32,1.78V108h-2.1l-.08-1.38a3.09,3.09,0,0,1-1.26,1.22A4,4,0,0,1,196.51,108.3Zm-1.38-3.38a1.36,1.36,0,0,0,.24.79,1.6,1.6,0,0,0,.67.55,2.39,2.39,0,0,0,1,.2,2.74,2.74,0,0,0,1.32-.32,2.48,2.48,0,0,0,.92-.87,2.39,2.39,0,0,0,.34-1.25v-.24a7,7,0,0,0-1.07-.35,4.78,4.78,0,0,0-1.13-.13,2.87,2.87,0,0,0-1.67.44A1.37,1.37,0,0,0,195.13,104.92Z"/><path class="cls-3" d="M205.73,112.16a3.84,3.84,0,0,1-.93-.1,3.1,3.1,0,0,1-.83-.32l.5-1.82a2.65,2.65,0,0,0,.5.17,2,2,0,0,0,.54.07,1.67,1.67,0,0,0,1.05-.34,2.48,2.48,0,0,0,.75-1.1l.32-.82-4.26-10.36h2.52l2.82,7.82,2.56-7.82h2.44l-4.44,11.72a5.18,5.18,0,0,1-1.45,2.2A3.22,3.22,0,0,1,205.73,112.16Z"/><path class="cls-3" d="M224.37,108.3a3.31,3.31,0,0,1-2.48-.91,3.57,3.57,0,0,1-.9-2.61V99.4h-1.84V97.54H221V94h2.3v3.54h3V99.4h-3v5.14a2,2,0,0,0,.35,1.29,1.21,1.21,0,0,0,1,.45,3.25,3.25,0,0,0,.78-.11,3.34,3.34,0,0,0,.78-.31l.52,1.74a4.24,4.24,0,0,1-1.07.51A4.32,4.32,0,0,1,224.37,108.3Z"/><path class="cls-3" d="M233.51,108.3a5.4,5.4,0,0,1-2.11-.41,5,5,0,0,1-1.69-1.16,5.29,5.29,0,0,1-1.12-1.76,5.87,5.87,0,0,1-.4-2.21,5.8,5.8,0,0,1,.4-2.19,5.16,5.16,0,0,1,1.13-1.76,5,5,0,0,1,1.72-1.16,5.6,5.6,0,0,1,2.15-.41,5.44,5.44,0,0,1,2.11.41,5.05,5.05,0,0,1,1.69,1.16,5.41,5.41,0,0,1,1.12,1.75,6.28,6.28,0,0,1,0,4.41,5.48,5.48,0,0,1-1.13,1.76,5.07,5.07,0,0,1-1.72,1.16A5.64,5.64,0,0,1,233.51,108.3Zm0-2.08a2.75,2.75,0,0,0,1.54-.45,3.13,3.13,0,0,0,1.07-1.23,3.92,3.92,0,0,0,.39-1.78,3.85,3.85,0,0,0-.39-1.77,3.17,3.17,0,0,0-1.07-1.22,2.75,2.75,0,0,0-1.54-.45,2.7,2.7,0,0,0-1.54.45,3.09,3.09,0,0,0-1.07,1.22,3.85,3.85,0,0,0-.39,1.77,3.92,3.92,0,0,0,.39,1.78,3.05,3.05,0,0,0,1.07,1.23A2.7,2.7,0,0,0,233.55,106.22Z"/><path class="cls-3" d="M249.33,108.3a5.08,5.08,0,0,1-1.89-.34,4.1,4.1,0,0,1-1.48-1,3.56,3.56,0,0,1-.87-1.49l2.08-.54A2.11,2.11,0,0,0,248,106a2.39,2.39,0,0,0,1.34.38,2.09,2.09,0,0,0,1.28-.37,1.14,1.14,0,0,0,.5-1,1.09,1.09,0,0,0-.4-.84,2.79,2.79,0,0,0-1.3-.5l-.66-.12a5,5,0,0,1-2.53-1.08,2.59,2.59,0,0,1-.85-2,3,3,0,0,1,.5-1.72,3.36,3.36,0,0,1,1.38-1.16,5,5,0,0,1,3.82-.08,4,4,0,0,1,1.38,1,3.65,3.65,0,0,1,.8,1.46l-2.06.5a2.14,2.14,0,0,0-.75-1,2,2,0,0,0-1.19-.37,1.86,1.86,0,0,0-1.16.35,1.06,1.06,0,0,0-.46.89.89.89,0,0,0,.41.76,3.48,3.48,0,0,0,1.39.48l.66.12a4.68,4.68,0,0,1,2.46,1.1,2.73,2.73,0,0,1,.86,2,3.16,3.16,0,0,1-.3,1.37,3.36,3.36,0,0,1-.85,1.1,4,4,0,0,1-1.3.72A5.1,5.1,0,0,1,249.33,108.3Z"/><path class="cls-3" d="M260.47,108.3a5.43,5.43,0,0,1-2.13-.41,5.07,5.07,0,0,1-1.69-1.15,5.13,5.13,0,0,1-1.11-1.75,6.14,6.14,0,0,1-.39-2.23,6,6,0,0,1,.39-2.18,5.48,5.48,0,0,1,1.08-1.75,4.91,4.91,0,0,1,3.67-1.59,5.07,5.07,0,0,1,2,.39,4.72,4.72,0,0,1,1.58,1.11,5.08,5.08,0,0,1,1,1.71,6.37,6.37,0,0,1,.36,2.19v.68h-7.74a3.91,3.91,0,0,0,.49,1.59,2.7,2.7,0,0,0,1,1,2.8,2.8,0,0,0,1.44.36,2.89,2.89,0,0,0,2.56-1.46l2,.78a4.08,4.08,0,0,1-1.05,1.43,4.74,4.74,0,0,1-1.6.93A5.88,5.88,0,0,1,260.47,108.3Zm-.18-9.2a2.45,2.45,0,0,0-1.25.32,2.66,2.66,0,0,0-.93.9,3.48,3.48,0,0,0-.52,1.36h5.28a4,4,0,0,0-.46-1.36,2.48,2.48,0,0,0-.89-.9A2.45,2.45,0,0,0,260.29,99.1Z"/><path class="cls-3" d="M272.33,108.3a5.12,5.12,0,0,1-2.06-.41,4.84,4.84,0,0,1-1.64-1.14,5.14,5.14,0,0,1-1.09-1.73,6.27,6.27,0,0,1,0-4.38,5.5,5.5,0,0,1,1.1-1.78,5.12,5.12,0,0,1,5.7-1.23,4.61,4.61,0,0,1,1.55,1.1,4.22,4.22,0,0,1,.93,1.67l-2.18.52a2.81,2.81,0,0,0-.95-1.18,2.38,2.38,0,0,0-1.37-.42,2.36,2.36,0,0,0-1.44.46,3.06,3.06,0,0,0-1,1.25,4.47,4.47,0,0,0,0,3.54,3,3,0,0,0,1,1.21,2.53,2.53,0,0,0,1.47.44,2.75,2.75,0,0,0,1.46-.41,2.47,2.47,0,0,0,1-1.17l2.16.5a4,4,0,0,1-1,1.67,4.9,4.9,0,0,1-1.62,1.1A5.23,5.23,0,0,1,272.33,108.3Z"/><path class="cls-3" d="M283.71,108.3a4.71,4.71,0,0,1-2.43-.6,4.07,4.07,0,0,1-1.6-1.71,5.64,5.64,0,0,1-.57-2.61V97.54h2.3v5.88a3.08,3.08,0,0,0,.62,2,2.3,2.3,0,0,0,3.4,0,3.13,3.13,0,0,0,.62-2V97.54h2.3v5.84a5.59,5.59,0,0,1-.57,2.59,4.18,4.18,0,0,1-1.61,1.72A4.78,4.78,0,0,1,283.71,108.3Z"/><path class="cls-3" d="M291.11,108V97.54h2.1l.1,1.72a3.16,3.16,0,0,1,1.11-1.37,2.84,2.84,0,0,1,1.67-.49,3.69,3.69,0,0,1,.58,0,1.94,1.94,0,0,1,.5.14l-.26,2.24a2.37,2.37,0,0,0-.46-.11,3.87,3.87,0,0,0-.48,0,2.34,2.34,0,0,0-1.88.8,3.28,3.28,0,0,0-.68,2.22V108Z"/><path class="cls-3" d="M303.69,108.3a5.43,5.43,0,0,1-2.13-.41,5.07,5.07,0,0,1-1.69-1.15,5.13,5.13,0,0,1-1.11-1.75,6.14,6.14,0,0,1-.39-2.23,6,6,0,0,1,.39-2.18,5.48,5.48,0,0,1,1.08-1.75,4.91,4.91,0,0,1,3.67-1.59,5.07,5.07,0,0,1,2,.39,4.72,4.72,0,0,1,1.58,1.11,5.08,5.08,0,0,1,1,1.71,6.37,6.37,0,0,1,.36,2.19v.68h-7.74a3.91,3.91,0,0,0,.49,1.59,2.7,2.7,0,0,0,1,1,2.8,2.8,0,0,0,1.44.36,2.89,2.89,0,0,0,2.56-1.46l2,.78a4.08,4.08,0,0,1-1,1.43,4.74,4.74,0,0,1-1.6.93A5.88,5.88,0,0,1,303.69,108.3Zm-.18-9.2a2.45,2.45,0,0,0-1.25.32,2.66,2.66,0,0,0-.93.9,3.48,3.48,0,0,0-.52,1.36h5.28a4,4,0,0,0-.46-1.36,2.48,2.48,0,0,0-.89-.9A2.45,2.45,0,0,0,303.51,99.1Z"/><path class="cls-3" d="M316.21,108V99.4h-1.84V97.54h1.84V96.8a4.37,4.37,0,0,1,.45-2,3.35,3.35,0,0,1,3.07-1.85,3.68,3.68,0,0,1,1,.13,4.22,4.22,0,0,1,.83.33l-.52,1.76a3.25,3.25,0,0,0-.5-.18,2.25,2.25,0,0,0-.58-.08,1.24,1.24,0,0,0-1.1.53,2.67,2.67,0,0,0-.36,1.51v.62h6.76V108H323V99.4h-4.46V108Zm9.3-13.38a1.41,1.41,0,0,1-.19.7,1.62,1.62,0,0,1-.5.51,1.33,1.33,0,0,1-.71.19,1.28,1.28,0,0,1-.71-.19,1.44,1.44,0,0,1-.5-.51,1.38,1.38,0,0,1,0-1.4,1.44,1.44,0,0,1,.5-.51,1.28,1.28,0,0,1,.71-.19,1.33,1.33,0,0,1,.71.19,1.62,1.62,0,0,1,.5.51A1.41,1.41,0,0,1,325.51,94.62Z"/><path class="cls-3" d="M328,108V93.12h2.3V108Z"/><path class="cls-3" d="M338,108.3a5.43,5.43,0,0,1-2.13-.41A5,5,0,0,1,333,105a6.14,6.14,0,0,1-.4-2.23,6,6,0,0,1,.4-2.18,5.48,5.48,0,0,1,1.08-1.75,4.91,4.91,0,0,1,3.67-1.59,5.07,5.07,0,0,1,2,.39,4.72,4.72,0,0,1,1.58,1.11,5.08,5.08,0,0,1,1,1.71,6.62,6.62,0,0,1,.35,2.19v.68H335a4.07,4.07,0,0,0,.48,1.59A2.72,2.72,0,0,0,338,106.3a2.89,2.89,0,0,0,2.56-1.46l2,.78a4.08,4.08,0,0,1-1,1.43,4.69,4.69,0,0,1-1.61.93A5.82,5.82,0,0,1,338,108.3Zm-.18-9.2a2.45,2.45,0,0,0-1.25.32,2.66,2.66,0,0,0-.93.9,3.48,3.48,0,0,0-.52,1.36h5.28a4,4,0,0,0-.46-1.36,2.43,2.43,0,0,0-.9-.9A2.39,2.39,0,0,0,337.77,99.1Z"/><path class="cls-3" d="M348.65,108.3a5,5,0,0,1-1.89-.34,4.1,4.1,0,0,1-1.48-1,3.56,3.56,0,0,1-.87-1.49l2.08-.54a2.11,2.11,0,0,0,.84,1.06,2.38,2.38,0,0,0,1.33.38A2.1,2.1,0,0,0,350,106a1.14,1.14,0,0,0,.5-1,1.09,1.09,0,0,0-.4-.84,2.79,2.79,0,0,0-1.31-.5l-.66-.12a5,5,0,0,1-2.52-1.08,2.59,2.59,0,0,1-.86-2,3,3,0,0,1,.5-1.72,3.49,3.49,0,0,1,1.38-1.16,4.69,4.69,0,0,1,2-.42,4.62,4.62,0,0,1,1.8.34,4,4,0,0,1,1.38,1,3.52,3.52,0,0,1,.79,1.46l-2.05.5a2.14,2.14,0,0,0-.75-1,2,2,0,0,0-1.2-.37,1.85,1.85,0,0,0-1.15.35,1.06,1.06,0,0,0-.46.89.9.9,0,0,0,.4.76,3.61,3.61,0,0,0,1.4.48l.66.12a4.68,4.68,0,0,1,2.46,1.1,2.72,2.72,0,0,1,.85,2,3.15,3.15,0,0,1-.29,1.37,3.5,3.5,0,0,1-.85,1.1,4,4,0,0,1-1.3.72A5.14,5.14,0,0,1,348.65,108.3Z"/><path class="cls-3" d="M362.66,108.3a4.26,4.26,0,0,1-1.46-.24,3.57,3.57,0,0,1-1.17-.68,3.09,3.09,0,0,1-.79-1A3.18,3.18,0,0,1,359,105a3,3,0,0,1,.52-1.75,3.55,3.55,0,0,1,1.5-1.17,5.49,5.49,0,0,1,2.24-.42,6.55,6.55,0,0,1,1.34.13,7.17,7.17,0,0,1,1.22.37v-.66a2.79,2.79,0,0,0-.26-1.23,2.06,2.06,0,0,0-.74-.83,2.17,2.17,0,0,0-1.17-.3,2.32,2.32,0,0,0-1.29.38,2.2,2.2,0,0,0-.86,1.06l-2.12-.48a3.23,3.23,0,0,1,.87-1.52,4.33,4.33,0,0,1,1.52-1,5,5,0,0,1,1.92-.36,4.87,4.87,0,0,1,1.79.32,4,4,0,0,1,1.4.9,4.15,4.15,0,0,1,.89,1.38,4.63,4.63,0,0,1,.33,1.78V108H366l-.08-1.38a3.06,3.06,0,0,1-1.27,1.22A4,4,0,0,1,362.66,108.3Zm-1.37-3.38a1.36,1.36,0,0,0,.24.79,1.6,1.6,0,0,0,.67.55,2.38,2.38,0,0,0,1,.2,2.75,2.75,0,0,0,1.33-.32,2.48,2.48,0,0,0,.92-.87,2.39,2.39,0,0,0,.34-1.25v-.24a7,7,0,0,0-1.07-.35,4.8,4.8,0,0,0-1.14-.13,2.89,2.89,0,0,0-1.67.44A1.36,1.36,0,0,0,361.29,104.92Z"/><path class="cls-3" d="M371.42,108V99.4h-1.84V97.54h1.84V96.8a4,4,0,0,1,.49-2,3.43,3.43,0,0,1,1.31-1.36,3.73,3.73,0,0,1,1.92-.49,4,4,0,0,1,1.13.15,4,4,0,0,1,.91.37l-.52,1.76a3,3,0,0,0-.58-.23,2.56,2.56,0,0,0-.66-.09,1.55,1.55,0,0,0-1.28.53,2.44,2.44,0,0,0-.42,1.51v.62h3V99.4h-3V108Z"/><path class="cls-3" d="M383.22,108.3a3.32,3.32,0,0,1-2.48-.91,3.57,3.57,0,0,1-.9-2.61V99.4H378V97.54h1.84V94h2.3v3.54h3V99.4h-3v5.14a2.09,2.09,0,0,0,.35,1.29,1.24,1.24,0,0,0,1,.45,3.25,3.25,0,0,0,.78-.11,3.34,3.34,0,0,0,.78-.31l.52,1.74a3.93,3.93,0,0,1-1.07.51A4.23,4.23,0,0,1,383.22,108.3Z"/><path class="cls-3" d="M392.36,108.3a5.5,5.5,0,0,1-2.13-.41,5.08,5.08,0,0,1-2.8-2.9,6.14,6.14,0,0,1-.39-2.23,6,6,0,0,1,.39-2.18,5.48,5.48,0,0,1,1.08-1.75,5.14,5.14,0,0,1,5.68-1.2,4.53,4.53,0,0,1,1.58,1.11,4.92,4.92,0,0,1,1,1.71,6.37,6.37,0,0,1,.36,2.19v.68h-7.74a4.07,4.07,0,0,0,.49,1.59,2.78,2.78,0,0,0,1,1,3,3,0,0,0,4-1.1l2,.78a4.08,4.08,0,0,1-1.05,1.43,4.64,4.64,0,0,1-1.6.93A5.83,5.83,0,0,1,392.36,108.3Zm-.18-9.2a2.5,2.5,0,0,0-1.25.32,2.84,2.84,0,0,0-.93.9,3.82,3.82,0,0,0-.52,1.36h5.28a3.77,3.77,0,0,0-.46-1.36,2.33,2.33,0,0,0-.89-.9A2.4,2.4,0,0,0,392.18,99.1Z"/><path class="cls-3" d="M399.4,108V97.54h2.1l.1,1.72a3.3,3.3,0,0,1,1.11-1.37,2.86,2.86,0,0,1,1.67-.49,3.6,3.6,0,0,1,.58,0,1.73,1.73,0,0,1,.5.14l-.26,2.24a2.21,2.21,0,0,0-.46-.11,3.87,3.87,0,0,0-.48,0,2.35,2.35,0,0,0-1.88.8,3.33,3.33,0,0,0-.68,2.22V108Z"/><path class="cls-3" d="M412,108V93.12h2.3V98.8a3.44,3.44,0,0,1,1.28-1.14,3.85,3.85,0,0,1,1.8-.42,3.72,3.72,0,0,1,2.05.56,3.68,3.68,0,0,1,1.35,1.58,5.59,5.59,0,0,1,.48,2.4V108h-2.3v-6a3.15,3.15,0,0,0-.57-2,1.91,1.91,0,0,0-1.59-.72,2.43,2.43,0,0,0-2.18,1.26,2.77,2.77,0,0,0-.32,1.34V108Z"/><path class="cls-3" d="M427.2,108.3a4.36,4.36,0,0,1-1.47-.24,3.78,3.78,0,0,1-1.17-.68A3.07,3.07,0,0,1,423.5,105a3,3,0,0,1,.53-1.75,3.52,3.52,0,0,1,1.49-1.17,5.56,5.56,0,0,1,2.24-.42,6.41,6.41,0,0,1,1.34.13,6.66,6.66,0,0,1,1.22.37v-.66a2.65,2.65,0,0,0-.26-1.23,2,2,0,0,0-.74-.83,2.13,2.13,0,0,0-1.16-.3,2.36,2.36,0,0,0-1.3.38,2.32,2.32,0,0,0-.86,1.06l-2.12-.48a3.41,3.41,0,0,1,.87-1.52,4.42,4.42,0,0,1,1.52-1,5.14,5.14,0,0,1,1.93-.36,4.87,4.87,0,0,1,1.79.32,3.88,3.88,0,0,1,1.39.9,4,4,0,0,1,.9,1.38,4.63,4.63,0,0,1,.32,1.78V108h-2.1l-.08-1.38a3.09,3.09,0,0,1-1.26,1.22A4,4,0,0,1,427.2,108.3Zm-1.38-3.38a1.36,1.36,0,0,0,.24.79,1.66,1.66,0,0,0,.67.55,2.46,2.46,0,0,0,1,.2,2.69,2.69,0,0,0,1.32-.32,2.34,2.34,0,0,0,.92-.87,2.3,2.3,0,0,0,.34-1.25v-.24a6.38,6.38,0,0,0-1.07-.35,4.66,4.66,0,0,0-1.13-.13,2.89,2.89,0,0,0-1.67.44A1.37,1.37,0,0,0,425.82,104.92Z"/><path class="cls-3" d="M438.06,108l-4-10.46h2.52l2.68,8.06,2.7-8.06h2.44l-4,10.46Z"/><path class="cls-3" d="M448.74,94.62a1.32,1.32,0,0,1-.19.7,1.39,1.39,0,0,1-.51.51,1.29,1.29,0,0,1-.7.19,1.34,1.34,0,0,1-.7-.19,1.55,1.55,0,0,1-.51-.51,1.38,1.38,0,0,1,0-1.4,1.55,1.55,0,0,1,.51-.51,1.34,1.34,0,0,1,.7-.19,1.29,1.29,0,0,1,.7.19,1.39,1.39,0,0,1,.51.51A1.32,1.32,0,0,1,448.74,94.62ZM446.2,108V97.54h2.3V108Z"/><path class="cls-3" d="M451.26,108V97.54h2.1l.08,1.44a3.42,3.42,0,0,1,1.29-1.27,3.86,3.86,0,0,1,1.91-.47,3.72,3.72,0,0,1,2.05.56A3.68,3.68,0,0,1,460,99.38a5.59,5.59,0,0,1,.48,2.4V108h-2.3v-6a3.15,3.15,0,0,0-.57-2,1.91,1.91,0,0,0-1.59-.72,2.43,2.43,0,0,0-2.18,1.26,2.77,2.77,0,0,0-.32,1.34V108Z"/><path class="cls-3" d="M467.64,107.8a4.5,4.5,0,0,1-1.9-.4,5,5,0,0,1-1.54-1.11,5,5,0,0,1-1-1.66,5.77,5.77,0,0,1-.36-2.07,6,6,0,0,1,.37-2.09,5.13,5.13,0,0,1,1.05-1.69,5,5,0,0,1,1.58-1.13,4.69,4.69,0,0,1,1.94-.41,4.18,4.18,0,0,1,2,.47A3.68,3.68,0,0,1,471.16,99l.08-1.48h2.1v9.36a5.93,5.93,0,0,1-.38,2.19,4.75,4.75,0,0,1-1.08,1.7,4.65,4.65,0,0,1-1.67,1.09,6,6,0,0,1-2.17.38,5.35,5.35,0,0,1-2.8-.72,5.1,5.1,0,0,1-1.88-2l2.18-.76a3.1,3.1,0,0,0,1.1,1.09,3.19,3.19,0,0,0,3,0,2.65,2.65,0,0,0,1-1.1,3.64,3.64,0,0,0,.36-1.67v-1a4,4,0,0,1-1.44,1.26A4.11,4.11,0,0,1,467.64,107.8Zm.48-2.08a2.77,2.77,0,0,0,1.51-.42,3,3,0,0,0,1.06-1.14,3.64,3.64,0,0,0,0-3.28,3,3,0,0,0-1.06-1.14,2.77,2.77,0,0,0-1.51-.42,2.73,2.73,0,0,0-1.5.42,3,3,0,0,0-1.05,1.14,3.64,3.64,0,0,0,0,3.28,3,3,0,0,0,1.05,1.14A2.73,2.73,0,0,0,468.12,105.72Z"/><path class="cls-3" d="M484.22,108.3a5.08,5.08,0,0,1-1.89-.34,4.19,4.19,0,0,1-1.48-1,3.79,3.79,0,0,1-.87-1.49l2.08-.54a2.22,2.22,0,0,0,.84,1.06,2.44,2.44,0,0,0,1.34.38,2.07,2.07,0,0,0,1.28-.37,1.12,1.12,0,0,0,.5-1,1.06,1.06,0,0,0-.4-.84,2.75,2.75,0,0,0-1.3-.5l-.66-.12a5,5,0,0,1-2.53-1.08,2.62,2.62,0,0,1-.85-2,3,3,0,0,1,.5-1.72,3.49,3.49,0,0,1,1.38-1.16,4.65,4.65,0,0,1,2-.42,4.55,4.55,0,0,1,1.8.34,3.81,3.81,0,0,1,1.38,1,3.54,3.54,0,0,1,.8,1.46l-2.06.5a2.14,2.14,0,0,0-.75-1,1.94,1.94,0,0,0-1.19-.37,1.9,1.9,0,0,0-1.16.35,1.09,1.09,0,0,0-.46.89.91.91,0,0,0,.41.76,3.61,3.61,0,0,0,1.39.48l.66.12a4.61,4.61,0,0,1,2.46,1.1,2.69,2.69,0,0,1,.86,2,3.16,3.16,0,0,1-.3,1.37,3.23,3.23,0,0,1-.85,1.1,3.9,3.9,0,0,1-1.3.72A5.1,5.1,0,0,1,484.22,108.3Z"/><path class="cls-3" d="M490.5,108V93.12h2.3V98.8a3.44,3.44,0,0,1,1.28-1.14,3.85,3.85,0,0,1,1.8-.42,3.72,3.72,0,0,1,2.05.56,3.68,3.68,0,0,1,1.35,1.58,5.59,5.59,0,0,1,.48,2.4V108h-2.3v-6a3.15,3.15,0,0,0-.57-2,1.91,1.91,0,0,0-1.59-.72,2.43,2.43,0,0,0-2.18,1.26,2.77,2.77,0,0,0-.32,1.34V108Z"/><path class="cls-3" d="M505.72,108.3a4.36,4.36,0,0,1-1.47-.24,3.78,3.78,0,0,1-1.17-.68A3.07,3.07,0,0,1,502,105a3,3,0,0,1,.53-1.75A3.52,3.52,0,0,1,504,102.1a5.56,5.56,0,0,1,2.24-.42,6.41,6.41,0,0,1,1.34.13,6.66,6.66,0,0,1,1.22.37v-.66a2.65,2.65,0,0,0-.26-1.23,2,2,0,0,0-.74-.83,2.13,2.13,0,0,0-1.16-.3,2.36,2.36,0,0,0-1.3.38,2.32,2.32,0,0,0-.86,1.06l-2.12-.48a3.41,3.41,0,0,1,.87-1.52,4.42,4.42,0,0,1,1.52-1,5.14,5.14,0,0,1,1.93-.36,4.87,4.87,0,0,1,1.79.32,3.88,3.88,0,0,1,1.39.9,4,4,0,0,1,.9,1.38,4.63,4.63,0,0,1,.32,1.78V108H509l-.08-1.38a3.09,3.09,0,0,1-1.26,1.22A4,4,0,0,1,505.72,108.3Zm-1.38-3.38a1.36,1.36,0,0,0,.24.79,1.66,1.66,0,0,0,.67.55,2.46,2.46,0,0,0,1,.2,2.69,2.69,0,0,0,1.32-.32,2.34,2.34,0,0,0,.92-.87,2.3,2.3,0,0,0,.34-1.25v-.24a6.38,6.38,0,0,0-1.07-.35,4.66,4.66,0,0,0-1.13-.13,2.89,2.89,0,0,0-1.67.44A1.37,1.37,0,0,0,504.34,104.92Z"/><path class="cls-3" d="M513.88,108V97.54H516l.1,1.72a3.3,3.3,0,0,1,1.11-1.37,2.84,2.84,0,0,1,1.67-.49,3.6,3.6,0,0,1,.58,0,1.73,1.73,0,0,1,.5.14l-.26,2.24a2.21,2.21,0,0,0-.46-.11l-.48,0a2.35,2.35,0,0,0-1.88.8,3.33,3.33,0,0,0-.68,2.22V108Z"/><path class="cls-3" d="M526.46,108.3a5.5,5.5,0,0,1-2.13-.41,5.08,5.08,0,0,1-2.8-2.9,6.14,6.14,0,0,1-.39-2.23,6,6,0,0,1,.39-2.18,5.48,5.48,0,0,1,1.08-1.75,5.14,5.14,0,0,1,5.68-1.2,4.53,4.53,0,0,1,1.58,1.11,4.92,4.92,0,0,1,1,1.71,6.37,6.37,0,0,1,.36,2.19v.68h-7.74a4.07,4.07,0,0,0,.49,1.59,2.78,2.78,0,0,0,1,1,3,3,0,0,0,4-1.1l2,.78a4.08,4.08,0,0,1-1,1.43,4.64,4.64,0,0,1-1.6.93A5.83,5.83,0,0,1,526.46,108.3Zm-.18-9.2a2.5,2.5,0,0,0-1.25.32,2.84,2.84,0,0,0-.93.9,3.82,3.82,0,0,0-.52,1.36h5.28a3.77,3.77,0,0,0-.46-1.36,2.33,2.33,0,0,0-.89-.9A2.4,2.4,0,0,0,526.28,99.1Z"/><path class="cls-3" d="M538,108.3a4.5,4.5,0,0,1-1.93-.42,4.89,4.89,0,0,1-1.55-1.16,5.39,5.39,0,0,1-1-1.74,6.52,6.52,0,0,1,0-4.36,5.76,5.76,0,0,1,1.06-1.78,4.92,4.92,0,0,1,1.59-1.18,4.68,4.68,0,0,1,2-.42,4.15,4.15,0,0,1,1.9.44,3.77,3.77,0,0,1,1.42,1.24v-5.8h2.3V108h-2.1l-.1-1.68a4,4,0,0,1-1.48,1.45A4.08,4.08,0,0,1,538,108.3Zm.48-2.08a2.7,2.7,0,0,0,1.54-.45,3.13,3.13,0,0,0,1.07-1.23,4.21,4.21,0,0,0,0-3.54A3.13,3.13,0,0,0,540,99.77a2.86,2.86,0,0,0-3.08,0,3.13,3.13,0,0,0-1.07,1.23,4.21,4.21,0,0,0,0,3.54,3.13,3.13,0,0,0,1.07,1.23A2.73,2.73,0,0,0,538.5,106.22Z"/><path class="cls-3" d="M555.38,108.3a3.32,3.32,0,0,1-2.48-.91,3.57,3.57,0,0,1-.9-2.61V99.4h-1.84V97.54H552V94h2.3v3.54h3V99.4h-3v5.14a2.09,2.09,0,0,0,.35,1.29,1.23,1.23,0,0,0,1,.45,3.25,3.25,0,0,0,.78-.11,3.34,3.34,0,0,0,.78-.31l.52,1.74a4.08,4.08,0,0,1-1.07.51A4.23,4.23,0,0,1,555.38,108.3Z"/><path class="cls-3" d="M559.86,108V93.12h2.3V98.8a3.44,3.44,0,0,1,1.28-1.14,3.82,3.82,0,0,1,1.8-.42,3.72,3.72,0,0,1,2,.56,3.68,3.68,0,0,1,1.35,1.58,5.59,5.59,0,0,1,.48,2.4V108h-2.3v-6a3.15,3.15,0,0,0-.57-2,1.91,1.91,0,0,0-1.59-.72,2.43,2.43,0,0,0-2.18,1.26,2.77,2.77,0,0,0-.32,1.34V108Z"/><path class="cls-3" d="M576.74,108.3a5.5,5.5,0,0,1-2.13-.41,5.07,5.07,0,0,1-1.69-1.15,5.13,5.13,0,0,1-1.11-1.75,6.14,6.14,0,0,1-.39-2.23,6,6,0,0,1,.39-2.18,5.48,5.48,0,0,1,1.08-1.75,4.88,4.88,0,0,1,1.63-1.17,5,5,0,0,1,2-.42,5.07,5.07,0,0,1,2,.39,4.62,4.62,0,0,1,1.58,1.11,4.92,4.92,0,0,1,1,1.71,6.37,6.37,0,0,1,.36,2.19v.68H573.8a4.07,4.07,0,0,0,.49,1.59,2.69,2.69,0,0,0,2.45,1.39,2.88,2.88,0,0,0,2.56-1.46l2,.78a4.08,4.08,0,0,1-1.05,1.43,4.64,4.64,0,0,1-1.6.93A5.88,5.88,0,0,1,576.74,108.3Zm-.18-9.2a2.47,2.47,0,0,0-1.25.32,2.66,2.66,0,0,0-.93.9,3.64,3.64,0,0,0-.52,1.36h5.28a3.77,3.77,0,0,0-.46-1.36,2.4,2.4,0,0,0-.89-.9A2.45,2.45,0,0,0,576.56,99.1Z"/><path class="cls-3" d="M583.78,108V97.54h2.1l.08,1.4a3.48,3.48,0,0,1,1.26-1.24,3.54,3.54,0,0,1,1.82-.46,3.44,3.44,0,0,1,1.94.55,3.69,3.69,0,0,1,1.3,1.51,3.56,3.56,0,0,1,.81-1.08,3.62,3.62,0,0,1,1.2-.72,4.28,4.28,0,0,1,1.49-.26,3.51,3.51,0,0,1,3.35,2.11,5.72,5.72,0,0,1,.47,2.41V108h-2.3v-6a3.15,3.15,0,0,0-.56-2,1.86,1.86,0,0,0-1.54-.7,2.24,2.24,0,0,0-1.21.33,2.41,2.41,0,0,0-.84.92,2.78,2.78,0,0,0-.31,1.33V108h-2.3v-6a3.15,3.15,0,0,0-.56-2,1.86,1.86,0,0,0-1.54-.7,2.24,2.24,0,0,0-1.21.33,2.41,2.41,0,0,0-.84.92,2.78,2.78,0,0,0-.31,1.33V108Z"/><path class="cls-3" d="M606.9,108V93.12h2.3v5.94a3.92,3.92,0,0,1,1.46-1.34,4.14,4.14,0,0,1,2-.48,4.46,4.46,0,0,1,1.93.42,4.89,4.89,0,0,1,1.55,1.16,5.39,5.39,0,0,1,1,1.74,6.13,6.13,0,0,1,.37,2.16,6.31,6.31,0,0,1-.38,2.2,5.57,5.57,0,0,1-1.06,1.78,4.72,4.72,0,0,1-1.59,1.18,4.64,4.64,0,0,1-2,.42,4.12,4.12,0,0,1-2-.48,3.73,3.73,0,0,1-1.43-1.36L609,108Zm5.26-1.78a2.73,2.73,0,0,0,1.54-.45,3.13,3.13,0,0,0,1.07-1.23,3.92,3.92,0,0,0,.39-1.78,3.85,3.85,0,0,0-.39-1.77,3.17,3.17,0,0,0-1.07-1.22,2.86,2.86,0,0,0-3.08,0,3.17,3.17,0,0,0-1.07,1.22,3.85,3.85,0,0,0-.39,1.77,3.92,3.92,0,0,0,.39,1.78,3.13,3.13,0,0,0,1.07,1.23A2.73,2.73,0,0,0,612.16,106.22Z"/><path class="cls-3" d="M624.78,108.3a5.44,5.44,0,0,1-2.11-.41,5,5,0,0,1-1.69-1.16,5.45,5.45,0,0,1-1.12-1.76,5.87,5.87,0,0,1-.4-2.21,5.8,5.8,0,0,1,.4-2.19A5.32,5.32,0,0,1,621,98.81a5.07,5.07,0,0,1,1.72-1.16,5.64,5.64,0,0,1,2.15-.41,5.4,5.4,0,0,1,2.11.41,5,5,0,0,1,1.69,1.16,5.41,5.41,0,0,1,1.12,1.75,6.28,6.28,0,0,1,0,4.41,5.32,5.32,0,0,1-1.13,1.76,5.07,5.07,0,0,1-1.72,1.16A5.64,5.64,0,0,1,624.78,108.3Zm0-2.08a2.73,2.73,0,0,0,1.54-.45,3.13,3.13,0,0,0,1.07-1.23,3.92,3.92,0,0,0,.39-1.78,3.85,3.85,0,0,0-.39-1.77,3.17,3.17,0,0,0-1.07-1.22,2.86,2.86,0,0,0-3.08,0,3.17,3.17,0,0,0-1.07,1.22,3.85,3.85,0,0,0-.39,1.77,3.92,3.92,0,0,0,.39,1.78,3.13,3.13,0,0,0,1.07,1.23A2.73,2.73,0,0,0,624.82,106.22Z"/><path class="cls-3" d="M636.52,108.3a3.32,3.32,0,0,1-2.48-.91,3.57,3.57,0,0,1-.9-2.61V99.4H631.3V97.54h1.84V94h2.3v3.54h3V99.4h-3v5.14a2.09,2.09,0,0,0,.35,1.29,1.23,1.23,0,0,0,1,.45,3.25,3.25,0,0,0,.78-.11,3.34,3.34,0,0,0,.78-.31l.52,1.74a4.08,4.08,0,0,1-1.07.51A4.28,4.28,0,0,1,636.52,108.3Z"/><path class="cls-3" d="M641,108V93.12h2.3V98.8a3.44,3.44,0,0,1,1.28-1.14,3.79,3.79,0,0,1,1.8-.42,3.72,3.72,0,0,1,2,.56,3.68,3.68,0,0,1,1.35,1.58,5.59,5.59,0,0,1,.48,2.4V108H648v-6a3.15,3.15,0,0,0-.57-2,1.91,1.91,0,0,0-1.59-.72,2.44,2.44,0,0,0-1.29.34,2.38,2.38,0,0,0-.89.92,2.77,2.77,0,0,0-.32,1.34V108Z"/><path class="cls-3" d="M662.42,108.3a5.44,5.44,0,0,1-2.11-.41,5,5,0,0,1-1.69-1.16A5.45,5.45,0,0,1,657.5,105a5.87,5.87,0,0,1-.4-2.21,5.8,5.8,0,0,1,.4-2.19,5.32,5.32,0,0,1,1.13-1.76,5.07,5.07,0,0,1,1.72-1.16,5.64,5.64,0,0,1,2.15-.41,5.44,5.44,0,0,1,2.11.41,5,5,0,0,1,1.69,1.16,5.41,5.41,0,0,1,1.12,1.75,6.28,6.28,0,0,1,0,4.41,5.32,5.32,0,0,1-1.13,1.76,5.07,5.07,0,0,1-1.72,1.16A5.64,5.64,0,0,1,662.42,108.3Zm0-2.08a2.73,2.73,0,0,0,1.54-.45,3.13,3.13,0,0,0,1.07-1.23,3.92,3.92,0,0,0,.39-1.78,3.85,3.85,0,0,0-.39-1.77A3.17,3.17,0,0,0,664,99.77a2.86,2.86,0,0,0-3.08,0,3.17,3.17,0,0,0-1.07,1.22,3.85,3.85,0,0,0-.39,1.77,3.92,3.92,0,0,0,.39,1.78,3.13,3.13,0,0,0,1.07,1.23A2.73,2.73,0,0,0,662.46,106.22Z"/><path class="cls-3" d="M670.12,108V97.54h2.1L672.3,99a3.42,3.42,0,0,1,1.29-1.27,3.83,3.83,0,0,1,1.91-.47,3.72,3.72,0,0,1,2,.56,3.68,3.68,0,0,1,1.35,1.58,5.59,5.59,0,0,1,.48,2.4V108h-2.3v-6a3.15,3.15,0,0,0-.57-2,1.91,1.91,0,0,0-1.59-.72,2.44,2.44,0,0,0-1.29.34,2.38,2.38,0,0,0-.89.92,2.77,2.77,0,0,0-.32,1.34V108Z"/><path class="cls-3" d="M682.14,108V93.12h2.3V108Z"/><path class="cls-3" d="M689.74,94.62a1.32,1.32,0,0,1-.19.7,1.55,1.55,0,0,1-.51.51,1.38,1.38,0,0,1-1.4,0,1.55,1.55,0,0,1-.51-.51,1.38,1.38,0,0,1,0-1.4,1.55,1.55,0,0,1,.51-.51,1.38,1.38,0,0,1,1.4,0,1.55,1.55,0,0,1,.51.51A1.32,1.32,0,0,1,689.74,94.62ZM687.2,108V97.54h2.3V108Z"/><path class="cls-3" d="M692.26,108V97.54h2.1l.08,1.44a3.42,3.42,0,0,1,1.29-1.27,3.83,3.83,0,0,1,1.91-.47,3.72,3.72,0,0,1,2.05.56A3.68,3.68,0,0,1,701,99.38a5.59,5.59,0,0,1,.48,2.4V108h-2.3v-6a3.15,3.15,0,0,0-.57-2,1.91,1.91,0,0,0-1.59-.72,2.44,2.44,0,0,0-1.29.34,2.38,2.38,0,0,0-.89.92,2.77,2.77,0,0,0-.32,1.34V108Z"/><path class="cls-3" d="M709.14,108.3a5.5,5.5,0,0,1-2.13-.41,5.07,5.07,0,0,1-1.69-1.15,5.13,5.13,0,0,1-1.11-1.75,6.14,6.14,0,0,1-.39-2.23,6,6,0,0,1,.39-2.18,5.48,5.48,0,0,1,1.08-1.75,4.88,4.88,0,0,1,1.63-1.17,5,5,0,0,1,2-.42,5.07,5.07,0,0,1,2,.39,4.62,4.62,0,0,1,1.58,1.11,4.92,4.92,0,0,1,1,1.71,6.37,6.37,0,0,1,.36,2.19v.68H706.2a4.07,4.07,0,0,0,.49,1.59,2.69,2.69,0,0,0,2.45,1.39,2.88,2.88,0,0,0,2.56-1.46l2,.78a4.08,4.08,0,0,1-1.05,1.43,4.64,4.64,0,0,1-1.6.93A5.88,5.88,0,0,1,709.14,108.3ZM709,99.1a2.47,2.47,0,0,0-1.25.32,2.66,2.66,0,0,0-.93.9,3.64,3.64,0,0,0-.52,1.36h5.28a3.77,3.77,0,0,0-.46-1.36,2.4,2.4,0,0,0-.89-.9A2.45,2.45,0,0,0,709,99.1Z"/></g><g class="cls-2"><path class="cls-3" d="M155.35,133.3a4.36,4.36,0,0,1-1.47-.24,3.57,3.57,0,0,1-1.17-.68,3.2,3.2,0,0,1-.78-1,3,3,0,0,1-.28-1.32,3,3,0,0,1,.53-1.75,3.46,3.46,0,0,1,1.49-1.17,5.56,5.56,0,0,1,2.24-.42,6.48,6.48,0,0,1,1.34.13,6.91,6.91,0,0,1,1.22.37v-.66a2.79,2.79,0,0,0-.26-1.23,2,2,0,0,0-.74-.83,2.15,2.15,0,0,0-1.16-.3,2.36,2.36,0,0,0-1.3.38,2.26,2.26,0,0,0-.86,1.06l-2.12-.48a3.41,3.41,0,0,1,.87-1.52,4.42,4.42,0,0,1,1.52-1,5.1,5.1,0,0,1,1.93-.36,4.91,4.91,0,0,1,1.79.32,4,4,0,0,1,1.39.9,4,4,0,0,1,.9,1.38,4.82,4.82,0,0,1,.32,1.78V133h-2.1l-.08-1.38a3.09,3.09,0,0,1-1.26,1.22A4,4,0,0,1,155.35,133.3ZM154,129.92a1.36,1.36,0,0,0,.24.79,1.6,1.6,0,0,0,.67.55,2.43,2.43,0,0,0,1,.2,2.74,2.74,0,0,0,1.32-.32,2.41,2.41,0,0,0,.92-.87,2.3,2.3,0,0,0,.34-1.25v-.24a6.69,6.69,0,0,0-1.07-.35,4.72,4.72,0,0,0-1.13-.13,2.89,2.89,0,0,0-1.67.44A1.37,1.37,0,0,0,154,129.92Z"/><path class="cls-3" d="M163.51,133V122.54h2.1l.08,1.44a3.42,3.42,0,0,1,1.29-1.27,3.83,3.83,0,0,1,1.91-.47,3.72,3.72,0,0,1,2.05.56,3.68,3.68,0,0,1,1.35,1.58,5.59,5.59,0,0,1,.48,2.4V133h-2.3v-6a3.15,3.15,0,0,0-.57-2,1.91,1.91,0,0,0-1.59-.72,2.44,2.44,0,0,0-1.29.34,2.38,2.38,0,0,0-.89.92,2.77,2.77,0,0,0-.32,1.34V133Z"/><path class="cls-3" d="M180,133.3a4.46,4.46,0,0,1-1.93-.42,4.89,4.89,0,0,1-1.55-1.16,5.39,5.39,0,0,1-1-1.74,6.13,6.13,0,0,1-.37-2.16,6.31,6.31,0,0,1,.38-2.2,5.57,5.57,0,0,1,1.06-1.78,4.72,4.72,0,0,1,1.59-1.18,4.64,4.64,0,0,1,2-.42,4.15,4.15,0,0,1,1.9.44,3.85,3.85,0,0,1,1.42,1.24v-5.8h2.3V133h-2.1l-.1-1.68a4.06,4.06,0,0,1-3.54,2Zm.48-2.08a2.73,2.73,0,0,0,1.54-.45,3.13,3.13,0,0,0,1.07-1.23,4.21,4.21,0,0,0,0-3.54,3.13,3.13,0,0,0-1.07-1.23,2.86,2.86,0,0,0-3.08,0,3.13,3.13,0,0,0-1.07,1.23,4.21,4.21,0,0,0,0,3.54,3.13,3.13,0,0,0,1.07,1.23A2.73,2.73,0,0,0,180.43,131.22Z"/><path class="cls-3" d="M197.85,133.3a5.44,5.44,0,0,1-2.11-.41,5,5,0,0,1-1.69-1.16,5.45,5.45,0,0,1-1.12-1.76,5.87,5.87,0,0,1-.4-2.21,5.8,5.8,0,0,1,.4-2.19,5.32,5.32,0,0,1,1.13-1.76,5.07,5.07,0,0,1,1.72-1.16,5.64,5.64,0,0,1,2.15-.41,5.44,5.44,0,0,1,2.11.41,5,5,0,0,1,1.69,1.16,5.41,5.41,0,0,1,1.12,1.75,6.28,6.28,0,0,1,0,4.41,5.32,5.32,0,0,1-1.13,1.76,5.07,5.07,0,0,1-1.72,1.16A5.64,5.64,0,0,1,197.85,133.3Zm0-2.08a2.73,2.73,0,0,0,1.54-.45,3.13,3.13,0,0,0,1.07-1.23,3.92,3.92,0,0,0,.39-1.78,3.85,3.85,0,0,0-.39-1.77,3.17,3.17,0,0,0-1.07-1.22,2.86,2.86,0,0,0-3.08,0,3.17,3.17,0,0,0-1.07,1.22,3.85,3.85,0,0,0-.39,1.77,3.92,3.92,0,0,0,.39,1.78,3.13,3.13,0,0,0,1.07,1.23A2.73,2.73,0,0,0,197.89,131.22Z"/><path class="cls-3" d="M206.21,133v-8.6h-1.84v-1.86h1.84v-.74a4.14,4.14,0,0,1,.48-2,3.52,3.52,0,0,1,1.32-1.36,3.71,3.71,0,0,1,1.92-.49,4,4,0,0,1,1.13.15,4.43,4.43,0,0,1,.91.37l-.52,1.76a2.9,2.9,0,0,0-.59-.23,2.48,2.48,0,0,0-.65-.09,1.55,1.55,0,0,0-1.28.53,2.38,2.38,0,0,0-.42,1.51v.62H213v-.74a4.14,4.14,0,0,1,.48-2,3.57,3.57,0,0,1,1.31-1.36,3.69,3.69,0,0,1,1.93-.49,4,4,0,0,1,1.13.15,4.43,4.43,0,0,1,.91.37l-.52,1.76a2.9,2.9,0,0,0-.59-.23,2.48,2.48,0,0,0-.65-.09,1.55,1.55,0,0,0-1.28.53,2.38,2.38,0,0,0-.42,1.51v.62h3v1.86h-3V133H213v-8.6h-4.46V133Z"/><path class="cls-3" d="M220.25,133V118.12h2.3V133Z"/><path class="cls-3" d="M227.85,119.62a1.32,1.32,0,0,1-.19.7,1.55,1.55,0,0,1-.51.51,1.38,1.38,0,0,1-1.4,0,1.55,1.55,0,0,1-.51-.51,1.38,1.38,0,0,1,0-1.4,1.55,1.55,0,0,1,.51-.51,1.38,1.38,0,0,1,1.4,0,1.55,1.55,0,0,1,.51.51A1.32,1.32,0,0,1,227.85,119.62ZM225.31,133V122.54h2.3V133Z"/><path class="cls-3" d="M230.37,133V122.54h2.1l.08,1.44a3.42,3.42,0,0,1,1.29-1.27,3.83,3.83,0,0,1,1.91-.47,3.72,3.72,0,0,1,2.05.56,3.68,3.68,0,0,1,1.35,1.58,5.59,5.59,0,0,1,.48,2.4V133h-2.3v-6a3.15,3.15,0,0,0-.57-2,1.91,1.91,0,0,0-1.59-.72,2.44,2.44,0,0,0-1.29.34,2.38,2.38,0,0,0-.89.92,2.77,2.77,0,0,0-.32,1.34V133Z"/><path class="cls-3" d="M247.25,133.3a5.5,5.5,0,0,1-2.13-.41,5.07,5.07,0,0,1-1.69-1.15,5.13,5.13,0,0,1-1.11-1.75,6.14,6.14,0,0,1-.39-2.23,6,6,0,0,1,.39-2.18,5.48,5.48,0,0,1,1.08-1.75,4.88,4.88,0,0,1,1.63-1.17,4.93,4.93,0,0,1,2-.42,5.07,5.07,0,0,1,2,.39,4.62,4.62,0,0,1,1.58,1.11,4.92,4.92,0,0,1,1,1.71,6.37,6.37,0,0,1,.36,2.19v.68h-7.74a3.91,3.91,0,0,0,.49,1.59,2.69,2.69,0,0,0,2.45,1.39,2.88,2.88,0,0,0,2.56-1.46l2,.78a4.08,4.08,0,0,1-1.05,1.43,4.64,4.64,0,0,1-1.6.93A5.88,5.88,0,0,1,247.25,133.3Zm-.18-9.2a2.47,2.47,0,0,0-1.25.32,2.66,2.66,0,0,0-.93.9,3.48,3.48,0,0,0-.52,1.36h5.28a4,4,0,0,0-.46-1.36,2.48,2.48,0,0,0-.89-.9A2.45,2.45,0,0,0,247.07,124.1Z"/><path class="cls-3" d="M262.41,133.3a5.08,5.08,0,0,1-1.89-.34,4.19,4.19,0,0,1-1.48-1,3.56,3.56,0,0,1-.87-1.49l2.08-.54a2.11,2.11,0,0,0,.84,1.06,2.42,2.42,0,0,0,1.34.38,2.09,2.09,0,0,0,1.28-.37,1.14,1.14,0,0,0,.5-.95,1.06,1.06,0,0,0-.4-.84,2.79,2.79,0,0,0-1.3-.5l-.66-.12a5,5,0,0,1-2.53-1.08,2.59,2.59,0,0,1-.85-2,3,3,0,0,1,.5-1.72,3.36,3.36,0,0,1,1.38-1.16,5,5,0,0,1,3.82-.08,4,4,0,0,1,1.38,1,3.65,3.65,0,0,1,.8,1.46l-2.06.5a2.14,2.14,0,0,0-.75-1,2,2,0,0,0-1.19-.37,1.86,1.86,0,0,0-1.16.35,1.06,1.06,0,0,0-.46.89.91.91,0,0,0,.41.76,3.48,3.48,0,0,0,1.39.48l.66.12a4.65,4.65,0,0,1,2.46,1.1,2.73,2.73,0,0,1,.86,2,3.16,3.16,0,0,1-.3,1.37,3.23,3.23,0,0,1-.85,1.1,4,4,0,0,1-1.3.72A5.1,5.1,0,0,1,262.41,133.3Z"/><path class="cls-3" d="M273.55,133.3a5.4,5.4,0,0,1-2.11-.41,5,5,0,0,1-1.69-1.16,5.45,5.45,0,0,1-1.12-1.76,5.87,5.87,0,0,1-.4-2.21,5.8,5.8,0,0,1,.4-2.19,5.32,5.32,0,0,1,1.13-1.76,5,5,0,0,1,1.72-1.16,5.64,5.64,0,0,1,2.15-.41,5.44,5.44,0,0,1,2.11.41,5.05,5.05,0,0,1,1.69,1.16,5.41,5.41,0,0,1,1.12,1.75,6.28,6.28,0,0,1,0,4.41,5.32,5.32,0,0,1-1.13,1.76,5.07,5.07,0,0,1-1.72,1.16A5.64,5.64,0,0,1,273.55,133.3Zm0-2.08a2.75,2.75,0,0,0,1.54-.45,3.13,3.13,0,0,0,1.07-1.23,3.92,3.92,0,0,0,.39-1.78,3.85,3.85,0,0,0-.39-1.77,3.17,3.17,0,0,0-1.07-1.22,2.75,2.75,0,0,0-1.54-.45,2.7,2.7,0,0,0-1.54.45A3.09,3.09,0,0,0,271,126a3.85,3.85,0,0,0-.39,1.77,3.92,3.92,0,0,0,.39,1.78,3.05,3.05,0,0,0,1.07,1.23A2.7,2.7,0,0,0,273.59,131.22Z"/><path class="cls-3" d="M290.11,133.3a3.31,3.31,0,0,1-2.48-.91,3.57,3.57,0,0,1-.9-2.61V124.4h-1.84v-1.86h1.84V119H289v3.54h3v1.86h-3v5.14a2,2,0,0,0,.35,1.29,1.21,1.21,0,0,0,1,.45,3.25,3.25,0,0,0,.78-.11,3.34,3.34,0,0,0,.78-.31l.52,1.74a4.24,4.24,0,0,1-1.07.51A4.32,4.32,0,0,1,290.11,133.3Z"/><path class="cls-3" d="M294.59,133V118.12h2.3v5.68a3.37,3.37,0,0,1,1.28-1.14,3.79,3.79,0,0,1,1.8-.42,3.75,3.75,0,0,1,2,.56,3.68,3.68,0,0,1,1.35,1.58,5.59,5.59,0,0,1,.48,2.4V133h-2.3v-6a3.15,3.15,0,0,0-.57-2,1.91,1.91,0,0,0-1.59-.72,2.44,2.44,0,0,0-1.29.34,2.38,2.38,0,0,0-.89.92,2.66,2.66,0,0,0-.32,1.34V133Z"/><path class="cls-3" d="M309.81,133.3a4.28,4.28,0,0,1-1.47-.24,3.57,3.57,0,0,1-1.17-.68,2.94,2.94,0,0,1-.78-1,3,3,0,0,1-.28-1.32,2.9,2.9,0,0,1,.53-1.75,3.46,3.46,0,0,1,1.49-1.17,5.53,5.53,0,0,1,2.24-.42,6.55,6.55,0,0,1,1.34.13,7.17,7.17,0,0,1,1.22.37v-.66a2.79,2.79,0,0,0-.26-1.23,2.06,2.06,0,0,0-.74-.83,2.15,2.15,0,0,0-1.16-.3,2.33,2.33,0,0,0-1.3.38,2.2,2.2,0,0,0-.86,1.06l-2.12-.48a3.41,3.41,0,0,1,.87-1.52,4.33,4.33,0,0,1,1.52-1,5.06,5.06,0,0,1,1.93-.36,4.91,4.91,0,0,1,1.79.32,4,4,0,0,1,1.39.9,4.34,4.34,0,0,1,.9,1.38,4.82,4.82,0,0,1,.32,1.78V133h-2.1l-.08-1.38a3.09,3.09,0,0,1-1.26,1.22A4,4,0,0,1,309.81,133.3Zm-1.38-3.38a1.36,1.36,0,0,0,.24.79,1.6,1.6,0,0,0,.67.55,2.39,2.39,0,0,0,1,.2,2.74,2.74,0,0,0,1.32-.32,2.48,2.48,0,0,0,.92-.87,2.39,2.39,0,0,0,.34-1.25v-.24a7,7,0,0,0-1.07-.35,4.78,4.78,0,0,0-1.13-.13,2.87,2.87,0,0,0-1.67.44A1.37,1.37,0,0,0,308.43,129.92Z"/><path class="cls-3" d="M322,133.3a3.31,3.31,0,0,1-2.48-.91,3.57,3.57,0,0,1-.9-2.61V124.4h-1.84v-1.86h1.84V119h2.3v3.54h3v1.86h-3v5.14a2,2,0,0,0,.35,1.29,1.21,1.21,0,0,0,1,.45,3.25,3.25,0,0,0,.78-.11,3.34,3.34,0,0,0,.78-.31l.52,1.74a4.24,4.24,0,0,1-1.07.51A4.32,4.32,0,0,1,322,133.3Z"/><path class="cls-3" d="M335.29,133.3a3.31,3.31,0,0,1-2.48-.91,3.57,3.57,0,0,1-.9-2.61V124.4h-1.84v-1.86h1.84V119h2.3v3.54h3v1.86h-3v5.14a2,2,0,0,0,.35,1.29,1.21,1.21,0,0,0,1,.45,3.25,3.25,0,0,0,.78-.11,3.34,3.34,0,0,0,.78-.31l.52,1.74a4.24,4.24,0,0,1-1.07.51A4.32,4.32,0,0,1,335.29,133.3Z"/><path class="cls-3" d="M339.77,133V118.12h2.3v5.68a3.37,3.37,0,0,1,1.28-1.14,3.79,3.79,0,0,1,1.8-.42,3.75,3.75,0,0,1,2.05.56,3.68,3.68,0,0,1,1.35,1.58,5.59,5.59,0,0,1,.48,2.4V133h-2.3v-6a3.15,3.15,0,0,0-.57-2,1.91,1.91,0,0,0-1.59-.72,2.44,2.44,0,0,0-1.29.34,2.38,2.38,0,0,0-.89.92,2.66,2.66,0,0,0-.32,1.34V133Z"/><path class="cls-3" d="M356.65,133.3a5.43,5.43,0,0,1-2.13-.41,5.07,5.07,0,0,1-1.69-1.15,5.13,5.13,0,0,1-1.11-1.75,6.14,6.14,0,0,1-.39-2.23,6,6,0,0,1,.39-2.18,5.48,5.48,0,0,1,1.08-1.75,4.91,4.91,0,0,1,3.67-1.59,5.07,5.07,0,0,1,2,.39,4.72,4.72,0,0,1,1.58,1.11,5.08,5.08,0,0,1,1,1.71,6.37,6.37,0,0,1,.36,2.19v.68h-7.74a3.91,3.91,0,0,0,.49,1.59,2.7,2.7,0,0,0,1,1,2.8,2.8,0,0,0,1.44.36,2.89,2.89,0,0,0,2.56-1.46l2,.78a4.08,4.08,0,0,1-1.05,1.43,4.74,4.74,0,0,1-1.6.93A5.88,5.88,0,0,1,356.65,133.3Zm-.18-9.2a2.45,2.45,0,0,0-1.25.32,2.66,2.66,0,0,0-.93.9,3.48,3.48,0,0,0-.52,1.36h5.28a4,4,0,0,0-.46-1.36,2.48,2.48,0,0,0-.89-.9A2.45,2.45,0,0,0,356.47,124.1Z"/><path class="cls-3" d="M364.81,137.16a3.84,3.84,0,0,1-.93-.1,3.1,3.1,0,0,1-.83-.32l.5-1.82a2.65,2.65,0,0,0,.5.17,2,2,0,0,0,.54.07,1.67,1.67,0,0,0,1.05-.34,2.48,2.48,0,0,0,.75-1.1l.32-.82-4.26-10.36H365l2.82,7.82,2.56-7.82h2.44l-4.44,11.72a5.18,5.18,0,0,1-1.45,2.2A3.22,3.22,0,0,1,364.81,137.16Z"/><path class="cls-3" d="M383.85,133.3a5.12,5.12,0,0,1-2.06-.41,4.84,4.84,0,0,1-1.64-1.14,5.14,5.14,0,0,1-1.09-1.73,6.27,6.27,0,0,1,0-4.38,5.5,5.5,0,0,1,1.1-1.78,5.12,5.12,0,0,1,5.7-1.23,4.61,4.61,0,0,1,1.55,1.1,4.22,4.22,0,0,1,.93,1.67l-2.18.52a2.81,2.81,0,0,0-.95-1.18,2.38,2.38,0,0,0-1.37-.42,2.36,2.36,0,0,0-1.44.46,3.06,3.06,0,0,0-1,1.25,4.47,4.47,0,0,0,0,3.54,3,3,0,0,0,1,1.21,2.53,2.53,0,0,0,1.47.44,2.75,2.75,0,0,0,1.46-.41,2.47,2.47,0,0,0,1-1.17l2.16.5a4,4,0,0,1-1,1.67,4.9,4.9,0,0,1-1.62,1.1A5.23,5.23,0,0,1,383.85,133.3Z"/><path class="cls-3" d="M393.83,133.3a4.28,4.28,0,0,1-1.47-.24,3.57,3.57,0,0,1-1.17-.68,2.94,2.94,0,0,1-.78-1,3,3,0,0,1-.28-1.32,2.9,2.9,0,0,1,.53-1.75,3.46,3.46,0,0,1,1.49-1.17,5.53,5.53,0,0,1,2.24-.42,6.55,6.55,0,0,1,1.34.13,7.17,7.17,0,0,1,1.22.37v-.66a2.79,2.79,0,0,0-.26-1.23,2.06,2.06,0,0,0-.74-.83,2.15,2.15,0,0,0-1.16-.3,2.33,2.33,0,0,0-1.3.38,2.2,2.2,0,0,0-.86,1.06l-2.12-.48a3.41,3.41,0,0,1,.87-1.52,4.33,4.33,0,0,1,1.52-1,5.06,5.06,0,0,1,1.93-.36,4.91,4.91,0,0,1,1.79.32,4,4,0,0,1,1.39.9,4.34,4.34,0,0,1,.9,1.38,4.82,4.82,0,0,1,.32,1.78V133h-2.1l-.08-1.38a3.09,3.09,0,0,1-1.26,1.22A4,4,0,0,1,393.83,133.3Zm-1.38-3.38a1.36,1.36,0,0,0,.24.79,1.6,1.6,0,0,0,.67.55,2.39,2.39,0,0,0,1,.2,2.74,2.74,0,0,0,1.32-.32,2.48,2.48,0,0,0,.92-.87A2.39,2.39,0,0,0,397,129v-.24a7,7,0,0,0-1.07-.35,4.78,4.78,0,0,0-1.13-.13,2.87,2.87,0,0,0-1.67.44A1.37,1.37,0,0,0,392.45,129.92Z"/><path class="cls-3" d="M402,133V122.54h2.1l.08,1.44a3.28,3.28,0,0,1,1.29-1.27,3.83,3.83,0,0,1,1.91-.47,3.75,3.75,0,0,1,2.05.56,3.68,3.68,0,0,1,1.35,1.58,5.59,5.59,0,0,1,.48,2.4V133H409v-6a3.15,3.15,0,0,0-.57-2,1.91,1.91,0,0,0-1.59-.72,2.44,2.44,0,0,0-1.29.34,2.38,2.38,0,0,0-.89.92,2.66,2.66,0,0,0-.32,1.34V133Z"/><path class="cls-3" d="M418.55,133V118.12h2.3v5.68a3.37,3.37,0,0,1,1.28-1.14,3.79,3.79,0,0,1,1.8-.42,3.75,3.75,0,0,1,2.05.56,3.68,3.68,0,0,1,1.35,1.58,5.59,5.59,0,0,1,.48,2.4V133h-2.3v-6a3.15,3.15,0,0,0-.57-2,1.91,1.91,0,0,0-1.59-.72,2.44,2.44,0,0,0-1.29.34,2.38,2.38,0,0,0-.89.92,2.66,2.66,0,0,0-.32,1.34V133Z"/><path class="cls-3" d="M433.77,133.3a4.28,4.28,0,0,1-1.47-.24,3.57,3.57,0,0,1-1.17-.68,2.94,2.94,0,0,1-.78-1,3,3,0,0,1-.28-1.32,2.9,2.9,0,0,1,.53-1.75,3.46,3.46,0,0,1,1.49-1.17,5.53,5.53,0,0,1,2.24-.42,6.55,6.55,0,0,1,1.34.13,7.17,7.17,0,0,1,1.22.37v-.66a2.79,2.79,0,0,0-.26-1.23,2.06,2.06,0,0,0-.74-.83,2.15,2.15,0,0,0-1.16-.3,2.33,2.33,0,0,0-1.3.38,2.2,2.2,0,0,0-.86,1.06l-2.12-.48a3.41,3.41,0,0,1,.87-1.52,4.33,4.33,0,0,1,1.52-1,5.06,5.06,0,0,1,1.93-.36,4.91,4.91,0,0,1,1.79.32,4,4,0,0,1,1.39.9,4.34,4.34,0,0,1,.9,1.38,4.82,4.82,0,0,1,.32,1.78V133h-2.1l-.08-1.38a3.09,3.09,0,0,1-1.26,1.22A4,4,0,0,1,433.77,133.3Zm-1.38-3.38a1.36,1.36,0,0,0,.24.79,1.6,1.6,0,0,0,.67.55,2.39,2.39,0,0,0,1,.2,2.74,2.74,0,0,0,1.32-.32,2.48,2.48,0,0,0,.92-.87,2.39,2.39,0,0,0,.34-1.25v-.24a7,7,0,0,0-1.07-.35,4.78,4.78,0,0,0-1.13-.13,2.87,2.87,0,0,0-1.67.44A1.37,1.37,0,0,0,432.39,129.92Z"/><path class="cls-3" d="M444.63,133l-4-10.46h2.52l2.68,8.06,2.7-8.06H451L447,133Z"/><path class="cls-3" d="M457.31,133.3a5.43,5.43,0,0,1-2.13-.41,5.07,5.07,0,0,1-1.69-1.15,5.13,5.13,0,0,1-1.11-1.75,6.14,6.14,0,0,1-.39-2.23,6,6,0,0,1,.39-2.18,5.48,5.48,0,0,1,1.08-1.75,4.91,4.91,0,0,1,3.67-1.59,5.07,5.07,0,0,1,2,.39,4.72,4.72,0,0,1,1.58,1.11,5.08,5.08,0,0,1,1,1.71,6.37,6.37,0,0,1,.36,2.19v.68h-7.74a3.91,3.91,0,0,0,.49,1.59,2.7,2.7,0,0,0,1,1,2.8,2.8,0,0,0,1.44.36,2.89,2.89,0,0,0,2.56-1.46l2,.78a4.08,4.08,0,0,1-1.05,1.43,4.74,4.74,0,0,1-1.6.93A5.88,5.88,0,0,1,457.31,133.3Zm-.18-9.2a2.45,2.45,0,0,0-1.25.32,2.66,2.66,0,0,0-.93.9,3.48,3.48,0,0,0-.52,1.36h5.28a4,4,0,0,0-.46-1.36,2.48,2.48,0,0,0-.89-.9A2.45,2.45,0,0,0,457.13,124.1Z"/><path class="cls-3" d="M468.89,137V122.54H471l.1,1.68a4,4,0,0,1,1.48-1.45,4.08,4.08,0,0,1,2.06-.53,4.5,4.5,0,0,1,1.93.42,4.89,4.89,0,0,1,1.55,1.16,5.39,5.39,0,0,1,1,1.74,6.52,6.52,0,0,1,0,4.36,5.76,5.76,0,0,1-1.06,1.78,4.92,4.92,0,0,1-1.59,1.18,4.68,4.68,0,0,1-2,.42,4.12,4.12,0,0,1-1.9-.44,3.77,3.77,0,0,1-1.42-1.24V137Zm5.26-5.74a2.75,2.75,0,0,0,1.54-.45,3.13,3.13,0,0,0,1.07-1.23,3.92,3.92,0,0,0,.39-1.78,3.85,3.85,0,0,0-.39-1.77,3.17,3.17,0,0,0-1.07-1.22,2.75,2.75,0,0,0-1.54-.45,2.7,2.7,0,0,0-1.54.45,3.09,3.09,0,0,0-1.07,1.22,3.85,3.85,0,0,0-.39,1.77,3.92,3.92,0,0,0,.39,1.78,3.05,3.05,0,0,0,1.07,1.23A2.7,2.7,0,0,0,474.15,131.22Z"/><path class="cls-3" d="M486.77,133.3a5.43,5.43,0,0,1-2.13-.41,5,5,0,0,1-1.69-1.15,5.15,5.15,0,0,1-1.12-1.75,6.36,6.36,0,0,1-.38-2.23,6.16,6.16,0,0,1,.38-2.18,5.66,5.66,0,0,1,1.08-1.75,4.91,4.91,0,0,1,3.67-1.59,5.09,5.09,0,0,1,2,.39,4.58,4.58,0,0,1,1.57,1.11,4.92,4.92,0,0,1,1,1.71,6.14,6.14,0,0,1,.37,2.19v.68h-7.74a3.91,3.91,0,0,0,.49,1.59,2.7,2.7,0,0,0,1,1,2.8,2.8,0,0,0,1.44.36,2.89,2.89,0,0,0,2.56-1.46l2,.78a4.11,4.11,0,0,1-1.06,1.43,4.69,4.69,0,0,1-1.59.93A5.88,5.88,0,0,1,486.77,133.3Zm-.19-9.2a2.5,2.5,0,0,0-1.25.32,2.72,2.72,0,0,0-.92.9,3.48,3.48,0,0,0-.52,1.36h5.27a3.77,3.77,0,0,0-.46-1.36,2.38,2.38,0,0,0-.88-.9A2.46,2.46,0,0,0,486.58,124.1Z"/><path class="cls-3" d="M497,133.3a4.26,4.26,0,0,1-1.46-.24,3.57,3.57,0,0,1-1.17-.68,3.09,3.09,0,0,1-.79-1,3.18,3.18,0,0,1-.27-1.32,3,3,0,0,1,.52-1.75,3.55,3.55,0,0,1,1.5-1.17,5.49,5.49,0,0,1,2.24-.42,6.55,6.55,0,0,1,1.34.13,6.8,6.8,0,0,1,1.21.37v-.66a2.79,2.79,0,0,0-.25-1.23,2,2,0,0,0-.75-.83,2.11,2.11,0,0,0-1.16-.3,2.38,2.38,0,0,0-1.3.38,2.24,2.24,0,0,0-.85,1.06l-2.12-.48a3.23,3.23,0,0,1,.87-1.52,4.33,4.33,0,0,1,1.52-1,5,5,0,0,1,1.92-.36,4.87,4.87,0,0,1,1.79.32,4,4,0,0,1,1.4.9,4.15,4.15,0,0,1,.89,1.38,4.63,4.63,0,0,1,.33,1.78V133h-2.1l-.08-1.38a3.06,3.06,0,0,1-1.27,1.22A4,4,0,0,1,497,133.3Zm-1.38-3.38a1.3,1.3,0,0,0,.25.79,1.6,1.6,0,0,0,.67.55,2.38,2.38,0,0,0,1,.2,2.75,2.75,0,0,0,1.33-.32,2.48,2.48,0,0,0,.92-.87,2.38,2.38,0,0,0,.33-1.25v-.24a6.58,6.58,0,0,0-1.06-.35,4.8,4.8,0,0,0-1.14-.13,2.89,2.89,0,0,0-1.67.44A1.37,1.37,0,0,0,495.62,129.92Z"/><path class="cls-3" d="M509.88,133.3a5.1,5.1,0,0,1-2.05-.41,5,5,0,0,1-1.65-1.14,5.48,5.48,0,0,1-1.09-1.73,6.2,6.2,0,0,1,0-4.38,5.65,5.65,0,0,1,1.09-1.78,5.06,5.06,0,0,1,1.66-1.19,4.87,4.87,0,0,1,2.06-.43,5,5,0,0,1,2,.39,4.57,4.57,0,0,1,1.54,1.1,4,4,0,0,1,.93,1.67l-2.18.52a2.67,2.67,0,0,0-1-1.18,2.45,2.45,0,0,0-2.8,0,3.16,3.16,0,0,0-1,1.25,4.27,4.27,0,0,0-.36,1.79,4.08,4.08,0,0,0,.35,1.75,3,3,0,0,0,1,1.21,2.55,2.55,0,0,0,1.47.44,2.7,2.7,0,0,0,1.46-.41,2.43,2.43,0,0,0,1-1.17l2.16.5a4,4,0,0,1-1,1.67,4.9,4.9,0,0,1-1.62,1.1A5.24,5.24,0,0,1,509.88,133.3Z"/><path class="cls-3" d="M521.45,133.3a5.43,5.43,0,0,1-2.13-.41,5.11,5.11,0,0,1-1.7-1.15,5.28,5.28,0,0,1-1.11-1.75,6.14,6.14,0,0,1-.39-2.23,6,6,0,0,1,.39-2.18,5.66,5.66,0,0,1,1.08-1.75,4.91,4.91,0,0,1,3.67-1.59,5.09,5.09,0,0,1,2,.39,4.58,4.58,0,0,1,1.57,1.11,4.92,4.92,0,0,1,1,1.71,6.37,6.37,0,0,1,.36,2.19v.68H518.5a4.24,4.24,0,0,0,.49,1.59,2.78,2.78,0,0,0,1,1,3,3,0,0,0,4-1.1l2,.78a4.11,4.11,0,0,1-1.06,1.43,4.64,4.64,0,0,1-1.6.93A5.82,5.82,0,0,1,521.45,133.3Zm-.19-9.2a2.5,2.5,0,0,0-1.25.32,2.84,2.84,0,0,0-.93.9,3.63,3.63,0,0,0-.51,1.36h5.27a3.77,3.77,0,0,0-.46-1.36,2.33,2.33,0,0,0-.89-.9A2.4,2.4,0,0,0,521.26,124.1Z"/><path class="cls-3" d="M537.88,133.3a5.35,5.35,0,0,1-2.1-.41,5,5,0,0,1-1.7-1.16A5.45,5.45,0,0,1,533,130a6.07,6.07,0,0,1-.4-2.21,6,6,0,0,1,.4-2.19,5.48,5.48,0,0,1,1.13-1.76,5.17,5.17,0,0,1,1.72-1.16,5.64,5.64,0,0,1,2.15-.41,5.49,5.49,0,0,1,2.12.41,4.91,4.91,0,0,1,1.68,1.16,5.25,5.25,0,0,1,1.12,1.75,6.13,6.13,0,0,1,0,4.41,5.16,5.16,0,0,1-1.13,1.76,4.94,4.94,0,0,1-1.71,1.16A5.69,5.69,0,0,1,537.88,133.3Zm0-2.08a2.7,2.7,0,0,0,1.54-.45,3.08,3.08,0,0,0,1.08-1.23,4,4,0,0,0,.38-1.78,4,4,0,0,0-.38-1.77,3.12,3.12,0,0,0-1.08-1.22,2.7,2.7,0,0,0-1.54-.45,2.75,2.75,0,0,0-1.54.45,3.26,3.26,0,0,0-1.07,1.22,3.85,3.85,0,0,0-.39,1.77,3.92,3.92,0,0,0,.39,1.78,3.21,3.21,0,0,0,1.07,1.23A2.75,2.75,0,0,0,537.92,131.22Z"/><path class="cls-3" d="M546.24,133v-8.6H544.4v-1.86h1.84v-.74a4.14,4.14,0,0,1,.48-2,3.52,3.52,0,0,1,1.32-1.36,3.71,3.71,0,0,1,1.92-.49,4,4,0,0,1,1.13.15,4.21,4.21,0,0,1,.91.37l-.52,1.76a2.9,2.9,0,0,0-.59-.23,2.43,2.43,0,0,0-.65-.09,1.55,1.55,0,0,0-1.28.53,2.38,2.38,0,0,0-.42,1.51v.62h3v1.86h-3V133Z"/><path class="cls-3" d="M558.06,133V122.54h2.1l.08,1.4a3.48,3.48,0,0,1,1.26-1.24,3.57,3.57,0,0,1,1.82-.46,3.42,3.42,0,0,1,1.94.55,3.62,3.62,0,0,1,1.3,1.51,3.56,3.56,0,0,1,.81-1.08,3.62,3.62,0,0,1,1.2-.72,4.28,4.28,0,0,1,1.49-.26,3.62,3.62,0,0,1,2,.55,3.57,3.57,0,0,1,1.33,1.56,5.57,5.57,0,0,1,.47,2.41V133h-2.3v-6a3.09,3.09,0,0,0-.56-2,1.84,1.84,0,0,0-1.54-.7,2.27,2.27,0,0,0-1.21.33,2.41,2.41,0,0,0-.84.92,2.9,2.9,0,0,0-.31,1.33V133h-2.3v-6a3.09,3.09,0,0,0-.56-2,1.84,1.84,0,0,0-1.54-.7,2.27,2.27,0,0,0-1.21.33,2.41,2.41,0,0,0-.84.92,2.9,2.9,0,0,0-.31,1.33V133Z"/><path class="cls-3" d="M579.18,119.62a1.32,1.32,0,0,1-.19.7,1.39,1.39,0,0,1-.51.51,1.29,1.29,0,0,1-.7.19,1.34,1.34,0,0,1-.7-.19,1.55,1.55,0,0,1-.51-.51,1.38,1.38,0,0,1,0-1.4,1.55,1.55,0,0,1,.51-.51,1.34,1.34,0,0,1,.7-.19,1.29,1.29,0,0,1,.7.19,1.39,1.39,0,0,1,.51.51A1.32,1.32,0,0,1,579.18,119.62ZM576.64,133V122.54h2.3V133Z"/><path class="cls-3" d="M581.7,133V122.54h2.1l.08,1.44a3.42,3.42,0,0,1,1.29-1.27,3.86,3.86,0,0,1,1.91-.47,3.72,3.72,0,0,1,2,.56,3.68,3.68,0,0,1,1.35,1.58,5.59,5.59,0,0,1,.48,2.4V133h-2.3v-6a3.15,3.15,0,0,0-.57-2,1.91,1.91,0,0,0-1.59-.72,2.43,2.43,0,0,0-2.18,1.26,2.77,2.77,0,0,0-.32,1.34V133Z"/><path class="cls-3" d="M598.14,133.3a4.5,4.5,0,0,1-1.93-.42,4.89,4.89,0,0,1-1.55-1.16,5.39,5.39,0,0,1-1-1.74,6.52,6.52,0,0,1,0-4.36,5.76,5.76,0,0,1,1.06-1.78,4.92,4.92,0,0,1,1.59-1.18,4.68,4.68,0,0,1,2-.42,4.12,4.12,0,0,1,1.9.44,3.77,3.77,0,0,1,1.42,1.24v-5.8h2.3V133h-2.1l-.1-1.68a4,4,0,0,1-1.48,1.45A4.08,4.08,0,0,1,598.14,133.3Zm.48-2.08a2.7,2.7,0,0,0,1.54-.45,3.05,3.05,0,0,0,1.07-1.23,4.21,4.21,0,0,0,0-3.54,3.05,3.05,0,0,0-1.07-1.23,2.7,2.7,0,0,0-1.54-.45,2.75,2.75,0,0,0-1.54.45A3.13,3.13,0,0,0,596,126a4.21,4.21,0,0,0,0,3.54,3.13,3.13,0,0,0,1.07,1.23A2.75,2.75,0,0,0,598.62,131.22Z"/><path class="cls-3" d="M607.94,133.08a1.51,1.51,0,0,1-.76-.2,1.61,1.61,0,0,1-.55-.55,1.52,1.52,0,0,1,0-1.54,1.61,1.61,0,0,1,.55-.55,1.51,1.51,0,0,1,.76-.2,1.49,1.49,0,0,1,.76.2,1.53,1.53,0,0,1,.55.55,1.52,1.52,0,0,1,0,1.54,1.53,1.53,0,0,1-.55.55A1.49,1.49,0,0,1,607.94,133.08Z"/></g></g><g id="Security" class="cls-2"><g class="cls-2"><path class="cls-3" d="M320.24,68.53a10.6,10.6,0,0,1-4.11-.79,9,9,0,0,1-3.19-2.24,7.92,7.92,0,0,1-1.8-3.49L316,61a4.22,4.22,0,0,0,1.59,2.24,5,5,0,0,0,4.69.4,3.3,3.3,0,0,0,1.33-1.1,2.88,2.88,0,0,0,.47-1.62,2.32,2.32,0,0,0-.87-1.87,7.22,7.22,0,0,0-2.84-1.17l-1.12-.24a11,11,0,0,1-5.67-2.72,6.32,6.32,0,0,1-1.82-4.56,7,7,0,0,1,.67-3.08,7.43,7.43,0,0,1,1.83-2.44A8.94,8.94,0,0,1,317,43.2a9.9,9.9,0,0,1,3.4-.57,9.69,9.69,0,0,1,3.85.76,8.21,8.21,0,0,1,3,2.21,7.66,7.66,0,0,1,1.64,3.4l-4.79,1a3.87,3.87,0,0,0-3.85-2.91,3.76,3.76,0,0,0-1.7.37,2.94,2.94,0,0,0-1.19,1A2.55,2.55,0,0,0,317,50a2.14,2.14,0,0,0,.95,1.88,8.3,8.3,0,0,0,2.8,1.07l1.12.24a11.43,11.43,0,0,1,5.65,2.66,6.29,6.29,0,0,1,1.84,4.65,7.56,7.56,0,0,1-.69,3.26,7.82,7.82,0,0,1-1.9,2.56A8.78,8.78,0,0,1,323.85,68,11,11,0,0,1,320.24,68.53Z"/><path class="cls-3" d="M342.12,68.53a9.78,9.78,0,0,1-3.8-.72,8.76,8.76,0,0,1-3-2,9.29,9.29,0,0,1-2-3.12,10.7,10.7,0,0,1-.7-3.94,10.36,10.36,0,0,1,.7-3.84,9.21,9.21,0,0,1,1.94-3.1,8.82,8.82,0,0,1,2.92-2.05,9,9,0,0,1,3.64-.73,9.34,9.34,0,0,1,3.69.7,8.1,8.1,0,0,1,2.86,2,9,9,0,0,1,1.83,3.08,11.44,11.44,0,0,1,.65,4V60H337.64a5.58,5.58,0,0,0,1.5,3.23,4.08,4.08,0,0,0,3,1.17,4.44,4.44,0,0,0,2.29-.59,4.72,4.72,0,0,0,1.7-1.71l4.38,1.4a7.08,7.08,0,0,1-1.89,2.69,8.82,8.82,0,0,1-2.94,1.73A10.31,10.31,0,0,1,342.12,68.53Zm-.25-15.75a3.77,3.77,0,0,0-2.71,1,5.11,5.11,0,0,0-1.45,2.87h8.15a4.9,4.9,0,0,0-1.35-2.87A3.61,3.61,0,0,0,341.87,52.78Z"/><path class="cls-3" d="M363.22,68.53a9.34,9.34,0,0,1-3.69-.72,8.84,8.84,0,0,1-2.94-2,9.28,9.28,0,0,1-1.94-3.07,10.23,10.23,0,0,1-.7-3.83,10.6,10.6,0,0,1,.71-3.9,9.9,9.9,0,0,1,2-3.15,9.07,9.07,0,0,1,6.7-2.85,8.94,8.94,0,0,1,3.68.75,8,8,0,0,1,2.85,2.12,7.77,7.77,0,0,1,1.63,3.18l-4.66.91a4.46,4.46,0,0,0-1.47-1.87,3.51,3.51,0,0,0-2.13-.68,3.68,3.68,0,0,0-2.23.7,4.67,4.67,0,0,0-1.52,1.94,6.73,6.73,0,0,0-.56,2.78,6.52,6.52,0,0,0,.54,2.73A4.5,4.5,0,0,0,361,63.43a3.79,3.79,0,0,0,2.24.69,4.08,4.08,0,0,0,2.27-.67A3.91,3.91,0,0,0,367,61.56l4.65.91a7.21,7.21,0,0,1-1.7,3.22,8.35,8.35,0,0,1-3,2.1A9.69,9.69,0,0,1,363.22,68.53Z"/><path class="cls-3" d="M383.49,68.53a8.77,8.77,0,0,1-4.4-1.07,7.36,7.36,0,0,1-2.9-3,9.9,9.9,0,0,1-1-4.67V49.52h4.9V59.85A4.75,4.75,0,0,0,381,63a3.43,3.43,0,0,0,5.11,0,4.76,4.76,0,0,0,.95-3.13V49.52H392V59.74a10.32,10.32,0,0,1-.6,3.61,7.94,7.94,0,0,1-1.71,2.76A7.72,7.72,0,0,1,387,67.89,9,9,0,0,1,383.49,68.53Z"/><path class="cls-3" d="M396.4,68V49.52h4.52l.17,2.8A5.51,5.51,0,0,1,403,50.06a5,5,0,0,1,2.8-.78,5.4,5.4,0,0,1,1,.08,5.9,5.9,0,0,1,.88.23l-.53,4.83a3.64,3.64,0,0,0-.79-.19,5.56,5.56,0,0,0-.82,0,3.9,3.9,0,0,0-3.11,1.24,5.14,5.14,0,0,0-1.09,3.51V68Z"/><path class="cls-3" d="M416.07,44.51A2.76,2.76,0,0,1,415.7,46a2.69,2.69,0,0,1-1,1,2.91,2.91,0,0,1-2.84,0,2.69,2.69,0,0,1-1-1,3,3,0,0,1,0-2.87,2.69,2.69,0,0,1,1-1,3,3,0,0,1,2.84,0,2.69,2.69,0,0,1,1,1A2.75,2.75,0,0,1,416.07,44.51ZM410.82,68V49.52h4.9V68Z"/><path class="cls-3" d="M428.18,68.53a6.86,6.86,0,0,1-3.31-.76,5.15,5.15,0,0,1-2.13-2.18,7.51,7.51,0,0,1-.75-3.5V53.47h-3.15V49.52H422v-6.3h4.9v6.3h5v3.95h-5v8a3.23,3.23,0,0,0,.56,2,2,2,0,0,0,1.71.72,5.05,5.05,0,0,0,1.28-.18,9.63,9.63,0,0,0,1.31-.45l.88,3.67a8.67,8.67,0,0,1-2,.89A8.58,8.58,0,0,1,428.18,68.53Z"/><path class="cls-3" d="M439.1,75.14a7.77,7.77,0,0,1-1.78-.19,5.7,5.7,0,0,1-1.58-.61l.95-3.85a4.89,4.89,0,0,0,.91.29,4.41,4.41,0,0,0,1,.13,3,3,0,0,0,1.76-.55,3.85,3.85,0,0,0,1.24-1.73l.32-.8-7.45-18.31h5.35l4.38,13.09,3.95-13.09h5.18l-7.6,20.23a9.23,9.23,0,0,1-2.67,4.1A6.16,6.16,0,0,1,439.1,75.14Z"/></g></g></g></svg>