<svg id="Layer_1" data-name="Layer 1" xmlns="http://www.w3.org/2000/svg" xmlns:xlink="http://www.w3.org/1999/xlink" viewBox="0 0 763 173"><defs><style>.cls-1{fill:url(#linear-gradient);}.cls-2{isolation:isolate;}.cls-3{fill:#f7f5f5;}</style><linearGradient id="linear-gradient" x1="-1598.3" y1="4696.18" x2="-1597.31" y2="4695.26" gradientTransform="matrix(763, 0, 0, -173, 1219517.54, 812448.43)" gradientUnits="userSpaceOnUse"><stop offset="0" stop-color="#7ba9de"/><stop offset="1" stop-color="#519aed"/></linearGradient></defs><title>pp2</title><g id="Group_347" data-name="Group 347"><rect id="Rectangle_103-2" data-name="Rectangle 103-2" class="cls-1" width="763" height="173"/><g id="Admins_need_a_way_to_maintain_full_control_over_files_in_their_network_So_that_they_can_ensure_an_efficient_workflow_from_start_to_finish." data-name="Admins need a way to maintain full control over files in their network So that they can ensure an efficient workflow from start to finish." class="cls-2"><g class="cls-2"><path class="cls-3" d="M52.33,108,58,93.8h2.6L66.27,108H63.75l-1.34-3.52H56.09L54.75,108Zm4.56-5.6h4.72l-2.36-6.14Z"/><path class="cls-3" d="M72.27,108.3a4.46,4.46,0,0,1-1.93-.42,4.89,4.89,0,0,1-1.55-1.16,5.39,5.39,0,0,1-1-1.74,6.13,6.13,0,0,1-.37-2.16,6.31,6.31,0,0,1,.38-2.2,5.57,5.57,0,0,1,1.06-1.78,4.72,4.72,0,0,1,1.59-1.18,4.64,4.64,0,0,1,2-.42,4.15,4.15,0,0,1,1.9.44,3.85,3.85,0,0,1,1.42,1.24v-5.8H78V108h-2.1l-.1-1.68a4.06,4.06,0,0,1-3.54,2Zm.48-2.08a2.73,2.73,0,0,0,1.54-.45,3.13,3.13,0,0,0,1.07-1.23,4.21,4.21,0,0,0,0-3.54,3.13,3.13,0,0,0-1.07-1.23,2.86,2.86,0,0,0-3.08,0A3.13,3.13,0,0,0,70.14,101a4.21,4.21,0,0,0,0,3.54,3.13,3.13,0,0,0,1.07,1.23A2.73,2.73,0,0,0,72.75,106.22Z"/><path class="cls-3" d="M80.77,108V97.54h2.1l.08,1.4a3.48,3.48,0,0,1,1.26-1.24A3.54,3.54,0,0,1,86,97.24a3.44,3.44,0,0,1,1.94.55,3.69,3.69,0,0,1,1.3,1.51,3.56,3.56,0,0,1,.81-1.08,3.62,3.62,0,0,1,1.2-.72,4.28,4.28,0,0,1,1.49-.26,3.51,3.51,0,0,1,3.35,2.11,5.72,5.72,0,0,1,.47,2.41V108h-2.3v-6a3.15,3.15,0,0,0-.56-2,1.86,1.86,0,0,0-1.54-.7,2.24,2.24,0,0,0-1.21.33,2.41,2.41,0,0,0-.84.92,2.78,2.78,0,0,0-.31,1.33V108h-2.3v-6a3.15,3.15,0,0,0-.56-2,1.86,1.86,0,0,0-1.54-.7,2.24,2.24,0,0,0-1.21.33,2.41,2.41,0,0,0-.84.92,2.78,2.78,0,0,0-.31,1.33V108Z"/><path class="cls-3" d="M101.89,94.62a1.32,1.32,0,0,1-.19.7,1.55,1.55,0,0,1-.51.51,1.38,1.38,0,0,1-1.4,0,1.55,1.55,0,0,1-.51-.51,1.38,1.38,0,0,1,0-1.4,1.55,1.55,0,0,1,.51-.51,1.38,1.38,0,0,1,1.4,0,1.55,1.55,0,0,1,.51.51A1.32,1.32,0,0,1,101.89,94.62ZM99.35,108V97.54h2.3V108Z"/><path class="cls-3" d="M104.41,108V97.54h2.1l.08,1.44a3.42,3.42,0,0,1,1.29-1.27,3.83,3.83,0,0,1,1.91-.47,3.72,3.72,0,0,1,2,.56,3.68,3.68,0,0,1,1.35,1.58,5.59,5.59,0,0,1,.48,2.4V108h-2.3v-6a3.15,3.15,0,0,0-.57-2,1.91,1.91,0,0,0-1.59-.72,2.44,2.44,0,0,0-1.29.34,2.38,2.38,0,0,0-.89.92,2.77,2.77,0,0,0-.32,1.34V108Z"/><path class="cls-3" d="M120,108.3a5.08,5.08,0,0,1-1.89-.34,4.19,4.19,0,0,1-1.48-1,3.56,3.56,0,0,1-.87-1.49l2.08-.54a2.11,2.11,0,0,0,.84,1.06,2.42,2.42,0,0,0,1.34.38,2.07,2.07,0,0,0,1.28-.37,1.14,1.14,0,0,0,.5-1,1.06,1.06,0,0,0-.4-.84,2.79,2.79,0,0,0-1.3-.5l-.66-.12a5,5,0,0,1-2.53-1.08,2.59,2.59,0,0,1-.85-2,3,3,0,0,1,.5-1.72A3.36,3.36,0,0,1,118,97.66a5,5,0,0,1,3.82-.08,3.81,3.81,0,0,1,1.38,1A3.65,3.65,0,0,1,124,100l-2.06.5a2.14,2.14,0,0,0-.75-1,2,2,0,0,0-1.19-.37,1.88,1.88,0,0,0-1.16.35,1.06,1.06,0,0,0-.46.89.91.91,0,0,0,.41.76,3.55,3.55,0,0,0,1.39.48l.66.12a4.61,4.61,0,0,1,2.46,1.1,2.73,2.73,0,0,1,.86,2,3.16,3.16,0,0,1-.3,1.37,3.23,3.23,0,0,1-.85,1.1,4,4,0,0,1-1.3.72A5.1,5.1,0,0,1,120,108.3Z"/><path class="cls-3" d="M130.83,108V97.54h2.1L133,99a3.42,3.42,0,0,1,1.29-1.27,3.83,3.83,0,0,1,1.91-.47,3.72,3.72,0,0,1,2,.56,3.68,3.68,0,0,1,1.35,1.58,5.59,5.59,0,0,1,.48,2.4V108h-2.3v-6a3.15,3.15,0,0,0-.57-2,1.91,1.91,0,0,0-1.59-.72,2.44,2.44,0,0,0-1.29.34,2.38,2.38,0,0,0-.89.92,2.77,2.77,0,0,0-.32,1.34V108Z"/><path class="cls-3" d="M147.71,108.3a5.5,5.5,0,0,1-2.13-.41,5.07,5.07,0,0,1-1.69-1.15,5.13,5.13,0,0,1-1.11-1.75,6.14,6.14,0,0,1-.39-2.23,6,6,0,0,1,.39-2.18,5.48,5.48,0,0,1,1.08-1.75,4.88,4.88,0,0,1,1.63-1.17,4.93,4.93,0,0,1,2-.42,5.07,5.07,0,0,1,2,.39,4.62,4.62,0,0,1,1.58,1.11,4.92,4.92,0,0,1,1,1.71,6.37,6.37,0,0,1,.36,2.19v.68h-7.74a3.91,3.91,0,0,0,.49,1.59,2.69,2.69,0,0,0,2.45,1.39,2.88,2.88,0,0,0,2.56-1.46l2,.78a4.08,4.08,0,0,1-1,1.43,4.74,4.74,0,0,1-1.6.93A5.88,5.88,0,0,1,147.71,108.3Zm-.18-9.2a2.47,2.47,0,0,0-1.25.32,2.66,2.66,0,0,0-.93.9,3.48,3.48,0,0,0-.52,1.36h5.28a4,4,0,0,0-.46-1.36,2.48,2.48,0,0,0-.89-.9A2.45,2.45,0,0,0,147.53,99.1Z"/><path class="cls-3" d="M159.71,108.3a5.5,5.5,0,0,1-2.13-.41,5.07,5.07,0,0,1-1.69-1.15,5.13,5.13,0,0,1-1.11-1.75,6.14,6.14,0,0,1-.39-2.23,6,6,0,0,1,.39-2.18,5.48,5.48,0,0,1,1.08-1.75,4.88,4.88,0,0,1,1.63-1.17,4.93,4.93,0,0,1,2-.42,5.07,5.07,0,0,1,2,.39,4.62,4.62,0,0,1,1.58,1.11,4.92,4.92,0,0,1,1,1.71,6.37,6.37,0,0,1,.36,2.19v.68h-7.74a3.91,3.91,0,0,0,.49,1.59,2.69,2.69,0,0,0,2.45,1.39,2.88,2.88,0,0,0,2.56-1.46l2,.78a4.08,4.08,0,0,1-1,1.43,4.74,4.74,0,0,1-1.6.93A5.88,5.88,0,0,1,159.71,108.3Zm-.18-9.2a2.47,2.47,0,0,0-1.25.32,2.66,2.66,0,0,0-.93.9,3.48,3.48,0,0,0-.52,1.36h5.28a4,4,0,0,0-.46-1.36,2.48,2.48,0,0,0-.89-.9A2.45,2.45,0,0,0,159.53,99.1Z"/><path class="cls-3" d="M171.27,108.3a4.46,4.46,0,0,1-1.93-.42,4.78,4.78,0,0,1-1.55-1.16,5.21,5.21,0,0,1-1-1.74,6.52,6.52,0,0,1,0-4.36,5.4,5.4,0,0,1,1.06-1.78,4.72,4.72,0,0,1,1.59-1.18,4.61,4.61,0,0,1,2-.42,4.18,4.18,0,0,1,1.9.44,3.93,3.93,0,0,1,1.42,1.24v-5.8H177V108h-2.1l-.1-1.68a4.19,4.19,0,0,1-1.48,1.45A4.1,4.1,0,0,1,171.27,108.3Zm.48-2.08a2.75,2.75,0,0,0,1.54-.45,3.13,3.13,0,0,0,1.07-1.23,4.21,4.21,0,0,0,0-3.54,3.13,3.13,0,0,0-1.07-1.23,2.75,2.75,0,0,0-1.54-.45,2.7,2.7,0,0,0-1.54.45,3.05,3.05,0,0,0-1.07,1.23,4.21,4.21,0,0,0,0,3.54,3.05,3.05,0,0,0,1.07,1.23A2.7,2.7,0,0,0,171.75,106.22Z"/><path class="cls-3" d="M187.51,108.3a4.28,4.28,0,0,1-1.47-.24,3.57,3.57,0,0,1-1.17-.68,2.94,2.94,0,0,1-.78-1,3,3,0,0,1-.28-1.32,2.9,2.9,0,0,1,.53-1.75,3.46,3.46,0,0,1,1.49-1.17,5.53,5.53,0,0,1,2.24-.42,6.55,6.55,0,0,1,1.34.13,7.17,7.17,0,0,1,1.22.37v-.66a2.79,2.79,0,0,0-.26-1.23,2.06,2.06,0,0,0-.74-.83,2.15,2.15,0,0,0-1.16-.3,2.33,2.33,0,0,0-1.3.38,2.2,2.2,0,0,0-.86,1.06l-2.12-.48a3.41,3.41,0,0,1,.87-1.52,4.33,4.33,0,0,1,1.52-1,5.06,5.06,0,0,1,1.93-.36,4.91,4.91,0,0,1,1.79.32,4,4,0,0,1,1.39.9,4.34,4.34,0,0,1,.9,1.38,4.82,4.82,0,0,1,.32,1.78V108h-2.1l-.08-1.38a3.09,3.09,0,0,1-1.26,1.22A4,4,0,0,1,187.51,108.3Zm-1.38-3.38a1.36,1.36,0,0,0,.24.79,1.6,1.6,0,0,0,.67.55,2.39,2.39,0,0,0,1,.2,2.74,2.74,0,0,0,1.32-.32,2.48,2.48,0,0,0,.92-.87,2.39,2.39,0,0,0,.34-1.25v-.24a7,7,0,0,0-1.07-.35,4.78,4.78,0,0,0-1.13-.13,2.87,2.87,0,0,0-1.67.44A1.37,1.37,0,0,0,186.13,104.92Z"/><path class="cls-3" d="M202.73,108l-3.48-10.46h2.4l2.22,7.64,2.34-7.64h2.06l2.32,7.64,2.26-7.64h2.32L211.67,108h-2.16l-2.3-7.6-2.32,7.6Z"/><path class="cls-3" d="M219.85,108.3a4.28,4.28,0,0,1-1.47-.24,3.57,3.57,0,0,1-1.17-.68,2.94,2.94,0,0,1-.78-1,3,3,0,0,1-.28-1.32,2.9,2.9,0,0,1,.53-1.75,3.46,3.46,0,0,1,1.49-1.17,5.53,5.53,0,0,1,2.24-.42,6.55,6.55,0,0,1,1.34.13,7.17,7.17,0,0,1,1.22.37v-.66a2.79,2.79,0,0,0-.26-1.23,2.06,2.06,0,0,0-.74-.83,2.15,2.15,0,0,0-1.16-.3,2.33,2.33,0,0,0-1.3.38,2.2,2.2,0,0,0-.86,1.06l-2.12-.48a3.41,3.41,0,0,1,.87-1.52,4.33,4.33,0,0,1,1.52-1,5.06,5.06,0,0,1,1.93-.36,4.91,4.91,0,0,1,1.79.32,4,4,0,0,1,1.39.9,4.34,4.34,0,0,1,.9,1.38,4.82,4.82,0,0,1,.32,1.78V108h-2.1l-.08-1.38a3.09,3.09,0,0,1-1.26,1.22A4,4,0,0,1,219.85,108.3Zm-1.38-3.38a1.36,1.36,0,0,0,.24.79,1.6,1.6,0,0,0,.67.55,2.39,2.39,0,0,0,1,.2,2.74,2.74,0,0,0,1.32-.32,2.48,2.48,0,0,0,.92-.87A2.39,2.39,0,0,0,223,104v-.24a7,7,0,0,0-1.07-.35,4.78,4.78,0,0,0-1.13-.13,2.87,2.87,0,0,0-1.67.44A1.37,1.37,0,0,0,218.47,104.92Z"/><path class="cls-3" d="M229.07,112.16a3.84,3.84,0,0,1-.93-.1,3.1,3.1,0,0,1-.83-.32l.5-1.82a2.65,2.65,0,0,0,.5.17,2,2,0,0,0,.54.07,1.67,1.67,0,0,0,1.05-.34,2.48,2.48,0,0,0,.75-1.1l.32-.82-4.26-10.36h2.52l2.82,7.82,2.56-7.82h2.44l-4.44,11.72a5.18,5.18,0,0,1-1.45,2.2A3.22,3.22,0,0,1,229.07,112.16Z"/><path class="cls-3" d="M247.71,108.3a3.31,3.31,0,0,1-2.48-.91,3.57,3.57,0,0,1-.9-2.61V99.4h-1.84V97.54h1.84V94h2.3v3.54h3V99.4h-3v5.14a2,2,0,0,0,.35,1.29,1.21,1.21,0,0,0,1,.45,3.25,3.25,0,0,0,.78-.11,3.34,3.34,0,0,0,.78-.31l.52,1.74a4.24,4.24,0,0,1-1.07.51A4.32,4.32,0,0,1,247.71,108.3Z"/><path class="cls-3" d="M256.85,108.3a5.4,5.4,0,0,1-2.11-.41,5,5,0,0,1-1.69-1.16,5.29,5.29,0,0,1-1.12-1.76,5.87,5.87,0,0,1-.4-2.21,5.8,5.8,0,0,1,.4-2.19,5.16,5.16,0,0,1,1.13-1.76,5,5,0,0,1,1.72-1.16,5.6,5.6,0,0,1,2.15-.41,5.44,5.44,0,0,1,2.11.41,5.05,5.05,0,0,1,1.69,1.16,5.41,5.41,0,0,1,1.12,1.75,6.28,6.28,0,0,1,0,4.41,5.48,5.48,0,0,1-1.13,1.76,5.07,5.07,0,0,1-1.72,1.16A5.64,5.64,0,0,1,256.85,108.3Zm0-2.08a2.75,2.75,0,0,0,1.54-.45,3.13,3.13,0,0,0,1.07-1.23,3.92,3.92,0,0,0,.39-1.78,3.85,3.85,0,0,0-.39-1.77,3.17,3.17,0,0,0-1.07-1.22,2.75,2.75,0,0,0-1.54-.45,2.7,2.7,0,0,0-1.54.45,3.09,3.09,0,0,0-1.07,1.22,3.85,3.85,0,0,0-.39,1.77,3.92,3.92,0,0,0,.39,1.78,3.05,3.05,0,0,0,1.07,1.23A2.7,2.7,0,0,0,256.89,106.22Z"/><path class="cls-3" d="M269.09,108V97.54h2.1l.08,1.4a3.34,3.34,0,0,1,1.26-1.24,3.54,3.54,0,0,1,1.82-.46,3.44,3.44,0,0,1,1.94.55,3.69,3.69,0,0,1,1.3,1.51,3.56,3.56,0,0,1,.81-1.08,3.62,3.62,0,0,1,1.2-.72,4.24,4.24,0,0,1,1.49-.26,3.66,3.66,0,0,1,2,.55,3.71,3.71,0,0,1,1.33,1.56,5.72,5.72,0,0,1,.47,2.41V108h-2.3v-6a3.15,3.15,0,0,0-.56-2,1.87,1.87,0,0,0-1.54-.7,2.22,2.22,0,0,0-1.21.33,2.27,2.27,0,0,0-.84.92,2.78,2.78,0,0,0-.31,1.33V108h-2.3v-6a3.15,3.15,0,0,0-.56-2,1.87,1.87,0,0,0-1.54-.7,2.22,2.22,0,0,0-1.21.33,2.27,2.27,0,0,0-.84.92,2.78,2.78,0,0,0-.31,1.33V108Z"/><path class="cls-3" d="M290.87,108.3a4.28,4.28,0,0,1-1.47-.24,3.57,3.57,0,0,1-1.17-.68,2.94,2.94,0,0,1-.78-1,3,3,0,0,1-.28-1.32,2.9,2.9,0,0,1,.53-1.75,3.46,3.46,0,0,1,1.49-1.17,5.53,5.53,0,0,1,2.24-.42,6.55,6.55,0,0,1,1.34.13,7.17,7.17,0,0,1,1.22.37v-.66a2.79,2.79,0,0,0-.26-1.23,2.06,2.06,0,0,0-.74-.83,2.15,2.15,0,0,0-1.16-.3,2.33,2.33,0,0,0-1.3.38,2.2,2.2,0,0,0-.86,1.06l-2.12-.48a3.41,3.41,0,0,1,.87-1.52,4.33,4.33,0,0,1,1.52-1,5.06,5.06,0,0,1,1.93-.36,4.91,4.91,0,0,1,1.79.32,4,4,0,0,1,1.39.9,4.34,4.34,0,0,1,.9,1.38,4.82,4.82,0,0,1,.32,1.78V108h-2.1l-.08-1.38a3.09,3.09,0,0,1-1.26,1.22A4,4,0,0,1,290.87,108.3Zm-1.38-3.38a1.36,1.36,0,0,0,.24.79,1.6,1.6,0,0,0,.67.55,2.39,2.39,0,0,0,1,.2,2.74,2.74,0,0,0,1.32-.32,2.48,2.48,0,0,0,.92-.87A2.39,2.39,0,0,0,294,104v-.24a7,7,0,0,0-1.07-.35,4.78,4.78,0,0,0-1.13-.13,2.87,2.87,0,0,0-1.67.44A1.37,1.37,0,0,0,289.49,104.92Z"/><path class="cls-3" d="M301.57,94.62a1.41,1.41,0,0,1-.19.7,1.55,1.55,0,0,1-.51.51,1.34,1.34,0,0,1-.7.19,1.29,1.29,0,0,1-.7-.19,1.39,1.39,0,0,1-.51-.51,1.38,1.38,0,0,1,0-1.4,1.39,1.39,0,0,1,.51-.51,1.29,1.29,0,0,1,.7-.19,1.34,1.34,0,0,1,.7.19,1.55,1.55,0,0,1,.51.51A1.41,1.41,0,0,1,301.57,94.62ZM299,108V97.54h2.3V108Z"/><path class="cls-3" d="M304.09,108V97.54h2.1l.08,1.44a3.28,3.28,0,0,1,1.29-1.27,3.83,3.83,0,0,1,1.91-.47,3.75,3.75,0,0,1,2,.56,3.68,3.68,0,0,1,1.35,1.58,5.59,5.59,0,0,1,.48,2.4V108h-2.3v-6a3.15,3.15,0,0,0-.57-2,1.91,1.91,0,0,0-1.59-.72,2.44,2.44,0,0,0-1.29.34,2.38,2.38,0,0,0-.89.92,2.66,2.66,0,0,0-.32,1.34V108Z"/><path class="cls-3" d="M320.13,108.3a3.31,3.31,0,0,1-2.48-.91,3.57,3.57,0,0,1-.9-2.61V99.4h-1.84V97.54h1.84V94h2.3v3.54h3V99.4h-3v5.14a2,2,0,0,0,.35,1.29,1.21,1.21,0,0,0,1,.45,3.25,3.25,0,0,0,.78-.11,3.34,3.34,0,0,0,.78-.31l.52,1.74a4.24,4.24,0,0,1-1.07.51A4.32,4.32,0,0,1,320.13,108.3Z"/><path class="cls-3" d="M327.69,108.3a4.28,4.28,0,0,1-1.47-.24,3.57,3.57,0,0,1-1.17-.68,2.94,2.94,0,0,1-.78-1A3,3,0,0,1,324,105a2.9,2.9,0,0,1,.53-1.75A3.46,3.46,0,0,1,326,102.1a5.53,5.53,0,0,1,2.24-.42,6.55,6.55,0,0,1,1.34.13,7.17,7.17,0,0,1,1.22.37v-.66a2.79,2.79,0,0,0-.26-1.23,2.06,2.06,0,0,0-.74-.83,2.15,2.15,0,0,0-1.16-.3,2.33,2.33,0,0,0-1.3.38,2.2,2.2,0,0,0-.86,1.06l-2.12-.48a3.41,3.41,0,0,1,.87-1.52,4.33,4.33,0,0,1,1.52-1,5.06,5.06,0,0,1,1.93-.36,4.91,4.91,0,0,1,1.79.32,4,4,0,0,1,1.39.9,4.34,4.34,0,0,1,.9,1.38,4.82,4.82,0,0,1,.32,1.78V108H331l-.08-1.38a3.09,3.09,0,0,1-1.26,1.22A4,4,0,0,1,327.69,108.3Zm-1.38-3.38a1.36,1.36,0,0,0,.24.79,1.6,1.6,0,0,0,.67.55,2.39,2.39,0,0,0,1,.2,2.74,2.74,0,0,0,1.32-.32,2.48,2.48,0,0,0,.92-.87,2.39,2.39,0,0,0,.34-1.25v-.24a7,7,0,0,0-1.07-.35,4.78,4.78,0,0,0-1.13-.13,2.87,2.87,0,0,0-1.67.44A1.37,1.37,0,0,0,326.31,104.92Z"/><path class="cls-3" d="M338.39,94.62a1.41,1.41,0,0,1-.19.7,1.55,1.55,0,0,1-.51.51,1.34,1.34,0,0,1-.7.19,1.29,1.29,0,0,1-.7-.19,1.39,1.39,0,0,1-.51-.51,1.38,1.38,0,0,1,0-1.4,1.39,1.39,0,0,1,.51-.51,1.29,1.29,0,0,1,.7-.19,1.34,1.34,0,0,1,.7.19,1.55,1.55,0,0,1,.51.51A1.41,1.41,0,0,1,338.39,94.62ZM335.85,108V97.54h2.3V108Z"/><path class="cls-3" d="M340.91,108V97.54H343l.08,1.44a3.28,3.28,0,0,1,1.29-1.27,3.83,3.83,0,0,1,1.91-.47,3.75,3.75,0,0,1,2,.56,3.68,3.68,0,0,1,1.35,1.58,5.59,5.59,0,0,1,.48,2.4V108h-2.3v-6a3.15,3.15,0,0,0-.57-2,1.91,1.91,0,0,0-1.59-.72,2.44,2.44,0,0,0-1.29.34,2.38,2.38,0,0,0-.89.92,2.66,2.66,0,0,0-.32,1.34V108Z"/><path class="cls-3" d="M358.41,108V99.4h-1.84V97.54h1.84V96.8a4.14,4.14,0,0,1,.48-2,3.52,3.52,0,0,1,1.32-1.36,3.71,3.71,0,0,1,1.92-.49,4,4,0,0,1,1.13.15,4.43,4.43,0,0,1,.91.37l-.52,1.76a3.15,3.15,0,0,0-.59-.23,2.48,2.48,0,0,0-.65-.09,1.53,1.53,0,0,0-1.28.53,2.38,2.38,0,0,0-.42,1.51v.62h3V99.4h-3V108Z"/><path class="cls-3" d="M370.29,108.3a4.71,4.71,0,0,1-2.43-.6,4.07,4.07,0,0,1-1.6-1.71,5.64,5.64,0,0,1-.57-2.61V97.54H368v5.88a3.08,3.08,0,0,0,.62,2,2.3,2.3,0,0,0,3.4,0,3.13,3.13,0,0,0,.62-2V97.54h2.3v5.84a5.59,5.59,0,0,1-.57,2.59,4.14,4.14,0,0,1-1.62,1.72A4.71,4.71,0,0,1,370.29,108.3Z"/><path class="cls-3" d="M377.69,108V93.12H380V108Z"/><path class="cls-3" d="M382.75,108V93.12h2.3V108Z"/><path class="cls-3" d="M397.07,108.3a5.2,5.2,0,0,1-2.07-.41,4.9,4.9,0,0,1-1.63-1.14,5.14,5.14,0,0,1-1.09-1.73,6.12,6.12,0,0,1,0-4.38,5.65,5.65,0,0,1,1.09-1.78A5.06,5.06,0,0,1,395,97.67a5.18,5.18,0,0,1,4,0,4.42,4.42,0,0,1,1.55,1.1,4.12,4.12,0,0,1,.94,1.67l-2.19.52a2.72,2.72,0,0,0-.94-1.18,2.38,2.38,0,0,0-1.37-.42,2.41,2.41,0,0,0-1.45.46,3.12,3.12,0,0,0-1,1.25,4.36,4.36,0,0,0,0,3.54,2.9,2.9,0,0,0,1,1.21,2.5,2.5,0,0,0,1.47.44,2.78,2.78,0,0,0,1.46-.41,2.45,2.45,0,0,0,1-1.17l2.16.5a3.84,3.84,0,0,1-1,1.67,4.7,4.7,0,0,1-1.62,1.1A5.14,5.14,0,0,1,397.07,108.3Z"/><path class="cls-3" d="M408.62,108.3a5.39,5.39,0,0,1-2.1-.41,4.86,4.86,0,0,1-1.69-1.16A5.32,5.32,0,0,1,403.7,105a6.07,6.07,0,0,1-.4-2.21,6,6,0,0,1,.4-2.19,5.48,5.48,0,0,1,1.13-1.76,5.17,5.17,0,0,1,1.72-1.16,5.64,5.64,0,0,1,2.15-.41,5.49,5.49,0,0,1,2.12.41,4.91,4.91,0,0,1,1.68,1.16,5.1,5.1,0,0,1,1.12,1.75,6.13,6.13,0,0,1,0,4.41,5.16,5.16,0,0,1-1.13,1.76,4.94,4.94,0,0,1-1.71,1.16A5.65,5.65,0,0,1,408.62,108.3Zm0-2.08a2.7,2.7,0,0,0,1.54-.45,3.08,3.08,0,0,0,1.08-1.23,3.91,3.91,0,0,0,.38-1.78,3.84,3.84,0,0,0-.38-1.77,3.12,3.12,0,0,0-1.08-1.22,2.7,2.7,0,0,0-1.54-.45,2.75,2.75,0,0,0-1.54.45,3.26,3.26,0,0,0-1.07,1.22,3.85,3.85,0,0,0-.39,1.77,3.92,3.92,0,0,0,.39,1.78,3.21,3.21,0,0,0,1.07,1.23A2.75,2.75,0,0,0,408.66,106.22Z"/><path class="cls-3" d="M416.33,108V97.54h2.09L418.5,99a3.42,3.42,0,0,1,1.29-1.27,3.89,3.89,0,0,1,1.91-.47,3.6,3.6,0,0,1,3.41,2.14,5.74,5.74,0,0,1,.47,2.4V108h-2.29v-6a3.15,3.15,0,0,0-.58-2,1.9,1.9,0,0,0-1.59-.72,2.46,2.46,0,0,0-1.29.34,2.36,2.36,0,0,0-.88.92,2.66,2.66,0,0,0-.33,1.34V108Z"/><path class="cls-3" d="M432.37,108.3a3.35,3.35,0,0,1-2.49-.91,3.6,3.6,0,0,1-.89-2.61V99.4h-1.85V97.54H429V94h2.3v3.54h3V99.4h-3v5.14a2.09,2.09,0,0,0,.34,1.29,1.24,1.24,0,0,0,1,.45,3.33,3.33,0,0,0,.79-.11,3.27,3.27,0,0,0,.77-.31l.52,1.74a3.93,3.93,0,0,1-1.07.51A4.21,4.21,0,0,1,432.37,108.3Z"/><path class="cls-3" d="M436.84,108V97.54h2.1l.1,1.72a3.3,3.3,0,0,1,1.11-1.37,2.87,2.87,0,0,1,1.68-.49,3.56,3.56,0,0,1,.57,0,1.73,1.73,0,0,1,.5.14l-.26,2.24a2.21,2.21,0,0,0-.46-.11,3.87,3.87,0,0,0-.48,0,2.32,2.32,0,0,0-1.87.8,3.28,3.28,0,0,0-.69,2.22V108Z"/><path class="cls-3" d="M449.42,108.3a5.35,5.35,0,0,1-2.1-.41,5,5,0,0,1-1.7-1.16A5.45,5.45,0,0,1,444.5,105a6.07,6.07,0,0,1-.4-2.21,6,6,0,0,1,.4-2.19,5.48,5.48,0,0,1,1.13-1.76,5.17,5.17,0,0,1,1.72-1.16,5.64,5.64,0,0,1,2.15-.41,5.49,5.49,0,0,1,2.12.41,4.91,4.91,0,0,1,1.68,1.16,5.1,5.1,0,0,1,1.12,1.75,6.13,6.13,0,0,1,0,4.41,5.16,5.16,0,0,1-1.13,1.76,4.94,4.94,0,0,1-1.71,1.16A5.69,5.69,0,0,1,449.42,108.3Zm0-2.08a2.7,2.7,0,0,0,1.54-.45,3.08,3.08,0,0,0,1.08-1.23,4,4,0,0,0,.38-1.78,4,4,0,0,0-.38-1.77A3.12,3.12,0,0,0,451,99.77a2.7,2.7,0,0,0-1.54-.45,2.75,2.75,0,0,0-1.54.45,3.26,3.26,0,0,0-1.07,1.22,3.85,3.85,0,0,0-.39,1.77,3.92,3.92,0,0,0,.39,1.78,3.21,3.21,0,0,0,1.07,1.23A2.75,2.75,0,0,0,449.46,106.22Z"/><path class="cls-3" d="M457.12,108V93.12h2.3V108Z"/><path class="cls-3" d="M471.58,108.3a5.44,5.44,0,0,1-2.11-.41,5.05,5.05,0,0,1-1.69-1.16,5.45,5.45,0,0,1-1.12-1.76,6.07,6.07,0,0,1-.4-2.21,6,6,0,0,1,.4-2.19,5.48,5.48,0,0,1,1.13-1.76,5.07,5.07,0,0,1,1.72-1.16,5.64,5.64,0,0,1,2.15-.41,5.4,5.4,0,0,1,2.11.41,5,5,0,0,1,1.69,1.16,5.25,5.25,0,0,1,1.12,1.75,6.28,6.28,0,0,1,0,4.41,5.16,5.16,0,0,1-1.13,1.76,5,5,0,0,1-1.72,1.16A5.6,5.6,0,0,1,471.58,108.3Zm0-2.08a2.7,2.7,0,0,0,1.54-.45,3.05,3.05,0,0,0,1.07-1.23,3.92,3.92,0,0,0,.39-1.78,3.85,3.85,0,0,0-.39-1.77,3.09,3.09,0,0,0-1.07-1.22,2.7,2.7,0,0,0-1.54-.45,2.75,2.75,0,0,0-1.54.45A3.17,3.17,0,0,0,469,101a3.85,3.85,0,0,0-.39,1.77,3.92,3.92,0,0,0,.39,1.78,3.13,3.13,0,0,0,1.07,1.23A2.75,2.75,0,0,0,471.62,106.22Z"/><path class="cls-3" d="M482,108l-4-10.46h2.52l2.68,8.06,2.71-8.06h2.43l-4,10.46Z"/><path class="cls-3" d="M494.69,108.3a5.43,5.43,0,0,1-2.13-.41,5,5,0,0,1-1.69-1.15,5.15,5.15,0,0,1-1.12-1.75,6.14,6.14,0,0,1-.38-2.23,6,6,0,0,1,.38-2.18,5.66,5.66,0,0,1,1.08-1.75,4.91,4.91,0,0,1,3.67-1.59,5.09,5.09,0,0,1,2,.39,4.58,4.58,0,0,1,1.57,1.11,4.92,4.92,0,0,1,1,1.71,6.14,6.14,0,0,1,.37,2.19v.68h-7.75a4.08,4.08,0,0,0,.5,1.59,2.68,2.68,0,0,0,1,1,3,3,0,0,0,4-1.1l2,.78a4.11,4.11,0,0,1-1.06,1.43,4.69,4.69,0,0,1-1.59.93A5.88,5.88,0,0,1,494.69,108.3Zm-.19-9.2a2.5,2.5,0,0,0-1.25.32,2.72,2.72,0,0,0-.92.9,3.48,3.48,0,0,0-.52,1.36h5.27a3.77,3.77,0,0,0-.46-1.36,2.38,2.38,0,0,0-.88-.9A2.46,2.46,0,0,0,494.5,99.1Z"/><path class="cls-3" d="M501.73,108V97.54h2.1l.09,1.72A3.25,3.25,0,0,1,505,97.89a2.83,2.83,0,0,1,1.66-.49,3.73,3.73,0,0,1,.59,0,1.94,1.94,0,0,1,.5.14l-.26,2.24a2.37,2.37,0,0,0-.46-.11,4,4,0,0,0-.49,0,2.37,2.37,0,0,0-1.88.8,3.33,3.33,0,0,0-.67,2.22V108Z"/><path class="cls-3" d="M515.24,108V99.4H513.4V97.54h1.84V96.8a4.37,4.37,0,0,1,.45-2,3.35,3.35,0,0,1,3.07-1.85,3.63,3.63,0,0,1,1,.13,4,4,0,0,1,.83.33l-.52,1.76a2.63,2.63,0,0,0-.5-.18,2.2,2.2,0,0,0-.58-.08,1.25,1.25,0,0,0-1.1.53,2.67,2.67,0,0,0-.36,1.51v.62h6.76V108H522V99.4h-4.46V108Zm9.3-13.38a1.32,1.32,0,0,1-.19.7,1.44,1.44,0,0,1-.5.51,1.28,1.28,0,0,1-.71.19,1.33,1.33,0,0,1-.71-.19,1.62,1.62,0,0,1-.5-.51,1.38,1.38,0,0,1,0-1.4,1.62,1.62,0,0,1,.5-.51,1.33,1.33,0,0,1,.71-.19,1.28,1.28,0,0,1,.71.19,1.44,1.44,0,0,1,.5.51A1.32,1.32,0,0,1,524.54,94.62Z"/><path class="cls-3" d="M527.06,108V93.12h2.3V108Z"/><path class="cls-3" d="M537,108.3a5.5,5.5,0,0,1-2.13-.41,5.08,5.08,0,0,1-2.8-2.9,6.14,6.14,0,0,1-.39-2.23,6,6,0,0,1,.39-2.18,5.48,5.48,0,0,1,1.08-1.75,5.14,5.14,0,0,1,5.68-1.2,4.53,4.53,0,0,1,1.58,1.11,4.92,4.92,0,0,1,1,1.71,6.37,6.37,0,0,1,.36,2.19v.68H534a4.07,4.07,0,0,0,.49,1.59,2.78,2.78,0,0,0,1,1,3,3,0,0,0,4-1.1l2,.78a4.08,4.08,0,0,1-1,1.43,4.64,4.64,0,0,1-1.6.93A5.83,5.83,0,0,1,537,108.3Zm-.18-9.2a2.5,2.5,0,0,0-1.25.32,2.84,2.84,0,0,0-.93.9,3.82,3.82,0,0,0-.52,1.36h5.28a3.77,3.77,0,0,0-.46-1.36,2.33,2.33,0,0,0-.89-.9A2.4,2.4,0,0,0,536.8,99.1Z"/><path class="cls-3" d="M547.68,108.3a5.08,5.08,0,0,1-1.89-.34,4.19,4.19,0,0,1-1.48-1,3.79,3.79,0,0,1-.87-1.49l2.08-.54a2.22,2.22,0,0,0,.84,1.06,2.44,2.44,0,0,0,1.34.38A2.07,2.07,0,0,0,549,106a1.12,1.12,0,0,0,.5-1,1.06,1.06,0,0,0-.4-.84,2.75,2.75,0,0,0-1.3-.5l-.66-.12a5,5,0,0,1-2.53-1.08,2.62,2.62,0,0,1-.85-2,3,3,0,0,1,.5-1.72,3.49,3.49,0,0,1,1.38-1.16,4.65,4.65,0,0,1,2-.42,4.55,4.55,0,0,1,1.8.34,3.81,3.81,0,0,1,1.38,1,3.54,3.54,0,0,1,.8,1.46l-2.06.5a2.14,2.14,0,0,0-.75-1,1.94,1.94,0,0,0-1.19-.37,1.9,1.9,0,0,0-1.16.35,1.09,1.09,0,0,0-.46.89.91.91,0,0,0,.41.76,3.61,3.61,0,0,0,1.39.48l.66.12a4.61,4.61,0,0,1,2.46,1.1,2.69,2.69,0,0,1,.86,2,3.16,3.16,0,0,1-.3,1.37,3.23,3.23,0,0,1-.85,1.1,3.9,3.9,0,0,1-1.3.72A5.1,5.1,0,0,1,547.68,108.3Z"/><path class="cls-3" d="M561,94.62a1.32,1.32,0,0,1-.19.7,1.39,1.39,0,0,1-.51.51,1.29,1.29,0,0,1-.7.19,1.34,1.34,0,0,1-.7-.19,1.55,1.55,0,0,1-.51-.51,1.38,1.38,0,0,1,0-1.4,1.55,1.55,0,0,1,.51-.51,1.34,1.34,0,0,1,.7-.19,1.29,1.29,0,0,1,.7.19,1.39,1.39,0,0,1,.51.51A1.32,1.32,0,0,1,561,94.62ZM558.5,108V97.54h2.3V108Z"/><path class="cls-3" d="M563.56,108V97.54h2.1l.08,1.44A3.42,3.42,0,0,1,567,97.71a3.86,3.86,0,0,1,1.91-.47,3.72,3.72,0,0,1,2,.56,3.68,3.68,0,0,1,1.35,1.58,5.59,5.59,0,0,1,.48,2.4V108h-2.3v-6a3.15,3.15,0,0,0-.57-2,1.91,1.91,0,0,0-1.59-.72,2.43,2.43,0,0,0-2.18,1.26,2.77,2.77,0,0,0-.32,1.34V108Z"/><path class="cls-3" d="M584.44,108.3a3.32,3.32,0,0,1-2.48-.91,3.57,3.57,0,0,1-.9-2.61V99.4h-1.84V97.54h1.84V94h2.3v3.54h3V99.4h-3v5.14a2.09,2.09,0,0,0,.35,1.29,1.24,1.24,0,0,0,1,.45,3.25,3.25,0,0,0,.78-.11,3.34,3.34,0,0,0,.78-.31l.52,1.74a3.93,3.93,0,0,1-1.07.51A4.23,4.23,0,0,1,584.44,108.3Z"/><path class="cls-3" d="M588.92,108V93.12h2.3V98.8a3.44,3.44,0,0,1,1.28-1.14,3.85,3.85,0,0,1,1.8-.42,3.72,3.72,0,0,1,2.05.56,3.68,3.68,0,0,1,1.35,1.58,5.59,5.59,0,0,1,.48,2.4V108h-2.3v-6a3.15,3.15,0,0,0-.57-2,1.91,1.91,0,0,0-1.59-.72,2.43,2.43,0,0,0-2.18,1.26,2.77,2.77,0,0,0-.32,1.34V108Z"/><path class="cls-3" d="M605.8,108.3a5.5,5.5,0,0,1-2.13-.41,5.08,5.08,0,0,1-2.8-2.9,6.14,6.14,0,0,1-.39-2.23,6,6,0,0,1,.39-2.18A5.48,5.48,0,0,1,602,98.83a5.14,5.14,0,0,1,5.68-1.2,4.53,4.53,0,0,1,1.58,1.11,4.92,4.92,0,0,1,1,1.71,6.37,6.37,0,0,1,.36,2.19v.68h-7.74a4.07,4.07,0,0,0,.49,1.59,2.78,2.78,0,0,0,1,1,3,3,0,0,0,4-1.1l2,.78a4.08,4.08,0,0,1-1,1.43,4.64,4.64,0,0,1-1.6.93A5.83,5.83,0,0,1,605.8,108.3Zm-.18-9.2a2.5,2.5,0,0,0-1.25.32,2.84,2.84,0,0,0-.93.9,3.82,3.82,0,0,0-.52,1.36h5.28a3.77,3.77,0,0,0-.46-1.36,2.33,2.33,0,0,0-.89-.9A2.4,2.4,0,0,0,605.62,99.1Z"/><path class="cls-3" d="M615.38,94.62a1.32,1.32,0,0,1-.19.7,1.39,1.39,0,0,1-.51.51,1.29,1.29,0,0,1-.7.19,1.34,1.34,0,0,1-.7-.19,1.55,1.55,0,0,1-.51-.51,1.38,1.38,0,0,1,0-1.4,1.55,1.55,0,0,1,.51-.51,1.34,1.34,0,0,1,.7-.19,1.29,1.29,0,0,1,.7.19,1.39,1.39,0,0,1,.51.51A1.32,1.32,0,0,1,615.38,94.62ZM612.84,108V97.54h2.3V108Z"/><path class="cls-3" d="M617.9,108V97.54H620l.1,1.72a3.3,3.3,0,0,1,1.11-1.37,2.86,2.86,0,0,1,1.67-.49,3.6,3.6,0,0,1,.58,0,1.73,1.73,0,0,1,.5.14l-.26,2.24a2.21,2.21,0,0,0-.46-.11,3.87,3.87,0,0,0-.48,0,2.35,2.35,0,0,0-1.88.8,3.33,3.33,0,0,0-.68,2.22V108Z"/><path class="cls-3" d="M630.48,108V97.54h2.1l.08,1.44A3.42,3.42,0,0,1,634,97.71a3.86,3.86,0,0,1,1.91-.47,3.72,3.72,0,0,1,2,.56,3.68,3.68,0,0,1,1.35,1.58,5.59,5.59,0,0,1,.48,2.4V108h-2.3v-6a3.15,3.15,0,0,0-.57-2,1.91,1.91,0,0,0-1.59-.72,2.43,2.43,0,0,0-2.18,1.26,2.77,2.77,0,0,0-.32,1.34V108Z"/><path class="cls-3" d="M647.36,108.3a5.5,5.5,0,0,1-2.13-.41,5.08,5.08,0,0,1-2.8-2.9,6.14,6.14,0,0,1-.39-2.23,6,6,0,0,1,.39-2.18,5.48,5.48,0,0,1,1.08-1.75,5.14,5.14,0,0,1,5.68-1.2,4.53,4.53,0,0,1,1.58,1.11,4.92,4.92,0,0,1,1,1.71,6.37,6.37,0,0,1,.36,2.19v.68h-7.74a4.07,4.07,0,0,0,.49,1.59,2.78,2.78,0,0,0,1,1,3,3,0,0,0,4-1.1l2,.78a4.08,4.08,0,0,1-1.05,1.43,4.64,4.64,0,0,1-1.6.93A5.83,5.83,0,0,1,647.36,108.3Zm-.18-9.2a2.5,2.5,0,0,0-1.25.32,2.84,2.84,0,0,0-.93.9,3.82,3.82,0,0,0-.52,1.36h5.28a3.77,3.77,0,0,0-.46-1.36,2.33,2.33,0,0,0-.89-.9A2.4,2.4,0,0,0,647.18,99.1Z"/><path class="cls-3" d="M658.64,108.3a3.32,3.32,0,0,1-2.48-.91,3.57,3.57,0,0,1-.9-2.61V99.4h-1.84V97.54h1.84V94h2.3v3.54h3V99.4h-3v5.14a2.09,2.09,0,0,0,.35,1.29,1.24,1.24,0,0,0,1,.45,3.25,3.25,0,0,0,.78-.11,3.34,3.34,0,0,0,.78-.31l.52,1.74a3.93,3.93,0,0,1-1.07.51A4.23,4.23,0,0,1,658.64,108.3Z"/><path class="cls-3" d="M665.64,108l-3.48-10.46h2.4l2.22,7.64,2.34-7.64h2.06l2.32,7.64,2.26-7.64h2.32L674.58,108h-2.16l-2.3-7.6L667.8,108Z"/><path class="cls-3" d="M684.42,108.3a5.44,5.44,0,0,1-2.11-.41,5,5,0,0,1-1.69-1.16A5.45,5.45,0,0,1,679.5,105a6.07,6.07,0,0,1-.4-2.21,6,6,0,0,1,.4-2.19,5.48,5.48,0,0,1,1.13-1.76,5.07,5.07,0,0,1,1.72-1.16,5.64,5.64,0,0,1,2.15-.41,5.4,5.4,0,0,1,2.11.41,5,5,0,0,1,1.69,1.16,5.25,5.25,0,0,1,1.12,1.75,6.28,6.28,0,0,1,0,4.41,5.16,5.16,0,0,1-1.13,1.76,5,5,0,0,1-1.72,1.16A5.6,5.6,0,0,1,684.42,108.3Zm0-2.08a2.7,2.7,0,0,0,1.54-.45,3.13,3.13,0,0,0,1.07-1.23,3.92,3.92,0,0,0,.39-1.78,3.85,3.85,0,0,0-.39-1.77A3.17,3.17,0,0,0,686,99.77a2.86,2.86,0,0,0-3.08,0,3.17,3.17,0,0,0-1.07,1.22,3.85,3.85,0,0,0-.39,1.77,3.92,3.92,0,0,0,.39,1.78,3.13,3.13,0,0,0,1.07,1.23A2.73,2.73,0,0,0,684.46,106.22Z"/><path class="cls-3" d="M692.12,108V97.54h2.1l.1,1.72a3.3,3.3,0,0,1,1.11-1.37,2.86,2.86,0,0,1,1.67-.49,3.6,3.6,0,0,1,.58,0,1.73,1.73,0,0,1,.5.14l-.26,2.24a2.21,2.21,0,0,0-.46-.11l-.48,0a2.35,2.35,0,0,0-1.88.8,3.33,3.33,0,0,0-.68,2.22V108Z"/><path class="cls-3" d="M700.16,108V93.12h2.3v8.74l4.28-4.32h2.8l-4.7,4.64L710,108h-3l-4.54-5.28V108Z"/></g><g class="cls-2"><path class="cls-3" d="M72.8,133.3a5.68,5.68,0,0,1-2.23-.43,5,5,0,0,1-1.75-1.21,4.45,4.45,0,0,1-1-1.86l2.3-.56a2.79,2.79,0,0,0,1,1.42,2.87,2.87,0,0,0,1.7.5,2.77,2.77,0,0,0,1.28-.28,2.36,2.36,0,0,0,.89-.76,1.9,1.9,0,0,0,.33-1.1,1.64,1.64,0,0,0-.55-1.27A3.67,3.67,0,0,0,73,127l-.74-.16a6,6,0,0,1-3.13-1.52,3.63,3.63,0,0,1-1-2.58,3.94,3.94,0,0,1,.36-1.69,4.09,4.09,0,0,1,1-1.34,4.68,4.68,0,0,1,1.5-.88,5.34,5.34,0,0,1,1.86-.31,5.18,5.18,0,0,1,2.1.42,4.65,4.65,0,0,1,1.64,1.19,4.46,4.46,0,0,1,1,1.83l-2.28.56a2.82,2.82,0,0,0-1-1.38,2.46,2.46,0,0,0-1.52-.48,2.41,2.41,0,0,0-1.13.25,2,2,0,0,0-.78.68,1.73,1.73,0,0,0-.29,1,1.5,1.5,0,0,0,.58,1.24,4.59,4.59,0,0,0,1.78.74l.74.16q4.08.91,4.08,4.14a4.34,4.34,0,0,1-.37,1.81,4.11,4.11,0,0,1-1.05,1.42,5,5,0,0,1-1.59.92A5.81,5.81,0,0,1,72.8,133.3Z"/><path class="cls-3" d="M85.18,133.3a5.44,5.44,0,0,1-2.11-.41,5,5,0,0,1-1.69-1.16A5.45,5.45,0,0,1,80.26,130a5.87,5.87,0,0,1-.4-2.21,5.8,5.8,0,0,1,.4-2.19,5.32,5.32,0,0,1,1.13-1.76,5.07,5.07,0,0,1,1.72-1.16,5.64,5.64,0,0,1,2.15-.41,5.44,5.44,0,0,1,2.11.41,5,5,0,0,1,1.69,1.16,5.41,5.41,0,0,1,1.12,1.75,6.28,6.28,0,0,1,0,4.41,5.32,5.32,0,0,1-1.13,1.76,5.07,5.07,0,0,1-1.72,1.16A5.64,5.64,0,0,1,85.18,133.3Zm0-2.08a2.73,2.73,0,0,0,1.54-.45,3.13,3.13,0,0,0,1.07-1.23,3.92,3.92,0,0,0,.39-1.78,3.85,3.85,0,0,0-.39-1.77,3.17,3.17,0,0,0-1.07-1.22,2.86,2.86,0,0,0-3.08,0A3.17,3.17,0,0,0,82.61,126a3.85,3.85,0,0,0-.39,1.77,3.92,3.92,0,0,0,.39,1.78,3.13,3.13,0,0,0,1.07,1.23A2.73,2.73,0,0,0,85.22,131.22Z"/><path class="cls-3" d="M101.74,133.3a3.32,3.32,0,0,1-2.48-.91,3.57,3.57,0,0,1-.9-2.61V124.4H96.52v-1.86h1.84V119h2.3v3.54h3v1.86h-3v5.14a2.09,2.09,0,0,0,.35,1.29,1.23,1.23,0,0,0,1,.45,3.25,3.25,0,0,0,.78-.11,3.34,3.34,0,0,0,.78-.31l.52,1.74a4.08,4.08,0,0,1-1.07.51A4.28,4.28,0,0,1,101.74,133.3Z"/><path class="cls-3" d="M106.22,133V118.12h2.3v5.68a3.44,3.44,0,0,1,1.28-1.14,3.79,3.79,0,0,1,1.8-.42,3.72,3.72,0,0,1,2.05.56,3.68,3.68,0,0,1,1.35,1.58,5.59,5.59,0,0,1,.48,2.4V133h-2.3v-6a3.15,3.15,0,0,0-.57-2,1.91,1.91,0,0,0-1.59-.72,2.44,2.44,0,0,0-1.29.34,2.38,2.38,0,0,0-.89.92,2.77,2.77,0,0,0-.32,1.34V133Z"/><path class="cls-3" d="M121.44,133.3a4.36,4.36,0,0,1-1.47-.24,3.57,3.57,0,0,1-1.17-.68,3.2,3.2,0,0,1-.78-1,3,3,0,0,1-.28-1.32,3,3,0,0,1,.53-1.75,3.46,3.46,0,0,1,1.49-1.17,5.56,5.56,0,0,1,2.24-.42,6.48,6.48,0,0,1,1.34.13,6.91,6.91,0,0,1,1.22.37v-.66a2.79,2.79,0,0,0-.26-1.23,2,2,0,0,0-.74-.83,2.15,2.15,0,0,0-1.16-.3,2.36,2.36,0,0,0-1.3.38,2.26,2.26,0,0,0-.86,1.06l-2.12-.48a3.41,3.41,0,0,1,.87-1.52,4.42,4.42,0,0,1,1.52-1,5.1,5.1,0,0,1,1.93-.36,4.91,4.91,0,0,1,1.79.32,4,4,0,0,1,1.39.9,4,4,0,0,1,.9,1.38,4.82,4.82,0,0,1,.32,1.78V133h-2.1l-.08-1.38a3.09,3.09,0,0,1-1.26,1.22A4,4,0,0,1,121.44,133.3Zm-1.38-3.38a1.36,1.36,0,0,0,.24.79,1.6,1.6,0,0,0,.67.55,2.43,2.43,0,0,0,1,.2,2.74,2.74,0,0,0,1.32-.32,2.41,2.41,0,0,0,.92-.87,2.3,2.3,0,0,0,.34-1.25v-.24a6.69,6.69,0,0,0-1.07-.35,4.72,4.72,0,0,0-1.13-.13,2.89,2.89,0,0,0-1.67.44A1.37,1.37,0,0,0,120.06,129.92Z"/><path class="cls-3" d="M133.58,133.3a3.32,3.32,0,0,1-2.48-.91,3.57,3.57,0,0,1-.9-2.61V124.4h-1.84v-1.86h1.84V119h2.3v3.54h3v1.86h-3v5.14a2.09,2.09,0,0,0,.35,1.29,1.23,1.23,0,0,0,1,.45,3.25,3.25,0,0,0,.78-.11,3.34,3.34,0,0,0,.78-.31l.52,1.74a4.08,4.08,0,0,1-1.07.51A4.28,4.28,0,0,1,133.58,133.3Z"/><path class="cls-3" d="M146.92,133.3a3.32,3.32,0,0,1-2.48-.91,3.57,3.57,0,0,1-.9-2.61V124.4H141.7v-1.86h1.84V119h2.3v3.54h3v1.86h-3v5.14a2.09,2.09,0,0,0,.35,1.29,1.23,1.23,0,0,0,1,.45,3.25,3.25,0,0,0,.78-.11,3.34,3.34,0,0,0,.78-.31l.52,1.74a4.08,4.08,0,0,1-1.07.51A4.28,4.28,0,0,1,146.92,133.3Z"/><path class="cls-3" d="M151.4,133V118.12h2.3v5.68a3.44,3.44,0,0,1,1.28-1.14,3.79,3.79,0,0,1,1.8-.42,3.72,3.72,0,0,1,2.05.56,3.68,3.68,0,0,1,1.35,1.58,5.59,5.59,0,0,1,.48,2.4V133h-2.3v-6a3.15,3.15,0,0,0-.57-2,1.91,1.91,0,0,0-1.59-.72,2.44,2.44,0,0,0-1.29.34,2.38,2.38,0,0,0-.89.92,2.77,2.77,0,0,0-.32,1.34V133Z"/><path class="cls-3" d="M168.28,133.3a5.5,5.5,0,0,1-2.13-.41,5.07,5.07,0,0,1-1.69-1.15,5.13,5.13,0,0,1-1.11-1.75,6.14,6.14,0,0,1-.39-2.23,6,6,0,0,1,.39-2.18,5.48,5.48,0,0,1,1.08-1.75,4.88,4.88,0,0,1,1.63-1.17,5,5,0,0,1,2-.42,5.07,5.07,0,0,1,2,.39,4.62,4.62,0,0,1,1.58,1.11,4.92,4.92,0,0,1,1,1.71,6.37,6.37,0,0,1,.36,2.19v.68h-7.74a4.07,4.07,0,0,0,.49,1.59,2.69,2.69,0,0,0,2.45,1.39,2.88,2.88,0,0,0,2.56-1.46l2,.78a4.08,4.08,0,0,1-1.05,1.43,4.64,4.64,0,0,1-1.6.93A5.88,5.88,0,0,1,168.28,133.3Zm-.18-9.2a2.47,2.47,0,0,0-1.25.32,2.66,2.66,0,0,0-.93.9,3.48,3.48,0,0,0-.52,1.36h5.28a3.77,3.77,0,0,0-.46-1.36,2.4,2.4,0,0,0-.89-.9A2.45,2.45,0,0,0,168.1,124.1Z"/><path class="cls-3" d="M176.44,137.16a3.9,3.9,0,0,1-.93-.1,3.24,3.24,0,0,1-.83-.32l.5-1.82a2.92,2.92,0,0,0,.5.17,2.05,2.05,0,0,0,.54.07,1.67,1.67,0,0,0,1.05-.34,2.48,2.48,0,0,0,.75-1.1l.32-.82-4.26-10.36h2.52l2.82,7.82,2.56-7.82h2.44L180,134.26a5.18,5.18,0,0,1-1.45,2.2A3.22,3.22,0,0,1,176.44,137.16Z"/><path class="cls-3" d="M195.48,133.3a5.12,5.12,0,0,1-2.06-.41,4.84,4.84,0,0,1-1.64-1.14,5.14,5.14,0,0,1-1.09-1.73,6.27,6.27,0,0,1,0-4.38,5.67,5.67,0,0,1,1.1-1.78,5.12,5.12,0,0,1,1.65-1.19,5.21,5.21,0,0,1,4.05,0,4.52,4.52,0,0,1,1.55,1.1,4.22,4.22,0,0,1,.93,1.67l-2.18.52a2.81,2.81,0,0,0-1-1.18,2.36,2.36,0,0,0-1.37-.42,2.4,2.4,0,0,0-1.44.46,3.14,3.14,0,0,0-1,1.25,4.47,4.47,0,0,0,0,3.54,3,3,0,0,0,1,1.21,2.53,2.53,0,0,0,1.47.44,2.75,2.75,0,0,0,1.46-.41,2.47,2.47,0,0,0,1-1.17l2.16.5a4,4,0,0,1-1,1.67,4.9,4.9,0,0,1-1.62,1.1A5.23,5.23,0,0,1,195.48,133.3Z"/><path class="cls-3" d="M205.46,133.3a4.28,4.28,0,0,1-1.47-.24,3.57,3.57,0,0,1-1.17-.68,3.07,3.07,0,0,1-1.06-2.36,2.9,2.9,0,0,1,.53-1.75,3.46,3.46,0,0,1,1.49-1.17,5.53,5.53,0,0,1,2.24-.42,6.48,6.48,0,0,1,1.34.13,6.91,6.91,0,0,1,1.22.37v-.66a2.79,2.79,0,0,0-.26-1.23,2.06,2.06,0,0,0-.74-.83,2.15,2.15,0,0,0-1.16-.3,2.33,2.33,0,0,0-1.3.38,2.26,2.26,0,0,0-.86,1.06l-2.12-.48a3.41,3.41,0,0,1,.87-1.52,4.33,4.33,0,0,1,1.52-1,5.06,5.06,0,0,1,1.93-.36,4.91,4.91,0,0,1,1.79.32,4,4,0,0,1,1.39.9,4.17,4.17,0,0,1,.9,1.38,4.82,4.82,0,0,1,.32,1.78V133h-2.1l-.08-1.38a3.09,3.09,0,0,1-1.26,1.22A4,4,0,0,1,205.46,133.3Zm-1.38-3.38a1.36,1.36,0,0,0,.24.79,1.6,1.6,0,0,0,.67.55,2.39,2.39,0,0,0,1,.2,2.74,2.74,0,0,0,1.32-.32,2.48,2.48,0,0,0,.92-.87,2.39,2.39,0,0,0,.34-1.25v-.24a7,7,0,0,0-1.07-.35,4.78,4.78,0,0,0-1.13-.13,2.87,2.87,0,0,0-1.67.44A1.37,1.37,0,0,0,204.08,129.92Z"/><path class="cls-3" d="M213.62,133V122.54h2.1l.08,1.44a3.35,3.35,0,0,1,1.29-1.27,3.83,3.83,0,0,1,1.91-.47,3.72,3.72,0,0,1,2.05.56,3.68,3.68,0,0,1,1.35,1.58,5.59,5.59,0,0,1,.48,2.4V133h-2.3v-6a3.15,3.15,0,0,0-.57-2,1.91,1.91,0,0,0-1.59-.72,2.44,2.44,0,0,0-1.29.34,2.38,2.38,0,0,0-.89.92,2.66,2.66,0,0,0-.32,1.34V133Z"/><path class="cls-3" d="M235,133.3a5.43,5.43,0,0,1-2.13-.41,5.07,5.07,0,0,1-1.69-1.15,5.13,5.13,0,0,1-1.11-1.75,6.14,6.14,0,0,1-.39-2.23,6,6,0,0,1,.39-2.18,5.48,5.48,0,0,1,1.08-1.75,4.91,4.91,0,0,1,3.67-1.59,5.07,5.07,0,0,1,2,.39,4.72,4.72,0,0,1,1.58,1.11,5.08,5.08,0,0,1,1,1.71,6.37,6.37,0,0,1,.36,2.19v.68H232.1a3.91,3.91,0,0,0,.49,1.59,2.7,2.7,0,0,0,1,1,2.8,2.8,0,0,0,1.44.36,2.89,2.89,0,0,0,2.56-1.46l2,.78a4.08,4.08,0,0,1-1.05,1.43,4.74,4.74,0,0,1-1.6.93A5.88,5.88,0,0,1,235,133.3Zm-.18-9.2a2.45,2.45,0,0,0-1.25.32,2.66,2.66,0,0,0-.93.9,3.48,3.48,0,0,0-.52,1.36h5.28a4,4,0,0,0-.46-1.36,2.48,2.48,0,0,0-.89-.9A2.45,2.45,0,0,0,234.86,124.1Z"/><path class="cls-3" d="M242.08,133V122.54h2.1l.08,1.44a3.28,3.28,0,0,1,1.29-1.27,3.83,3.83,0,0,1,1.91-.47,3.75,3.75,0,0,1,2,.56,3.68,3.68,0,0,1,1.35,1.58,5.59,5.59,0,0,1,.48,2.4V133H249v-6a3.15,3.15,0,0,0-.57-2,1.91,1.91,0,0,0-1.59-.72,2.44,2.44,0,0,0-1.29.34,2.38,2.38,0,0,0-.89.92,2.66,2.66,0,0,0-.32,1.34V133Z"/><path class="cls-3" d="M257.68,133.3a5.08,5.08,0,0,1-1.89-.34,4.1,4.1,0,0,1-1.48-1,3.56,3.56,0,0,1-.87-1.49l2.08-.54a2.11,2.11,0,0,0,.84,1.06,2.39,2.39,0,0,0,1.34.38A2.09,2.09,0,0,0,259,131a1.14,1.14,0,0,0,.5-.95,1.09,1.09,0,0,0-.4-.84,2.79,2.79,0,0,0-1.3-.5l-.66-.12a5,5,0,0,1-2.53-1.08,2.59,2.59,0,0,1-.85-2,3,3,0,0,1,.5-1.72,3.36,3.36,0,0,1,1.38-1.16,5,5,0,0,1,3.82-.08,4,4,0,0,1,1.38,1,3.65,3.65,0,0,1,.8,1.46l-2.06.5a2.14,2.14,0,0,0-.75-1,2,2,0,0,0-1.19-.37,1.86,1.86,0,0,0-1.16.35,1.06,1.06,0,0,0-.46.89.89.89,0,0,0,.41.76,3.48,3.48,0,0,0,1.39.48l.66.12a4.68,4.68,0,0,1,2.46,1.1,2.73,2.73,0,0,1,.86,2,3.16,3.16,0,0,1-.3,1.37,3.36,3.36,0,0,1-.85,1.1,4,4,0,0,1-1.3.72A5.1,5.1,0,0,1,257.68,133.3Z"/><path class="cls-3" d="M268.56,133.3a4.71,4.71,0,0,1-2.43-.6,4.07,4.07,0,0,1-1.6-1.71,5.64,5.64,0,0,1-.57-2.61v-5.84h2.3v5.88a3.08,3.08,0,0,0,.62,2.05,2.3,2.3,0,0,0,3.4,0,3.13,3.13,0,0,0,.62-2.05v-5.88h2.3v5.84a5.59,5.59,0,0,1-.57,2.59,4.18,4.18,0,0,1-1.61,1.72A4.78,4.78,0,0,1,268.56,133.3Z"/><path class="cls-3" d="M276,133V122.54h2.1l.1,1.72a3.16,3.16,0,0,1,1.11-1.37,2.84,2.84,0,0,1,1.67-.49,3.69,3.69,0,0,1,.58,0,1.94,1.94,0,0,1,.5.14l-.26,2.24a2.37,2.37,0,0,0-.46-.11,3.87,3.87,0,0,0-.48,0,2.34,2.34,0,0,0-1.88.8,3.28,3.28,0,0,0-.68,2.22V133Z"/><path class="cls-3" d="M288.54,133.3a5.43,5.43,0,0,1-2.13-.41,5.07,5.07,0,0,1-1.69-1.15,5.13,5.13,0,0,1-1.11-1.75,6.14,6.14,0,0,1-.39-2.23,6,6,0,0,1,.39-2.18,5.48,5.48,0,0,1,1.08-1.75,4.91,4.91,0,0,1,3.67-1.59,5.07,5.07,0,0,1,2,.39,4.72,4.72,0,0,1,1.58,1.11,5.08,5.08,0,0,1,1,1.71,6.37,6.37,0,0,1,.36,2.19v.68H285.6a3.91,3.91,0,0,0,.49,1.59,2.7,2.7,0,0,0,1,1,2.8,2.8,0,0,0,1.44.36,2.89,2.89,0,0,0,2.56-1.46l2,.78a4.08,4.08,0,0,1-1.05,1.43,4.74,4.74,0,0,1-1.6.93A5.88,5.88,0,0,1,288.54,133.3Zm-.18-9.2a2.45,2.45,0,0,0-1.25.32,2.66,2.66,0,0,0-.93.9,3.48,3.48,0,0,0-.52,1.36h5.28a4,4,0,0,0-.46-1.36,2.48,2.48,0,0,0-.89-.9A2.45,2.45,0,0,0,288.36,124.1Z"/><path class="cls-3" d="M303.32,133.3a4.28,4.28,0,0,1-1.47-.24,3.57,3.57,0,0,1-1.17-.68,2.94,2.94,0,0,1-.78-1,3,3,0,0,1-.28-1.32,2.9,2.9,0,0,1,.53-1.75,3.46,3.46,0,0,1,1.49-1.17,5.53,5.53,0,0,1,2.24-.42,6.55,6.55,0,0,1,1.34.13,7.17,7.17,0,0,1,1.22.37v-.66a2.79,2.79,0,0,0-.26-1.23,2.06,2.06,0,0,0-.74-.83,2.15,2.15,0,0,0-1.16-.3,2.33,2.33,0,0,0-1.3.38,2.2,2.2,0,0,0-.86,1.06l-2.12-.48a3.41,3.41,0,0,1,.87-1.52,4.33,4.33,0,0,1,1.52-1,5.06,5.06,0,0,1,1.93-.36,4.91,4.91,0,0,1,1.79.32,4,4,0,0,1,1.39.9,4.34,4.34,0,0,1,.9,1.38,4.82,4.82,0,0,1,.32,1.78V133h-2.1l-.08-1.38a3.09,3.09,0,0,1-1.26,1.22A4,4,0,0,1,303.32,133.3Zm-1.38-3.38a1.36,1.36,0,0,0,.24.79,1.6,1.6,0,0,0,.67.55,2.39,2.39,0,0,0,1,.2,2.74,2.74,0,0,0,1.32-.32,2.48,2.48,0,0,0,.92-.87,2.39,2.39,0,0,0,.34-1.25v-.24a7,7,0,0,0-1.07-.35,4.78,4.78,0,0,0-1.13-.13,2.87,2.87,0,0,0-1.67.44A1.37,1.37,0,0,0,301.94,129.92Z"/><path class="cls-3" d="M311.48,133V122.54h2.1l.08,1.44a3.28,3.28,0,0,1,1.29-1.27,3.83,3.83,0,0,1,1.91-.47,3.75,3.75,0,0,1,2.05.56,3.68,3.68,0,0,1,1.35,1.58,5.59,5.59,0,0,1,.48,2.4V133h-2.3v-6a3.15,3.15,0,0,0-.57-2,1.91,1.91,0,0,0-1.59-.72,2.44,2.44,0,0,0-1.29.34,2.38,2.38,0,0,0-.89.92,2.66,2.66,0,0,0-.32,1.34V133Z"/><path class="cls-3" d="M332.9,133.3a5.43,5.43,0,0,1-2.13-.41,5.07,5.07,0,0,1-1.69-1.15A5.13,5.13,0,0,1,328,130a6.14,6.14,0,0,1-.39-2.23,6,6,0,0,1,.39-2.18,5.48,5.48,0,0,1,1.08-1.75,4.91,4.91,0,0,1,3.67-1.59,5.07,5.07,0,0,1,2,.39,4.72,4.72,0,0,1,1.58,1.11,5.08,5.08,0,0,1,1,1.71,6.37,6.37,0,0,1,.36,2.19v.68H330a3.91,3.91,0,0,0,.49,1.59,2.7,2.7,0,0,0,1,1,2.8,2.8,0,0,0,1.44.36,2.89,2.89,0,0,0,2.56-1.46l2,.78a4.08,4.08,0,0,1-1.05,1.43,4.74,4.74,0,0,1-1.6.93A5.88,5.88,0,0,1,332.9,133.3Zm-.18-9.2a2.45,2.45,0,0,0-1.25.32,2.66,2.66,0,0,0-.93.9,3.48,3.48,0,0,0-.52,1.36h5.28a4,4,0,0,0-.46-1.36,2.48,2.48,0,0,0-.89-.9A2.45,2.45,0,0,0,332.72,124.1Z"/><path class="cls-3" d="M340.9,133v-8.6h-1.84v-1.86h1.84v-.74a4.14,4.14,0,0,1,.48-2,3.52,3.52,0,0,1,1.32-1.36,3.71,3.71,0,0,1,1.92-.49,4,4,0,0,1,1.13.15,4.43,4.43,0,0,1,.91.37l-.52,1.76a3.15,3.15,0,0,0-.59-.23,2.48,2.48,0,0,0-.65-.09,1.53,1.53,0,0,0-1.28.53,2.38,2.38,0,0,0-.42,1.51v.62h4.46v-.74a4.37,4.37,0,0,1,.45-2,3.35,3.35,0,0,1,3.07-1.85,3.68,3.68,0,0,1,1,.13,4.22,4.22,0,0,1,.83.33l-.52,1.76a3.25,3.25,0,0,0-.5-.18,2.25,2.25,0,0,0-.58-.08,1.24,1.24,0,0,0-1.1.53,2.67,2.67,0,0,0-.36,1.51v.62h6.76V133h-2.3v-8.6H350V133h-2.3v-8.6H343.2V133ZM357,119.62a1.41,1.41,0,0,1-.19.7,1.62,1.62,0,0,1-.5.51,1.33,1.33,0,0,1-.71.19,1.28,1.28,0,0,1-.71-.19,1.44,1.44,0,0,1-.5-.51,1.38,1.38,0,0,1,0-1.4,1.44,1.44,0,0,1,.5-.51,1.28,1.28,0,0,1,.71-.19,1.33,1.33,0,0,1,.71.19,1.62,1.62,0,0,1,.5.51A1.41,1.41,0,0,1,357,119.62Z"/><path class="cls-3" d="M364.2,133.3a5.12,5.12,0,0,1-2.06-.41,4.84,4.84,0,0,1-1.64-1.14,5.14,5.14,0,0,1-1.09-1.73,6.27,6.27,0,0,1,0-4.38,5.5,5.5,0,0,1,1.1-1.78,5.12,5.12,0,0,1,5.7-1.23,4.61,4.61,0,0,1,1.55,1.1,4.22,4.22,0,0,1,.93,1.67l-2.18.52a2.81,2.81,0,0,0-.95-1.18,2.38,2.38,0,0,0-1.37-.42,2.36,2.36,0,0,0-1.44.46,3.06,3.06,0,0,0-1,1.25,4.47,4.47,0,0,0,0,3.54,3,3,0,0,0,1,1.21,2.53,2.53,0,0,0,1.47.44,2.75,2.75,0,0,0,1.46-.41,2.47,2.47,0,0,0,1-1.17l2.16.5a4,4,0,0,1-1,1.67,4.9,4.9,0,0,1-1.62,1.1A5.23,5.23,0,0,1,364.2,133.3Z"/><path class="cls-3" d="M373.52,119.62a1.41,1.41,0,0,1-.19.7,1.55,1.55,0,0,1-.51.51,1.34,1.34,0,0,1-.7.19,1.29,1.29,0,0,1-.7-.19,1.39,1.39,0,0,1-.51-.51,1.38,1.38,0,0,1,0-1.4,1.39,1.39,0,0,1,.51-.51,1.29,1.29,0,0,1,.7-.19,1.34,1.34,0,0,1,.7.19,1.55,1.55,0,0,1,.51.51A1.41,1.41,0,0,1,373.52,119.62ZM371,133V122.54h2.3V133Z"/><path class="cls-3" d="M380.9,133.3a5.43,5.43,0,0,1-2.13-.41,5.07,5.07,0,0,1-1.69-1.15A5.13,5.13,0,0,1,376,130a6.14,6.14,0,0,1-.39-2.23,6,6,0,0,1,.39-2.18,5.48,5.48,0,0,1,1.08-1.75,4.91,4.91,0,0,1,3.67-1.59,5.07,5.07,0,0,1,2,.39,4.72,4.72,0,0,1,1.58,1.11,5.08,5.08,0,0,1,1,1.71,6.37,6.37,0,0,1,.36,2.19v.68H378a3.91,3.91,0,0,0,.49,1.59,2.7,2.7,0,0,0,1,1,2.8,2.8,0,0,0,1.44.36,2.89,2.89,0,0,0,2.56-1.46l2,.78a4.08,4.08,0,0,1-1.05,1.43,4.74,4.74,0,0,1-1.6.93A5.88,5.88,0,0,1,380.9,133.3Zm-.18-9.2a2.45,2.45,0,0,0-1.25.32,2.66,2.66,0,0,0-.93.9,3.48,3.48,0,0,0-.52,1.36h5.28a4,4,0,0,0-.46-1.36,2.48,2.48,0,0,0-.89-.9A2.45,2.45,0,0,0,380.72,124.1Z"/><path class="cls-3" d="M387.94,133V122.54H390l.08,1.44a3.28,3.28,0,0,1,1.29-1.27,3.83,3.83,0,0,1,1.91-.47,3.75,3.75,0,0,1,2.05.56,3.68,3.68,0,0,1,1.35,1.58,5.59,5.59,0,0,1,.48,2.4V133h-2.3v-6a3.21,3.21,0,0,0-.57-2,1.91,1.91,0,0,0-1.59-.72,2.44,2.44,0,0,0-1.29.34,2.38,2.38,0,0,0-.89.92,2.66,2.66,0,0,0-.32,1.34V133Z"/><path class="cls-3" d="M404,133.3a3.35,3.35,0,0,1-2.49-.91,3.6,3.6,0,0,1-.89-2.61V124.4h-1.85v-1.86h1.85V119h2.3v3.54h3v1.86h-3v5.14a2.09,2.09,0,0,0,.34,1.29,1.24,1.24,0,0,0,1,.45,3.34,3.34,0,0,0,1.55-.42l.53,1.74a4.24,4.24,0,0,1-1.07.51A4.32,4.32,0,0,1,404,133.3Z"/><path class="cls-3" d="M415.51,133,412,122.54h2.4l2.22,7.64,2.33-7.64h2.06l2.32,7.64,2.26-7.64H428L424.45,133h-2.16l-2.3-7.6-2.32,7.6Z"/><path class="cls-3" d="M434.3,133.3a5.4,5.4,0,0,1-2.11-.41,5.09,5.09,0,0,1-1.7-1.16,5.43,5.43,0,0,1-1.11-1.76,5.87,5.87,0,0,1-.4-2.21,5.8,5.8,0,0,1,.4-2.19,5.16,5.16,0,0,1,1.13-1.76,5,5,0,0,1,1.72-1.16,5.6,5.6,0,0,1,2.15-.41,5.44,5.44,0,0,1,2.11.41,5.05,5.05,0,0,1,1.69,1.16,5.41,5.41,0,0,1,1.12,1.75,6.28,6.28,0,0,1,0,4.41,5.48,5.48,0,0,1-1.13,1.76,5.07,5.07,0,0,1-1.72,1.16A5.64,5.64,0,0,1,434.3,133.3Zm0-2.08a2.75,2.75,0,0,0,1.54-.45,3.13,3.13,0,0,0,1.07-1.23,4.05,4.05,0,0,0,.39-1.78A4,4,0,0,0,437,126a3.17,3.17,0,0,0-1.07-1.22,2.75,2.75,0,0,0-1.54-.45,2.7,2.7,0,0,0-1.54.45,3.09,3.09,0,0,0-1.07,1.22,3.85,3.85,0,0,0-.39,1.77,3.92,3.92,0,0,0,.39,1.78,3.05,3.05,0,0,0,1.07,1.23A2.7,2.7,0,0,0,434.34,131.22Z"/><path class="cls-3" d="M442,133V122.54h2.1l.11,1.72a3.21,3.21,0,0,1,1.1-1.37,2.87,2.87,0,0,1,1.68-.49,3.56,3.56,0,0,1,.57,0,1.73,1.73,0,0,1,.5.14l-.26,2.24a2.21,2.21,0,0,0-.46-.11l-.47,0a2.33,2.33,0,0,0-1.88.8,3.28,3.28,0,0,0-.69,2.22V133Z"/><path class="cls-3" d="M450,133V118.12h2.29v8.74l4.29-4.32h2.79l-4.7,4.64L459.9,133h-3l-4.54-5.28V133Z"/><path class="cls-3" d="M462.47,133v-8.6h-1.84v-1.86h1.84v-.74a4.14,4.14,0,0,1,.48-2,3.52,3.52,0,0,1,1.32-1.36,3.71,3.71,0,0,1,1.92-.49,4,4,0,0,1,1.13.15,4.21,4.21,0,0,1,.91.37l-.52,1.76a2.9,2.9,0,0,0-.59-.23,2.43,2.43,0,0,0-.65-.09,1.55,1.55,0,0,0-1.28.53,2.38,2.38,0,0,0-.42,1.51v.62h3v1.86h-3V133Z"/><path class="cls-3" d="M469.75,133V118.12h2.3V133Z"/><path class="cls-3" d="M479.67,133.3a5.44,5.44,0,0,1-2.11-.41,5.05,5.05,0,0,1-1.69-1.16,5.45,5.45,0,0,1-1.12-1.76,6.07,6.07,0,0,1-.4-2.21,6,6,0,0,1,.4-2.19,5.48,5.48,0,0,1,1.13-1.76,5.07,5.07,0,0,1,1.72-1.16,5.64,5.64,0,0,1,2.15-.41,5.4,5.4,0,0,1,2.11.41,5,5,0,0,1,1.69,1.16,5.25,5.25,0,0,1,1.12,1.75,6.28,6.28,0,0,1,0,4.41,5.16,5.16,0,0,1-1.13,1.76,5,5,0,0,1-1.72,1.16A5.6,5.6,0,0,1,479.67,133.3Zm0-2.08a2.7,2.7,0,0,0,1.54-.45,3.05,3.05,0,0,0,1.07-1.23,3.92,3.92,0,0,0,.39-1.78,3.85,3.85,0,0,0-.39-1.77,3.09,3.09,0,0,0-1.07-1.22,2.7,2.7,0,0,0-1.54-.45,2.75,2.75,0,0,0-1.54.45A3.17,3.17,0,0,0,477.1,126a3.85,3.85,0,0,0-.39,1.77,3.92,3.92,0,0,0,.39,1.78,3.13,3.13,0,0,0,1.07,1.23A2.75,2.75,0,0,0,479.71,131.22Z"/><path class="cls-3" d="M489.61,133l-3.48-10.46h2.41l2.21,7.64,2.34-7.64h2.06l2.32,7.64,2.26-7.64h2.32L498.55,133h-2.16l-2.3-7.6-2.32,7.6Z"/><path class="cls-3" d="M509.33,133v-8.6h-1.84v-1.86h1.84v-.74a4.14,4.14,0,0,1,.48-2,3.52,3.52,0,0,1,1.32-1.36,3.71,3.71,0,0,1,1.92-.49,4,4,0,0,1,1.13.15,4.21,4.21,0,0,1,.91.37l-.52,1.76A2.9,2.9,0,0,0,514,120a2.43,2.43,0,0,0-.65-.09,1.55,1.55,0,0,0-1.28.53,2.38,2.38,0,0,0-.42,1.51v.62h3v1.86h-3V133Z"/><path class="cls-3" d="M516.61,133V122.54h2.1l.1,1.72a3.3,3.3,0,0,1,1.11-1.37,2.86,2.86,0,0,1,1.67-.49,3.6,3.6,0,0,1,.58,0,1.73,1.73,0,0,1,.5.14l-.26,2.24a2.21,2.21,0,0,0-.46-.11l-.48,0a2.35,2.35,0,0,0-1.88.8,3.33,3.33,0,0,0-.68,2.22V133Z"/><path class="cls-3" d="M529.19,133.3a5.44,5.44,0,0,1-2.11-.41,5.05,5.05,0,0,1-1.69-1.16,5.45,5.45,0,0,1-1.12-1.76,6.07,6.07,0,0,1-.4-2.21,6,6,0,0,1,.4-2.19,5.48,5.48,0,0,1,1.13-1.76,5.07,5.07,0,0,1,1.72-1.16,5.64,5.64,0,0,1,2.15-.41,5.4,5.4,0,0,1,2.11.41,5,5,0,0,1,1.69,1.16,5.25,5.25,0,0,1,1.12,1.75,6.28,6.28,0,0,1,0,4.41,5.16,5.16,0,0,1-1.13,1.76,5,5,0,0,1-1.72,1.16A5.6,5.6,0,0,1,529.19,133.3Zm0-2.08a2.7,2.7,0,0,0,1.54-.45,3.05,3.05,0,0,0,1.07-1.23,3.92,3.92,0,0,0,.39-1.78,3.85,3.85,0,0,0-.39-1.77,3.09,3.09,0,0,0-1.07-1.22,2.7,2.7,0,0,0-1.54-.45,2.75,2.75,0,0,0-1.54.45,3.17,3.17,0,0,0-1.07,1.22,3.85,3.85,0,0,0-.39,1.77,3.92,3.92,0,0,0,.39,1.78,3.13,3.13,0,0,0,1.07,1.23A2.75,2.75,0,0,0,529.23,131.22Z"/><path class="cls-3" d="M536.89,133V122.54H539l.08,1.4a3.48,3.48,0,0,1,1.26-1.24,3.57,3.57,0,0,1,1.82-.46,3.42,3.42,0,0,1,1.94.55,3.62,3.62,0,0,1,1.3,1.51,3.56,3.56,0,0,1,.81-1.08,3.62,3.62,0,0,1,1.2-.72,4.28,4.28,0,0,1,1.49-.26,3.62,3.62,0,0,1,2,.55,3.57,3.57,0,0,1,1.33,1.56,5.57,5.57,0,0,1,.47,2.41V133h-2.3v-6a3.09,3.09,0,0,0-.56-2,1.84,1.84,0,0,0-1.54-.7,2.27,2.27,0,0,0-1.21.33,2.41,2.41,0,0,0-.84.92,2.9,2.9,0,0,0-.31,1.33V133h-2.3v-6a3.09,3.09,0,0,0-.56-2,1.84,1.84,0,0,0-1.54-.7,2.27,2.27,0,0,0-1.21.33,2.41,2.41,0,0,0-.84.92,2.9,2.9,0,0,0-.31,1.33V133Z"/><path class="cls-3" d="M563.59,133.3a5.08,5.08,0,0,1-1.89-.34,4.19,4.19,0,0,1-1.48-1,3.79,3.79,0,0,1-.87-1.49l2.08-.54a2.22,2.22,0,0,0,.84,1.06,2.44,2.44,0,0,0,1.34.38,2.07,2.07,0,0,0,1.28-.37,1.12,1.12,0,0,0,.5-.95,1.06,1.06,0,0,0-.4-.84,2.75,2.75,0,0,0-1.3-.5l-.66-.12a5,5,0,0,1-2.53-1.08,2.62,2.62,0,0,1-.85-2,3,3,0,0,1,.5-1.72,3.49,3.49,0,0,1,1.38-1.16,4.65,4.65,0,0,1,2-.42,4.55,4.55,0,0,1,1.8.34,3.81,3.81,0,0,1,1.38,1,3.54,3.54,0,0,1,.8,1.46l-2.06.5a2.14,2.14,0,0,0-.75-1,1.94,1.94,0,0,0-1.19-.37,1.9,1.9,0,0,0-1.16.35,1.09,1.09,0,0,0-.46.89.91.91,0,0,0,.41.76,3.61,3.61,0,0,0,1.39.48l.66.12a4.61,4.61,0,0,1,2.46,1.1,2.69,2.69,0,0,1,.86,2,3.16,3.16,0,0,1-.3,1.37,3.23,3.23,0,0,1-.85,1.1,3.9,3.9,0,0,1-1.3.72A5.1,5.1,0,0,1,563.59,133.3Z"/><path class="cls-3" d="M574.07,133.3a3.32,3.32,0,0,1-2.48-.91,3.57,3.57,0,0,1-.9-2.61V124.4h-1.84v-1.86h1.84V119H573v3.54h3v1.86h-3v5.14a2.09,2.09,0,0,0,.35,1.29,1.24,1.24,0,0,0,1,.45,3.25,3.25,0,0,0,.78-.11,3.34,3.34,0,0,0,.78-.31l.52,1.74a3.93,3.93,0,0,1-1.07.51A4.23,4.23,0,0,1,574.07,133.3Z"/><path class="cls-3" d="M581.63,133.3a4.36,4.36,0,0,1-1.47-.24,3.78,3.78,0,0,1-1.17-.68,3.07,3.07,0,0,1-1.06-2.36,3,3,0,0,1,.53-1.75A3.52,3.52,0,0,1,580,127.1a5.56,5.56,0,0,1,2.24-.42,6.41,6.41,0,0,1,1.34.13,6.66,6.66,0,0,1,1.22.37v-.66a2.65,2.65,0,0,0-.26-1.23,2,2,0,0,0-.74-.83,2.13,2.13,0,0,0-1.16-.3,2.36,2.36,0,0,0-1.3.38,2.32,2.32,0,0,0-.86,1.06l-2.12-.48a3.41,3.41,0,0,1,.87-1.52,4.42,4.42,0,0,1,1.52-1,5.14,5.14,0,0,1,1.93-.36,4.87,4.87,0,0,1,1.79.32,3.88,3.88,0,0,1,1.39.9,4,4,0,0,1,.9,1.38,4.63,4.63,0,0,1,.32,1.78V133h-2.1l-.08-1.38a3.09,3.09,0,0,1-1.26,1.22A4,4,0,0,1,581.63,133.3Zm-1.38-3.38a1.36,1.36,0,0,0,.24.79,1.66,1.66,0,0,0,.67.55,2.46,2.46,0,0,0,1,.2,2.69,2.69,0,0,0,1.32-.32,2.34,2.34,0,0,0,.92-.87,2.3,2.3,0,0,0,.34-1.25v-.24a6.38,6.38,0,0,0-1.07-.35,4.66,4.66,0,0,0-1.13-.13,2.89,2.89,0,0,0-1.67.44A1.37,1.37,0,0,0,580.25,129.92Z"/><path class="cls-3" d="M589.79,133V122.54h2.1l.1,1.72a3.3,3.3,0,0,1,1.11-1.37,2.86,2.86,0,0,1,1.67-.49,3.6,3.6,0,0,1,.58,0,1.73,1.73,0,0,1,.5.14l-.26,2.24a2.21,2.21,0,0,0-.46-.11,3.87,3.87,0,0,0-.48,0,2.35,2.35,0,0,0-1.88.8,3.33,3.33,0,0,0-.68,2.22V133Z"/><path class="cls-3" d="M602.47,133.3a3.32,3.32,0,0,1-2.48-.91,3.57,3.57,0,0,1-.9-2.61V124.4h-1.84v-1.86h1.84V119h2.3v3.54h3v1.86h-3v5.14a2.09,2.09,0,0,0,.35,1.29,1.24,1.24,0,0,0,1,.45,3.25,3.25,0,0,0,.78-.11,3.34,3.34,0,0,0,.78-.31l.52,1.74a3.93,3.93,0,0,1-1.07.51A4.23,4.23,0,0,1,602.47,133.3Z"/><path class="cls-3" d="M615.81,133.3a3.32,3.32,0,0,1-2.48-.91,3.57,3.57,0,0,1-.9-2.61V124.4h-1.84v-1.86h1.84V119h2.3v3.54h3v1.86h-3v5.14a2.09,2.09,0,0,0,.35,1.29,1.24,1.24,0,0,0,1,.45,3.25,3.25,0,0,0,.78-.11,3.34,3.34,0,0,0,.78-.31l.52,1.74a3.93,3.93,0,0,1-1.07.51A4.23,4.23,0,0,1,615.81,133.3Z"/><path class="cls-3" d="M625,133.3a5.44,5.44,0,0,1-2.11-.41,5.05,5.05,0,0,1-1.69-1.16A5.45,5.45,0,0,1,620,130a6.07,6.07,0,0,1-.4-2.21,6,6,0,0,1,.4-2.19,5.48,5.48,0,0,1,1.13-1.76,5.07,5.07,0,0,1,1.72-1.16,5.64,5.64,0,0,1,2.15-.41,5.4,5.4,0,0,1,2.11.41,5,5,0,0,1,1.69,1.16,5.25,5.25,0,0,1,1.12,1.75,6.28,6.28,0,0,1,0,4.41,5.16,5.16,0,0,1-1.13,1.76,5,5,0,0,1-1.72,1.16A5.6,5.6,0,0,1,625,133.3Zm0-2.08a2.7,2.7,0,0,0,1.54-.45,3.05,3.05,0,0,0,1.07-1.23,3.92,3.92,0,0,0,.39-1.78,3.85,3.85,0,0,0-.39-1.77,3.09,3.09,0,0,0-1.07-1.22,2.7,2.7,0,0,0-1.54-.45,2.75,2.75,0,0,0-1.54.45,3.17,3.17,0,0,0-1.07,1.22,3.85,3.85,0,0,0-.39,1.77,3.92,3.92,0,0,0,.39,1.78,3.13,3.13,0,0,0,1.07,1.23A2.75,2.75,0,0,0,625,131.22Z"/><path class="cls-3" d="M638.13,133v-8.6h-1.84v-1.86h1.84v-.74a4.37,4.37,0,0,1,.45-2,3.35,3.35,0,0,1,3.07-1.85,3.63,3.63,0,0,1,1,.13,4,4,0,0,1,.83.33l-.52,1.76a2.63,2.63,0,0,0-.5-.18,2.2,2.2,0,0,0-.58-.08,1.25,1.25,0,0,0-1.1.53,2.67,2.67,0,0,0-.36,1.51v.62h6.76V133h-2.3v-8.6h-4.46V133Zm9.3-13.38a1.32,1.32,0,0,1-.19.7,1.44,1.44,0,0,1-.5.51,1.28,1.28,0,0,1-.71.19,1.33,1.33,0,0,1-.71-.19,1.62,1.62,0,0,1-.5-.51,1.38,1.38,0,0,1,0-1.4,1.62,1.62,0,0,1,.5-.51,1.33,1.33,0,0,1,.71-.19,1.28,1.28,0,0,1,.71.19,1.44,1.44,0,0,1,.5.51A1.32,1.32,0,0,1,647.43,119.62Z"/><path class="cls-3" d="M650,133V122.54h2.1l.08,1.44a3.42,3.42,0,0,1,1.29-1.27,3.83,3.83,0,0,1,1.91-.47,3.72,3.72,0,0,1,2,.56,3.68,3.68,0,0,1,1.35,1.58,5.59,5.59,0,0,1,.48,2.4V133h-2.3v-6a3.15,3.15,0,0,0-.57-2,1.91,1.91,0,0,0-1.59-.72,2.43,2.43,0,0,0-2.18,1.26,2.77,2.77,0,0,0-.32,1.34V133Z"/><path class="cls-3" d="M664.51,119.62a1.32,1.32,0,0,1-.19.7,1.39,1.39,0,0,1-.51.51,1.29,1.29,0,0,1-.7.19,1.34,1.34,0,0,1-.7-.19,1.55,1.55,0,0,1-.51-.51,1.38,1.38,0,0,1,0-1.4,1.55,1.55,0,0,1,.51-.51,1.34,1.34,0,0,1,.7-.19,1.29,1.29,0,0,1,.7.19,1.39,1.39,0,0,1,.51.51A1.32,1.32,0,0,1,664.51,119.62ZM662,133V122.54h2.3V133Z"/><path class="cls-3" d="M670.61,133.3a5.08,5.08,0,0,1-1.89-.34,4.19,4.19,0,0,1-1.48-1,3.56,3.56,0,0,1-.87-1.49l2.08-.54a2.16,2.16,0,0,0,.84,1.06,2.42,2.42,0,0,0,1.34.38,2.07,2.07,0,0,0,1.28-.37,1.14,1.14,0,0,0,.5-.95,1.06,1.06,0,0,0-.4-.84,2.79,2.79,0,0,0-1.3-.5l-.66-.12a5,5,0,0,1-2.53-1.08,2.59,2.59,0,0,1-.85-2,3,3,0,0,1,.5-1.72,3.36,3.36,0,0,1,1.38-1.16,4.65,4.65,0,0,1,2-.42,4.55,4.55,0,0,1,1.8.34,3.81,3.81,0,0,1,1.38,1,3.65,3.65,0,0,1,.8,1.46l-2.06.5a2.14,2.14,0,0,0-.75-1,2,2,0,0,0-1.19-.37,1.88,1.88,0,0,0-1.16.35,1.06,1.06,0,0,0-.46.89.91.91,0,0,0,.41.76,3.61,3.61,0,0,0,1.39.48l.66.12a4.61,4.61,0,0,1,2.46,1.1,2.73,2.73,0,0,1,.86,2,3.16,3.16,0,0,1-.3,1.37,3.23,3.23,0,0,1-.85,1.1,3.9,3.9,0,0,1-1.3.72A5.1,5.1,0,0,1,670.61,133.3Z"/><path class="cls-3" d="M676.89,133V118.12h2.3v5.68a3.44,3.44,0,0,1,1.28-1.14,3.79,3.79,0,0,1,1.8-.42,3.72,3.72,0,0,1,2.05.56,3.68,3.68,0,0,1,1.35,1.58,5.59,5.59,0,0,1,.48,2.4V133h-2.3v-6a3.15,3.15,0,0,0-.57-2,1.91,1.91,0,0,0-1.59-.72,2.44,2.44,0,0,0-1.29.34,2.38,2.38,0,0,0-.89.92,2.77,2.77,0,0,0-.32,1.34V133Z"/><path class="cls-3" d="M690.21,133.08a1.5,1.5,0,0,1-1.31-.75,1.52,1.52,0,0,1,0-1.54,1.51,1.51,0,0,1,2.62,0,1.52,1.52,0,0,1,0,1.54,1.5,1.5,0,0,1-1.31.75Z"/></g></g><g id="Project_Asset_Management" data-name="Project Asset Management" class="cls-2"><g class="cls-2"><path class="cls-3" d="M148.25,68V43.15h8a12.5,12.5,0,0,1,5.24,1A7.58,7.58,0,0,1,164.83,47,8.39,8.39,0,0,1,166,51.55a8.15,8.15,0,0,1-.7,3.41,7.55,7.55,0,0,1-2,2.63,9.23,9.23,0,0,1-3.09,1.7,13,13,0,0,1-4,.59,17.75,17.75,0,0,1-2.8-.24V68Zm5.15-20.44v7.7a17.44,17.44,0,0,0,2.59.21,5.4,5.4,0,0,0,3.48-1,3.59,3.59,0,0,0,1.24-3,3.65,3.65,0,0,0-1.19-2.92,5,5,0,0,0-3.39-1Z"/><path class="cls-3" d="M169.43,68V49.52h4.51l.18,2.8A5.36,5.36,0,0,1,176,50.06a5,5,0,0,1,2.8-.78,5.47,5.47,0,0,1,1,.08,5.75,5.75,0,0,1,.87.23l-.52,4.83a3.64,3.64,0,0,0-.79-.19,5.56,5.56,0,0,0-.82,0,3.92,3.92,0,0,0-3.12,1.24,5.19,5.19,0,0,0-1.08,3.51V68Z"/><path class="cls-3" d="M192.25,68.53a9.78,9.78,0,0,1-3.82-.74,9.22,9.22,0,0,1-3-2.05,8.93,8.93,0,0,1-2-3.1,10.23,10.23,0,0,1-.72-3.88,10,10,0,0,1,.73-3.87,9.7,9.7,0,0,1,2.05-3.09,9.29,9.29,0,0,1,3.08-2.07,10,10,0,0,1,3.87-.73,9.73,9.73,0,0,1,3.81.73,9.23,9.23,0,0,1,5.06,5.13,10.65,10.65,0,0,1,0,7.75,9.54,9.54,0,0,1-2,3.11,9.39,9.39,0,0,1-3.08,2.07A10,10,0,0,1,192.25,68.53Zm.07-4.41a4.26,4.26,0,0,0,2.38-.7,5,5,0,0,0,1.66-1.91,6.5,6.5,0,0,0,0-5.5,4.88,4.88,0,0,0-1.66-1.9,4.4,4.4,0,0,0-4.76,0,4.8,4.8,0,0,0-1.66,1.9,6.41,6.41,0,0,0,0,5.5,4.9,4.9,0,0,0,1.66,1.91A4.24,4.24,0,0,0,192.32,64.12Z"/><path class="cls-3" d="M204.64,75.14a7.26,7.26,0,0,1-1.82-.23,6.18,6.18,0,0,1-1.61-.65l1-3.77a4.51,4.51,0,0,0,.79.29,3.1,3.1,0,0,0,.82.13,1.93,1.93,0,0,0,1.56-.67,2.92,2.92,0,0,0,.54-1.89V49.52h4.9V68.67a7.24,7.24,0,0,1-.77,3.39,5.59,5.59,0,0,1-2.16,2.28A6.37,6.37,0,0,1,204.64,75.14Zm6.51-30.63A2.75,2.75,0,0,1,209.78,47a2.8,2.8,0,1,1,0-4.87,2.75,2.75,0,0,1,1.37,2.43Z"/><path class="cls-3" d="M224,68.53a9.77,9.77,0,0,1-3.79-.72,8.8,8.8,0,0,1-3-2,9.45,9.45,0,0,1-2-3.12,10.91,10.91,0,0,1-.7-3.94,10.56,10.56,0,0,1,.7-3.84,9.53,9.53,0,0,1,1.94-3.1,8.87,8.87,0,0,1,2.93-2.05,9,9,0,0,1,3.64-.73,9.37,9.37,0,0,1,3.69.7,8,8,0,0,1,2.85,2,9.06,9.06,0,0,1,1.84,3.08,11.68,11.68,0,0,1,.65,4V60H219.51A5.53,5.53,0,0,0,221,63.22a4.06,4.06,0,0,0,3,1.17,4.47,4.47,0,0,0,2.29-.59,4.8,4.8,0,0,0,1.7-1.71l4.37,1.4a7.08,7.08,0,0,1-1.89,2.69,8.82,8.82,0,0,1-2.94,1.73A10.31,10.31,0,0,1,224,68.53Zm-.24-15.75a3.76,3.76,0,0,0-2.71,1,5.19,5.19,0,0,0-1.46,2.87h8.16a5,5,0,0,0-1.35-2.87A3.61,3.61,0,0,0,223.75,52.78Z"/><path class="cls-3" d="M245.1,68.53a9.43,9.43,0,0,1-3.7-.72,8.84,8.84,0,0,1-2.94-2,9.61,9.61,0,0,1-1.94-3.07,10.23,10.23,0,0,1-.7-3.83,10.4,10.4,0,0,1,.72-3.9,9.87,9.87,0,0,1,2-3.15A9.12,9.12,0,0,1,245.24,49a8.89,8.89,0,0,1,3.67.75,8,8,0,0,1,2.85,2.12,7.54,7.54,0,0,1,1.63,3.18l-4.65.91a4.46,4.46,0,0,0-1.47-1.87,3.54,3.54,0,0,0-2.14-.68,3.65,3.65,0,0,0-2.22.7,4.67,4.67,0,0,0-1.52,1.94,7.18,7.18,0,0,0,0,5.51,4.48,4.48,0,0,0,1.52,1.87,3.79,3.79,0,0,0,2.24.69,4.12,4.12,0,0,0,2.28-.67,4,4,0,0,0,1.5-1.89l4.66.91a7.31,7.31,0,0,1-1.7,3.22,8.44,8.44,0,0,1-3,2.1A9.69,9.69,0,0,1,245.1,68.53Z"/><path class="cls-3" d="M264.84,68.53a6.83,6.83,0,0,1-3.31-.76,5.23,5.23,0,0,1-2.14-2.18,7.51,7.51,0,0,1-.75-3.5V53.47h-3.15V49.52h3.15v-6.3h4.9v6.3h5v3.95h-5v8a3.29,3.29,0,0,0,.56,2,2,2,0,0,0,1.72.72,5,5,0,0,0,1.27-.18,9.31,9.31,0,0,0,1.32-.45l.87,3.67a8.54,8.54,0,0,1-4.44,1.23Z"/><path class="cls-3" d="M271.24,72,282.83,41.3h4.48L275.72,72Z"/><path class="cls-3" d="M286.26,68l9.87-24.85h5.53L311.56,68h-5.35l-2-5.46H293.43l-2,5.46Zm8.82-9.87h7.45l-3.74-9.91Z"/><path class="cls-3" d="M321.05,68.53a9.44,9.44,0,0,1-3.56-.64,7.4,7.4,0,0,1-2.69-1.78,6.15,6.15,0,0,1-1.52-2.73l4.41-1A3.19,3.19,0,0,0,319,64.15a3.7,3.7,0,0,0,2.17.63,3.43,3.43,0,0,0,2-.52,1.66,1.66,0,0,0,.77-1.44,1.54,1.54,0,0,0-.69-1.28,5.36,5.36,0,0,0-2.25-.78l-1-.18a8.84,8.84,0,0,1-4.57-2A4.74,4.74,0,0,1,313.8,55a5.38,5.38,0,0,1,.91-3.1,6.27,6.27,0,0,1,2.52-2.12,8.54,8.54,0,0,1,3.71-.76,9,9,0,0,1,3.38.61,6.83,6.83,0,0,1,2.54,1.73,6.23,6.23,0,0,1,1.4,2.7l-4.38.91a3.29,3.29,0,0,0-1.14-1.65,3.23,3.23,0,0,0-3.62-.07,1.59,1.59,0,0,0-.7,1.33,1.39,1.39,0,0,0,.68,1.17,6.09,6.09,0,0,0,2.33.76l1,.17a8.84,8.84,0,0,1,4.55,2,4.81,4.81,0,0,1,1.58,3.69,5.55,5.55,0,0,1-.55,2.49,5.93,5.93,0,0,1-1.55,2,7.28,7.28,0,0,1-2.38,1.29A9.6,9.6,0,0,1,321.05,68.53Z"/><path class="cls-3" d="M338.76,68.53a9.44,9.44,0,0,1-3.56-.64,7.4,7.4,0,0,1-2.69-1.78A6.15,6.15,0,0,1,331,63.38l4.41-1a3.19,3.19,0,0,0,1.26,1.72,3.7,3.7,0,0,0,2.17.63,3.43,3.43,0,0,0,2-.52,1.66,1.66,0,0,0,.77-1.44,1.54,1.54,0,0,0-.69-1.28,5.36,5.36,0,0,0-2.25-.78l-1-.18a8.84,8.84,0,0,1-4.57-2A4.74,4.74,0,0,1,331.51,55a5.38,5.38,0,0,1,.91-3.1,6.27,6.27,0,0,1,2.52-2.12,8.54,8.54,0,0,1,3.71-.76,9,9,0,0,1,3.38.61,6.83,6.83,0,0,1,2.54,1.73A6.23,6.23,0,0,1,346,54l-4.38.91a3.29,3.29,0,0,0-1.14-1.65,3.23,3.23,0,0,0-3.62-.07,1.59,1.59,0,0,0-.7,1.33,1.39,1.39,0,0,0,.68,1.17,6.09,6.09,0,0,0,2.33.76l1,.17a8.84,8.84,0,0,1,4.55,2,4.81,4.81,0,0,1,1.58,3.69,5.55,5.55,0,0,1-.55,2.49,5.93,5.93,0,0,1-1.55,2,7.28,7.28,0,0,1-2.38,1.29A9.6,9.6,0,0,1,338.76,68.53Z"/><path class="cls-3" d="M358.57,68.53a9.78,9.78,0,0,1-3.8-.72,8.76,8.76,0,0,1-3-2,9.29,9.29,0,0,1-2-3.12,10.7,10.7,0,0,1-.7-3.94,10.36,10.36,0,0,1,.7-3.84,9.21,9.21,0,0,1,1.94-3.1,8.82,8.82,0,0,1,2.92-2.05,9,9,0,0,1,3.64-.73,9.34,9.34,0,0,1,3.69.7,8.1,8.1,0,0,1,2.86,2,9,9,0,0,1,1.83,3.08,11.68,11.68,0,0,1,.65,4V60H354.09a5.58,5.58,0,0,0,1.5,3.23,4.08,4.08,0,0,0,3,1.17,4.47,4.47,0,0,0,2.29-.59,4.72,4.72,0,0,0,1.7-1.71l4.38,1.4a7.08,7.08,0,0,1-1.89,2.69,8.82,8.82,0,0,1-2.94,1.73A10.31,10.31,0,0,1,358.57,68.53Zm-.25-15.75a3.77,3.77,0,0,0-2.71,1,5.11,5.11,0,0,0-1.45,2.87h8.15A5,5,0,0,0,361,53.83,3.61,3.61,0,0,0,358.32,52.78Z"/><path class="cls-3" d="M378.73,68.53a6.83,6.83,0,0,1-3.31-.76,5.23,5.23,0,0,1-2.14-2.18,7.51,7.51,0,0,1-.75-3.5V53.47h-3.15V49.52h3.15v-6.3h4.9v6.3h5v3.95h-5v8a3.29,3.29,0,0,0,.56,2,2,2,0,0,0,1.72.72,5,5,0,0,0,1.27-.18,9.31,9.31,0,0,0,1.32-.45l.87,3.67a8.54,8.54,0,0,1-4.44,1.23Z"/><path class="cls-3" d="M394.72,68V43.15h4.9l7.84,14.35,7.88-14.35h4.72V68h-5V52.29l-5.78,10.53h-3.7l-5.78-10.53V68Z"/><path class="cls-3" d="M430.53,68.53a7.84,7.84,0,0,1-2.63-.42,6.32,6.32,0,0,1-2.08-1.21,5.47,5.47,0,0,1-1.38-1.84,5.35,5.35,0,0,1-.49-2.31,5.18,5.18,0,0,1,.94-3.08,6.23,6.23,0,0,1,2.66-2.08,9.86,9.86,0,0,1,4-.75,11,11,0,0,1,2.19.21,10.78,10.78,0,0,1,2,.59V56.55a3.67,3.67,0,0,0-.89-2.55,3.16,3.16,0,0,0-2.44-1,3.9,3.9,0,0,0-2.09.58A3.08,3.08,0,0,0,429,55.22l-4.38-.87a6.18,6.18,0,0,1,1.52-2.82,7.84,7.84,0,0,1,2.78-1.87,9.54,9.54,0,0,1,3.58-.66,9.16,9.16,0,0,1,3.25.55,7.37,7.37,0,0,1,2.54,1.62,7.22,7.22,0,0,1,1.64,2.46,8.25,8.25,0,0,1,.58,3.17V68h-4.38L436,65.83a5.61,5.61,0,0,1-2.14,1.94A6.93,6.93,0,0,1,430.53,68.53Zm-1.75-6a2,2,0,0,0,.8,1.61,3.37,3.37,0,0,0,2.13.63,4.36,4.36,0,0,0,2.07-.49,3.65,3.65,0,0,0,1.43-1.35,3.5,3.5,0,0,0,.53-1.91v-.17a10,10,0,0,0-1.65-.51,8,8,0,0,0-1.75-.19,4.61,4.61,0,0,0-2.6.64A2,2,0,0,0,428.78,62.51Z"/><path class="cls-3" d="M445,68V49.52h4.51l.14,2.38a6,6,0,0,1,2.22-2.12,6.64,6.64,0,0,1,3.24-.78,6.51,6.51,0,0,1,3.55,1A6.35,6.35,0,0,1,461,52.71a9.74,9.74,0,0,1,.84,4.2V68h-4.91V57.54a4.75,4.75,0,0,0-.87-3,2.9,2.9,0,0,0-2.42-1.1,3.54,3.54,0,0,0-3.29,1.92,4.38,4.38,0,0,0-.49,2.06V68Z"/><path class="cls-3" d="M472,68.53a7.83,7.83,0,0,1-2.62-.42,6.32,6.32,0,0,1-2.08-1.21,5.63,5.63,0,0,1-1.39-1.84,5.5,5.5,0,0,1-.49-2.31,5.19,5.19,0,0,1,.95-3.08A6.23,6.23,0,0,1,469,57.59a9.86,9.86,0,0,1,4-.75,11,11,0,0,1,2.19.21,10.78,10.78,0,0,1,2,.59V56.55a3.67,3.67,0,0,0-.89-2.55,3.15,3.15,0,0,0-2.43-1,3.92,3.92,0,0,0-2.11.58,3.12,3.12,0,0,0-1.33,1.62l-4.37-.87a6.18,6.18,0,0,1,1.52-2.82,7.79,7.79,0,0,1,2.79-1.87,9.43,9.43,0,0,1,3.56-.66,9.14,9.14,0,0,1,3.26.55,7.37,7.37,0,0,1,2.54,1.62,7.22,7.22,0,0,1,1.64,2.46,8.25,8.25,0,0,1,.58,3.17V68h-4.37l-.15-2.17a5.51,5.51,0,0,1-2.13,1.94A6.94,6.94,0,0,1,472,68.53Zm-1.75-6a2,2,0,0,0,.81,1.61,3.38,3.38,0,0,0,2.14.63,4.38,4.38,0,0,0,2.06-.49,3.82,3.82,0,0,0,1.44-1.35,3.67,3.67,0,0,0,.52-1.91v-.17a10.13,10.13,0,0,0-1.64-.51,8.08,8.08,0,0,0-1.75-.19,4.62,4.62,0,0,0-2.61.64A2,2,0,0,0,470.21,62.51Z"/><path class="cls-3" d="M494,67.47a7.8,7.8,0,0,1-3.27-.69,8,8,0,0,1-2.64-2,8.92,8.92,0,0,1-1.75-2.9,10.08,10.08,0,0,1-.64-3.59,10.29,10.29,0,0,1,.65-3.69,9,9,0,0,1,1.82-3,8.62,8.62,0,0,1,2.73-2,8,8,0,0,1,3.38-.71,7.08,7.08,0,0,1,3.22.71,6.28,6.28,0,0,1,2.38,2.09l.1-2.28h4.52V65.8a10.71,10.71,0,0,1-.68,3.88,8.49,8.49,0,0,1-4.94,4.95,10.24,10.24,0,0,1-3.83.69,10.09,10.09,0,0,1-3.71-.65,8.84,8.84,0,0,1-2.87-1.8,8.32,8.32,0,0,1-1.92-2.7L491.21,69a4.71,4.71,0,0,0,1.63,1.6,4.49,4.49,0,0,0,2.26.57,4.39,4.39,0,0,0,2.36-.61A4.17,4.17,0,0,0,499,68.86a5.69,5.69,0,0,0,.56-2.57V64.78a6.62,6.62,0,0,1-2.4,2A7.09,7.09,0,0,1,494,67.47Zm1.19-4.33a4.12,4.12,0,0,0,2.29-.65,4.63,4.63,0,0,0,1.59-1.75,5.53,5.53,0,0,0,0-5A4.63,4.63,0,0,0,497.46,54a4.42,4.42,0,0,0-4.58,0,4.63,4.63,0,0,0-1.59,1.75,5.53,5.53,0,0,0,0,5,4.63,4.63,0,0,0,1.59,1.75A4.12,4.12,0,0,0,495.17,63.14Z"/><path class="cls-3" d="M517.67,68.53a9.77,9.77,0,0,1-3.79-.72,8.8,8.8,0,0,1-3-2,9.45,9.45,0,0,1-2-3.12,10.91,10.91,0,0,1-.7-3.94,10.56,10.56,0,0,1,.7-3.84,9.39,9.39,0,0,1,1.95-3.1,8.82,8.82,0,0,1,2.92-2.05,9,9,0,0,1,3.64-.73,9.37,9.37,0,0,1,3.69.7,8,8,0,0,1,2.85,2,8.9,8.9,0,0,1,1.84,3.08,11.68,11.68,0,0,1,.65,4V60H513.19a5.59,5.59,0,0,0,1.51,3.23,4.08,4.08,0,0,0,3,1.17A4.47,4.47,0,0,0,520,63.8a4.72,4.72,0,0,0,1.7-1.71l4.37,1.4a7.08,7.08,0,0,1-1.89,2.69,8.82,8.82,0,0,1-2.94,1.73A10.31,10.31,0,0,1,517.67,68.53Zm-.24-15.75a3.77,3.77,0,0,0-2.71,1,5.19,5.19,0,0,0-1.46,2.87h8.16a5,5,0,0,0-1.35-2.87A3.61,3.61,0,0,0,517.43,52.78Z"/><path class="cls-3" d="M530,68V49.52h4.51l.14,2.35a5.93,5.93,0,0,1,2.17-2.11,6.2,6.2,0,0,1,3.08-.76,6,6,0,0,1,5.57,3.43,6.45,6.45,0,0,1,2.43-2.49,7,7,0,0,1,3.66-.94,6.48,6.48,0,0,1,3.57,1,6.27,6.27,0,0,1,2.33,2.75,9.9,9.9,0,0,1,.82,4.2V68h-4.9V57.54a4.87,4.87,0,0,0-.84-3,2.77,2.77,0,0,0-2.35-1.1,3.39,3.39,0,0,0-3.15,1.92,4.62,4.62,0,0,0-.45,2.06V68h-4.9V57.54a4.87,4.87,0,0,0-.84-3,2.77,2.77,0,0,0-2.35-1.1,3.39,3.39,0,0,0-3.15,1.92,4.62,4.62,0,0,0-.45,2.06V68Z"/><path class="cls-3" d="M571.5,68.53a9.77,9.77,0,0,1-3.79-.72,8.8,8.8,0,0,1-3-2,9.45,9.45,0,0,1-2-3.12,10.91,10.91,0,0,1-.7-3.94,10.56,10.56,0,0,1,.7-3.84,9.39,9.39,0,0,1,2-3.1,8.82,8.82,0,0,1,2.92-2.05,9,9,0,0,1,3.64-.73,9.37,9.37,0,0,1,3.69.7,8,8,0,0,1,2.85,2,8.9,8.9,0,0,1,1.84,3.08,11.68,11.68,0,0,1,.65,4V60H567a5.59,5.59,0,0,0,1.51,3.23,4.08,4.08,0,0,0,3,1.17,4.47,4.47,0,0,0,2.29-.59,4.72,4.72,0,0,0,1.7-1.71l4.37,1.4A7.08,7.08,0,0,1,578,66.18a8.82,8.82,0,0,1-2.94,1.73A10.31,10.31,0,0,1,571.5,68.53Zm-.24-15.75a3.77,3.77,0,0,0-2.71,1,5.19,5.19,0,0,0-1.46,2.87h8.16a5,5,0,0,0-1.35-2.87A3.61,3.61,0,0,0,571.26,52.78Z"/><path class="cls-3" d="M583.86,68V49.52h4.51l.14,2.38a5.91,5.91,0,0,1,2.23-2.12,7.08,7.08,0,0,1,6.79.18,6.33,6.33,0,0,1,2.36,2.75,9.74,9.74,0,0,1,.84,4.2V68h-4.9V57.54a4.69,4.69,0,0,0-.88-3,2.88,2.88,0,0,0-2.41-1.1,3.69,3.69,0,0,0-2,.5,3.65,3.65,0,0,0-1.33,1.42,4.27,4.27,0,0,0-.49,2.06V68Z"/><path class="cls-3" d="M612.66,68.53a6.82,6.82,0,0,1-3.3-.76,5.12,5.12,0,0,1-2.14-2.18,7.51,7.51,0,0,1-.75-3.5V53.47h-3.15V49.52h3.15v-6.3h4.9v6.3h5v3.95h-5v8a3.29,3.29,0,0,0,.56,2,2,2,0,0,0,1.71.72,5,5,0,0,0,1.28-.18,9.18,9.18,0,0,0,1.31-.45l.88,3.67a8.54,8.54,0,0,1-4.45,1.23Z"/></g></g></g></svg>