<svg id="Layer_1" data-name="Layer 1" xmlns="http://www.w3.org/2000/svg" xmlns:xlink="http://www.w3.org/1999/xlink" viewBox="0 0 763 173"><defs><style>.cls-1{fill:url(#linear-gradient);}.cls-2{isolation:isolate;}.cls-3{fill:#f7f5f5;}</style><linearGradient id="linear-gradient" x1="-722.3" y1="4460.18" x2="-721.31" y2="4459.26" gradientTransform="matrix(763, 0, 0, -173, 551129.54, 771620.43)" gradientUnits="userSpaceOnUse"><stop offset="0" stop-color="#7ba9de"/><stop offset="1" stop-color="#519aed"/></linearGradient></defs><title>pp3</title><g id="Group_348" data-name="Group 348"><rect id="Rectangle_105-2" data-name="Rectangle 105-2" class="cls-1" width="763" height="173"/><g id="Users_need_a_way_to_recover_or_revert_files_in_order_to_avoid_unnecessary_strain_and_work." data-name="Users need a way to recover or revert files in order to avoid unnecessary strain and work." class="cls-2"><g class="cls-2"><path class="cls-3" d="M131.49,109.4a6.68,6.68,0,0,1-2.44-.42,5.11,5.11,0,0,1-1.85-1.22,5.4,5.4,0,0,1-1.18-1.91,7.22,7.22,0,0,1-.41-2.49V94.8h2.44v8.46a4.58,4.58,0,0,0,.43,2.07,3.24,3.24,0,0,0,1.21,1.35,3.77,3.77,0,0,0,3.68,0,3.24,3.24,0,0,0,1.21-1.35,4.58,4.58,0,0,0,.43-2.07V94.8h2.44v8.56a7,7,0,0,1-.42,2.49,5.29,5.29,0,0,1-1.21,1.9,5.45,5.45,0,0,1-1.88,1.22A6.56,6.56,0,0,1,131.49,109.4Z"/><path class="cls-3" d="M143.79,109.3a5.08,5.08,0,0,1-1.89-.34,4.19,4.19,0,0,1-1.48-1,3.56,3.56,0,0,1-.87-1.49l2.08-.54a2.11,2.11,0,0,0,.84,1.06,2.42,2.42,0,0,0,1.34.38,2.07,2.07,0,0,0,1.28-.37,1.14,1.14,0,0,0,.5-1,1.06,1.06,0,0,0-.4-.84,2.79,2.79,0,0,0-1.3-.5l-.66-.12a5,5,0,0,1-2.53-1.08,2.59,2.59,0,0,1-.85-2,3,3,0,0,1,.5-1.72,3.36,3.36,0,0,1,1.38-1.16,5,5,0,0,1,3.82-.08,3.81,3.81,0,0,1,1.38,1,3.65,3.65,0,0,1,.8,1.46l-2.06.5a2.14,2.14,0,0,0-.75-1,2,2,0,0,0-1.19-.37,1.88,1.88,0,0,0-1.16.35,1.06,1.06,0,0,0-.46.89.91.91,0,0,0,.41.76,3.55,3.55,0,0,0,1.39.48l.66.12a4.61,4.61,0,0,1,2.46,1.1,2.73,2.73,0,0,1,.86,2,3.16,3.16,0,0,1-.3,1.37,3.23,3.23,0,0,1-.85,1.1,4,4,0,0,1-1.3.72A5.1,5.1,0,0,1,143.79,109.3Z"/><path class="cls-3" d="M154.93,109.3a5.5,5.5,0,0,1-2.13-.41,5.07,5.07,0,0,1-1.69-1.15A5.13,5.13,0,0,1,150,106a6.14,6.14,0,0,1-.39-2.23,6,6,0,0,1,.39-2.18,5.48,5.48,0,0,1,1.08-1.75,4.88,4.88,0,0,1,1.63-1.17,5,5,0,0,1,2-.42,5.07,5.07,0,0,1,2,.39,4.62,4.62,0,0,1,1.58,1.11,4.92,4.92,0,0,1,1,1.71,6.37,6.37,0,0,1,.36,2.19v.68H152a4.07,4.07,0,0,0,.49,1.59,2.69,2.69,0,0,0,2.45,1.39,2.88,2.88,0,0,0,2.56-1.46l2,.78a4.08,4.08,0,0,1-1,1.43,4.64,4.64,0,0,1-1.6.93A5.88,5.88,0,0,1,154.93,109.3Zm-.18-9.2a2.47,2.47,0,0,0-1.25.32,2.66,2.66,0,0,0-.93.9,3.64,3.64,0,0,0-.52,1.36h5.28a3.77,3.77,0,0,0-.46-1.36,2.4,2.4,0,0,0-.89-.9A2.45,2.45,0,0,0,154.75,100.1Z"/><path class="cls-3" d="M162,109V98.54h2.1l.1,1.72a3.3,3.3,0,0,1,1.11-1.37A2.84,2.84,0,0,1,167,98.4a3.69,3.69,0,0,1,.58,0,1.83,1.83,0,0,1,.5.14l-.26,2.24a2.37,2.37,0,0,0-.46-.11,3.87,3.87,0,0,0-.48,0,2.34,2.34,0,0,0-1.88.8,3.33,3.33,0,0,0-.68,2.22V109Z"/><path class="cls-3" d="M173.59,109.3a5.08,5.08,0,0,1-1.89-.34,4.1,4.1,0,0,1-1.48-1,3.56,3.56,0,0,1-.87-1.49l2.08-.54a2.11,2.11,0,0,0,.84,1.06,2.42,2.42,0,0,0,1.34.38,2.07,2.07,0,0,0,1.28-.37,1.14,1.14,0,0,0,.5-1,1.06,1.06,0,0,0-.4-.84,2.79,2.79,0,0,0-1.3-.5l-.66-.12a5,5,0,0,1-2.53-1.08,2.59,2.59,0,0,1-.85-2,3,3,0,0,1,.5-1.72,3.36,3.36,0,0,1,1.38-1.16,5,5,0,0,1,3.82-.08,3.81,3.81,0,0,1,1.38,1,3.65,3.65,0,0,1,.8,1.46l-2.06.5a2.14,2.14,0,0,0-.75-1,2,2,0,0,0-1.19-.37,1.88,1.88,0,0,0-1.16.35,1.06,1.06,0,0,0-.46.89.89.89,0,0,0,.41.76,3.55,3.55,0,0,0,1.39.48l.66.12a4.61,4.61,0,0,1,2.46,1.1,2.73,2.73,0,0,1,.86,2,3.16,3.16,0,0,1-.3,1.37,3.23,3.23,0,0,1-.85,1.1,4,4,0,0,1-1.3.72A5.1,5.1,0,0,1,173.59,109.3Z"/><path class="cls-3" d="M184.41,109V98.54h2.1l.08,1.44a3.42,3.42,0,0,1,1.29-1.27,3.83,3.83,0,0,1,1.91-.47,3.72,3.72,0,0,1,2.05.56,3.68,3.68,0,0,1,1.35,1.58,5.59,5.59,0,0,1,.48,2.4V109h-2.3v-6a3.15,3.15,0,0,0-.57-2,1.91,1.91,0,0,0-1.59-.72,2.44,2.44,0,0,0-1.29.34,2.38,2.38,0,0,0-.89.92,2.77,2.77,0,0,0-.32,1.34V109Z"/><path class="cls-3" d="M201.29,109.3a5.5,5.5,0,0,1-2.13-.41,5.07,5.07,0,0,1-1.69-1.15,5.13,5.13,0,0,1-1.11-1.75,6.14,6.14,0,0,1-.39-2.23,6,6,0,0,1,.39-2.18,5.48,5.48,0,0,1,1.08-1.75,4.88,4.88,0,0,1,1.63-1.17,4.93,4.93,0,0,1,2-.42,5.07,5.07,0,0,1,2,.39,4.62,4.62,0,0,1,1.58,1.11,4.92,4.92,0,0,1,1,1.71,6.37,6.37,0,0,1,.36,2.19v.68h-7.74a4.07,4.07,0,0,0,.49,1.59,2.69,2.69,0,0,0,2.45,1.39,2.88,2.88,0,0,0,2.56-1.46l2,.78a4.08,4.08,0,0,1-1.05,1.43,4.64,4.64,0,0,1-1.6.93A5.88,5.88,0,0,1,201.29,109.3Zm-.18-9.2a2.47,2.47,0,0,0-1.25.32,2.66,2.66,0,0,0-.93.9,3.64,3.64,0,0,0-.52,1.36h5.28a4,4,0,0,0-.46-1.36,2.48,2.48,0,0,0-.89-.9A2.45,2.45,0,0,0,201.11,100.1Z"/><path class="cls-3" d="M213.29,109.3a5.46,5.46,0,0,1-2.13-.41,5.07,5.07,0,0,1-1.69-1.15,5.13,5.13,0,0,1-1.11-1.75,6.14,6.14,0,0,1-.39-2.23,6,6,0,0,1,.39-2.18,5.48,5.48,0,0,1,1.08-1.75,4.88,4.88,0,0,1,1.63-1.17,4.93,4.93,0,0,1,2-.42,5.07,5.07,0,0,1,2,.39,4.72,4.72,0,0,1,1.58,1.11,5.08,5.08,0,0,1,1,1.71,6.37,6.37,0,0,1,.36,2.19v.68h-7.74a3.91,3.91,0,0,0,.49,1.59,2.69,2.69,0,0,0,2.45,1.39,2.89,2.89,0,0,0,2.56-1.46l2,.78a4.08,4.08,0,0,1-1.05,1.43,4.64,4.64,0,0,1-1.6.93A5.88,5.88,0,0,1,213.29,109.3Zm-.18-9.2a2.45,2.45,0,0,0-1.25.32,2.66,2.66,0,0,0-.93.9,3.48,3.48,0,0,0-.52,1.36h5.28a4,4,0,0,0-.46-1.36,2.48,2.48,0,0,0-.89-.9A2.45,2.45,0,0,0,213.11,100.1Z"/><path class="cls-3" d="M224.85,109.3a4.43,4.43,0,0,1-1.93-.42,4.78,4.78,0,0,1-1.55-1.16,5.21,5.21,0,0,1-1-1.74,6.52,6.52,0,0,1,0-4.36,5.4,5.4,0,0,1,1.06-1.78A4.72,4.72,0,0,1,223,98.66a4.61,4.61,0,0,1,2-.42,4.18,4.18,0,0,1,1.9.44,3.93,3.93,0,0,1,1.42,1.24v-5.8h2.3V109h-2.1l-.1-1.68a4.19,4.19,0,0,1-1.48,1.45A4.1,4.1,0,0,1,224.85,109.3Zm.48-2.08a2.75,2.75,0,0,0,1.54-.45,3.13,3.13,0,0,0,1.07-1.23,4.21,4.21,0,0,0,0-3.54,3.13,3.13,0,0,0-1.07-1.23,2.75,2.75,0,0,0-1.54-.45,2.7,2.7,0,0,0-1.54.45,3.05,3.05,0,0,0-1.07,1.23,4.21,4.21,0,0,0,0,3.54,3.05,3.05,0,0,0,1.07,1.23A2.7,2.7,0,0,0,225.33,107.22Z"/><path class="cls-3" d="M241.09,109.3a4.28,4.28,0,0,1-1.47-.24,3.57,3.57,0,0,1-1.17-.68,3.07,3.07,0,0,1-1.06-2.36,2.9,2.9,0,0,1,.53-1.75,3.46,3.46,0,0,1,1.49-1.17,5.53,5.53,0,0,1,2.24-.42,6.48,6.48,0,0,1,1.34.13,7.17,7.17,0,0,1,1.22.37v-.66a2.79,2.79,0,0,0-.26-1.23,2.06,2.06,0,0,0-.74-.83,2.15,2.15,0,0,0-1.16-.3,2.33,2.33,0,0,0-1.3.38,2.2,2.2,0,0,0-.86,1.06l-2.12-.48a3.41,3.41,0,0,1,.87-1.52,4.33,4.33,0,0,1,1.52-1,5.06,5.06,0,0,1,1.93-.36,4.91,4.91,0,0,1,1.79.32,4,4,0,0,1,1.39.9,4.34,4.34,0,0,1,.9,1.38,4.82,4.82,0,0,1,.32,1.78V109h-2.1l-.08-1.38a3.09,3.09,0,0,1-1.26,1.22A4,4,0,0,1,241.09,109.3Zm-1.38-3.38a1.36,1.36,0,0,0,.24.79,1.6,1.6,0,0,0,.67.55,2.39,2.39,0,0,0,1,.2,2.74,2.74,0,0,0,1.32-.32,2.48,2.48,0,0,0,.92-.87,2.39,2.39,0,0,0,.34-1.25v-.24a7,7,0,0,0-1.07-.35,4.78,4.78,0,0,0-1.13-.13,2.87,2.87,0,0,0-1.67.44A1.37,1.37,0,0,0,239.71,105.92Z"/><path class="cls-3" d="M256.31,109l-3.48-10.46h2.4l2.22,7.64,2.34-7.64h2.06l2.32,7.64,2.26-7.64h2.32L265.25,109h-2.16l-2.3-7.6-2.32,7.6Z"/><path class="cls-3" d="M273.43,109.3a4.28,4.28,0,0,1-1.47-.24,3.57,3.57,0,0,1-1.17-.68,2.94,2.94,0,0,1-.78-1,3,3,0,0,1-.28-1.32,2.9,2.9,0,0,1,.53-1.75,3.46,3.46,0,0,1,1.49-1.17,5.53,5.53,0,0,1,2.24-.42,6.55,6.55,0,0,1,1.34.13,7.17,7.17,0,0,1,1.22.37v-.66a2.79,2.79,0,0,0-.26-1.23,2.06,2.06,0,0,0-.74-.83,2.15,2.15,0,0,0-1.16-.3,2.33,2.33,0,0,0-1.3.38,2.2,2.2,0,0,0-.86,1.06l-2.12-.48A3.41,3.41,0,0,1,271,99.6a4.33,4.33,0,0,1,1.52-1,5.06,5.06,0,0,1,1.93-.36,4.91,4.91,0,0,1,1.79.32,4,4,0,0,1,1.39.9,4.34,4.34,0,0,1,.9,1.38,4.82,4.82,0,0,1,.32,1.78V109h-2.1l-.08-1.38a3.09,3.09,0,0,1-1.26,1.22A4,4,0,0,1,273.43,109.3Zm-1.38-3.38a1.36,1.36,0,0,0,.24.79,1.6,1.6,0,0,0,.67.55,2.39,2.39,0,0,0,1,.2,2.74,2.74,0,0,0,1.32-.32,2.48,2.48,0,0,0,.92-.87,2.39,2.39,0,0,0,.34-1.25v-.24a7,7,0,0,0-1.07-.35,4.78,4.78,0,0,0-1.13-.13,2.87,2.87,0,0,0-1.67.44A1.37,1.37,0,0,0,272.05,105.92Z"/><path class="cls-3" d="M282.65,113.16a3.84,3.84,0,0,1-.93-.1,3.1,3.1,0,0,1-.83-.32l.5-1.82a2.65,2.65,0,0,0,.5.17,2,2,0,0,0,.54.07,1.67,1.67,0,0,0,1.05-.34,2.48,2.48,0,0,0,.75-1.1l.32-.82-4.26-10.36h2.52l2.82,7.82,2.56-7.82h2.44l-4.44,11.72a5.18,5.18,0,0,1-1.45,2.2A3.22,3.22,0,0,1,282.65,113.16Z"/><path class="cls-3" d="M301.29,109.3a3.31,3.31,0,0,1-2.48-.91,3.57,3.57,0,0,1-.9-2.61V100.4h-1.84V98.54h1.84V95h2.3v3.54h3v1.86h-3v5.14a2,2,0,0,0,.35,1.29,1.21,1.21,0,0,0,1,.45,3.25,3.25,0,0,0,.78-.11,3.34,3.34,0,0,0,.78-.31l.52,1.74a4.24,4.24,0,0,1-1.07.51A4.32,4.32,0,0,1,301.29,109.3Z"/><path class="cls-3" d="M310.43,109.3a5.4,5.4,0,0,1-2.11-.41,5,5,0,0,1-1.69-1.16,5.29,5.29,0,0,1-1.12-1.76,5.87,5.87,0,0,1-.4-2.21,5.8,5.8,0,0,1,.4-2.19,5.16,5.16,0,0,1,1.13-1.76,5,5,0,0,1,1.72-1.16,5.6,5.6,0,0,1,2.15-.41,5.44,5.44,0,0,1,2.11.41,5.05,5.05,0,0,1,1.69,1.16,5.41,5.41,0,0,1,1.12,1.75,6.28,6.28,0,0,1,0,4.41,5.48,5.48,0,0,1-1.13,1.76,5.07,5.07,0,0,1-1.72,1.16A5.64,5.64,0,0,1,310.43,109.3Zm0-2.08a2.75,2.75,0,0,0,1.54-.45,3.13,3.13,0,0,0,1.07-1.23,3.92,3.92,0,0,0,.39-1.78,3.85,3.85,0,0,0-.39-1.77,3.17,3.17,0,0,0-1.07-1.22,2.75,2.75,0,0,0-1.54-.45,2.7,2.7,0,0,0-1.54.45,3.09,3.09,0,0,0-1.07,1.22,3.85,3.85,0,0,0-.39,1.77,3.92,3.92,0,0,0,.39,1.78,3.05,3.05,0,0,0,1.07,1.23A2.7,2.7,0,0,0,310.47,107.22Z"/><path class="cls-3" d="M322.67,109V98.54h2.1l.1,1.72A3.16,3.16,0,0,1,326,98.89a2.84,2.84,0,0,1,1.67-.49,3.69,3.69,0,0,1,.58,0,1.94,1.94,0,0,1,.5.14l-.26,2.24a2.37,2.37,0,0,0-.46-.11,3.87,3.87,0,0,0-.48,0,2.34,2.34,0,0,0-1.88.8,3.28,3.28,0,0,0-.68,2.22V109Z"/><path class="cls-3" d="M335.25,109.3a5.43,5.43,0,0,1-2.13-.41,5.07,5.07,0,0,1-1.69-1.15,5.13,5.13,0,0,1-1.11-1.75,6.14,6.14,0,0,1-.39-2.23,6,6,0,0,1,.39-2.18,5.48,5.48,0,0,1,1.08-1.75,4.91,4.91,0,0,1,3.67-1.59,5.07,5.07,0,0,1,2,.39,4.72,4.72,0,0,1,1.58,1.11,5.08,5.08,0,0,1,1,1.71,6.37,6.37,0,0,1,.36,2.19v.68h-7.74a3.91,3.91,0,0,0,.49,1.59,2.7,2.7,0,0,0,1,1,2.8,2.8,0,0,0,1.44.36,2.89,2.89,0,0,0,2.56-1.46l2,.78a4.08,4.08,0,0,1-1.05,1.43,4.74,4.74,0,0,1-1.6.93A5.88,5.88,0,0,1,335.25,109.3Zm-.18-9.2a2.45,2.45,0,0,0-1.25.32,2.66,2.66,0,0,0-.93.9,3.48,3.48,0,0,0-.52,1.36h5.28a4,4,0,0,0-.46-1.36,2.48,2.48,0,0,0-.89-.9A2.45,2.45,0,0,0,335.07,100.1Z"/><path class="cls-3" d="M347.11,109.3a5.12,5.12,0,0,1-2.06-.41,4.84,4.84,0,0,1-1.64-1.14,5.14,5.14,0,0,1-1.09-1.73,6.27,6.27,0,0,1,0-4.38,5.5,5.5,0,0,1,1.1-1.78,5.12,5.12,0,0,1,5.7-1.23,4.61,4.61,0,0,1,1.55,1.1,4.22,4.22,0,0,1,.93,1.67l-2.18.52a2.81,2.81,0,0,0-.95-1.18,2.38,2.38,0,0,0-1.37-.42,2.36,2.36,0,0,0-1.44.46,3.06,3.06,0,0,0-1,1.25,4.47,4.47,0,0,0,0,3.54,3,3,0,0,0,1,1.21,2.53,2.53,0,0,0,1.47.44,2.75,2.75,0,0,0,1.46-.41,2.47,2.47,0,0,0,1-1.17l2.16.5a4,4,0,0,1-1,1.67,4.9,4.9,0,0,1-1.62,1.1A5.23,5.23,0,0,1,347.11,109.3Z"/><path class="cls-3" d="M358.67,109.3a5.4,5.4,0,0,1-2.11-.41,5,5,0,0,1-1.69-1.16,5.29,5.29,0,0,1-1.12-1.76,5.87,5.87,0,0,1-.4-2.21,5.8,5.8,0,0,1,.4-2.19,5.16,5.16,0,0,1,1.13-1.76,5,5,0,0,1,1.72-1.16,5.6,5.6,0,0,1,2.15-.41,5.44,5.44,0,0,1,2.11.41,5.05,5.05,0,0,1,1.69,1.16,5.41,5.41,0,0,1,1.12,1.75,6.28,6.28,0,0,1,0,4.41,5.48,5.48,0,0,1-1.13,1.76,5.07,5.07,0,0,1-1.72,1.16A5.64,5.64,0,0,1,358.67,109.3Zm0-2.08a2.75,2.75,0,0,0,1.54-.45,3.13,3.13,0,0,0,1.07-1.23,3.92,3.92,0,0,0,.39-1.78,3.85,3.85,0,0,0-.39-1.77,3.17,3.17,0,0,0-1.07-1.22,2.75,2.75,0,0,0-1.54-.45,2.7,2.7,0,0,0-1.54.45A3.09,3.09,0,0,0,356.1,102a3.85,3.85,0,0,0-.39,1.77,3.92,3.92,0,0,0,.39,1.78,3.05,3.05,0,0,0,1.07,1.23A2.7,2.7,0,0,0,358.71,107.22Z"/><path class="cls-3" d="M369.09,109l-4-10.46h2.52l2.68,8.06,2.7-8.06h2.44l-4,10.46Z"/><path class="cls-3" d="M381.77,109.3a5.43,5.43,0,0,1-2.13-.41,5.07,5.07,0,0,1-1.69-1.15,5.13,5.13,0,0,1-1.11-1.75,6.14,6.14,0,0,1-.39-2.23,6,6,0,0,1,.39-2.18,5.48,5.48,0,0,1,1.08-1.75,4.91,4.91,0,0,1,3.67-1.59,5.07,5.07,0,0,1,2,.39,4.72,4.72,0,0,1,1.58,1.11,5.08,5.08,0,0,1,1,1.71,6.37,6.37,0,0,1,.36,2.19v.68h-7.74a3.91,3.91,0,0,0,.49,1.59,2.7,2.7,0,0,0,1,1,2.8,2.8,0,0,0,1.44.36,2.89,2.89,0,0,0,2.56-1.46l2,.78a4.08,4.08,0,0,1-1.05,1.43,4.74,4.74,0,0,1-1.6.93A5.88,5.88,0,0,1,381.77,109.3Zm-.18-9.2a2.45,2.45,0,0,0-1.25.32,2.66,2.66,0,0,0-.93.9,3.48,3.48,0,0,0-.52,1.36h5.28a4,4,0,0,0-.46-1.36,2.48,2.48,0,0,0-.89-.9A2.45,2.45,0,0,0,381.59,100.1Z"/><path class="cls-3" d="M388.81,109V98.54h2.1l.1,1.72a3.16,3.16,0,0,1,1.11-1.37,2.84,2.84,0,0,1,1.67-.49,3.69,3.69,0,0,1,.58,0,1.94,1.94,0,0,1,.5.14l-.26,2.24a2.37,2.37,0,0,0-.46-.11,3.87,3.87,0,0,0-.48,0,2.34,2.34,0,0,0-1.88.8,3.28,3.28,0,0,0-.68,2.22V109Z"/><path class="cls-3" d="M406.25,109.3a5.4,5.4,0,0,1-2.11-.41,5,5,0,0,1-1.69-1.16,5.29,5.29,0,0,1-1.12-1.76,5.87,5.87,0,0,1-.4-2.21,5.8,5.8,0,0,1,.4-2.19,5.16,5.16,0,0,1,1.13-1.76,5,5,0,0,1,1.72-1.16,5.6,5.6,0,0,1,2.15-.41,5.44,5.44,0,0,1,2.11.41,5.05,5.05,0,0,1,1.69,1.16,5.41,5.41,0,0,1,1.12,1.75,6.28,6.28,0,0,1,0,4.41,5.48,5.48,0,0,1-1.13,1.76,5.07,5.07,0,0,1-1.72,1.16A5.64,5.64,0,0,1,406.25,109.3Zm0-2.08a2.75,2.75,0,0,0,1.54-.45,3.13,3.13,0,0,0,1.07-1.23,3.92,3.92,0,0,0,.39-1.78,3.85,3.85,0,0,0-.39-1.77,3.17,3.17,0,0,0-1.07-1.22,2.75,2.75,0,0,0-1.54-.45,2.7,2.7,0,0,0-1.54.45,3.09,3.09,0,0,0-1.07,1.22,3.85,3.85,0,0,0-.39,1.77,3.92,3.92,0,0,0,.39,1.78,3.05,3.05,0,0,0,1.07,1.23A2.7,2.7,0,0,0,406.29,107.22Z"/><path class="cls-3" d="M414,109V98.54h2.1l.1,1.72a3.16,3.16,0,0,1,1.11-1.37,2.84,2.84,0,0,1,1.67-.49,3.69,3.69,0,0,1,.58,0,1.94,1.94,0,0,1,.5.14l-.26,2.24a2.37,2.37,0,0,0-.46-.11,3.87,3.87,0,0,0-.48,0,2.34,2.34,0,0,0-1.88.8,3.28,3.28,0,0,0-.68,2.22V109Z"/><path class="cls-3" d="M426.53,109V98.54h2.09l.11,1.72a3.16,3.16,0,0,1,1.11-1.37,2.84,2.84,0,0,1,1.67-.49,3.77,3.77,0,0,1,.58,0,1.94,1.94,0,0,1,.5.14l-.26,2.24a2.37,2.37,0,0,0-.46-.11l-.48,0a2.34,2.34,0,0,0-1.88.8,3.28,3.28,0,0,0-.68,2.22V109Z"/><path class="cls-3" d="M439.11,109.3a5.43,5.43,0,0,1-2.13-.41,5.07,5.07,0,0,1-1.69-1.15,5.13,5.13,0,0,1-1.11-1.75,6.14,6.14,0,0,1-.39-2.23,6,6,0,0,1,.39-2.18,5.48,5.48,0,0,1,1.08-1.75,4.91,4.91,0,0,1,3.67-1.59,5.07,5.07,0,0,1,2,.39,4.72,4.72,0,0,1,1.58,1.11,5.08,5.08,0,0,1,1,1.71,6.37,6.37,0,0,1,.36,2.19v.68h-7.74a3.91,3.91,0,0,0,.49,1.59,2.7,2.7,0,0,0,1,1,2.8,2.8,0,0,0,1.44.36,2.89,2.89,0,0,0,2.56-1.46l2,.78a4.08,4.08,0,0,1-1.05,1.43,4.74,4.74,0,0,1-1.6.93A5.88,5.88,0,0,1,439.11,109.3Zm-.18-9.2a2.45,2.45,0,0,0-1.25.32,2.66,2.66,0,0,0-.93.9,3.48,3.48,0,0,0-.52,1.36h5.28a4,4,0,0,0-.46-1.36,2.48,2.48,0,0,0-.89-.9A2.45,2.45,0,0,0,438.93,100.1Z"/><path class="cls-3" d="M448.91,109l-4-10.46h2.52l2.68,8.06,2.7-8.06h2.44l-4,10.46Z"/><path class="cls-3" d="M461.59,109.3a5.43,5.43,0,0,1-2.13-.41,5.07,5.07,0,0,1-1.69-1.15,5.13,5.13,0,0,1-1.11-1.75,6.14,6.14,0,0,1-.39-2.23,6,6,0,0,1,.39-2.18,5.48,5.48,0,0,1,1.08-1.75,4.91,4.91,0,0,1,3.67-1.59,5.07,5.07,0,0,1,2,.39A4.72,4.72,0,0,1,465,99.74a5.08,5.08,0,0,1,1,1.71,6.37,6.37,0,0,1,.36,2.19v.68h-7.74a3.91,3.91,0,0,0,.49,1.59,2.7,2.7,0,0,0,1,1,2.8,2.8,0,0,0,1.44.36,2.89,2.89,0,0,0,2.56-1.46l2,.78a4.08,4.08,0,0,1-1.05,1.43,4.74,4.74,0,0,1-1.6.93A5.88,5.88,0,0,1,461.59,109.3Zm-.18-9.2a2.45,2.45,0,0,0-1.25.32,2.66,2.66,0,0,0-.93.9,3.48,3.48,0,0,0-.52,1.36H464a4,4,0,0,0-.46-1.36,2.48,2.48,0,0,0-.89-.9A2.45,2.45,0,0,0,461.41,100.1Z"/><path class="cls-3" d="M468.63,109V98.54h2.1l.1,1.72a3.16,3.16,0,0,1,1.11-1.37,2.84,2.84,0,0,1,1.67-.49,3.69,3.69,0,0,1,.58,0,1.94,1.94,0,0,1,.5.14l-.26,2.24a2.37,2.37,0,0,0-.46-.11,3.87,3.87,0,0,0-.48,0,2.34,2.34,0,0,0-1.88.8,3.28,3.28,0,0,0-.68,2.22V109Z"/><path class="cls-3" d="M481.3,109.3a3.3,3.3,0,0,1-2.47-.91,3.52,3.52,0,0,1-.9-2.61V100.4h-1.85V98.54h1.85V95h2.29v3.54h3v1.86h-3v5.14a2,2,0,0,0,.36,1.29,1.21,1.21,0,0,0,1,.45,3.11,3.11,0,0,0,.77-.11,3.18,3.18,0,0,0,.78-.31l.53,1.74a4.24,4.24,0,0,1-1.07.51A4.34,4.34,0,0,1,481.3,109.3Z"/><path class="cls-3" d="M491.27,109v-8.6h-1.85V98.54h1.85V97.8a4.37,4.37,0,0,1,.44-2A3.5,3.5,0,0,1,493,94.41a3.44,3.44,0,0,1,1.83-.49,3.61,3.61,0,0,1,1,.13,4,4,0,0,1,.83.33l-.51,1.76a3.25,3.25,0,0,0-.5-.18,2.32,2.32,0,0,0-.58-.08,1.26,1.26,0,0,0-1.11.53,2.76,2.76,0,0,0-.36,1.51v.62h6.77V109H498v-8.6h-4.47V109Zm9.29-13.38a1.32,1.32,0,0,1-.19.7,1.44,1.44,0,0,1-.5.51,1.28,1.28,0,0,1-.71.19,1.33,1.33,0,0,1-.71-.19,1.62,1.62,0,0,1-.5-.51,1.45,1.45,0,0,1,0-1.4,1.62,1.62,0,0,1,.5-.51,1.33,1.33,0,0,1,.71-.19,1.28,1.28,0,0,1,.71.19,1.44,1.44,0,0,1,.5.51A1.32,1.32,0,0,1,500.56,95.62Z"/><path class="cls-3" d="M503.08,109V94.12h2.3V109Z"/><path class="cls-3" d="M513,109.3a5.5,5.5,0,0,1-2.13-.41,5.08,5.08,0,0,1-2.8-2.9,6.14,6.14,0,0,1-.39-2.23,6,6,0,0,1,.39-2.18,5.66,5.66,0,0,1,1.08-1.75,5,5,0,0,1,1.64-1.17,4.89,4.89,0,0,1,2-.42,5,5,0,0,1,2,.39,4.53,4.53,0,0,1,1.58,1.11,5.1,5.1,0,0,1,1,1.71,6.62,6.62,0,0,1,.35,2.19v.68h-7.74a4.07,4.07,0,0,0,.49,1.59,2.78,2.78,0,0,0,1,1,3,3,0,0,0,4-1.1l2,.78a4.18,4.18,0,0,1-1,1.43,4.78,4.78,0,0,1-1.61.93A5.83,5.83,0,0,1,513,109.3Zm-.18-9.2a2.5,2.5,0,0,0-1.25.32,2.84,2.84,0,0,0-.93.9,3.82,3.82,0,0,0-.52,1.36h5.28a4,4,0,0,0-.45-1.36,2.43,2.43,0,0,0-.9-.9A2.4,2.4,0,0,0,512.82,100.1Z"/><path class="cls-3" d="M523.7,109.3a5.12,5.12,0,0,1-1.89-.34,4.19,4.19,0,0,1-1.48-1,3.79,3.79,0,0,1-.87-1.49l2.08-.54a2.22,2.22,0,0,0,.84,1.06,2.44,2.44,0,0,0,1.34.38A2.07,2.07,0,0,0,525,107a1.12,1.12,0,0,0,.5-1,1.08,1.08,0,0,0-.39-.84,2.84,2.84,0,0,0-1.31-.5l-.66-.12a5,5,0,0,1-2.52-1.08,2.59,2.59,0,0,1-.86-2,3,3,0,0,1,.5-1.72,3.49,3.49,0,0,1,1.38-1.16,4.65,4.65,0,0,1,2-.42,4.55,4.55,0,0,1,1.8.34,3.81,3.81,0,0,1,1.38,1,3.54,3.54,0,0,1,.8,1.46l-2.06.5a2.14,2.14,0,0,0-.75-1,1.94,1.94,0,0,0-1.19-.37,1.9,1.9,0,0,0-1.16.35,1.08,1.08,0,0,0-.45.89.9.9,0,0,0,.4.76,3.61,3.61,0,0,0,1.39.48l.66.12a4.68,4.68,0,0,1,2.47,1.1,2.72,2.72,0,0,1,.85,2,3.16,3.16,0,0,1-.3,1.37,3.23,3.23,0,0,1-.85,1.1,3.85,3.85,0,0,1-1.29.72A5.16,5.16,0,0,1,523.7,109.3Z"/><path class="cls-3" d="M537.06,95.62a1.32,1.32,0,0,1-.19.7,1.44,1.44,0,0,1-.5.51,1.4,1.4,0,0,1-1.41,0,1.55,1.55,0,0,1-.51-.51,1.38,1.38,0,0,1,0-1.4,1.55,1.55,0,0,1,.51-.51,1.4,1.4,0,0,1,1.41,0,1.44,1.44,0,0,1,.5.51A1.32,1.32,0,0,1,537.06,95.62ZM534.53,109V98.54h2.29V109Z"/><path class="cls-3" d="M539.58,109V98.54h2.1l.08,1.44a3.42,3.42,0,0,1,1.29-1.27,3.86,3.86,0,0,1,1.91-.47,3.72,3.72,0,0,1,2,.56,3.77,3.77,0,0,1,1.36,1.58,5.74,5.74,0,0,1,.47,2.4V109h-2.3v-6a3.15,3.15,0,0,0-.57-2,1.91,1.91,0,0,0-1.59-.72,2.43,2.43,0,0,0-2.18,1.26,2.77,2.77,0,0,0-.32,1.34V109Z"/><path class="cls-3" d="M561,109.3a5.44,5.44,0,0,1-2.11-.41,5.05,5.05,0,0,1-1.69-1.16,5.45,5.45,0,0,1-1.12-1.76,6.07,6.07,0,0,1-.4-2.21,6,6,0,0,1,.4-2.19,5.48,5.48,0,0,1,1.13-1.76,5.07,5.07,0,0,1,1.72-1.16,5.64,5.64,0,0,1,2.15-.41,5.4,5.4,0,0,1,2.11.41,5,5,0,0,1,1.69,1.16,5.25,5.25,0,0,1,1.12,1.75,6.28,6.28,0,0,1,0,4.41,5.16,5.16,0,0,1-1.13,1.76,5,5,0,0,1-1.72,1.16A5.6,5.6,0,0,1,561,109.3Zm0-2.08a2.7,2.7,0,0,0,1.54-.45,3.05,3.05,0,0,0,1.07-1.23,3.92,3.92,0,0,0,.39-1.78,3.85,3.85,0,0,0-.39-1.77,3.09,3.09,0,0,0-1.07-1.22,2.7,2.7,0,0,0-1.54-.45,2.75,2.75,0,0,0-1.54.45,3.17,3.17,0,0,0-1.07,1.22,3.85,3.85,0,0,0-.39,1.77,3.92,3.92,0,0,0,.39,1.78,3.13,3.13,0,0,0,1.07,1.23A2.75,2.75,0,0,0,561,107.22Z"/><path class="cls-3" d="M568.7,109V98.54h2.1l.1,1.72A3.3,3.3,0,0,1,572,98.89a2.86,2.86,0,0,1,1.67-.49,3.6,3.6,0,0,1,.58,0,1.73,1.73,0,0,1,.5.14l-.26,2.24a2.21,2.21,0,0,0-.46-.11,3.87,3.87,0,0,0-.48,0,2.35,2.35,0,0,0-1.88.8,3.33,3.33,0,0,0-.68,2.22V109Z"/><path class="cls-3" d="M580.84,109.3a4.5,4.5,0,0,1-1.93-.42,4.89,4.89,0,0,1-1.55-1.16,5.39,5.39,0,0,1-1-1.74,6.52,6.52,0,0,1,0-4.36,5.76,5.76,0,0,1,1.06-1.78A4.92,4.92,0,0,1,579,98.66a4.68,4.68,0,0,1,2-.42,4.12,4.12,0,0,1,1.9.44,3.77,3.77,0,0,1,1.42,1.24v-5.8h2.3V109h-2.1l-.1-1.68a4,4,0,0,1-1.48,1.45A4.08,4.08,0,0,1,580.84,109.3Zm.48-2.08a2.7,2.7,0,0,0,1.54-.45,3.05,3.05,0,0,0,1.07-1.23,4.21,4.21,0,0,0,0-3.54,3.05,3.05,0,0,0-1.07-1.23,2.7,2.7,0,0,0-1.54-.45,2.75,2.75,0,0,0-1.54.45,3.13,3.13,0,0,0-1.07,1.23,4.21,4.21,0,0,0,0,3.54,3.13,3.13,0,0,0,1.07,1.23A2.75,2.75,0,0,0,581.32,107.22Z"/><path class="cls-3" d="M594.2,109.3a5.5,5.5,0,0,1-2.13-.41,5.08,5.08,0,0,1-2.8-2.9,6.14,6.14,0,0,1-.39-2.23,6,6,0,0,1,.39-2.18,5.48,5.48,0,0,1,1.08-1.75,5.14,5.14,0,0,1,5.68-1.2,4.53,4.53,0,0,1,1.58,1.11,4.92,4.92,0,0,1,1,1.71,6.37,6.37,0,0,1,.36,2.19v.68h-7.74a4.07,4.07,0,0,0,.49,1.59,2.78,2.78,0,0,0,1,1,3,3,0,0,0,4-1.1l2,.78a4.08,4.08,0,0,1-1,1.43,4.64,4.64,0,0,1-1.6.93A5.83,5.83,0,0,1,594.2,109.3Zm-.18-9.2a2.5,2.5,0,0,0-1.25.32,2.84,2.84,0,0,0-.93.9,3.82,3.82,0,0,0-.52,1.36h5.28a3.77,3.77,0,0,0-.46-1.36,2.33,2.33,0,0,0-.89-.9A2.4,2.4,0,0,0,594,100.1Z"/><path class="cls-3" d="M601.24,109V98.54h2.1l.1,1.72a3.3,3.3,0,0,1,1.11-1.37,2.86,2.86,0,0,1,1.67-.49,3.6,3.6,0,0,1,.58,0,1.73,1.73,0,0,1,.5.14l-.26,2.24a2.21,2.21,0,0,0-.46-.11l-.48,0a2.35,2.35,0,0,0-1.88.8,3.33,3.33,0,0,0-.68,2.22V109Z"/><path class="cls-3" d="M618.14,109.3a3.32,3.32,0,0,1-2.48-.91,3.57,3.57,0,0,1-.9-2.61V100.4h-1.84V98.54h1.84V95h2.3v3.54h3v1.86h-3v5.14a2.09,2.09,0,0,0,.35,1.29,1.24,1.24,0,0,0,1,.45,3.25,3.25,0,0,0,.78-.11,3.34,3.34,0,0,0,.78-.31l.52,1.74a3.93,3.93,0,0,1-1.07.51A4.23,4.23,0,0,1,618.14,109.3Z"/><path class="cls-3" d="M627.28,109.3a5.44,5.44,0,0,1-2.11-.41,5.05,5.05,0,0,1-1.69-1.16,5.45,5.45,0,0,1-1.12-1.76,6.07,6.07,0,0,1-.4-2.21,6,6,0,0,1,.4-2.19,5.48,5.48,0,0,1,1.13-1.76,5.07,5.07,0,0,1,1.72-1.16,5.64,5.64,0,0,1,2.15-.41,5.4,5.4,0,0,1,2.11.41,5,5,0,0,1,1.69,1.16,5.25,5.25,0,0,1,1.12,1.75,6.28,6.28,0,0,1,0,4.41,5.16,5.16,0,0,1-1.13,1.76,5,5,0,0,1-1.72,1.16A5.6,5.6,0,0,1,627.28,109.3Zm0-2.08a2.7,2.7,0,0,0,1.54-.45,3.05,3.05,0,0,0,1.07-1.23,3.92,3.92,0,0,0,.39-1.78,3.85,3.85,0,0,0-.39-1.77,3.09,3.09,0,0,0-1.07-1.22,2.7,2.7,0,0,0-1.54-.45,2.75,2.75,0,0,0-1.54.45,3.17,3.17,0,0,0-1.07,1.22,3.85,3.85,0,0,0-.39,1.77,3.92,3.92,0,0,0,.39,1.78,3.13,3.13,0,0,0,1.07,1.23A2.75,2.75,0,0,0,627.32,107.22Z"/></g><g class="cls-2"><path class="cls-3" d="M217.43,134.3a4.36,4.36,0,0,1-1.47-.24,3.57,3.57,0,0,1-1.17-.68,3.2,3.2,0,0,1-.78-1,3,3,0,0,1-.28-1.32,3,3,0,0,1,.53-1.75,3.46,3.46,0,0,1,1.49-1.17,5.56,5.56,0,0,1,2.24-.42,6.48,6.48,0,0,1,1.34.13,6.91,6.91,0,0,1,1.22.37v-.66a2.79,2.79,0,0,0-.26-1.23,2,2,0,0,0-.74-.83,2.15,2.15,0,0,0-1.16-.3,2.36,2.36,0,0,0-1.3.38,2.26,2.26,0,0,0-.86,1.06l-2.12-.48a3.41,3.41,0,0,1,.87-1.52,4.42,4.42,0,0,1,1.52-1,5.1,5.1,0,0,1,1.93-.36,4.91,4.91,0,0,1,1.79.32,4,4,0,0,1,1.39.9,4,4,0,0,1,.9,1.38,4.82,4.82,0,0,1,.32,1.78V134h-2.1l-.08-1.38a3.09,3.09,0,0,1-1.26,1.22A4,4,0,0,1,217.43,134.3Zm-1.38-3.38a1.36,1.36,0,0,0,.24.79,1.6,1.6,0,0,0,.67.55,2.43,2.43,0,0,0,1,.2,2.74,2.74,0,0,0,1.32-.32,2.41,2.41,0,0,0,.92-.87,2.3,2.3,0,0,0,.34-1.25v-.24a6.69,6.69,0,0,0-1.07-.35,4.72,4.72,0,0,0-1.13-.13,2.89,2.89,0,0,0-1.67.44A1.37,1.37,0,0,0,216.05,130.92Z"/><path class="cls-3" d="M228.29,134l-4-10.46h2.52l2.68,8.06,2.7-8.06h2.44l-4,10.46Z"/><path class="cls-3" d="M241,134.3a5.44,5.44,0,0,1-2.11-.41,5,5,0,0,1-1.69-1.16,5.45,5.45,0,0,1-1.12-1.76,5.87,5.87,0,0,1-.4-2.21,5.8,5.8,0,0,1,.4-2.19,5.32,5.32,0,0,1,1.13-1.76,5.07,5.07,0,0,1,1.72-1.16,5.64,5.64,0,0,1,2.15-.41,5.44,5.44,0,0,1,2.11.41,5,5,0,0,1,1.69,1.16,5.41,5.41,0,0,1,1.12,1.75,6.28,6.28,0,0,1,0,4.41,5.32,5.32,0,0,1-1.13,1.76,5.07,5.07,0,0,1-1.72,1.16A5.64,5.64,0,0,1,241,134.3Zm0-2.08a2.73,2.73,0,0,0,1.54-.45,3.13,3.13,0,0,0,1.07-1.23,3.92,3.92,0,0,0,.39-1.78,3.85,3.85,0,0,0-.39-1.77,3.17,3.17,0,0,0-1.07-1.22,2.86,2.86,0,0,0-3.08,0A3.17,3.17,0,0,0,238.4,127a3.85,3.85,0,0,0-.39,1.77,3.92,3.92,0,0,0,.39,1.78,3.13,3.13,0,0,0,1.07,1.23A2.73,2.73,0,0,0,241,132.22Z"/><path class="cls-3" d="M251.21,120.62a1.32,1.32,0,0,1-.19.7,1.55,1.55,0,0,1-.51.51,1.38,1.38,0,0,1-1.4,0,1.55,1.55,0,0,1-.51-.51,1.38,1.38,0,0,1,0-1.4,1.55,1.55,0,0,1,.51-.51,1.38,1.38,0,0,1,1.4,0,1.55,1.55,0,0,1,.51.51A1.32,1.32,0,0,1,251.21,120.62ZM248.67,134V123.54H251V134Z"/><path class="cls-3" d="M258.15,134.3a4.46,4.46,0,0,1-1.93-.42,4.89,4.89,0,0,1-1.55-1.16,5.39,5.39,0,0,1-1-1.74,6.13,6.13,0,0,1-.37-2.16,6.31,6.31,0,0,1,.38-2.2,5.57,5.57,0,0,1,1.06-1.78,4.72,4.72,0,0,1,1.59-1.18,4.64,4.64,0,0,1,2-.42,4.15,4.15,0,0,1,1.9.44,3.85,3.85,0,0,1,1.42,1.24v-5.8h2.3V134h-2.1l-.1-1.68a4.06,4.06,0,0,1-3.54,2Zm.48-2.08a2.73,2.73,0,0,0,1.54-.45,3.13,3.13,0,0,0,1.07-1.23,4.21,4.21,0,0,0,0-3.54,3.13,3.13,0,0,0-1.07-1.23,2.86,2.86,0,0,0-3.08,0A3.13,3.13,0,0,0,256,127a4.21,4.21,0,0,0,0,3.54,3.13,3.13,0,0,0,1.07,1.23A2.73,2.73,0,0,0,258.63,132.22Z"/><path class="cls-3" d="M275.79,134.3a4.76,4.76,0,0,1-2.43-.6,4.07,4.07,0,0,1-1.6-1.71,5.64,5.64,0,0,1-.57-2.61v-5.84h2.3v5.88a3.13,3.13,0,0,0,.62,2.05,2.3,2.3,0,0,0,3.4,0,3.13,3.13,0,0,0,.62-2.05v-5.88h2.3v5.84a5.59,5.59,0,0,1-.57,2.59,4.18,4.18,0,0,1-1.61,1.72A4.73,4.73,0,0,1,275.79,134.3Z"/><path class="cls-3" d="M283.19,134V123.54h2.1l.08,1.44a3.42,3.42,0,0,1,1.29-1.27,3.83,3.83,0,0,1,1.91-.47,3.72,3.72,0,0,1,2.05.56,3.68,3.68,0,0,1,1.35,1.58,5.59,5.59,0,0,1,.48,2.4V134h-2.3v-6a3.15,3.15,0,0,0-.57-2,1.91,1.91,0,0,0-1.59-.72,2.44,2.44,0,0,0-1.29.34,2.38,2.38,0,0,0-.89.92,2.77,2.77,0,0,0-.32,1.34V134Z"/><path class="cls-3" d="M295.21,134V123.54h2.1l.08,1.44a3.42,3.42,0,0,1,1.29-1.27,3.83,3.83,0,0,1,1.91-.47,3.72,3.72,0,0,1,2.05.56,3.68,3.68,0,0,1,1.35,1.58,5.59,5.59,0,0,1,.48,2.4V134h-2.3v-6a3.15,3.15,0,0,0-.57-2,1.91,1.91,0,0,0-1.59-.72,2.44,2.44,0,0,0-1.29.34,2.38,2.38,0,0,0-.89.92,2.77,2.77,0,0,0-.32,1.34V134Z"/><path class="cls-3" d="M312.09,134.3a5.5,5.5,0,0,1-2.13-.41,5.07,5.07,0,0,1-1.69-1.15,5.13,5.13,0,0,1-1.11-1.75,6.14,6.14,0,0,1-.39-2.23,6,6,0,0,1,.39-2.18,5.48,5.48,0,0,1,1.08-1.75,4.88,4.88,0,0,1,1.63-1.17,4.93,4.93,0,0,1,2-.42,5.07,5.07,0,0,1,2,.39,4.62,4.62,0,0,1,1.58,1.11,4.92,4.92,0,0,1,1,1.71,6.37,6.37,0,0,1,.36,2.19v.68h-7.74a4.07,4.07,0,0,0,.49,1.59,2.69,2.69,0,0,0,2.45,1.39,2.88,2.88,0,0,0,2.56-1.46l2,.78a4.08,4.08,0,0,1-1.05,1.43,4.64,4.64,0,0,1-1.6.93A5.88,5.88,0,0,1,312.09,134.3Zm-.18-9.2a2.47,2.47,0,0,0-1.25.32,2.66,2.66,0,0,0-.93.9,3.64,3.64,0,0,0-.52,1.36h5.28a3.77,3.77,0,0,0-.46-1.36,2.4,2.4,0,0,0-.89-.9A2.45,2.45,0,0,0,311.91,125.1Z"/><path class="cls-3" d="M324,134.3a5.15,5.15,0,0,1-2.06-.41,4.94,4.94,0,0,1-1.64-1.14,5.14,5.14,0,0,1-1.09-1.73,6.27,6.27,0,0,1,0-4.38,5.67,5.67,0,0,1,1.1-1.78,5.12,5.12,0,0,1,1.65-1.19,5.21,5.21,0,0,1,4.05,0,4.52,4.52,0,0,1,1.55,1.1,4.22,4.22,0,0,1,.93,1.67l-2.18.52a2.74,2.74,0,0,0-.95-1.18,2.36,2.36,0,0,0-1.37-.42,2.4,2.4,0,0,0-1.44.46,3.06,3.06,0,0,0-1,1.25,4.47,4.47,0,0,0,0,3.54,3,3,0,0,0,1,1.21,2.53,2.53,0,0,0,1.47.44,2.75,2.75,0,0,0,1.46-.41,2.41,2.41,0,0,0,1-1.17l2.16.5a4,4,0,0,1-1,1.67,4.7,4.7,0,0,1-1.62,1.1A5.23,5.23,0,0,1,324,134.3Z"/><path class="cls-3" d="M335.51,134.3a5.5,5.5,0,0,1-2.13-.41,5.07,5.07,0,0,1-1.69-1.15,5.13,5.13,0,0,1-1.11-1.75,6.14,6.14,0,0,1-.39-2.23,6,6,0,0,1,.39-2.18,5.48,5.48,0,0,1,1.08-1.75,4.91,4.91,0,0,1,3.67-1.59,5.07,5.07,0,0,1,2,.39,4.62,4.62,0,0,1,1.58,1.11,4.92,4.92,0,0,1,1,1.71,6.37,6.37,0,0,1,.36,2.19v.68h-7.74a3.91,3.91,0,0,0,.49,1.59,2.69,2.69,0,0,0,2.45,1.39,2.89,2.89,0,0,0,2.56-1.46l2,.78a4.08,4.08,0,0,1-1,1.43,4.74,4.74,0,0,1-1.6.93A5.88,5.88,0,0,1,335.51,134.3Zm-.18-9.2a2.47,2.47,0,0,0-1.25.32,2.66,2.66,0,0,0-.93.9,3.48,3.48,0,0,0-.52,1.36h5.28a4,4,0,0,0-.46-1.36,2.48,2.48,0,0,0-.89-.9A2.45,2.45,0,0,0,335.33,125.1Z"/><path class="cls-3" d="M346.21,134.3a5.08,5.08,0,0,1-1.89-.34,4.1,4.1,0,0,1-1.48-1,3.56,3.56,0,0,1-.87-1.49l2.08-.54a2.11,2.11,0,0,0,.84,1.06,2.42,2.42,0,0,0,1.34.38,2.09,2.09,0,0,0,1.28-.37,1.14,1.14,0,0,0,.5-.95,1.09,1.09,0,0,0-.4-.84,2.79,2.79,0,0,0-1.3-.5l-.66-.12a5,5,0,0,1-2.53-1.08,2.59,2.59,0,0,1-.85-2,3,3,0,0,1,.5-1.72,3.36,3.36,0,0,1,1.38-1.16,5,5,0,0,1,3.82-.08,4,4,0,0,1,1.38,1,3.65,3.65,0,0,1,.8,1.46l-2.06.5a2.14,2.14,0,0,0-.75-1,2,2,0,0,0-1.19-.37,1.86,1.86,0,0,0-1.16.35,1.06,1.06,0,0,0-.46.89.89.89,0,0,0,.41.76,3.48,3.48,0,0,0,1.39.48l.66.12a4.68,4.68,0,0,1,2.46,1.1,2.73,2.73,0,0,1,.86,2,3.16,3.16,0,0,1-.3,1.37,3.23,3.23,0,0,1-.85,1.1,4,4,0,0,1-1.3.72A5.1,5.1,0,0,1,346.21,134.3Z"/><path class="cls-3" d="M356.07,134.3a5.08,5.08,0,0,1-1.89-.34,4.1,4.1,0,0,1-1.48-1,3.56,3.56,0,0,1-.87-1.49l2.08-.54a2.11,2.11,0,0,0,.84,1.06,2.39,2.39,0,0,0,1.34.38,2.07,2.07,0,0,0,1.28-.37,1.14,1.14,0,0,0,.5-.95,1.09,1.09,0,0,0-.4-.84,2.79,2.79,0,0,0-1.3-.5l-.66-.12a5,5,0,0,1-2.53-1.08,2.59,2.59,0,0,1-.85-2,3,3,0,0,1,.5-1.72,3.36,3.36,0,0,1,1.38-1.16,5,5,0,0,1,3.82-.08,4,4,0,0,1,1.38,1A3.65,3.65,0,0,1,360,126l-2.06.5a2.14,2.14,0,0,0-.75-1,2,2,0,0,0-1.19-.37,1.88,1.88,0,0,0-1.16.35,1.06,1.06,0,0,0-.46.89.89.89,0,0,0,.41.76,3.55,3.55,0,0,0,1.39.48l.66.12a4.68,4.68,0,0,1,2.46,1.1,2.73,2.73,0,0,1,.86,2,3.16,3.16,0,0,1-.3,1.37,3.36,3.36,0,0,1-.85,1.1,4,4,0,0,1-1.3.72A5.1,5.1,0,0,1,356.07,134.3Z"/><path class="cls-3" d="M365.63,134.3a4.28,4.28,0,0,1-1.47-.24,3.57,3.57,0,0,1-1.17-.68,2.94,2.94,0,0,1-.78-1,3,3,0,0,1-.28-1.32,2.9,2.9,0,0,1,.53-1.75A3.46,3.46,0,0,1,364,128.1a5.53,5.53,0,0,1,2.24-.42,6.55,6.55,0,0,1,1.34.13,7.17,7.17,0,0,1,1.22.37v-.66a2.79,2.79,0,0,0-.26-1.23,2.06,2.06,0,0,0-.74-.83,2.15,2.15,0,0,0-1.16-.3,2.33,2.33,0,0,0-1.3.38,2.2,2.2,0,0,0-.86,1.06l-2.12-.48a3.41,3.41,0,0,1,.87-1.52,4.33,4.33,0,0,1,1.52-1,5.06,5.06,0,0,1,1.93-.36,4.91,4.91,0,0,1,1.79.32,4,4,0,0,1,1.39.9,4.34,4.34,0,0,1,.9,1.38,4.82,4.82,0,0,1,.32,1.78V134h-2.1l-.08-1.38a3.09,3.09,0,0,1-1.26,1.22A4,4,0,0,1,365.63,134.3Zm-1.38-3.38a1.36,1.36,0,0,0,.24.79,1.6,1.6,0,0,0,.67.55,2.39,2.39,0,0,0,1,.2,2.74,2.74,0,0,0,1.32-.32,2.48,2.48,0,0,0,.92-.87,2.39,2.39,0,0,0,.34-1.25v-.24a7,7,0,0,0-1.07-.35,4.78,4.78,0,0,0-1.13-.13,2.87,2.87,0,0,0-1.67.44A1.37,1.37,0,0,0,364.25,130.92Z"/><path class="cls-3" d="M373.79,134V123.54h2.1l.1,1.72a3.16,3.16,0,0,1,1.11-1.37,2.84,2.84,0,0,1,1.67-.49,3.69,3.69,0,0,1,.58,0,1.94,1.94,0,0,1,.5.14l-.26,2.24a2.37,2.37,0,0,0-.46-.11,3.87,3.87,0,0,0-.48,0,2.34,2.34,0,0,0-1.88.8,3.28,3.28,0,0,0-.68,2.22V134Z"/><path class="cls-3" d="M383.51,138.16a3.84,3.84,0,0,1-.93-.1,3.1,3.1,0,0,1-.83-.32l.5-1.82a2.65,2.65,0,0,0,.5.17,2,2,0,0,0,.54.07,1.67,1.67,0,0,0,1-.34,2.48,2.48,0,0,0,.75-1.1l.32-.82-4.26-10.36h2.52l2.82,7.82,2.56-7.82h2.44l-4.44,11.72a5.18,5.18,0,0,1-1.45,2.2A3.22,3.22,0,0,1,383.51,138.16Z"/><path class="cls-3" d="M401.41,134.3a5.08,5.08,0,0,1-1.89-.34,4.1,4.1,0,0,1-1.48-1,3.56,3.56,0,0,1-.87-1.49l2.08-.54a2.11,2.11,0,0,0,.84,1.06,2.39,2.39,0,0,0,1.34.38,2.09,2.09,0,0,0,1.28-.37,1.14,1.14,0,0,0,.5-.95,1.09,1.09,0,0,0-.4-.84,2.79,2.79,0,0,0-1.3-.5l-.66-.12a5,5,0,0,1-2.53-1.08,2.59,2.59,0,0,1-.85-2,3,3,0,0,1,.5-1.72,3.36,3.36,0,0,1,1.38-1.16,5,5,0,0,1,3.82-.08,4,4,0,0,1,1.38,1,3.65,3.65,0,0,1,.8,1.46l-2.06.5a2.14,2.14,0,0,0-.75-1,2,2,0,0,0-1.19-.37,1.86,1.86,0,0,0-1.16.35,1.06,1.06,0,0,0-.46.89.89.89,0,0,0,.41.76,3.48,3.48,0,0,0,1.39.48l.66.12a4.68,4.68,0,0,1,2.46,1.1,2.73,2.73,0,0,1,.86,2,3.16,3.16,0,0,1-.3,1.37,3.36,3.36,0,0,1-.85,1.1,4,4,0,0,1-1.3.72A5.1,5.1,0,0,1,401.41,134.3Z"/><path class="cls-3" d="M411.89,134.3a3.31,3.31,0,0,1-2.48-.91,3.57,3.57,0,0,1-.9-2.61V125.4h-1.84v-1.86h1.84V120h2.3v3.54h3v1.86h-3v5.14a2,2,0,0,0,.35,1.29,1.21,1.21,0,0,0,1,.45,3.25,3.25,0,0,0,.78-.11,3.34,3.34,0,0,0,.78-.31l.52,1.74a4.24,4.24,0,0,1-1.07.51A4.32,4.32,0,0,1,411.89,134.3Z"/><path class="cls-3" d="M416.37,134V123.54h2.1l.1,1.72a3.16,3.16,0,0,1,1.11-1.37,2.84,2.84,0,0,1,1.67-.49,3.69,3.69,0,0,1,.58,0,1.94,1.94,0,0,1,.5.14l-.26,2.24a2.37,2.37,0,0,0-.46-.11,3.87,3.87,0,0,0-.48,0,2.34,2.34,0,0,0-1.88.8,3.28,3.28,0,0,0-.68,2.22V134Z"/><path class="cls-3" d="M427.35,134.3a4.28,4.28,0,0,1-1.47-.24,3.57,3.57,0,0,1-1.17-.68,2.94,2.94,0,0,1-.78-1,3,3,0,0,1-.28-1.32,2.9,2.9,0,0,1,.53-1.75,3.46,3.46,0,0,1,1.49-1.17,5.53,5.53,0,0,1,2.24-.42,6.55,6.55,0,0,1,1.34.13,7.17,7.17,0,0,1,1.22.37v-.66a2.79,2.79,0,0,0-.26-1.23,2.06,2.06,0,0,0-.74-.83,2.15,2.15,0,0,0-1.16-.3,2.33,2.33,0,0,0-1.3.38,2.2,2.2,0,0,0-.86,1.06l-2.12-.48a3.41,3.41,0,0,1,.87-1.52,4.33,4.33,0,0,1,1.52-1,5.06,5.06,0,0,1,1.93-.36,4.91,4.91,0,0,1,1.79.32,4,4,0,0,1,1.39.9,4.34,4.34,0,0,1,.9,1.38,4.82,4.82,0,0,1,.32,1.78V134h-2.1l-.08-1.38a3.09,3.09,0,0,1-1.26,1.22A4,4,0,0,1,427.35,134.3ZM426,130.92a1.36,1.36,0,0,0,.24.79,1.6,1.6,0,0,0,.67.55,2.39,2.39,0,0,0,1,.2,2.74,2.74,0,0,0,1.32-.32,2.48,2.48,0,0,0,.92-.87,2.39,2.39,0,0,0,.34-1.25v-.24a7,7,0,0,0-1.07-.35,4.78,4.78,0,0,0-1.13-.13,2.87,2.87,0,0,0-1.67.44A1.37,1.37,0,0,0,426,130.92Z"/><path class="cls-3" d="M438.05,120.62a1.41,1.41,0,0,1-.19.7,1.55,1.55,0,0,1-.51.51,1.34,1.34,0,0,1-.7.19,1.29,1.29,0,0,1-.7-.19,1.39,1.39,0,0,1-.51-.51,1.38,1.38,0,0,1,0-1.4,1.39,1.39,0,0,1,.51-.51,1.29,1.29,0,0,1,.7-.19,1.34,1.34,0,0,1,.7.19,1.55,1.55,0,0,1,.51.51A1.41,1.41,0,0,1,438.05,120.62ZM435.51,134V123.54h2.3V134Z"/><path class="cls-3" d="M440.57,134V123.54h2.1l.08,1.44a3.28,3.28,0,0,1,1.29-1.27,3.83,3.83,0,0,1,1.91-.47,3.75,3.75,0,0,1,2.05.56,3.68,3.68,0,0,1,1.35,1.58,5.59,5.59,0,0,1,.48,2.4V134h-2.3v-6a3.15,3.15,0,0,0-.57-2,1.91,1.91,0,0,0-1.59-.72,2.44,2.44,0,0,0-1.29.34,2.38,2.38,0,0,0-.89.92,2.66,2.66,0,0,0-.32,1.34V134Z"/><path class="cls-3" d="M460.33,134.3a4.28,4.28,0,0,1-1.47-.24,3.57,3.57,0,0,1-1.17-.68,2.94,2.94,0,0,1-.78-1,3,3,0,0,1-.28-1.32,2.9,2.9,0,0,1,.53-1.75,3.46,3.46,0,0,1,1.49-1.17,5.53,5.53,0,0,1,2.24-.42,6.55,6.55,0,0,1,1.34.13,7.17,7.17,0,0,1,1.22.37v-.66a2.79,2.79,0,0,0-.26-1.23,2.06,2.06,0,0,0-.74-.83,2.15,2.15,0,0,0-1.16-.3,2.33,2.33,0,0,0-1.3.38,2.2,2.2,0,0,0-.86,1.06l-2.12-.48a3.41,3.41,0,0,1,.87-1.52,4.33,4.33,0,0,1,1.52-1,5.06,5.06,0,0,1,1.93-.36,4.91,4.91,0,0,1,1.79.32,4,4,0,0,1,1.39.9,4.34,4.34,0,0,1,.9,1.38,4.82,4.82,0,0,1,.32,1.78V134h-2.1l-.08-1.38a3.09,3.09,0,0,1-1.26,1.22A4,4,0,0,1,460.33,134.3ZM459,130.92a1.36,1.36,0,0,0,.24.79,1.6,1.6,0,0,0,.67.55,2.39,2.39,0,0,0,1,.2,2.74,2.74,0,0,0,1.32-.32,2.48,2.48,0,0,0,.92-.87,2.39,2.39,0,0,0,.34-1.25v-.24a7,7,0,0,0-1.07-.35,4.78,4.78,0,0,0-1.13-.13,2.87,2.87,0,0,0-1.67.44A1.37,1.37,0,0,0,459,130.92Z"/><path class="cls-3" d="M468.49,134V123.54h2.1l.08,1.44a3.28,3.28,0,0,1,1.29-1.27,3.83,3.83,0,0,1,1.91-.47,3.75,3.75,0,0,1,2.05.56,3.68,3.68,0,0,1,1.35,1.58,5.59,5.59,0,0,1,.48,2.4V134h-2.3v-6a3.15,3.15,0,0,0-.57-2,1.91,1.91,0,0,0-1.59-.72,2.44,2.44,0,0,0-1.29.34,2.38,2.38,0,0,0-.89.92,2.66,2.66,0,0,0-.32,1.34V134Z"/><path class="cls-3" d="M484.93,134.3a4.43,4.43,0,0,1-1.93-.42,4.78,4.78,0,0,1-1.55-1.16,5.21,5.21,0,0,1-1-1.74,6.52,6.52,0,0,1,0-4.36,5.4,5.4,0,0,1,1.06-1.78,4.72,4.72,0,0,1,1.59-1.18,4.61,4.61,0,0,1,2-.42,4.18,4.18,0,0,1,1.9.44,3.93,3.93,0,0,1,1.42,1.24v-5.8h2.3V134h-2.1l-.1-1.68a4.19,4.19,0,0,1-1.48,1.45A4.1,4.1,0,0,1,484.93,134.3Zm.48-2.08a2.75,2.75,0,0,0,1.54-.45,3.13,3.13,0,0,0,1.07-1.23,4.21,4.21,0,0,0,0-3.54,3.13,3.13,0,0,0-1.07-1.23,2.75,2.75,0,0,0-1.54-.45,2.7,2.7,0,0,0-1.54.45A3.05,3.05,0,0,0,482.8,127a4.21,4.21,0,0,0,0,3.54,3.05,3.05,0,0,0,1.07,1.23A2.7,2.7,0,0,0,485.41,132.22Z"/><path class="cls-3" d="M500.49,134,497,123.54h2.41l2.21,7.64,2.35-7.64H506l2.32,7.64,2.26-7.64h2.32L509.43,134h-2.16l-2.3-7.6-2.32,7.6Z"/><path class="cls-3" d="M519.27,134.3a5.36,5.36,0,0,1-2.11-.41,5.09,5.09,0,0,1-1.7-1.16,5.43,5.43,0,0,1-1.11-1.76,5.87,5.87,0,0,1-.4-2.21,5.8,5.8,0,0,1,.4-2.19,5.16,5.16,0,0,1,1.13-1.76,5,5,0,0,1,1.72-1.16,5.6,5.6,0,0,1,2.15-.41,5.35,5.35,0,0,1,2.1.41,5.09,5.09,0,0,1,1.7,1.16,5.58,5.58,0,0,1,1.12,1.75,6.43,6.43,0,0,1,0,4.41,5.48,5.48,0,0,1-1.13,1.76,5,5,0,0,1-1.73,1.16A5.59,5.59,0,0,1,519.27,134.3Zm0-2.08a2.75,2.75,0,0,0,1.54-.45,3,3,0,0,0,1.06-1.23,3.92,3.92,0,0,0,.4-1.78,3.85,3.85,0,0,0-.4-1.77,3.07,3.07,0,0,0-1.06-1.22,2.75,2.75,0,0,0-1.54-.45,2.7,2.7,0,0,0-1.54.45A3,3,0,0,0,516.7,127a3.85,3.85,0,0,0-.39,1.77,3.92,3.92,0,0,0,.39,1.78,3,3,0,0,0,1.07,1.23A2.7,2.7,0,0,0,519.31,132.22Z"/><path class="cls-3" d="M527,134V123.54h2.1l.09,1.72a3.25,3.25,0,0,1,1.12-1.37,2.84,2.84,0,0,1,1.67-.49,3.69,3.69,0,0,1,.58,0,1.94,1.94,0,0,1,.5.14l-.26,2.24a2.37,2.37,0,0,0-.46-.11,3.87,3.87,0,0,0-.48,0,2.34,2.34,0,0,0-1.88.8,3.28,3.28,0,0,0-.68,2.22V134Z"/><path class="cls-3" d="M535,134V119.12h2.3v8.74l4.27-4.32h2.81l-4.7,4.64,5.18,5.82h-3l-4.54-5.28V134Z"/><path class="cls-3" d="M547.8,134.08a1.51,1.51,0,0,1-.76-.2,1.61,1.61,0,0,1-.55-.55,1.58,1.58,0,0,1,0-1.54,1.61,1.61,0,0,1,.55-.55,1.51,1.51,0,0,1,.76-.2,1.49,1.49,0,0,1,.76.2,1.64,1.64,0,0,1,.56.55,1.52,1.52,0,0,1,0,1.54,1.64,1.64,0,0,1-.56.55A1.49,1.49,0,0,1,547.8,134.08Z"/></g></g><g id="Disaster_Recovery" data-name="Disaster Recovery" class="cls-2"><g class="cls-2"><path class="cls-3" d="M228.58,69V44.15h9.66a15.44,15.44,0,0,1,5.35.89,12.23,12.23,0,0,1,4.17,2.54,11.29,11.29,0,0,1,2.69,3.92,13,13,0,0,1,1,5,12.82,12.82,0,0,1-1,5.06,11.46,11.46,0,0,1-2.71,3.95,12.08,12.08,0,0,1-4.18,2.56,15.59,15.59,0,0,1-5.37.89Zm5.21-4.62h4.13a9.13,9.13,0,0,0,4.31-.95,6.67,6.67,0,0,0,2.8-2.69,9.34,9.34,0,0,0,0-8.33,6.67,6.67,0,0,0-2.8-2.69,9.26,9.26,0,0,0-4.31-.95h-4.13Z"/><path class="cls-3" d="M260.6,45.51a2.76,2.76,0,0,1-.37,1.44,2.69,2.69,0,0,1-1,1,2.91,2.91,0,0,1-2.84,0,2.69,2.69,0,0,1-1-1,3,3,0,0,1,0-2.87,2.69,2.69,0,0,1,1-1,3,3,0,0,1,2.84,0,2.69,2.69,0,0,1,1,1A2.75,2.75,0,0,1,260.6,45.51ZM255.35,69V50.52h4.9V69Z"/><path class="cls-3" d="M271.35,69.53a9.44,9.44,0,0,1-3.56-.64,7.4,7.4,0,0,1-2.69-1.78,6.15,6.15,0,0,1-1.52-2.73l4.41-.95a3.19,3.19,0,0,0,1.26,1.72,3.7,3.7,0,0,0,2.17.63,3.43,3.43,0,0,0,2-.52,1.66,1.66,0,0,0,.77-1.44,1.54,1.54,0,0,0-.69-1.28,5.36,5.36,0,0,0-2.25-.78l-1-.18a8.84,8.84,0,0,1-4.57-2A4.74,4.74,0,0,1,264.1,56a5.38,5.38,0,0,1,.91-3.1,6.27,6.27,0,0,1,2.52-2.12,8.54,8.54,0,0,1,3.71-.76,9,9,0,0,1,3.38.61,6.83,6.83,0,0,1,2.54,1.73,6.23,6.23,0,0,1,1.4,2.7l-4.38.91A3.29,3.29,0,0,0,273,54.3a3.23,3.23,0,0,0-3.62-.07,1.59,1.59,0,0,0-.7,1.33,1.39,1.39,0,0,0,.68,1.17,6.09,6.09,0,0,0,2.33.76l1,.17a8.84,8.84,0,0,1,4.55,2,4.81,4.81,0,0,1,1.58,3.69,5.55,5.55,0,0,1-.55,2.49,5.93,5.93,0,0,1-1.55,2,7.28,7.28,0,0,1-2.38,1.29A9.6,9.6,0,0,1,271.35,69.53Z"/><path class="cls-3" d="M288.32,69.53a7.78,7.78,0,0,1-2.62-.42,6.37,6.37,0,0,1-2.09-1.21,5.75,5.75,0,0,1-1.38-1.84,5.35,5.35,0,0,1-.49-2.31,5.19,5.19,0,0,1,.95-3.08,6.17,6.17,0,0,1,2.66-2.08,9.86,9.86,0,0,1,4-.75,10.82,10.82,0,0,1,2.18.21,11.11,11.11,0,0,1,2,.59V57.55a3.63,3.63,0,0,0-.9-2.55,3.12,3.12,0,0,0-2.43-1,3.91,3.91,0,0,0-2.1.58,3.12,3.12,0,0,0-1.33,1.62l-4.37-.87a6.08,6.08,0,0,1,1.52-2.82,7.75,7.75,0,0,1,2.78-1.87,9.52,9.52,0,0,1,3.57-.66,9.18,9.18,0,0,1,3.26.55,7.32,7.32,0,0,1,2.53,1.62,7.25,7.25,0,0,1,1.65,2.46,8.44,8.44,0,0,1,.58,3.17V69h-4.38l-.14-2.17a5.51,5.51,0,0,1-2.13,1.94A7,7,0,0,1,288.32,69.53Zm-1.75-6a2,2,0,0,0,.81,1.61,3.33,3.33,0,0,0,2.13.63,4.39,4.39,0,0,0,2.07-.49A3.79,3.79,0,0,0,293,63.91a3.59,3.59,0,0,0,.53-1.91v-.17a10.58,10.58,0,0,0-1.65-.51,8,8,0,0,0-1.75-.19,4.65,4.65,0,0,0-2.61.64A2,2,0,0,0,286.57,63.51Z"/><path class="cls-3" d="M309.39,69.53a9.35,9.35,0,0,1-3.55-.64,7.53,7.53,0,0,1-2.7-1.78,6.25,6.25,0,0,1-1.52-2.73l4.41-.95a3.19,3.19,0,0,0,1.26,1.72,3.72,3.72,0,0,0,2.17.63,3.4,3.4,0,0,0,2-.52,1.66,1.66,0,0,0,.77-1.44,1.56,1.56,0,0,0-.68-1.28,5.47,5.47,0,0,0-2.26-.78l-1-.18a8.84,8.84,0,0,1-4.57-2A4.73,4.73,0,0,1,302.15,56a5.38,5.38,0,0,1,.91-3.1,6.13,6.13,0,0,1,2.52-2.12,8.54,8.54,0,0,1,3.71-.76,8.91,8.91,0,0,1,3.37.61,6.75,6.75,0,0,1,2.54,1.73,6.13,6.13,0,0,1,1.4,2.7l-4.37.91a3.42,3.42,0,0,0-1.14-1.65,3,3,0,0,0-1.84-.59,2.87,2.87,0,0,0-1.78.52,1.59,1.59,0,0,0-.7,1.33,1.36,1.36,0,0,0,.68,1.17,6,6,0,0,0,2.33.76l1,.17a8.84,8.84,0,0,1,4.55,2,4.8,4.8,0,0,1,1.57,3.69,5.68,5.68,0,0,1-.54,2.49,5.84,5.84,0,0,1-1.56,2,7.28,7.28,0,0,1-2.38,1.29A9.55,9.55,0,0,1,309.39,69.53Z"/><path class="cls-3" d="M328.15,69.53a6.89,6.89,0,0,1-3.31-.76,5.15,5.15,0,0,1-2.13-2.18,7.51,7.51,0,0,1-.75-3.5V54.47h-3.15V50.52H322v-6.3h4.9v6.3h5v3.95h-5v8a3.23,3.23,0,0,0,.56,2.05,2,2,0,0,0,1.71.72,5.05,5.05,0,0,0,1.28-.18,9.63,9.63,0,0,0,1.31-.45l.88,3.67a8.67,8.67,0,0,1-2,.89A8.58,8.58,0,0,1,328.15,69.53Z"/><path class="cls-3" d="M344.39,69.53a9.82,9.82,0,0,1-3.8-.72,8.86,8.86,0,0,1-3-2,9.45,9.45,0,0,1-2-3.12,10.7,10.7,0,0,1-.7-3.94,10.36,10.36,0,0,1,.7-3.84,9.53,9.53,0,0,1,1.94-3.1,8.87,8.87,0,0,1,2.93-2.05,9,9,0,0,1,3.64-.73,9.37,9.37,0,0,1,3.69.7,8,8,0,0,1,2.85,2,9.06,9.06,0,0,1,1.84,3.08,11.68,11.68,0,0,1,.65,4V61H339.91a5.53,5.53,0,0,0,1.51,3.23,4.06,4.06,0,0,0,3,1.17,4.47,4.47,0,0,0,2.29-.59,4.8,4.8,0,0,0,1.7-1.71l4.37,1.4a7.08,7.08,0,0,1-1.89,2.69A8.82,8.82,0,0,1,348,68.91,10.31,10.31,0,0,1,344.39,69.53Zm-.24-15.75a3.8,3.8,0,0,0-2.72,1A5.18,5.18,0,0,0,340,57.7h8.16a5,5,0,0,0-1.35-2.87A3.61,3.61,0,0,0,344.15,53.78Z"/><path class="cls-3" d="M356.75,69V50.52h4.51l.18,2.8a5.36,5.36,0,0,1,1.89-2.26,5,5,0,0,1,2.8-.78,5.47,5.47,0,0,1,1,.08,6.09,6.09,0,0,1,.87.23l-.52,4.83a3.64,3.64,0,0,0-.79-.19,5.56,5.56,0,0,0-.82,0,3.9,3.9,0,0,0-3.12,1.24,5.19,5.19,0,0,0-1.08,3.51V69Z"/><path class="cls-3" d="M379.32,69V44.15h8a13.23,13.23,0,0,1,5.27,1,7.27,7.27,0,0,1,4.6,7,7.34,7.34,0,0,1-.52,2.75,8.15,8.15,0,0,1-1.47,2.38A8,8,0,0,1,392.9,59l5.64,10H392.8l-4.45-8.61c-.44,0-.92,0-1.43,0a15.69,15.69,0,0,1-2.45-.21V69Zm5.15-20.44v7.32c.44.07.88.12,1.33.15s.91.06,1.4.06a5.38,5.38,0,0,0,3.46-1,3.39,3.39,0,0,0,1.23-2.79,3.33,3.33,0,0,0-1.23-2.76,5.44,5.44,0,0,0-3.46-1Z"/><path class="cls-3" d="M409.91,69.53a9.82,9.82,0,0,1-3.8-.72,8.86,8.86,0,0,1-3-2,9.45,9.45,0,0,1-2-3.12,10.7,10.7,0,0,1-.7-3.94,10.36,10.36,0,0,1,.7-3.84,9.53,9.53,0,0,1,1.94-3.1A8.87,8.87,0,0,1,406,50.73a9,9,0,0,1,3.64-.73,9.37,9.37,0,0,1,3.69.7,8,8,0,0,1,2.85,2,9.06,9.06,0,0,1,1.84,3.08,11.68,11.68,0,0,1,.65,4V61H405.43a5.53,5.53,0,0,0,1.51,3.23,4.06,4.06,0,0,0,3,1.17,4.47,4.47,0,0,0,2.29-.59,4.8,4.8,0,0,0,1.7-1.71l4.37,1.4a7.08,7.08,0,0,1-1.89,2.69,8.82,8.82,0,0,1-2.94,1.73A10.31,10.31,0,0,1,409.91,69.53Zm-.24-15.75a3.8,3.8,0,0,0-2.72,1,5.18,5.18,0,0,0-1.45,2.87h8.16a5,5,0,0,0-1.35-2.87A3.61,3.61,0,0,0,409.67,53.78Z"/><path class="cls-3" d="M431,69.53a9.39,9.39,0,0,1-3.7-.72,8.84,8.84,0,0,1-2.94-2,9.44,9.44,0,0,1-1.94-3.07,10.23,10.23,0,0,1-.7-3.83,10.4,10.4,0,0,1,.72-3.9,9.87,9.87,0,0,1,2-3.15,9,9,0,0,1,3-2.1,9.15,9.15,0,0,1,3.71-.75,8.89,8.89,0,0,1,3.67.75,8,8,0,0,1,2.85,2.12,7.65,7.65,0,0,1,1.63,3.18l-4.65.91a4.46,4.46,0,0,0-1.47-1.87,3.54,3.54,0,0,0-2.14-.68,3.65,3.65,0,0,0-2.22.7,4.67,4.67,0,0,0-1.52,1.94,7.18,7.18,0,0,0,0,5.51,4.48,4.48,0,0,0,1.52,1.87,3.79,3.79,0,0,0,2.24.69,4.12,4.12,0,0,0,2.28-.67,4,4,0,0,0,1.5-1.89l4.66.91a7.31,7.31,0,0,1-1.7,3.22,8.44,8.44,0,0,1-3,2.1A9.69,9.69,0,0,1,431,69.53Z"/><path class="cls-3" d="M451.63,69.53a9.69,9.69,0,0,1-3.81-.74,9.19,9.19,0,0,1-5.06-5.15,10.23,10.23,0,0,1-.72-3.88,10,10,0,0,1,.74-3.87,9.67,9.67,0,0,1,2-3.09,9.29,9.29,0,0,1,3.08-2.07,10,10,0,0,1,3.87-.73,9.78,9.78,0,0,1,3.82.73,9.22,9.22,0,0,1,3,2.05,9.34,9.34,0,0,1,2,3.08,10.72,10.72,0,0,1,0,7.75,9.57,9.57,0,0,1-2.05,3.11,9.29,9.29,0,0,1-3.08,2.07A10,10,0,0,1,451.63,69.53Zm.07-4.41a4.24,4.24,0,0,0,2.38-.7,5,5,0,0,0,1.66-1.91,6.41,6.41,0,0,0,0-5.5,4.88,4.88,0,0,0-1.66-1.9,4.4,4.4,0,0,0-4.76,0,4.88,4.88,0,0,0-1.66,1.9,6.5,6.5,0,0,0,0,5.5,5,5,0,0,0,1.66,1.91A4.24,4.24,0,0,0,451.7,65.12Z"/><path class="cls-3" d="M469.8,69l-6.93-18.48h5.35l4.13,13.3,4.2-13.3h5.18L474.8,69Z"/><path class="cls-3" d="M492.69,69.53a9.78,9.78,0,0,1-3.8-.72,8.76,8.76,0,0,1-3-2,9.29,9.29,0,0,1-2-3.12,10.7,10.7,0,0,1-.7-3.94,10.36,10.36,0,0,1,.7-3.84,9.21,9.21,0,0,1,1.94-3.1,8.82,8.82,0,0,1,2.92-2.05,9,9,0,0,1,3.64-.73,9.37,9.37,0,0,1,3.69.7,8.1,8.1,0,0,1,2.86,2,9,9,0,0,1,1.83,3.08,11.68,11.68,0,0,1,.65,4V61H488.2a5.59,5.59,0,0,0,1.51,3.23,4.08,4.08,0,0,0,3,1.17A4.47,4.47,0,0,0,495,64.8a4.72,4.72,0,0,0,1.7-1.71l4.37,1.4a7.05,7.05,0,0,1-1.88,2.69,8.87,8.87,0,0,1-2.95,1.73A10.21,10.21,0,0,1,492.69,69.53Zm-.25-15.75a3.77,3.77,0,0,0-2.71,1,5.11,5.11,0,0,0-1.45,2.87h8.15a5,5,0,0,0-1.35-2.87A3.61,3.61,0,0,0,492.44,53.78Z"/><path class="cls-3" d="M505,69V50.52h4.52l.17,2.8a5.51,5.51,0,0,1,1.89-2.26,5,5,0,0,1,2.8-.78,5.4,5.4,0,0,1,1,.08,5.9,5.9,0,0,1,.88.23l-.53,4.83a3.64,3.64,0,0,0-.79-.19,5.56,5.56,0,0,0-.82,0A3.9,3.9,0,0,0,511,56.42a5.14,5.14,0,0,0-1.09,3.51V69Z"/><path class="cls-3" d="M523.1,76.14a7.92,7.92,0,0,1-1.79-.19,5.76,5.76,0,0,1-1.57-.61l.94-3.85a5.43,5.43,0,0,0,.91.29,4.49,4.49,0,0,0,1,.13,3,3,0,0,0,1.76-.55,3.85,3.85,0,0,0,1.24-1.73l.32-.8-7.46-18.31h5.36l4.37,13.09,4-13.09h5.18l-7.6,20.23a9.31,9.31,0,0,1-2.67,4.1A6.16,6.16,0,0,1,523.1,76.14Z"/></g></g></g></svg>