<svg id="Layer_1" data-name="Layer 1" xmlns="http://www.w3.org/2000/svg" xmlns:xlink="http://www.w3.org/1999/xlink" viewBox="0 0 763 173"><defs><style>.cls-1{fill:url(#linear-gradient);}.cls-2{isolation:isolate;}.cls-3{fill:#f7f5f5;}</style><linearGradient id="linear-gradient" x1="-1598.3" y1="4460.18" x2="-1597.31" y2="4459.26" gradientTransform="matrix(763, 0, 0, -173, 1219517.54, 771620.43)" gradientUnits="userSpaceOnUse"><stop offset="0" stop-color="#7ba9de"/><stop offset="1" stop-color="#519aed"/></linearGradient></defs><title>pp4</title><g id="Group_349" data-name="Group 349"><rect id="Rectangle_104-2" data-name="Rectangle 104-2" class="cls-1" width="763" height="173"/><g id="Organizations_need_a_way_to_maintain_an_organized_and_thus_efficient_workspace_in_order_to_reduce_production_cost." data-name="Organizations need a way to maintain an organized and thus efficient workspace in order to reduce production cost." class="cls-2"><g class="cls-2"><path class="cls-3" d="M100.05,109.4a7.38,7.38,0,0,1-2.33-.36,6.66,6.66,0,0,1-2-1,7.22,7.22,0,0,1-1.53-1.59,7.14,7.14,0,0,1-1-2.06,8.68,8.68,0,0,1,0-4.88,7.33,7.33,0,0,1,1-2.07,6.89,6.89,0,0,1,3.53-2.65,7.72,7.72,0,0,1,4.66,0,6.66,6.66,0,0,1,2,1,7.22,7.22,0,0,1,1.53,1.59,7.12,7.12,0,0,1,1,2.06,8.8,8.8,0,0,1,0,4.88,7.33,7.33,0,0,1-1,2.07,7.1,7.1,0,0,1-1.53,1.61,6.69,6.69,0,0,1-2,1A7.38,7.38,0,0,1,100.05,109.4Zm0-2.24a4.44,4.44,0,0,0,1.87-.39,4.28,4.28,0,0,0,1.47-1.09,5.1,5.1,0,0,0,1-1.67,6.54,6.54,0,0,0,0-4.22,5.1,5.1,0,0,0-1-1.67A4.28,4.28,0,0,0,101.92,97a4.68,4.68,0,0,0-3.74,0,4.28,4.28,0,0,0-1.47,1.09,5.1,5.1,0,0,0-1,1.67,6.54,6.54,0,0,0,0,4.22,5.1,5.1,0,0,0,1,1.67,4.28,4.28,0,0,0,1.47,1.09A4.44,4.44,0,0,0,100.05,107.16Z"/><path class="cls-3" d="M109.67,109V98.54h2.1l.1,1.72A3.3,3.3,0,0,1,113,98.89a2.84,2.84,0,0,1,1.67-.49,3.69,3.69,0,0,1,.58,0,1.83,1.83,0,0,1,.5.14l-.26,2.24a2.37,2.37,0,0,0-.46-.11,3.87,3.87,0,0,0-.48,0,2.34,2.34,0,0,0-1.88.8,3.33,3.33,0,0,0-.68,2.22V109Z"/><path class="cls-3" d="M121.75,108.8a4.5,4.5,0,0,1-1.9-.4,4.85,4.85,0,0,1-1.54-1.11,5,5,0,0,1-1-1.66,6.11,6.11,0,0,1,0-4.16,5.13,5.13,0,0,1,1-1.69,4.92,4.92,0,0,1,1.58-1.13,4.69,4.69,0,0,1,1.94-.41,4.18,4.18,0,0,1,2,.47,3.75,3.75,0,0,1,1.43,1.31l.08-1.48h2.1v9.36a6.14,6.14,0,0,1-.38,2.19,4.73,4.73,0,0,1-2.75,2.79,6,6,0,0,1-2.17.38,5.33,5.33,0,0,1-2.8-.72,5,5,0,0,1-1.88-2l2.18-.76a3,3,0,0,0,1.1,1.09,2.93,2.93,0,0,0,1.48.37,3,3,0,0,0,1.54-.39,2.65,2.65,0,0,0,1-1.1,3.64,3.64,0,0,0,.36-1.67v-1a4,4,0,0,1-1.44,1.26A4.14,4.14,0,0,1,121.75,108.8Zm.48-2.08a2.79,2.79,0,0,0,1.51-.42,3,3,0,0,0,1.06-1.14,3.64,3.64,0,0,0,0-3.28,3,3,0,0,0-1.06-1.14,2.79,2.79,0,0,0-1.51-.42,2.73,2.73,0,0,0-1.5.42,3,3,0,0,0-1,1.14,3.64,3.64,0,0,0,0,3.28,3,3,0,0,0,1,1.14A2.73,2.73,0,0,0,122.23,106.72Z"/><path class="cls-3" d="M133.41,109.3a4.36,4.36,0,0,1-1.47-.24,3.57,3.57,0,0,1-1.17-.68,3.2,3.2,0,0,1-.78-1,3,3,0,0,1-.28-1.32,3,3,0,0,1,.53-1.75,3.46,3.46,0,0,1,1.49-1.17,5.56,5.56,0,0,1,2.24-.42,6.48,6.48,0,0,1,1.34.13,6.91,6.91,0,0,1,1.22.37v-.66a2.79,2.79,0,0,0-.26-1.23,2,2,0,0,0-.74-.83,2.15,2.15,0,0,0-1.16-.3,2.36,2.36,0,0,0-1.3.38,2.26,2.26,0,0,0-.86,1.06l-2.12-.48A3.41,3.41,0,0,1,131,99.6a4.42,4.42,0,0,1,1.52-1,5.1,5.1,0,0,1,1.93-.36,4.91,4.91,0,0,1,1.79.32,4,4,0,0,1,1.39.9,4,4,0,0,1,.9,1.38,4.82,4.82,0,0,1,.32,1.78V109h-2.1l-.08-1.38a3.09,3.09,0,0,1-1.26,1.22A4,4,0,0,1,133.41,109.3ZM132,105.92a1.36,1.36,0,0,0,.24.79,1.6,1.6,0,0,0,.67.55,2.43,2.43,0,0,0,1,.2,2.74,2.74,0,0,0,1.32-.32,2.41,2.41,0,0,0,.92-.87,2.3,2.3,0,0,0,.34-1.25v-.24a6.69,6.69,0,0,0-1.07-.35,4.72,4.72,0,0,0-1.13-.13,2.89,2.89,0,0,0-1.67.44A1.37,1.37,0,0,0,132,105.92Z"/><path class="cls-3" d="M141.57,109V98.54h2.1l.08,1.44A3.42,3.42,0,0,1,145,98.71a3.83,3.83,0,0,1,1.91-.47,3.72,3.72,0,0,1,2.05.56,3.68,3.68,0,0,1,1.35,1.58,5.59,5.59,0,0,1,.48,2.4V109h-2.3v-6a3.15,3.15,0,0,0-.57-2,1.91,1.91,0,0,0-1.59-.72,2.44,2.44,0,0,0-1.29.34,2.38,2.38,0,0,0-.89.92,2.77,2.77,0,0,0-.32,1.34V109Z"/><path class="cls-3" d="M156.13,95.62a1.32,1.32,0,0,1-.19.7,1.55,1.55,0,0,1-.51.51,1.38,1.38,0,0,1-1.4,0,1.55,1.55,0,0,1-.51-.51,1.38,1.38,0,0,1,0-1.4,1.55,1.55,0,0,1,.51-.51,1.38,1.38,0,0,1,1.4,0,1.55,1.55,0,0,1,.51.51A1.32,1.32,0,0,1,156.13,95.62ZM153.59,109V98.54h2.3V109Z"/><path class="cls-3" d="M158.23,109v-1.52l5.44-7.08h-5.3V98.54h8.14v1.52l-5.44,7.08h5.78V109Z"/><path class="cls-3" d="M172.39,109.3a4.36,4.36,0,0,1-1.47-.24,3.57,3.57,0,0,1-1.17-.68,3.2,3.2,0,0,1-.78-1,3,3,0,0,1-.28-1.32,3,3,0,0,1,.53-1.75,3.46,3.46,0,0,1,1.49-1.17,5.56,5.56,0,0,1,2.24-.42,6.48,6.48,0,0,1,1.34.13,6.91,6.91,0,0,1,1.22.37v-.66a2.79,2.79,0,0,0-.26-1.23,2,2,0,0,0-.74-.83,2.15,2.15,0,0,0-1.16-.3,2.36,2.36,0,0,0-1.3.38,2.26,2.26,0,0,0-.86,1.06l-2.12-.48a3.41,3.41,0,0,1,.87-1.52,4.42,4.42,0,0,1,1.52-1,5.1,5.1,0,0,1,1.93-.36,4.91,4.91,0,0,1,1.79.32,4,4,0,0,1,1.39.9,4.17,4.17,0,0,1,.9,1.38,4.82,4.82,0,0,1,.32,1.78V109h-2.1l-.08-1.38a3.09,3.09,0,0,1-1.26,1.22A4,4,0,0,1,172.39,109.3ZM171,105.92a1.36,1.36,0,0,0,.24.79,1.6,1.6,0,0,0,.67.55,2.39,2.39,0,0,0,1,.2,2.74,2.74,0,0,0,1.32-.32,2.41,2.41,0,0,0,.92-.87,2.3,2.3,0,0,0,.34-1.25v-.24a6.69,6.69,0,0,0-1.07-.35,4.72,4.72,0,0,0-1.13-.13,2.89,2.89,0,0,0-1.67.44A1.37,1.37,0,0,0,171,105.92Z"/><path class="cls-3" d="M184.53,109.3a3.31,3.31,0,0,1-2.48-.91,3.57,3.57,0,0,1-.9-2.61V100.4h-1.84V98.54h1.84V95h2.3v3.54h3v1.86h-3v5.14a2.09,2.09,0,0,0,.35,1.29,1.21,1.21,0,0,0,1,.45,3.25,3.25,0,0,0,.78-.11,3.34,3.34,0,0,0,.78-.31l.52,1.74a4.24,4.24,0,0,1-1.07.51A4.32,4.32,0,0,1,184.53,109.3Z"/><path class="cls-3" d="M191.55,95.62a1.32,1.32,0,0,1-.19.7,1.55,1.55,0,0,1-.51.51,1.38,1.38,0,0,1-1.4,0,1.55,1.55,0,0,1-.51-.51,1.38,1.38,0,0,1,0-1.4,1.55,1.55,0,0,1,.51-.51,1.38,1.38,0,0,1,1.4,0,1.55,1.55,0,0,1,.51.51A1.32,1.32,0,0,1,191.55,95.62ZM189,109V98.54h2.3V109Z"/><path class="cls-3" d="M198.93,109.3a5.4,5.4,0,0,1-2.11-.41,5,5,0,0,1-1.69-1.16A5.45,5.45,0,0,1,194,106a5.87,5.87,0,0,1-.4-2.21,5.8,5.8,0,0,1,.4-2.19,5.32,5.32,0,0,1,1.13-1.76,5,5,0,0,1,1.72-1.16,5.64,5.64,0,0,1,2.15-.41,5.44,5.44,0,0,1,2.11.41,5.05,5.05,0,0,1,1.69,1.16,5.41,5.41,0,0,1,1.12,1.75,6.28,6.28,0,0,1,0,4.41,5.32,5.32,0,0,1-1.13,1.76,5.07,5.07,0,0,1-1.72,1.16A5.64,5.64,0,0,1,198.93,109.3Zm0-2.08a2.75,2.75,0,0,0,1.54-.45,3.13,3.13,0,0,0,1.07-1.23,3.92,3.92,0,0,0,.39-1.78,3.85,3.85,0,0,0-.39-1.77,3.17,3.17,0,0,0-1.07-1.22,2.75,2.75,0,0,0-1.54-.45,2.7,2.7,0,0,0-1.54.45,3.09,3.09,0,0,0-1.07,1.22,3.85,3.85,0,0,0-.39,1.77,3.92,3.92,0,0,0,.39,1.78,3.05,3.05,0,0,0,1.07,1.23A2.7,2.7,0,0,0,199,107.22Z"/><path class="cls-3" d="M206.63,109V98.54h2.1l.08,1.44a3.35,3.35,0,0,1,1.29-1.27,3.83,3.83,0,0,1,1.91-.47,3.75,3.75,0,0,1,2.05.56,3.68,3.68,0,0,1,1.35,1.58,5.59,5.59,0,0,1,.48,2.4V109h-2.3v-6a3.15,3.15,0,0,0-.57-2,1.91,1.91,0,0,0-1.59-.72,2.44,2.44,0,0,0-1.29.34,2.38,2.38,0,0,0-.89.92,2.77,2.77,0,0,0-.32,1.34V109Z"/><path class="cls-3" d="M222.23,109.3a5.08,5.08,0,0,1-1.89-.34,4.1,4.1,0,0,1-1.48-1,3.56,3.56,0,0,1-.87-1.49l2.08-.54a2.11,2.11,0,0,0,.84,1.06,2.39,2.39,0,0,0,1.34.38,2.07,2.07,0,0,0,1.28-.37,1.14,1.14,0,0,0,.5-1,1.09,1.09,0,0,0-.4-.84,2.79,2.79,0,0,0-1.3-.5l-.66-.12a5,5,0,0,1-2.53-1.08,2.59,2.59,0,0,1-.85-2,3,3,0,0,1,.5-1.72,3.36,3.36,0,0,1,1.38-1.16,5,5,0,0,1,3.82-.08,3.89,3.89,0,0,1,1.38,1,3.65,3.65,0,0,1,.8,1.46l-2.06.5a2.14,2.14,0,0,0-.75-1,2,2,0,0,0-1.19-.37,1.88,1.88,0,0,0-1.16.35,1.06,1.06,0,0,0-.46.89.89.89,0,0,0,.41.76,3.55,3.55,0,0,0,1.39.48l.66.12a4.65,4.65,0,0,1,2.46,1.1,2.73,2.73,0,0,1,.86,2,3.16,3.16,0,0,1-.3,1.37,3.36,3.36,0,0,1-.85,1.1,4,4,0,0,1-1.3.72A5.1,5.1,0,0,1,222.23,109.3Z"/><path class="cls-3" d="M233.05,109V98.54h2.1l.08,1.44a3.28,3.28,0,0,1,1.29-1.27,3.83,3.83,0,0,1,1.91-.47,3.75,3.75,0,0,1,2,.56,3.68,3.68,0,0,1,1.35,1.58,5.59,5.59,0,0,1,.48,2.4V109H240v-6a3.15,3.15,0,0,0-.57-2,1.91,1.91,0,0,0-1.59-.72,2.44,2.44,0,0,0-1.29.34,2.38,2.38,0,0,0-.89.92,2.66,2.66,0,0,0-.32,1.34V109Z"/><path class="cls-3" d="M249.93,109.3a5.43,5.43,0,0,1-2.13-.41,5.07,5.07,0,0,1-1.69-1.15A5.13,5.13,0,0,1,245,106a6.14,6.14,0,0,1-.39-2.23,6,6,0,0,1,.39-2.18,5.48,5.48,0,0,1,1.08-1.75,4.91,4.91,0,0,1,3.67-1.59,5.07,5.07,0,0,1,2,.39,4.72,4.72,0,0,1,1.58,1.11,5.08,5.08,0,0,1,1,1.71,6.37,6.37,0,0,1,.36,2.19v.68H247a3.91,3.91,0,0,0,.49,1.59,2.7,2.7,0,0,0,1,1,2.8,2.8,0,0,0,1.44.36,2.89,2.89,0,0,0,2.56-1.46l2,.78a4.08,4.08,0,0,1-1,1.43,4.74,4.74,0,0,1-1.6.93A5.88,5.88,0,0,1,249.93,109.3Zm-.18-9.2a2.45,2.45,0,0,0-1.25.32,2.66,2.66,0,0,0-.93.9,3.48,3.48,0,0,0-.52,1.36h5.28a4,4,0,0,0-.46-1.36,2.48,2.48,0,0,0-.89-.9A2.45,2.45,0,0,0,249.75,100.1Z"/><path class="cls-3" d="M261.93,109.3a5.43,5.43,0,0,1-2.13-.41,5.07,5.07,0,0,1-1.69-1.15A5.13,5.13,0,0,1,257,106a6.14,6.14,0,0,1-.39-2.23,6,6,0,0,1,.39-2.18,5.48,5.48,0,0,1,1.08-1.75,4.91,4.91,0,0,1,3.67-1.59,5.07,5.07,0,0,1,2,.39,4.72,4.72,0,0,1,1.58,1.11,5.08,5.08,0,0,1,1,1.71,6.37,6.37,0,0,1,.36,2.19v.68H259a3.91,3.91,0,0,0,.49,1.59,2.7,2.7,0,0,0,1,1,2.8,2.8,0,0,0,1.44.36,2.89,2.89,0,0,0,2.56-1.46l2,.78a4.08,4.08,0,0,1-1.05,1.43,4.74,4.74,0,0,1-1.6.93A5.88,5.88,0,0,1,261.93,109.3Zm-.18-9.2a2.45,2.45,0,0,0-1.25.32,2.66,2.66,0,0,0-.93.9,3.48,3.48,0,0,0-.52,1.36h5.28a4,4,0,0,0-.46-1.36,2.48,2.48,0,0,0-.89-.9A2.45,2.45,0,0,0,261.75,100.1Z"/><path class="cls-3" d="M273.49,109.3a4.43,4.43,0,0,1-1.93-.42,4.78,4.78,0,0,1-1.55-1.16,5.21,5.21,0,0,1-1-1.74,6.52,6.52,0,0,1,0-4.36,5.4,5.4,0,0,1,1.06-1.78,4.72,4.72,0,0,1,1.59-1.18,4.61,4.61,0,0,1,2-.42,4.18,4.18,0,0,1,1.9.44,3.93,3.93,0,0,1,1.42,1.24v-5.8h2.3V109h-2.1l-.1-1.68a4.19,4.19,0,0,1-1.48,1.45A4.1,4.1,0,0,1,273.49,109.3Zm.48-2.08a2.75,2.75,0,0,0,1.54-.45,3.13,3.13,0,0,0,1.07-1.23,4.21,4.21,0,0,0,0-3.54,3.13,3.13,0,0,0-1.07-1.23,2.75,2.75,0,0,0-1.54-.45,2.7,2.7,0,0,0-1.54.45,3.05,3.05,0,0,0-1.07,1.23,4.21,4.21,0,0,0,0,3.54,3.05,3.05,0,0,0,1.07,1.23A2.7,2.7,0,0,0,274,107.22Z"/><path class="cls-3" d="M289.73,109.3a4.28,4.28,0,0,1-1.47-.24,3.57,3.57,0,0,1-1.17-.68,2.94,2.94,0,0,1-.78-1A3,3,0,0,1,286,106a2.9,2.9,0,0,1,.53-1.75,3.46,3.46,0,0,1,1.49-1.17,5.53,5.53,0,0,1,2.24-.42,6.55,6.55,0,0,1,1.34.13,7.17,7.17,0,0,1,1.22.37v-.66a2.79,2.79,0,0,0-.26-1.23,2.06,2.06,0,0,0-.74-.83,2.15,2.15,0,0,0-1.16-.3,2.33,2.33,0,0,0-1.3.38,2.2,2.2,0,0,0-.86,1.06l-2.12-.48a3.41,3.41,0,0,1,.87-1.52,4.33,4.33,0,0,1,1.52-1,5.06,5.06,0,0,1,1.93-.36,4.91,4.91,0,0,1,1.79.32,4,4,0,0,1,1.39.9,4.34,4.34,0,0,1,.9,1.38,4.82,4.82,0,0,1,.32,1.78V109H293l-.08-1.38a3.09,3.09,0,0,1-1.26,1.22A4,4,0,0,1,289.73,109.3Zm-1.38-3.38a1.36,1.36,0,0,0,.24.79,1.6,1.6,0,0,0,.67.55,2.39,2.39,0,0,0,1,.2,2.74,2.74,0,0,0,1.32-.32,2.48,2.48,0,0,0,.92-.87,2.39,2.39,0,0,0,.34-1.25v-.24a7,7,0,0,0-1.07-.35,4.78,4.78,0,0,0-1.13-.13,2.87,2.87,0,0,0-1.67.44A1.37,1.37,0,0,0,288.35,105.92Z"/><path class="cls-3" d="M305,109l-3.48-10.46h2.4l2.22,7.64,2.34-7.64h2.06l2.32,7.64,2.26-7.64h2.32L313.89,109h-2.16l-2.3-7.6-2.32,7.6Z"/><path class="cls-3" d="M322.07,109.3a4.28,4.28,0,0,1-1.47-.24,3.57,3.57,0,0,1-1.17-.68,2.94,2.94,0,0,1-.78-1,3,3,0,0,1-.28-1.32,2.9,2.9,0,0,1,.53-1.75,3.46,3.46,0,0,1,1.49-1.17,5.53,5.53,0,0,1,2.24-.42,6.55,6.55,0,0,1,1.34.13,7.17,7.17,0,0,1,1.22.37v-.66a2.79,2.79,0,0,0-.26-1.23,2.06,2.06,0,0,0-.74-.83,2.15,2.15,0,0,0-1.16-.3,2.33,2.33,0,0,0-1.3.38,2.2,2.2,0,0,0-.86,1.06l-2.12-.48a3.41,3.41,0,0,1,.87-1.52,4.33,4.33,0,0,1,1.52-1,5.06,5.06,0,0,1,1.93-.36,4.91,4.91,0,0,1,1.79.32,4,4,0,0,1,1.39.9,4.34,4.34,0,0,1,.9,1.38,4.82,4.82,0,0,1,.32,1.78V109h-2.1l-.08-1.38a3.09,3.09,0,0,1-1.26,1.22A4,4,0,0,1,322.07,109.3Zm-1.38-3.38a1.36,1.36,0,0,0,.24.79,1.6,1.6,0,0,0,.67.55,2.39,2.39,0,0,0,1,.2,2.74,2.74,0,0,0,1.32-.32,2.48,2.48,0,0,0,.92-.87,2.39,2.39,0,0,0,.34-1.25v-.24a7,7,0,0,0-1.07-.35,4.78,4.78,0,0,0-1.13-.13,2.87,2.87,0,0,0-1.67.44A1.37,1.37,0,0,0,320.69,105.92Z"/><path class="cls-3" d="M331.29,113.16a3.84,3.84,0,0,1-.93-.1,3.1,3.1,0,0,1-.83-.32l.5-1.82a2.65,2.65,0,0,0,.5.17,2,2,0,0,0,.54.07,1.67,1.67,0,0,0,1.05-.34,2.48,2.48,0,0,0,.75-1.1l.32-.82-4.26-10.36h2.52l2.82,7.82,2.56-7.82h2.44l-4.44,11.72a5.18,5.18,0,0,1-1.45,2.2A3.22,3.22,0,0,1,331.29,113.16Z"/><path class="cls-3" d="M349.93,109.3a3.31,3.31,0,0,1-2.48-.91,3.57,3.57,0,0,1-.9-2.61V100.4h-1.84V98.54h1.84V95h2.3v3.54h3v1.86h-3v5.14a2,2,0,0,0,.35,1.29,1.21,1.21,0,0,0,1,.45,3.25,3.25,0,0,0,.78-.11,3.34,3.34,0,0,0,.78-.31l.52,1.74a4.24,4.24,0,0,1-1.07.51A4.32,4.32,0,0,1,349.93,109.3Z"/><path class="cls-3" d="M359.07,109.3a5.4,5.4,0,0,1-2.11-.41,5,5,0,0,1-1.69-1.16,5.29,5.29,0,0,1-1.12-1.76,5.87,5.87,0,0,1-.4-2.21,5.8,5.8,0,0,1,.4-2.19,5.16,5.16,0,0,1,1.13-1.76A5,5,0,0,1,357,98.65a5.6,5.6,0,0,1,2.15-.41,5.44,5.44,0,0,1,2.11.41A5.05,5.05,0,0,1,363,99.81a5.41,5.41,0,0,1,1.12,1.75,6.28,6.28,0,0,1,0,4.41,5.48,5.48,0,0,1-1.13,1.76,5.07,5.07,0,0,1-1.72,1.16A5.64,5.64,0,0,1,359.07,109.3Zm0-2.08a2.75,2.75,0,0,0,1.54-.45,3.13,3.13,0,0,0,1.07-1.23,3.92,3.92,0,0,0,.39-1.78,3.85,3.85,0,0,0-.39-1.77,3.17,3.17,0,0,0-1.07-1.22,2.75,2.75,0,0,0-1.54-.45,2.7,2.7,0,0,0-1.54.45A3.09,3.09,0,0,0,356.5,102a3.85,3.85,0,0,0-.39,1.77,3.92,3.92,0,0,0,.39,1.78,3.05,3.05,0,0,0,1.07,1.23A2.7,2.7,0,0,0,359.11,107.22Z"/><path class="cls-3" d="M371.31,109V98.54h2.1l.08,1.4a3.34,3.34,0,0,1,1.26-1.24,3.54,3.54,0,0,1,1.82-.46,3.44,3.44,0,0,1,1.94.55,3.69,3.69,0,0,1,1.3,1.51,3.56,3.56,0,0,1,.81-1.08,3.62,3.62,0,0,1,1.2-.72,4.24,4.24,0,0,1,1.49-.26,3.66,3.66,0,0,1,2,.55,3.71,3.71,0,0,1,1.33,1.56,5.72,5.72,0,0,1,.47,2.41V109h-2.3v-6a3.15,3.15,0,0,0-.56-2,1.87,1.87,0,0,0-1.54-.7,2.22,2.22,0,0,0-1.21.33,2.27,2.27,0,0,0-.84.92,2.78,2.78,0,0,0-.31,1.33V109h-2.3v-6a3.15,3.15,0,0,0-.56-2,1.87,1.87,0,0,0-1.54-.7,2.22,2.22,0,0,0-1.21.33,2.27,2.27,0,0,0-.84.92,2.78,2.78,0,0,0-.31,1.33V109Z"/><path class="cls-3" d="M393.09,109.3a4.28,4.28,0,0,1-1.47-.24,3.57,3.57,0,0,1-1.17-.68,2.94,2.94,0,0,1-.78-1,3,3,0,0,1-.28-1.32,2.9,2.9,0,0,1,.53-1.75,3.46,3.46,0,0,1,1.49-1.17,5.53,5.53,0,0,1,2.24-.42,6.55,6.55,0,0,1,1.34.13,7.17,7.17,0,0,1,1.22.37v-.66a2.79,2.79,0,0,0-.26-1.23,2.06,2.06,0,0,0-.74-.83,2.15,2.15,0,0,0-1.16-.3,2.33,2.33,0,0,0-1.3.38,2.2,2.2,0,0,0-.86,1.06l-2.12-.48a3.41,3.41,0,0,1,.87-1.52,4.33,4.33,0,0,1,1.52-1,5.06,5.06,0,0,1,1.93-.36,4.91,4.91,0,0,1,1.79.32,4,4,0,0,1,1.39.9,4.34,4.34,0,0,1,.9,1.38,4.82,4.82,0,0,1,.32,1.78V109h-2.1l-.08-1.38a3.09,3.09,0,0,1-1.26,1.22A4,4,0,0,1,393.09,109.3Zm-1.38-3.38a1.36,1.36,0,0,0,.24.79,1.6,1.6,0,0,0,.67.55,2.39,2.39,0,0,0,1,.2,2.74,2.74,0,0,0,1.32-.32,2.48,2.48,0,0,0,.92-.87,2.39,2.39,0,0,0,.34-1.25v-.24a7,7,0,0,0-1.07-.35,4.78,4.78,0,0,0-1.13-.13,2.87,2.87,0,0,0-1.67.44A1.37,1.37,0,0,0,391.71,105.92Z"/><path class="cls-3" d="M403.79,95.62a1.41,1.41,0,0,1-.19.7,1.55,1.55,0,0,1-.51.51,1.34,1.34,0,0,1-.7.19,1.29,1.29,0,0,1-.7-.19,1.39,1.39,0,0,1-.51-.51,1.38,1.38,0,0,1,0-1.4,1.39,1.39,0,0,1,.51-.51,1.29,1.29,0,0,1,.7-.19,1.34,1.34,0,0,1,.7.19,1.55,1.55,0,0,1,.51.51A1.41,1.41,0,0,1,403.79,95.62ZM401.25,109V98.54h2.3V109Z"/><path class="cls-3" d="M406.31,109V98.54h2.1l.08,1.44a3.28,3.28,0,0,1,1.29-1.27,3.83,3.83,0,0,1,1.91-.47,3.75,3.75,0,0,1,2.05.56,3.68,3.68,0,0,1,1.35,1.58,5.59,5.59,0,0,1,.48,2.4V109h-2.3v-6a3.15,3.15,0,0,0-.57-2,1.91,1.91,0,0,0-1.59-.72,2.44,2.44,0,0,0-1.29.34,2.38,2.38,0,0,0-.89.92,2.66,2.66,0,0,0-.32,1.34V109Z"/><path class="cls-3" d="M422.35,109.3a3.31,3.31,0,0,1-2.48-.91,3.57,3.57,0,0,1-.9-2.61V100.4h-1.85V98.54H419V95h2.3v3.54h3v1.86h-3v5.14a2,2,0,0,0,.35,1.29,1.21,1.21,0,0,0,1,.45,3.34,3.34,0,0,0,1.55-.42l.53,1.74a4.24,4.24,0,0,1-1.07.51A4.32,4.32,0,0,1,422.35,109.3Z"/><path class="cls-3" d="M429.91,109.3a4.28,4.28,0,0,1-1.47-.24,3.57,3.57,0,0,1-1.17-.68,2.94,2.94,0,0,1-.78-1,3,3,0,0,1-.28-1.32,2.9,2.9,0,0,1,.53-1.75,3.46,3.46,0,0,1,1.49-1.17,5.53,5.53,0,0,1,2.24-.42,6.55,6.55,0,0,1,1.34.13,7.17,7.17,0,0,1,1.22.37v-.66a2.79,2.79,0,0,0-.26-1.23,2.06,2.06,0,0,0-.74-.83,2.15,2.15,0,0,0-1.16-.3,2.33,2.33,0,0,0-1.3.38,2.2,2.2,0,0,0-.86,1.06l-2.12-.48a3.32,3.32,0,0,1,.87-1.52,4.33,4.33,0,0,1,1.52-1,5.06,5.06,0,0,1,1.93-.36,4.91,4.91,0,0,1,1.79.32,4,4,0,0,1,1.39.9,4.34,4.34,0,0,1,.9,1.38,4.82,4.82,0,0,1,.32,1.78V109h-2.1l-.08-1.38a3.09,3.09,0,0,1-1.26,1.22A4,4,0,0,1,429.91,109.3Zm-1.38-3.38a1.36,1.36,0,0,0,.24.79,1.6,1.6,0,0,0,.67.55,2.39,2.39,0,0,0,1,.2,2.74,2.74,0,0,0,1.32-.32,2.48,2.48,0,0,0,.92-.87A2.39,2.39,0,0,0,433,105v-.24a7,7,0,0,0-1.07-.35,4.78,4.78,0,0,0-1.13-.13,2.87,2.87,0,0,0-1.67.44A1.37,1.37,0,0,0,428.53,105.92Z"/><path class="cls-3" d="M440.6,95.62a1.32,1.32,0,0,1-.19.7,1.44,1.44,0,0,1-.5.51,1.4,1.4,0,0,1-1.41,0,1.55,1.55,0,0,1-.51-.51,1.38,1.38,0,0,1,0-1.4,1.55,1.55,0,0,1,.51-.51,1.4,1.4,0,0,1,1.41,0,1.44,1.44,0,0,1,.5.51A1.32,1.32,0,0,1,440.6,95.62ZM438.07,109V98.54h2.3V109Z"/><path class="cls-3" d="M443.12,109V98.54h2.1l.08,1.44a3.42,3.42,0,0,1,1.29-1.27,3.89,3.89,0,0,1,1.91-.47,3.72,3.72,0,0,1,2.05.56,3.77,3.77,0,0,1,1.36,1.58,5.74,5.74,0,0,1,.47,2.4V109h-2.3v-6a3.15,3.15,0,0,0-.57-2,1.9,1.9,0,0,0-1.59-.72,2.43,2.43,0,0,0-2.18,1.26,2.77,2.77,0,0,0-.32,1.34V109Z"/><path class="cls-3" d="M462.88,109.3a4.36,4.36,0,0,1-1.47-.24,3.78,3.78,0,0,1-1.17-.68,3,3,0,0,1-1.05-2.36,3,3,0,0,1,.52-1.75,3.58,3.58,0,0,1,1.49-1.17,5.58,5.58,0,0,1,2.25-.42,6.55,6.55,0,0,1,1.34.13,6.8,6.8,0,0,1,1.21.37v-.66a2.65,2.65,0,0,0-.26-1.23,1.92,1.92,0,0,0-.74-.83,2.11,2.11,0,0,0-1.16-.3,2.38,2.38,0,0,0-1.3.38,2.24,2.24,0,0,0-.85,1.06l-2.12-.48a3.23,3.23,0,0,1,.87-1.52,4.38,4.38,0,0,1,1.51-1,5.14,5.14,0,0,1,1.93-.36,4.87,4.87,0,0,1,1.79.32,4,4,0,0,1,1.4.9,4.15,4.15,0,0,1,.89,1.38,4.63,4.63,0,0,1,.33,1.78V109h-2.1l-.08-1.38a3.06,3.06,0,0,1-1.27,1.22A4,4,0,0,1,462.88,109.3Zm-1.38-3.38a1.36,1.36,0,0,0,.24.79,1.73,1.73,0,0,0,.67.55,2.46,2.46,0,0,0,1,.2,2.69,2.69,0,0,0,1.32-.32,2.34,2.34,0,0,0,.92-.87A2.3,2.3,0,0,0,466,105v-.24a6.58,6.58,0,0,0-1.06-.35,4.8,4.8,0,0,0-1.14-.13,2.89,2.89,0,0,0-1.67.44A1.37,1.37,0,0,0,461.5,105.92Z"/><path class="cls-3" d="M471,109V98.54h2.1l.08,1.44a3.42,3.42,0,0,1,1.29-1.27,3.86,3.86,0,0,1,1.91-.47,3.72,3.72,0,0,1,2.05.56,3.68,3.68,0,0,1,1.35,1.58,5.59,5.59,0,0,1,.48,2.4V109H478v-6a3.15,3.15,0,0,0-.57-2,1.91,1.91,0,0,0-1.59-.72,2.43,2.43,0,0,0-2.18,1.26,2.77,2.77,0,0,0-.32,1.34V109Z"/><path class="cls-3" d="M492.46,109.3a5.44,5.44,0,0,1-2.11-.41,5.05,5.05,0,0,1-1.69-1.16,5.45,5.45,0,0,1-1.12-1.76,6.07,6.07,0,0,1-.4-2.21,6,6,0,0,1,.4-2.19,5.48,5.48,0,0,1,1.13-1.76,5.07,5.07,0,0,1,1.72-1.16,5.64,5.64,0,0,1,2.15-.41,5.4,5.4,0,0,1,2.11.41,5,5,0,0,1,1.69,1.16,5.25,5.25,0,0,1,1.12,1.75,6.28,6.28,0,0,1,0,4.41,5.16,5.16,0,0,1-1.13,1.76,5,5,0,0,1-1.72,1.16A5.6,5.6,0,0,1,492.46,109.3Zm0-2.08a2.7,2.7,0,0,0,1.54-.45,3.05,3.05,0,0,0,1.07-1.23,3.92,3.92,0,0,0,.39-1.78,3.85,3.85,0,0,0-.39-1.77,3.09,3.09,0,0,0-1.07-1.22,2.7,2.7,0,0,0-1.54-.45,2.75,2.75,0,0,0-1.54.45,3.17,3.17,0,0,0-1.07,1.22,3.85,3.85,0,0,0-.39,1.77,3.92,3.92,0,0,0,.39,1.78,3.13,3.13,0,0,0,1.07,1.23A2.75,2.75,0,0,0,492.5,107.22Z"/><path class="cls-3" d="M500.16,109V98.54h2.1l.1,1.72a3.3,3.3,0,0,1,1.11-1.37,2.86,2.86,0,0,1,1.67-.49,3.6,3.6,0,0,1,.58,0,1.73,1.73,0,0,1,.5.14l-.26,2.24a2.21,2.21,0,0,0-.46-.11,3.87,3.87,0,0,0-.48,0,2.35,2.35,0,0,0-1.88.8,3.33,3.33,0,0,0-.68,2.22V109Z"/><path class="cls-3" d="M512.24,108.8a4.5,4.5,0,0,1-1.9-.4,5,5,0,0,1-1.54-1.11,5,5,0,0,1-1-1.66,5.77,5.77,0,0,1-.36-2.07,6,6,0,0,1,.37-2.09,5.13,5.13,0,0,1,1-1.69,5,5,0,0,1,1.58-1.13,4.69,4.69,0,0,1,1.94-.41,4.18,4.18,0,0,1,2,.47,3.68,3.68,0,0,1,1.43,1.31l.08-1.48h2.1v9.36a5.93,5.93,0,0,1-.38,2.19,4.75,4.75,0,0,1-1.08,1.7,4.65,4.65,0,0,1-1.67,1.09,6,6,0,0,1-2.17.38,5.35,5.35,0,0,1-2.8-.72,5.1,5.1,0,0,1-1.88-2l2.18-.76a3.1,3.1,0,0,0,1.1,1.09,3.19,3.19,0,0,0,3,0,2.65,2.65,0,0,0,1-1.1,3.64,3.64,0,0,0,.36-1.67v-1a4,4,0,0,1-1.44,1.26A4.11,4.11,0,0,1,512.24,108.8Zm.48-2.08a2.77,2.77,0,0,0,1.51-.42,3,3,0,0,0,1.06-1.14,3.64,3.64,0,0,0,0-3.28,3,3,0,0,0-1.06-1.14,2.77,2.77,0,0,0-1.51-.42,2.73,2.73,0,0,0-1.5.42,3,3,0,0,0-1.05,1.14,3.64,3.64,0,0,0,0,3.28,3,3,0,0,0,1.05,1.14A2.73,2.73,0,0,0,512.72,106.72Z"/><path class="cls-3" d="M523.9,109.3a4.36,4.36,0,0,1-1.47-.24,3.78,3.78,0,0,1-1.17-.68A3.07,3.07,0,0,1,520.2,106a3,3,0,0,1,.53-1.75,3.52,3.52,0,0,1,1.49-1.17,5.56,5.56,0,0,1,2.24-.42,6.41,6.41,0,0,1,1.34.13,6.66,6.66,0,0,1,1.22.37v-.66a2.65,2.65,0,0,0-.26-1.23,2,2,0,0,0-.74-.83,2.13,2.13,0,0,0-1.16-.3,2.36,2.36,0,0,0-1.3.38,2.32,2.32,0,0,0-.86,1.06l-2.12-.48a3.41,3.41,0,0,1,.87-1.52,4.42,4.42,0,0,1,1.52-1,5.14,5.14,0,0,1,1.93-.36,4.87,4.87,0,0,1,1.79.32,3.88,3.88,0,0,1,1.39.9,4,4,0,0,1,.9,1.38,4.63,4.63,0,0,1,.32,1.78V109h-2.1l-.08-1.38a3.09,3.09,0,0,1-1.26,1.22A4,4,0,0,1,523.9,109.3Zm-1.38-3.38a1.36,1.36,0,0,0,.24.79,1.66,1.66,0,0,0,.67.55,2.46,2.46,0,0,0,1,.2,2.69,2.69,0,0,0,1.32-.32,2.34,2.34,0,0,0,.92-.87A2.3,2.3,0,0,0,527,105v-.24a6.38,6.38,0,0,0-1.07-.35,4.66,4.66,0,0,0-1.13-.13,2.89,2.89,0,0,0-1.67.44A1.37,1.37,0,0,0,522.52,105.92Z"/><path class="cls-3" d="M532.06,109V98.54h2.1l.08,1.44a3.42,3.42,0,0,1,1.29-1.27,3.86,3.86,0,0,1,1.91-.47,3.72,3.72,0,0,1,2,.56,3.68,3.68,0,0,1,1.35,1.58,5.59,5.59,0,0,1,.48,2.4V109H539v-6a3.15,3.15,0,0,0-.57-2,1.91,1.91,0,0,0-1.59-.72,2.43,2.43,0,0,0-2.18,1.26,2.77,2.77,0,0,0-.32,1.34V109Z"/><path class="cls-3" d="M546.62,95.62a1.32,1.32,0,0,1-.19.7,1.39,1.39,0,0,1-.51.51,1.29,1.29,0,0,1-.7.19,1.34,1.34,0,0,1-.7-.19,1.55,1.55,0,0,1-.51-.51,1.38,1.38,0,0,1,0-1.4,1.55,1.55,0,0,1,.51-.51,1.34,1.34,0,0,1,.7-.19,1.29,1.29,0,0,1,.7.19,1.39,1.39,0,0,1,.51.51A1.32,1.32,0,0,1,546.62,95.62ZM544.08,109V98.54h2.3V109Z"/><path class="cls-3" d="M548.72,109v-1.52l5.44-7.08h-5.3V98.54H557v1.52l-5.44,7.08h5.78V109Z"/><path class="cls-3" d="M564.3,109.3a5.5,5.5,0,0,1-2.13-.41,5.08,5.08,0,0,1-2.8-2.9,6.14,6.14,0,0,1-.39-2.23,6,6,0,0,1,.39-2.18,5.48,5.48,0,0,1,1.08-1.75,5.14,5.14,0,0,1,5.68-1.2,4.53,4.53,0,0,1,1.58,1.11,4.92,4.92,0,0,1,1,1.71,6.37,6.37,0,0,1,.36,2.19v.68h-7.74a4.07,4.07,0,0,0,.49,1.59,2.78,2.78,0,0,0,1,1,3,3,0,0,0,4-1.1l2,.78a4.08,4.08,0,0,1-1,1.43,4.64,4.64,0,0,1-1.6.93A5.83,5.83,0,0,1,564.3,109.3Zm-.18-9.2a2.5,2.5,0,0,0-1.25.32,2.84,2.84,0,0,0-.93.9,3.82,3.82,0,0,0-.52,1.36h5.28a3.77,3.77,0,0,0-.46-1.36,2.33,2.33,0,0,0-.89-.9A2.4,2.4,0,0,0,564.12,100.1Z"/><path class="cls-3" d="M575.86,109.3a4.5,4.5,0,0,1-1.93-.42,4.89,4.89,0,0,1-1.55-1.16,5.39,5.39,0,0,1-1-1.74,6.52,6.52,0,0,1,0-4.36,5.76,5.76,0,0,1,1.06-1.78A4.92,4.92,0,0,1,574,98.66a4.68,4.68,0,0,1,2-.42,4.12,4.12,0,0,1,1.9.44,3.77,3.77,0,0,1,1.42,1.24v-5.8h2.3V109h-2.1l-.1-1.68a4,4,0,0,1-1.48,1.45A4.08,4.08,0,0,1,575.86,109.3Zm.48-2.08a2.7,2.7,0,0,0,1.54-.45,3.05,3.05,0,0,0,1.07-1.23,4.21,4.21,0,0,0,0-3.54,3.05,3.05,0,0,0-1.07-1.23,2.7,2.7,0,0,0-1.54-.45,2.75,2.75,0,0,0-1.54.45,3.13,3.13,0,0,0-1.07,1.23,4.21,4.21,0,0,0,0,3.54,3.13,3.13,0,0,0,1.07,1.23A2.75,2.75,0,0,0,576.34,107.22Z"/><path class="cls-3" d="M592.1,109.3a4.36,4.36,0,0,1-1.47-.24,3.78,3.78,0,0,1-1.17-.68A3.07,3.07,0,0,1,588.4,106a3,3,0,0,1,.53-1.75,3.52,3.52,0,0,1,1.49-1.17,5.56,5.56,0,0,1,2.24-.42,6.41,6.41,0,0,1,1.34.13,6.66,6.66,0,0,1,1.22.37v-.66a2.65,2.65,0,0,0-.26-1.23,2,2,0,0,0-.74-.83,2.13,2.13,0,0,0-1.16-.3,2.36,2.36,0,0,0-1.3.38,2.32,2.32,0,0,0-.86,1.06l-2.12-.48a3.41,3.41,0,0,1,.87-1.52,4.42,4.42,0,0,1,1.52-1,5.14,5.14,0,0,1,1.93-.36,4.87,4.87,0,0,1,1.79.32,3.88,3.88,0,0,1,1.39.9,4,4,0,0,1,.9,1.38,4.63,4.63,0,0,1,.32,1.78V109h-2.1l-.08-1.38a3.09,3.09,0,0,1-1.26,1.22A4,4,0,0,1,592.1,109.3Zm-1.38-3.38a1.36,1.36,0,0,0,.24.79,1.66,1.66,0,0,0,.67.55,2.46,2.46,0,0,0,1,.2,2.69,2.69,0,0,0,1.32-.32,2.34,2.34,0,0,0,.92-.87,2.3,2.3,0,0,0,.34-1.25v-.24a6.38,6.38,0,0,0-1.07-.35,4.66,4.66,0,0,0-1.13-.13,2.89,2.89,0,0,0-1.67.44A1.37,1.37,0,0,0,590.72,105.92Z"/><path class="cls-3" d="M600.26,109V98.54h2.1l.08,1.44a3.42,3.42,0,0,1,1.29-1.27,3.86,3.86,0,0,1,1.91-.47,3.72,3.72,0,0,1,2.05.56,3.68,3.68,0,0,1,1.35,1.58,5.59,5.59,0,0,1,.48,2.4V109h-2.3v-6a3.15,3.15,0,0,0-.57-2,1.91,1.91,0,0,0-1.59-.72,2.43,2.43,0,0,0-2.18,1.26,2.77,2.77,0,0,0-.32,1.34V109Z"/><path class="cls-3" d="M616.7,109.3a4.5,4.5,0,0,1-1.93-.42,4.89,4.89,0,0,1-1.55-1.16,5.39,5.39,0,0,1-1-1.74,6.52,6.52,0,0,1,0-4.36,5.57,5.57,0,0,1,1.06-1.78,4.82,4.82,0,0,1,1.59-1.18,4.68,4.68,0,0,1,2-.42,4.12,4.12,0,0,1,1.9.44,3.85,3.85,0,0,1,1.42,1.24v-5.8h2.3V109h-2.1l-.1-1.68a4.06,4.06,0,0,1-3.54,2Zm.48-2.08a2.73,2.73,0,0,0,1.54-.45,3.05,3.05,0,0,0,1.07-1.23,4.21,4.21,0,0,0,0-3.54,3.05,3.05,0,0,0-1.07-1.23,2.86,2.86,0,0,0-3.08,0,3.13,3.13,0,0,0-1.07,1.23,4.21,4.21,0,0,0,0,3.54,3.13,3.13,0,0,0,1.07,1.23A2.75,2.75,0,0,0,617.18,107.22Z"/><path class="cls-3" d="M634.06,109.3a3.32,3.32,0,0,1-2.48-.91,3.57,3.57,0,0,1-.9-2.61V100.4h-1.84V98.54h1.84V95H633v3.54h3v1.86h-3v5.14a2.09,2.09,0,0,0,.35,1.29,1.24,1.24,0,0,0,1,.45,3.25,3.25,0,0,0,.78-.11,3.34,3.34,0,0,0,.78-.31l.52,1.74a3.93,3.93,0,0,1-1.07.51A4.28,4.28,0,0,1,634.06,109.3Z"/><path class="cls-3" d="M638.54,109V94.12h2.3V99.8a3.44,3.44,0,0,1,1.28-1.14,3.82,3.82,0,0,1,1.8-.42,3.72,3.72,0,0,1,2.05.56,3.68,3.68,0,0,1,1.35,1.58,5.59,5.59,0,0,1,.48,2.4V109h-2.3v-6a3.15,3.15,0,0,0-.57-2,1.91,1.91,0,0,0-1.59-.72,2.44,2.44,0,0,0-1.29.34,2.38,2.38,0,0,0-.89.92,2.77,2.77,0,0,0-.32,1.34V109Z"/><path class="cls-3" d="M655.16,109.3a4.76,4.76,0,0,1-2.43-.6,4.07,4.07,0,0,1-1.6-1.71,5.64,5.64,0,0,1-.57-2.61V98.54h2.3v5.88a3.13,3.13,0,0,0,.62,2,2.3,2.3,0,0,0,3.4,0,3.13,3.13,0,0,0,.62-2V98.54h2.3v5.84a5.59,5.59,0,0,1-.57,2.59,4.12,4.12,0,0,1-1.61,1.72A4.73,4.73,0,0,1,655.16,109.3Z"/><path class="cls-3" d="M666.14,109.3a5.08,5.08,0,0,1-1.89-.34,4.19,4.19,0,0,1-1.48-1,3.79,3.79,0,0,1-.87-1.49L664,106a2.22,2.22,0,0,0,.84,1.06,2.44,2.44,0,0,0,1.34.38,2.07,2.07,0,0,0,1.28-.37,1.12,1.12,0,0,0,.5-1,1.06,1.06,0,0,0-.4-.84,2.75,2.75,0,0,0-1.3-.5l-.66-.12a5,5,0,0,1-2.53-1.08,2.62,2.62,0,0,1-.85-2,3,3,0,0,1,.5-1.72,3.43,3.43,0,0,1,1.38-1.16,4.65,4.65,0,0,1,2-.42,4.58,4.58,0,0,1,1.8.34,3.81,3.81,0,0,1,1.38,1,3.54,3.54,0,0,1,.8,1.46l-2.06.5a2.14,2.14,0,0,0-.75-1,1.94,1.94,0,0,0-1.19-.37,1.9,1.9,0,0,0-1.16.35,1.09,1.09,0,0,0-.46.89.91.91,0,0,0,.41.76,3.61,3.61,0,0,0,1.39.48l.66.12a4.61,4.61,0,0,1,2.46,1.1,2.73,2.73,0,0,1,.86,2,3.16,3.16,0,0,1-.3,1.37,3.23,3.23,0,0,1-.85,1.1,3.9,3.9,0,0,1-1.3.72A5.1,5.1,0,0,1,666.14,109.3Z"/></g><g class="cls-2"><path class="cls-3" d="M119.82,134.3a5.5,5.5,0,0,1-2.13-.41,5.07,5.07,0,0,1-1.69-1.15,5.13,5.13,0,0,1-1.11-1.75,6.14,6.14,0,0,1-.39-2.23,6,6,0,0,1,.39-2.18,5.48,5.48,0,0,1,1.08-1.75,4.88,4.88,0,0,1,1.63-1.17,5,5,0,0,1,2-.42,5.07,5.07,0,0,1,2,.39,4.62,4.62,0,0,1,1.58,1.11,4.92,4.92,0,0,1,1,1.71,6.37,6.37,0,0,1,.36,2.19v.68h-7.74a4.07,4.07,0,0,0,.49,1.59,2.69,2.69,0,0,0,2.45,1.39,2.88,2.88,0,0,0,2.56-1.46l2,.78a4.08,4.08,0,0,1-1.05,1.43,4.64,4.64,0,0,1-1.6.93A5.88,5.88,0,0,1,119.82,134.3Zm-.18-9.2a2.47,2.47,0,0,0-1.25.32,2.66,2.66,0,0,0-.93.9,3.64,3.64,0,0,0-.52,1.36h5.28a3.77,3.77,0,0,0-.46-1.36,2.4,2.4,0,0,0-.89-.9A2.45,2.45,0,0,0,119.64,125.1Z"/><path class="cls-3" d="M127.82,134v-8.6H126v-1.86h1.84v-.74a4.14,4.14,0,0,1,.48-2,3.52,3.52,0,0,1,1.32-1.36,3.71,3.71,0,0,1,1.92-.49,4,4,0,0,1,1.13.15,4.43,4.43,0,0,1,.91.37l-.52,1.76a2.9,2.9,0,0,0-.59-.23,2.48,2.48,0,0,0-.65-.09,1.55,1.55,0,0,0-1.28.53,2.38,2.38,0,0,0-.42,1.51v.62h4.46v-.74a4.37,4.37,0,0,1,.45-2,3.42,3.42,0,0,1,1.25-1.36,3.38,3.38,0,0,1,1.82-.49,3.63,3.63,0,0,1,1,.13,4.22,4.22,0,0,1,.83.33l-.52,1.76a2.91,2.91,0,0,0-.5-.18,2.25,2.25,0,0,0-.58-.08,1.25,1.25,0,0,0-1.1.53,2.67,2.67,0,0,0-.36,1.51v.62h6.76V134h-2.3v-8.6h-4.46V134h-2.3v-8.6h-4.46V134Zm16.06-13.38a1.32,1.32,0,0,1-.19.7,1.52,1.52,0,0,1-.5.51,1.42,1.42,0,0,1-1.42,0,1.52,1.52,0,0,1-.5-.51,1.38,1.38,0,0,1,0-1.4,1.52,1.52,0,0,1,.5-.51,1.42,1.42,0,0,1,1.42,0,1.52,1.52,0,0,1,.5.51A1.32,1.32,0,0,1,143.88,120.62Z"/><path class="cls-3" d="M151.12,134.3a5.15,5.15,0,0,1-2.06-.41,4.94,4.94,0,0,1-1.64-1.14,5.14,5.14,0,0,1-1.09-1.73,6.27,6.27,0,0,1,0-4.38,5.67,5.67,0,0,1,1.1-1.78,5.12,5.12,0,0,1,1.65-1.19,5.21,5.21,0,0,1,4,0,4.52,4.52,0,0,1,1.55,1.1,4.22,4.22,0,0,1,.93,1.67l-2.18.52a2.74,2.74,0,0,0-.95-1.18,2.36,2.36,0,0,0-1.37-.42,2.4,2.4,0,0,0-1.44.46,3.14,3.14,0,0,0-1,1.25,4.47,4.47,0,0,0,0,3.54,3,3,0,0,0,1,1.21,2.53,2.53,0,0,0,1.47.44,2.75,2.75,0,0,0,1.46-.41,2.41,2.41,0,0,0,1-1.17l2.16.5a4,4,0,0,1-1,1.67,4.7,4.7,0,0,1-1.62,1.1A5.23,5.23,0,0,1,151.12,134.3Z"/><path class="cls-3" d="M160.44,120.62a1.32,1.32,0,0,1-.19.7,1.55,1.55,0,0,1-.51.51,1.38,1.38,0,0,1-1.4,0,1.55,1.55,0,0,1-.51-.51,1.38,1.38,0,0,1,0-1.4,1.55,1.55,0,0,1,.51-.51,1.38,1.38,0,0,1,1.4,0,1.55,1.55,0,0,1,.51.51A1.32,1.32,0,0,1,160.44,120.62ZM157.9,134V123.54h2.3V134Z"/><path class="cls-3" d="M167.82,134.3a5.5,5.5,0,0,1-2.13-.41,5.07,5.07,0,0,1-1.69-1.15,5.13,5.13,0,0,1-1.11-1.75,6.14,6.14,0,0,1-.39-2.23,6,6,0,0,1,.39-2.18,5.48,5.48,0,0,1,1.08-1.75,4.88,4.88,0,0,1,1.63-1.17,5,5,0,0,1,2-.42,5.07,5.07,0,0,1,2,.39,4.62,4.62,0,0,1,1.58,1.11,4.92,4.92,0,0,1,1,1.71,6.37,6.37,0,0,1,.36,2.19v.68h-7.74a4.07,4.07,0,0,0,.49,1.59,2.69,2.69,0,0,0,2.45,1.39,2.88,2.88,0,0,0,2.56-1.46l2,.78a4.08,4.08,0,0,1-1.05,1.43,4.64,4.64,0,0,1-1.6.93A5.88,5.88,0,0,1,167.82,134.3Zm-.18-9.2a2.47,2.47,0,0,0-1.25.32,2.66,2.66,0,0,0-.93.9,3.64,3.64,0,0,0-.52,1.36h5.28a3.77,3.77,0,0,0-.46-1.36,2.4,2.4,0,0,0-.89-.9A2.45,2.45,0,0,0,167.64,125.1Z"/><path class="cls-3" d="M174.86,134V123.54H177L177,125a3.42,3.42,0,0,1,1.29-1.27,3.83,3.83,0,0,1,1.91-.47,3.72,3.72,0,0,1,2,.56,3.68,3.68,0,0,1,1.35,1.58,5.59,5.59,0,0,1,.48,2.4V134h-2.3v-6a3.15,3.15,0,0,0-.57-2,1.91,1.91,0,0,0-1.59-.72,2.44,2.44,0,0,0-1.29.34,2.38,2.38,0,0,0-.89.92,2.77,2.77,0,0,0-.32,1.34V134Z"/><path class="cls-3" d="M190.9,134.3a3.32,3.32,0,0,1-2.48-.91,3.57,3.57,0,0,1-.9-2.61V125.4h-1.84v-1.86h1.84V120h2.3v3.54h3v1.86h-3v5.14a2.09,2.09,0,0,0,.35,1.29,1.23,1.23,0,0,0,1,.45,3.25,3.25,0,0,0,.78-.11,3.34,3.34,0,0,0,.78-.31l.52,1.74a4.08,4.08,0,0,1-1.07.51A4.28,4.28,0,0,1,190.9,134.3Z"/><path class="cls-3" d="M202.44,134,199,123.54h2.4l2.22,7.64,2.34-7.64H208l2.32,7.64,2.26-7.64h2.32L211.38,134h-2.16l-2.3-7.6L204.6,134Z"/><path class="cls-3" d="M221.22,134.3a5.44,5.44,0,0,1-2.11-.41,5,5,0,0,1-1.69-1.16A5.45,5.45,0,0,1,216.3,131a5.87,5.87,0,0,1-.4-2.21,5.8,5.8,0,0,1,.4-2.19,5.32,5.32,0,0,1,1.13-1.76,5,5,0,0,1,1.72-1.16,5.64,5.64,0,0,1,2.15-.41,5.44,5.44,0,0,1,2.11.41,5,5,0,0,1,1.69,1.16,5.41,5.41,0,0,1,1.12,1.75,6.28,6.28,0,0,1,0,4.41,5.32,5.32,0,0,1-1.13,1.76,5.07,5.07,0,0,1-1.72,1.16A5.64,5.64,0,0,1,221.22,134.3Zm0-2.08a2.73,2.73,0,0,0,1.54-.45,3.13,3.13,0,0,0,1.07-1.23,3.92,3.92,0,0,0,.39-1.78,3.85,3.85,0,0,0-.39-1.77,3.17,3.17,0,0,0-1.07-1.22,2.86,2.86,0,0,0-3.08,0,3.17,3.17,0,0,0-1.07,1.22,3.85,3.85,0,0,0-.39,1.77,3.92,3.92,0,0,0,.39,1.78,3.13,3.13,0,0,0,1.07,1.23A2.73,2.73,0,0,0,221.26,132.22Z"/><path class="cls-3" d="M228.92,134V123.54H231l.1,1.72a3.3,3.3,0,0,1,1.11-1.37,2.84,2.84,0,0,1,1.67-.49,3.69,3.69,0,0,1,.58,0,1.94,1.94,0,0,1,.5.14l-.26,2.24a2.37,2.37,0,0,0-.46-.11,3.87,3.87,0,0,0-.48,0,2.34,2.34,0,0,0-1.88.8,3.33,3.33,0,0,0-.68,2.22V134Z"/><path class="cls-3" d="M237,134V119.12h2.3v8.74l4.28-4.32h2.8l-4.7,4.64,5.18,5.82h-3l-4.54-5.28V134Z"/><path class="cls-3" d="M251.92,134.3A5.08,5.08,0,0,1,250,134a4.1,4.1,0,0,1-1.48-1,3.56,3.56,0,0,1-.87-1.49l2.08-.54a2.11,2.11,0,0,0,.84,1.06,2.42,2.42,0,0,0,1.34.38,2.09,2.09,0,0,0,1.28-.37,1.14,1.14,0,0,0,.5-.95,1.09,1.09,0,0,0-.4-.84,2.79,2.79,0,0,0-1.3-.5l-.66-.12a5,5,0,0,1-2.53-1.08,2.59,2.59,0,0,1-.85-2,3,3,0,0,1,.5-1.72,3.36,3.36,0,0,1,1.38-1.16,5,5,0,0,1,3.82-.08,4,4,0,0,1,1.38,1,3.65,3.65,0,0,1,.8,1.46l-2.06.5a2.14,2.14,0,0,0-.75-1,2,2,0,0,0-1.19-.37,1.86,1.86,0,0,0-1.16.35,1.06,1.06,0,0,0-.46.89.89.89,0,0,0,.41.76,3.48,3.48,0,0,0,1.39.48l.66.12a4.68,4.68,0,0,1,2.46,1.1,2.73,2.73,0,0,1,.86,2,3.16,3.16,0,0,1-.3,1.37,3.23,3.23,0,0,1-.85,1.1,4,4,0,0,1-1.3.72A5.1,5.1,0,0,1,251.92,134.3Z"/><path class="cls-3" d="M258.2,138V123.54h2.1l.1,1.68a4,4,0,0,1,1.48-1.45,4.08,4.08,0,0,1,2.06-.53,4.5,4.5,0,0,1,1.93.42,4.89,4.89,0,0,1,1.55,1.16,5.39,5.39,0,0,1,1,1.74,6.52,6.52,0,0,1,0,4.36,5.76,5.76,0,0,1-1.06,1.78,4.92,4.92,0,0,1-1.59,1.18,4.68,4.68,0,0,1-2,.42,4.12,4.12,0,0,1-1.9-.44,3.77,3.77,0,0,1-1.42-1.24V138Zm5.26-5.74a2.75,2.75,0,0,0,1.54-.45,3.13,3.13,0,0,0,1.07-1.23,3.92,3.92,0,0,0,.39-1.78,3.85,3.85,0,0,0-.39-1.77,3.17,3.17,0,0,0-1.07-1.22,2.75,2.75,0,0,0-1.54-.45,2.7,2.7,0,0,0-1.54.45,3.09,3.09,0,0,0-1.07,1.22,3.85,3.85,0,0,0-.39,1.77,3.92,3.92,0,0,0,.39,1.78,3.05,3.05,0,0,0,1.07,1.23A2.7,2.7,0,0,0,263.46,132.22Z"/><path class="cls-3" d="M274.32,134.3a4.28,4.28,0,0,1-1.47-.24,3.57,3.57,0,0,1-1.17-.68,2.94,2.94,0,0,1-.78-1,3,3,0,0,1-.28-1.32,2.9,2.9,0,0,1,.53-1.75,3.46,3.46,0,0,1,1.49-1.17,5.53,5.53,0,0,1,2.24-.42,6.55,6.55,0,0,1,1.34.13,7.17,7.17,0,0,1,1.22.37v-.66a2.79,2.79,0,0,0-.26-1.23,2.06,2.06,0,0,0-.74-.83,2.15,2.15,0,0,0-1.16-.3,2.33,2.33,0,0,0-1.3.38,2.2,2.2,0,0,0-.86,1.06l-2.12-.48a3.41,3.41,0,0,1,.87-1.52,4.33,4.33,0,0,1,1.52-1,5.06,5.06,0,0,1,1.93-.36,4.91,4.91,0,0,1,1.79.32,4,4,0,0,1,1.39.9,4.34,4.34,0,0,1,.9,1.38,4.82,4.82,0,0,1,.32,1.78V134h-2.1l-.08-1.38a3.09,3.09,0,0,1-1.26,1.22A4,4,0,0,1,274.32,134.3Zm-1.38-3.38a1.36,1.36,0,0,0,.24.79,1.6,1.6,0,0,0,.67.55,2.39,2.39,0,0,0,1,.2,2.74,2.74,0,0,0,1.32-.32,2.48,2.48,0,0,0,.92-.87,2.39,2.39,0,0,0,.34-1.25v-.24a7,7,0,0,0-1.07-.35,4.78,4.78,0,0,0-1.13-.13,2.87,2.87,0,0,0-1.67.44A1.37,1.37,0,0,0,272.94,130.92Z"/><path class="cls-3" d="M287.2,134.3a5.12,5.12,0,0,1-2.06-.41,4.84,4.84,0,0,1-1.64-1.14,5.14,5.14,0,0,1-1.09-1.73,6.27,6.27,0,0,1,0-4.38,5.5,5.5,0,0,1,1.1-1.78,5.12,5.12,0,0,1,5.7-1.23,4.61,4.61,0,0,1,1.55,1.1,4.22,4.22,0,0,1,.93,1.67l-2.18.52a2.81,2.81,0,0,0-.95-1.18,2.38,2.38,0,0,0-1.37-.42,2.36,2.36,0,0,0-1.44.46,3.06,3.06,0,0,0-1,1.25,4.47,4.47,0,0,0,0,3.54,3,3,0,0,0,1,1.21,2.53,2.53,0,0,0,1.47.44,2.75,2.75,0,0,0,1.46-.41,2.47,2.47,0,0,0,1-1.17l2.16.5a4,4,0,0,1-1,1.67,4.9,4.9,0,0,1-1.62,1.1A5.23,5.23,0,0,1,287.2,134.3Z"/><path class="cls-3" d="M298.76,134.3a5.43,5.43,0,0,1-2.13-.41,5.07,5.07,0,0,1-1.69-1.15,5.13,5.13,0,0,1-1.11-1.75,6.14,6.14,0,0,1-.39-2.23,6,6,0,0,1,.39-2.18,5.48,5.48,0,0,1,1.08-1.75,4.91,4.91,0,0,1,3.67-1.59,5.07,5.07,0,0,1,2,.39,4.72,4.72,0,0,1,1.58,1.11,5.08,5.08,0,0,1,1,1.71,6.37,6.37,0,0,1,.36,2.19v.68h-7.74a3.91,3.91,0,0,0,.49,1.59,2.7,2.7,0,0,0,1,1,2.8,2.8,0,0,0,1.44.36,2.89,2.89,0,0,0,2.56-1.46l2,.78a4.08,4.08,0,0,1-1,1.43,4.74,4.74,0,0,1-1.6.93A5.88,5.88,0,0,1,298.76,134.3Zm-.18-9.2a2.45,2.45,0,0,0-1.25.32,2.66,2.66,0,0,0-.93.9,3.48,3.48,0,0,0-.52,1.36h5.28a4,4,0,0,0-.46-1.36,2.48,2.48,0,0,0-.89-.9A2.45,2.45,0,0,0,298.58,125.1Z"/><path class="cls-3" d="M312.88,120.62a1.41,1.41,0,0,1-.19.7,1.55,1.55,0,0,1-.51.51,1.34,1.34,0,0,1-.7.19,1.29,1.29,0,0,1-.7-.19,1.39,1.39,0,0,1-.51-.51,1.38,1.38,0,0,1,0-1.4,1.39,1.39,0,0,1,.51-.51,1.29,1.29,0,0,1,.7-.19,1.34,1.34,0,0,1,.7.19,1.55,1.55,0,0,1,.51.51A1.41,1.41,0,0,1,312.88,120.62ZM310.34,134V123.54h2.3V134Z"/><path class="cls-3" d="M315.4,134V123.54h2.1l.08,1.44a3.28,3.28,0,0,1,1.29-1.27,3.83,3.83,0,0,1,1.91-.47,3.75,3.75,0,0,1,2.05.56,3.68,3.68,0,0,1,1.35,1.58,5.59,5.59,0,0,1,.48,2.4V134h-2.3v-6a3.15,3.15,0,0,0-.57-2,1.91,1.91,0,0,0-1.59-.72,2.44,2.44,0,0,0-1.29.34,2.38,2.38,0,0,0-.89.92,2.66,2.66,0,0,0-.32,1.34V134Z"/><path class="cls-3" d="M336.82,134.3a5.4,5.4,0,0,1-2.11-.41,5,5,0,0,1-1.69-1.16A5.29,5.29,0,0,1,331.9,131a5.87,5.87,0,0,1-.4-2.21,5.8,5.8,0,0,1,.4-2.19,5.16,5.16,0,0,1,1.13-1.76,5,5,0,0,1,1.72-1.16,5.6,5.6,0,0,1,2.15-.41,5.44,5.44,0,0,1,2.11.41,5.05,5.05,0,0,1,1.69,1.16,5.41,5.41,0,0,1,1.12,1.75,6.28,6.28,0,0,1,0,4.41,5.48,5.48,0,0,1-1.13,1.76,5.07,5.07,0,0,1-1.72,1.16A5.64,5.64,0,0,1,336.82,134.3Zm0-2.08a2.75,2.75,0,0,0,1.54-.45,3.13,3.13,0,0,0,1.07-1.23,3.92,3.92,0,0,0,.39-1.78,3.85,3.85,0,0,0-.39-1.77,3.17,3.17,0,0,0-1.07-1.22,2.75,2.75,0,0,0-1.54-.45,2.7,2.7,0,0,0-1.54.45,3.09,3.09,0,0,0-1.07,1.22,3.85,3.85,0,0,0-.39,1.77,3.92,3.92,0,0,0,.39,1.78,3.05,3.05,0,0,0,1.07,1.23A2.7,2.7,0,0,0,336.86,132.22Z"/><path class="cls-3" d="M344.52,134V123.54h2.1l.1,1.72a3.16,3.16,0,0,1,1.11-1.37,2.84,2.84,0,0,1,1.67-.49,3.69,3.69,0,0,1,.58,0,1.94,1.94,0,0,1,.5.14l-.26,2.24a2.37,2.37,0,0,0-.46-.11,3.87,3.87,0,0,0-.48,0,2.34,2.34,0,0,0-1.88.8,3.28,3.28,0,0,0-.68,2.22V134Z"/><path class="cls-3" d="M356.66,134.3a4.43,4.43,0,0,1-1.93-.42,4.78,4.78,0,0,1-1.55-1.16,5.21,5.21,0,0,1-1-1.74,6.52,6.52,0,0,1,0-4.36,5.4,5.4,0,0,1,1.06-1.78,4.72,4.72,0,0,1,1.59-1.18,4.61,4.61,0,0,1,2-.42,4.18,4.18,0,0,1,1.9.44,3.93,3.93,0,0,1,1.42,1.24v-5.8h2.3V134h-2.1l-.1-1.68a4.19,4.19,0,0,1-1.48,1.45A4.1,4.1,0,0,1,356.66,134.3Zm.48-2.08a2.75,2.75,0,0,0,1.54-.45,3.13,3.13,0,0,0,1.07-1.23,4.21,4.21,0,0,0,0-3.54,3.13,3.13,0,0,0-1.07-1.23,2.75,2.75,0,0,0-1.54-.45,2.7,2.7,0,0,0-1.54.45,3.05,3.05,0,0,0-1.07,1.23,4.21,4.21,0,0,0,0,3.54,3.05,3.05,0,0,0,1.07,1.23A2.7,2.7,0,0,0,357.14,132.22Z"/><path class="cls-3" d="M370,134.3a5.43,5.43,0,0,1-2.13-.41,5.07,5.07,0,0,1-1.69-1.15,5.13,5.13,0,0,1-1.11-1.75,6.14,6.14,0,0,1-.39-2.23,6,6,0,0,1,.39-2.18,5.48,5.48,0,0,1,1.08-1.75,4.91,4.91,0,0,1,3.67-1.59,5.07,5.07,0,0,1,2,.39,4.72,4.72,0,0,1,1.58,1.11,5.08,5.08,0,0,1,1,1.71,6.37,6.37,0,0,1,.36,2.19v.68h-7.74a3.91,3.91,0,0,0,.49,1.59,2.7,2.7,0,0,0,1,1,2.8,2.8,0,0,0,1.44.36,2.89,2.89,0,0,0,2.56-1.46l2,.78a4.08,4.08,0,0,1-1.05,1.43,4.74,4.74,0,0,1-1.6.93A5.88,5.88,0,0,1,370,134.3Zm-.18-9.2a2.45,2.45,0,0,0-1.25.32,2.66,2.66,0,0,0-.93.9,3.48,3.48,0,0,0-.52,1.36h5.28a4,4,0,0,0-.46-1.36,2.48,2.48,0,0,0-.89-.9A2.45,2.45,0,0,0,369.84,125.1Z"/><path class="cls-3" d="M377.06,134V123.54h2.1l.1,1.72a3.16,3.16,0,0,1,1.11-1.37,2.84,2.84,0,0,1,1.67-.49,3.69,3.69,0,0,1,.58,0,1.94,1.94,0,0,1,.5.14l-.26,2.24a2.37,2.37,0,0,0-.46-.11,3.87,3.87,0,0,0-.48,0,2.34,2.34,0,0,0-1.88.8,3.28,3.28,0,0,0-.68,2.22V134Z"/><path class="cls-3" d="M394,134.3a3.31,3.31,0,0,1-2.48-.91,3.57,3.57,0,0,1-.9-2.61V125.4h-1.84v-1.86h1.84V120h2.3v3.54h3v1.86h-3v5.14a2,2,0,0,0,.35,1.29,1.21,1.21,0,0,0,1,.45,3.25,3.25,0,0,0,.78-.11,3.34,3.34,0,0,0,.78-.31l.52,1.74a4.24,4.24,0,0,1-1.07.51A4.32,4.32,0,0,1,394,134.3Z"/><path class="cls-3" d="M403.1,134.3a5.4,5.4,0,0,1-2.11-.41,5,5,0,0,1-1.69-1.16,5.29,5.29,0,0,1-1.12-1.76,5.87,5.87,0,0,1-.4-2.21,5.8,5.8,0,0,1,.4-2.19,5.16,5.16,0,0,1,1.13-1.76,5,5,0,0,1,1.72-1.16,5.6,5.6,0,0,1,2.15-.41,5.44,5.44,0,0,1,2.11.41,5.05,5.05,0,0,1,1.69,1.16,5.41,5.41,0,0,1,1.12,1.75,6.28,6.28,0,0,1,0,4.41,5.48,5.48,0,0,1-1.13,1.76,5.07,5.07,0,0,1-1.72,1.16A5.64,5.64,0,0,1,403.1,134.3Zm0-2.08a2.75,2.75,0,0,0,1.54-.45,3.13,3.13,0,0,0,1.07-1.23,3.92,3.92,0,0,0,.39-1.78,3.85,3.85,0,0,0-.39-1.77,3.17,3.17,0,0,0-1.07-1.22,2.75,2.75,0,0,0-1.54-.45,2.7,2.7,0,0,0-1.54.45,3.09,3.09,0,0,0-1.07,1.22,3.85,3.85,0,0,0-.39,1.77,3.92,3.92,0,0,0,.39,1.78,3.05,3.05,0,0,0,1.07,1.23A2.7,2.7,0,0,0,403.14,132.22Z"/><path class="cls-3" d="M415.34,134V123.54h2.1l.1,1.72a3.16,3.16,0,0,1,1.11-1.37,2.84,2.84,0,0,1,1.67-.49,3.69,3.69,0,0,1,.58,0,1.94,1.94,0,0,1,.5.14l-.26,2.24a2.37,2.37,0,0,0-.46-.11,3.87,3.87,0,0,0-.48,0,2.34,2.34,0,0,0-1.88.8,3.28,3.28,0,0,0-.68,2.22V134Z"/><path class="cls-3" d="M427.92,134.3a5.43,5.43,0,0,1-2.13-.41,5.07,5.07,0,0,1-1.69-1.15A5.13,5.13,0,0,1,423,131a6.14,6.14,0,0,1-.39-2.23,6,6,0,0,1,.39-2.18,5.48,5.48,0,0,1,1.08-1.75,4.91,4.91,0,0,1,3.67-1.59,5.07,5.07,0,0,1,2,.39,4.72,4.72,0,0,1,1.58,1.11,5.08,5.08,0,0,1,1,1.71,6.37,6.37,0,0,1,.36,2.19v.68H425a3.91,3.91,0,0,0,.49,1.59,2.7,2.7,0,0,0,1,1,2.8,2.8,0,0,0,1.44.36,2.89,2.89,0,0,0,2.56-1.46l2,.78a4.08,4.08,0,0,1-1.05,1.43,4.74,4.74,0,0,1-1.6.93A5.88,5.88,0,0,1,427.92,134.3Zm-.18-9.2a2.45,2.45,0,0,0-1.25.32,2.66,2.66,0,0,0-.93.9,3.48,3.48,0,0,0-.52,1.36h5.28a4,4,0,0,0-.46-1.36,2.48,2.48,0,0,0-.89-.9A2.45,2.45,0,0,0,427.74,125.1Z"/><path class="cls-3" d="M439.48,134.3a4.43,4.43,0,0,1-1.93-.42,4.78,4.78,0,0,1-1.55-1.16,5.21,5.21,0,0,1-1-1.74,6.52,6.52,0,0,1,0-4.36,5.4,5.4,0,0,1,1.06-1.78,4.72,4.72,0,0,1,1.59-1.18,4.61,4.61,0,0,1,2-.42,4.18,4.18,0,0,1,1.9.44,3.93,3.93,0,0,1,1.42,1.24v-5.8h2.3V134h-2.1l-.1-1.68a4.19,4.19,0,0,1-1.48,1.45A4.1,4.1,0,0,1,439.48,134.3Zm.48-2.08a2.75,2.75,0,0,0,1.54-.45,3.13,3.13,0,0,0,1.07-1.23,4.21,4.21,0,0,0,0-3.54,3.13,3.13,0,0,0-1.07-1.23,2.75,2.75,0,0,0-1.54-.45,2.7,2.7,0,0,0-1.54.45,3.05,3.05,0,0,0-1.07,1.23,4.21,4.21,0,0,0,0,3.54,3.05,3.05,0,0,0,1.07,1.23A2.7,2.7,0,0,0,440,132.22Z"/><path class="cls-3" d="M452.58,134.3a4.71,4.71,0,0,1-2.43-.6,4.09,4.09,0,0,1-1.61-1.71,5.64,5.64,0,0,1-.56-2.61v-5.84h2.3v5.88a3.08,3.08,0,0,0,.62,2.05,2.29,2.29,0,0,0,3.39,0,3.08,3.08,0,0,0,.62-2.05v-5.88h2.3v5.84a5.58,5.58,0,0,1-.56,2.59,4.24,4.24,0,0,1-1.61,1.72A4.78,4.78,0,0,1,452.58,134.3Z"/><path class="cls-3" d="M464.7,134.3a5.2,5.2,0,0,1-2.07-.41,5,5,0,0,1-1.64-1.14,5.12,5.12,0,0,1-1.08-1.73,6,6,0,0,1-.4-2.18,6.1,6.1,0,0,1,.4-2.2,5.86,5.86,0,0,1,1.1-1.78,5.12,5.12,0,0,1,1.65-1.19,5,5,0,0,1,2.08-.43,4.88,4.88,0,0,1,2,.39,4.42,4.42,0,0,1,1.55,1.1,4.12,4.12,0,0,1,.94,1.67l-2.19.52a2.72,2.72,0,0,0-.94-1.18,2.38,2.38,0,0,0-1.37-.42,2.41,2.41,0,0,0-1.45.46,3.23,3.23,0,0,0-1,1.25,4.27,4.27,0,0,0-.37,1.79,4,4,0,0,0,.37,1.75,2.9,2.9,0,0,0,1,1.21,2.5,2.5,0,0,0,1.47.44,2.78,2.78,0,0,0,1.46-.41,2.45,2.45,0,0,0,1-1.17l2.16.5a3.84,3.84,0,0,1-1,1.67,4.7,4.7,0,0,1-1.62,1.1A5.18,5.18,0,0,1,464.7,134.3Z"/><path class="cls-3" d="M476.25,134.3a5.5,5.5,0,0,1-2.13-.41,5.17,5.17,0,0,1-1.69-1.15,5,5,0,0,1-1.1-1.75,6.14,6.14,0,0,1-.4-2.23,6,6,0,0,1,.4-2.18,5.31,5.31,0,0,1,1.08-1.75,4.91,4.91,0,0,1,3.67-1.59,5,5,0,0,1,2,.39,4.53,4.53,0,0,1,1.58,1.11,5.1,5.1,0,0,1,1,1.71,6.62,6.62,0,0,1,.35,2.19v.68h-7.73a3.91,3.91,0,0,0,.48,1.59,2.72,2.72,0,0,0,2.45,1.39,2.9,2.9,0,0,0,2.57-1.46l2,.78a4.18,4.18,0,0,1-1,1.43,4.69,4.69,0,0,1-1.61.93A5.83,5.83,0,0,1,476.25,134.3Zm-.17-9.2a2.45,2.45,0,0,0-1.25.32,2.66,2.66,0,0,0-.93.9,3.65,3.65,0,0,0-.53,1.36h5.29a4,4,0,0,0-.46-1.36,2.43,2.43,0,0,0-.9-.9A2.39,2.39,0,0,0,476.08,125.1Z"/><path class="cls-3" d="M487.83,138V123.54h2.1l.11,1.68a4.08,4.08,0,0,1,1.47-1.45,4.14,4.14,0,0,1,2.07-.53,4.42,4.42,0,0,1,1.92.42,4.68,4.68,0,0,1,1.55,1.16,5.21,5.21,0,0,1,1,1.74,6.13,6.13,0,0,1,.37,2.16,6.31,6.31,0,0,1-.37,2.2A5.6,5.6,0,0,1,497,132.7a4.72,4.72,0,0,1-1.59,1.18,4.61,4.61,0,0,1-2,.42,4.18,4.18,0,0,1-1.9-.44,3.93,3.93,0,0,1-1.42-1.24V138Zm5.26-5.74a2.7,2.7,0,0,0,1.54-.45,3,3,0,0,0,1.07-1.23,3.92,3.92,0,0,0,.39-1.78,3.85,3.85,0,0,0-.39-1.77,3,3,0,0,0-1.07-1.22,2.7,2.7,0,0,0-1.54-.45,2.75,2.75,0,0,0-1.54.45,3.07,3.07,0,0,0-1.06,1.22,3.73,3.73,0,0,0-.4,1.77,3.8,3.8,0,0,0,.4,1.78,3,3,0,0,0,1.06,1.23A2.75,2.75,0,0,0,493.09,132.22Z"/><path class="cls-3" d="M500.75,134V123.54h2.1l.1,1.72a3.3,3.3,0,0,1,1.11-1.37,2.87,2.87,0,0,1,1.68-.49,3.56,3.56,0,0,1,.57,0,1.73,1.73,0,0,1,.5.14l-.26,2.24a2.21,2.21,0,0,0-.46-.11l-.47,0a2.33,2.33,0,0,0-1.88.8,3.28,3.28,0,0,0-.69,2.22V134Z"/><path class="cls-3" d="M513.33,134.3a5.44,5.44,0,0,1-2.11-.41,5.05,5.05,0,0,1-1.69-1.16,5.45,5.45,0,0,1-1.12-1.76,6.07,6.07,0,0,1-.4-2.21,6,6,0,0,1,.4-2.19,5.48,5.48,0,0,1,1.13-1.76,5.07,5.07,0,0,1,1.72-1.16,5.64,5.64,0,0,1,2.15-.41,5.4,5.4,0,0,1,2.11.41,5,5,0,0,1,1.69,1.16,5.25,5.25,0,0,1,1.12,1.75,6.28,6.28,0,0,1,0,4.41,5.16,5.16,0,0,1-1.13,1.76,5,5,0,0,1-1.72,1.16A5.6,5.6,0,0,1,513.33,134.3Zm0-2.08a2.7,2.7,0,0,0,1.54-.45,3.05,3.05,0,0,0,1.07-1.23,3.92,3.92,0,0,0,.39-1.78A3.85,3.85,0,0,0,516,127a3.09,3.09,0,0,0-1.07-1.22,2.7,2.7,0,0,0-1.54-.45,2.75,2.75,0,0,0-1.54.45,3.17,3.17,0,0,0-1.07,1.22,3.85,3.85,0,0,0-.39,1.77,3.92,3.92,0,0,0,.39,1.78,3.13,3.13,0,0,0,1.07,1.23A2.75,2.75,0,0,0,513.37,132.22Z"/><path class="cls-3" d="M525.55,134.3a4.5,4.5,0,0,1-1.93-.42,4.89,4.89,0,0,1-1.55-1.16,5.39,5.39,0,0,1-1-1.74,6.52,6.52,0,0,1,0-4.36,5.76,5.76,0,0,1,1.06-1.78,4.92,4.92,0,0,1,1.59-1.18,4.68,4.68,0,0,1,2-.42,4.12,4.12,0,0,1,1.9.44,3.77,3.77,0,0,1,1.42,1.24v-5.8h2.3V134h-2.1l-.1-1.68a4,4,0,0,1-1.48,1.45A4.08,4.08,0,0,1,525.55,134.3Zm.48-2.08a2.7,2.7,0,0,0,1.54-.45,3.05,3.05,0,0,0,1.07-1.23,4.21,4.21,0,0,0,0-3.54,3.05,3.05,0,0,0-1.07-1.23,2.7,2.7,0,0,0-1.54-.45,2.75,2.75,0,0,0-1.54.45,3.13,3.13,0,0,0-1.07,1.23,4.21,4.21,0,0,0,0,3.54,3.13,3.13,0,0,0,1.07,1.23A2.75,2.75,0,0,0,526,132.22Z"/><path class="cls-3" d="M538.65,134.3a4.76,4.76,0,0,1-2.43-.6,4.13,4.13,0,0,1-1.6-1.71,5.64,5.64,0,0,1-.57-2.61v-5.84h2.3v5.88a3.13,3.13,0,0,0,.62,2.05,2.3,2.3,0,0,0,3.4,0,3.08,3.08,0,0,0,.62-2.05v-5.88h2.3v5.84a5.59,5.59,0,0,1-.57,2.59,4.12,4.12,0,0,1-1.61,1.72A4.73,4.73,0,0,1,538.65,134.3Z"/><path class="cls-3" d="M550.77,134.3a5.19,5.19,0,0,1-2.06-.41,5,5,0,0,1-1.64-1.14A5.3,5.3,0,0,1,546,131a6,6,0,0,1-.39-2.18,6.1,6.1,0,0,1,.4-2.2,5.86,5.86,0,0,1,1.1-1.78,5.12,5.12,0,0,1,1.65-1.19,5.21,5.21,0,0,1,4,0,4.52,4.52,0,0,1,1.55,1.1,4,4,0,0,1,.93,1.67l-2.18.52a2.67,2.67,0,0,0-1-1.18,2.34,2.34,0,0,0-1.37-.42,2.4,2.4,0,0,0-1.44.46,3.23,3.23,0,0,0-1,1.25,4.27,4.27,0,0,0-.37,1.79,4.09,4.09,0,0,0,.36,1.75,3,3,0,0,0,1,1.21,2.53,2.53,0,0,0,1.47.44,2.72,2.72,0,0,0,1.46-.41,2.41,2.41,0,0,0,1-1.17l2.16.5a3.84,3.84,0,0,1-1,1.67,4.7,4.7,0,0,1-1.62,1.1A5.19,5.19,0,0,1,550.77,134.3Z"/><path class="cls-3" d="M561.79,134.3a3.32,3.32,0,0,1-2.48-.91,3.57,3.57,0,0,1-.9-2.61V125.4h-1.84v-1.86h1.84V120h2.3v3.54h3v1.86h-3v5.14a2.09,2.09,0,0,0,.35,1.29,1.24,1.24,0,0,0,1,.45,3.25,3.25,0,0,0,.78-.11,3.34,3.34,0,0,0,.78-.31l.52,1.74a3.93,3.93,0,0,1-1.07.51A4.23,4.23,0,0,1,561.79,134.3Z"/><path class="cls-3" d="M568.81,120.62a1.32,1.32,0,0,1-.19.7,1.39,1.39,0,0,1-.51.51,1.29,1.29,0,0,1-.7.19,1.34,1.34,0,0,1-.7-.19,1.55,1.55,0,0,1-.51-.51,1.38,1.38,0,0,1,0-1.4,1.55,1.55,0,0,1,.51-.51,1.34,1.34,0,0,1,.7-.19,1.29,1.29,0,0,1,.7.19,1.39,1.39,0,0,1,.51.51A1.32,1.32,0,0,1,568.81,120.62ZM566.27,134V123.54h2.3V134Z"/><path class="cls-3" d="M576.19,134.3a5.44,5.44,0,0,1-2.11-.41,5.05,5.05,0,0,1-1.69-1.16,5.45,5.45,0,0,1-1.12-1.76,6.07,6.07,0,0,1-.4-2.21,6,6,0,0,1,.4-2.19,5.48,5.48,0,0,1,1.13-1.76,5.07,5.07,0,0,1,1.72-1.16,5.64,5.64,0,0,1,2.15-.41,5.4,5.4,0,0,1,2.11.41,5,5,0,0,1,1.69,1.16,5.25,5.25,0,0,1,1.12,1.75,6.28,6.28,0,0,1,0,4.41,5.16,5.16,0,0,1-1.13,1.76,5,5,0,0,1-1.72,1.16A5.6,5.6,0,0,1,576.19,134.3Zm0-2.08a2.7,2.7,0,0,0,1.54-.45,3.05,3.05,0,0,0,1.07-1.23,3.92,3.92,0,0,0,.39-1.78,3.85,3.85,0,0,0-.39-1.77,3.09,3.09,0,0,0-1.07-1.22,2.7,2.7,0,0,0-1.54-.45,2.75,2.75,0,0,0-1.54.45,3.17,3.17,0,0,0-1.07,1.22,3.85,3.85,0,0,0-.39,1.77,3.92,3.92,0,0,0,.39,1.78,3.13,3.13,0,0,0,1.07,1.23A2.75,2.75,0,0,0,576.23,132.22Z"/><path class="cls-3" d="M583.89,134V123.54H586l.08,1.44a3.42,3.42,0,0,1,1.29-1.27,3.86,3.86,0,0,1,1.91-.47,3.72,3.72,0,0,1,2.05.56,3.68,3.68,0,0,1,1.35,1.58,5.59,5.59,0,0,1,.48,2.4V134h-2.3v-6a3.15,3.15,0,0,0-.57-2,1.91,1.91,0,0,0-1.59-.72,2.43,2.43,0,0,0-2.18,1.26,2.77,2.77,0,0,0-.32,1.34V134Z"/><path class="cls-3" d="M605.17,134.3a5.19,5.19,0,0,1-2.06-.41,5,5,0,0,1-1.64-1.14,5.3,5.3,0,0,1-1.09-1.73,6,6,0,0,1-.39-2.18,6.1,6.1,0,0,1,.4-2.2,5.86,5.86,0,0,1,1.1-1.78,5.12,5.12,0,0,1,1.65-1.19,5.21,5.21,0,0,1,4.05,0,4.52,4.52,0,0,1,1.55,1.1,4,4,0,0,1,.93,1.67l-2.18.52a2.67,2.67,0,0,0-1-1.18,2.34,2.34,0,0,0-1.37-.42,2.4,2.4,0,0,0-1.44.46,3.23,3.23,0,0,0-1,1.25,4.27,4.27,0,0,0-.37,1.79,4.09,4.09,0,0,0,.36,1.75,3,3,0,0,0,1,1.21,2.53,2.53,0,0,0,1.47.44,2.72,2.72,0,0,0,1.46-.41,2.41,2.41,0,0,0,1-1.17l2.16.5a3.84,3.84,0,0,1-1,1.67,4.7,4.7,0,0,1-1.62,1.1A5.19,5.19,0,0,1,605.17,134.3Z"/><path class="cls-3" d="M616.73,134.3a5.44,5.44,0,0,1-2.11-.41,5.05,5.05,0,0,1-1.69-1.16,5.45,5.45,0,0,1-1.12-1.76,6.07,6.07,0,0,1-.4-2.21,6,6,0,0,1,.4-2.19,5.48,5.48,0,0,1,1.13-1.76,5.07,5.07,0,0,1,1.72-1.16,5.64,5.64,0,0,1,2.15-.41,5.4,5.4,0,0,1,2.11.41,5,5,0,0,1,1.69,1.16,5.25,5.25,0,0,1,1.12,1.75,6.28,6.28,0,0,1,0,4.41,5.16,5.16,0,0,1-1.13,1.76,5,5,0,0,1-1.72,1.16A5.6,5.6,0,0,1,616.73,134.3Zm0-2.08a2.7,2.7,0,0,0,1.54-.45,3.05,3.05,0,0,0,1.07-1.23,3.92,3.92,0,0,0,.39-1.78,3.85,3.85,0,0,0-.39-1.77,3.09,3.09,0,0,0-1.07-1.22,2.7,2.7,0,0,0-1.54-.45,2.75,2.75,0,0,0-1.54.45,3.17,3.17,0,0,0-1.07,1.22,3.85,3.85,0,0,0-.39,1.77,3.92,3.92,0,0,0,.39,1.78,3.13,3.13,0,0,0,1.07,1.23A2.75,2.75,0,0,0,616.77,132.22Z"/><path class="cls-3" d="M628,134.3a5.08,5.08,0,0,1-1.89-.34,4.19,4.19,0,0,1-1.48-1,3.79,3.79,0,0,1-.87-1.49l2.08-.54a2.22,2.22,0,0,0,.84,1.06,2.44,2.44,0,0,0,1.34.38,2.07,2.07,0,0,0,1.28-.37,1.12,1.12,0,0,0,.5-.95,1.06,1.06,0,0,0-.4-.84,2.75,2.75,0,0,0-1.3-.5l-.66-.12a5,5,0,0,1-2.53-1.08,2.62,2.62,0,0,1-.85-2,3,3,0,0,1,.5-1.72,3.49,3.49,0,0,1,1.38-1.16,4.65,4.65,0,0,1,2-.42,4.55,4.55,0,0,1,1.8.34,3.81,3.81,0,0,1,1.38,1A3.54,3.54,0,0,1,632,126l-2.06.5a2.14,2.14,0,0,0-.75-1,1.94,1.94,0,0,0-1.19-.37,1.9,1.9,0,0,0-1.16.35,1.09,1.09,0,0,0-.46.89.91.91,0,0,0,.41.76,3.61,3.61,0,0,0,1.39.48l.66.12a4.61,4.61,0,0,1,2.46,1.1,2.69,2.69,0,0,1,.86,2,3.16,3.16,0,0,1-.3,1.37,3.23,3.23,0,0,1-.85,1.1,3.9,3.9,0,0,1-1.3.72A5.1,5.1,0,0,1,628,134.3Z"/><path class="cls-3" d="M638.49,134.3a3.32,3.32,0,0,1-2.48-.91,3.57,3.57,0,0,1-.9-2.61V125.4h-1.84v-1.86h1.84V120h2.3v3.54h3v1.86h-3v5.14a2.09,2.09,0,0,0,.35,1.29,1.24,1.24,0,0,0,1,.45,3.25,3.25,0,0,0,.78-.11,3.34,3.34,0,0,0,.78-.31l.52,1.74a3.93,3.93,0,0,1-1.07.51A4.23,4.23,0,0,1,638.49,134.3Z"/><path class="cls-3" d="M644.47,134.08a1.51,1.51,0,0,1-.76-.2,1.61,1.61,0,0,1-.55-.55,1.52,1.52,0,0,1,0-1.54,1.61,1.61,0,0,1,.55-.55,1.51,1.51,0,0,1,.76-.2,1.49,1.49,0,0,1,.76.2,1.53,1.53,0,0,1,.55.55,1.52,1.52,0,0,1,0,1.54,1.53,1.53,0,0,1-.55.55A1.49,1.49,0,0,1,644.47,134.08Z"/></g></g><g id="Efficiency" class="cls-2"><g class="cls-2"><path class="cls-3" d="M298.42,69V44.15H314V48.6H303.46V54h9.41v4.45h-9.41v6.08h10.89V69Z"/><path class="cls-3" d="M320.23,69V54.37h-3.15V50.52h3.15V49.47a7.43,7.43,0,0,1,.5-2.78,6.51,6.51,0,0,1,1.44-2.21,6.44,6.44,0,0,1,2.2-1.43,7.45,7.45,0,0,1,2.79-.51,7.07,7.07,0,0,1,2.08.28,9.4,9.4,0,0,1,1.59.63l-1,3.75a4.68,4.68,0,0,0-1-.37,3.54,3.54,0,0,0-1-.16,2.49,2.49,0,0,0-2.07.82,3.58,3.58,0,0,0-.66,2.3v.73h7.07V49.47a7.8,7.8,0,0,1,.47-2.8A6.3,6.3,0,0,1,334,44.48a6,6,0,0,1,2.08-1.43,6.81,6.81,0,0,1,2.68-.51,6.37,6.37,0,0,1,1.85.25,7.15,7.15,0,0,1,1.47.59l-1,3.71-.8-.28a3,3,0,0,0-.91-.14,2,2,0,0,0-1.74.8,4,4,0,0,0-.57,2.32v.73h12V69h-4.9V54.37H337.1V69h-4.9V54.37h-7.07V69Zm29.19-23.49a2.86,2.86,0,0,1-.37,1.44,2.8,2.8,0,0,1-1,1,2.89,2.89,0,0,1-2.83,0,2.8,2.8,0,0,1-1-1,3,3,0,0,1,0-2.87,2.8,2.8,0,0,1,1-1,3,3,0,0,1,2.83,0,2.8,2.8,0,0,1,1,1A2.85,2.85,0,0,1,349.42,45.51Z"/><path class="cls-3" d="M362.08,69.53a9.34,9.34,0,0,1-3.69-.72,8.84,8.84,0,0,1-2.94-2,9.44,9.44,0,0,1-1.94-3.07,10.23,10.23,0,0,1-.7-3.83,10.4,10.4,0,0,1,.72-3.9,9.87,9.87,0,0,1,2-3.15,9.1,9.1,0,0,1,3-2.1,9.21,9.21,0,0,1,3.71-.75,8.94,8.94,0,0,1,3.68.75,8,8,0,0,1,2.85,2.12,7.65,7.65,0,0,1,1.63,3.18l-4.66.91a4.46,4.46,0,0,0-1.47-1.87,3.51,3.51,0,0,0-2.13-.68,3.65,3.65,0,0,0-2.22.7,4.77,4.77,0,0,0-1.53,1.94,6.73,6.73,0,0,0-.55,2.78,6.37,6.37,0,0,0,.54,2.73,4.48,4.48,0,0,0,1.52,1.87,3.79,3.79,0,0,0,2.24.69,4.12,4.12,0,0,0,2.28-.67,4,4,0,0,0,1.5-1.89l4.65.91a7.2,7.2,0,0,1-1.69,3.22,8.44,8.44,0,0,1-3,2.1A9.7,9.7,0,0,1,362.08,69.53Z"/><path class="cls-3" d="M379.27,45.51A2.76,2.76,0,0,1,378.9,47a2.69,2.69,0,0,1-1,1,2.91,2.91,0,0,1-2.84,0,2.69,2.69,0,0,1-1-1,3,3,0,0,1,0-2.87,2.69,2.69,0,0,1,1-1,3,3,0,0,1,2.84,0,2.69,2.69,0,0,1,1,1A2.75,2.75,0,0,1,379.27,45.51ZM374,69V50.52h4.9V69Z"/><path class="cls-3" d="M392.12,69.53a9.78,9.78,0,0,1-3.8-.72,8.66,8.66,0,0,1-3-2,9.29,9.29,0,0,1-2-3.12,10.7,10.7,0,0,1-.71-3.94,10.36,10.36,0,0,1,.71-3.84,9.21,9.21,0,0,1,1.94-3.1,8.82,8.82,0,0,1,2.92-2.05,9,9,0,0,1,3.64-.73,9.37,9.37,0,0,1,3.69.7,8,8,0,0,1,2.85,2,8.9,8.9,0,0,1,1.84,3.08,11.68,11.68,0,0,1,.65,4V61H387.63a5.59,5.59,0,0,0,1.51,3.23,4.08,4.08,0,0,0,3,1.17,4.47,4.47,0,0,0,2.29-.59,4.72,4.72,0,0,0,1.7-1.71l4.37,1.4a7.08,7.08,0,0,1-1.89,2.69,8.73,8.73,0,0,1-2.94,1.73A10.25,10.25,0,0,1,392.12,69.53Zm-.25-15.75a3.77,3.77,0,0,0-2.71,1,5.19,5.19,0,0,0-1.46,2.87h8.16a5,5,0,0,0-1.35-2.87A3.61,3.61,0,0,0,391.87,53.78Z"/><path class="cls-3" d="M404.47,69V50.52H409l.13,2.38a5.91,5.91,0,0,1,2.23-2.12,7.08,7.08,0,0,1,6.79.18,6.33,6.33,0,0,1,2.36,2.75,9.74,9.74,0,0,1,.84,4.2V69h-4.9V58.54a4.75,4.75,0,0,0-.87-3,2.91,2.91,0,0,0-2.42-1.1,3.69,3.69,0,0,0-2,.5,3.65,3.65,0,0,0-1.33,1.42,4.27,4.27,0,0,0-.49,2.06V69Z"/><path class="cls-3" d="M434.36,69.53a9.34,9.34,0,0,1-3.69-.72,8.74,8.74,0,0,1-2.94-2,9.47,9.47,0,0,1-2-3.07,10.88,10.88,0,0,1,0-7.73,9.9,9.9,0,0,1,2-3.15A9.07,9.07,0,0,1,434.5,50a8.89,8.89,0,0,1,3.67.75A8.13,8.13,0,0,1,441,52.87a7.63,7.63,0,0,1,1.62,3.18L438,57a4.46,4.46,0,0,0-1.47-1.87,3.52,3.52,0,0,0-2.14-.68,3.65,3.65,0,0,0-2.22.7,4.67,4.67,0,0,0-1.52,1.94,6.73,6.73,0,0,0-.56,2.78,6.52,6.52,0,0,0,.54,2.73,4.48,4.48,0,0,0,1.52,1.87,3.81,3.81,0,0,0,2.24.69,4.12,4.12,0,0,0,2.28-.67,3.84,3.84,0,0,0,1.5-1.89l4.66.91a7.21,7.21,0,0,1-1.7,3.22,8.35,8.35,0,0,1-3,2.1A9.69,9.69,0,0,1,434.36,69.53Z"/><path class="cls-3" d="M448.92,76.14a8,8,0,0,1-1.79-.19,5.88,5.88,0,0,1-1.57-.61l.94-3.85a5.74,5.74,0,0,0,.91.29,4.49,4.49,0,0,0,1,.13,3,3,0,0,0,1.76-.55,3.94,3.94,0,0,0,1.25-1.73l.31-.8-7.46-18.31h5.36L454,63.61l4-13.09h5.18l-7.59,20.23a9.41,9.41,0,0,1-2.68,4.1A6.16,6.16,0,0,1,448.92,76.14Z"/></g></g></g></svg>