<svg xmlns="http://www.w3.org/2000/svg" xmlns:xlink="http://www.w3.org/1999/xlink" width="534.77" height="584.486" viewBox="0 0 534.77 584.486">
  <defs>
    <clipPath id="clip-path">
      <path id="Path_718" data-name="Path 718" d="M1157.793,194.653l22.155-12.876c15.82-9.193,39.426-7.2,65.765,8.005l-22.154,12.875C1197.219,187.45,1173.613,185.459,1157.793,194.653Z" transform="translate(-1157.793 -176.244)" fill="none"/>
    </clipPath>
    <clipPath id="clip-path-2">
      <path id="Path_726" data-name="Path 726" d="M1262.4,210.654l22.154-12.875c47.477,27.411,85.86,87.38,85.728,133.952a63.863,63.863,0,0,1-3.531,21.753L1344.6,366.359a63.859,63.859,0,0,0,3.532-21.753C1348.261,298.035,1309.878,238.065,1262.4,210.654Z" transform="translate(-1262.401 -197.779)" fill="none"/>
    </clipPath>
    <clipPath id="clip-path-3">
      <path id="Path_704" data-name="Path 704" d="M634.231,231.988l21.8-12.671c15.571-9.049,38.8-7.089,64.726,7.878l-21.8,12.671C673.034,224.9,649.8,222.94,634.231,231.988Z" transform="translate(-634.231 -213.871)" fill="none"/>
    </clipPath>
    <clipPath id="clip-path-4">
      <path id="Path_712" data-name="Path 712" d="M824.9,409.246l-21.8,12.671c12.494-7.261,20.054-21.611,20.113-42.017.13-45.833-37.636-104.846-84.36-131.822l21.8-12.671c46.724,26.976,84.49,85.99,84.36,131.822C844.951,387.635,837.391,401.985,824.9,409.246Z" transform="translate(-738.845 -235.407)" fill="none"/>
    </clipPath>
    <filter id="Rectangle_110" x="0" y="161" width="362.098" height="423.486" filterUnits="userSpaceOnUse">
      <feOffset dx="5" dy="10" input="SourceAlpha"/>
      <feGaussianBlur stdDeviation="12.5" result="blur"/>
      <feFlood flood-opacity="0.161"/>
      <feComposite operator="in" in2="blur"/>
      <feComposite in="SourceGraphic"/>
    </filter>
    <filter id="Rectangle_111" x="172.672" y="0" width="362.098" height="423.486" filterUnits="userSpaceOnUse">
      <feOffset dx="5" dy="10" input="SourceAlpha"/>
      <feGaussianBlur stdDeviation="12.5" result="blur-2"/>
      <feFlood flood-opacity="0.161"/>
      <feComposite operator="in" in2="blur-2"/>
      <feComposite in="SourceGraphic"/>
    </filter>
  </defs>
  <g id="Group_276" data-name="Group 276" transform="translate(-1169.5 -3312.014)">
    <g id="Group_181" data-name="Group 181">
      <g id="Group_146" data-name="Group 146" transform="translate(1440.357 3644.505)">
        <g id="Group_145" data-name="Group 145" transform="translate(0 0)">
          <g id="Group_144" data-name="Group 144">
            <g id="Group_136" data-name="Group 136" transform="translate(168.4 169.244)">
              <path id="Path_713" data-name="Path 713" d="M1393.143,458.32l22.155-12.875,12.7,45.62L1405.84,503.94Z" transform="translate(-1393.143 -445.445)" fill="#9d6100"/>
            </g>
            <g id="Group_139" data-name="Group 139" transform="translate(20.437)">
              <g id="Group_138" data-name="Group 138" clip-path="url(#clip-path)">
                <g id="Group_137" data-name="Group 137" transform="translate(0 0)">
                  <path id="Path_714" data-name="Path 714" d="M1157.793,194.86l22.155-12.876a41.343,41.343,0,0,1,16.062-5.183l-22.155,12.875a41.337,41.337,0,0,0-16.062,5.184" transform="translate(-1157.793 -176.451)" fill="#855200"/>
                  <path id="Path_715" data-name="Path 715" d="M1183.341,189.47l22.155-12.875a61.915,61.915,0,0,1,21.284,1.5l-22.155,12.875a61.927,61.927,0,0,0-21.284-1.5" transform="translate(-1167.279 -176.244)" fill="#8a5500"/>
                  <path id="Path_716" data-name="Path 716" d="M1217.195,192.062l22.155-12.875a101.338,101.338,0,0,1,24.147,9.324l-22.155,12.875a101.337,101.337,0,0,0-24.147-9.324" transform="translate(-1179.849 -177.336)" fill="#8f5800"/>
                  <path id="Path_717" data-name="Path 717" d="M1255.6,206.893l22.154-12.875q2.124,1.124,4.273,2.365l-22.154,12.875q-2.149-1.241-4.273-2.365" transform="translate(-1194.111 -182.843)" fill="#945b00"/>
                </g>
              </g>
            </g>
            <g id="Group_140" data-name="Group 140" transform="translate(0 12.875)">
              <path id="Path_719" data-name="Path 719" d="M1211.489,210.262c47.477,27.411,85.86,87.381,85.728,133.952a63.86,63.86,0,0,1-3.532,21.753l12.7,45.62-31.313-23.752c-15.783,8.1-38.649,5.733-64.058-8.936-47.477-27.411-85.856-87.384-85.724-133.95S1164.011,182.851,1211.489,210.262Z" transform="translate(-1125.285 -196.723)" fill="#f89900"/>
            </g>
            <g id="Group_143" data-name="Group 143" transform="translate(86.203 13.539)">
              <g id="Group_142" data-name="Group 142" clip-path="url(#clip-path-2)">
                <g id="Group_141" data-name="Group 141">
                  <path id="Path_720" data-name="Path 720" d="M1262.4,210.654l22.154-12.875a163.187,163.187,0,0,1,30.853,23.421l-22.155,12.875a163.2,163.2,0,0,0-30.852-23.421" transform="translate(-1262.401 -197.779)" fill="#945b00"/>
                  <path id="Path_721" data-name="Path 721" d="M1311.475,247.907l22.155-12.875a199.254,199.254,0,0,1,30.319,37.083l-22.155,12.875a199.253,199.253,0,0,0-30.319-37.083" transform="translate(-1280.623 -211.611)" fill="#995e00"/>
                  <path id="Path_722" data-name="Path 722" d="M1359.7,306.891l22.155-12.875a178.413,178.413,0,0,1,16.65,33.241l-22.154,12.875a178.463,178.463,0,0,0-16.651-33.241" transform="translate(-1298.529 -233.513)" fill="#945b00"/>
                  <path id="Path_723" data-name="Path 723" d="M1386.185,359.765l22.154-12.875a134.773,134.773,0,0,1,5.974,20.967l-22.155,12.875a134.783,134.783,0,0,0-5.973-20.967" transform="translate(-1308.363 -253.145)" fill="#8f5800"/>
                  <path id="Path_724" data-name="Path 724" d="M1395.686,393.115l22.155-12.875a99.318,99.318,0,0,1,1.933,19.24c0,.07,0,.14,0,.209l-22.155,12.875c0-.07,0-.14,0-.209a99.329,99.329,0,0,0-1.933-19.24" transform="translate(-1311.891 -265.529)" fill="#8a5500"/>
                  <path id="Path_725" data-name="Path 725" d="M1396.674,424.052l22.155-12.875a63.706,63.706,0,0,1-3.531,21.544L1393.143,445.6a63.7,63.7,0,0,0,3.531-21.544" transform="translate(-1310.947 -277.016)" fill="#855200"/>
                </g>
              </g>
            </g>
          </g>
        </g>
      </g>
      <ellipse id="Ellipse_235" data-name="Ellipse 235" cx="54.786" cy="97.246" rx="54.786" ry="97.246" transform="translate(1423.761 3711.554) rotate(-37.605)" fill="#f2f2f2"/>
      <g id="Group_162" data-name="Group 162" transform="translate(1468.943 3705.822)">
        <g id="Group_161" data-name="Group 161" transform="translate(0 0)">
          <g id="Group_153" data-name="Group 153" transform="translate(17.266 27.934)">
            <path id="Path_730" data-name="Path 730" d="M1237.893,327.238a108.462,108.462,0,0,1,19.49,14.612,133.853,133.853,0,0,1,17.777,20.4c2.491,3.513,3.045,7.842,1.235,9.671-1.093,1.108-2.8,1.046-4.534.047a10.675,10.675,0,0,1-3.253-3.091,109.5,109.5,0,0,0-14.543-16.68,90.027,90.027,0,0,0-16.208-12.144,58.256,58.256,0,0,0-16.225-6.581,31.66,31.66,0,0,0-14.59-.14,4.468,4.468,0,0,1-3.262-.67,11.849,11.849,0,0,1-4.517-5.272c-1.794-3.91-1.221-7.588,1.282-8.218a38.792,38.792,0,0,1,17.834.161A70.163,70.163,0,0,1,1237.893,327.238Z" transform="translate(-1198.218 -318.208)" fill="#f7931e"/>
          </g>
          <g id="Group_154" data-name="Group 154" transform="translate(89.778 45.336)">
            <path id="Path_731" data-name="Path 731" d="M1335.082,365.391c2.442,3.558,2.9,7.852,1.026,9.583-1.1,1.018-2.766.928-4.445-.041a10.8,10.8,0,0,1-3.374-3.262,167.428,167.428,0,0,0-14.733-18.539c3.546-.341,5.956-2.893,6.237-7.244A193.577,193.577,0,0,1,1335.082,365.391Z" transform="translate(-1313.557 -345.887)" fill="#f7931e"/>
          </g>
          <g id="Group_155" data-name="Group 155" transform="translate(34.288 55.655)">
            <path id="Path_732" data-name="Path 732" d="M1247.709,367.572a70.018,70.018,0,0,1,19.707,17.674c2.62,3.37,3.423,7.789,1.8,9.869-1.059,1.358-2.89,1.386-4.761.306a10.332,10.332,0,0,1-2.911-2.633,49.379,49.379,0,0,0-13.872-12.4c-4.917-2.839-9.81-4.163-13.9-3.629a4.734,4.734,0,0,1-2.918-.732,12.066,12.066,0,0,1-4.747-5.795c-1.605-3.944-.775-7.419,1.851-7.76C1233.959,361.7,1240.849,363.616,1247.709,367.572Z" transform="translate(-1225.293 -362.301)" fill="#f7931e"/>
          </g>
          <g id="Group_156" data-name="Group 156" transform="translate(82.167 31.169)">
            <path id="Path_733" data-name="Path 733" d="M1307.784,325.3c.724,1.383.627,2.788-.209,3.136l-3.066,1.277-3.058-4.822,3.5-1.46a1.51,1.51,0,0,1,1.316.2A4.149,4.149,0,0,1,1307.784,325.3Z" transform="translate(-1301.451 -323.354)" fill="#fff"/>
          </g>
          <g id="Group_157" data-name="Group 157" transform="translate(75.329 33.989)">
            <path id="Path_734" data-name="Path 734" d="M1291.272,329.116l3.065-1.277,3.058,4.822-3.5,1.46a1.5,1.5,0,0,1-1.315-.195,4.16,4.16,0,0,1-1.514-1.674C1290.338,330.873,1290.43,329.466,1291.272,329.116Z" transform="translate(-1290.574 -327.839)" fill="#fff"/>
          </g>
          <g id="Group_158" data-name="Group 158" transform="translate(75.356 25.617)">
            <path id="Path_735" data-name="Path 735" d="M1292.631,314.8a4,4,0,0,1,1.313,1.32l3.484,5.495,3.058,4.822,3.048,4.806c.832,1.317.921,2.828.192,3.368a1.36,1.36,0,0,1-1.52-.078,3.982,3.982,0,0,1-1.312-1.321l-3.484-5.494-3.058-4.822-3.048-4.807c-.837-1.315-.921-2.823-.192-3.367A1.358,1.358,0,0,1,1292.631,314.8Z" transform="translate(-1290.617 -314.523)" fill="#fff"/>
          </g>
          <g id="Group_159" data-name="Group 159" transform="translate(67.74 20.049)">
            <path id="Path_736" data-name="Path 736" d="M1292.693,307.867c7.815,4.512,14.135,14.476,14.113,22.253q0,.426-.028.832c-.281,4.352-2.69,6.9-6.237,7.244a13.669,13.669,0,0,1-7.928-2.162,31.046,31.046,0,0,1-13.309-17.066,18.388,18.388,0,0,1-.8-5.189c.009-2.95.928-5.162,2.493-6.525C1283.555,305.025,1287.842,305.067,1292.693,307.867Zm6.344,20.086-3.048-4.806,3.066-1.277c.837-.348.934-1.753.209-3.136a4.149,4.149,0,0,0-1.513-1.672,1.51,1.51,0,0,0-1.316-.2l-3.5,1.46-3.484-5.495a3.991,3.991,0,0,0-1.313-1.32,1.357,1.357,0,0,0-1.518-.079c-.729.544-.645,2.053.192,3.367l3.048,4.807-3.065,1.277c-.842.35-.934,1.757-.21,3.136a4.16,4.16,0,0,0,1.515,1.674,1.5,1.5,0,0,0,1.315.195l3.5-1.46,3.484,5.494a3.981,3.981,0,0,0,1.312,1.321,1.36,1.36,0,0,0,1.52.078c.729-.54.641-2.051-.192-3.368" transform="translate(-1278.503 -305.667)" fill="#f7931e"/>
          </g>
          <g id="Group_160" data-name="Group 160">
            <path id="Path_737" data-name="Path 737" d="M1227.571,286.572a140.42,140.42,0,0,1,13.417,8.841c-1.565,1.364-2.484,3.575-2.493,6.525a18.388,18.388,0,0,0,.8,5.189,124.146,124.146,0,0,0-11.761-7.743,86.469,86.469,0,0,0-25.261-10.075c-8.121-1.69-15.784-1.624-22.573.412a4.381,4.381,0,0,1-3.382-.638A11.781,11.781,0,0,1,1171.89,284c-1.863-3.888-1.382-7.639,1.073-8.37,7.867-2.351,16.676-2.412,25.934-.49A98.156,98.156,0,0,1,1227.571,286.572Z" transform="translate(-1170.755 -273.776)" fill="#f7931e"/>
          </g>
        </g>
      </g>
    </g>
    <g id="Group_180" data-name="Group 180">
      <g id="Group_135" data-name="Group 135" transform="translate(1223.184 3317.094)">
        <g id="Group_134" data-name="Group 134" transform="translate(0 0)">
          <g id="Group_133" data-name="Group 133">
            <g id="Group_128" data-name="Group 128" transform="translate(29.481)">
              <g id="Group_127" data-name="Group 127" clip-path="url(#clip-path-3)">
                <g id="Group_126" data-name="Group 126" transform="translate(0 0)">
                  <path id="Path_700" data-name="Path 700" d="M634.231,232.2l21.8-12.671a40.693,40.693,0,0,1,15.808-5.1l-21.8,12.671a40.7,40.7,0,0,0-15.808,5.1" transform="translate(-634.231 -214.084)" fill="#3e5385"/>
                  <path id="Path_701" data-name="Path 701" d="M659.781,226.887l21.8-12.671a60.957,60.957,0,0,1,20.948,1.476l-21.8,12.671a60.955,60.955,0,0,0-20.948-1.476" transform="translate(-643.973 -213.871)" fill="#41568a"/>
                  <path id="Path_702" data-name="Path 702" d="M693.638,229.485l21.8-12.671a99.766,99.766,0,0,1,23.765,9.177l-21.8,12.671a99.78,99.78,0,0,0-23.765-9.177" transform="translate(-656.882 -214.993)" fill="#43598f"/>
                  <path id="Path_703" data-name="Path 703" d="M732.049,244.317l21.8-12.671q2.09,1.106,4.205,2.327l-21.8,12.671q-2.115-1.221-4.2-2.327" transform="translate(-671.528 -220.648)" fill="#465c94"/>
                </g>
              </g>
            </g>
            <g id="Group_129" data-name="Group 129" transform="translate(0 12.671)">
              <path id="Path_705" data-name="Path 705" d="M680.789,247.675c46.724,26.976,84.49,85.99,84.36,131.822s-38.107,61.115-84.831,34.139c-25.005-14.437-47.448-38.052-62.885-63.91L586.582,337.5l12.708-30.35a102.907,102.907,0,0,1-3.339-25.343C596.081,235.978,634.066,220.7,680.789,247.675Z" transform="translate(-586.582 -234.35)" fill="#759af8"/>
            </g>
            <g id="Group_132" data-name="Group 132" transform="translate(94.207 13.325)">
              <g id="Group_131" data-name="Group 131" clip-path="url(#clip-path-4)">
                <g id="Group_130" data-name="Group 130">
                  <path id="Path_706" data-name="Path 706" d="M738.845,248.078l21.8-12.671a160.593,160.593,0,0,1,30.36,23.047l-21.8,12.671a160.589,160.589,0,0,0-30.36-23.047" transform="translate(-738.845 -235.407)" fill="#465c94"/>
                  <path id="Path_707" data-name="Path 707" d="M787.915,285.327l21.8-12.671a196.073,196.073,0,0,1,29.833,36.489l-21.8,12.671a196.06,196.06,0,0,0-29.833-36.489" transform="translate(-757.555 -249.609)" fill="#485f99"/>
                  <path id="Path_708" data-name="Path 708" d="M836.133,344.3l21.8-12.671a175.605,175.605,0,0,1,16.385,32.712l-21.8,12.671A175.586,175.586,0,0,0,836.133,344.3" transform="translate(-775.94 -272.096)" fill="#465c94"/>
                  <path id="Path_709" data-name="Path 709" d="M862.615,397.173l21.8-12.671a132.633,132.633,0,0,1,5.88,20.637l-21.8,12.671a132.633,132.633,0,0,0-5.88-20.637" transform="translate(-786.037 -292.255)" fill="#43598f"/>
                  <path id="Path_710" data-name="Path 710" d="M872.118,430.527l21.8-12.671a97.767,97.767,0,0,1,1.9,18.938c0,.073,0,.146,0,.218l-21.8,12.671c0-.072,0-.145,0-.218a97.77,97.77,0,0,0-1.9-18.938" transform="translate(-789.66 -304.972)" fill="#41568a"/>
                  <path id="Path_711" data-name="Path 711" d="M862.8,461.488l21.8-12.671c-.111,20.29-7.662,34.564-20.111,41.8l-21.8,12.671c12.45-7.235,20-21.509,20.111-41.8" transform="translate(-778.438 -316.777)" fill="#3e5385"/>
                </g>
              </g>
            </g>
          </g>
        </g>
      </g>
      <ellipse id="Ellipse_234" data-name="Ellipse 234" cx="54.675" cy="97.048" rx="54.675" ry="97.048" transform="translate(1216 3383.146) rotate(-37.605)" fill="#f2f2f2"/>
      <g id="Group_152" data-name="Group 152" transform="translate(1262.551 3380.626)">
        <g id="Group_151" data-name="Group 151" transform="translate(0 0)">
          <g id="Group_150" data-name="Group 150">
            <g id="Group_147" data-name="Group 147" transform="translate(34.454 55.93)">
              <path id="Path_727" data-name="Path 727" d="M726.1,411.931a66.107,66.107,0,0,1,18.6,16.67c1.546,1.988,2.021,4.6,1.064,5.829-.624.8-1.705.819-2.81.181a6.117,6.117,0,0,1-1.721-1.555A53.842,53.842,0,0,0,726.08,419.5c-5.341-3.083-10.67-4.537-15.175-3.951a2.8,2.8,0,0,1-1.723-.433,7.111,7.111,0,0,1-2.8-3.42c-.951-2.331-.458-4.384,1.093-4.584C713.1,406.386,719.615,408.19,726.1,411.931Z" transform="translate(-705.897 -406.953)" fill="#39b54a"/>
            </g>
            <g id="Group_148" data-name="Group 148" transform="translate(17.348 28.072)">
              <path id="Path_728" data-name="Path 728" d="M715.8,370.686c12.795,7.392,25.6,19.1,36.1,33.9,1.47,2.072,1.8,4.629.728,5.713a2.133,2.133,0,0,1-2.675.026,6.313,6.313,0,0,1-1.921-1.825c-9.264-13.064-20.732-23.6-32.237-30.237-11.527-6.66-23.025-9.388-32.338-7.045a2.636,2.636,0,0,1-1.925-.4,7,7,0,0,1-2.666-3.11c-1.062-2.313-.72-4.484.757-4.855C690.18,360.219,703.007,363.306,715.8,370.686Z" transform="translate(-678.249 -361.928)" fill="#39b54a"/>
            </g>
            <g id="Group_149" data-name="Group 149">
              <path id="Path_729" data-name="Path 729" d="M704.982,329.1c19.029,10.987,38.066,28.652,53.358,50.944,1.442,2.106,1.712,4.64.605,5.664a2.172,2.172,0,0,1-2.625-.028,6.364,6.364,0,0,1-1.992-1.927c-14.02-20.447-31.672-36.872-49.369-47.09s-35.38-14.193-49.47-9.976a2.576,2.576,0,0,1-2-.374,6.961,6.961,0,0,1-2.614-3c-1.1-2.3-.814-4.512.635-4.948C666.882,313.777,685.957,318.115,704.982,329.1Z" transform="translate(-650.21 -316.556)" fill="#39b54a"/>
            </g>
          </g>
        </g>
      </g>
    </g>
    <g id="Group_121" data-name="Group 121" transform="translate(-17382 -5578)">
      <g transform="matrix(1, 0, 0, 1, 18551.5, 8890.01)" filter="url(#Rectangle_110)">
        <g id="Rectangle_110-2" data-name="Rectangle 110" transform="translate(32.5 188.5)" fill="#fff" stroke="rgba(201,201,201,0.64)" stroke-width="1">
          <rect width="287.097" height="348.486" rx="10" stroke="none"/>
          <rect x="0.5" y="0.5" width="286.097" height="347.486" rx="9.5" fill="none"/>
        </g>
      </g>
      <g id="ios-share-alt" transform="translate(18611.693 9096.977)">
        <path id="Path_201" data-name="Path 201" d="M80.037,101.646,74.1,96.094a.3.3,0,0,0-.236-.1c-.185.008-.421.139-.421.337v2.785a.18.18,0,0,1-.151.172c-5.9.9-8.387,5.321-9.266,9.906-.034.181.21.349.324.206a10.727,10.727,0,0,1,8.917-4.518.208.208,0,0,1,.177.2v2.734a.361.361,0,0,0,.61.223l5.977-5.649a.464.464,0,0,0,.147-.353A.564.564,0,0,0,80.037,101.646Z" transform="translate(-64.025 -95.992)" fill="#3783dc" stroke="rgba(201,201,201,0.64)" stroke-width="1"/>
      </g>
      <g id="ios-trash" transform="translate(18613.078 9389.126)">
        <path id="Path_203" data-name="Path 203" d="M118.758,67.211,119.942,81.8a1.469,1.469,0,0,0,1.47,1.47h7.074a1.469,1.469,0,0,0,1.47-1.47l1.169-14.585Zm3.091,13.3-.336-11.69h.928l.346,11.69Zm3.527,0h-.9V68.816h.9Zm2.624,0h-.933l.341-11.69h.928Zm2.343-15.1h-1.806l-1.319-1.154a1.017,1.017,0,0,0-.662-.251H123.3a1.033,1.033,0,0,0-.672.251L121.311,65.4h-1.806c-.883,0-1.505.421-1.505,1.3h13.847C131.847,65.826,131.225,65.4,130.342,65.4Z" transform="translate(-118 -64)" fill="#3783dc"/>
      </g>
      <g id="ic_file_download_48px" transform="translate(18612.156 9353.61)">
        <path id="Path_202" data-name="Path 202" d="M23.847,11.935H19.891V6H13.956v5.935H10l6.924,6.924ZM10,20.836v1.978H23.847V20.836Z" transform="translate(-10 -6)" fill="#3783dc"/>
      </g>
      <g id="ios-paper" transform="translate(18611.693 9129.286)">
        <path id="Path_250" data-name="Path 250" d="M50.951,49.243v12.5a.544.544,0,1,1-1.087,0V50.485h-.621A1.241,1.241,0,0,0,48,51.728V62.912a1.241,1.241,0,0,0,1.243,1.243H62.955a1.2,1.2,0,0,0,1.2-1.2V49.243A1.241,1.241,0,0,0,62.912,48l-10.8.078A1.113,1.113,0,0,0,50.951,49.243Zm2.563,1.243h3.262a.544.544,0,0,1,0,1.087H53.514a.544.544,0,0,1,0-1.087Zm0,6.213h5.747a.544.544,0,1,1,0,1.087H53.514a.544.544,0,0,1,0-1.087Zm7.611,4.194H53.514a.544.544,0,0,1,0-1.087h7.611a.544.544,0,1,1,0,1.087Zm0-6.213H53.514a.544.544,0,0,1,0-1.087h7.611a.544.544,0,1,1,0,1.087Z" transform="translate(-48 -48)" fill="#3783dc"/>
      </g>
      <g id="ic_move_to_inbox_48px" transform="translate(18611.693 9163.904)">
        <path id="Path_251" data-name="Path 251" d="M20.36,6H7.786A1.779,1.779,0,0,0,6.009,7.795L6,20.36a1.787,1.787,0,0,0,1.786,1.8H20.36a1.8,1.8,0,0,0,1.8-1.8V7.795A1.8,1.8,0,0,0,20.36,6Zm0,10.77H16.77a2.692,2.692,0,1,1-5.385,0h-3.6V7.795H20.36Zm-2.692-4.487H15.872V9.59h-3.59v2.692H10.487l3.59,3.59.65-.65Z" transform="translate(-6 -6)" fill="#3783dc"/>
      </g>
      <g id="md-star" transform="translate(18611.693 9198.522)">
        <path id="Path_252" data-name="Path 252" d="M62.077,76.344l4.992,3.012-1.32-5.681,4.406-3.82-5.809-.5L62.077,64l-2.269,5.356-5.808.5,4.406,3.82-1.321,5.681Z" transform="translate(-54 -64)" fill="#3783dc"/>
      </g>
      <g id="pencil" transform="translate(18611.693 9232.679)">
        <path id="Path_253" data-name="Path 253" d="M16.571,3.084,14.965,1.477a2.253,2.253,0,0,0-3.066,0l-9.93,9.93c-.073.073-.073.146-.146.219v.146l-.73,4.381c-.073.219.073.438.219.657a.441.441,0,0,0,.438.219H1.9l4.381-.73h.146c.073,0,.146-.073.219-.146l9.93-10A2.117,2.117,0,0,0,16.571,3.084ZM12.7,7.975,10.073,5.347l1.679-1.679L14.381,6.3Z" transform="translate(-1.073 -0.875)" fill="#3783dc"/>
      </g>
      <g id="md-locate" transform="translate(18611.693 9267.296)">
        <path id="Icon" d="M40.077,37.193a2.885,2.885,0,1,0,2.885,2.885A2.893,2.893,0,0,0,40.077,37.193Zm6.885,2.116a6.95,6.95,0,0,0-6.116-6.116V32H39.308v1.192a6.95,6.95,0,0,0-6.116,6.116H32v1.539h1.192a6.95,6.95,0,0,0,6.116,6.116v1.192h1.539V46.963a6.95,6.95,0,0,0,6.116-6.116h1.192V39.308Zm-6.885,6.154a5.385,5.385,0,1,1,5.385-5.385A5.4,5.4,0,0,1,40.077,45.462Z" transform="translate(-32 -32)" fill="#3783dc"/>
      </g>
      <g id="activity" transform="translate(18611.693 9301.914)">
        <path id="Path_254" data-name="Path 254" d="M18.155,10.27H14.924L12.5,17.539,7.654,3,5.231,10.27H2" transform="translate(-2 -3)" fill="none" stroke="#3783dc" stroke-linecap="round" stroke-linejoin="round" stroke-width="2"/>
      </g>
      <line id="Line_24" data-name="Line 24" x2="287.097" transform="translate(18584.23 9334.917)" fill="none" stroke="rgba(201,201,201,0.64)" stroke-width="1" opacity="0.271"/>
      <text id="Share" transform="translate(18648.619 9107.592)" fill="#5f5f5f" font-size="13" font-family="BentonSans-Regular, Benton Sans"><tspan x="0" y="0">Share</tspan></text>
      <text id="Manage_Smart_Contract" data-name="Manage Smart Contract" transform="translate(18648.619 9140.825)" fill="#5f5f5f" font-size="13" font-family="BentonSans-Regular, Benton Sans"><tspan x="0" y="0">Manage Smart Contract</tspan></text>
      <text id="Move_To" data-name="Move To" transform="translate(18648.619 9178.212)" fill="#5f5f5f" font-size="13" font-family="BentonSans-Regular, Benton Sans"><tspan x="0" y="0">Move To</tspan></text>
      <text id="Add_to_Starred" data-name="Add to Starred" transform="translate(18648.619 9210.522)" fill="#5f5f5f" font-size="13" font-family="BentonSans-Regular, Benton Sans"><tspan x="0" y="0">Add to Starred</tspan></text>
      <text id="Rename" transform="translate(18648.619 9244.679)" fill="#5f5f5f" font-size="13" font-family="BentonSans-Regular, Benton Sans"><tspan x="0" y="0">Rename</tspan></text>
      <text id="Locate" transform="translate(18648.619 9278.835)" fill="#5f5f5f" font-size="13" font-family="BentonSans-Regular, Benton Sans"><tspan x="0" y="0">Locate</tspan></text>
      <text id="View_Activity" data-name="View Activity" transform="translate(18648.619 9314.376)" fill="#5f5f5f" font-size="13" font-family="BentonSans-Regular, Benton Sans"><tspan x="0" y="0">View Activity</tspan></text>
      <text id="Download" transform="translate(18648.619 9364.226)" fill="#5f5f5f" font-size="13" font-family="BentonSans-Regular, Benton Sans"><tspan x="0" y="0">Download</tspan></text>
      <text id="Delete" transform="translate(18648.619 9401.612)" fill="#5f5f5f" font-size="13" font-family="BentonSans-Regular, Benton Sans"><tspan x="0" y="0">Delete</tspan></text>
    </g>
    <g id="Group_122" data-name="Group 122" transform="translate(-17553.66 -5739)">
      <g transform="matrix(1, 0, 0, 1, 18723.16, 9051.01)" filter="url(#Rectangle_111)">
        <g id="Rectangle_111-2" data-name="Rectangle 111" transform="translate(205.17 27.5)" fill="#fff" stroke="rgba(201,201,201,0.64)" stroke-width="1">
          <rect width="287.097" height="348.486" rx="10" stroke="none"/>
          <rect x="0.5" y="0.5" width="286.097" height="347.486" rx="9.5" fill="none"/>
        </g>
      </g>
      <g id="ios-share-alt-2" data-name="ios-share-alt" transform="translate(18956.025 9096.977)">
        <path id="Path_201-2" data-name="Path 201" d="M80.037,101.646,74.1,96.094a.3.3,0,0,0-.236-.1c-.185.008-.421.139-.421.337v2.785a.18.18,0,0,1-.151.172c-5.9.9-8.387,5.321-9.266,9.906-.034.181.21.349.324.206a10.727,10.727,0,0,1,8.917-4.518.208.208,0,0,1,.177.2v2.734a.361.361,0,0,0,.61.223l5.977-5.649a.464.464,0,0,0,.147-.353A.564.564,0,0,0,80.037,101.646Z" transform="translate(-64.025 -95.992)" fill="#ddd"/>
      </g>
      <g id="ios-trash-2" data-name="ios-trash" transform="translate(18957.412 9389.126)">
        <path id="Path_203-2" data-name="Path 203" d="M118.758,67.211,119.942,81.8a1.469,1.469,0,0,0,1.47,1.47h7.074a1.469,1.469,0,0,0,1.47-1.47l1.169-14.585Zm3.091,13.3-.336-11.69h.928l.346,11.69Zm3.527,0h-.9V68.816h.9Zm2.624,0h-.933l.341-11.69h.928Zm2.343-15.1h-1.806l-1.319-1.154a1.017,1.017,0,0,0-.662-.251H123.3a1.033,1.033,0,0,0-.672.251L121.311,65.4h-1.806c-.883,0-1.505.421-1.505,1.3h13.847C131.847,65.826,131.225,65.4,130.342,65.4Z" transform="translate(-118 -64)" fill="#ddd"/>
      </g>
      <g id="ic_file_download_48px-2" data-name="ic_file_download_48px" transform="translate(18956.488 9353.61)">
        <path id="Path_202-2" data-name="Path 202" d="M23.847,11.935H19.891V6H13.956v5.935H10l6.924,6.924ZM10,20.836v1.978H23.847V20.836Z" transform="translate(-10 -6)" fill="#ddd"/>
      </g>
      <g id="ios-paper-2" data-name="ios-paper" transform="translate(18956.027 9129.286)">
        <path id="Path_250-2" data-name="Path 250" d="M50.951,49.243v12.5a.544.544,0,1,1-1.087,0V50.485h-.621A1.241,1.241,0,0,0,48,51.728V62.912a1.241,1.241,0,0,0,1.243,1.243H62.955a1.2,1.2,0,0,0,1.2-1.2V49.243A1.241,1.241,0,0,0,62.912,48l-10.8.078A1.113,1.113,0,0,0,50.951,49.243Zm2.563,1.243h3.262a.544.544,0,0,1,0,1.087H53.514a.544.544,0,0,1,0-1.087Zm0,6.213h5.747a.544.544,0,1,1,0,1.087H53.514a.544.544,0,0,1,0-1.087Zm7.611,4.194H53.514a.544.544,0,0,1,0-1.087h7.611a.544.544,0,1,1,0,1.087Zm0-6.213H53.514a.544.544,0,0,1,0-1.087h7.611a.544.544,0,1,1,0,1.087Z" transform="translate(-48 -48)" fill="#ddd"/>
      </g>
      <g id="ic_move_to_inbox_48px-2" data-name="ic_move_to_inbox_48px" transform="translate(18956.027 9163.904)">
        <path id="Path_251-2" data-name="Path 251" d="M20.36,6H7.786A1.779,1.779,0,0,0,6.009,7.795L6,20.36a1.787,1.787,0,0,0,1.786,1.8H20.36a1.8,1.8,0,0,0,1.8-1.8V7.795A1.8,1.8,0,0,0,20.36,6Zm0,10.77H16.77a2.692,2.692,0,1,1-5.385,0h-3.6V7.795H20.36Zm-2.692-4.487H15.872V9.59h-3.59v2.692H10.487l3.59,3.59.65-.65Z" transform="translate(-6 -6)" fill="#3783dc"/>
      </g>
      <g id="md-star-2" data-name="md-star" transform="translate(18956.027 9198.522)">
        <path id="Path_252-2" data-name="Path 252" d="M62.077,76.344l4.992,3.012-1.32-5.681,4.406-3.82-5.809-.5L62.077,64l-2.269,5.356-5.808.5,4.406,3.82-1.321,5.681Z" transform="translate(-54 -64)" fill="#3783dc"/>
      </g>
      <g id="pencil-2" data-name="pencil" transform="translate(18956.025 9232.679)">
        <path id="Path_253-2" data-name="Path 253" d="M16.571,3.084,14.965,1.477a2.253,2.253,0,0,0-3.066,0l-9.93,9.93c-.073.073-.073.146-.146.219v.146l-.73,4.381c-.073.219.073.438.219.657a.441.441,0,0,0,.438.219H1.9l4.381-.73h.146c.073,0,.146-.073.219-.146l9.93-10A2.117,2.117,0,0,0,16.571,3.084ZM12.7,7.975,10.073,5.347l1.679-1.679L14.381,6.3Z" transform="translate(-1.073 -0.875)" fill="#ddd"/>
      </g>
      <g id="md-locate-2" data-name="md-locate" transform="translate(18956.027 9267.296)">
        <path id="Icon-2" data-name="Icon" d="M40.077,37.193a2.885,2.885,0,1,0,2.885,2.885A2.893,2.893,0,0,0,40.077,37.193Zm6.885,2.116a6.95,6.95,0,0,0-6.116-6.116V32H39.308v1.192a6.95,6.95,0,0,0-6.116,6.116H32v1.539h1.192a6.95,6.95,0,0,0,6.116,6.116v1.192h1.539V46.963a6.95,6.95,0,0,0,6.116-6.116h1.192V39.308Zm-6.885,6.154a5.385,5.385,0,1,1,5.385-5.385A5.4,5.4,0,0,1,40.077,45.462Z" transform="translate(-32 -32)" fill="#3783dc"/>
      </g>
      <g id="activity-2" data-name="activity" transform="translate(18956.027 9301.914)">
        <path id="Path_254-2" data-name="Path 254" d="M18.155,10.27H14.924L12.5,17.539,7.654,3,5.231,10.27H2" transform="translate(-2 -3)" fill="none" stroke="rgba(201,201,201,0.64)" stroke-linecap="round" stroke-linejoin="round" stroke-width="2"/>
      </g>
      <line id="Line_25" data-name="Line 25" x2="287.097" transform="translate(18928.563 9334.917)" fill="none" stroke="rgba(201,201,201,0.64)" stroke-width="1" opacity="0.271"/>
      <text id="Share-2" data-name="Share" transform="translate(18992.953 9107.592)" fill="#ddd" font-size="13" font-family="BentonSans-Regular, Benton Sans"><tspan x="0" y="0">Share</tspan></text>
      <text id="Manage_Smart_Contract-2" data-name="Manage Smart Contract" transform="translate(18992.953 9140.825)" fill="#ddd" font-size="13" font-family="BentonSans-Regular, Benton Sans"><tspan x="0" y="0">Manage Smart Contract</tspan></text>
      <text id="Move_To-2" data-name="Move To" transform="translate(18992.953 9178.212)" fill="#5f5f5f" font-size="13" font-family="BentonSans-Regular, Benton Sans"><tspan x="0" y="0">Move To</tspan></text>
      <text id="Add_to_Starred-2" data-name="Add to Starred" transform="translate(18992.953 9210.522)" fill="#5f5f5f" font-size="13" font-family="BentonSans-Regular, Benton Sans"><tspan x="0" y="0">Add to Starred</tspan></text>
      <text id="Rename-2" data-name="Rename" transform="translate(18992.953 9244.679)" fill="#ddd" font-size="13" font-family="BentonSans-Regular, Benton Sans"><tspan x="0" y="0">Rename</tspan></text>
      <text id="Locate-2" data-name="Locate" transform="translate(18992.953 9278.835)" fill="#5f5f5f" font-size="13" font-family="BentonSans-Regular, Benton Sans"><tspan x="0" y="0">Locate</tspan></text>
      <text id="View_Activity-2" data-name="View Activity" transform="translate(18992.953 9314.376)" fill="#5f5f5f" font-size="13" font-family="BentonSans-Regular, Benton Sans"><tspan x="0" y="0">View Activity</tspan></text>
      <text id="Download-2" data-name="Download" transform="translate(18992.953 9364.226)" fill="#ddd" font-size="13" font-family="BentonSans-Regular, Benton Sans"><tspan x="0" y="0">Download</tspan></text>
      <text id="Delete-2" data-name="Delete" transform="translate(18992.953 9401.612)" fill="#ddd" font-size="13" font-family="BentonSans-Regular, Benton Sans"><tspan x="0" y="0">Delete</tspan></text>
    </g>
  </g>
</svg>
