<svg id="Layer_1" data-name="Layer 1" xmlns="http://www.w3.org/2000/svg" xmlns:xlink="http://www.w3.org/1999/xlink" viewBox="0 0 490.97 611.43"><defs><style>.cls-1,.cls-24{fill:none;}.cls-2{fill:#9d6100;}.cls-3{clip-path:url(#clip-path);}.cls-4{fill:#855200;}.cls-5{fill:#8a5500;}.cls-6{fill:#8f5800;}.cls-7{fill:#945b00;}.cls-8{fill:#f89900;}.cls-9{clip-path:url(#clip-path-2);}.cls-10{fill:#995e00;}.cls-11{fill:#f2f2f2;}.cls-12{fill:#f7931e;}.cls-13{fill:#fff;}.cls-14{clip-path:url(#clip-path-3);}.cls-15{fill:#3e5385;}.cls-16{fill:#41568a;}.cls-17{fill:#43598f;}.cls-18{fill:#465c94;}.cls-19{fill:#759af8;}.cls-20{clip-path:url(#clip-path-4);}.cls-21{fill:#485f99;}.cls-22{fill:#39b54a;}.cls-23{fill:#3783dc;}.cls-24{stroke:#3783dc;stroke-linecap:round;stroke-linejoin:round;stroke-width:2px;}.cls-25{isolation:isolate;}.cls-26{fill:#5f5f5f;}.cls-27{fill:#ddd;}</style><clipPath id="clip-path"><path class="cls-1" d="M272.83,363.81,295,350.93c15.82-9.19,39.43-7.2,65.76,8L338.6,371.81C312.26,356.6,288.65,354.61,272.83,363.81Z"/></clipPath><clipPath id="clip-path-2"><path class="cls-1" d="M338.6,371.81l22.15-12.87c47.48,27.41,85.86,87.38,85.73,134A63.87,63.87,0,0,1,443,514.64L420.8,527.52a63.89,63.89,0,0,0,3.53-21.76C424.46,459.19,386.08,399.22,338.6,371.81Z"/></clipPath><clipPath id="clip-path-3"><path class="cls-1" d="M64.71,36.1l21.8-12.67c15.57-9,38.8-7.09,64.72,7.88L129.43,44C103.51,29,80.27,27.06,64.71,36.1Z"/></clipPath><clipPath id="clip-path-4"><path class="cls-1" d="M215.49,205.15l-21.8,12.67c12.49-7.26,20.05-21.61,20.11-42C213.93,130,176.16,71,129.44,44l21.8-12.67c46.72,27,84.49,86,84.36,131.82C235.54,183.54,228,197.89,215.49,205.15Z"/></clipPath></defs><title>prod-onoff</title><g id="Group_382" data-name="Group 382"><g id="Group_181" data-name="Group 181"><g id="Group_146" data-name="Group 146"><g id="Group_145" data-name="Group 145"><g id="Group_144" data-name="Group 144"><g id="Group_136" data-name="Group 136"><path id="Path_713" data-name="Path 713" class="cls-2" d="M420.8,527.52,443,514.64l12.7,45.62-22.16,12.88Z"/></g><g id="Group_139" data-name="Group 139"><g class="cls-3"><g id="Group_138" data-name="Group 138"><g id="Group_137" data-name="Group 137"><path id="Path_714" data-name="Path 714" class="cls-4" d="M272.83,363.81,295,350.93a41.33,41.33,0,0,1,16.06-5.18L288.9,358.62a41.33,41.33,0,0,0-16.07,5.19"/><path id="Path_715" data-name="Path 715" class="cls-5" d="M288.9,358.62l22.15-12.87a61.79,61.79,0,0,1,21.29,1.5l-22.16,12.87a62.23,62.23,0,0,0-21.28-1.5"/><path id="Path_716" data-name="Path 716" class="cls-6" d="M310.18,360.12l22.16-12.87a101.42,101.42,0,0,1,24.14,9.32l-22.15,12.88a101.68,101.68,0,0,0-24.15-9.33"/><path id="Path_717" data-name="Path 717" class="cls-7" d="M334.32,369.45l22.16-12.88c1.41.75,2.84,1.54,4.27,2.37L338.6,371.81c-1.44-.82-2.86-1.61-4.28-2.36"/></g></g></g></g><g id="Group_140" data-name="Group 140"><path id="Path_719" data-name="Path 719" class="cls-8" d="M338.6,371.81c47.48,27.41,85.86,87.38,85.73,134a63.89,63.89,0,0,1-3.53,21.76l12.7,45.62-31.32-23.75c-15.78,8.1-38.64,5.73-64.05-8.94-47.48-27.41-85.86-87.38-85.73-134S291.12,344.4,338.6,371.81Z"/></g><g id="Group_143" data-name="Group 143"><g class="cls-9"><g id="Group_142" data-name="Group 142"><g id="Group_141" data-name="Group 141"><path id="Path_720" data-name="Path 720" class="cls-7" d="M338.6,371.81l22.15-12.87a162.79,162.79,0,0,1,30.86,23.42l-22.16,12.87a163.57,163.57,0,0,0-30.85-23.42"/><path id="Path_721" data-name="Path 721" class="cls-10" d="M369.45,395.23l22.16-12.87a199.61,199.61,0,0,1,30.32,37.08l-22.16,12.88a199.34,199.34,0,0,0-30.32-37.09"/><path id="Path_722" data-name="Path 722" class="cls-7" d="M399.77,432.32l22.16-12.88a178.71,178.71,0,0,1,16.65,33.24l-22.16,12.88a178.71,178.71,0,0,0-16.65-33.24"/><path id="Path_723" data-name="Path 723" class="cls-6" d="M416.42,465.56l22.16-12.88a135.15,135.15,0,0,1,6,21L422.4,486.52a135.06,135.06,0,0,0-6-21"/><path id="Path_724" data-name="Path 724" class="cls-5" d="M422.4,486.52l22.15-12.87a98.63,98.63,0,0,1,1.93,19.24v.21L424.33,506v-.21a100.28,100.28,0,0,0-1.93-19.24"/><path id="Path_725" data-name="Path 725" class="cls-4" d="M424.33,506l22.15-12.87A63.65,63.65,0,0,1,443,514.64L420.8,527.52A63.9,63.9,0,0,0,424.33,506"/></g></g></g></g></g></g></g><ellipse id="Ellipse_235" data-name="Ellipse 235" class="cls-11" cx="338.55" cy="456.06" rx="54.79" ry="97.25" transform="translate(-207.96 301.34) rotate(-37.6)"/><g id="Group_162" data-name="Group 162"><g id="Group_161" data-name="Group 161"><g id="Group_153" data-name="Group 153"><path id="Path_730" data-name="Path 730" class="cls-12" d="M337.92,443.68a107.71,107.71,0,0,1,19.49,14.61,133.82,133.82,0,0,1,17.78,20.4c2.49,3.51,3.05,7.84,1.24,9.67-1.1,1.11-2.8,1.05-4.54.05a10.65,10.65,0,0,1-3.25-3.09,109.47,109.47,0,0,0-14.54-16.68,90.16,90.16,0,0,0-16.21-12.15,58.77,58.77,0,0,0-16.23-6.58,31.68,31.68,0,0,0-14.59-.14,4.42,4.42,0,0,1-3.26-.67,11.82,11.82,0,0,1-4.52-5.27c-1.79-3.91-1.22-7.59,1.29-8.22a38.91,38.91,0,0,1,17.83.16A70.18,70.18,0,0,1,337.92,443.68Z"/></g><g id="Group_154" data-name="Group 154"><path id="Path_731" data-name="Path 731" class="cls-12" d="M392.29,471.56c2.44,3.55,2.9,7.85,1,9.58-1.1,1-2.76.93-4.44,0a11,11,0,0,1-3.38-3.26,166.43,166.43,0,0,0-14.73-18.54c3.55-.34,6-2.9,6.24-7.25A194.47,194.47,0,0,1,392.29,471.56Z"/></g><g id="Group_155" data-name="Group 155"><path id="Path_732" data-name="Path 732" class="cls-12" d="M337.69,467.64a70.07,70.07,0,0,1,19.7,17.68c2.62,3.37,3.43,7.78,1.8,9.86-1.05,1.36-2.89,1.39-4.76.31a10.44,10.44,0,0,1-2.91-2.63,49.07,49.07,0,0,0-13.87-12.4c-4.92-2.84-9.81-4.17-13.9-3.63a4.77,4.77,0,0,1-2.92-.73,12,12,0,0,1-4.74-5.8c-1.61-3.94-.78-7.42,1.85-7.76C323.94,461.77,330.83,463.69,337.69,467.64Z"/></g><g id="Group_156" data-name="Group 156"><path id="Path_733" data-name="Path 733" class="cls-13" d="M369.48,439.83c.73,1.38.63,2.79-.21,3.14l-3.06,1.27-3.06-4.82,3.5-1.46a1.54,1.54,0,0,1,1.32.2A4.19,4.19,0,0,1,369.48,439.83Z"/></g><g id="Group_157" data-name="Group 157"><path id="Path_734" data-name="Path 734" class="cls-13" d="M357,442l3.07-1.28,3.05,4.83-3.5,1.46a1.49,1.49,0,0,1-1.31-.2,4.29,4.29,0,0,1-1.52-1.67C356.08,443.74,356.17,442.33,357,442Z"/></g><g id="Group_158" data-name="Group 158"><path id="Path_735" data-name="Path 735" class="cls-13" d="M358.35,432.61a4,4,0,0,1,1.32,1.32l3.48,5.49,3.06,4.83,3.05,4.8c.83,1.32.92,2.83.19,3.37a1.34,1.34,0,0,1-1.52-.08,3.85,3.85,0,0,1-1.31-1.32l-3.49-5.49-3.06-4.82-3-4.81c-.84-1.32-.92-2.82-.2-3.37A1.38,1.38,0,0,1,358.35,432.61Z"/></g><g id="Group_159" data-name="Group 159"><path id="Path_736" data-name="Path 736" class="cls-12" d="M362.91,429c7.82,4.52,14.14,14.48,14.12,22.26,0,.28,0,.56,0,.83-.28,4.35-2.69,6.9-6.24,7.24a13.65,13.65,0,0,1-7.93-2.16,31.06,31.06,0,0,1-13.31-17.06,18.66,18.66,0,0,1-.8-5.19c0-2.95.93-5.17,2.5-6.53C353.78,426.12,358.06,426.16,362.91,429Zm6.35,20.09-3.05-4.81,3.07-1.27c.83-.35.93-1.76.2-3.14a4.19,4.19,0,0,0-1.51-1.67,1.49,1.49,0,0,0-1.31-.2l-3.5,1.46-3.49-5.5a4.23,4.23,0,0,0-1.31-1.32,1.36,1.36,0,0,0-1.52-.07c-.73.54-.64,2.05.19,3.36l3.05,4.81L357,442c-.85.35-.94,1.75-.21,3.13a4.15,4.15,0,0,0,1.51,1.68,1.5,1.5,0,0,0,1.32.19l3.5-1.46,3.48,5.5a4.13,4.13,0,0,0,1.31,1.32,1.38,1.38,0,0,0,1.52.08c.73-.55.64-2.06-.19-3.37"/></g><g id="Group_160" data-name="Group 160"><path id="Path_737" data-name="Path 737" class="cls-12" d="M337.8,419.51a140.56,140.56,0,0,1,13.42,8.84c-1.57,1.37-2.49,3.58-2.5,6.53a18.66,18.66,0,0,0,.8,5.19,124.27,124.27,0,0,0-11.76-7.75,86.23,86.23,0,0,0-25.26-10.07c-8.12-1.69-15.78-1.63-22.57.41a4.34,4.34,0,0,1-3.38-.64,11.74,11.74,0,0,1-4.43-5.08c-1.86-3.89-1.38-7.64,1.07-8.37,7.87-2.35,16.68-2.41,25.94-.49A98,98,0,0,1,337.8,419.51Z"/></g></g></g></g><g id="Group_180" data-name="Group 180"><g id="Group_135" data-name="Group 135"><g id="Group_134" data-name="Group 134"><g id="Group_133" data-name="Group 133"><g id="Group_128" data-name="Group 128"><g class="cls-14"><g id="Group_127" data-name="Group 127"><g id="Group_126" data-name="Group 126"><path id="Path_700" data-name="Path 700" class="cls-15" d="M64.71,36.1l21.8-12.67a40.73,40.73,0,0,1,15.8-5.1L80.51,31a40.89,40.89,0,0,0-15.8,5.1"/><path id="Path_701" data-name="Path 701" class="cls-16" d="M80.51,31l21.8-12.67a61,61,0,0,1,21,1.48l-21.8,12.67A61,61,0,0,0,80.51,31"/><path id="Path_702" data-name="Path 702" class="cls-17" d="M101.46,32.48l21.8-12.67A99.51,99.51,0,0,1,147,29l-21.8,12.67a99.93,99.93,0,0,0-23.77-9.18"/><path id="Path_703" data-name="Path 703" class="cls-18" d="M125.23,41.66,147,29c1.39.73,2.79,1.51,4.2,2.32L129.43,44c-1.41-.81-2.81-1.59-4.2-2.32"/></g></g></g></g><g id="Group_129" data-name="Group 129"><path id="Path_705" data-name="Path 705" class="cls-19" d="M129.43,44c46.73,27,84.49,86,84.36,131.83S175.68,236.92,129,209.94C104,195.51,81.51,171.89,66.08,146L35.22,133.81l12.71-30.35a103.24,103.24,0,0,1-3.34-25.34C44.72,32.29,82.71,17,129.43,44Z"/></g><g id="Group_132" data-name="Group 132"><g class="cls-20"><g id="Group_131" data-name="Group 131"><g id="Group_130" data-name="Group 130"><path id="Path_706" data-name="Path 706" class="cls-18" d="M129.43,44l21.8-12.67a160.63,160.63,0,0,1,30.36,23.05L159.79,67A160.63,160.63,0,0,0,129.43,44"/><path id="Path_707" data-name="Path 707" class="cls-21" d="M159.79,67l21.8-12.67a195.81,195.81,0,0,1,29.83,36.49l-21.8,12.67A195.81,195.81,0,0,0,159.79,67"/><path id="Path_708" data-name="Path 708" class="cls-18" d="M189.62,103.52l21.8-12.67a175.21,175.21,0,0,1,16.39,32.71L206,136.23a175.21,175.21,0,0,0-16.39-32.71"/><path id="Path_709" data-name="Path 709" class="cls-17" d="M206,136.23l21.8-12.67a133.12,133.12,0,0,1,5.88,20.64l-21.8,12.67A133.12,133.12,0,0,0,206,136.23"/><path id="Path_710" data-name="Path 710" class="cls-16" d="M211.89,156.87l21.8-12.67a97.86,97.86,0,0,1,1.9,18.93v.22L213.79,176v-.21a97.88,97.88,0,0,0-1.9-18.94"/><path id="Path_711" data-name="Path 711" class="cls-15" d="M213.79,176l21.8-12.67c-.11,20.29-7.66,34.57-20.11,41.8l-21.8,12.67c12.45-7.23,20-21.51,20.11-41.8"/></g></g></g></g></g></g></g><ellipse id="Ellipse_234" data-name="Ellipse 234" class="cls-11" cx="130.58" cy="127.56" rx="54.67" ry="97.05" transform="translate(-50.71 106.18) rotate(-37.6)"/><g id="Group_152" data-name="Group 152"><g id="Group_151" data-name="Group 151"><g id="Group_150" data-name="Group 150"><g id="Group_147" data-name="Group 147"><path id="Path_727" data-name="Path 727" class="cls-22" d="M129.25,142.43a66.13,66.13,0,0,1,18.6,16.67c1.54,2,2,4.6,1.06,5.83-.62.8-1.7.82-2.81.18a6.1,6.1,0,0,1-1.72-1.56A53.75,53.75,0,0,0,129.23,150c-5.34-3.09-10.67-4.54-15.18-3.95a2.83,2.83,0,0,1-1.72-.44,7.12,7.12,0,0,1-2.8-3.42c-1-2.33-.46-4.38,1.09-4.58C116.25,136.88,122.76,138.69,129.25,142.43Z"/></g><g id="Group_148" data-name="Group 148"><path id="Path_728" data-name="Path 728" class="cls-22" d="M129.49,118.35c12.8,7.39,25.6,19.1,36.1,33.9,1.47,2.07,1.8,4.63.73,5.71a2.14,2.14,0,0,1-2.68,0,6.44,6.44,0,0,1-1.92-1.83c-9.26-13.06-20.73-23.6-32.23-30.23s-23-9.39-32.34-7.05a2.64,2.64,0,0,1-1.93-.4,7,7,0,0,1-2.66-3.11c-1.07-2.31-.72-4.48.75-4.85C103.87,107.88,116.7,111,129.49,118.35Z"/></g><g id="Group_149" data-name="Group 149"><path id="Path_729" data-name="Path 729" class="cls-22" d="M129.36,94.06c19,11,38.07,28.66,53.36,50.95,1.44,2.1,1.71,4.64.61,5.66a2.18,2.18,0,0,1-2.63,0,6.19,6.19,0,0,1-2-1.92c-14-20.45-31.67-36.88-49.37-47.09S94,87.43,79.87,91.65a2.57,2.57,0,0,1-2-.37,7,7,0,0,1-2.61-3c-1.1-2.3-.82-4.52.63-5C91.26,78.74,110.34,83.08,129.36,94.06Z"/></g></g></g></g></g><g id="Group_121" data-name="Group 121"><g id="Rectangle_110-2" data-name="Rectangle 110-2"><rect class="cls-13" x="14.04" y="201.4" width="287.1" height="348.49" rx="10"/><rect class="cls-1" x="14.54" y="201.9" width="286.1" height="347.49" rx="9.5"/></g><g id="ios-share-alt"><path id="Path_201" data-name="Path 201" class="cls-23" d="M57.75,225.52,51.81,220a.35.35,0,0,0-.24-.1c-.18,0-.42.14-.42.34V223a.18.18,0,0,1-.15.18c-5.9.9-8.39,5.32-9.27,9.9,0,.18.21.35.33.21A10.69,10.69,0,0,1,51,228.76a.2.2,0,0,1,.17.2v2.73a.37.37,0,0,0,.4.33.41.41,0,0,0,.21-.1l6-5.65a.47.47,0,0,0,.15-.35A.63.63,0,0,0,57.75,225.52Z"/></g><g id="ios-trash"><path id="Path_203" data-name="Path 203" class="cls-23" d="M43.88,515.23l1.18,14.59a1.47,1.47,0,0,0,1.47,1.47H53.6a1.47,1.47,0,0,0,1.47-1.47h0l1.17-14.59ZM47,528.53l-.34-11.69h.93l.35,11.69Zm3.52,0h-.9V516.84h.9Zm2.63,0h-.93l.34-11.69h.92Zm2.34-15.1h-1.8l-1.32-1.15a1,1,0,0,0-.67-.25H48.42a1,1,0,0,0-.67.25l-1.32,1.14H44.62c-.88,0-1.5.42-1.5,1.3H57c0-.87-.63-1.3-1.51-1.3Z"/></g><g id="ic_file_download_48px" data-name="ic file download 48px"><path id="Path_202" data-name="Path 202" class="cls-23" d="M56,482.44H52.09V476.5H46.15v5.94H42.2l6.92,6.92Zm-13.84,8.9v2H56v-2Z"/></g><g id="ios-paper"><path id="Path_250" data-name="Path 250" class="cls-23" d="M44.68,253.42v12.5a.54.54,0,1,1-1.08.05v-11.3H43a1.23,1.23,0,0,0-1.25,1.23h0v11.18A1.25,1.25,0,0,0,43,268.34H56.69a1.2,1.2,0,0,0,1.2-1.2V253.42a1.24,1.24,0,0,0-1.24-1.24h0l-10.8.08a1.12,1.12,0,0,0-1.17,1.06Zm2.57,1.25h3.26a.54.54,0,0,1,0,1.08H47.25a.54.54,0,0,1,0-1.08Zm0,6.21H53a.55.55,0,0,1,.57.52A.55.55,0,0,1,53,262H47.25a.55.55,0,0,1,0-1.09Zm7.61,4.19H47.25a.54.54,0,0,1,0-1.08h7.61a.55.55,0,0,1,.57.52.54.54,0,0,1-.52.56Zm0-6.21H47.25a.54.54,0,0,1-.52-.57.55.55,0,0,1,.52-.52h7.61a.55.55,0,0,1,.57.52.55.55,0,0,1-.52.57Z"/></g><g id="ic_move_to_inbox_48px" data-name="ic move to inbox 48px"><path id="Path_251" data-name="Path 251" class="cls-23" d="M56.09,286.8H43.52a1.78,1.78,0,0,0-1.78,1.78h0v12.57a1.79,1.79,0,0,0,1.78,1.8H56.09a1.8,1.8,0,0,0,1.8-1.8V288.59A1.79,1.79,0,0,0,56.09,286.8Zm0,10.77H52.5a2.69,2.69,0,1,1-5.38,0h-3.6v-9H56.09Zm-2.69-4.49H51.61v-2.69H48v2.69h-1.8l3.59,3.59.65-.65Z"/></g><g id="md-star"><path id="Path_252" data-name="Path 252" class="cls-23" d="M49.81,333.76l5,3-1.32-5.68,4.41-3.82-5.81-.5-2.27-5.35-2.27,5.35-5.81.5,4.41,3.82-1.32,5.68Z"/></g><g id="pencil"><path id="Path_253" data-name="Path 253" class="cls-23" d="M57.23,357.78l-1.6-1.61a2.26,2.26,0,0,0-3.07,0l-9.93,9.93c-.07.08-.07.15-.15.22v.15l-.73,4.38c-.07.22.08.44.22.66a.46.46,0,0,0,.44.22h.15l4.38-.73h.15c.07,0,.14-.08.22-.15l9.93-10a2.13,2.13,0,0,0,.07-3Zm-3.87,4.89L50.73,360l1.68-1.67L55,361Z"/></g><g id="md-locate"><path id="Icon" class="cls-23" d="M49.81,395.38a2.89,2.89,0,1,0,2.89,2.89h0A2.91,2.91,0,0,0,49.81,395.38Zm6.89,2.12a7,7,0,0,0-6.12-6.12v-1.19H49v1.19a6.94,6.94,0,0,0-6.11,6.12h-1.2V399h1.2A6.93,6.93,0,0,0,49,405.15v1.19h1.54v-1.19A7,7,0,0,0,56.7,399h1.19V397.5Zm-6.89,6.15a5.39,5.39,0,1,1,5.39-5.38h0a5.4,5.4,0,0,1-5.39,5.38Z"/></g><g id="activity"><path id="Path_254" data-name="Path 254" class="cls-24" d="M57.89,432.08H54.66l-2.43,7.27-4.84-14.54L45,432.08H41.73"/></g><g id="Share" class="cls-25"><g class="cls-25"><path class="cls-26" d="M79.36,228.16l1-.43a2.72,2.72,0,0,0,2.73,1.92c1.36,0,2.25-.57,2.25-1.58s-.52-1.42-2.42-2-3.19-1.15-3.19-2.82c0-1.47,1.26-2.55,3.09-2.55a3.39,3.39,0,0,1,3.39,2.16l-.91.51a2.5,2.5,0,0,0-2.49-1.63c-1.22,0-2,.6-2,1.42,0,1,.65,1.37,2.53,2s3.08,1.25,3.08,2.89S85,230.67,83,230.67A3.63,3.63,0,0,1,79.36,228.16Z"/><path class="cls-26" d="M88.19,230.49v-9.62h1.13v3.78a3.68,3.68,0,0,1,2.57-1.17,1.84,1.84,0,0,1,2,2.05v5H92.8v-4.71c0-.91-.39-1.34-1.26-1.34a3.24,3.24,0,0,0-2.22,1.11v4.94Z"/><path class="cls-26" d="M95.42,228.86c0-1.39,1.18-2.38,4.59-2.86v-.31a1.15,1.15,0,0,0-1.3-1.28,3.72,3.72,0,0,0-2.49,1l-.58-.7a4.55,4.55,0,0,1,3.18-1.27,2,2,0,0,1,2.29,2.29v3a4.55,4.55,0,0,0,.2,1.69h-1.15a3,3,0,0,1-.15-1,3.75,3.75,0,0,1-2.66,1.05C96.17,230.59,95.42,230,95.42,228.86Zm4.59-.16v-1.92c-2.62.42-3.49,1.05-3.49,1.91,0,.66.44,1,1.16,1A3.26,3.26,0,0,0,100,228.7Z"/><path class="cls-26" d="M103,230.49v-6.87h1.12v1.28h0a2.92,2.92,0,0,1,2.65-1.42H107l-.08,1h-.32a2.64,2.64,0,0,0-2.42,1.54v4.44Z"/><path class="cls-26" d="M107.47,227.05c0-2.49,1.66-3.57,3.1-3.57,1.63,0,2.87,1.14,2.87,3.63v.23h-4.85c0,1.55.93,2.38,2.06,2.38a2.31,2.31,0,0,0,2.07-1.12l.65.57a3.21,3.21,0,0,1-2.8,1.46C109,230.63,107.47,229.45,107.47,227.05Zm4.9-.58c-.09-1.22-.68-2.06-1.81-2.06-.92,0-1.79.64-2,2.06Z"/></g></g><g id="Manage_Smart_Contract" data-name="Manage Smart Contract" class="cls-25"><g class="cls-25"><path class="cls-26" d="M79.84,263.72V254.1h1.5l3,8.18h0l3-8.18h1.52v9.62H87.76v-7.79h0c-.13.51-.36,1.13-.58,1.77l-2.3,6h-1l-2.3-6c-.23-.64-.39-1-.6-1.81h0v7.83Z"/><path class="cls-26" d="M90.65,262.09c0-1.39,1.18-2.37,4.58-2.86v-.31a1.13,1.13,0,0,0-1.29-1.27,3.68,3.68,0,0,0-2.49,1l-.58-.7a4.55,4.55,0,0,1,3.18-1.28A2,2,0,0,1,96.34,259v3a4.55,4.55,0,0,0,.2,1.69H95.39a2.94,2.94,0,0,1-.16-1,3.71,3.71,0,0,1-2.65,1.05C91.4,263.82,90.65,263.2,90.65,262.09Zm4.58-.15V260c-2.61.42-3.48,1.06-3.48,1.92,0,.66.44,1,1.16,1A3.26,3.26,0,0,0,95.23,261.94Z"/><path class="cls-26" d="M98.25,263.72v-6.87h1.13v1a3.73,3.73,0,0,1,2.58-1.17,1.85,1.85,0,0,1,2,2.06v5h-1.11V259c0-.91-.39-1.34-1.26-1.34a3.28,3.28,0,0,0-2.23,1.11v4.94Z"/><path class="cls-26" d="M105.48,262.09c0-1.39,1.18-2.37,4.59-2.86v-.31a1.14,1.14,0,0,0-1.3-1.27,3.68,3.68,0,0,0-2.49,1l-.58-.7a4.55,4.55,0,0,1,3.18-1.28,2,2,0,0,1,2.29,2.29v3a4.55,4.55,0,0,0,.2,1.69h-1.15a3,3,0,0,1-.15-1,3.74,3.74,0,0,1-2.65,1.05C106.23,263.82,105.48,263.2,105.48,262.09Zm4.59-.15V260c-2.62.42-3.49,1.06-3.49,1.92,0,.66.45,1,1.16,1A3.3,3.3,0,0,0,110.07,261.94Z"/><path class="cls-26" d="M112.32,264.65a1.68,1.68,0,0,1,1.24-1.52.89.89,0,0,1-.58-.87,1.4,1.4,0,0,1,.86-1.1,2.27,2.27,0,0,1-1.06-2,2.55,2.55,0,0,1,2.8-2.47,3,3,0,0,1,2,.72,3.46,3.46,0,0,1,1.62-.64v1A3.44,3.44,0,0,0,118,258a2,2,0,0,1,.35,1.18,2.51,2.51,0,0,1-2.77,2.45,3.83,3.83,0,0,1-1.09-.17c-.29.13-.48.3-.48.53s.22.42.95.48l1.4.12c1.74.12,2.63.67,2.63,1.78,0,1.3-1.37,2-3.36,2C113.32,266.36,112.32,265.7,112.32,264.65Zm5.64-.18c0-.61-.46-.88-1.9-1l-1.3-.09-.39,0c-.66.24-1,.67-1,1.14,0,.69.71,1,2.41,1C117.14,265.51,118,265.1,118,264.47Zm-.65-5.26a1.55,1.55,0,0,0-1.73-1.63,1.62,1.62,0,1,0,0,3.23A1.54,1.54,0,0,0,117.31,259.21Z"/><path class="cls-26" d="M119.91,260.29c0-2.5,1.66-3.58,3.11-3.58,1.62,0,2.86,1.15,2.86,3.63v.23H121c0,1.55.93,2.38,2.06,2.38a2.31,2.31,0,0,0,2.07-1.12l.65.58a3.19,3.19,0,0,1-2.79,1.45C121.39,263.86,119.91,262.68,119.91,260.29Zm4.9-.59c-.09-1.22-.68-2.05-1.81-2.05-.92,0-1.79.63-2,2.05Z"/><path class="cls-26" d="M130.23,261.39l1-.43a2.73,2.73,0,0,0,2.73,1.93c1.35,0,2.25-.58,2.25-1.59s-.52-1.42-2.42-2-3.19-1.16-3.19-2.82c0-1.47,1.26-2.55,3.09-2.55a3.38,3.38,0,0,1,3.39,2.15l-.91.51a2.5,2.5,0,0,0-2.49-1.62c-1.23,0-1.95.6-1.95,1.41,0,1,.65,1.37,2.53,2s3.08,1.25,3.08,2.88-1.39,2.68-3.43,2.68A3.63,3.63,0,0,1,130.23,261.39Z"/><path class="cls-26" d="M139.06,263.72v-6.87h1.12v1a3.47,3.47,0,0,1,2.47-1.18,1.71,1.71,0,0,1,1.88,1.21,3.68,3.68,0,0,1,2.54-1.21,1.81,1.81,0,0,1,2,2.06v5h-1.11V259c0-.91-.3-1.34-1.2-1.34a3.15,3.15,0,0,0-2.12,1.11v4.94H143.5V259c0-.91-.3-1.34-1.19-1.34a3.19,3.19,0,0,0-2.13,1.11v4.94Z"/><path class="cls-26" d="M150.56,262.09c0-1.39,1.19-2.37,4.59-2.86v-.31a1.14,1.14,0,0,0-1.3-1.27,3.63,3.63,0,0,0-2.48,1l-.59-.7a4.58,4.58,0,0,1,3.19-1.28,2,2,0,0,1,2.29,2.29v3a4.83,4.83,0,0,0,.19,1.69h-1.14a2.94,2.94,0,0,1-.16-1,3.72,3.72,0,0,1-2.65,1.05C151.32,263.82,150.56,263.2,150.56,262.09Zm4.59-.15V260c-2.61.42-3.48,1.06-3.48,1.92,0,.66.44,1,1.15,1A3.3,3.3,0,0,0,155.15,261.94Z"/><path class="cls-26" d="M158.17,263.72v-6.87h1.12v1.28h0a3,3,0,0,1,2.65-1.42h.15l-.08,1h-.33a2.61,2.61,0,0,0-2.41,1.55v4.43Z"/><path class="cls-26" d="M163.86,262.06v-4.28h-1.19v-.93h1.19v-2.44H165v2.44h1.78v.93H165v4c0,.73.23,1.09,1.06,1.09a3,3,0,0,0,.71-.09v.92a6.12,6.12,0,0,1-1,.08C164.33,263.81,163.86,263.25,163.86,262.06Z"/><path class="cls-26" d="M171,258.87c0-3,1.67-5,4.08-5a3.44,3.44,0,0,1,3.56,3l-1.09.3c-.42-1.46-1.08-2.2-2.48-2.2-1.8,0-2.92,1.51-2.92,3.89,0,2.54,1.15,4,2.94,4,1.37,0,2.21-.77,2.62-2.33l1.07.25a3.64,3.64,0,0,1-3.7,3.12C172.67,263.9,171,262,171,258.87Z"/><path class="cls-26" d="M180,260.29c0-2.37,1.5-3.58,3.19-3.58s3.19,1.21,3.19,3.58-1.51,3.57-3.19,3.57S180,262.64,180,260.29Zm5.25,0c0-1.43-.69-2.62-2.06-2.62s-2.06,1.07-2.06,2.62.67,2.62,2.06,2.62S185.21,261.86,185.21,260.29Z"/><path class="cls-26" d="M187.92,263.72v-6.87h1.13v1a3.73,3.73,0,0,1,2.58-1.17,1.86,1.86,0,0,1,2,2.06v5h-1.12V259c0-.91-.39-1.34-1.26-1.34a3.28,3.28,0,0,0-2.23,1.11v4.94Z"/><path class="cls-26" d="M196.06,262.06v-4.28h-1.19v-.93h1.19v-2.44h1.12v2.44H199v.93h-1.78v4c0,.73.23,1.09,1.07,1.09a2.9,2.9,0,0,0,.7-.09v.92a6.12,6.12,0,0,1-1,.08C196.53,263.81,196.06,263.25,196.06,262.06Z"/><path class="cls-26" d="M200.47,263.72v-6.87h1.12v1.28h0a3,3,0,0,1,2.65-1.42h.15l-.08,1H204a2.61,2.61,0,0,0-2.41,1.55v4.43Z"/><path class="cls-26" d="M205,262.09c0-1.39,1.18-2.37,4.58-2.86v-.31a1.14,1.14,0,0,0-1.3-1.27,3.65,3.65,0,0,0-2.48,1l-.58-.7a4.55,4.55,0,0,1,3.18-1.28A2,2,0,0,1,210.7,259v3a4.55,4.55,0,0,0,.2,1.69h-1.15a2.94,2.94,0,0,1-.16-1,3.71,3.71,0,0,1-2.65,1.05C205.76,263.82,205,263.2,205,262.09Zm4.58-.15V260c-2.61.42-3.48,1.06-3.48,1.92,0,.66.44,1,1.16,1A3.26,3.26,0,0,0,209.59,261.94Z"/><path class="cls-26" d="M212.22,260.29c0-2.51,1.61-3.58,3.15-3.58a2.73,2.73,0,0,1,2.69,1.93l-.95.39a1.79,1.79,0,0,0-1.77-1.37c-1,0-2,.69-2,2.63,0,1.69.81,2.64,2,2.64a1.86,1.86,0,0,0,1.85-1.38l.92.36a2.89,2.89,0,0,1-2.8,1.95C213.69,263.86,212.22,262.64,212.22,260.29Z"/><path class="cls-26" d="M220.07,262.06v-4.28h-1.19v-.93h1.19v-2.44h1.12v2.44H223v.93h-1.78v4c0,.73.23,1.09,1.07,1.09a2.9,2.9,0,0,0,.7-.09v.92a6.12,6.12,0,0,1-1,.08C220.54,263.81,220.07,263.25,220.07,262.06Z"/></g></g><g id="Move_To" data-name="Move To" class="cls-25"><g class="cls-25"><path class="cls-26" d="M79.84,301.11v-9.62h1.5l3,8.17h0l3-8.17h1.52v9.62H87.76v-7.79h0c-.13.51-.36,1.13-.58,1.77l-2.3,6h-1l-2.3-6c-.23-.64-.39-1-.6-1.81h0v7.83Z"/><path class="cls-26" d="M90.67,297.67c0-2.36,1.51-3.57,3.2-3.57s3.19,1.21,3.19,3.57-1.51,3.58-3.19,3.58S90.67,300,90.67,297.67Zm5.25,0c0-1.43-.69-2.61-2-2.61s-2.07,1.07-2.07,2.61.68,2.63,2.07,2.63S95.92,299.25,95.92,297.67Z"/><path class="cls-26" d="M100.11,301.13l-2.52-6.89h1.19l1.93,5.57h0l1.9-5.57h1.12l-2.51,6.89Z"/><path class="cls-26" d="M104.3,297.67c0-2.49,1.66-3.57,3.1-3.57,1.63,0,2.86,1.14,2.86,3.63V298h-4.85c0,1.55.94,2.38,2.07,2.38a2.31,2.31,0,0,0,2.07-1.12l.65.57a3.21,3.21,0,0,1-2.8,1.46C105.78,301.25,104.3,300.07,104.3,297.67Zm4.9-.58c-.09-1.22-.68-2.06-1.81-2.06-.92,0-1.79.64-2,2.06Z"/><path class="cls-26" d="M117,301.11v-8.57h-3.06v-1.05h7.27v1.05h-3.07v8.57Z"/><path class="cls-26" d="M120.47,297.67c0-2.36,1.51-3.57,3.2-3.57s3.18,1.21,3.18,3.57-1.51,3.58-3.18,3.58S120.47,300,120.47,297.67Zm5.25,0c0-1.43-.69-2.61-2-2.61s-2.07,1.07-2.07,2.61.67,2.63,2.07,2.63S125.72,299.25,125.72,297.67Z"/></g></g><g id="Add_to_Starred" data-name="Add to Starred" class="cls-25"><g class="cls-25"><path class="cls-26" d="M79.08,333.42l3.4-9.66h1.2l3.4,9.66H85.9l-1-2.76H81.13l-.95,2.76Zm2.4-3.76H84.6l-1.53-4.51h0Z"/><path class="cls-26" d="M87.88,330c0-2.4,1.24-3.59,2.92-3.59a2.91,2.91,0,0,1,2.13,1V323.8h1.12v7.93a4.3,4.3,0,0,0,.21,1.69H93.09a3.28,3.28,0,0,1-.16-1,2.91,2.91,0,0,1-2.26,1.08C89.1,333.52,87.88,332.39,87.88,330Zm5.05,1.54V328.4a2.6,2.6,0,0,0-2-1c-1.2,0-2,.84-2,2.65s.85,2.59,2,2.59A2.67,2.67,0,0,0,92.93,331.54Z"/><path class="cls-26" d="M95.66,330c0-2.4,1.25-3.59,2.93-3.59a2.91,2.91,0,0,1,2.13,1V323.8h1.12v7.93a4.3,4.3,0,0,0,.21,1.69h-1.17a3.28,3.28,0,0,1-.16-1,2.93,2.93,0,0,1-2.26,1.08C96.89,333.52,95.66,332.39,95.66,330Zm5.06,1.54V328.4a2.63,2.63,0,0,0-2-1c-1.19,0-2,.84-2,2.65s.85,2.59,2,2.59A2.69,2.69,0,0,0,100.72,331.54Z"/><path class="cls-26" d="M107.36,331.75v-4.28h-1.19v-.92h1.19v-2.44h1.12v2.44h1.78v.92h-1.78v4c0,.72.24,1.09,1.07,1.09a2.9,2.9,0,0,0,.7-.09v.92a6,6,0,0,1-1,.08C107.83,333.51,107.36,333,107.36,331.75Z"/><path class="cls-26" d="M111.28,330c0-2.36,1.5-3.57,3.2-3.57s3.18,1.21,3.18,3.57-1.51,3.58-3.18,3.58S111.28,332.34,111.28,330Zm5.25,0c0-1.43-.69-2.61-2-2.61s-2.07,1.07-2.07,2.61.67,2.63,2.07,2.63S116.53,331.56,116.53,330Z"/><path class="cls-26" d="M122,331.09l1-.43a2.72,2.72,0,0,0,2.73,1.92c1.36,0,2.25-.57,2.25-1.58s-.52-1.42-2.42-2-3.19-1.15-3.19-2.82c0-1.47,1.26-2.55,3.09-2.55a3.39,3.39,0,0,1,3.39,2.16l-.91.51a2.5,2.5,0,0,0-2.49-1.63c-1.22,0-2,.6-2,1.42,0,1,.65,1.37,2.53,2s3.08,1.25,3.08,2.89-1.39,2.68-3.43,2.68A3.63,3.63,0,0,1,122,331.09Z"/><path class="cls-26" d="M131.32,331.75v-4.28h-1.19v-.92h1.19v-2.44h1.12v2.44h1.78v.92h-1.78v4c0,.72.23,1.09,1.07,1.09a2.9,2.9,0,0,0,.7-.09v.92a6.12,6.12,0,0,1-1,.08C131.79,333.51,131.32,333,131.32,331.75Z"/><path class="cls-26" d="M135.26,331.79c0-1.39,1.18-2.38,4.59-2.86v-.31a1.14,1.14,0,0,0-1.3-1.27,3.63,3.63,0,0,0-2.48,1l-.59-.71a4.62,4.62,0,0,1,3.19-1.27A2,2,0,0,1,141,328.7v3a4.83,4.83,0,0,0,.19,1.69H140a2.94,2.94,0,0,1-.16-.95,3.72,3.72,0,0,1-2.65,1C136,333.52,135.26,332.9,135.26,331.79Zm4.59-.15v-1.93c-2.61.42-3.48,1.05-3.48,1.91,0,.67.44,1,1.15,1A3.3,3.3,0,0,0,139.85,331.64Z"/><path class="cls-26" d="M142.87,333.42v-6.87H144v1.28h0a2.93,2.93,0,0,1,2.65-1.42h.15l-.08,1h-.33A2.64,2.64,0,0,0,144,329v4.44Z"/><path class="cls-26" d="M148.07,333.42v-6.87h1.11v1.28h0a2.93,2.93,0,0,1,2.65-1.42H152l-.08,1h-.33a2.64,2.64,0,0,0-2.42,1.54v4.44Z"/><path class="cls-26" d="M152.51,330c0-2.49,1.67-3.57,3.11-3.57,1.62,0,2.86,1.14,2.86,3.63v.23h-4.85c0,1.55.94,2.38,2.07,2.38a2.3,2.3,0,0,0,2.06-1.12l.65.57a3.18,3.18,0,0,1-2.79,1.46C154,333.56,152.51,332.38,152.51,330Zm4.9-.58c-.09-1.22-.67-2-1.8-2a2,2,0,0,0-2,2Z"/><path class="cls-26" d="M159.7,330c0-2.4,1.25-3.59,2.93-3.59a2.91,2.91,0,0,1,2.13,1V323.8h1.12v7.93a4.55,4.55,0,0,0,.2,1.69h-1.17a3.67,3.67,0,0,1-.15-1,2.94,2.94,0,0,1-2.26,1.08C160.92,333.52,159.7,332.39,159.7,330Zm5.06,1.54V328.4a2.63,2.63,0,0,0-2-1c-1.19,0-2,.84-2,2.65s.84,2.59,2,2.59A2.69,2.69,0,0,0,164.76,331.54Z"/></g></g><g id="Rename" class="cls-25"><g class="cls-25"><path class="cls-26" d="M79.84,367.57V358h3.31c2.18,0,3.41.93,3.41,2.69a2.49,2.49,0,0,1-2.23,2.64l2.36,4.29H85.45l-2.3-4.14H81v4.14ZM81,362.41h2.11c1.51,0,2.35-.41,2.35-1.73S84.6,359,83.07,359H81Z"/><path class="cls-26" d="M87.67,364.14c0-2.5,1.66-3.57,3.11-3.57,1.62,0,2.86,1.14,2.86,3.62v.24H88.79c0,1.54.93,2.38,2.06,2.38a2.34,2.34,0,0,0,2.07-1.12l.65.57a3.2,3.2,0,0,1-2.79,1.46C89.15,367.72,87.67,366.53,87.67,364.14Zm4.9-.58c-.09-1.23-.68-2.06-1.81-2.06-.92,0-1.79.64-2,2.06Z"/><path class="cls-26" d="M95.23,367.57v-6.86h1.14v1a3.64,3.64,0,0,1,2.57-1.17,1.85,1.85,0,0,1,2,2.05v4.95H99.85v-4.7c0-.91-.39-1.34-1.26-1.34a3.26,3.26,0,0,0-2.22,1.1v4.94Z"/><path class="cls-26" d="M102.46,366c0-1.39,1.19-2.38,4.59-2.86v-.31a1.14,1.14,0,0,0-1.3-1.28,3.68,3.68,0,0,0-2.48,1l-.59-.7a4.57,4.57,0,0,1,3.19-1.27,2,2,0,0,1,2.29,2.28v3a4.83,4.83,0,0,0,.19,1.69h-1.14a2.9,2.9,0,0,1-.16-.95,3.69,3.69,0,0,1-2.65,1.06A1.7,1.7,0,0,1,102.46,366Zm4.59-.16v-1.92c-2.61.41-3.48,1.05-3.48,1.91,0,.66.44,1,1.15,1A3.26,3.26,0,0,0,107.05,365.79Z"/><path class="cls-26" d="M110.07,367.57v-6.86h1.12v1a3.47,3.47,0,0,1,2.47-1.18,1.7,1.7,0,0,1,1.88,1.2,3.67,3.67,0,0,1,2.54-1.2,1.8,1.8,0,0,1,2,2.05v4.95H119v-4.7c0-.91-.3-1.34-1.2-1.34a3.17,3.17,0,0,0-2.12,1.1v4.94h-1.12v-4.7c0-.91-.3-1.34-1.19-1.34a3.22,3.22,0,0,0-2.13,1.1v4.94Z"/><path class="cls-26" d="M121.6,364.14c0-2.5,1.66-3.57,3.11-3.57,1.62,0,2.86,1.14,2.86,3.62v.24h-4.85c0,1.54.93,2.38,2.06,2.38a2.34,2.34,0,0,0,2.07-1.12l.65.57a3.2,3.2,0,0,1-2.79,1.46C123.08,367.72,121.6,366.53,121.6,364.14Zm4.9-.58c-.09-1.23-.68-2.06-1.81-2.06-.92,0-1.79.64-2,2.06Z"/></g></g><g id="Locate" class="cls-25"><g class="cls-25"><path class="cls-26" d="M79.84,401.73v-9.62H81v8.58h4.62v1Z"/><path class="cls-26" d="M86.23,398.3c0-2.37,1.5-3.58,3.19-3.58s3.19,1.21,3.19,3.58-1.51,3.57-3.19,3.57S86.23,400.65,86.23,398.3Zm5.25,0c0-1.43-.69-2.62-2.06-2.62s-2.06,1.07-2.06,2.62.67,2.62,2.06,2.62S91.48,399.87,91.48,398.3Z"/><path class="cls-26" d="M93.8,398.3c0-2.51,1.62-3.58,3.15-3.58a2.72,2.72,0,0,1,2.69,1.93l-1,.39a1.78,1.78,0,0,0-1.77-1.37c-1,0-2,.69-2,2.63,0,1.69.8,2.64,2,2.64.87,0,1.4-.38,1.84-1.38l.93.36a2.91,2.91,0,0,1-2.81,1.95C95.27,401.87,93.8,400.65,93.8,398.3Z"/><path class="cls-26" d="M100.62,400.1c0-1.39,1.18-2.38,4.59-2.86v-.31a1.14,1.14,0,0,0-1.3-1.27,3.68,3.68,0,0,0-2.49,1l-.58-.7a4.55,4.55,0,0,1,3.18-1.28,2,2,0,0,1,2.29,2.29v3a4.55,4.55,0,0,0,.2,1.69h-1.15a3,3,0,0,1-.15-1,3.75,3.75,0,0,1-2.66,1.05C101.37,401.83,100.62,401.21,100.62,400.1Zm4.59-.15V398c-2.62.42-3.49,1.06-3.49,1.91,0,.67.44,1,1.16,1A3.3,3.3,0,0,0,105.21,400Z"/><path class="cls-26" d="M108.72,400.06v-4.27h-1.2v-.93h1.2v-2.44h1.11v2.44h1.78v.93h-1.78v4c0,.73.24,1.09,1.07,1.09a2.84,2.84,0,0,0,.7-.09v.92a5.88,5.88,0,0,1-1,.08C109.18,401.82,108.72,401.26,108.72,400.06Z"/><path class="cls-26" d="M112.63,398.3c0-2.5,1.66-3.58,3.11-3.58,1.62,0,2.86,1.15,2.86,3.63v.23h-4.85c0,1.55.93,2.38,2.06,2.38a2.31,2.31,0,0,0,2.07-1.12l.65.58a3.19,3.19,0,0,1-2.79,1.45C114.11,401.87,112.63,400.69,112.63,398.3Zm4.9-.59c-.09-1.22-.68-2-1.81-2-.92,0-1.79.63-2,2Z"/></g></g><g id="View_Activity" data-name="View Activity" class="cls-25"><g class="cls-25"><path class="cls-26" d="M82.46,437.31l-3.38-9.66h1.17L83,435.77h0l2.77-8.12h1.1l-3.38,9.66Z"/><path class="cls-26" d="M88.1,428.94v-1.1h1.17v1.1Zm0,8.33v-6.86h1.12v6.86Z"/><path class="cls-26" d="M90.91,433.84c0-2.5,1.66-3.58,3.1-3.58,1.63,0,2.86,1.15,2.86,3.63v.23H92c0,1.55.94,2.38,2.07,2.38a2.33,2.33,0,0,0,2.07-1.11l.65.57a3.2,3.2,0,0,1-2.8,1.45C92.39,437.41,90.91,436.23,90.91,433.84Zm4.9-.59c-.09-1.22-.68-2.05-1.81-2.05a2,2,0,0,0-2,2.05Z"/><path class="cls-26" d="M99.75,437.27l-2.1-6.86h1.16l.9,3.22c.23.84.39,1.4.59,2.29h0c.23-1,.36-1.46.6-2.3l.87-3.21h1l.9,3.27c.24.82.37,1.34.57,2.24h0c.23-.91.36-1.41.6-2.21l.93-3.3h1.06l-2.1,6.86h-1l-1.45-5.37h0l-1.47,5.37Z"/><path class="cls-26" d="M110.21,437.27l3.41-9.66h1.19l3.41,9.66H117l-1-2.76h-3.83l-.94,2.76Zm2.41-3.76h3.12L114.2,429h0Z"/><path class="cls-26" d="M119,433.84c0-2.51,1.61-3.58,3.15-3.58a2.72,2.72,0,0,1,2.69,1.93l-1,.39a1.79,1.79,0,0,0-1.77-1.37c-1,0-2,.69-2,2.63,0,1.69.81,2.64,2,2.64.87,0,1.4-.38,1.84-1.38l.93.36a2.91,2.91,0,0,1-2.81,2C120.44,437.41,119,436.19,119,433.84Z"/><path class="cls-26" d="M126.82,435.61v-4.28h-1.19v-.92h1.19V428h1.12v2.45h1.78v.92h-1.78v4c0,.73.24,1.09,1.07,1.09a2.84,2.84,0,0,0,.7-.09v.92a5.88,5.88,0,0,1-1,.08C127.29,437.36,126.82,436.8,126.82,435.61Z"/><path class="cls-26" d="M131.28,428.94v-1.1h1.17v1.1Zm0,8.33v-6.86h1.12v6.86Z"/><path class="cls-26" d="M136.28,437.3l-2.53-6.89H135l1.92,5.56h0l1.9-5.56h1.12l-2.51,6.89Z"/><path class="cls-26" d="M141.23,428.94v-1.1h1.17v1.1Zm0,8.33v-6.86h1.12v6.86Z"/><path class="cls-26" d="M144.92,435.61v-4.28h-1.2v-.92h1.2V428H146v2.45h1.78v.92H146v4c0,.73.23,1.09,1.06,1.09a3,3,0,0,0,.71-.09v.92a6.12,6.12,0,0,1-1,.08C145.39,437.36,144.92,436.8,144.92,435.61Z"/><path class="cls-26" d="M148.26,439.74l.26-.9a4.12,4.12,0,0,0,1,.12,1.26,1.26,0,0,0,1.31-1l.26-.67-2.65-6.9h1.18l2,5.55h0l2-5.55h1.13l-2.94,7.64c-.47,1.21-1,1.86-2.34,1.86A4.25,4.25,0,0,1,148.26,439.74Z"/></g></g><g id="Download" class="cls-25"><g class="cls-25"><path class="cls-26" d="M79.84,487.12V477.5h2.54c3.09,0,4.85,1.56,4.85,4.78s-1.8,4.84-4.85,4.84Zm1.15-1h1.53c2.33,0,3.56-1.13,3.56-3.81s-1.25-3.73-3.59-3.73H81Z"/><path class="cls-26" d="M88.42,483.69c0-2.37,1.51-3.58,3.2-3.58s3.19,1.21,3.19,3.58-1.51,3.57-3.19,3.57A3.23,3.23,0,0,1,88.42,483.69Zm5.25,0c0-1.43-.68-2.62-2-2.62s-2.07,1.07-2.07,2.62.68,2.62,2.07,2.62S93.67,485.26,93.67,483.69Z"/><path class="cls-26" d="M97.59,487.12l-2.1-6.86h1.16l.9,3.22c.23.84.39,1.4.6,2.29h0c.24-1,.37-1.46.6-2.3l.87-3.21h1l.89,3.27c.24.82.37,1.34.58,2.24h0c.24-.91.37-1.41.6-2.21l.94-3.3h1l-2.09,6.86h-1l-1.46-5.37h0l-1.47,5.37Z"/><path class="cls-26" d="M106,487.12v-6.86h1.13v1a3.73,3.73,0,0,1,2.58-1.17,1.86,1.86,0,0,1,2,2.06v4.95h-1.12v-4.71c0-.91-.39-1.34-1.26-1.34a3.28,3.28,0,0,0-2.23,1.11v4.94Z"/><path class="cls-26" d="M113.69,487.12V477.5h1.12v9.62Z"/><path class="cls-26" d="M116.48,483.69c0-2.37,1.5-3.58,3.19-3.58s3.19,1.21,3.19,3.58-1.51,3.57-3.19,3.57S116.48,486,116.48,483.69Zm5.25,0c0-1.43-.69-2.62-2.06-2.62s-2.06,1.07-2.06,2.62.67,2.62,2.06,2.62S121.73,485.26,121.73,483.69Z"/><path class="cls-26" d="M123.9,485.49c0-1.39,1.18-2.37,4.59-2.86v-.31a1.14,1.14,0,0,0-1.3-1.27,3.63,3.63,0,0,0-2.48,1l-.59-.7a4.56,4.56,0,0,1,3.19-1.28,2,2,0,0,1,2.28,2.29v3a4.78,4.78,0,0,0,.2,1.69h-1.14a2.7,2.7,0,0,1-.16-.95,3.7,3.7,0,0,1-2.65,1.05C124.65,487.22,123.9,486.6,123.9,485.49Zm4.59-.15v-1.93c-2.61.42-3.49,1.06-3.49,1.92,0,.66.45,1,1.16,1A3.3,3.3,0,0,0,128.49,485.34Z"/><path class="cls-26" d="M131.13,483.7c0-2.39,1.25-3.59,2.92-3.59a2.92,2.92,0,0,1,2.14,1V477.5h1.11v7.93a4.5,4.5,0,0,0,.21,1.69h-1.17a3.26,3.26,0,0,1-.15-1,3,3,0,0,1-2.27,1.08C132.35,487.22,131.13,486.09,131.13,483.7Zm5.06,1.55V482.1a2.66,2.66,0,0,0-2-1c-1.2,0-2,.85-2,2.65s.84,2.59,1.95,2.59A2.73,2.73,0,0,0,136.19,485.25Z"/></g></g><g id="Delete" class="cls-25"><g class="cls-25"><path class="cls-26" d="M79.84,524.51v-9.62h2.54c3.09,0,4.85,1.56,4.85,4.78s-1.8,4.84-4.85,4.84Zm1.15-1h1.53c2.33,0,3.56-1.13,3.56-3.81s-1.25-3.73-3.59-3.73H81Z"/><path class="cls-26" d="M88.42,521.07c0-2.49,1.67-3.57,3.11-3.57,1.62,0,2.86,1.14,2.86,3.63v.23H89.54c0,1.55.94,2.38,2.07,2.38a2.3,2.3,0,0,0,2.06-1.12l.65.57a3.18,3.18,0,0,1-2.79,1.46C89.9,524.65,88.42,523.47,88.42,521.07Zm4.9-.58c-.09-1.22-.67-2.06-1.8-2.06a2,2,0,0,0-2,2.06Z"/><path class="cls-26" d="M96.07,524.51v-9.62h1.11v9.62Z"/><path class="cls-26" d="M98.85,521.07c0-2.49,1.66-3.57,3.11-3.57,1.62,0,2.86,1.14,2.86,3.63v.23H100c0,1.55.93,2.38,2.06,2.38a2.31,2.31,0,0,0,2.07-1.12l.65.57a3.2,3.2,0,0,1-2.79,1.46C100.33,524.65,98.85,523.47,98.85,521.07Zm4.9-.58c-.09-1.22-.68-2.06-1.81-2.06-.92,0-1.79.64-2,2.06Z"/><path class="cls-26" d="M106.91,522.84v-4.28h-1.2v-.92h1.2V515.2H108v2.44h1.78v.92H108v4c0,.72.23,1.09,1.06,1.09a2.84,2.84,0,0,0,.7-.09v.92a5.88,5.88,0,0,1-1,.08C107.38,524.6,106.91,524,106.91,522.84Z"/><path class="cls-26" d="M110.82,521.07c0-2.49,1.67-3.57,3.11-3.57,1.62,0,2.86,1.14,2.86,3.63v.23h-4.85c0,1.55.94,2.38,2.07,2.38a2.31,2.31,0,0,0,2.06-1.12l.65.57a3.18,3.18,0,0,1-2.79,1.46C112.3,524.65,110.82,523.47,110.82,521.07Zm4.9-.58c-.09-1.22-.67-2.06-1.8-2.06a2,2,0,0,0-2,2.06Z"/></g></g></g><g id="Group_122" data-name="Group 122"><g id="Rectangle_111-2" data-name="Rectangle 111-2"><rect class="cls-13" x="186.71" y="40.4" width="287.1" height="348.49" rx="10"/><rect class="cls-1" x="187.21" y="40.9" width="286.1" height="347.49" rx="9.5"/></g><g id="ios-share-alt-2"><path id="Path_201-2" data-name="Path 201-2" class="cls-27" d="M230.42,64.52,224.48,59a.35.35,0,0,0-.24-.1c-.18,0-.42.14-.42.34V62a.18.18,0,0,1-.15.18c-5.9.9-8.38,5.32-9.26,9.9,0,.18.21.35.32.21a10.71,10.71,0,0,1,8.92-4.52.2.2,0,0,1,.17.2v2.73a.37.37,0,0,0,.4.33.38.38,0,0,0,.21-.1l6-5.65a.47.47,0,0,0,.15-.35A.63.63,0,0,0,230.42,64.52Z"/></g><g id="ios-trash-2"><path id="Path_203-2" data-name="Path 203-2" class="cls-27" d="M216.55,354.23l1.18,14.59a1.47,1.47,0,0,0,1.47,1.47h7.08a1.47,1.47,0,0,0,1.47-1.47h0l1.17-14.59Zm3.09,13.3-.33-11.69h.92l.35,11.69Zm3.53,0h-.9V355.84h.9Zm2.62,0h-.93l.34-11.69h.93Zm2.35-15.1h-1.81L225,351.28a1,1,0,0,0-.66-.25h-3.26a1,1,0,0,0-.67.25l-1.32,1.14h-1.8c-.89,0-1.51.42-1.51,1.3h13.85c0-.87-.62-1.3-1.51-1.3Z"/></g><g id="ic_file_download_48px-2" data-name="ic file download 48px-2"><path id="Path_202-2" data-name="Path 202-2" class="cls-27" d="M228.72,321.44h-4V315.5h-5.94v5.94h-3.95l6.92,6.92Zm-13.85,8.9v2h13.85v-2Z"/></g><g id="ios-paper-2"><path id="Path_250-2" data-name="Path 250-2" class="cls-27" d="M217.36,92.42v12.5a.55.55,0,0,1-1.09,0V93.67h-.62a1.23,1.23,0,0,0-1.24,1.23h0v11.18a1.25,1.25,0,0,0,1.24,1.25h13.71a1.2,1.2,0,0,0,1.2-1.2V92.42a1.24,1.24,0,0,0-1.24-1.24h0l-10.8.08a1.11,1.11,0,0,0-1.16,1.06Zm2.56,1.25h3.26a.54.54,0,0,1,0,1.08h-3.26a.54.54,0,0,1,0-1.08Zm0,6.21h5.75a.55.55,0,1,1,.05,1.09h-5.8a.55.55,0,0,1-.52-.57A.54.54,0,0,1,219.92,99.88Zm7.61,4.19h-7.61a.54.54,0,0,1,0-1.08h7.61a.54.54,0,1,1,.05,1.08Zm0-6.21h-7.61a.55.55,0,0,1,0-1.09h7.61a.55.55,0,0,1,.05,1.09Z"/></g><g id="ic_move_to_inbox_48px-2" data-name="ic move to inbox 48px-2"><path id="Path_251-2" data-name="Path 251-2" class="cls-23" d="M228.77,125.8H216.19a1.78,1.78,0,0,0-1.77,1.78h0v12.57a1.78,1.78,0,0,0,1.77,1.8h12.59a1.81,1.81,0,0,0,1.8-1.8V127.59A1.8,1.8,0,0,0,228.77,125.8Zm0,10.77h-3.59a2.7,2.7,0,0,1-5.39,0h-3.6v-9h12.58Zm-2.69-4.49h-1.8v-2.69h-3.59v2.69h-1.8l3.59,3.59.65-.65Z"/></g><g id="md-star-2"><path id="Path_252-2" data-name="Path 252-2" class="cls-23" d="M222.48,172.76l5,3-1.32-5.68,4.4-3.82-5.81-.5-2.27-5.35-2.26,5.35-5.81.5,4.4,3.82-1.32,5.68Z"/></g><g id="pencil-2"><path id="Path_253-2" data-name="Path 253-2" class="cls-27" d="M229.9,196.78l-1.6-1.61a2.26,2.26,0,0,0-3.07,0l-9.93,9.93c-.07.08-.07.15-.14.22v.15l-.73,4.38c-.08.22.07.44.21.66a.46.46,0,0,0,.44.22h.15l4.38-.73h.15c.07,0,.15-.08.22-.15l9.93-10a2.12,2.12,0,0,0,.07-3A.6.6,0,0,0,229.9,196.78ZM226,201.67,223.41,199l1.67-1.67,2.63,2.63Z"/></g><g id="md-locate-2"><path id="Icon-2" class="cls-23" d="M222.48,234.38a2.89,2.89,0,1,0,2.89,2.89h0A2.9,2.9,0,0,0,222.48,234.38Zm6.89,2.12a7,7,0,0,0-6.12-6.12v-1.19h-1.53v1.19a7,7,0,0,0-6.12,6.12h-1.19V238h1.19a6.94,6.94,0,0,0,6.12,6.11v1.19h1.53v-1.19a6.94,6.94,0,0,0,6.12-6.11h1.19V236.5Zm-6.89,6.15a5.39,5.39,0,1,1,5.39-5.38h0a5.4,5.4,0,0,1-5.39,5.38Z"/></g><g id="activity-2"><path id="Path_254-2" data-name="Path 254-2" class="cls-1" d="M230.56,271.08h-3.23l-2.42,7.27-4.85-14.54-2.42,7.27h-3.23"/></g><g id="Share-2" class="cls-25"><g class="cls-25"><path class="cls-27" d="M252,67.16l1-.43a2.72,2.72,0,0,0,2.73,1.92c1.35,0,2.25-.57,2.25-1.58s-.52-1.42-2.42-2-3.2-1.15-3.2-2.82c0-1.47,1.26-2.55,3.09-2.55a3.4,3.4,0,0,1,3.4,2.16l-.91.51a2.5,2.5,0,0,0-2.5-1.63c-1.22,0-1.95.6-1.95,1.42,0,1,.65,1.37,2.54,2s3.08,1.25,3.08,2.89-1.39,2.68-3.43,2.68A3.61,3.61,0,0,1,252,67.16Z"/><path class="cls-27" d="M260.86,69.49V59.87H262v3.78a3.69,3.69,0,0,1,2.58-1.17,1.85,1.85,0,0,1,2,2.05v5h-1.12V64.78c0-.91-.39-1.34-1.26-1.34A3.28,3.28,0,0,0,262,64.55v4.94Z"/><path class="cls-27" d="M268.09,67.86c0-1.39,1.18-2.38,4.59-2.86v-.31a1.15,1.15,0,0,0-1.3-1.28,3.68,3.68,0,0,0-2.48,1l-.59-.7a4.56,4.56,0,0,1,3.19-1.27,2,2,0,0,1,2.28,2.29v3a4.78,4.78,0,0,0,.2,1.69h-1.14a2.7,2.7,0,0,1-.16-.95,3.74,3.74,0,0,1-2.65,1C268.84,69.59,268.09,69,268.09,67.86Zm4.59-.16V65.78c-2.61.42-3.48,1-3.48,1.91,0,.66.44,1,1.15,1A3.26,3.26,0,0,0,272.68,67.7Z"/><path class="cls-27" d="M275.7,69.49V62.62h1.11V63.9h0a2.93,2.93,0,0,1,2.65-1.42h.14l-.07,1h-.33a2.64,2.64,0,0,0-2.42,1.54v4.44Z"/><path class="cls-27" d="M280.14,66.05c0-2.49,1.67-3.57,3.11-3.57,1.62,0,2.86,1.14,2.86,3.63v.23h-4.85c0,1.55.94,2.38,2.07,2.38a2.31,2.31,0,0,0,2.06-1.12l.65.57a3.18,3.18,0,0,1-2.79,1.46C281.62,69.63,280.14,68.45,280.14,66.05Zm4.9-.58c-.09-1.22-.67-2.06-1.8-2.06a2,2,0,0,0-1.95,2.06Z"/></g></g><g id="Manage_Smart_Contract-2" data-name="Manage Smart Contract-2" class="cls-25"><g class="cls-25"><path class="cls-27" d="M252.52,102.72V93.1H254l3,8.18h0l3-8.18h1.52v9.62h-1.13V94.93h0c-.13.51-.37,1.13-.59,1.77l-2.3,6h-1l-2.3-6a17.53,17.53,0,0,1-.59-1.81h0v7.83Z"/><path class="cls-27" d="M263.32,101.09c0-1.39,1.18-2.37,4.59-2.86v-.31a1.14,1.14,0,0,0-1.3-1.27,3.63,3.63,0,0,0-2.48,1l-.59-.7a4.56,4.56,0,0,1,3.19-1.28A2,2,0,0,1,269,98v3a4.78,4.78,0,0,0,.2,1.69h-1.15a3,3,0,0,1-.15-1,3.74,3.74,0,0,1-2.65,1C264.07,102.82,263.32,102.2,263.32,101.09Zm4.59-.15V99c-2.61.42-3.49,1.06-3.49,1.92,0,.66.45,1,1.16,1A3.3,3.3,0,0,0,267.91,100.94Z"/><path class="cls-27" d="M270.92,102.72V95.85h1.14v1a3.68,3.68,0,0,1,2.57-1.17,1.86,1.86,0,0,1,2,2.06v5h-1.12V98c0-.91-.39-1.34-1.26-1.34a3.24,3.24,0,0,0-2.22,1.11v4.94Z"/><path class="cls-27" d="M278.15,101.09c0-1.39,1.18-2.37,4.59-2.86v-.31a1.14,1.14,0,0,0-1.3-1.27,3.63,3.63,0,0,0-2.48,1l-.59-.7a4.58,4.58,0,0,1,3.19-1.28A2,2,0,0,1,283.85,98v3a4.83,4.83,0,0,0,.19,1.69H282.9a2.94,2.94,0,0,1-.16-1,3.72,3.72,0,0,1-2.65,1C278.91,102.82,278.15,102.2,278.15,101.09Zm4.59-.15V99c-2.61.42-3.48,1.06-3.48,1.92,0,.66.44,1,1.15,1A3.3,3.3,0,0,0,282.74,100.94Z"/><path class="cls-27" d="M285,103.65a1.67,1.67,0,0,1,1.25-1.52.9.9,0,0,1-.59-.87,1.42,1.42,0,0,1,.86-1.1,2.28,2.28,0,0,1-1.05-2,2.54,2.54,0,0,1,2.79-2.47,3,3,0,0,1,2,.72,3.54,3.54,0,0,1,1.63-.64v1a3.46,3.46,0,0,0-1.24.22,2,2,0,0,1,.35,1.18,2.51,2.51,0,0,1-2.77,2.45,3.83,3.83,0,0,1-1.09-.17c-.28.13-.48.3-.48.53s.22.42.95.48l1.4.12c1.75.12,2.63.67,2.63,1.78,0,1.3-1.37,2-3.35,2C286,105.36,285,104.7,285,103.65Zm5.64-.18c0-.61-.45-.88-1.9-1l-1.3-.09-.39,0c-.66.24-1,.67-1,1.14,0,.69.72,1,2.42,1C289.81,104.51,290.63,104.1,290.63,103.47ZM290,98.21a1.54,1.54,0,0,0-1.73-1.63,1.62,1.62,0,1,0,0,3.23A1.54,1.54,0,0,0,290,98.21Z"/><path class="cls-27" d="M292.58,99.29c0-2.5,1.67-3.58,3.11-3.58,1.62,0,2.86,1.15,2.86,3.63v.23H293.7c0,1.55.94,2.38,2.07,2.38a2.3,2.3,0,0,0,2.06-1.12l.65.58a3.17,3.17,0,0,1-2.79,1.45C294.06,102.86,292.58,101.68,292.58,99.29Zm4.9-.59c-.09-1.22-.67-2-1.8-2a2,2,0,0,0-1.95,2Z"/><path class="cls-27" d="M302.9,100.39l1-.43a2.73,2.73,0,0,0,2.73,1.93c1.35,0,2.25-.58,2.25-1.59s-.52-1.42-2.42-2-3.2-1.16-3.2-2.82c0-1.47,1.26-2.55,3.09-2.55a3.39,3.39,0,0,1,3.4,2.15l-.91.51a2.51,2.51,0,0,0-2.5-1.62c-1.22,0-1.95.6-1.95,1.41,0,1,.65,1.37,2.54,2s3.08,1.25,3.08,2.88-1.39,2.68-3.44,2.68A3.63,3.63,0,0,1,302.9,100.39Z"/><path class="cls-27" d="M311.73,102.72V95.85h1.12v1a3.47,3.47,0,0,1,2.47-1.18,1.7,1.7,0,0,1,1.88,1.21,3.7,3.7,0,0,1,2.54-1.21,1.81,1.81,0,0,1,2,2.06v5h-1.12V98c0-.91-.3-1.34-1.2-1.34a3.13,3.13,0,0,0-2.11,1.11v4.94h-1.12V98c0-.91-.3-1.34-1.2-1.34a3.23,3.23,0,0,0-2.13,1.11v4.94Z"/><path class="cls-27" d="M323.24,101.09c0-1.39,1.18-2.37,4.59-2.86v-.31a1.14,1.14,0,0,0-1.3-1.27,3.68,3.68,0,0,0-2.49,1l-.58-.7a4.55,4.55,0,0,1,3.18-1.28A2,2,0,0,1,328.93,98v3a4.55,4.55,0,0,0,.2,1.69H328a3,3,0,0,1-.15-1,3.75,3.75,0,0,1-2.66,1C324,102.82,323.24,102.2,323.24,101.09Zm4.59-.15V99c-2.62.42-3.49,1.06-3.49,1.92,0,.66.44,1,1.16,1A3.3,3.3,0,0,0,327.83,100.94Z"/><path class="cls-27" d="M330.84,102.72V95.85H332v1.28h0a3,3,0,0,1,2.66-1.42h.14l-.08,1h-.32A2.63,2.63,0,0,0,332,98.29v4.43Z"/><path class="cls-27" d="M336.53,101.06V96.78h-1.19v-.93h1.19V93.41h1.12v2.44h1.78v.93h-1.78v4c0,.73.24,1.09,1.07,1.09a2.84,2.84,0,0,0,.7-.09v.92a5.88,5.88,0,0,1-1,.08C337,102.81,336.53,102.25,336.53,101.06Z"/><path class="cls-27" d="M343.71,97.87c0-3,1.68-5,4.08-5a3.45,3.45,0,0,1,3.57,3l-1.1.3c-.41-1.46-1.08-2.2-2.48-2.2-1.79,0-2.91,1.51-2.91,3.89,0,2.54,1.14,4,2.94,4,1.36,0,2.21-.77,2.61-2.33l1.08.25a3.65,3.65,0,0,1-3.71,3.12C345.35,102.9,343.71,101,343.71,97.87Z"/><path class="cls-27" d="M352.63,99.29c0-2.37,1.51-3.58,3.2-3.58S359,96.92,359,99.29s-1.51,3.57-3.18,3.57A3.23,3.23,0,0,1,352.63,99.29Zm5.25,0c0-1.43-.69-2.62-2.05-2.62s-2.07,1.07-2.07,2.62.68,2.62,2.07,2.62S357.88,100.86,357.88,99.29Z"/><path class="cls-27" d="M360.6,102.72V95.85h1.13v1a3.7,3.7,0,0,1,2.57-1.17,1.85,1.85,0,0,1,2,2.06v5h-1.12V98c0-.91-.39-1.34-1.26-1.34a3.24,3.24,0,0,0-2.22,1.11v4.94Z"/><path class="cls-27" d="M368.74,101.06V96.78h-1.2v-.93h1.2V93.41h1.11v2.44h1.78v.93h-1.78v4c0,.73.24,1.09,1.07,1.09a2.84,2.84,0,0,0,.7-.09v.92a5.88,5.88,0,0,1-1,.08C369.2,102.81,368.74,102.25,368.74,101.06Z"/><path class="cls-27" d="M373.14,102.72V95.85h1.12v1.28h0a2.94,2.94,0,0,1,2.65-1.42h.14l-.08,1h-.32a2.63,2.63,0,0,0-2.42,1.55v4.43Z"/><path class="cls-27" d="M377.68,101.09c0-1.39,1.18-2.37,4.59-2.86v-.31a1.14,1.14,0,0,0-1.3-1.27,3.63,3.63,0,0,0-2.48,1l-.59-.7a4.56,4.56,0,0,1,3.19-1.28A2,2,0,0,1,383.37,98v3a4.78,4.78,0,0,0,.2,1.69h-1.15a3,3,0,0,1-.15-1,3.74,3.74,0,0,1-2.65,1C378.43,102.82,377.68,102.2,377.68,101.09Zm4.59-.15V99c-2.61.42-3.49,1.06-3.49,1.92,0,.66.45,1,1.16,1A3.3,3.3,0,0,0,382.27,100.94Z"/><path class="cls-27" d="M384.89,99.29c0-2.51,1.62-3.58,3.15-3.58a2.72,2.72,0,0,1,2.69,1.93l-1,.39A1.79,1.79,0,0,0,388,96.66c-1,0-2,.69-2,2.63,0,1.69.8,2.64,2,2.64.87,0,1.4-.38,1.84-1.38l.93.36a2.91,2.91,0,0,1-2.81,2C386.36,102.86,384.89,101.64,384.89,99.29Z"/><path class="cls-27" d="M392.75,101.06V96.78h-1.2v-.93h1.2V93.41h1.11v2.44h1.79v.93h-1.79v4c0,.73.24,1.09,1.07,1.09a2.84,2.84,0,0,0,.7-.09v.92a5.88,5.88,0,0,1-1,.08C393.21,102.81,392.75,102.25,392.75,101.06Z"/></g></g><g id="Move_To-2" data-name="Move To-2" class="cls-25"><g class="cls-25"><path class="cls-26" d="M252.52,140.11v-9.62H254l3,8.17h0l3-8.17h1.52v9.62h-1.13v-7.79h0c-.13.51-.37,1.13-.59,1.77l-2.3,6h-1l-2.3-6a17.53,17.53,0,0,1-.59-1.81h0v7.83Z"/><path class="cls-26" d="M263.35,136.67c0-2.36,1.5-3.57,3.19-3.57s3.19,1.21,3.19,3.57-1.51,3.58-3.19,3.58S263.35,139,263.35,136.67Zm5.25,0c0-1.43-.69-2.61-2.06-2.61s-2.06,1.07-2.06,2.61.67,2.63,2.06,2.63S268.6,138.25,268.6,136.67Z"/><path class="cls-26" d="M272.78,140.13l-2.52-6.89h1.2l1.92,5.57h0l1.9-5.57h1.11l-2.51,6.89Z"/><path class="cls-26" d="M277,136.67c0-2.49,1.66-3.57,3.11-3.57,1.62,0,2.86,1.14,2.86,3.63V137h-4.85c0,1.55.93,2.38,2.06,2.38a2.31,2.31,0,0,0,2.07-1.12l.65.57a3.2,3.2,0,0,1-2.79,1.46C278.45,140.25,277,139.07,277,136.67Zm4.9-.58c-.09-1.22-.68-2.06-1.81-2.06-.92,0-1.79.64-1.95,2.06Z"/><path class="cls-26" d="M289.67,140.11v-8.57h-3.05v-1h7.26v1h-3.07v8.57Z"/><path class="cls-26" d="M293.14,136.67c0-2.36,1.51-3.57,3.2-3.57s3.18,1.21,3.18,3.57-1.5,3.58-3.18,3.58S293.14,139,293.14,136.67Zm5.25,0c0-1.43-.69-2.61-2.05-2.61s-2.07,1.07-2.07,2.61.68,2.63,2.07,2.63S298.39,138.25,298.39,136.67Z"/></g></g><g id="Add_to_Starred-2" data-name="Add to Starred-2" class="cls-25"><g class="cls-25"><path class="cls-26" d="M251.75,172.42l3.41-9.66h1.19l3.41,9.66h-1.19l-.94-2.76H253.8l-1,2.76Zm2.4-3.76h3.12l-1.53-4.51h0Z"/><path class="cls-26" d="M260.55,169c0-2.4,1.25-3.59,2.93-3.59a2.91,2.91,0,0,1,2.13,1V162.8h1.12v7.93a4.55,4.55,0,0,0,.2,1.69h-1.17a3.67,3.67,0,0,1-.15-1,2.94,2.94,0,0,1-2.26,1.08C261.77,172.52,260.55,171.39,260.55,169Zm5.06,1.54V167.4a2.63,2.63,0,0,0-2-1c-1.19,0-2,.84-2,2.65s.84,2.59,1.95,2.59A2.69,2.69,0,0,0,265.61,170.54Z"/><path class="cls-26" d="M268.34,169c0-2.4,1.25-3.59,2.92-3.59a3,3,0,0,1,2.14,1V162.8h1.11v7.93a4.3,4.3,0,0,0,.21,1.69h-1.17a3.31,3.31,0,0,1-.15-1,3,3,0,0,1-2.27,1.08C269.56,172.52,268.34,171.39,268.34,169Zm5.06,1.54V167.4a2.63,2.63,0,0,0-2-1c-1.2,0-2,.84-2,2.65s.84,2.59,2,2.59A2.71,2.71,0,0,0,273.4,170.54Z"/><path class="cls-26" d="M280,170.75v-4.28h-1.2v-.92H280v-2.44h1.12v2.44h1.78v.92h-1.78v4c0,.72.23,1.09,1.06,1.09a2.84,2.84,0,0,0,.7-.09v.92a5.88,5.88,0,0,1-1,.08C280.51,172.51,280,172,280,170.75Z"/><path class="cls-26" d="M284,169c0-2.36,1.51-3.57,3.2-3.57s3.18,1.21,3.18,3.57-1.5,3.58-3.18,3.58S284,171.34,284,169Zm5.25,0c0-1.43-.69-2.61-2.05-2.61s-2.07,1.07-2.07,2.61.68,2.63,2.07,2.63S289.2,170.56,289.2,169Z"/><path class="cls-26" d="M294.68,170.09l1-.43a2.72,2.72,0,0,0,2.73,1.92c1.35,0,2.25-.57,2.25-1.58s-.52-1.42-2.42-2-3.2-1.15-3.2-2.82c0-1.47,1.26-2.55,3.09-2.55a3.4,3.4,0,0,1,3.4,2.16l-.91.51a2.5,2.5,0,0,0-2.5-1.63c-1.22,0-1.95.6-1.95,1.42,0,1,.65,1.37,2.54,2s3.08,1.25,3.08,2.89-1.39,2.68-3.43,2.68A3.61,3.61,0,0,1,294.68,170.09Z"/><path class="cls-26" d="M304,170.75v-4.28h-1.2v-.92H304v-2.44h1.11v2.44h1.79v.92h-1.79v4c0,.72.24,1.09,1.07,1.09a2.84,2.84,0,0,0,.7-.09v.92a5.88,5.88,0,0,1-1,.08C304.46,172.51,304,172,304,170.75Z"/><path class="cls-26" d="M307.94,170.79c0-1.39,1.18-2.38,4.58-2.86v-.31a1.14,1.14,0,0,0-1.3-1.27,3.65,3.65,0,0,0-2.48,1l-.58-.71a4.59,4.59,0,0,1,3.18-1.27,2,2,0,0,1,2.29,2.29v3a4.83,4.83,0,0,0,.19,1.69h-1.14a2.94,2.94,0,0,1-.16-.95,3.71,3.71,0,0,1-2.65,1.05C308.69,172.52,307.94,171.9,307.94,170.79Zm4.58-.15v-1.93c-2.61.42-3.48,1-3.48,1.91,0,.67.44,1,1.16,1A3.26,3.26,0,0,0,312.52,170.64Z"/><path class="cls-26" d="M315.54,172.42v-6.87h1.12v1.28h0a3,3,0,0,1,2.66-1.42h.14l-.08,1h-.32a2.63,2.63,0,0,0-2.42,1.54v4.44Z"/><path class="cls-26" d="M320.74,172.42v-6.87h1.12v1.28h0a3,3,0,0,1,2.66-1.42h.14l-.08,1h-.32a2.63,2.63,0,0,0-2.42,1.54v4.44Z"/><path class="cls-26" d="M325.19,169c0-2.49,1.66-3.57,3.1-3.57,1.63,0,2.86,1.14,2.86,3.63v.23H326.3c0,1.55.94,2.38,2.07,2.38a2.31,2.31,0,0,0,2.07-1.12l.65.57a3.21,3.21,0,0,1-2.8,1.46C326.67,172.56,325.19,171.38,325.19,169Zm4.9-.58c-.09-1.22-.68-2.05-1.81-2.05-.92,0-1.79.63-1.95,2.05Z"/><path class="cls-26" d="M332.37,169c0-2.4,1.25-3.59,2.93-3.59a2.91,2.91,0,0,1,2.13,1V162.8h1.12v7.93a4.3,4.3,0,0,0,.21,1.69h-1.17a3.28,3.28,0,0,1-.16-1,2.91,2.91,0,0,1-2.26,1.08C333.6,172.52,332.37,171.39,332.37,169Zm5.06,1.54V167.4a2.63,2.63,0,0,0-2-1c-1.2,0-2,.84-2,2.65s.85,2.59,1.95,2.59A2.67,2.67,0,0,0,337.43,170.54Z"/></g></g><g id="Rename-2" class="cls-25"><g class="cls-25"><path class="cls-27" d="M252.52,206.57V197h3.3c2.18,0,3.42.93,3.42,2.69a2.49,2.49,0,0,1-2.24,2.64l2.37,4.29h-1.25l-2.3-4.14h-2.17v4.14Zm1.13-5.16h2.1c1.51,0,2.36-.41,2.36-1.73s-.84-1.69-2.37-1.69h-2.09Z"/><path class="cls-27" d="M260.34,203.14c0-2.5,1.67-3.57,3.11-3.57,1.62,0,2.86,1.14,2.86,3.62v.24h-4.85c0,1.54.94,2.38,2.07,2.38a2.32,2.32,0,0,0,2.06-1.12l.65.57a3.18,3.18,0,0,1-2.79,1.46C261.82,206.72,260.34,205.53,260.34,203.14Zm4.9-.58c-.09-1.23-.67-2.06-1.8-2.06a2,2,0,0,0-1.95,2.06Z"/><path class="cls-27" d="M267.91,206.57v-6.86H269v1a3.68,3.68,0,0,1,2.57-1.17,1.84,1.84,0,0,1,2,2.05v4.95h-1.12v-4.7c0-.91-.39-1.34-1.26-1.34a3.26,3.26,0,0,0-2.22,1.1v4.94Z"/><path class="cls-27" d="M275.14,205c0-1.39,1.18-2.38,4.59-2.86v-.31a1.15,1.15,0,0,0-1.3-1.28,3.72,3.72,0,0,0-2.49,1l-.58-.7a4.55,4.55,0,0,1,3.18-1.27,2,2,0,0,1,2.29,2.28v3a4.55,4.55,0,0,0,.2,1.69h-1.15a2.91,2.91,0,0,1-.15-.95,3.72,3.72,0,0,1-2.66,1.06A1.69,1.69,0,0,1,275.14,205Zm4.59-.16v-1.92c-2.62.41-3.49,1-3.49,1.91,0,.66.44,1,1.16,1A3.26,3.26,0,0,0,279.73,204.79Z"/><path class="cls-27" d="M282.74,206.57v-6.86h1.12v1a3.47,3.47,0,0,1,2.47-1.18,1.69,1.69,0,0,1,1.88,1.2,3.69,3.69,0,0,1,2.54-1.2,1.81,1.81,0,0,1,2,2.05v4.95h-1.12v-4.7c0-.91-.3-1.34-1.2-1.34a3.15,3.15,0,0,0-2.11,1.1v4.94h-1.12v-4.7c0-.91-.3-1.34-1.2-1.34a3.26,3.26,0,0,0-2.13,1.1v4.94Z"/><path class="cls-27" d="M294.27,203.14c0-2.5,1.67-3.57,3.11-3.57,1.62,0,2.86,1.14,2.86,3.62v.24h-4.85c0,1.54.94,2.38,2.07,2.38a2.33,2.33,0,0,0,2.06-1.12l.65.57a3.18,3.18,0,0,1-2.79,1.46C295.75,206.72,294.27,205.53,294.27,203.14Zm4.9-.58c-.09-1.23-.67-2.06-1.8-2.06a2,2,0,0,0-1.95,2.06Z"/></g></g><g id="Locate-2" class="cls-25"><g class="cls-25"><path class="cls-26" d="M252.52,240.73v-9.62h1.14v8.58h4.63v1Z"/><path class="cls-26" d="M258.9,237.3c0-2.37,1.51-3.58,3.2-3.58s3.18,1.21,3.18,3.58-1.51,3.57-3.18,3.57A3.23,3.23,0,0,1,258.9,237.3Zm5.25,0c0-1.43-.69-2.62-2-2.62S260,235.75,260,237.3s.68,2.62,2.07,2.62S264.15,238.87,264.15,237.3Z"/><path class="cls-26" d="M266.48,237.3c0-2.51,1.61-3.58,3.14-3.58a2.74,2.74,0,0,1,2.7,1.93l-.95.39a1.79,1.79,0,0,0-1.77-1.37c-1,0-2,.69-2,2.63,0,1.69.81,2.64,2,2.64a1.87,1.87,0,0,0,1.85-1.38l.92.36a2.89,2.89,0,0,1-2.81,2C268,240.87,266.48,239.65,266.48,237.3Z"/><path class="cls-26" d="M273.29,239.1c0-1.39,1.18-2.38,4.59-2.86v-.31a1.14,1.14,0,0,0-1.3-1.27,3.63,3.63,0,0,0-2.48,1l-.59-.7a4.56,4.56,0,0,1,3.19-1.28A2,2,0,0,1,279,236v3a4.78,4.78,0,0,0,.2,1.69H278a2.7,2.7,0,0,1-.16-.95,3.74,3.74,0,0,1-2.65,1.05C274,240.83,273.29,240.21,273.29,239.1Zm4.59-.15V237c-2.61.42-3.48,1.06-3.48,1.91,0,.67.44,1,1.15,1A3.3,3.3,0,0,0,277.88,239Z"/><path class="cls-26" d="M281.39,239.06v-4.27h-1.2v-.93h1.2v-2.44h1.12v2.44h1.78v.93h-1.78v4c0,.73.23,1.09,1.06,1.09a3,3,0,0,0,.71-.09v.92a6.12,6.12,0,0,1-1,.08C281.86,240.82,281.39,240.26,281.39,239.06Z"/><path class="cls-26" d="M285.3,237.3c0-2.5,1.67-3.58,3.11-3.58,1.62,0,2.86,1.15,2.86,3.63v.23h-4.85c0,1.55.94,2.38,2.07,2.38a2.3,2.3,0,0,0,2.06-1.12l.65.58a3.17,3.17,0,0,1-2.79,1.45C286.78,240.87,285.3,239.69,285.3,237.3Zm4.9-.59c-.09-1.22-.67-2.05-1.8-2.05a2,2,0,0,0-1.95,2.05Z"/></g></g><g id="View_Activity-2" data-name="View Activity-2" class="cls-25"><g class="cls-25"><path class="cls-26" d="M255.13,276.31l-3.38-9.66h1.17l2.76,8.12h0l2.77-8.12h1.11l-3.38,9.66Z"/><path class="cls-26" d="M260.77,267.94v-1.1h1.17v1.1Zm0,8.33v-6.86h1.12v6.86Z"/><path class="cls-26" d="M263.58,272.84c0-2.5,1.66-3.58,3.11-3.58,1.62,0,2.86,1.15,2.86,3.63v.23H264.7c0,1.55.93,2.38,2.06,2.38a2.33,2.33,0,0,0,2.07-1.11l.65.57a3.19,3.19,0,0,1-2.79,1.45C265.06,276.41,263.58,275.23,263.58,272.84Zm4.9-.59c-.09-1.22-.68-2.05-1.81-2.05a2,2,0,0,0-1.95,2.05Z"/><path class="cls-26" d="M272.42,276.27l-2.09-6.86h1.15l.9,3.22c.23.84.39,1.4.6,2.29h0c.24-1,.37-1.46.6-2.3l.87-3.21h1l.9,3.27c.23.82.36,1.34.57,2.24h0c.24-.91.37-1.41.6-2.21l.94-3.3h1l-2.09,6.86h-1l-1.46-5.37h0l-1.47,5.37Z"/><path class="cls-26" d="M282.88,276.27l3.41-9.66h1.2l3.4,9.66h-1.18l-.95-2.76h-3.82l-.95,2.76Zm2.41-3.76h3.12L286.88,268h0Z"/><path class="cls-26" d="M291.65,272.84c0-2.51,1.61-3.58,3.14-3.58a2.72,2.72,0,0,1,2.69,1.93l-1,.39a1.78,1.78,0,0,0-1.76-1.37c-1,0-2,.69-2,2.63,0,1.69.8,2.64,2,2.64.87,0,1.4-.38,1.85-1.38l.92.36a2.9,2.9,0,0,1-2.81,2C293.12,276.41,291.65,275.19,291.65,272.84Z"/><path class="cls-26" d="M299.5,274.61v-4.28h-1.2v-.92h1.2V267h1.12v2.45h1.78v.92h-1.78v4c0,.73.23,1.09,1.06,1.09a2.84,2.84,0,0,0,.7-.09v.92a5.88,5.88,0,0,1-1,.08C300,276.36,299.5,275.8,299.5,274.61Z"/><path class="cls-26" d="M304,267.94v-1.1h1.17v1.1Zm0,8.33v-6.86h1.12v6.86Z"/><path class="cls-26" d="M309,276.3l-2.52-6.89h1.19l1.93,5.56h0l1.9-5.56h1.12l-2.51,6.89Z"/><path class="cls-26" d="M313.9,267.94v-1.1h1.17v1.1Zm0,8.33v-6.86h1.12v6.86Z"/><path class="cls-26" d="M317.59,274.61v-4.28H316.4v-.92h1.19V267h1.12v2.45h1.78v.92h-1.78v4c0,.73.24,1.09,1.07,1.09a2.84,2.84,0,0,0,.7-.09v.92a5.88,5.88,0,0,1-1,.08C318.06,276.36,317.59,275.8,317.59,274.61Z"/><path class="cls-26" d="M320.94,278.74l.26-.9a4,4,0,0,0,1,.12,1.26,1.26,0,0,0,1.31-1l.26-.67-2.65-6.9h1.18l2,5.55h0l2-5.55h1.13l-2.94,7.64c-.47,1.21-1,1.86-2.34,1.86A4.12,4.12,0,0,1,320.94,278.74Z"/></g></g><g id="Download-2" class="cls-25"><g class="cls-25"><path class="cls-27" d="M252.52,326.12V316.5h2.53c3.1,0,4.85,1.56,4.85,4.78s-1.79,4.84-4.85,4.84Zm1.14-1h1.53c2.33,0,3.57-1.13,3.57-3.81s-1.25-3.73-3.59-3.73h-1.51Z"/><path class="cls-27" d="M261.1,322.69c0-2.37,1.5-3.58,3.19-3.58s3.19,1.21,3.19,3.58-1.51,3.57-3.19,3.57S261.1,325,261.1,322.69Zm5.25,0c0-1.43-.69-2.62-2.06-2.62s-2.06,1.07-2.06,2.62.67,2.62,2.06,2.62S266.35,324.26,266.35,322.69Z"/><path class="cls-27" d="M270.26,326.12l-2.09-6.86h1.16l.89,3.22c.24.84.39,1.4.6,2.29h0c.23-1,.36-1.46.59-2.3l.88-3.21h1l.9,3.27c.23.82.36,1.34.57,2.24h0c.23-.91.36-1.41.59-2.21l.94-3.3h1.05l-2.09,6.86h-1l-1.46-5.37h0l-1.47,5.37Z"/><path class="cls-27" d="M278.65,326.12v-6.86h1.13v1a3.7,3.7,0,0,1,2.57-1.17,1.86,1.86,0,0,1,2,2.06v4.95h-1.12v-4.71c0-.91-.39-1.34-1.26-1.34a3.24,3.24,0,0,0-2.22,1.11v4.94Z"/><path class="cls-27" d="M286.37,326.12V316.5h1.12v9.62Z"/><path class="cls-27" d="M289.15,322.69c0-2.37,1.51-3.58,3.2-3.58s3.18,1.21,3.18,3.58-1.5,3.57-3.18,3.57A3.23,3.23,0,0,1,289.15,322.69Zm5.25,0c0-1.43-.69-2.62-2-2.62s-2.07,1.07-2.07,2.62.68,2.62,2.07,2.62S294.4,324.26,294.4,322.69Z"/><path class="cls-27" d="M296.57,324.49c0-1.39,1.19-2.37,4.59-2.86v-.31a1.14,1.14,0,0,0-1.3-1.27,3.65,3.65,0,0,0-2.48,1l-.59-.7a4.58,4.58,0,0,1,3.19-1.28,2,2,0,0,1,2.29,2.29v3a4.83,4.83,0,0,0,.19,1.69h-1.14a2.94,2.94,0,0,1-.16-.95,3.67,3.67,0,0,1-2.65,1.05C297.33,326.22,296.57,325.6,296.57,324.49Zm4.59-.15v-1.93c-2.61.42-3.48,1.06-3.48,1.92,0,.66.44,1,1.16,1A3.26,3.26,0,0,0,301.16,324.34Z"/><path class="cls-27" d="M303.8,322.7c0-2.39,1.25-3.59,2.93-3.59a2.88,2.88,0,0,1,2.13,1V316.5H310v7.93a4.55,4.55,0,0,0,.2,1.69H309a3.61,3.61,0,0,1-.15-1,2.94,2.94,0,0,1-2.26,1.08C305,326.22,303.8,325.09,303.8,322.7Zm5.06,1.55V321.1a2.66,2.66,0,0,0-2-1c-1.19,0-2,.85-2,2.65s.84,2.59,1.95,2.59A2.71,2.71,0,0,0,308.86,324.25Z"/></g></g><g id="Delete-2" class="cls-25"><g class="cls-25"><path class="cls-27" d="M252.52,363.51v-9.62h2.53c3.1,0,4.85,1.56,4.85,4.78s-1.79,4.84-4.85,4.84Zm1.14-1h1.53c2.33,0,3.57-1.13,3.57-3.81s-1.25-3.73-3.59-3.73h-1.51Z"/><path class="cls-27" d="M261.1,360.07c0-2.49,1.66-3.57,3.1-3.57,1.63,0,2.86,1.14,2.86,3.63v.23h-4.85c0,1.55.94,2.38,2.07,2.38a2.31,2.31,0,0,0,2.07-1.12l.65.57a3.21,3.21,0,0,1-2.8,1.46C262.58,363.65,261.1,362.47,261.1,360.07Zm4.9-.58c-.09-1.22-.68-2.06-1.81-2.06-.92,0-1.79.64-1.95,2.06Z"/><path class="cls-27" d="M268.74,363.51v-9.62h1.12v9.62Z"/><path class="cls-27" d="M271.52,360.07c0-2.49,1.67-3.57,3.11-3.57,1.62,0,2.86,1.14,2.86,3.63v.23h-4.85c0,1.55.94,2.38,2.07,2.38a2.3,2.3,0,0,0,2.06-1.12l.65.57a3.18,3.18,0,0,1-2.79,1.46C273,363.65,271.52,362.47,271.52,360.07Zm4.9-.58c-.09-1.22-.67-2.06-1.8-2.06a2,2,0,0,0-1.95,2.06Z"/><path class="cls-27" d="M279.58,361.84v-4.28h-1.19v-.92h1.19V354.2h1.12v2.44h1.78v.92H280.7v4c0,.72.23,1.09,1.07,1.09a2.9,2.9,0,0,0,.7-.09v.92a6.12,6.12,0,0,1-1,.08C280.05,363.6,279.58,363,279.58,361.84Z"/><path class="cls-27" d="M283.5,360.07c0-2.49,1.66-3.57,3.1-3.57,1.63,0,2.86,1.14,2.86,3.63v.23h-4.85c0,1.55.94,2.38,2.07,2.38a2.31,2.31,0,0,0,2.07-1.12l.65.57a3.21,3.21,0,0,1-2.8,1.46C285,363.65,283.5,362.47,283.5,360.07Zm4.9-.58c-.09-1.22-.68-2.06-1.81-2.06a2,2,0,0,0-1.95,2.06Z"/></g></g></g></g></svg>