<svg xmlns="http://www.w3.org/2000/svg" width="554.899" height="581.106" viewBox="0 0 554.899 581.106">
  <g id="Group_171" data-name="Group 171" transform="translate(-716.977 -146.976)">
    <ellipse id="Ellipse_236" data-name="Ellipse 236" cx="39.678" cy="22.908" rx="39.678" ry="22.908" transform="matrix(0.498, -0.867, 0.867, 0.498, 1105.192, 691.552)" fill="#ccc"/>
    <path id="Path_738" data-name="Path 738" d="M1222.491,800.384l-30.143-16.365,40.214-67.9,27.984,14.393Z" transform="translate(-70.388 -83.088)" fill="#ccc"/>
    <ellipse id="Ellipse_237" data-name="Ellipse 237" cx="39.678" cy="22.908" rx="39.678" ry="22.908" transform="matrix(0.498, -0.867, 0.867, 0.498, 1131.607, 705.254)" fill="#b3b3b3"/>
    <ellipse id="Ellipse_238" data-name="Ellipse 238" cx="29.564" cy="17.069" rx="29.564" ry="17.069" transform="matrix(0.498, -0.867, 0.867, 0.498, 1141.708, 699.394)" fill="gray"/>
    <ellipse id="Ellipse_239" data-name="Ellipse 239" cx="39.678" cy="22.908" rx="39.678" ry="22.908" transform="matrix(0.498, -0.867, 0.867, 0.498, 1021.224, 634.55)" fill="#ccc"/>
    <path id="Path_739" data-name="Path 739" d="M1123.929,733.474l-30.143-16.365,40.214-67.9,27.984,14.393Z" transform="translate(-55.794 -73.18)" fill="#ccc"/>
    <ellipse id="Ellipse_240" data-name="Ellipse 240" cx="39.678" cy="22.908" rx="39.678" ry="22.908" transform="matrix(0.498, -0.867, 0.867, 0.498, 1047.639, 648.251)" fill="#b3b3b3"/>
    <ellipse id="Ellipse_241" data-name="Ellipse 241" cx="29.564" cy="17.069" rx="29.564" ry="17.069" transform="matrix(0.498, -0.867, 0.867, 0.498, 1057.74, 642.392)" fill="gray"/>
    <path id="Path_740" data-name="Path 740" d="M1127.723,674l-28.557-16.489V570.944l28.69,20.611Z" transform="translate(-56.59 -61.592)" fill="#2355b7"/>
    <path id="Path_741" data-name="Path 741" d="M1132.9,573.214l-.133,98.934,35.7-20.611V560.847Z" transform="translate(-61.565 -60.097)" fill="#0c3577"/>
    <path id="Path_742" data-name="Path 742" d="M1227.5,741.741l-28.557-16.489V638.685l28.69,20.611Z" transform="translate(-71.364 -71.623)" fill="#2355b7"/>
    <path id="Path_743" data-name="Path 743" d="M1232.67,640.955l-.133,98.934,35.7-20.611V628.589Z" transform="translate(-76.339 -70.128)" fill="#0c3577"/>
    <path id="Path_744" data-name="Path 744" d="M871,388.108l5.5-6.76,27.234,4.016-5.124,5.044Z" transform="translate(-22.806 -33.519)" fill="#789fff"/>
    <path id="Path_745" data-name="Path 745" d="M898.611,391.583,871,389.283v12.367l27.615,1.209Z" transform="translate(-22.806 -34.694)" fill="#2355b7"/>
    <path id="Path_746" data-name="Path 746" d="M870.626,422.451l3.5-7.984,27.318-3.4-3.591,6.229Z" transform="translate(-22.751 -37.919)" fill="#789fff"/>
    <path id="Path_747" data-name="Path 747" d="M897.852,418.375l-27.226,5.158,3.3,11.918,26.935-6.21Z" transform="translate(-22.751 -39.001)" fill="#2355b7"/>
    <circle id="Ellipse_242" data-name="Ellipse 242" cx="20.872" cy="20.872" r="20.872" transform="translate(872.494 347.293)" fill="#ffc47d"/>
    <ellipse id="Ellipse_243" data-name="Ellipse 243" cx="20.872" cy="18.791" rx="20.872" ry="18.791" transform="translate(869.938 358.23)" fill="#ff9d00"/>
    <path id="Path_748" data-name="Path 748" d="M1025.031,439.627,915,428.957V400.1l121.368-21.275Z" transform="translate(-29.322 -33.145)" fill="#0c3577"/>
    <path id="Path_749" data-name="Path 749" d="M1180.391,457.779l-153.657-89.454V550.748l153.657,88.409Z" transform="translate(-45.866 -31.591)" fill="#789fff"/>
    <path id="Path_750" data-name="Path 750" d="M1207.1,459.708l137.351-78.359V562.727L1207.1,641.086Z" transform="translate(-72.572 -33.519)" fill="#0c3577"/>
    <path id="Path_751" data-name="Path 751" d="M1317.741,365.78l-137.351,78.359-153.657-89.454,136.225-78.479Z" transform="translate(-45.866 -17.95)" fill="#124693"/>
    <path id="Path_752" data-name="Path 752" d="M1199.928,329.353v98.934l114.229-65.956-.786-99.387Z" transform="translate(-71.51 -15.987)" fill="#0c3577"/>
    <path id="Path_753" data-name="Path 753" d="M1177.593,328l-128.507-74.2v98.934l128.507,74.2Z" transform="translate(-49.175 -14.633)" fill="#789fff"/>
    <path id="Path_754" data-name="Path 754" d="M1049.085,242.336l114.229-65.956,127.722,73.747-113.443,66.409Z" transform="translate(-49.175 -3.169)" fill="#2355b7"/>
    <ellipse id="Ellipse_244" data-name="Ellipse 244" cx="33.053" cy="19.083" rx="33.053" ry="19.083" transform="translate(1156.915 341.845) rotate(-60)" fill="#ffc47d"/>
    <path id="Path_755" data-name="Path 755" d="M1264.7,382.138l-13.055-7.692,30.992-57.522,12.613,6.766Z" transform="translate(-79.168 -23.98)" fill="#ffc47d"/>
    <ellipse id="Ellipse_245" data-name="Ellipse 245" cx="33.053" cy="19.083" rx="33.053" ry="19.083" transform="matrix(0.498, -0.867, 0.867, 0.498, 1177.353, 602.417)" fill="#ff9d00"/>
    <path id="Path_756" data-name="Path 756" d="M1090.577,325.9c0,7.889-5.534,11.084-12.366,7.139s-12.366-13.529-12.366-21.418a14.519,14.519,0,0,1,.133-2.019c.878-6.385,6.028-8.7,12.233-5.12a17.628,17.628,0,0,1,1.792,1.188C1085.987,310.126,1090.577,318.722,1090.577,325.9Z" transform="translate(-51.657 -21.888)" fill="#231f20"/>
    <path id="Path_757" data-name="Path 757" d="M1080.528,309.235c0,5.674-4.272,7.816-9.539,4.775a18.307,18.307,0,0,1-4.988-4.4c.878-6.385,6.028-8.7,12.233-5.12a17.628,17.628,0,0,1,1.792,1.188A13.822,13.822,0,0,1,1080.528,309.235Z" transform="translate(-51.68 -21.888)" fill="#fff" stroke="#231f20" stroke-miterlimit="10" stroke-width="1"/>
    <path id="Path_758" data-name="Path 758" d="M1170.489,369.451c0,7.889-5.533,11.084-12.365,7.139s-12.366-13.529-12.366-21.418a14.52,14.52,0,0,1,.133-2.019c.878-6.385,6.027-8.7,12.233-5.12a17.646,17.646,0,0,1,1.792,1.188C1165.9,353.674,1170.489,362.27,1170.489,369.451Z" transform="translate(-63.489 -28.336)" fill="#231f20"/>
    <path id="Path_759" data-name="Path 759" d="M1160.441,352.783c0,5.674-4.271,7.816-9.54,4.775a18.306,18.306,0,0,1-4.987-4.4c.878-6.385,6.027-8.7,12.233-5.12a17.646,17.646,0,0,1,1.792,1.188A13.821,13.821,0,0,1,1160.441,352.783Z" transform="translate(-63.512 -28.336)" fill="#fff" stroke="#231f20" stroke-miterlimit="10" stroke-width="1"/>
    <path id="Path_760" data-name="Path 760" d="M1125.986,379.392c1.657.153,3.17,3.267,2.115,4.338-4.217,4.278-11.854,4.352-20.573-.683-8.623-4.978-16.188-13.732-20.436-22.776-1.073-2.285.421-3.68,2.087-1.936a83.163,83.163,0,0,0,18.2,14.295C1114.392,376.676,1120.848,378.92,1125.986,379.392Z" transform="translate(-54.749 -29.995)" fill="#231f20"/>
    <path id="Path_761" data-name="Path 761" d="M1273.765,689.355l.063,30.979,13.019,8.956-.067-32.869Z" transform="translate(-82.443 -79.125)" fill="#789fff"/>
    <path id="Path_762" data-name="Path 762" d="M1304.538,718.879l-.067-32.978-15.43,10.008.067,32.869" transform="translate(-84.705 -78.614)" fill="#2355b7"/>
    <path id="Path_763" data-name="Path 763" d="M1317.477,664.12l.063,30.979,13.019,8.956-.067-32.869Z" transform="translate(-88.916 -75.389)" fill="#0c3577"/>
    <path id="Path_764" data-name="Path 764" d="M1332.82,703.544l15.431-9.9-.067-32.978-15.43,10.008.06,29.515" transform="translate(-91.178 -74.877)" fill="#2355b7"/>
    <ellipse id="Ellipse_246" data-name="Ellipse 246" cx="33.053" cy="19.083" rx="33.053" ry="19.083" transform="translate(1167.208 347.788) rotate(-60)" fill="#ff9d00"/>
    <ellipse id="Ellipse_247" data-name="Ellipse 247" cx="26.67" cy="15.398" rx="26.67" ry="15.398" transform="translate(1171.966 445.938) rotate(-60)" fill="#ffc47d"/>
    <path id="Path_765" data-name="Path 765" d="M1276.318,502.814l-10.534-6.206,25.007-46.413,10.177,5.459Z" transform="translate(-81.261 -43.713)" fill="#ffc47d"/>
    <ellipse id="Ellipse_248" data-name="Ellipse 248" cx="26.67" cy="15.398" rx="26.67" ry="15.398" transform="translate(1180.271 450.733) rotate(-60)" fill="#ff9d00"/>
    <path id="Path_766" data-name="Path 766" d="M1298.875,693.156l-25.11-13.632,33.5-56.566,23.312,11.99Z" transform="translate(-82.443 -69.294)" fill="#ff9d00"/>
    <ellipse id="Ellipse_249" data-name="Ellipse 249" cx="33.053" cy="19.083" rx="33.053" ry="19.083" transform="matrix(0.498, -0.867, 0.867, 0.498, 1199.357, 613.83)" fill="#d17c00"/>
    <path id="Path_767" data-name="Path 767" d="M1309.581,468.14l-42.786,24.82,28.591,16.431,42.786-24.82Z" transform="translate(-81.411 -46.37)" fill="#2355b7"/>
    <path id="Path_768" data-name="Path 768" d="M1300.355,512.247l.3,148.4,42.785-24.82-.3-148.4Z" transform="translate(-86.38 -49.226)" fill="#0c3577"/>
    <path id="Path_769" data-name="Path 769" d="M1266.795,497.274l28.591,16.431.3,148.4L1267.1,645.674Z" transform="translate(-81.411 -50.684)" fill="#789fff"/>
    <path id="Path_770" data-name="Path 770" d="M915,398.546l14.279-21.275,80.909-8.946v15.11Z" transform="translate(-29.322 -31.591)" fill="#2355b7"/>
    <rect id="Rectangle_162" data-name="Rectangle 162" width="167.85" height="102.617" transform="matrix(0.954, -0.299, 0.299, 0.954, 716.977, 241.022)" fill="#ffd297"/>
    <rect id="Rectangle_163" data-name="Rectangle 163" width="49.368" height="19.953" transform="matrix(0.954, -0.299, 0.299, 0.954, 721.281, 221.748)" fill="#ffd297"/>
    <path id="Path_771" data-name="Path 771" d="M777.323,216.016,807.7,230.39l-23.553,7.385Z" transform="translate(-8.935 -9.038)" fill="#ffd297"/>
    <path id="Path_772" data-name="Path 772" d="M901.781,154.976l-51.044,84.713L819.508,222.6" transform="translate(-15.182)" fill="none" stroke="#22b573" stroke-linecap="round" stroke-miterlimit="10" stroke-width="16"/>
    <path id="Path_773" data-name="Path 773" d="M1156.981,573.228V508.569l-48.494-60.327-48.494,4.331v64.658l48.494,60.327Z" transform="translate(-50.79 -43.424)" fill="#4d4d4d"/>
    <path id="Path_774" data-name="Path 774" d="M1147.618,512.546l-13.161,1.17-18.352,1.647v-42h.012l31.5,39.185" transform="translate(-59.099 -47.143)" fill="#3783dc"/>
    <path id="Path_775" data-name="Path 775" d="M1110.628,473.352v42.008l-18.268-22.727v.028l-.114-.142h.024l-13.137-16.347-.018-.017,31.5-2.81Z" transform="translate(-53.622 -47.141)" fill="#82b8f9"/>
    <path id="Path_776" data-name="Path 776" d="M1131.282,517.065l-18.358,1.636-18.268-22.727V496l-.114-.135.024-.007" transform="translate(-55.906 -50.475)" fill="#ffac1a"/>
    <path id="Path_777" data-name="Path 777" d="M1131.283,516.876l-16.331-20.317c-1.252-1.558-2.8-2.449-4.048-2.338l-13.621,1.216c-1.441.128-2.625.224-2.625.217s0,0-.054-.031-.055.01-.049.02h0" transform="translate(-55.907 -50.23)" fill="#ffac1a"/>
    <path id="Path_778" data-name="Path 778" d="M1117.579,568.571l.012-17.538.012-24.463,31.489,39.205v.014l-31.513,2.783" transform="translate(-59.317 -55.022)" fill="#0b5cad"/>
    <path id="Path_779" data-name="Path 779" d="M1149.1,565.3l-31.5-39.216,18.28-1.612-.024-.028.114-.01v.035l13.143-1.16h.012l-.03,41.977Z" transform="translate(-59.321 -54.539)" fill="#3783dc"/>
    <path id="Path_780" data-name="Path 780" d="M1117.579,550.754l.018-24.46,18.274-1.616-.018-.024.108-.014v.035" transform="translate(-59.317 -54.736)" fill="#d68400"/>
    <path id="Path_781" data-name="Path 781" d="M1117.509,550.679l16.36-1.422c1.25-.112,2.022-1.2,2.027-2.869V524.6h0" transform="translate(-59.307 -54.729)" fill="#d68400"/>
    <path id="Path_782" data-name="Path 782" d="M1109.083,566.823l-.012-17.552-.018-24.481-31.483,2.848v.014l31.513,39.171" transform="translate(-53.393 -54.758)" fill="#0b5cad"/>
    <path id="Path_783" data-name="Path 783" d="M1077.557,520.833l31.489-2.852-18.274-22.717h.024l-.114-.142v.035l-13.143-16.337-.018-.017.03,42.012Z" transform="translate(-53.386 -47.949)" fill="#82b8f9"/>
    <path id="Path_784" data-name="Path 784" d="M1111.365,545.322l-.018-24.481-18.28-22.72h.024l-.114-.142v.035" transform="translate(-55.674 -50.788)" fill="#ef9300"/>
    <path id="Path_785" data-name="Path 785" d="M1111.411,545.313l-16.337-20.3a8.846,8.846,0,0,1-2.028-5.21V498.012h0" transform="translate(-55.684 -50.793)" fill="#ef9300"/>
  </g>
</svg>
